%TF.GenerationSoftware,KiCad,Pcbnew,8.0.0*%
%TF.CreationDate,2024-03-20T23:30:35+02:00*%
%TF.ProjectId,SensorKiCad-RTHMAT004,53656e73-6f72-44b6-9943-61642d525448,rev?*%
%TF.SameCoordinates,Original*%
%TF.FileFunction,Soldermask,Top*%
%TF.FilePolarity,Negative*%
%FSLAX46Y46*%
G04 Gerber Fmt 4.6, Leading zero omitted, Abs format (unit mm)*
G04 Created by KiCad (PCBNEW 8.0.0) date 2024-03-20 23:30:35*
%MOMM*%
%LPD*%
G01*
G04 APERTURE LIST*
G04 Aperture macros list*
%AMRoundRect*
0 Rectangle with rounded corners*
0 $1 Rounding radius*
0 $2 $3 $4 $5 $6 $7 $8 $9 X,Y pos of 4 corners*
0 Add a 4 corners polygon primitive as box body*
4,1,4,$2,$3,$4,$5,$6,$7,$8,$9,$2,$3,0*
0 Add four circle primitives for the rounded corners*
1,1,$1+$1,$2,$3*
1,1,$1+$1,$4,$5*
1,1,$1+$1,$6,$7*
1,1,$1+$1,$8,$9*
0 Add four rect primitives between the rounded corners*
20,1,$1+$1,$2,$3,$4,$5,0*
20,1,$1+$1,$4,$5,$6,$7,0*
20,1,$1+$1,$6,$7,$8,$9,0*
20,1,$1+$1,$8,$9,$2,$3,0*%
G04 Aperture macros list end*
%ADD10RoundRect,0.250000X-0.450000X0.262500X-0.450000X-0.262500X0.450000X-0.262500X0.450000X0.262500X0*%
%ADD11R,1.000000X1.500000*%
%ADD12R,1.800000X1.800000*%
%ADD13C,1.800000*%
%ADD14C,2.500000*%
%ADD15RoundRect,0.250000X0.262500X0.450000X-0.262500X0.450000X-0.262500X-0.450000X0.262500X-0.450000X0*%
%ADD16RoundRect,0.250000X0.312500X0.625000X-0.312500X0.625000X-0.312500X-0.625000X0.312500X-0.625000X0*%
%ADD17RoundRect,0.150000X0.150000X-0.587500X0.150000X0.587500X-0.150000X0.587500X-0.150000X-0.587500X0*%
%ADD18RoundRect,0.250000X0.450000X-0.262500X0.450000X0.262500X-0.450000X0.262500X-0.450000X-0.262500X0*%
%ADD19RoundRect,0.250000X-0.625000X0.312500X-0.625000X-0.312500X0.625000X-0.312500X0.625000X0.312500X0*%
%ADD20R,1.500000X1.000000*%
%ADD21RoundRect,0.250000X-0.262500X-0.450000X0.262500X-0.450000X0.262500X0.450000X-0.262500X0.450000X0*%
%ADD22RoundRect,0.150000X0.587500X0.150000X-0.587500X0.150000X-0.587500X-0.150000X0.587500X-0.150000X0*%
%ADD23RoundRect,0.250000X-0.312500X-0.625000X0.312500X-0.625000X0.312500X0.625000X-0.312500X0.625000X0*%
%ADD24RoundRect,0.150000X-0.587500X-0.150000X0.587500X-0.150000X0.587500X0.150000X-0.587500X0.150000X0*%
%ADD25R,1.700000X1.700000*%
%ADD26O,1.700000X1.700000*%
G04 APERTURE END LIST*
D10*
%TO.C,R33*%
X5900000Y33312500D03*
X5900000Y31487500D03*
%TD*%
D11*
%TO.C,JP4*%
X-44300000Y17000000D03*
X-43000000Y17000000D03*
%TD*%
%TO.C,JP17*%
X-16600000Y32800000D03*
X-17900000Y32800000D03*
%TD*%
D12*
%TO.C,D3*%
X-21000000Y54000000D03*
D13*
X-18460000Y54000000D03*
%TD*%
D14*
%TO.C,TP6*%
X-15300000Y23000000D03*
%TD*%
D10*
%TO.C,R1*%
X-60000000Y17912500D03*
X-60000000Y16087500D03*
%TD*%
D11*
%TO.C,JP26*%
X-1450000Y35350000D03*
X-2750000Y35350000D03*
%TD*%
D12*
%TO.C,D7*%
X-10475000Y42525000D03*
D13*
X-13015000Y42525000D03*
%TD*%
D15*
%TO.C,R10*%
X-36975000Y22500000D03*
X-38800000Y22500000D03*
%TD*%
D16*
%TO.C,R37*%
X-16075000Y47500000D03*
X-19000000Y47500000D03*
%TD*%
D15*
%TO.C,R28*%
X2487500Y41750000D03*
X4312500Y41750000D03*
%TD*%
D17*
%TO.C,Q4*%
X-11450000Y37375000D03*
X-9550000Y37375000D03*
X-10500000Y39250000D03*
%TD*%
D11*
%TO.C,JP20*%
X-1650000Y48750000D03*
X-350000Y48750000D03*
%TD*%
%TO.C,JP12*%
X-27350000Y33250000D03*
X-28650000Y33250000D03*
%TD*%
D15*
%TO.C,R20*%
X-3337500Y46250000D03*
X-5162500Y46250000D03*
%TD*%
D11*
%TO.C,JP11*%
X-39950000Y47500000D03*
X-41250000Y47500000D03*
%TD*%
D18*
%TO.C,R25*%
X7143750Y19043750D03*
X7143750Y20868750D03*
%TD*%
D19*
%TO.C,R9*%
X-39000000Y40312500D03*
X-39000000Y37387500D03*
%TD*%
D20*
%TO.C,JP38*%
X8300000Y28900000D03*
X8300000Y30200000D03*
%TD*%
D21*
%TO.C,R27*%
X-462500Y27250000D03*
X1362500Y27250000D03*
%TD*%
D20*
%TO.C,JP21*%
X18643750Y17206250D03*
X18643750Y15906250D03*
%TD*%
%TO.C,JP25*%
X9343750Y17206250D03*
X9343750Y15906250D03*
%TD*%
D11*
%TO.C,JP23*%
X-300000Y16050000D03*
X-1600000Y16050000D03*
%TD*%
%TO.C,JP30*%
X-1562500Y24750000D03*
X-2862500Y24750000D03*
%TD*%
D20*
%TO.C,JP39*%
X13700000Y29200000D03*
X13700000Y30500000D03*
%TD*%
D11*
%TO.C,JP28*%
X7000000Y44800000D03*
X8300000Y44800000D03*
%TD*%
D12*
%TO.C,D5*%
X-49500000Y40000000D03*
D13*
X-49500000Y37460000D03*
%TD*%
D18*
%TO.C,R21*%
X16343750Y19043750D03*
X16343750Y20868750D03*
%TD*%
D14*
%TO.C,TP8*%
X-4550000Y15900000D03*
%TD*%
D12*
%TO.C,D1*%
X-49000000Y27000000D03*
D13*
X-49000000Y24460000D03*
%TD*%
D15*
%TO.C,R36*%
X-16087500Y39000000D03*
X-17912500Y39000000D03*
%TD*%
D18*
%TO.C,R22*%
X11643750Y19043750D03*
X11643750Y20868750D03*
%TD*%
D22*
%TO.C,Q2*%
X-44562500Y38050000D03*
X-44562500Y39950000D03*
X-46437500Y39000000D03*
%TD*%
D11*
%TO.C,JP13*%
X-27250000Y29250000D03*
X-28550000Y29250000D03*
%TD*%
%TO.C,JP19*%
X-1650000Y53500000D03*
X-350000Y53500000D03*
%TD*%
%TO.C,JP18*%
X-16600000Y29550000D03*
X-17900000Y29550000D03*
%TD*%
%TO.C,JP14*%
X-39950000Y43250000D03*
X-41250000Y43250000D03*
%TD*%
D21*
%TO.C,R13*%
X-24162500Y33250000D03*
X-22337500Y33250000D03*
%TD*%
D14*
%TO.C,TP5*%
X-32700000Y21600000D03*
%TD*%
D20*
%TO.C,JP32*%
X-43500000Y29850000D03*
X-43500000Y31150000D03*
%TD*%
D15*
%TO.C,R32*%
X-16087500Y42750000D03*
X-17912500Y42750000D03*
%TD*%
D10*
%TO.C,R38*%
X11100000Y33312500D03*
X11100000Y31487500D03*
%TD*%
D14*
%TO.C,TP3*%
X-6200000Y22300000D03*
%TD*%
D10*
%TO.C,R2*%
X-56000000Y17912500D03*
X-56000000Y16087500D03*
%TD*%
D16*
%TO.C,R29*%
X4712500Y44800000D03*
X1787500Y44800000D03*
%TD*%
D19*
%TO.C,R39*%
X16700000Y33362500D03*
X16700000Y30437500D03*
%TD*%
D20*
%TO.C,JP37*%
X3500000Y28900000D03*
X3500000Y30200000D03*
%TD*%
D17*
%TO.C,Q3*%
X-26700000Y36900000D03*
X-24800000Y36900000D03*
X-25750000Y38775000D03*
%TD*%
D21*
%TO.C,R26*%
X-462500Y32550000D03*
X1362500Y32550000D03*
%TD*%
D23*
%TO.C,R19*%
X-13212500Y29550000D03*
X-10287500Y29550000D03*
%TD*%
D11*
%TO.C,JP10*%
X-36300000Y25000000D03*
X-35000000Y25000000D03*
%TD*%
D15*
%TO.C,R4*%
X-47087500Y17000000D03*
X-48912500Y17000000D03*
%TD*%
D11*
%TO.C,JP27*%
X7000000Y41750000D03*
X8300000Y41750000D03*
%TD*%
D12*
%TO.C,D9*%
X11325000Y36325000D03*
D13*
X11325000Y38865000D03*
%TD*%
D20*
%TO.C,JP8*%
X-36500000Y40700000D03*
X-36500000Y42000000D03*
%TD*%
D22*
%TO.C,Q1*%
X-43562500Y25050000D03*
X-43562500Y26950000D03*
X-45437500Y26000000D03*
%TD*%
D23*
%TO.C,R14*%
X-24462500Y29500000D03*
X-21537500Y29500000D03*
%TD*%
D15*
%TO.C,R6*%
X-36975000Y32500000D03*
X-38800000Y32500000D03*
%TD*%
D23*
%TO.C,R24*%
X2037500Y16050000D03*
X4962500Y16050000D03*
%TD*%
D10*
%TO.C,R8*%
X-34000000Y38912500D03*
X-34000000Y37087500D03*
%TD*%
D21*
%TO.C,R30*%
X-412500Y22250000D03*
X1412500Y22250000D03*
%TD*%
%TO.C,R12*%
X-37762500Y45500000D03*
X-35937500Y45500000D03*
%TD*%
D12*
%TO.C,D2*%
X19700000Y29825000D03*
D13*
X19700000Y32365000D03*
%TD*%
D10*
%TO.C,R31*%
X-51000000Y33412500D03*
X-51000000Y31587500D03*
%TD*%
D14*
%TO.C,TP4*%
X-32800000Y17000000D03*
%TD*%
D20*
%TO.C,JP7*%
X-31500000Y40700000D03*
X-31500000Y42000000D03*
%TD*%
D11*
%TO.C,JP16*%
X-1650000Y43750000D03*
X-350000Y43750000D03*
%TD*%
%TO.C,JP34*%
X-22400000Y50000000D03*
X-21100000Y50000000D03*
%TD*%
D20*
%TO.C,JP33*%
X-48500000Y30350000D03*
X-48500000Y31650000D03*
%TD*%
D21*
%TO.C,R15*%
X-37762500Y53750000D03*
X-35937500Y53750000D03*
%TD*%
D15*
%TO.C,R17*%
X-3337500Y51000000D03*
X-5162500Y51000000D03*
%TD*%
D11*
%TO.C,JP29*%
X-1500000Y29950000D03*
X-2800000Y29950000D03*
%TD*%
D12*
%TO.C,D6*%
X-25725000Y42525000D03*
D13*
X-28265000Y42525000D03*
%TD*%
D24*
%TO.C,Q5*%
X5862500Y25650000D03*
X5862500Y23750000D03*
X7737500Y24700000D03*
%TD*%
D10*
%TO.C,R3*%
X-52000000Y17912500D03*
X-52000000Y16087500D03*
%TD*%
D20*
%TO.C,JP1*%
X-52000000Y20350000D03*
X-52000000Y21650000D03*
%TD*%
%TO.C,JP31*%
X-53500000Y30350000D03*
X-53500000Y31650000D03*
%TD*%
D11*
%TO.C,JP22*%
X-350000Y18950000D03*
X-1650000Y18950000D03*
%TD*%
D15*
%TO.C,R7*%
X-36975000Y27500000D03*
X-38800000Y27500000D03*
%TD*%
D21*
%TO.C,R23*%
X2987500Y18700000D03*
X4812500Y18700000D03*
%TD*%
D16*
%TO.C,R5*%
X-46537500Y21000000D03*
X-49462500Y21000000D03*
%TD*%
D11*
%TO.C,JP9*%
X-36300000Y30000000D03*
X-35000000Y30000000D03*
%TD*%
D14*
%TO.C,TP2*%
X-20650000Y36300000D03*
%TD*%
D19*
%TO.C,R35*%
X-56000000Y34462500D03*
X-56000000Y31537500D03*
%TD*%
D20*
%TO.C,JP24*%
X13843750Y17156250D03*
X13843750Y15856250D03*
%TD*%
D11*
%TO.C,JP36*%
X-22400000Y44750000D03*
X-21100000Y44750000D03*
%TD*%
D20*
%TO.C,JP2*%
X-56000000Y20350000D03*
X-56000000Y21650000D03*
%TD*%
D10*
%TO.C,R34*%
X-46000000Y33325000D03*
X-46000000Y31500000D03*
%TD*%
D20*
%TO.C,JP3*%
X-60000000Y20350000D03*
X-60000000Y21650000D03*
%TD*%
D11*
%TO.C,JP6*%
X-36300000Y35000000D03*
X-35000000Y35000000D03*
%TD*%
D14*
%TO.C,TP1*%
X-36550000Y19200000D03*
%TD*%
D25*
%TO.C,J1*%
X-36400000Y4000000D03*
D26*
X-36400000Y6540000D03*
X-33860000Y4000000D03*
X-33860000Y6540000D03*
X-31320000Y4000000D03*
X-31320000Y6540000D03*
X-28780000Y4000000D03*
X-28780000Y6540000D03*
X-26240000Y4000000D03*
X-26240000Y6540000D03*
X-23700000Y4000000D03*
X-23700000Y6540000D03*
X-21160000Y4000000D03*
X-21160000Y6540000D03*
X-18620000Y4000000D03*
X-18620000Y6540000D03*
X-16080000Y4000000D03*
X-16080000Y6540000D03*
X-13540000Y4000000D03*
X-13540000Y6540000D03*
X-11000000Y4000000D03*
X-11000000Y6540000D03*
X-8460000Y4000000D03*
X-8460000Y6540000D03*
X-5920000Y4000000D03*
X-5920000Y6540000D03*
X-3380000Y4000000D03*
X-3380000Y6540000D03*
%TD*%
D11*
%TO.C,JP5*%
X-44300000Y21000000D03*
X-43000000Y21000000D03*
%TD*%
D12*
%TO.C,D8*%
X10925000Y23625000D03*
D13*
X10925000Y26165000D03*
%TD*%
D12*
%TO.C,D4*%
X-59500000Y33000000D03*
D13*
X-59500000Y30460000D03*
%TD*%
D15*
%TO.C,R16*%
X-3337500Y41250000D03*
X-5162500Y41250000D03*
%TD*%
D14*
%TO.C,TP7*%
X-6400000Y11600000D03*
%TD*%
D21*
%TO.C,R18*%
X-12912500Y32800000D03*
X-11087500Y32800000D03*
%TD*%
D11*
%TO.C,JP35*%
X-22400000Y40000000D03*
X-21100000Y40000000D03*
%TD*%
%TO.C,JP15*%
X-39950000Y51750000D03*
X-41250000Y51750000D03*
%TD*%
D21*
%TO.C,R11*%
X-37762500Y49500000D03*
X-35937500Y49500000D03*
%TD*%
D24*
%TO.C,Q6*%
X6412500Y38450000D03*
X6412500Y36550000D03*
X8287500Y37500000D03*
%TD*%
M02*
