M48
; DRILL file {KiCad 8.0.0} date 2024-03-20T23:30:35+0200
; FORMAT={-:-/ absolute / inch / decimal}
; #@! TF.CreationDate,2024-03-20T23:30:35+02:00
; #@! TF.GenerationSoftware,Kicad,Pcbnew,8.0.0
; #@! TF.FileFunction,Plated,1,2,PTH
FMAT,2
INCH
; #@! TA.AperFunction,Plated,PTH,ComponentDrill
T1C0.0354
; #@! TA.AperFunction,Plated,PTH,ComponentDrill
T2C0.0394
%
G90
G05
T1
X-2.3425Y1.2992
X-2.3425Y1.1992
X-1.9488Y1.5748
X-1.9488Y1.4748
X-1.9291Y1.063
X-1.9291Y0.963
X-1.1128Y1.6742
X-1.0128Y1.6742
X-0.8268Y2.126
X-0.7268Y2.126
X-0.5124Y1.6742
X-0.4124Y1.6742
X0.4301Y1.0301
X0.4301Y0.9301
X0.4459Y1.5301
X0.4459Y1.4301
X0.7756Y1.2742
X0.7756Y1.1742
T2
X-1.4331Y0.2575
X-1.4331Y0.1575
X-1.3331Y0.2575
X-1.3331Y0.1575
X-1.2331Y0.2575
X-1.2331Y0.1575
X-1.1331Y0.2575
X-1.1331Y0.1575
X-1.0331Y0.2575
X-1.0331Y0.1575
X-0.9331Y0.2575
X-0.9331Y0.1575
X-0.8331Y0.2575
X-0.8331Y0.1575
X-0.7331Y0.2575
X-0.7331Y0.1575
X-0.6331Y0.2575
X-0.6331Y0.1575
X-0.5331Y0.2575
X-0.5331Y0.1575
X-0.4331Y0.2575
X-0.4331Y0.1575
X-0.3331Y0.2575
X-0.3331Y0.1575
X-0.2331Y0.2575
X-0.2331Y0.1575
X-0.1331Y0.2575
X-0.1331Y0.1575
M30
