%TF.GenerationSoftware,KiCad,Pcbnew,8.0.0*%
%TF.CreationDate,2024-03-20T23:30:35+02:00*%
%TF.ProjectId,SensorKiCad-RTHMAT004,53656e73-6f72-44b6-9943-61642d525448,rev?*%
%TF.SameCoordinates,Original*%
%TF.FileFunction,Copper,L1,Top*%
%TF.FilePolarity,Positive*%
%FSLAX46Y46*%
G04 Gerber Fmt 4.6, Leading zero omitted, Abs format (unit mm)*
G04 Created by KiCad (PCBNEW 8.0.0) date 2024-03-20 23:30:35*
%MOMM*%
%LPD*%
G01*
G04 APERTURE LIST*
G04 Aperture macros list*
%AMRoundRect*
0 Rectangle with rounded corners*
0 $1 Rounding radius*
0 $2 $3 $4 $5 $6 $7 $8 $9 X,Y pos of 4 corners*
0 Add a 4 corners polygon primitive as box body*
4,1,4,$2,$3,$4,$5,$6,$7,$8,$9,$2,$3,0*
0 Add four circle primitives for the rounded corners*
1,1,$1+$1,$2,$3*
1,1,$1+$1,$4,$5*
1,1,$1+$1,$6,$7*
1,1,$1+$1,$8,$9*
0 Add four rect primitives between the rounded corners*
20,1,$1+$1,$2,$3,$4,$5,0*
20,1,$1+$1,$4,$5,$6,$7,0*
20,1,$1+$1,$6,$7,$8,$9,0*
20,1,$1+$1,$8,$9,$2,$3,0*%
G04 Aperture macros list end*
%TA.AperFunction,Conductor*%
%ADD10C,0.200000*%
%TD*%
%TA.AperFunction,SMDPad,CuDef*%
%ADD11RoundRect,0.250000X-0.450000X0.262500X-0.450000X-0.262500X0.450000X-0.262500X0.450000X0.262500X0*%
%TD*%
%TA.AperFunction,SMDPad,CuDef*%
%ADD12R,1.000000X1.500000*%
%TD*%
%TA.AperFunction,ComponentPad*%
%ADD13R,1.800000X1.800000*%
%TD*%
%TA.AperFunction,ComponentPad*%
%ADD14C,1.800000*%
%TD*%
%TA.AperFunction,SMDPad,CuDef*%
%ADD15C,2.500000*%
%TD*%
%TA.AperFunction,SMDPad,CuDef*%
%ADD16RoundRect,0.250000X0.262500X0.450000X-0.262500X0.450000X-0.262500X-0.450000X0.262500X-0.450000X0*%
%TD*%
%TA.AperFunction,SMDPad,CuDef*%
%ADD17RoundRect,0.250000X0.312500X0.625000X-0.312500X0.625000X-0.312500X-0.625000X0.312500X-0.625000X0*%
%TD*%
%TA.AperFunction,SMDPad,CuDef*%
%ADD18RoundRect,0.150000X0.150000X-0.587500X0.150000X0.587500X-0.150000X0.587500X-0.150000X-0.587500X0*%
%TD*%
%TA.AperFunction,SMDPad,CuDef*%
%ADD19RoundRect,0.250000X0.450000X-0.262500X0.450000X0.262500X-0.450000X0.262500X-0.450000X-0.262500X0*%
%TD*%
%TA.AperFunction,SMDPad,CuDef*%
%ADD20RoundRect,0.250000X-0.625000X0.312500X-0.625000X-0.312500X0.625000X-0.312500X0.625000X0.312500X0*%
%TD*%
%TA.AperFunction,SMDPad,CuDef*%
%ADD21R,1.500000X1.000000*%
%TD*%
%TA.AperFunction,SMDPad,CuDef*%
%ADD22RoundRect,0.250000X-0.262500X-0.450000X0.262500X-0.450000X0.262500X0.450000X-0.262500X0.450000X0*%
%TD*%
%TA.AperFunction,SMDPad,CuDef*%
%ADD23RoundRect,0.150000X0.587500X0.150000X-0.587500X0.150000X-0.587500X-0.150000X0.587500X-0.150000X0*%
%TD*%
%TA.AperFunction,SMDPad,CuDef*%
%ADD24RoundRect,0.250000X-0.312500X-0.625000X0.312500X-0.625000X0.312500X0.625000X-0.312500X0.625000X0*%
%TD*%
%TA.AperFunction,SMDPad,CuDef*%
%ADD25RoundRect,0.150000X-0.587500X-0.150000X0.587500X-0.150000X0.587500X0.150000X-0.587500X0.150000X0*%
%TD*%
%TA.AperFunction,ComponentPad*%
%ADD26R,1.700000X1.700000*%
%TD*%
%TA.AperFunction,ComponentPad*%
%ADD27O,1.700000X1.700000*%
%TD*%
G04 APERTURE END LIST*
D10*
%TO.N,/Signal Left*%
X22000000Y14000000D02*
X0Y14000000D01*
X22000000Y28000000D02*
X22000000Y14000000D01*
X-41000000Y56000000D02*
X-62000000Y34000000D01*
X-41000000Y56000000D02*
X1000000Y56000000D01*
X-40000000Y0D02*
X-40000000Y14000000D01*
X0Y0D02*
X0Y14000000D01*
X-40000000Y14000000D02*
X-62000000Y14000000D01*
X-62000000Y28000000D02*
X-62000000Y34000000D01*
X-62000000Y28000000D02*
X-62000000Y14000000D01*
X22000000Y14000000D02*
X0Y14000000D01*
X22000000Y34000000D02*
X1000000Y56000000D01*
X0Y0D02*
X-40000000Y0D01*
X22000000Y28000000D02*
X22000000Y34000000D01*
%TD*%
D11*
%TO.P,R33,1*%
%TO.N,/Signal Right*%
X5900000Y33312500D03*
%TO.P,R33,2*%
%TO.N,Net-(JP37-B)*%
X5900000Y31487500D03*
%TD*%
D12*
%TO.P,JP4,1,A*%
%TO.N,Net-(JP4-A)*%
X-44300000Y17000000D03*
%TO.P,JP4,2,B*%
%TO.N,/PWM Left*%
X-43000000Y17000000D03*
%TD*%
%TO.P,JP17,1,A*%
%TO.N,Net-(JP17-A)*%
X-16600000Y32800000D03*
%TO.P,JP17,2,B*%
%TO.N,/PWM Centre*%
X-17900000Y32800000D03*
%TD*%
D13*
%TO.P,D3,1,K*%
%TO.N,/BATT*%
X-21000000Y54000000D03*
D14*
%TO.P,D3,2,A*%
%TO.N,/Signal Centre*%
X-18460000Y54000000D03*
%TD*%
D15*
%TO.P,TP6,1,1*%
%TO.N,/PWM Centre*%
X-15300000Y23000000D03*
%TD*%
D11*
%TO.P,R1,1*%
%TO.N,Net-(JP3-A)*%
X-60000000Y17912500D03*
%TO.P,R1,2*%
%TO.N,Net-(D1-A)*%
X-60000000Y16087500D03*
%TD*%
D12*
%TO.P,JP26,1,A*%
%TO.N,Net-(JP26-A)*%
X-1450000Y35350000D03*
%TO.P,JP26,2,B*%
%TO.N,/BATT*%
X-2750000Y35350000D03*
%TD*%
D13*
%TO.P,D7,1,K*%
%TO.N,Net-(D7-K)*%
X-10475000Y42525000D03*
D14*
%TO.P,D7,2,A*%
%TO.N,Net-(D7-A)*%
X-13015000Y42525000D03*
%TD*%
D16*
%TO.P,R10,1*%
%TO.N,Net-(JP10-A)*%
X-36975000Y22500000D03*
%TO.P,R10,2*%
%TO.N,Net-(D5-A)*%
X-38800000Y22500000D03*
%TD*%
D17*
%TO.P,R37,1*%
%TO.N,/Signal Centre*%
X-16075000Y47500000D03*
%TO.P,R37,2*%
%TO.N,Net-(JP34-B)*%
X-19000000Y47500000D03*
%TD*%
D16*
%TO.P,R28,2*%
%TO.N,Net-(Q6-B)*%
X2487500Y41750000D03*
%TO.P,R28,1*%
%TO.N,Net-(JP27-A)*%
X4312500Y41750000D03*
%TD*%
D18*
%TO.P,Q4,1,E*%
%TO.N,GND*%
X-11450000Y37375000D03*
%TO.P,Q4,2,B*%
%TO.N,Net-(Q4-B)*%
X-9550000Y37375000D03*
%TO.P,Q4,3,C*%
%TO.N,Net-(D7-K)*%
X-10500000Y39250000D03*
%TD*%
D12*
%TO.P,JP20,1,A*%
%TO.N,Net-(JP20-A)*%
X-1650000Y48750000D03*
%TO.P,JP20,2,B*%
%TO.N,/BATT*%
X-350000Y48750000D03*
%TD*%
%TO.P,JP12,1,A*%
%TO.N,Net-(JP12-A)*%
X-27350000Y33250000D03*
%TO.P,JP12,2,B*%
%TO.N,/PWM Centre*%
X-28650000Y33250000D03*
%TD*%
D16*
%TO.P,R20,1*%
%TO.N,Net-(JP20-A)*%
X-3337500Y46250000D03*
%TO.P,R20,2*%
%TO.N,Net-(D7-A)*%
X-5162500Y46250000D03*
%TD*%
D12*
%TO.P,JP11,1,A*%
%TO.N,Net-(JP11-A)*%
X-39950000Y47500000D03*
%TO.P,JP11,2,B*%
%TO.N,/BATT*%
X-41250000Y47500000D03*
%TD*%
D19*
%TO.P,R25,1*%
%TO.N,Net-(JP25-A)*%
X7143750Y19043750D03*
%TO.P,R25,2*%
%TO.N,Net-(D8-A)*%
X7143750Y20868750D03*
%TD*%
D20*
%TO.P,R9,1*%
%TO.N,Net-(JP8-A)*%
X-39000000Y40312500D03*
%TO.P,R9,2*%
%TO.N,Net-(Q2-B)*%
X-39000000Y37387500D03*
%TD*%
D21*
%TO.P,JP38,1,A*%
%TO.N,GND*%
X8300000Y28900000D03*
%TO.P,JP38,2,B*%
%TO.N,Net-(JP38-B)*%
X8300000Y30200000D03*
%TD*%
D22*
%TO.P,R27,1*%
%TO.N,Net-(JP29-A)*%
X-462500Y27250000D03*
%TO.P,R27,2*%
%TO.N,Net-(D9-A)*%
X1362500Y27250000D03*
%TD*%
D21*
%TO.P,JP21,1,A*%
%TO.N,Net-(JP21-A)*%
X18643750Y17206250D03*
%TO.P,JP21,2,B*%
%TO.N,/BATT*%
X18643750Y15906250D03*
%TD*%
%TO.P,JP25,1,A*%
%TO.N,Net-(JP25-A)*%
X9343750Y17206250D03*
%TO.P,JP25,2,B*%
%TO.N,/BATT*%
X9343750Y15906250D03*
%TD*%
D12*
%TO.P,JP23,1,A*%
%TO.N,Net-(JP23-A)*%
X-300000Y16050000D03*
%TO.P,JP23,2,B*%
%TO.N,/PWM Right*%
X-1600000Y16050000D03*
%TD*%
%TO.P,JP30,1,A*%
%TO.N,Net-(JP30-A)*%
X-1562500Y24750000D03*
%TO.P,JP30,2,B*%
%TO.N,/BATT*%
X-2862500Y24750000D03*
%TD*%
D21*
%TO.P,JP39,1,A*%
%TO.N,GND*%
X13700000Y29200000D03*
%TO.P,JP39,2,B*%
%TO.N,Net-(JP39-B)*%
X13700000Y30500000D03*
%TD*%
D12*
%TO.P,JP28,1,A*%
%TO.N,Net-(JP28-A)*%
X7000000Y44800000D03*
%TO.P,JP28,2,B*%
%TO.N,/PWM Right*%
X8300000Y44800000D03*
%TD*%
D13*
%TO.P,D5,1,K*%
%TO.N,Net-(D5-K)*%
X-49500000Y40000000D03*
D14*
%TO.P,D5,2,A*%
%TO.N,Net-(D5-A)*%
X-49500000Y37460000D03*
%TD*%
D19*
%TO.P,R21,1*%
%TO.N,Net-(JP21-A)*%
X16343750Y19043750D03*
%TO.P,R21,2*%
%TO.N,Net-(D8-A)*%
X16343750Y20868750D03*
%TD*%
D15*
%TO.P,TP8,1,1*%
%TO.N,/PWM Right*%
X-4550000Y15900000D03*
%TD*%
D13*
%TO.P,D1,1,K*%
%TO.N,Net-(D1-K)*%
X-49000000Y27000000D03*
D14*
%TO.P,D1,2,A*%
%TO.N,Net-(D1-A)*%
X-49000000Y24460000D03*
%TD*%
D16*
%TO.P,R36,1*%
%TO.N,/Signal Centre*%
X-16087500Y39000000D03*
%TO.P,R36,2*%
%TO.N,Net-(JP35-B)*%
X-17912500Y39000000D03*
%TD*%
D19*
%TO.P,R22,1*%
%TO.N,Net-(JP24-A)*%
X11643750Y19043750D03*
%TO.P,R22,2*%
%TO.N,Net-(D8-A)*%
X11643750Y20868750D03*
%TD*%
D23*
%TO.P,Q2,1,E*%
%TO.N,GND*%
X-44562500Y38050000D03*
%TO.P,Q2,2,B*%
%TO.N,Net-(Q2-B)*%
X-44562500Y39950000D03*
%TO.P,Q2,3,C*%
%TO.N,Net-(D5-K)*%
X-46437500Y39000000D03*
%TD*%
D12*
%TO.P,JP13,1,A*%
%TO.N,Net-(JP13-A)*%
X-27250000Y29250000D03*
%TO.P,JP13,2,B*%
%TO.N,/PWM Centre*%
X-28550000Y29250000D03*
%TD*%
%TO.P,JP19,1,A*%
%TO.N,Net-(JP19-A)*%
X-1650000Y53500000D03*
%TO.P,JP19,2,B*%
%TO.N,/BATT*%
X-350000Y53500000D03*
%TD*%
%TO.P,JP18,1,A*%
%TO.N,Net-(JP18-A)*%
X-16600000Y29550000D03*
%TO.P,JP18,2,B*%
%TO.N,/PWM Centre*%
X-17900000Y29550000D03*
%TD*%
%TO.P,JP14,1,A*%
%TO.N,Net-(JP14-A)*%
X-39950000Y43250000D03*
%TO.P,JP14,2,B*%
%TO.N,/BATT*%
X-41250000Y43250000D03*
%TD*%
D22*
%TO.P,R13,1*%
%TO.N,Net-(JP12-A)*%
X-24162500Y33250000D03*
%TO.P,R13,2*%
%TO.N,Net-(Q3-B)*%
X-22337500Y33250000D03*
%TD*%
D15*
%TO.P,TP5,1,1*%
%TO.N,/PWM Left*%
X-32700000Y21600000D03*
%TD*%
D21*
%TO.P,JP32,1,A*%
%TO.N,GND*%
X-43500000Y29850000D03*
%TO.P,JP32,2,B*%
%TO.N,Net-(JP32-B)*%
X-43500000Y31150000D03*
%TD*%
D16*
%TO.P,R32,1*%
%TO.N,/Signal Centre*%
X-16087500Y42750000D03*
%TO.P,R32,2*%
%TO.N,Net-(JP36-B)*%
X-17912500Y42750000D03*
%TD*%
D11*
%TO.P,R38,1*%
%TO.N,/Signal Right*%
X11100000Y33312500D03*
%TO.P,R38,2*%
%TO.N,Net-(JP38-B)*%
X11100000Y31487500D03*
%TD*%
D15*
%TO.P,TP3,1,1*%
%TO.N,/Signal Right*%
X-6200000Y22300000D03*
%TD*%
D11*
%TO.P,R2,1*%
%TO.N,Net-(JP2-A)*%
X-56000000Y17912500D03*
%TO.P,R2,2*%
%TO.N,Net-(D1-A)*%
X-56000000Y16087500D03*
%TD*%
D17*
%TO.P,R29,1*%
%TO.N,Net-(JP28-A)*%
X4712500Y44800000D03*
%TO.P,R29,2*%
%TO.N,Net-(Q6-B)*%
X1787500Y44800000D03*
%TD*%
D20*
%TO.P,R39,1*%
%TO.N,/Signal Right*%
X16700000Y33362500D03*
%TO.P,R39,2*%
%TO.N,Net-(JP39-B)*%
X16700000Y30437500D03*
%TD*%
D21*
%TO.P,JP37,1,A*%
%TO.N,GND*%
X3500000Y28900000D03*
%TO.P,JP37,2,B*%
%TO.N,Net-(JP37-B)*%
X3500000Y30200000D03*
%TD*%
D18*
%TO.P,Q3,1,E*%
%TO.N,GND*%
X-26700000Y36900000D03*
%TO.P,Q3,2,B*%
%TO.N,Net-(Q3-B)*%
X-24800000Y36900000D03*
%TO.P,Q3,3,C*%
%TO.N,Net-(D6-K)*%
X-25750000Y38775000D03*
%TD*%
D22*
%TO.P,R26,1*%
%TO.N,Net-(JP26-A)*%
X-462500Y32550000D03*
%TO.P,R26,2*%
%TO.N,Net-(D9-A)*%
X1362500Y32550000D03*
%TD*%
D24*
%TO.P,R19,1*%
%TO.N,Net-(JP18-A)*%
X-13212500Y29550000D03*
%TO.P,R19,2*%
%TO.N,Net-(Q4-B)*%
X-10287500Y29550000D03*
%TD*%
D12*
%TO.P,JP10,1,A*%
%TO.N,Net-(JP10-A)*%
X-36300000Y25000000D03*
%TO.P,JP10,2,B*%
%TO.N,/BATT*%
X-35000000Y25000000D03*
%TD*%
D16*
%TO.P,R4,1*%
%TO.N,Net-(JP4-A)*%
X-47087500Y17000000D03*
%TO.P,R4,2*%
%TO.N,Net-(Q1-B)*%
X-48912500Y17000000D03*
%TD*%
D12*
%TO.P,JP27,1,A*%
%TO.N,Net-(JP27-A)*%
X7000000Y41750000D03*
%TO.P,JP27,2,B*%
%TO.N,/PWM Right*%
X8300000Y41750000D03*
%TD*%
D13*
%TO.P,D9,1,K*%
%TO.N,Net-(D9-K)*%
X11325000Y36325000D03*
D14*
%TO.P,D9,2,A*%
%TO.N,Net-(D9-A)*%
X11325000Y38865000D03*
%TD*%
D21*
%TO.P,JP8,1,A*%
%TO.N,Net-(JP8-A)*%
X-36500000Y40700000D03*
%TO.P,JP8,2,B*%
%TO.N,/PWM Left*%
X-36500000Y42000000D03*
%TD*%
D23*
%TO.P,Q1,1,E*%
%TO.N,GND*%
X-43562500Y25050000D03*
%TO.P,Q1,2,B*%
%TO.N,Net-(Q1-B)*%
X-43562500Y26950000D03*
%TO.P,Q1,3,C*%
%TO.N,Net-(D1-K)*%
X-45437500Y26000000D03*
%TD*%
D24*
%TO.P,R14,1*%
%TO.N,Net-(JP13-A)*%
X-24462500Y29500000D03*
%TO.P,R14,2*%
%TO.N,Net-(Q3-B)*%
X-21537500Y29500000D03*
%TD*%
D16*
%TO.P,R6,1*%
%TO.N,Net-(JP6-A)*%
X-36975000Y32500000D03*
%TO.P,R6,2*%
%TO.N,Net-(D5-A)*%
X-38800000Y32500000D03*
%TD*%
D24*
%TO.P,R24,1*%
%TO.N,Net-(JP23-A)*%
X2037500Y16050000D03*
%TO.P,R24,2*%
%TO.N,Net-(Q5-B)*%
X4962500Y16050000D03*
%TD*%
D11*
%TO.P,R8,1*%
%TO.N,Net-(JP7-A)*%
X-34000000Y38912500D03*
%TO.P,R8,2*%
%TO.N,Net-(Q2-B)*%
X-34000000Y37087500D03*
%TD*%
D22*
%TO.P,R30,1*%
%TO.N,Net-(JP30-A)*%
X-412500Y22250000D03*
%TO.P,R30,2*%
%TO.N,Net-(D9-A)*%
X1412500Y22250000D03*
%TD*%
%TO.P,R12,1*%
%TO.N,Net-(JP14-A)*%
X-37762500Y45500000D03*
%TO.P,R12,2*%
%TO.N,Net-(D6-A)*%
X-35937500Y45500000D03*
%TD*%
D13*
%TO.P,D2,1,K*%
%TO.N,/BATT*%
X19700000Y29825000D03*
D14*
%TO.P,D2,2,A*%
%TO.N,/Signal Right*%
X19700000Y32365000D03*
%TD*%
D11*
%TO.P,R31,1*%
%TO.N,/Signal Left*%
X-51000000Y33412500D03*
%TO.P,R31,2*%
%TO.N,Net-(JP33-B)*%
X-51000000Y31587500D03*
%TD*%
D15*
%TO.P,TP4,1,1*%
%TO.N,/PWM Left*%
X-32800000Y17000000D03*
%TD*%
D21*
%TO.P,JP7,1,A*%
%TO.N,Net-(JP7-A)*%
X-31500000Y40700000D03*
%TO.P,JP7,2,B*%
%TO.N,/PWM Left*%
X-31500000Y42000000D03*
%TD*%
D12*
%TO.P,JP16,1,A*%
%TO.N,Net-(JP16-A)*%
X-1650000Y43750000D03*
%TO.P,JP16,2,B*%
%TO.N,/BATT*%
X-350000Y43750000D03*
%TD*%
%TO.P,JP34,1,A*%
%TO.N,GND*%
X-22400000Y50000000D03*
%TO.P,JP34,2,B*%
%TO.N,Net-(JP34-B)*%
X-21100000Y50000000D03*
%TD*%
D21*
%TO.P,JP33,1,A*%
%TO.N,GND*%
X-48500000Y30350000D03*
%TO.P,JP33,2,B*%
%TO.N,Net-(JP33-B)*%
X-48500000Y31650000D03*
%TD*%
D22*
%TO.P,R15,1*%
%TO.N,Net-(JP15-A)*%
X-37762500Y53750000D03*
%TO.P,R15,2*%
%TO.N,Net-(D6-A)*%
X-35937500Y53750000D03*
%TD*%
D16*
%TO.P,R17,1*%
%TO.N,Net-(JP19-A)*%
X-3337500Y51000000D03*
%TO.P,R17,2*%
%TO.N,Net-(D7-A)*%
X-5162500Y51000000D03*
%TD*%
D12*
%TO.P,JP29,1,A*%
%TO.N,Net-(JP29-A)*%
X-1500000Y29950000D03*
%TO.P,JP29,2,B*%
%TO.N,/BATT*%
X-2800000Y29950000D03*
%TD*%
D13*
%TO.P,D6,1,K*%
%TO.N,Net-(D6-K)*%
X-25725000Y42525000D03*
D14*
%TO.P,D6,2,A*%
%TO.N,Net-(D6-A)*%
X-28265000Y42525000D03*
%TD*%
D25*
%TO.P,Q5,1,E*%
%TO.N,GND*%
X5862500Y25650000D03*
%TO.P,Q5,2,B*%
%TO.N,Net-(Q5-B)*%
X5862500Y23750000D03*
%TO.P,Q5,3,C*%
%TO.N,Net-(D8-K)*%
X7737500Y24700000D03*
%TD*%
D11*
%TO.P,R3,1*%
%TO.N,Net-(JP1-A)*%
X-52000000Y17912500D03*
%TO.P,R3,2*%
%TO.N,Net-(D1-A)*%
X-52000000Y16087500D03*
%TD*%
D21*
%TO.P,JP1,1,A*%
%TO.N,Net-(JP1-A)*%
X-52000000Y20350000D03*
%TO.P,JP1,2,B*%
%TO.N,/BATT*%
X-52000000Y21650000D03*
%TD*%
%TO.P,JP31,1,A*%
%TO.N,GND*%
X-53500000Y30350000D03*
%TO.P,JP31,2,B*%
%TO.N,Net-(JP31-B)*%
X-53500000Y31650000D03*
%TD*%
D12*
%TO.P,JP22,1,A*%
%TO.N,Net-(JP22-A)*%
X-350000Y18950000D03*
%TO.P,JP22,2,B*%
%TO.N,/PWM Right*%
X-1650000Y18950000D03*
%TD*%
D16*
%TO.P,R7,1*%
%TO.N,Net-(JP9-A)*%
X-36975000Y27500000D03*
%TO.P,R7,2*%
%TO.N,Net-(D5-A)*%
X-38800000Y27500000D03*
%TD*%
D22*
%TO.P,R23,1*%
%TO.N,Net-(JP22-A)*%
X2987500Y18700000D03*
%TO.P,R23,2*%
%TO.N,Net-(Q5-B)*%
X4812500Y18700000D03*
%TD*%
D17*
%TO.P,R5,1*%
%TO.N,Net-(JP5-A)*%
X-46537500Y21000000D03*
%TO.P,R5,2*%
%TO.N,Net-(Q1-B)*%
X-49462500Y21000000D03*
%TD*%
D12*
%TO.P,JP9,1,A*%
%TO.N,Net-(JP9-A)*%
X-36300000Y30000000D03*
%TO.P,JP9,2,B*%
%TO.N,/BATT*%
X-35000000Y30000000D03*
%TD*%
D15*
%TO.P,TP2,1,1*%
%TO.N,/Signal Centre*%
X-20650000Y36300000D03*
%TD*%
D20*
%TO.P,R35,1*%
%TO.N,/Signal Left*%
X-56000000Y34462500D03*
%TO.P,R35,2*%
%TO.N,Net-(JP31-B)*%
X-56000000Y31537500D03*
%TD*%
D21*
%TO.P,JP24,1,A*%
%TO.N,Net-(JP24-A)*%
X13843750Y17156250D03*
%TO.P,JP24,2,B*%
%TO.N,/BATT*%
X13843750Y15856250D03*
%TD*%
D12*
%TO.P,JP36,1,A*%
%TO.N,GND*%
X-22400000Y44750000D03*
%TO.P,JP36,2,B*%
%TO.N,Net-(JP36-B)*%
X-21100000Y44750000D03*
%TD*%
D21*
%TO.P,JP2,1,A*%
%TO.N,Net-(JP2-A)*%
X-56000000Y20350000D03*
%TO.P,JP2,2,B*%
%TO.N,/BATT*%
X-56000000Y21650000D03*
%TD*%
D11*
%TO.P,R34,1*%
%TO.N,/Signal Left*%
X-46000000Y33325000D03*
%TO.P,R34,2*%
%TO.N,Net-(JP32-B)*%
X-46000000Y31500000D03*
%TD*%
D21*
%TO.P,JP3,1,A*%
%TO.N,Net-(JP3-A)*%
X-60000000Y20350000D03*
%TO.P,JP3,2,B*%
%TO.N,/BATT*%
X-60000000Y21650000D03*
%TD*%
D12*
%TO.P,JP6,1,A*%
%TO.N,Net-(JP6-A)*%
X-36300000Y35000000D03*
%TO.P,JP6,2,B*%
%TO.N,/BATT*%
X-35000000Y35000000D03*
%TD*%
D15*
%TO.P,TP1,1,1*%
%TO.N,/Signal Left*%
X-36550000Y19200000D03*
%TD*%
D26*
%TO.P,J1,1,Pin_1*%
%TO.N,unconnected-(J1-Pin_1-Pad1)*%
X-36400000Y4000000D03*
D27*
%TO.P,J1,2,Pin_2*%
%TO.N,/3V3*%
X-36400000Y6540000D03*
%TO.P,J1,3,Pin_3*%
%TO.N,unconnected-(J1-Pin_3-Pad3)*%
X-33860000Y4000000D03*
%TO.P,J1,4,Pin_4*%
%TO.N,/BATT*%
X-33860000Y6540000D03*
%TO.P,J1,5,Pin_5*%
%TO.N,/Signal Left*%
X-31320000Y4000000D03*
%TO.P,J1,6,Pin_6*%
%TO.N,unconnected-(J1-Pin_6-Pad6)*%
X-31320000Y6540000D03*
%TO.P,J1,7,Pin_7*%
%TO.N,/Signal Centre*%
X-28780000Y4000000D03*
%TO.P,J1,8,Pin_8*%
%TO.N,/PWM Left*%
X-28780000Y6540000D03*
%TO.P,J1,9,Pin_9*%
%TO.N,GND*%
X-26240000Y4000000D03*
%TO.P,J1,10,Pin_10*%
%TO.N,/PWM Centre*%
X-26240000Y6540000D03*
%TO.P,J1,11,Pin_11*%
%TO.N,/Signal Right*%
X-23700000Y4000000D03*
%TO.P,J1,12,Pin_12*%
%TO.N,/PWM Right*%
X-23700000Y6540000D03*
%TO.P,J1,13,Pin_13*%
%TO.N,unconnected-(J1-Pin_13-Pad13)*%
X-21160000Y4000000D03*
%TO.P,J1,14,Pin_14*%
%TO.N,unconnected-(J1-Pin_14-Pad14)*%
X-21160000Y6540000D03*
%TO.P,J1,15,Pin_15*%
%TO.N,unconnected-(J1-Pin_15-Pad15)*%
X-18620000Y4000000D03*
%TO.P,J1,16,Pin_16*%
%TO.N,unconnected-(J1-Pin_16-Pad16)*%
X-18620000Y6540000D03*
%TO.P,J1,17,Pin_17*%
%TO.N,unconnected-(J1-Pin_17-Pad17)*%
X-16080000Y4000000D03*
%TO.P,J1,18,Pin_18*%
%TO.N,unconnected-(J1-Pin_18-Pad18)*%
X-16080000Y6540000D03*
%TO.P,J1,19,Pin_19*%
%TO.N,unconnected-(J1-Pin_19-Pad19)*%
X-13540000Y4000000D03*
%TO.P,J1,20,Pin_20*%
%TO.N,unconnected-(J1-Pin_20-Pad20)*%
X-13540000Y6540000D03*
%TO.P,J1,21,Pin_21*%
%TO.N,unconnected-(J1-Pin_21-Pad21)*%
X-11000000Y4000000D03*
%TO.P,J1,22,Pin_22*%
%TO.N,unconnected-(J1-Pin_22-Pad22)*%
X-11000000Y6540000D03*
%TO.P,J1,23,Pin_23*%
%TO.N,unconnected-(J1-Pin_23-Pad23)*%
X-8460000Y4000000D03*
%TO.P,J1,24,Pin_24*%
%TO.N,unconnected-(J1-Pin_24-Pad24)*%
X-8460000Y6540000D03*
%TO.P,J1,25,Pin_25*%
%TO.N,unconnected-(J1-Pin_25-Pad25)*%
X-5920000Y4000000D03*
%TO.P,J1,26,Pin_26*%
%TO.N,unconnected-(J1-Pin_26-Pad26)*%
X-5920000Y6540000D03*
%TO.P,J1,27,Pin_27*%
%TO.N,unconnected-(J1-Pin_27-Pad27)*%
X-3380000Y4000000D03*
%TO.P,J1,28,Pin_28*%
%TO.N,unconnected-(J1-Pin_28-Pad28)*%
X-3380000Y6540000D03*
%TD*%
D12*
%TO.P,JP5,1,A*%
%TO.N,Net-(JP5-A)*%
X-44300000Y21000000D03*
%TO.P,JP5,2,B*%
%TO.N,/PWM Left*%
X-43000000Y21000000D03*
%TD*%
D13*
%TO.P,D8,1,K*%
%TO.N,Net-(D8-K)*%
X10925000Y23625000D03*
D14*
%TO.P,D8,2,A*%
%TO.N,Net-(D8-A)*%
X10925000Y26165000D03*
%TD*%
D13*
%TO.P,D4,1,K*%
%TO.N,/BATT*%
X-59500000Y33000000D03*
D14*
%TO.P,D4,2,A*%
%TO.N,/Signal Left*%
X-59500000Y30460000D03*
%TD*%
D16*
%TO.P,R16,1*%
%TO.N,Net-(JP16-A)*%
X-3337500Y41250000D03*
%TO.P,R16,2*%
%TO.N,Net-(D7-A)*%
X-5162500Y41250000D03*
%TD*%
D15*
%TO.P,TP7,1,1*%
%TO.N,/PWM Right*%
X-6400000Y11600000D03*
%TD*%
D22*
%TO.P,R18,1*%
%TO.N,Net-(JP17-A)*%
X-12912500Y32800000D03*
%TO.P,R18,2*%
%TO.N,Net-(Q4-B)*%
X-11087500Y32800000D03*
%TD*%
D12*
%TO.P,JP35,1,A*%
%TO.N,GND*%
X-22400000Y40000000D03*
%TO.P,JP35,2,B*%
%TO.N,Net-(JP35-B)*%
X-21100000Y40000000D03*
%TD*%
%TO.P,JP15,1,A*%
%TO.N,Net-(JP15-A)*%
X-39950000Y51750000D03*
%TO.P,JP15,2,B*%
%TO.N,/BATT*%
X-41250000Y51750000D03*
%TD*%
D22*
%TO.P,R11,1*%
%TO.N,Net-(JP11-A)*%
X-37762500Y49500000D03*
%TO.P,R11,2*%
%TO.N,Net-(D6-A)*%
X-35937500Y49500000D03*
%TD*%
D25*
%TO.P,Q6,1,E*%
%TO.N,GND*%
X6412500Y38450000D03*
%TO.P,Q6,2,B*%
%TO.N,Net-(Q6-B)*%
X6412500Y36550000D03*
%TO.P,Q6,3,C*%
%TO.N,Net-(D9-K)*%
X8287500Y37500000D03*
%TD*%
D10*
%TO.N,/PWM Left*%
X-32800000Y17000000D02*
X-32800000Y21500000D01*
X-32800000Y21500000D02*
X-32700000Y21600000D01*
%TO.N,/PWM Right*%
X-6400000Y14050000D02*
X-4550000Y15900000D01*
X-6400000Y11600000D02*
X-6400000Y14050000D01*
%TO.N,/PWM Centre*%
X-17700000Y23000000D02*
X-17900000Y23200000D01*
X-17900000Y23200000D02*
X-17900000Y23000000D01*
X-17900000Y29550000D02*
X-17900000Y23200000D01*
X-15300000Y23000000D02*
X-17700000Y23000000D01*
%TO.N,/PWM Left*%
X-30050000Y17000000D02*
X-30000000Y16950000D01*
X-32800000Y17000000D02*
X-30050000Y17000000D01*
X-30000000Y16950000D02*
X-30000000Y11926346D01*
X-30000000Y41050000D02*
X-30000000Y16950000D01*
%TO.N,/PWM Right*%
X-1750000Y15900000D02*
X-1600000Y16050000D01*
X-4550000Y15900000D02*
X-1750000Y15900000D01*
%TO.N,/Signal Right*%
X-4600000Y20700000D02*
X-3900000Y20700000D01*
X-6200000Y22300000D02*
X-4600000Y20700000D01*
X-3900000Y20700000D02*
X-14400000Y10200000D01*
X-3800000Y20800000D02*
X-3900000Y20700000D01*
%TO.N,/Signal Left*%
X-36550000Y19200000D02*
X-39300000Y19200000D01*
X-39300000Y19200000D02*
X-40000000Y18500000D01*
%TO.N,/Signal Centre*%
X-20650000Y36300000D02*
X-19400000Y35050000D01*
X-18550000Y35050000D02*
X-20600000Y33000000D01*
X-16087500Y37512500D02*
X-18550000Y35050000D01*
X-19400000Y35050000D02*
X-18550000Y35050000D01*
%TO.N,Net-(Q6-B)*%
X2487500Y40475000D02*
X6412500Y36550000D01*
X2487500Y41750000D02*
X2487500Y40475000D01*
X2487500Y44100000D02*
X1787500Y44800000D01*
X2487500Y41750000D02*
X2487500Y44100000D01*
%TO.N,Net-(JP27-A)*%
X7000000Y41750000D02*
X4312500Y41750000D01*
%TO.N,Net-(JP28-A)*%
X4712500Y44800000D02*
X7000000Y44800000D01*
%TO.N,/PWM Right*%
X8300000Y44800000D02*
X8300000Y41750000D01*
%TO.N,/BATT*%
X-2800000Y35300000D02*
X-2750000Y35350000D01*
%TO.N,Net-(JP26-A)*%
X-1450000Y33537500D02*
X-462500Y32550000D01*
%TO.N,/BATT*%
X-2800000Y29950000D02*
X-2800000Y35300000D01*
%TO.N,Net-(JP26-A)*%
X-1450000Y35350000D02*
X-1450000Y33537500D01*
%TO.N,Net-(D9-A)*%
X14350000Y35840000D02*
X11325000Y38865000D01*
X1950000Y34750000D02*
X14350000Y34750000D01*
X1250000Y34050000D02*
X1950000Y34750000D01*
X1362500Y33937500D02*
X1250000Y34050000D01*
X1362500Y27250000D02*
X1362500Y32550000D01*
X14350000Y34750000D02*
X14350000Y35840000D01*
X1362500Y32550000D02*
X1362500Y33937500D01*
%TO.N,/BATT*%
X-2862500Y24750000D02*
X-2862500Y29887500D01*
%TO.N,Net-(JP29-A)*%
X-1500000Y29950000D02*
X-1500000Y28287500D01*
X-1500000Y28287500D02*
X-462500Y27250000D01*
%TO.N,/BATT*%
X-2862500Y29887500D02*
X-2800000Y29950000D01*
%TO.N,Net-(D9-A)*%
X1372500Y27240000D02*
X1362500Y27250000D01*
X1412500Y22250000D02*
X1372500Y22290000D01*
X1372500Y22290000D02*
X1372500Y27240000D01*
%TO.N,GND*%
X-26700000Y36900000D02*
X-28900000Y36900000D01*
X13700000Y29200000D02*
X8600000Y29200000D01*
X6500000Y26287500D02*
X6500000Y26900000D01*
X-46000000Y30350000D02*
X-48500000Y30350000D01*
X-22400000Y44750000D02*
X-22400000Y50000000D01*
X-44562500Y38050000D02*
X-43050000Y38050000D01*
X-12875000Y37375000D02*
X-13000000Y37500000D01*
X-22400000Y50000000D02*
X-22400000Y51600000D01*
X3500000Y28900000D02*
X8300000Y28900000D01*
X-22400000Y51600000D02*
X-22250000Y51750000D01*
X-44000000Y30350000D02*
X-46000000Y30350000D01*
X-22400000Y40000000D02*
X-22400000Y44750000D01*
X-46000000Y28009448D02*
X-46000000Y30350000D01*
X-53500000Y30350000D02*
X-48500000Y30350000D01*
X-43562500Y25050000D02*
X-43562500Y25571948D01*
X-11450000Y37375000D02*
X-12875000Y37375000D01*
X-43500000Y29850000D02*
X-44000000Y30350000D01*
X6412500Y39687500D02*
X6400000Y39700000D01*
X5862500Y25650000D02*
X6500000Y26287500D01*
X6412500Y38450000D02*
X6412500Y39687500D01*
X-43050000Y38050000D02*
X-42500000Y37500000D01*
X-43562500Y25571948D02*
X-46000000Y28009448D01*
X8600000Y29200000D02*
X8300000Y28900000D01*
%TO.N,Net-(Q1-B)*%
X-48287500Y22175000D02*
X-49462500Y21000000D01*
X-48912500Y20450000D02*
X-49462500Y21000000D01*
X-48912500Y17000000D02*
X-48912500Y20450000D01*
X-44825000Y22175000D02*
X-48287500Y22175000D01*
X-42525000Y25912500D02*
X-42525000Y24475000D01*
X-43562500Y26950000D02*
X-42525000Y25912500D01*
X-42525000Y24475000D02*
X-44825000Y22175000D01*
%TO.N,Net-(D1-K)*%
X-45437500Y26000000D02*
X-48000000Y26000000D01*
X-48000000Y26000000D02*
X-49000000Y27000000D01*
%TO.N,Net-(Q2-B)*%
X-41562500Y39950000D02*
X-44562500Y39950000D01*
X-39000000Y37387500D02*
X-34300000Y37387500D01*
X-39000000Y37387500D02*
X-41562500Y39950000D01*
X-34300000Y37387500D02*
X-34000000Y37087500D01*
%TO.N,Net-(D5-K)*%
X-46437500Y39000000D02*
X-48500000Y39000000D01*
X-48500000Y39000000D02*
X-49500000Y40000000D01*
%TO.N,Net-(D6-K)*%
X-25750000Y42500000D02*
X-25725000Y42525000D01*
X-25750000Y38775000D02*
X-25750000Y42500000D01*
%TO.N,Net-(D1-A)*%
X-52000000Y16087500D02*
X-50950000Y17137500D01*
X-49490000Y24460000D02*
X-49000000Y24460000D01*
X-50950000Y17137500D02*
X-50950000Y23000000D01*
X-52000000Y16087500D02*
X-56000000Y16087500D01*
X-50950000Y23000000D02*
X-49490000Y24460000D01*
X-56000000Y16087500D02*
X-60000000Y16087500D01*
%TO.N,/BATT*%
X-39200000Y54750000D02*
X-41250000Y52700000D01*
X-35000000Y25000000D02*
X-35000000Y30000000D01*
X-56350000Y21300000D02*
X-59650000Y21300000D01*
X-21750000Y54750000D02*
X-39200000Y54750000D01*
X-35250000Y5150000D02*
X-33860000Y6540000D01*
X-59500000Y33000000D02*
X-61000000Y31500000D01*
X-41250000Y51750000D02*
X-41250000Y47500000D01*
X19700000Y16012500D02*
X19593750Y15906250D01*
X-19800000Y55200000D02*
X-21000000Y54000000D01*
X19593750Y15906250D02*
X18643750Y15906250D01*
X-41250000Y47500000D02*
X-41250000Y43250000D01*
X-350000Y43750000D02*
X-350000Y48750000D01*
X-52350000Y21300000D02*
X-55650000Y21300000D01*
X-59184744Y33000000D02*
X-59500000Y33000000D01*
X-48934744Y43250000D02*
X-59184744Y33000000D01*
X18593750Y15856250D02*
X18643750Y15906250D01*
X-55650000Y21300000D02*
X-56000000Y21650000D01*
X-16500000Y15065685D02*
X-16500000Y12250000D01*
X13793750Y15906250D02*
X13843750Y15856250D01*
X-59650000Y21300000D02*
X-60000000Y21650000D01*
X9343750Y15906250D02*
X13793750Y15906250D01*
X-52000000Y21650000D02*
X-52350000Y21300000D01*
X-21000000Y54000000D02*
X-21750000Y54750000D01*
X-35000000Y30000000D02*
X-35000000Y35000000D01*
X-6815685Y24750000D02*
X-16500000Y15065685D01*
X19700000Y29825000D02*
X19700000Y16012500D01*
X-60000000Y21650000D02*
X-60600000Y21650000D01*
X-39000000Y6000000D02*
X-38150000Y5150000D01*
X-41250000Y52700000D02*
X-41250000Y51750000D01*
X-61050000Y15640256D02*
X-60409744Y15000000D01*
X-2862500Y24750000D02*
X-6815685Y24750000D01*
X-60409744Y15000000D02*
X-39000000Y15000000D01*
X-38150000Y5150000D02*
X-35250000Y5150000D01*
X-41250000Y43250000D02*
X-48934744Y43250000D01*
X-1500000Y55200000D02*
X-19800000Y55200000D01*
X-61050000Y21200000D02*
X-61050000Y15640256D01*
X-60600000Y21650000D02*
X-61050000Y21200000D01*
X-350000Y53500000D02*
X-350000Y54050000D01*
X-56000000Y21650000D02*
X-56350000Y21300000D01*
X-61000000Y22650000D02*
X-60000000Y21650000D01*
X-39000000Y15000000D02*
X-39000000Y6000000D01*
X-61000000Y31500000D02*
X-61000000Y22650000D01*
X-350000Y54050000D02*
X-1500000Y55200000D01*
X13843750Y15856250D02*
X18593750Y15856250D01*
X-350000Y53500000D02*
X-350000Y48750000D01*
%TO.N,Net-(JP2-A)*%
X-56000000Y20350000D02*
X-56000000Y17912500D01*
%TO.N,/PWM Left*%
X-43000000Y17000000D02*
X-43000000Y21000000D01*
X-39500000Y17000000D02*
X-38250000Y15750000D01*
X-30170000Y5150000D02*
X-28780000Y6540000D01*
X-31796346Y5150000D02*
X-30170000Y5150000D01*
X-25090000Y3523654D02*
X-26513654Y2100000D01*
X-31840000Y9600000D02*
X-28780000Y6540000D01*
X-30000000Y11926346D02*
X-25090000Y7016346D01*
X-38000000Y14565685D02*
X-38000000Y9600000D01*
X-26513654Y2100000D02*
X-31046346Y2100000D01*
X-38250000Y15750000D02*
X-38250000Y14815685D01*
X-25090000Y7016346D02*
X-25090000Y3523654D01*
X-30950000Y42000000D02*
X-30000000Y41050000D01*
X-36500000Y42000000D02*
X-31500000Y42000000D01*
X-31046346Y2100000D02*
X-32470000Y3523654D01*
X-43000000Y17000000D02*
X-39500000Y17000000D01*
X-31500000Y42000000D02*
X-30950000Y42000000D01*
X-32470000Y4476346D02*
X-31796346Y5150000D01*
X-38000000Y9600000D02*
X-31840000Y9600000D01*
X-38250000Y14815685D02*
X-38000000Y14565685D01*
X-32470000Y3523654D02*
X-32470000Y4476346D01*
%TO.N,Net-(JP3-A)*%
X-60000000Y20350000D02*
X-60000000Y17912500D01*
%TO.N,Net-(D5-A)*%
X-41300000Y35000000D02*
X-47500000Y35000000D01*
X-38800000Y32500000D02*
X-38800000Y27500000D01*
X-38800000Y32500000D02*
X-41300000Y35000000D01*
X-38800000Y22500000D02*
X-38800000Y27500000D01*
X-47500000Y35000000D02*
X-47500000Y35460000D01*
X-47500000Y35460000D02*
X-49500000Y37460000D01*
%TO.N,Net-(JP4-A)*%
X-44300000Y17000000D02*
X-47087500Y17000000D01*
%TO.N,Net-(JP5-A)*%
X-44300000Y21000000D02*
X-46537500Y21000000D01*
%TO.N,Net-(JP8-A)*%
X-38612500Y40700000D02*
X-39000000Y40312500D01*
X-36500000Y40700000D02*
X-38612500Y40700000D01*
%TO.N,Net-(D6-A)*%
X-35937500Y49500000D02*
X-35937500Y53750000D01*
X-35937500Y45500000D02*
X-35937500Y49500000D01*
X-35937500Y45500000D02*
X-31240000Y45500000D01*
X-31240000Y45500000D02*
X-28265000Y42525000D01*
%TO.N,Net-(JP7-A)*%
X-34000000Y38912500D02*
X-33287500Y38912500D01*
X-33287500Y38912500D02*
X-31500000Y40700000D01*
%TO.N,Net-(JP11-A)*%
X-37762500Y49500000D02*
X-37950000Y49500000D01*
X-37950000Y49500000D02*
X-39950000Y47500000D01*
%TO.N,Net-(JP10-A)*%
X-36300000Y23175000D02*
X-36975000Y22500000D01*
X-36300000Y25000000D02*
X-36300000Y23175000D01*
%TO.N,Net-(D7-A)*%
X-5162500Y41250000D02*
X-8412500Y44500000D01*
X-5162500Y41250000D02*
X-5162500Y46250000D01*
X-8412500Y44500000D02*
X-11040000Y44500000D01*
X-11040000Y44500000D02*
X-13015000Y42525000D01*
X-5162500Y51000000D02*
X-5162500Y46250000D01*
%TO.N,Net-(JP13-A)*%
X-27000000Y29500000D02*
X-27250000Y29250000D01*
X-24462500Y29500000D02*
X-27000000Y29500000D01*
%TO.N,Net-(D8-A)*%
X16343750Y20868750D02*
X11643750Y20868750D01*
X12125000Y22425000D02*
X12125000Y24965000D01*
X12125000Y24965000D02*
X10925000Y26165000D01*
X10568750Y20868750D02*
X12125000Y22425000D01*
X7143750Y20868750D02*
X10568750Y20868750D01*
X7143750Y20868750D02*
X11643750Y20868750D01*
%TO.N,Net-(JP14-A)*%
X-37762500Y45500000D02*
X-37762500Y45437500D01*
X-39837500Y43500000D02*
X-39650000Y43500000D01*
X-37762500Y45437500D02*
X-39950000Y43250000D01*
%TO.N,Net-(JP16-A)*%
X-3337500Y42062500D02*
X-3337500Y41250000D01*
X-1650000Y43750000D02*
X-3337500Y42062500D01*
%TO.N,Net-(JP17-A)*%
X-12912500Y32800000D02*
X-16600000Y32800000D01*
%TO.N,/Signal Centre*%
X-20600000Y27800000D02*
X-25600000Y22800000D01*
X-25600000Y22800000D02*
X-25600000Y14350000D01*
X-20600000Y33000000D02*
X-20600000Y27800000D01*
X-16087500Y39000000D02*
X-16087500Y37512500D01*
X-25600000Y14350000D02*
X-24750000Y13500000D01*
X-16087500Y42750000D02*
X-16087500Y39000000D01*
X-16075000Y47500000D02*
X-16075000Y42762500D01*
X-16075000Y51615000D02*
X-18460000Y54000000D01*
X-16075000Y42762500D02*
X-16087500Y42750000D01*
X-16075000Y47500000D02*
X-16075000Y51615000D01*
%TO.N,/Signal Right*%
X17875000Y30984744D02*
X17875000Y29890256D01*
X16700000Y33362500D02*
X18702500Y33362500D01*
X16700000Y33362500D02*
X16700000Y33100000D01*
X17875000Y29890256D02*
X16084744Y28100000D01*
X6600000Y28100000D02*
X4400000Y25900000D01*
X5900000Y33312500D02*
X15547244Y33312500D01*
X18702500Y33362500D02*
X19700000Y32365000D01*
X16084744Y28100000D02*
X6600000Y28100000D01*
X16700000Y33362500D02*
X16462500Y33362500D01*
X16462500Y33362500D02*
X16412500Y33312500D01*
X-14400000Y10200000D02*
X-20800000Y10200000D01*
X16412500Y33312500D02*
X11100000Y33312500D01*
X11100000Y33312500D02*
X5900000Y33312500D01*
X15547244Y33312500D02*
X17875000Y30984744D01*
X4400000Y25900000D02*
X4400000Y20800000D01*
X4400000Y20800000D02*
X-3800000Y20800000D01*
%TO.N,/PWM Centre*%
X-20300000Y20600000D02*
X-20300000Y17384314D01*
X-25850000Y13100000D02*
X-28550000Y15800000D01*
X-17900000Y32800000D02*
X-17900000Y29550000D01*
X-17900000Y23000000D02*
X-20300000Y20600000D01*
X-28550000Y15800000D02*
X-28550000Y29250000D01*
X-28650000Y33250000D02*
X-28650000Y29350000D01*
X-28650000Y29350000D02*
X-28550000Y29250000D01*
X-24584314Y13100000D02*
X-25850000Y13100000D01*
X-20300000Y17384314D02*
X-24584314Y13100000D01*
%TO.N,/PWM Right*%
X-1650000Y18950000D02*
X-1550000Y18850000D01*
X-1600000Y16050000D02*
X-1500000Y15950000D01*
X-22550000Y5390000D02*
X-23700000Y6540000D01*
X-1550000Y18850000D02*
X-1550000Y16100000D01*
X-1500000Y6793654D02*
X-2903654Y5390000D01*
X-2903654Y5390000D02*
X-22550000Y5390000D01*
X-1500000Y15950000D02*
X-1500000Y6793654D01*
X-1550000Y16100000D02*
X-1600000Y16050000D01*
%TO.N,Net-(D7-K)*%
X-10500000Y42500000D02*
X-10475000Y42525000D01*
X-10500000Y39250000D02*
X-10500000Y42500000D01*
%TO.N,Net-(D8-K)*%
X7737500Y24700000D02*
X9850000Y24700000D01*
X9850000Y24700000D02*
X10925000Y23625000D01*
%TO.N,Net-(D9-K)*%
X8287500Y37500000D02*
X10150000Y37500000D01*
X10150000Y37500000D02*
X11325000Y36325000D01*
%TO.N,Net-(Q3-B)*%
X-22337500Y34437500D02*
X-24800000Y36900000D01*
X-22337500Y33250000D02*
X-22337500Y34437500D01*
X-22337500Y33250000D02*
X-22337500Y30300000D01*
X-22337500Y30300000D02*
X-21537500Y29500000D01*
%TO.N,Net-(Q4-B)*%
X-10287500Y29550000D02*
X-10287500Y32000000D01*
X-11087500Y35837500D02*
X-9550000Y37375000D01*
X-11087500Y32800000D02*
X-11087500Y35837500D01*
X-11087500Y32800000D02*
X-11175000Y32800000D01*
X-10287500Y32000000D02*
X-11087500Y32800000D01*
%TO.N,Net-(Q5-B)*%
X4812500Y18700000D02*
X4812500Y22700000D01*
X4812500Y18700000D02*
X4812500Y16200000D01*
X4812500Y16200000D02*
X4962500Y16050000D01*
X4812500Y22700000D02*
X5862500Y23750000D01*
%TO.N,Net-(JP1-A)*%
X-52000000Y20350000D02*
X-52000000Y17912500D01*
%TO.N,Net-(JP6-A)*%
X-36300000Y35000000D02*
X-36300000Y33175000D01*
X-36300000Y33175000D02*
X-36975000Y32500000D01*
%TO.N,Net-(JP9-A)*%
X-36300000Y28175000D02*
X-36975000Y27500000D01*
X-36300000Y30000000D02*
X-36300000Y28175000D01*
%TO.N,Net-(JP12-A)*%
X-24162500Y33250000D02*
X-27350000Y33250000D01*
%TO.N,Net-(JP15-A)*%
X-37950000Y53750000D02*
X-39950000Y51750000D01*
%TO.N,Net-(JP18-A)*%
X-13212500Y29550000D02*
X-16600000Y29550000D01*
%TO.N,Net-(JP19-A)*%
X-1650000Y52687500D02*
X-3337500Y51000000D01*
X-1650000Y53500000D02*
X-1650000Y52687500D01*
%TO.N,Net-(JP20-A)*%
X-3337500Y47062500D02*
X-3337500Y46250000D01*
X-1650000Y48750000D02*
X-3337500Y47062500D01*
%TO.N,Net-(JP21-A)*%
X16343750Y19043750D02*
X16806250Y19043750D01*
X16806250Y19043750D02*
X18643750Y17206250D01*
%TO.N,Net-(JP22-A)*%
X-100000Y18700000D02*
X-350000Y18950000D01*
X2987500Y18700000D02*
X-100000Y18700000D01*
%TO.N,Net-(JP23-A)*%
X2037500Y16050000D02*
X-300000Y16050000D01*
%TO.N,Net-(JP24-A)*%
X11956250Y19043750D02*
X13843750Y17156250D01*
X11643750Y19043750D02*
X11956250Y19043750D01*
%TO.N,Net-(JP25-A)*%
X7506250Y19043750D02*
X9343750Y17206250D01*
X7143750Y19043750D02*
X7506250Y19043750D01*
%TO.N,Net-(JP30-A)*%
X-1562500Y23400000D02*
X-412500Y22250000D01*
X-1562500Y24750000D02*
X-1562500Y23400000D01*
%TO.N,Net-(JP31-B)*%
X-53500000Y31650000D02*
X-55887500Y31650000D01*
X-55887500Y31650000D02*
X-56000000Y31537500D01*
%TO.N,Net-(JP32-B)*%
X-43500000Y31150000D02*
X-43850000Y31500000D01*
X-43850000Y31500000D02*
X-46000000Y31500000D01*
%TO.N,Net-(JP33-B)*%
X-50937500Y31650000D02*
X-51000000Y31587500D01*
X-48500000Y31650000D02*
X-50937500Y31650000D01*
%TO.N,Net-(JP34-B)*%
X-21100000Y49600000D02*
X-21100000Y50000000D01*
X-19000000Y47500000D02*
X-21100000Y49600000D01*
%TO.N,Net-(JP35-B)*%
X-18912500Y40000000D02*
X-17912500Y39000000D01*
X-21100000Y40000000D02*
X-18912500Y40000000D01*
%TO.N,Net-(JP36-B)*%
X-17912500Y42750000D02*
X-19100000Y42750000D01*
X-19100000Y42750000D02*
X-21100000Y44750000D01*
%TO.N,Net-(JP37-B)*%
X4787500Y31487500D02*
X3500000Y30200000D01*
X5900000Y31487500D02*
X4787500Y31487500D01*
%TO.N,Net-(JP38-B)*%
X8300000Y30200000D02*
X8400000Y30200000D01*
X9687500Y31487500D02*
X11100000Y31487500D01*
X8400000Y30200000D02*
X9687500Y31487500D01*
%TO.N,Net-(JP39-B)*%
X13700000Y30500000D02*
X16637500Y30500000D01*
X16637500Y30500000D02*
X16700000Y30437500D01*
%TO.N,/Signal Left*%
X-27630000Y7016346D02*
X-31613654Y11000000D01*
X-52462500Y34462500D02*
X-56000000Y34462500D01*
X-40000000Y18500000D02*
X-41500000Y18500000D01*
X-37000000Y15500000D02*
X-40000000Y18500000D01*
X-28500000Y2500000D02*
X-27630000Y3370000D01*
X-29820000Y2500000D02*
X-28500000Y2500000D01*
X-51412500Y33412500D02*
X-52462500Y34462500D01*
X-46087500Y33412500D02*
X-46000000Y33325000D01*
X-46000000Y33325000D02*
X-43825000Y33325000D01*
X-51000000Y33412500D02*
X-51412500Y33412500D01*
X-59500000Y30460000D02*
X-59500000Y30735000D01*
X-43825000Y33325000D02*
X-42000000Y31500000D01*
X-56000000Y34235000D02*
X-56000000Y34462500D01*
X-27630000Y3370000D02*
X-27630000Y7016346D01*
X-31613654Y11000000D02*
X-37000000Y11000000D01*
X-41500000Y18500000D02*
X-41500000Y31000000D01*
X-41500000Y31000000D02*
X-42000000Y31500000D01*
X-37000000Y11000000D02*
X-37000000Y15500000D01*
X-51000000Y33412500D02*
X-46087500Y33412500D01*
X-59500000Y30735000D02*
X-56000000Y34235000D01*
X-31320000Y4000000D02*
X-29820000Y2500000D01*
%TD*%
%TA.AperFunction,Conductor*%
%TO.N,GND*%
G36*
X-38239752Y9042087D02*
G01*
X-38239635Y9042527D01*
X-38231785Y9040423D01*
X-38231784Y9040423D01*
X-38079057Y8999500D01*
X-32140097Y8999500D01*
X-32073058Y8979815D01*
X-32052416Y8963181D01*
X-31193666Y8104431D01*
X-31160181Y8043108D01*
X-31165165Y7973416D01*
X-31207037Y7917483D01*
X-31272501Y7893066D01*
X-31292144Y7893221D01*
X-31320000Y7895659D01*
X-31555408Y7875063D01*
X-31783663Y7813903D01*
X-31997829Y7714035D01*
X-32191401Y7578495D01*
X-32358495Y7411401D01*
X-32488426Y7225838D01*
X-32543001Y7182215D01*
X-32612500Y7175021D01*
X-32674855Y7206543D01*
X-32691571Y7225836D01*
X-32821505Y7411401D01*
X-32988599Y7578495D01*
X-33085384Y7646265D01*
X-33182165Y7714032D01*
X-33182169Y7714034D01*
X-33182170Y7714035D01*
X-33396337Y7813903D01*
X-33624592Y7875063D01*
X-33812918Y7891539D01*
X-33859999Y7895659D01*
X-33860001Y7895659D01*
X-33899234Y7892226D01*
X-34095408Y7875063D01*
X-34323663Y7813903D01*
X-34537829Y7714035D01*
X-34731401Y7578495D01*
X-34898495Y7411401D01*
X-35028426Y7225838D01*
X-35083001Y7182215D01*
X-35152500Y7175021D01*
X-35214855Y7206543D01*
X-35231571Y7225836D01*
X-35361505Y7411401D01*
X-35528599Y7578495D01*
X-35625384Y7646265D01*
X-35722165Y7714032D01*
X-35722169Y7714034D01*
X-35722170Y7714035D01*
X-35936337Y7813903D01*
X-36164592Y7875063D01*
X-36352918Y7891539D01*
X-36399999Y7895659D01*
X-36400001Y7895659D01*
X-36439234Y7892226D01*
X-36635408Y7875063D01*
X-36863663Y7813903D01*
X-37077829Y7714035D01*
X-37271401Y7578495D01*
X-37438495Y7411401D01*
X-37574035Y7217829D01*
X-37673903Y7003663D01*
X-37735063Y6775408D01*
X-37755659Y6540000D01*
X-37735063Y6304592D01*
X-37673903Y6076337D01*
X-37604220Y5926903D01*
X-37593729Y5857828D01*
X-37622249Y5794044D01*
X-37680725Y5755804D01*
X-37716603Y5750500D01*
X-37849902Y5750500D01*
X-37916941Y5770185D01*
X-37937583Y5786819D01*
X-38363181Y6212416D01*
X-38396666Y6273739D01*
X-38399500Y6300097D01*
X-38399500Y8924314D01*
X-38379815Y8991353D01*
X-38327011Y9037108D01*
X-38257853Y9047052D01*
X-38239752Y9042087D01*
G37*
%TD.AperFunction*%
%TA.AperFunction,Conductor*%
G36*
X18218834Y29282341D02*
G01*
X18274767Y29240469D01*
X18299184Y29175005D01*
X18299500Y29166159D01*
X18299500Y28877130D01*
X18299501Y28877123D01*
X18305908Y28817516D01*
X18356202Y28682671D01*
X18356206Y28682664D01*
X18442452Y28567455D01*
X18442455Y28567452D01*
X18557664Y28481206D01*
X18557671Y28481202D01*
X18692517Y28430908D01*
X18692516Y28430908D01*
X18752116Y28424501D01*
X18752119Y28424500D01*
X18752127Y28424500D01*
X18975500Y28424500D01*
X19042539Y28404815D01*
X19088294Y28352011D01*
X19099500Y28300500D01*
X19099500Y18330749D01*
X19079815Y18263710D01*
X19027011Y18217955D01*
X18975500Y18206749D01*
X18543847Y18206749D01*
X18476808Y18226434D01*
X18456166Y18243068D01*
X17580568Y19118666D01*
X17547083Y19179989D01*
X17544249Y19206347D01*
X17544249Y19356251D01*
X17544248Y19356268D01*
X17533749Y19459046D01*
X17533748Y19459049D01*
X17532896Y19461620D01*
X17478564Y19625584D01*
X17386462Y19774906D01*
X17292799Y19868569D01*
X17259314Y19929892D01*
X17264298Y19999584D01*
X17292799Y20043931D01*
X17386460Y20137592D01*
X17386462Y20137594D01*
X17478564Y20286916D01*
X17533749Y20453453D01*
X17544250Y20556241D01*
X17544249Y21181258D01*
X17540928Y21213764D01*
X17533749Y21284046D01*
X17533748Y21284049D01*
X17532239Y21288604D01*
X17478564Y21450584D01*
X17386462Y21599906D01*
X17262406Y21723962D01*
X17113084Y21816064D01*
X16946547Y21871249D01*
X16843759Y21881750D01*
X15843742Y21881749D01*
X15843734Y21881748D01*
X15843730Y21881748D01*
X15756851Y21872873D01*
X15740953Y21871249D01*
X15574416Y21816064D01*
X15425094Y21723962D01*
X15301038Y21599906D01*
X15263075Y21538357D01*
X15256781Y21528153D01*
X15204833Y21481429D01*
X15151242Y21469250D01*
X12836258Y21469250D01*
X12769219Y21488935D01*
X12730719Y21528153D01*
X12724426Y21538356D01*
X12686462Y21599906D01*
X12562406Y21723962D01*
X12517004Y21751965D01*
X12470281Y21803911D01*
X12459058Y21872873D01*
X12486901Y21936955D01*
X12494420Y21945184D01*
X12549234Y21999998D01*
X12605520Y22056284D01*
X12670873Y22169480D01*
X12684577Y22193215D01*
X12725501Y22345943D01*
X12725501Y22504057D01*
X12725501Y22514046D01*
X12725500Y22514059D01*
X12725500Y25044053D01*
X12725500Y25044057D01*
X12702181Y25131087D01*
X12684577Y25196785D01*
X12648324Y25259577D01*
X12648324Y25259578D01*
X12605524Y25333709D01*
X12605520Y25333716D01*
X12493716Y25445520D01*
X12493714Y25445520D01*
X12483511Y25455724D01*
X12483506Y25455728D01*
X12299202Y25640031D01*
X12265719Y25701352D01*
X12266680Y25758151D01*
X12311131Y25933682D01*
X12311135Y25933702D01*
X12330300Y26164993D01*
X12330300Y26165006D01*
X12311135Y26396297D01*
X12311133Y26396308D01*
X12309873Y26401282D01*
X12254157Y26621300D01*
X12160924Y26833849D01*
X12033979Y27028153D01*
X11876784Y27198913D01*
X11775626Y27277646D01*
X11734814Y27334357D01*
X11731139Y27404130D01*
X11765770Y27464813D01*
X11827712Y27497140D01*
X11851789Y27499500D01*
X15998075Y27499500D01*
X15998091Y27499499D01*
X16005687Y27499499D01*
X16163798Y27499499D01*
X16163801Y27499499D01*
X16316529Y27540423D01*
X16366644Y27569358D01*
X16366648Y27569359D01*
X16366648Y27569360D01*
X16451037Y27618081D01*
X16453460Y27619480D01*
X16565264Y27731284D01*
X16572332Y27738352D01*
X16572334Y27738355D01*
X18087819Y29253840D01*
X18149142Y29287325D01*
X18218834Y29282341D01*
G37*
%TD.AperFunction*%
%TA.AperFunction,Conductor*%
G36*
X4767438Y34129815D02*
G01*
X4813193Y34077011D01*
X4823137Y34007853D01*
X4805938Y33960405D01*
X4765186Y33894334D01*
X4710001Y33727797D01*
X4710001Y33727795D01*
X4710000Y33727795D01*
X4699500Y33625016D01*
X4699500Y32999998D01*
X4699501Y32999980D01*
X4710000Y32897203D01*
X4710001Y32897200D01*
X4765185Y32730668D01*
X4765187Y32730663D01*
X4857289Y32581342D01*
X4950951Y32487681D01*
X4984436Y32426358D01*
X4979452Y32356666D01*
X4950951Y32312319D01*
X4857287Y32218655D01*
X4813032Y32146905D01*
X4761084Y32100180D01*
X4716376Y32090019D01*
X4716503Y32089062D01*
X4708445Y32088001D01*
X4708443Y32088001D01*
X4555715Y32047077D01*
X4527291Y32030666D01*
X4454953Y31988902D01*
X4418785Y31968021D01*
X4302649Y31851885D01*
X4302639Y31851874D01*
X3687583Y31236818D01*
X3626260Y31203333D01*
X3599902Y31200499D01*
X2702128Y31200499D01*
X2653757Y31195299D01*
X2642516Y31194091D01*
X2507671Y31143797D01*
X2507664Y31143793D01*
X2392455Y31057547D01*
X2392452Y31057544D01*
X2306206Y30942335D01*
X2306202Y30942328D01*
X2255908Y30807482D01*
X2249791Y30750581D01*
X2249501Y30747876D01*
X2249500Y30747864D01*
X2249500Y29652129D01*
X2249501Y29652123D01*
X2255909Y29592515D01*
X2257692Y29584971D01*
X2256439Y29584675D01*
X2260855Y29522926D01*
X2256870Y29509357D01*
X2256401Y29507372D01*
X2250000Y29447844D01*
X2250000Y29150000D01*
X4750000Y29150000D01*
X4750000Y29447827D01*
X4749999Y29447844D01*
X4743598Y29507375D01*
X4741814Y29514926D01*
X4743462Y29515315D01*
X4739140Y29575624D01*
X4744060Y29592387D01*
X4744090Y29592515D01*
X4744091Y29592517D01*
X4750500Y29652127D01*
X4750499Y30549902D01*
X4770183Y30616941D01*
X4786818Y30637583D01*
X4793751Y30644516D01*
X4855074Y30678001D01*
X4924766Y30673017D01*
X4969108Y30644521D01*
X4981337Y30632293D01*
X4981336Y30632293D01*
X5130663Y30540187D01*
X5130668Y30540185D01*
X5214670Y30512349D01*
X5297203Y30485001D01*
X5297204Y30485000D01*
X5399989Y30474500D01*
X5399991Y30474500D01*
X6400001Y30474500D01*
X6400019Y30474501D01*
X6502796Y30485000D01*
X6502799Y30485001D01*
X6669331Y30540185D01*
X6669334Y30540186D01*
X6669341Y30540190D01*
X6756025Y30593657D01*
X6818656Y30632288D01*
X6837819Y30651451D01*
X6899142Y30684936D01*
X6968834Y30679952D01*
X7024767Y30638080D01*
X7049184Y30572616D01*
X7049500Y30563770D01*
X7049500Y29652129D01*
X7049501Y29652123D01*
X7055909Y29592515D01*
X7057692Y29584971D01*
X7056439Y29584675D01*
X7060855Y29522926D01*
X7056870Y29509357D01*
X7056401Y29507372D01*
X7050000Y29447844D01*
X7050000Y29150000D01*
X9550000Y29150000D01*
X9550000Y29447827D01*
X9549999Y29447844D01*
X9543598Y29507375D01*
X9541814Y29514926D01*
X9543462Y29515315D01*
X9539140Y29575624D01*
X9544060Y29592387D01*
X9544090Y29592515D01*
X9544091Y29592517D01*
X9550500Y29652127D01*
X9550499Y30449902D01*
X9570183Y30516941D01*
X9586818Y30537583D01*
X9850370Y30801135D01*
X9911693Y30834620D01*
X9981385Y30829636D01*
X10037318Y30787764D01*
X10043588Y30778554D01*
X10057288Y30756343D01*
X10181342Y30632289D01*
X10330663Y30540187D01*
X10330668Y30540185D01*
X10414670Y30512349D01*
X10497203Y30485001D01*
X10497204Y30485000D01*
X10599989Y30474500D01*
X10599991Y30474500D01*
X11600001Y30474500D01*
X11600019Y30474501D01*
X11702796Y30485000D01*
X11702799Y30485001D01*
X11869331Y30540185D01*
X11869334Y30540186D01*
X11869341Y30540190D01*
X11956025Y30593657D01*
X12018656Y30632288D01*
X12142712Y30756344D01*
X12219961Y30881586D01*
X12271909Y30928310D01*
X12340871Y30939533D01*
X12404954Y30911689D01*
X12443810Y30853621D01*
X12449500Y30816489D01*
X12449500Y29952129D01*
X12449501Y29952123D01*
X12455909Y29892515D01*
X12457692Y29884971D01*
X12456439Y29884675D01*
X12460855Y29822926D01*
X12456870Y29809357D01*
X12456401Y29807372D01*
X12450000Y29747844D01*
X12450000Y29450000D01*
X14950000Y29450000D01*
X14950000Y29747827D01*
X14949999Y29747828D01*
X14948450Y29762245D01*
X14960856Y29831004D01*
X15008466Y29882142D01*
X15071740Y29899500D01*
X15269551Y29899500D01*
X15336590Y29879815D01*
X15382345Y29827011D01*
X15387256Y29814507D01*
X15390185Y29805667D01*
X15482289Y29656342D01*
X15606342Y29532289D01*
X15755663Y29440187D01*
X15755668Y29440185D01*
X15839670Y29412349D01*
X15922203Y29385001D01*
X15922204Y29385000D01*
X16024983Y29374500D01*
X16024991Y29374500D01*
X16210647Y29374500D01*
X16277686Y29354815D01*
X16323441Y29302011D01*
X16333385Y29232853D01*
X16304360Y29169297D01*
X16298328Y29162819D01*
X15872328Y28736819D01*
X15811005Y28703334D01*
X15784647Y28700500D01*
X15074000Y28700500D01*
X15006961Y28720185D01*
X14961206Y28772989D01*
X14950000Y28824500D01*
X14950000Y28950000D01*
X12450000Y28950000D01*
X12450000Y28824500D01*
X12430315Y28757461D01*
X12377511Y28711706D01*
X12326000Y28700500D01*
X6686669Y28700500D01*
X6686653Y28700501D01*
X6679057Y28700501D01*
X6520943Y28700501D01*
X6368215Y28659577D01*
X6351628Y28650000D01*
X6350762Y28649500D01*
X6350759Y28649499D01*
X6231290Y28580524D01*
X6231286Y28580521D01*
X6231284Y28580520D01*
X6150680Y28499916D01*
X6115149Y28464385D01*
X6115139Y28464374D01*
X4038355Y26387590D01*
X4038349Y26387585D01*
X4031284Y26380520D01*
X3919480Y26268716D01*
X3888868Y26215694D01*
X3840423Y26131785D01*
X3799499Y25979057D01*
X3799499Y25979054D01*
X3799499Y25813348D01*
X3799500Y25813330D01*
X3799500Y21524500D01*
X3779815Y21457461D01*
X3727011Y21411706D01*
X3675500Y21400500D01*
X2504969Y21400500D01*
X2437930Y21420185D01*
X2392175Y21472989D01*
X2382231Y21542147D01*
X2387260Y21563492D01*
X2414999Y21647203D01*
X2425500Y21749991D01*
X2425499Y22750008D01*
X2422605Y22778334D01*
X2414999Y22852796D01*
X2414998Y22852799D01*
X2359814Y23019334D01*
X2267712Y23168656D01*
X2143656Y23292712D01*
X2031902Y23361641D01*
X1985179Y23413587D01*
X1973000Y23467179D01*
X1973000Y26063659D01*
X1992685Y26130698D01*
X2031902Y26169197D01*
X2093655Y26207287D01*
X2217710Y26331342D01*
X2217712Y26331344D01*
X2309814Y26480666D01*
X2364999Y26647203D01*
X2375500Y26749991D01*
X2375499Y27750008D01*
X2368588Y27817656D01*
X2381357Y27886346D01*
X2429237Y27937231D01*
X2497027Y27954152D01*
X2535278Y27946438D01*
X2642616Y27906403D01*
X2642627Y27906401D01*
X2702155Y27900000D01*
X3250000Y27900000D01*
X3250000Y28650000D01*
X3750000Y28650000D01*
X3750000Y27900000D01*
X4297844Y27900000D01*
X4357372Y27906401D01*
X4357379Y27906403D01*
X4492086Y27956645D01*
X4492093Y27956649D01*
X4607187Y28042809D01*
X4607190Y28042812D01*
X4693350Y28157906D01*
X4693354Y28157913D01*
X4743596Y28292620D01*
X4743598Y28292627D01*
X4749999Y28352155D01*
X4750000Y28352172D01*
X4750000Y28650000D01*
X3750000Y28650000D01*
X3250000Y28650000D01*
X2250000Y28650000D01*
X2250000Y28418452D01*
X2230315Y28351413D01*
X2177511Y28305658D01*
X2108353Y28295714D01*
X2060904Y28312913D01*
X2046551Y28321766D01*
X2021903Y28336968D01*
X1975179Y28388915D01*
X1963000Y28442507D01*
X1963000Y31357491D01*
X1982685Y31424530D01*
X2021902Y31463029D01*
X2093655Y31507287D01*
X2217710Y31631342D01*
X2217712Y31631344D01*
X2309814Y31780666D01*
X2364999Y31947203D01*
X2375500Y32049991D01*
X2375499Y33050008D01*
X2364999Y33152797D01*
X2309814Y33319334D01*
X2217712Y33468656D01*
X2093656Y33592712D01*
X2021903Y33636968D01*
X1975179Y33688915D01*
X1963000Y33742507D01*
X1963000Y33850830D01*
X1963001Y33850848D01*
X1963001Y33862404D01*
X1982686Y33929443D01*
X1999320Y33950085D01*
X2162416Y34113181D01*
X2223739Y34146666D01*
X2250097Y34149500D01*
X4700399Y34149500D01*
X4767438Y34129815D01*
G37*
%TD.AperFunction*%
%TA.AperFunction,Conductor*%
G36*
X-57456165Y31827084D02*
G01*
X-57400232Y31785212D01*
X-57375815Y31719748D01*
X-57375499Y31710922D01*
X-57375499Y31527011D01*
X-57375499Y31174998D01*
X-57375498Y31174980D01*
X-57368609Y31107546D01*
X-57364999Y31072203D01*
X-57309814Y30905666D01*
X-57217712Y30756344D01*
X-57093656Y30632288D01*
X-57031025Y30593657D01*
X-56944341Y30540190D01*
X-56944334Y30540186D01*
X-56777797Y30485001D01*
X-56777795Y30485000D01*
X-56675010Y30474500D01*
X-56675009Y30474500D01*
X-55324998Y30474500D01*
X-55324981Y30474501D01*
X-55222203Y30485000D01*
X-55222200Y30485001D01*
X-55055668Y30540185D01*
X-55055659Y30540190D01*
X-54913062Y30628143D01*
X-54845669Y30646583D01*
X-54779006Y30625660D01*
X-54760285Y30610285D01*
X-54750000Y30600000D01*
X-52250000Y30600000D01*
X-52250000Y30764270D01*
X-52230315Y30831309D01*
X-52177511Y30877064D01*
X-52108353Y30887008D01*
X-52044797Y30857983D01*
X-52038319Y30851951D01*
X-51918656Y30732288D01*
X-51842179Y30685117D01*
X-51774962Y30643657D01*
X-51769334Y30640186D01*
X-51602797Y30585001D01*
X-51602795Y30585000D01*
X-51500010Y30574500D01*
X-51500009Y30574500D01*
X-50499998Y30574500D01*
X-50499980Y30574501D01*
X-50397203Y30585000D01*
X-50397200Y30585001D01*
X-50230668Y30640185D01*
X-50230663Y30640187D01*
X-50081342Y30732289D01*
X-49961681Y30851951D01*
X-49900358Y30885436D01*
X-49830666Y30880452D01*
X-49774733Y30838580D01*
X-49750316Y30773116D01*
X-49750000Y30764270D01*
X-49750000Y30600000D01*
X-47250000Y30600000D01*
X-47250000Y30676770D01*
X-47230315Y30743809D01*
X-47177511Y30789564D01*
X-47108353Y30799508D01*
X-47044797Y30770483D01*
X-47038319Y30764451D01*
X-46918656Y30644788D01*
X-46769334Y30552686D01*
X-46602797Y30497501D01*
X-46602795Y30497500D01*
X-46500010Y30487000D01*
X-46500009Y30487000D01*
X-45499998Y30487000D01*
X-45499980Y30487001D01*
X-45397203Y30497500D01*
X-45397200Y30497501D01*
X-45230668Y30552685D01*
X-45230663Y30552687D01*
X-45081342Y30644789D01*
X-44962180Y30763952D01*
X-44900857Y30797437D01*
X-44831165Y30792453D01*
X-44775232Y30750581D01*
X-44750815Y30685117D01*
X-44750499Y30676271D01*
X-44750499Y30602128D01*
X-44746376Y30563770D01*
X-44744091Y30542516D01*
X-44742307Y30534966D01*
X-44743561Y30534669D01*
X-44739144Y30472930D01*
X-44743130Y30459353D01*
X-44743598Y30457375D01*
X-44749999Y30397844D01*
X-44750000Y30397827D01*
X-44750000Y30100000D01*
X-43374000Y30100000D01*
X-43306961Y30080315D01*
X-43261206Y30027511D01*
X-43250000Y29976000D01*
X-43250000Y28850000D01*
X-42702155Y28850000D01*
X-42642627Y28856401D01*
X-42642620Y28856403D01*
X-42507913Y28906645D01*
X-42507906Y28906649D01*
X-42392812Y28992809D01*
X-42323766Y29085042D01*
X-42267832Y29126912D01*
X-42198140Y29131896D01*
X-42136817Y29098410D01*
X-42103333Y29037086D01*
X-42100500Y29010730D01*
X-42100500Y27292836D01*
X-42120185Y27225797D01*
X-42172989Y27180042D01*
X-42242147Y27170098D01*
X-42305703Y27199123D01*
X-42343477Y27257901D01*
X-42343576Y27258241D01*
X-42373254Y27360393D01*
X-42373255Y27360396D01*
X-42456917Y27501862D01*
X-42456923Y27501870D01*
X-42573129Y27618076D01*
X-42573133Y27618079D01*
X-42573135Y27618081D01*
X-42714602Y27701744D01*
X-42756224Y27713836D01*
X-42872426Y27747597D01*
X-42872429Y27747597D01*
X-42872431Y27747598D01*
X-42909306Y27750500D01*
X-44215694Y27750500D01*
X-44252569Y27747598D01*
X-44252571Y27747597D01*
X-44252573Y27747597D01*
X-44284383Y27738355D01*
X-44410398Y27701744D01*
X-44551865Y27618081D01*
X-44668081Y27501865D01*
X-44751744Y27360398D01*
X-44797598Y27202569D01*
X-44800500Y27165694D01*
X-44800500Y27165686D01*
X-44800500Y26924500D01*
X-44820185Y26857461D01*
X-44872989Y26811706D01*
X-44924500Y26800500D01*
X-46090694Y26800500D01*
X-46127569Y26797598D01*
X-46127571Y26797597D01*
X-46127573Y26797597D01*
X-46169191Y26785505D01*
X-46285398Y26751744D01*
X-46426865Y26668081D01*
X-46426870Y26668076D01*
X-46458126Y26636820D01*
X-46519448Y26603334D01*
X-46545808Y26600500D01*
X-47475500Y26600500D01*
X-47542539Y26620185D01*
X-47588294Y26672989D01*
X-47599500Y26724500D01*
X-47599500Y27947870D01*
X-47599501Y27947876D01*
X-47605908Y28007483D01*
X-47656202Y28142328D01*
X-47656206Y28142335D01*
X-47742452Y28257544D01*
X-47742455Y28257547D01*
X-47857664Y28343793D01*
X-47857671Y28343797D01*
X-47992517Y28394091D01*
X-47992516Y28394091D01*
X-47998925Y28394779D01*
X-48052127Y28400500D01*
X-49947872Y28400499D01*
X-50007483Y28394091D01*
X-50142331Y28343796D01*
X-50257546Y28257546D01*
X-50343796Y28142331D01*
X-50394091Y28007483D01*
X-50400500Y27947873D01*
X-50400499Y26052128D01*
X-50396116Y26011357D01*
X-50394091Y25992516D01*
X-50343797Y25857671D01*
X-50343793Y25857664D01*
X-50257547Y25742455D01*
X-50257544Y25742452D01*
X-50142335Y25656206D01*
X-50142328Y25656202D01*
X-50062094Y25626277D01*
X-50006160Y25584406D01*
X-49981743Y25518941D01*
X-49996595Y25450668D01*
X-50014190Y25426121D01*
X-50108979Y25323153D01*
X-50235924Y25128849D01*
X-50329157Y24916300D01*
X-50386134Y24691305D01*
X-50405300Y24460000D01*
X-50405299Y24459993D01*
X-50404991Y24456272D01*
X-50419070Y24387836D01*
X-50440883Y24358350D01*
X-51308506Y23490728D01*
X-51308511Y23490724D01*
X-51318714Y23480520D01*
X-51318716Y23480520D01*
X-51430520Y23368716D01*
X-51430522Y23368712D01*
X-51476626Y23288858D01*
X-51476626Y23288857D01*
X-51509577Y23231785D01*
X-51550501Y23079057D01*
X-51550501Y23079054D01*
X-51550501Y22913348D01*
X-51550500Y22913330D01*
X-51550500Y22774499D01*
X-51570185Y22707460D01*
X-51622989Y22661705D01*
X-51674500Y22650499D01*
X-52797872Y22650499D01*
X-52857483Y22644091D01*
X-52992331Y22593796D01*
X-53107546Y22507546D01*
X-53193796Y22392331D01*
X-53244091Y22257483D01*
X-53250500Y22197873D01*
X-53250500Y22197864D01*
X-53250500Y22024500D01*
X-53270185Y21957461D01*
X-53322989Y21911706D01*
X-53374500Y21900500D01*
X-54625501Y21900500D01*
X-54692540Y21920185D01*
X-54738295Y21972989D01*
X-54749501Y22024500D01*
X-54749501Y22197876D01*
X-54755908Y22257483D01*
X-54806202Y22392328D01*
X-54806206Y22392335D01*
X-54892452Y22507544D01*
X-54892455Y22507547D01*
X-55007664Y22593793D01*
X-55007671Y22593797D01*
X-55142517Y22644091D01*
X-55142516Y22644091D01*
X-55148925Y22644779D01*
X-55202127Y22650500D01*
X-56797872Y22650499D01*
X-56857483Y22644091D01*
X-56992331Y22593796D01*
X-57107546Y22507546D01*
X-57193796Y22392331D01*
X-57244091Y22257483D01*
X-57250500Y22197873D01*
X-57250500Y22197864D01*
X-57250500Y22024500D01*
X-57270185Y21957461D01*
X-57322989Y21911706D01*
X-57374500Y21900500D01*
X-58625501Y21900500D01*
X-58692540Y21920185D01*
X-58738295Y21972989D01*
X-58749501Y22024500D01*
X-58749501Y22197876D01*
X-58755908Y22257483D01*
X-58806202Y22392328D01*
X-58806206Y22392335D01*
X-58892452Y22507544D01*
X-58892455Y22507547D01*
X-59007664Y22593793D01*
X-59007671Y22593797D01*
X-59142517Y22644091D01*
X-59142516Y22644091D01*
X-59148925Y22644779D01*
X-59202127Y22650500D01*
X-60099901Y22650499D01*
X-60166940Y22670183D01*
X-60187582Y22686818D01*
X-60363181Y22862416D01*
X-60396666Y22923739D01*
X-60399500Y22950097D01*
X-60399500Y29146256D01*
X-60379815Y29213295D01*
X-60327011Y29259050D01*
X-60257853Y29268994D01*
X-60216483Y29255311D01*
X-60068090Y29175005D01*
X-60064503Y29173064D01*
X-60064497Y29173062D01*
X-60064495Y29173061D01*
X-59844984Y29097702D01*
X-59673282Y29069050D01*
X-59616049Y29059500D01*
X-59616048Y29059500D01*
X-59383952Y29059500D01*
X-59383951Y29059500D01*
X-59338164Y29067140D01*
X-59155015Y29097702D01*
X-58935504Y29173061D01*
X-58935495Y29173064D01*
X-58731371Y29283531D01*
X-58731365Y29283535D01*
X-58548222Y29426081D01*
X-58548219Y29426084D01*
X-58528187Y29447844D01*
X-58450451Y29532288D01*
X-58391016Y29596852D01*
X-58264075Y29791151D01*
X-58170842Y30003699D01*
X-58146455Y30100000D01*
X-54750000Y30100000D01*
X-54750000Y29802172D01*
X-54749999Y29802155D01*
X-54743598Y29742627D01*
X-54743596Y29742620D01*
X-54693354Y29607913D01*
X-54693350Y29607906D01*
X-54607190Y29492812D01*
X-54607187Y29492809D01*
X-54492093Y29406649D01*
X-54492086Y29406645D01*
X-54357379Y29356403D01*
X-54357372Y29356401D01*
X-54297844Y29350000D01*
X-53750000Y29350000D01*
X-53750000Y30100000D01*
X-53250000Y30100000D01*
X-53250000Y29350000D01*
X-52702155Y29350000D01*
X-52642627Y29356401D01*
X-52642620Y29356403D01*
X-52507913Y29406645D01*
X-52507906Y29406649D01*
X-52392812Y29492809D01*
X-52392809Y29492812D01*
X-52306649Y29607906D01*
X-52306645Y29607913D01*
X-52256403Y29742620D01*
X-52256401Y29742627D01*
X-52250000Y29802155D01*
X-52250000Y30100000D01*
X-49750000Y30100000D01*
X-49750000Y29802172D01*
X-49749999Y29802155D01*
X-49743598Y29742627D01*
X-49743596Y29742620D01*
X-49693354Y29607913D01*
X-49693350Y29607906D01*
X-49607190Y29492812D01*
X-49607187Y29492809D01*
X-49492093Y29406649D01*
X-49492086Y29406645D01*
X-49357379Y29356403D01*
X-49357372Y29356401D01*
X-49297844Y29350000D01*
X-48750000Y29350000D01*
X-48750000Y30100000D01*
X-48250000Y30100000D01*
X-48250000Y29350000D01*
X-47702155Y29350000D01*
X-47642627Y29356401D01*
X-47642620Y29356403D01*
X-47507913Y29406645D01*
X-47507906Y29406649D01*
X-47392812Y29492809D01*
X-47392809Y29492812D01*
X-47312567Y29600000D01*
X-44750000Y29600000D01*
X-44750000Y29302172D01*
X-44749999Y29302155D01*
X-44743598Y29242627D01*
X-44743596Y29242620D01*
X-44693354Y29107913D01*
X-44693350Y29107906D01*
X-44607190Y28992812D01*
X-44607187Y28992809D01*
X-44492093Y28906649D01*
X-44492086Y28906645D01*
X-44357379Y28856403D01*
X-44357372Y28856401D01*
X-44297844Y28850000D01*
X-43750000Y28850000D01*
X-43750000Y29600000D01*
X-44750000Y29600000D01*
X-47312567Y29600000D01*
X-47306649Y29607906D01*
X-47306645Y29607913D01*
X-47256403Y29742620D01*
X-47256401Y29742627D01*
X-47250000Y29802155D01*
X-47250000Y30100000D01*
X-48250000Y30100000D01*
X-48750000Y30100000D01*
X-49750000Y30100000D01*
X-52250000Y30100000D01*
X-53250000Y30100000D01*
X-53750000Y30100000D01*
X-54750000Y30100000D01*
X-58146455Y30100000D01*
X-58113866Y30228691D01*
X-58113864Y30228702D01*
X-58094700Y30459993D01*
X-58094700Y30460006D01*
X-58113864Y30691297D01*
X-58113866Y30691308D01*
X-58170842Y30916298D01*
X-58227860Y31046287D01*
X-58236763Y31115588D01*
X-58206785Y31178700D01*
X-58201985Y31183778D01*
X-57587180Y31798583D01*
X-57525857Y31832068D01*
X-57456165Y31827084D01*
G37*
%TD.AperFunction*%
%TA.AperFunction,Conductor*%
G36*
X-43595558Y26129815D02*
G01*
X-43574916Y26113181D01*
X-43348819Y25887083D01*
X-43315334Y25825760D01*
X-43312500Y25799402D01*
X-43312500Y24924000D01*
X-43332185Y24856961D01*
X-43384989Y24811206D01*
X-43436500Y24800000D01*
X-44797295Y24800000D01*
X-44797295Y24799998D01*
X-44797100Y24797513D01*
X-44751281Y24639801D01*
X-44667685Y24498447D01*
X-44667678Y24498438D01*
X-44551561Y24382321D01*
X-44551552Y24382314D01*
X-44410196Y24298717D01*
X-44410193Y24298716D01*
X-44252495Y24252900D01*
X-44252489Y24252899D01*
X-44215649Y24250000D01*
X-43898597Y24250000D01*
X-43831558Y24230315D01*
X-43785803Y24177511D01*
X-43775859Y24108353D01*
X-43804884Y24044797D01*
X-43810916Y24038319D01*
X-45037416Y22811819D01*
X-45098739Y22778334D01*
X-45125097Y22775500D01*
X-48200831Y22775500D01*
X-48200847Y22775501D01*
X-48208443Y22775501D01*
X-48366557Y22775501D01*
X-48519285Y22734577D01*
X-48545432Y22719480D01*
X-48545434Y22719480D01*
X-48545434Y22719479D01*
X-48656216Y22655520D01*
X-48768020Y22543716D01*
X-48768020Y22543714D01*
X-48778224Y22533511D01*
X-48778228Y22533506D01*
X-48909749Y22401984D01*
X-48971070Y22368501D01*
X-49010027Y22366309D01*
X-49099991Y22375500D01*
X-49825008Y22375499D01*
X-49825016Y22375498D01*
X-49825019Y22375498D01*
X-49881302Y22369748D01*
X-49927797Y22364999D01*
X-50094334Y22309814D01*
X-50160404Y22269061D01*
X-50227796Y22250622D01*
X-50294459Y22271545D01*
X-50339229Y22325187D01*
X-50349500Y22374601D01*
X-50349500Y22699901D01*
X-50329815Y22766940D01*
X-50313181Y22787582D01*
X-49865545Y23235217D01*
X-49804222Y23268702D01*
X-49734530Y23263718D01*
X-49718853Y23256594D01*
X-49610830Y23198135D01*
X-49564503Y23173064D01*
X-49564495Y23173061D01*
X-49344984Y23097702D01*
X-49213586Y23075776D01*
X-49116049Y23059500D01*
X-49116048Y23059500D01*
X-48883952Y23059500D01*
X-48883951Y23059500D01*
X-48838164Y23067140D01*
X-48655015Y23097702D01*
X-48435504Y23173061D01*
X-48435495Y23173064D01*
X-48231371Y23283531D01*
X-48231365Y23283535D01*
X-48048222Y23426081D01*
X-48048219Y23426084D01*
X-47891016Y23596852D01*
X-47764075Y23791151D01*
X-47670842Y24003699D01*
X-47613866Y24228691D01*
X-47613864Y24228702D01*
X-47594700Y24459993D01*
X-47594700Y24460006D01*
X-47613864Y24691297D01*
X-47613866Y24691308D01*
X-47670842Y24916300D01*
X-47764074Y25128845D01*
X-47764076Y25128848D01*
X-47764076Y25128849D01*
X-47815578Y25207679D01*
X-47835765Y25274568D01*
X-47816585Y25341754D01*
X-47764127Y25387904D01*
X-47711769Y25399500D01*
X-46545808Y25399500D01*
X-46478769Y25379815D01*
X-46458126Y25363180D01*
X-46426870Y25331923D01*
X-46426862Y25331917D01*
X-46412031Y25323146D01*
X-46291501Y25251865D01*
X-46285396Y25248255D01*
X-46285393Y25248254D01*
X-46127573Y25202402D01*
X-46127567Y25202401D01*
X-46090701Y25199500D01*
X-46090694Y25199500D01*
X-44784298Y25199500D01*
X-44747432Y25202401D01*
X-44747426Y25202402D01*
X-44589606Y25248254D01*
X-44589603Y25248255D01*
X-44531306Y25282732D01*
X-44468185Y25300000D01*
X-43812500Y25300000D01*
X-43812500Y25850000D01*
X-44075500Y25850000D01*
X-44142539Y25869685D01*
X-44188294Y25922489D01*
X-44199500Y25974000D01*
X-44199500Y26025500D01*
X-44179815Y26092539D01*
X-44127011Y26138294D01*
X-44075500Y26149500D01*
X-43662597Y26149500D01*
X-43595558Y26129815D01*
G37*
%TD.AperFunction*%
%TA.AperFunction,Conductor*%
G36*
X10065250Y27479815D02*
G01*
X10111005Y27427011D01*
X10120949Y27357853D01*
X10091924Y27294297D01*
X10074374Y27277647D01*
X9973216Y27198913D01*
X9816021Y27028153D01*
X9816019Y27028151D01*
X9816016Y27028147D01*
X9689075Y26833848D01*
X9595842Y26621300D01*
X9538866Y26396308D01*
X9538864Y26396297D01*
X9519700Y26165006D01*
X9519700Y26164993D01*
X9538864Y25933702D01*
X9538866Y25933691D01*
X9595842Y25708699D01*
X9689075Y25496151D01*
X9691578Y25492321D01*
X9711765Y25425432D01*
X9692585Y25358246D01*
X9640127Y25312096D01*
X9587769Y25300500D01*
X8845808Y25300500D01*
X8778769Y25320185D01*
X8758126Y25336820D01*
X8726870Y25368076D01*
X8726865Y25368081D01*
X8585398Y25451744D01*
X8469191Y25485505D01*
X8427573Y25497597D01*
X8427571Y25497597D01*
X8427569Y25497598D01*
X8390694Y25500500D01*
X7084306Y25500500D01*
X7047431Y25497598D01*
X7047429Y25497597D01*
X7047426Y25497597D01*
X6931224Y25463836D01*
X6889602Y25451744D01*
X6845111Y25425432D01*
X6831306Y25417268D01*
X6768185Y25400000D01*
X6112500Y25400000D01*
X6112500Y24850000D01*
X6375500Y24850000D01*
X6442539Y24830315D01*
X6488294Y24777511D01*
X6499500Y24726000D01*
X6499500Y24674500D01*
X6479815Y24607461D01*
X6427011Y24561706D01*
X6375500Y24550500D01*
X5209306Y24550500D01*
X5172431Y24547598D01*
X5159096Y24543724D01*
X5089231Y24543921D01*
X5030559Y24581860D01*
X5001713Y24645497D01*
X5000500Y24662799D01*
X5000500Y24737720D01*
X5020185Y24804759D01*
X5072989Y24850514D01*
X5142147Y24860458D01*
X5159091Y24856798D01*
X5172510Y24852899D01*
X5209350Y24850000D01*
X5612500Y24850000D01*
X5612500Y25776000D01*
X5632185Y25843039D01*
X5684989Y25888794D01*
X5736500Y25900000D01*
X7097295Y25900000D01*
X7097295Y25900001D01*
X7097100Y25902486D01*
X7051281Y26060198D01*
X6967685Y26201552D01*
X6967678Y26201561D01*
X6851561Y26317678D01*
X6851552Y26317685D01*
X6710196Y26401282D01*
X6710193Y26401283D01*
X6552495Y26447099D01*
X6552489Y26447100D01*
X6515649Y26449999D01*
X6515634Y26450000D01*
X6098597Y26450000D01*
X6031558Y26469685D01*
X5985803Y26522489D01*
X5975859Y26591647D01*
X6004884Y26655203D01*
X6010916Y26661681D01*
X6812416Y27463181D01*
X6873739Y27496666D01*
X6900097Y27499500D01*
X9998211Y27499500D01*
X10065250Y27479815D01*
G37*
%TD.AperFunction*%
%TA.AperFunction,Conductor*%
G36*
X-2665379Y54579815D02*
G01*
X-2619624Y54527011D01*
X-2609680Y54457853D01*
X-2616236Y54432167D01*
X-2644091Y54357483D01*
X-2650500Y54297873D01*
X-2650499Y52702128D01*
X-2644091Y52642517D01*
X-2644090Y52642515D01*
X-2642308Y52634971D01*
X-2644102Y52634546D01*
X-2639820Y52574761D01*
X-2673295Y52513438D01*
X-2949917Y52236816D01*
X-3011238Y52203333D01*
X-3037586Y52200499D01*
X-3650008Y52200499D01*
X-3650016Y52200498D01*
X-3650019Y52200498D01*
X-3685172Y52196907D01*
X-3752797Y52189999D01*
X-3919334Y52134814D01*
X-4068656Y52042712D01*
X-4127651Y51983717D01*
X-4162319Y51949049D01*
X-4223642Y51915564D01*
X-4293334Y51920548D01*
X-4337681Y51949049D01*
X-4431342Y52042710D01*
X-4431344Y52042712D01*
X-4580666Y52134814D01*
X-4747203Y52189999D01*
X-4849991Y52200500D01*
X-5475008Y52200499D01*
X-5475016Y52200498D01*
X-5475019Y52200498D01*
X-5510172Y52196907D01*
X-5577797Y52189999D01*
X-5744334Y52134814D01*
X-5893656Y52042712D01*
X-6017712Y51918656D01*
X-6109814Y51769334D01*
X-6164999Y51602797D01*
X-6175500Y51500009D01*
X-6175499Y50992335D01*
X-6175499Y50499998D01*
X-6175498Y50499980D01*
X-6170295Y50449049D01*
X-6164999Y50397203D01*
X-6109814Y50230666D01*
X-6017712Y50081344D01*
X-6017710Y50081342D01*
X-5893655Y49957287D01*
X-5821902Y49913029D01*
X-5775178Y49861081D01*
X-5763000Y49807491D01*
X-5763000Y47442507D01*
X-5782685Y47375468D01*
X-5821903Y47336968D01*
X-5893656Y47292712D01*
X-6017712Y47168656D01*
X-6109814Y47019334D01*
X-6164999Y46852797D01*
X-6175500Y46750009D01*
X-6175499Y46249501D01*
X-6175499Y45749998D01*
X-6175498Y45749980D01*
X-6166049Y45657483D01*
X-6164999Y45647203D01*
X-6109814Y45480666D01*
X-6017712Y45331344D01*
X-6017710Y45331342D01*
X-5893655Y45207287D01*
X-5821902Y45163029D01*
X-5775178Y45111081D01*
X-5763000Y45057491D01*
X-5763000Y42999097D01*
X-5782685Y42932058D01*
X-5835489Y42886303D01*
X-5904647Y42876359D01*
X-5968203Y42905384D01*
X-5974681Y42911416D01*
X-7927639Y44864374D01*
X-7927649Y44864385D01*
X-7962764Y44899500D01*
X-8043784Y44980520D01*
X-8043786Y44980521D01*
X-8043790Y44980524D01*
X-8132577Y45031785D01*
X-8132578Y45031785D01*
X-8180715Y45059577D01*
X-8333443Y45100501D01*
X-8491557Y45100501D01*
X-8499153Y45100501D01*
X-8499169Y45100500D01*
X-10953330Y45100500D01*
X-10953346Y45100501D01*
X-10960942Y45100501D01*
X-11119057Y45100501D01*
X-11271785Y45059577D01*
X-11408716Y44980520D01*
X-12490161Y43899073D01*
X-12551482Y43865590D01*
X-12618102Y43869474D01*
X-12652268Y43881204D01*
X-12670018Y43887298D01*
X-12790849Y43907461D01*
X-12898951Y43925500D01*
X-13131049Y43925500D01*
X-13359981Y43887298D01*
X-13579503Y43811936D01*
X-13783626Y43701470D01*
X-13783631Y43701465D01*
X-13783634Y43701464D01*
X-13823355Y43670548D01*
X-13966784Y43558913D01*
X-14123979Y43388153D01*
X-14250924Y43193849D01*
X-14344157Y42981300D01*
X-14400788Y42757669D01*
X-14401133Y42756308D01*
X-14401135Y42756297D01*
X-14420300Y42525006D01*
X-14420300Y42524993D01*
X-14401135Y42293702D01*
X-14401133Y42293691D01*
X-14344157Y42068699D01*
X-14250924Y41856151D01*
X-14123983Y41661852D01*
X-14123980Y41661849D01*
X-14123979Y41661847D01*
X-13966784Y41491087D01*
X-13966781Y41491085D01*
X-13966780Y41491084D01*
X-13966777Y41491081D01*
X-13783634Y41348535D01*
X-13783628Y41348531D01*
X-13579504Y41238064D01*
X-13579495Y41238061D01*
X-13359984Y41162702D01*
X-13188282Y41134050D01*
X-13131049Y41124500D01*
X-13131048Y41124500D01*
X-12898952Y41124500D01*
X-12898951Y41124500D01*
X-12853164Y41132140D01*
X-12670015Y41162702D01*
X-12450504Y41238061D01*
X-12450495Y41238064D01*
X-12246371Y41348531D01*
X-12246365Y41348535D01*
X-12063222Y41491081D01*
X-12063218Y41491085D01*
X-12054866Y41500158D01*
X-11994979Y41536148D01*
X-11925141Y41534047D01*
X-11867525Y41494522D01*
X-11847455Y41459507D01*
X-11818797Y41382671D01*
X-11818793Y41382664D01*
X-11732547Y41267455D01*
X-11732544Y41267452D01*
X-11617335Y41181206D01*
X-11617328Y41181202D01*
X-11482482Y41130908D01*
X-11482483Y41130908D01*
X-11422883Y41124501D01*
X-11422881Y41124500D01*
X-11422873Y41124500D01*
X-11224500Y41124500D01*
X-11157461Y41104815D01*
X-11111706Y41052011D01*
X-11100500Y41000500D01*
X-11100500Y40358308D01*
X-11120185Y40291269D01*
X-11136820Y40270626D01*
X-11168081Y40239365D01*
X-11251744Y40097898D01*
X-11297598Y39940069D01*
X-11300500Y39903194D01*
X-11300500Y38596806D01*
X-11297937Y38564244D01*
X-11297598Y38559932D01*
X-11297597Y38559926D01*
X-11271524Y38470183D01*
X-11251744Y38402102D01*
X-11229429Y38364370D01*
X-11217267Y38343804D01*
X-11200000Y38280684D01*
X-11200000Y37625000D01*
X-10650000Y37625000D01*
X-10650000Y37888000D01*
X-10630315Y37955039D01*
X-10577511Y38000794D01*
X-10526000Y38012000D01*
X-10474500Y38012000D01*
X-10407461Y37992315D01*
X-10361706Y37939511D01*
X-10350500Y37888000D01*
X-10350500Y37475096D01*
X-10370185Y37408057D01*
X-10386814Y37387419D01*
X-10612916Y37161318D01*
X-10674238Y37127834D01*
X-10700596Y37125000D01*
X-12250000Y37125000D01*
X-12250000Y36721865D01*
X-12249999Y36721850D01*
X-12247100Y36685010D01*
X-12247099Y36685004D01*
X-12201283Y36527306D01*
X-12201282Y36527303D01*
X-12117685Y36385947D01*
X-12117678Y36385938D01*
X-12001561Y36269821D01*
X-12001552Y36269814D01*
X-11860196Y36186217D01*
X-11860193Y36186216D01*
X-11750008Y36154204D01*
X-11691122Y36116598D01*
X-11661916Y36053125D01*
X-11664827Y36003039D01*
X-11688001Y35916557D01*
X-11688001Y35916553D01*
X-11688001Y35750848D01*
X-11688000Y35750830D01*
X-11688000Y33992507D01*
X-11707685Y33925468D01*
X-11746903Y33886968D01*
X-11818656Y33842712D01*
X-11865490Y33795878D01*
X-11912319Y33749049D01*
X-11973642Y33715564D01*
X-12043334Y33720548D01*
X-12087681Y33749049D01*
X-12181342Y33842710D01*
X-12181344Y33842712D01*
X-12330666Y33934814D01*
X-12497203Y33989999D01*
X-12599991Y34000500D01*
X-13225008Y34000499D01*
X-13225016Y34000498D01*
X-13225019Y34000498D01*
X-13281302Y33994748D01*
X-13327797Y33989999D01*
X-13494334Y33934814D01*
X-13643656Y33842712D01*
X-13767712Y33718656D01*
X-13859814Y33569334D01*
X-13883104Y33499049D01*
X-13887595Y33485496D01*
X-13927368Y33428051D01*
X-13991884Y33401228D01*
X-14005301Y33400500D01*
X-15475501Y33400500D01*
X-15542540Y33420185D01*
X-15588295Y33472989D01*
X-15599501Y33524500D01*
X-15599501Y33597876D01*
X-15605908Y33657483D01*
X-15656202Y33792328D01*
X-15656206Y33792335D01*
X-15742452Y33907544D01*
X-15742455Y33907547D01*
X-15857664Y33993793D01*
X-15857671Y33993797D01*
X-15992517Y34044091D01*
X-15992516Y34044091D01*
X-15998925Y34044779D01*
X-16052127Y34050500D01*
X-17147872Y34050499D01*
X-17207483Y34044091D01*
X-17207485Y34044090D01*
X-17207487Y34044090D01*
X-17215031Y34042308D01*
X-17215377Y34043775D01*
X-17276342Y34039408D01*
X-17291378Y34043822D01*
X-17292513Y34044089D01*
X-17292517Y34044091D01*
X-17352127Y34050500D01*
X-18400902Y34050499D01*
X-18467941Y34070183D01*
X-18513696Y34122987D01*
X-18523640Y34192146D01*
X-18494615Y34255702D01*
X-18488583Y34262180D01*
X-18069480Y34681284D01*
X-15606981Y37143782D01*
X-15606977Y37143787D01*
X-15535140Y37268214D01*
X-15527923Y37280714D01*
X-15527923Y37280715D01*
X-15506221Y37361706D01*
X-15486999Y37433443D01*
X-15486999Y37591557D01*
X-15486999Y37601546D01*
X-15487000Y37601559D01*
X-15487000Y37625000D01*
X-12250000Y37625000D01*
X-11700000Y37625000D01*
X-11700000Y38609795D01*
X-11700001Y38609795D01*
X-11702486Y38609600D01*
X-11860198Y38563781D01*
X-12001552Y38480185D01*
X-12001561Y38480178D01*
X-12117678Y38364061D01*
X-12117685Y38364052D01*
X-12201282Y38222696D01*
X-12201283Y38222693D01*
X-12247099Y38064995D01*
X-12247100Y38064989D01*
X-12249999Y38028149D01*
X-12250000Y38028134D01*
X-12250000Y37625000D01*
X-15487000Y37625000D01*
X-15487000Y37807491D01*
X-15467315Y37874530D01*
X-15428098Y37913029D01*
X-15356344Y37957287D01*
X-15232289Y38081342D01*
X-15140187Y38230663D01*
X-15140185Y38230668D01*
X-15095983Y38364061D01*
X-15085001Y38397203D01*
X-15085001Y38397204D01*
X-15085000Y38397204D01*
X-15074500Y38499983D01*
X-15074500Y39500001D01*
X-15074501Y39500019D01*
X-15085000Y39602796D01*
X-15085001Y39602799D01*
X-15140185Y39769331D01*
X-15140187Y39769336D01*
X-15191086Y39851856D01*
X-15232288Y39918656D01*
X-15356344Y40042712D01*
X-15428096Y40086968D01*
X-15474821Y40138915D01*
X-15487000Y40192507D01*
X-15487000Y41557491D01*
X-15467315Y41624530D01*
X-15428098Y41663029D01*
X-15356344Y41707287D01*
X-15232289Y41831342D01*
X-15140187Y41980663D01*
X-15140185Y41980668D01*
X-15103743Y42090645D01*
X-15085001Y42147203D01*
X-15085001Y42147204D01*
X-15085000Y42147204D01*
X-15074500Y42249983D01*
X-15074500Y43250001D01*
X-15074501Y43250019D01*
X-15085000Y43352796D01*
X-15085001Y43352799D01*
X-15140185Y43519331D01*
X-15140187Y43519336D01*
X-15216346Y43642809D01*
X-15232288Y43668656D01*
X-15356344Y43792712D01*
X-15415596Y43829258D01*
X-15462321Y43881204D01*
X-15474500Y43934797D01*
X-15474500Y46101652D01*
X-15454815Y46168691D01*
X-15415598Y46207189D01*
X-15314846Y46269334D01*
X-15293842Y46282289D01*
X-15169789Y46406342D01*
X-15077687Y46555663D01*
X-15077685Y46555668D01*
X-15033173Y46689998D01*
X-15022501Y46722203D01*
X-15022501Y46722204D01*
X-15022500Y46722204D01*
X-15012000Y46824983D01*
X-15012000Y48175001D01*
X-15012001Y48175018D01*
X-15022500Y48277796D01*
X-15022501Y48277799D01*
X-15077685Y48444331D01*
X-15077687Y48444336D01*
X-15169789Y48593657D01*
X-15293844Y48717712D01*
X-15297547Y48719996D01*
X-15415597Y48792809D01*
X-15462321Y48844755D01*
X-15474500Y48898347D01*
X-15474500Y51694056D01*
X-15494670Y51769334D01*
X-15515423Y51846784D01*
X-15517223Y51849902D01*
X-15594475Y51983709D01*
X-15594481Y51983717D01*
X-15713349Y52102585D01*
X-15713355Y52102590D01*
X-17085795Y53475030D01*
X-17119280Y53536353D01*
X-17118320Y53593151D01*
X-17073866Y53768691D01*
X-17073864Y53768702D01*
X-17054700Y53999993D01*
X-17054700Y54000006D01*
X-17073864Y54231297D01*
X-17073868Y54231317D01*
X-17127996Y54445059D01*
X-17125372Y54514880D01*
X-17085416Y54572197D01*
X-17020815Y54598814D01*
X-17007791Y54599500D01*
X-2732418Y54599500D01*
X-2665379Y54579815D01*
G37*
%TD.AperFunction*%
%TA.AperFunction,Conductor*%
G36*
X-41795558Y39329815D02*
G01*
X-41774916Y39313181D01*
X-40401986Y37940251D01*
X-40368501Y37878928D01*
X-40366309Y37839971D01*
X-40375500Y37750009D01*
X-40375499Y37387415D01*
X-40375499Y37024998D01*
X-40375498Y37024980D01*
X-40368626Y36957709D01*
X-40364999Y36922203D01*
X-40309814Y36755666D01*
X-40217712Y36606344D01*
X-40093656Y36482288D01*
X-39944334Y36390186D01*
X-39777797Y36335001D01*
X-39777795Y36335000D01*
X-39675010Y36324500D01*
X-39675009Y36324500D01*
X-38324998Y36324500D01*
X-38324981Y36324501D01*
X-38222203Y36335000D01*
X-38222200Y36335001D01*
X-38055668Y36390185D01*
X-38055663Y36390187D01*
X-37906342Y36482289D01*
X-37782289Y36606342D01*
X-37741666Y36672203D01*
X-37707190Y36728097D01*
X-37655243Y36774821D01*
X-37601652Y36787000D01*
X-35313704Y36787000D01*
X-35246665Y36767315D01*
X-35200910Y36714511D01*
X-35190346Y36675600D01*
X-35189999Y36672203D01*
X-35134814Y36505666D01*
X-35094060Y36439593D01*
X-35075621Y36372204D01*
X-35096543Y36305540D01*
X-35150185Y36260770D01*
X-35199600Y36250499D01*
X-35547872Y36250499D01*
X-35607483Y36244091D01*
X-35607485Y36244090D01*
X-35607487Y36244090D01*
X-35615031Y36242308D01*
X-35615377Y36243775D01*
X-35676342Y36239408D01*
X-35691378Y36243822D01*
X-35692513Y36244089D01*
X-35692517Y36244091D01*
X-35752127Y36250500D01*
X-36847872Y36250499D01*
X-36907483Y36244091D01*
X-37042331Y36193796D01*
X-37157546Y36107546D01*
X-37243796Y35992331D01*
X-37294091Y35857483D01*
X-37300500Y35797873D01*
X-37300499Y34202128D01*
X-37298855Y34186836D01*
X-37294091Y34142516D01*
X-37243865Y34007853D01*
X-37243796Y34007669D01*
X-37162303Y33898808D01*
X-37137886Y33833347D01*
X-37152737Y33765073D01*
X-37202142Y33715668D01*
X-37261570Y33700499D01*
X-37287508Y33700499D01*
X-37390297Y33689999D01*
X-37556834Y33634814D01*
X-37706156Y33542712D01*
X-37758136Y33490732D01*
X-37799819Y33449049D01*
X-37861142Y33415564D01*
X-37930834Y33420548D01*
X-37975181Y33449049D01*
X-38068842Y33542710D01*
X-38068844Y33542712D01*
X-38218166Y33634814D01*
X-38384703Y33689999D01*
X-38487491Y33700500D01*
X-39099902Y33700499D01*
X-39166941Y33720183D01*
X-39187583Y33736818D01*
X-40815139Y35364374D01*
X-40815149Y35364385D01*
X-40858225Y35407461D01*
X-40931284Y35480520D01*
X-40931286Y35480521D01*
X-40931290Y35480524D01*
X-41020077Y35531785D01*
X-41020078Y35531785D01*
X-41068215Y35559577D01*
X-41220943Y35600501D01*
X-41379057Y35600501D01*
X-41386653Y35600501D01*
X-41386669Y35600500D01*
X-46820815Y35600500D01*
X-46887854Y35620185D01*
X-46933609Y35672989D01*
X-46939994Y35690750D01*
X-46940422Y35691784D01*
X-46954505Y35716177D01*
X-46973745Y35749500D01*
X-47019480Y35828716D01*
X-47131284Y35940520D01*
X-47138349Y35947585D01*
X-47138355Y35947590D01*
X-48125795Y36935030D01*
X-48159280Y36996353D01*
X-48158320Y37053151D01*
X-48113866Y37228691D01*
X-48113864Y37228702D01*
X-48094700Y37459993D01*
X-48094700Y37460006D01*
X-48113864Y37691297D01*
X-48113866Y37691308D01*
X-48141391Y37800000D01*
X-45797295Y37800000D01*
X-45797295Y37799998D01*
X-45797100Y37797513D01*
X-45751281Y37639801D01*
X-45667685Y37498447D01*
X-45667678Y37498438D01*
X-45551561Y37382321D01*
X-45551552Y37382314D01*
X-45410196Y37298717D01*
X-45410193Y37298716D01*
X-45252495Y37252900D01*
X-45252489Y37252899D01*
X-45215649Y37250000D01*
X-44812500Y37250000D01*
X-44812500Y37800000D01*
X-44312500Y37800000D01*
X-44312500Y37250000D01*
X-43909350Y37250000D01*
X-43872510Y37252899D01*
X-43872504Y37252900D01*
X-43714806Y37298716D01*
X-43714803Y37298717D01*
X-43573447Y37382314D01*
X-43573438Y37382321D01*
X-43457321Y37498438D01*
X-43457314Y37498447D01*
X-43373718Y37639801D01*
X-43327899Y37797513D01*
X-43327704Y37799998D01*
X-43327705Y37800000D01*
X-44312500Y37800000D01*
X-44812500Y37800000D01*
X-45797295Y37800000D01*
X-48141391Y37800000D01*
X-48170842Y37916300D01*
X-48264074Y38128845D01*
X-48264076Y38128848D01*
X-48264076Y38128849D01*
X-48315578Y38207679D01*
X-48335765Y38274568D01*
X-48316585Y38341754D01*
X-48264127Y38387904D01*
X-48211769Y38399500D01*
X-47545808Y38399500D01*
X-47478769Y38379815D01*
X-47458126Y38363180D01*
X-47426870Y38331923D01*
X-47426862Y38331917D01*
X-47360569Y38292712D01*
X-47291298Y38251745D01*
X-47285396Y38248255D01*
X-47285393Y38248254D01*
X-47127573Y38202402D01*
X-47127567Y38202401D01*
X-47090701Y38199500D01*
X-47090694Y38199500D01*
X-45784298Y38199500D01*
X-45747432Y38202401D01*
X-45747426Y38202402D01*
X-45589606Y38248254D01*
X-45589603Y38248255D01*
X-45531306Y38282732D01*
X-45468185Y38300000D01*
X-44812500Y38300000D01*
X-44812500Y38850000D01*
X-44312500Y38850000D01*
X-44312500Y38300000D01*
X-43327705Y38300000D01*
X-43327704Y38300001D01*
X-43327899Y38302486D01*
X-43373718Y38460198D01*
X-43457314Y38601552D01*
X-43457321Y38601561D01*
X-43573438Y38717678D01*
X-43573447Y38717685D01*
X-43714803Y38801282D01*
X-43714806Y38801283D01*
X-43872504Y38847099D01*
X-43872510Y38847100D01*
X-43909350Y38849999D01*
X-43909366Y38850000D01*
X-44312500Y38850000D01*
X-44812500Y38850000D01*
X-45075500Y38850000D01*
X-45142539Y38869685D01*
X-45188294Y38922489D01*
X-45199500Y38974000D01*
X-45199500Y39025500D01*
X-45179815Y39092539D01*
X-45127011Y39138294D01*
X-45075500Y39149500D01*
X-43909298Y39149500D01*
X-43872432Y39152401D01*
X-43872426Y39152402D01*
X-43714606Y39198254D01*
X-43714603Y39198255D01*
X-43573137Y39281917D01*
X-43573129Y39281923D01*
X-43541874Y39313180D01*
X-43480552Y39346666D01*
X-43454192Y39349500D01*
X-41862597Y39349500D01*
X-41795558Y39329815D01*
G37*
%TD.AperFunction*%
%TA.AperFunction,Conductor*%
G36*
X-31473058Y44879815D02*
G01*
X-31452416Y44863181D01*
X-29639204Y43049969D01*
X-29605719Y42988646D01*
X-29606679Y42931848D01*
X-29651134Y42756305D01*
X-29651134Y42756299D01*
X-29651135Y42756297D01*
X-29670300Y42525006D01*
X-29670300Y42524993D01*
X-29651135Y42293702D01*
X-29651133Y42293691D01*
X-29594157Y42068699D01*
X-29500924Y41856151D01*
X-29373983Y41661852D01*
X-29373980Y41661849D01*
X-29373979Y41661847D01*
X-29216784Y41491087D01*
X-29216781Y41491085D01*
X-29216780Y41491084D01*
X-29216777Y41491081D01*
X-29033634Y41348535D01*
X-29033628Y41348531D01*
X-28829504Y41238064D01*
X-28829495Y41238061D01*
X-28609984Y41162702D01*
X-28438282Y41134050D01*
X-28381049Y41124500D01*
X-28381048Y41124500D01*
X-28148952Y41124500D01*
X-28148951Y41124500D01*
X-28103164Y41132140D01*
X-27920015Y41162702D01*
X-27700504Y41238061D01*
X-27700495Y41238064D01*
X-27496371Y41348531D01*
X-27496365Y41348535D01*
X-27313222Y41491081D01*
X-27313218Y41491085D01*
X-27304866Y41500158D01*
X-27244979Y41536148D01*
X-27175141Y41534047D01*
X-27117525Y41494522D01*
X-27097455Y41459507D01*
X-27068797Y41382671D01*
X-27068793Y41382664D01*
X-26982547Y41267455D01*
X-26982544Y41267452D01*
X-26867335Y41181206D01*
X-26867328Y41181202D01*
X-26732482Y41130908D01*
X-26732483Y41130908D01*
X-26672883Y41124501D01*
X-26672881Y41124500D01*
X-26672873Y41124500D01*
X-26474500Y41124500D01*
X-26407461Y41104815D01*
X-26361706Y41052011D01*
X-26350500Y41000500D01*
X-26350500Y39883308D01*
X-26370185Y39816269D01*
X-26386820Y39795626D01*
X-26418081Y39764365D01*
X-26501744Y39622898D01*
X-26547598Y39465069D01*
X-26550500Y39428194D01*
X-26550500Y38121806D01*
X-26547937Y38089244D01*
X-26547598Y38084932D01*
X-26547597Y38084926D01*
X-26523154Y38000794D01*
X-26501744Y37927102D01*
X-26493421Y37913029D01*
X-26467267Y37868804D01*
X-26450000Y37805684D01*
X-26450000Y37150000D01*
X-25900000Y37150000D01*
X-25900000Y37413000D01*
X-25880315Y37480039D01*
X-25827511Y37525794D01*
X-25776000Y37537000D01*
X-25724500Y37537000D01*
X-25657461Y37517315D01*
X-25611706Y37464511D01*
X-25600500Y37413000D01*
X-25600500Y36246806D01*
X-25599357Y36232288D01*
X-25597598Y36209932D01*
X-25597597Y36209926D01*
X-25576409Y36136999D01*
X-25551744Y36052102D01*
X-25468081Y35910635D01*
X-25468079Y35910633D01*
X-25468076Y35910629D01*
X-25351870Y35794423D01*
X-25351862Y35794417D01*
X-25275911Y35749500D01*
X-25211178Y35711217D01*
X-25210396Y35710755D01*
X-25210393Y35710754D01*
X-25052573Y35664902D01*
X-25052567Y35664901D01*
X-25015701Y35662000D01*
X-25015694Y35662000D01*
X-24584298Y35662000D01*
X-24547436Y35664901D01*
X-24547421Y35664904D01*
X-24514561Y35674450D01*
X-24444692Y35674249D01*
X-24392289Y35643054D01*
X-23142982Y34393747D01*
X-23109497Y34332424D01*
X-23114481Y34262732D01*
X-23142980Y34218387D01*
X-23162323Y34199044D01*
X-23223645Y34165563D01*
X-23293337Y34170549D01*
X-23337681Y34199049D01*
X-23431342Y34292710D01*
X-23431344Y34292712D01*
X-23580666Y34384814D01*
X-23747203Y34439999D01*
X-23849991Y34450500D01*
X-24475008Y34450499D01*
X-24475016Y34450498D01*
X-24475019Y34450498D01*
X-24531302Y34444748D01*
X-24577797Y34439999D01*
X-24744334Y34384814D01*
X-24893656Y34292712D01*
X-25017712Y34168656D01*
X-25109814Y34019334D01*
X-25135920Y33940552D01*
X-25137595Y33935496D01*
X-25177368Y33878051D01*
X-25241884Y33851228D01*
X-25255301Y33850500D01*
X-26225501Y33850500D01*
X-26292540Y33870185D01*
X-26338295Y33922989D01*
X-26349501Y33974500D01*
X-26349501Y34047876D01*
X-26355908Y34107483D01*
X-26406202Y34242328D01*
X-26406206Y34242335D01*
X-26492452Y34357544D01*
X-26492455Y34357547D01*
X-26607664Y34443793D01*
X-26607671Y34443797D01*
X-26742517Y34494091D01*
X-26742516Y34494091D01*
X-26748925Y34494779D01*
X-26802127Y34500500D01*
X-27897872Y34500499D01*
X-27957483Y34494091D01*
X-27957485Y34494090D01*
X-27957487Y34494090D01*
X-27965031Y34492308D01*
X-27965377Y34493775D01*
X-28026342Y34489408D01*
X-28041378Y34493822D01*
X-28042513Y34494089D01*
X-28042517Y34494091D01*
X-28102127Y34500500D01*
X-29197872Y34500499D01*
X-29251407Y34494744D01*
X-29262247Y34493579D01*
X-29331006Y34505986D01*
X-29382143Y34553597D01*
X-29399500Y34616869D01*
X-29399500Y36650000D01*
X-27500000Y36650000D01*
X-27500000Y36246865D01*
X-27499999Y36246850D01*
X-27497100Y36210010D01*
X-27497099Y36210004D01*
X-27451283Y36052306D01*
X-27451282Y36052303D01*
X-27367685Y35910947D01*
X-27367678Y35910938D01*
X-27251561Y35794821D01*
X-27251552Y35794814D01*
X-27110196Y35711217D01*
X-27110193Y35711216D01*
X-26952494Y35665400D01*
X-26952497Y35665400D01*
X-26950000Y35665203D01*
X-26950000Y36650000D01*
X-26450000Y36650000D01*
X-26450000Y35665203D01*
X-26447503Y35665400D01*
X-26289806Y35711216D01*
X-26289803Y35711217D01*
X-26148447Y35794814D01*
X-26148438Y35794821D01*
X-26032321Y35910938D01*
X-26032314Y35910947D01*
X-25948717Y36052303D01*
X-25948716Y36052306D01*
X-25902900Y36210004D01*
X-25902899Y36210010D01*
X-25900000Y36246850D01*
X-25900000Y36650000D01*
X-26450000Y36650000D01*
X-26950000Y36650000D01*
X-27500000Y36650000D01*
X-29399500Y36650000D01*
X-29399500Y37150000D01*
X-27500000Y37150000D01*
X-26950000Y37150000D01*
X-26950000Y38134795D01*
X-26950001Y38134795D01*
X-26952486Y38134600D01*
X-27110198Y38088781D01*
X-27251552Y38005185D01*
X-27251561Y38005178D01*
X-27367678Y37889061D01*
X-27367685Y37889052D01*
X-27451282Y37747696D01*
X-27451283Y37747693D01*
X-27497099Y37589995D01*
X-27497100Y37589989D01*
X-27499999Y37553149D01*
X-27500000Y37553134D01*
X-27500000Y37150000D01*
X-29399500Y37150000D01*
X-29399500Y40963330D01*
X-29399499Y40963348D01*
X-29399499Y41129054D01*
X-29399498Y41129054D01*
X-29408514Y41162702D01*
X-29440423Y41281785D01*
X-29476225Y41343796D01*
X-29519480Y41418716D01*
X-29631284Y41530520D01*
X-29638349Y41537585D01*
X-29638355Y41537590D01*
X-30213181Y42112416D01*
X-30246666Y42173739D01*
X-30249500Y42200097D01*
X-30249500Y42547869D01*
X-30249501Y42547876D01*
X-30255908Y42607483D01*
X-30306202Y42742328D01*
X-30306206Y42742335D01*
X-30392452Y42857544D01*
X-30392455Y42857547D01*
X-30507664Y42943793D01*
X-30507671Y42943797D01*
X-30642517Y42994091D01*
X-30642516Y42994091D01*
X-30649493Y42994841D01*
X-30702127Y43000500D01*
X-32297872Y43000499D01*
X-32357483Y42994091D01*
X-32492331Y42943796D01*
X-32607546Y42857546D01*
X-32693796Y42742331D01*
X-32693797Y42742328D01*
X-32716609Y42681167D01*
X-32758480Y42625233D01*
X-32823944Y42600816D01*
X-32832791Y42600500D01*
X-35167209Y42600500D01*
X-35234248Y42620185D01*
X-35280003Y42672989D01*
X-35283391Y42681167D01*
X-35306202Y42742328D01*
X-35306206Y42742335D01*
X-35392452Y42857544D01*
X-35392455Y42857547D01*
X-35507664Y42943793D01*
X-35507671Y42943797D01*
X-35642517Y42994091D01*
X-35642516Y42994091D01*
X-35649493Y42994841D01*
X-35702127Y43000500D01*
X-37297872Y43000499D01*
X-37357483Y42994091D01*
X-37492331Y42943796D01*
X-37607546Y42857546D01*
X-37693796Y42742331D01*
X-37744091Y42607483D01*
X-37750500Y42547873D01*
X-37750499Y41999501D01*
X-37750499Y41452129D01*
X-37750498Y41452120D01*
X-37748954Y41437752D01*
X-37761361Y41368993D01*
X-37808973Y41317857D01*
X-37872244Y41300500D01*
X-38008202Y41300500D01*
X-38048204Y41309368D01*
X-38048810Y41307542D01*
X-38055665Y41309813D01*
X-38055666Y41309814D01*
X-38222203Y41364999D01*
X-38324991Y41375500D01*
X-39675008Y41375499D01*
X-39777797Y41364999D01*
X-39944334Y41309814D01*
X-40093656Y41217712D01*
X-40217712Y41093656D01*
X-40309814Y40944334D01*
X-40364999Y40777797D01*
X-40375500Y40675009D01*
X-40375499Y39949992D01*
X-40374486Y39940073D01*
X-40372491Y39920549D01*
X-40385260Y39851856D01*
X-40433140Y39800971D01*
X-40500930Y39784050D01*
X-40567107Y39806465D01*
X-40583530Y39820265D01*
X-41077639Y40314374D01*
X-41077649Y40314385D01*
X-41193785Y40430521D01*
X-41228369Y40450487D01*
X-41297540Y40490423D01*
X-41330715Y40509577D01*
X-41483443Y40550501D01*
X-41641557Y40550501D01*
X-41649153Y40550501D01*
X-41649169Y40550500D01*
X-43454192Y40550500D01*
X-43521231Y40570185D01*
X-43541874Y40586820D01*
X-43573129Y40618076D01*
X-43573133Y40618079D01*
X-43573135Y40618081D01*
X-43714602Y40701744D01*
X-43756224Y40713836D01*
X-43872426Y40747597D01*
X-43872429Y40747597D01*
X-43872431Y40747598D01*
X-43909306Y40750500D01*
X-45215694Y40750500D01*
X-45252569Y40747598D01*
X-45252571Y40747597D01*
X-45252573Y40747597D01*
X-45286073Y40737864D01*
X-45410398Y40701744D01*
X-45551865Y40618081D01*
X-45668081Y40501865D01*
X-45751744Y40360398D01*
X-45783818Y40250000D01*
X-45790413Y40227298D01*
X-45797598Y40202569D01*
X-45800500Y40165694D01*
X-45800500Y40165686D01*
X-45800500Y39924500D01*
X-45820185Y39857461D01*
X-45872989Y39811706D01*
X-45924500Y39800500D01*
X-47090694Y39800500D01*
X-47127569Y39797598D01*
X-47127571Y39797597D01*
X-47127573Y39797597D01*
X-47134357Y39795626D01*
X-47285398Y39751744D01*
X-47426865Y39668081D01*
X-47426870Y39668076D01*
X-47458126Y39636820D01*
X-47519448Y39603334D01*
X-47545808Y39600500D01*
X-47975500Y39600500D01*
X-48042539Y39620185D01*
X-48088294Y39672989D01*
X-48099500Y39724500D01*
X-48099500Y40947870D01*
X-48099501Y40947876D01*
X-48105908Y41007483D01*
X-48156202Y41142328D01*
X-48156206Y41142335D01*
X-48242452Y41257544D01*
X-48242455Y41257547D01*
X-48357664Y41343793D01*
X-48357671Y41343797D01*
X-48492517Y41394091D01*
X-48492516Y41394091D01*
X-48498925Y41394779D01*
X-48552127Y41400500D01*
X-49635646Y41400499D01*
X-49702685Y41420184D01*
X-49748440Y41472987D01*
X-49758384Y41542146D01*
X-49729359Y41605702D01*
X-49723327Y41612180D01*
X-48722328Y42613181D01*
X-48661005Y42646666D01*
X-48634647Y42649500D01*
X-42374499Y42649500D01*
X-42307460Y42629815D01*
X-42261705Y42577011D01*
X-42250499Y42525500D01*
X-42250499Y42452128D01*
X-42245697Y42407461D01*
X-42244091Y42392516D01*
X-42193797Y42257671D01*
X-42193793Y42257664D01*
X-42107547Y42142455D01*
X-42107544Y42142452D01*
X-41992335Y42056206D01*
X-41992328Y42056202D01*
X-41857482Y42005908D01*
X-41857483Y42005908D01*
X-41797883Y41999501D01*
X-41797881Y41999500D01*
X-41797873Y41999500D01*
X-41797864Y41999500D01*
X-40702129Y41999500D01*
X-40702123Y41999501D01*
X-40642520Y42005908D01*
X-40634974Y42007692D01*
X-40634628Y42006230D01*
X-40573622Y42010584D01*
X-40558600Y42006172D01*
X-40557482Y42005908D01*
X-40497883Y41999501D01*
X-40497881Y41999500D01*
X-40497873Y41999500D01*
X-40497864Y41999500D01*
X-39402129Y41999500D01*
X-39402123Y41999501D01*
X-39342516Y42005908D01*
X-39207671Y42056202D01*
X-39207664Y42056206D01*
X-39092455Y42142452D01*
X-39092452Y42142455D01*
X-39006206Y42257664D01*
X-39006202Y42257671D01*
X-38955908Y42392517D01*
X-38949501Y42452116D01*
X-38949500Y42452119D01*
X-38949500Y42452127D01*
X-38949500Y43349902D01*
X-38929815Y43416941D01*
X-38913181Y43437583D01*
X-38087582Y44263181D01*
X-38026259Y44296666D01*
X-37999901Y44299500D01*
X-37449998Y44299500D01*
X-37449980Y44299501D01*
X-37347203Y44310000D01*
X-37347200Y44310001D01*
X-37180668Y44365185D01*
X-37180663Y44365187D01*
X-37031342Y44457289D01*
X-36937681Y44550951D01*
X-36876358Y44584436D01*
X-36806666Y44579452D01*
X-36762319Y44550951D01*
X-36668656Y44457288D01*
X-36519334Y44365186D01*
X-36352797Y44310001D01*
X-36352795Y44310000D01*
X-36250010Y44299500D01*
X-36250009Y44299500D01*
X-35624998Y44299500D01*
X-35624980Y44299501D01*
X-35522203Y44310000D01*
X-35522200Y44310001D01*
X-35355668Y44365185D01*
X-35355663Y44365187D01*
X-35206342Y44457289D01*
X-35082289Y44581342D01*
X-34990187Y44730663D01*
X-34990185Y44730668D01*
X-34962405Y44814504D01*
X-34922632Y44871949D01*
X-34858116Y44898772D01*
X-34844699Y44899500D01*
X-31540097Y44899500D01*
X-31473058Y44879815D01*
G37*
%TD.AperFunction*%
%TA.AperFunction,Conductor*%
G36*
X-50981165Y40251829D02*
G01*
X-50925232Y40209957D01*
X-50900815Y40144493D01*
X-50900499Y40135647D01*
X-50900499Y39052128D01*
X-50895746Y39007913D01*
X-50894091Y38992516D01*
X-50843797Y38857671D01*
X-50843793Y38857664D01*
X-50757547Y38742455D01*
X-50757544Y38742452D01*
X-50642335Y38656206D01*
X-50642328Y38656202D01*
X-50562094Y38626277D01*
X-50506160Y38584406D01*
X-50481743Y38518941D01*
X-50496595Y38450668D01*
X-50514190Y38426121D01*
X-50608979Y38323153D01*
X-50735924Y38128849D01*
X-50829157Y37916300D01*
X-50871802Y37747898D01*
X-50886133Y37691308D01*
X-50886135Y37691297D01*
X-50905300Y37460006D01*
X-50905300Y37459993D01*
X-50886135Y37228702D01*
X-50886133Y37228691D01*
X-50829157Y37003699D01*
X-50735924Y36791151D01*
X-50608983Y36596852D01*
X-50608980Y36596849D01*
X-50608979Y36596847D01*
X-50451784Y36426087D01*
X-50451780Y36426084D01*
X-50451777Y36426081D01*
X-50268634Y36283535D01*
X-50268628Y36283531D01*
X-50064504Y36173064D01*
X-50064495Y36173061D01*
X-49844984Y36097702D01*
X-49689675Y36071786D01*
X-49616049Y36059500D01*
X-49616048Y36059500D01*
X-49383952Y36059500D01*
X-49383951Y36059500D01*
X-49345795Y36065867D01*
X-49155014Y36097702D01*
X-49103098Y36115524D01*
X-49033300Y36118672D01*
X-48975158Y36085923D01*
X-48136819Y35247584D01*
X-48103334Y35186261D01*
X-48100500Y35159903D01*
X-48100500Y34920943D01*
X-48059577Y34768216D01*
X-48059573Y34768209D01*
X-47980524Y34631290D01*
X-47980518Y34631282D01*
X-47868717Y34519481D01*
X-47868709Y34519475D01*
X-47731790Y34440426D01*
X-47731786Y34440424D01*
X-47731784Y34440423D01*
X-47579057Y34399500D01*
X-47420943Y34399500D01*
X-46998068Y34399500D01*
X-46931029Y34379815D01*
X-46885274Y34327011D01*
X-46875330Y34257853D01*
X-46904355Y34194297D01*
X-46913645Y34185415D01*
X-46913549Y34185319D01*
X-47047819Y34051049D01*
X-47049705Y34052935D01*
X-47096625Y34019712D01*
X-47136868Y34013000D01*
X-49807492Y34013000D01*
X-49874531Y34032685D01*
X-49913031Y34071903D01*
X-49913070Y34071966D01*
X-49957288Y34143656D01*
X-50081344Y34267712D01*
X-50230666Y34359814D01*
X-50397203Y34414999D01*
X-50499991Y34425500D01*
X-51500008Y34425499D01*
X-51510576Y34424419D01*
X-51579268Y34437187D01*
X-51610861Y34460096D01*
X-51977639Y34826874D01*
X-51977649Y34826885D01*
X-51996893Y34846129D01*
X-52093784Y34943020D01*
X-52093786Y34943021D01*
X-52093790Y34943024D01*
X-52187413Y34997077D01*
X-52187415Y34997078D01*
X-52230709Y35022074D01*
X-52230710Y35022075D01*
X-52230712Y35022075D01*
X-52230715Y35022077D01*
X-52383443Y35063001D01*
X-52541557Y35063001D01*
X-52549153Y35063001D01*
X-52549169Y35063000D01*
X-54601652Y35063000D01*
X-54668691Y35082685D01*
X-54707191Y35121903D01*
X-54762310Y35211265D01*
X-54782288Y35243656D01*
X-54906344Y35367712D01*
X-55055666Y35459814D01*
X-55222203Y35514999D01*
X-55324991Y35525500D01*
X-55510647Y35525499D01*
X-55577685Y35545183D01*
X-55623440Y35597987D01*
X-55633384Y35667145D01*
X-55604359Y35730701D01*
X-55598327Y35737180D01*
X-51112180Y40223328D01*
X-51050857Y40256813D01*
X-50981165Y40251829D01*
G37*
%TD.AperFunction*%
%TA.AperFunction,Conductor*%
G36*
X-39632059Y55379815D02*
G01*
X-39586304Y55327011D01*
X-39576360Y55257853D01*
X-39605385Y55194297D01*
X-39611417Y55187819D01*
X-41608506Y53190727D01*
X-41608511Y53190724D01*
X-41618714Y53180520D01*
X-41618716Y53180520D01*
X-41730520Y53068716D01*
X-41736554Y53058264D01*
X-41787120Y53010047D01*
X-41830690Y52996971D01*
X-41857483Y52994091D01*
X-41992331Y52943796D01*
X-42107546Y52857546D01*
X-42193796Y52742331D01*
X-42244091Y52607483D01*
X-42250500Y52547873D01*
X-42250499Y50952128D01*
X-42245299Y50903757D01*
X-42244091Y50892516D01*
X-42193797Y50757671D01*
X-42193793Y50757664D01*
X-42107547Y50642455D01*
X-42107544Y50642452D01*
X-41992335Y50556206D01*
X-41992328Y50556202D01*
X-41931167Y50533391D01*
X-41875233Y50491520D01*
X-41850816Y50426056D01*
X-41850500Y50417209D01*
X-41850500Y48832790D01*
X-41870185Y48765751D01*
X-41922989Y48719996D01*
X-41931146Y48716616D01*
X-41992331Y48693796D01*
X-42107546Y48607546D01*
X-42193796Y48492331D01*
X-42244091Y48357483D01*
X-42250500Y48297873D01*
X-42250499Y46702128D01*
X-42249195Y46689999D01*
X-42244091Y46642516D01*
X-42193797Y46507671D01*
X-42193793Y46507664D01*
X-42107547Y46392455D01*
X-42107544Y46392452D01*
X-41992335Y46306206D01*
X-41992328Y46306202D01*
X-41931167Y46283391D01*
X-41875233Y46241520D01*
X-41850816Y46176056D01*
X-41850500Y46167209D01*
X-41850500Y44582790D01*
X-41870185Y44515751D01*
X-41922989Y44469996D01*
X-41931146Y44466616D01*
X-41992331Y44443796D01*
X-42107546Y44357546D01*
X-42193796Y44242331D01*
X-42244091Y44107483D01*
X-42250500Y44047873D01*
X-42250500Y44047864D01*
X-42250500Y43974500D01*
X-42270185Y43907461D01*
X-42322989Y43861706D01*
X-42374500Y43850500D01*
X-48848075Y43850500D01*
X-48848091Y43850501D01*
X-48855687Y43850501D01*
X-49013801Y43850501D01*
X-49166529Y43809577D01*
X-49216648Y43780639D01*
X-49303460Y43730520D01*
X-49415264Y43618716D01*
X-49415264Y43618714D01*
X-49425472Y43608507D01*
X-49425474Y43608504D01*
X-54026065Y39007913D01*
X-58597160Y34436818D01*
X-58658483Y34403333D01*
X-58684841Y34400499D01*
X-60447872Y34400499D01*
X-60489450Y34396029D01*
X-60558208Y34408435D01*
X-60609345Y34456045D01*
X-60626624Y34523745D01*
X-60604559Y34590039D01*
X-60592399Y34604938D01*
X-40779682Y55361119D01*
X-40719154Y55396021D01*
X-40689986Y55399500D01*
X-39699098Y55399500D01*
X-39632059Y55379815D01*
G37*
%TD.AperFunction*%
%TA.AperFunction,Conductor*%
G36*
X-22457461Y54129815D02*
G01*
X-22411706Y54077011D01*
X-22400500Y54025500D01*
X-22400499Y53536353D01*
X-22400499Y53052128D01*
X-22395975Y53010047D01*
X-22394091Y52992516D01*
X-22343797Y52857671D01*
X-22343793Y52857664D01*
X-22257547Y52742455D01*
X-22257544Y52742452D01*
X-22142335Y52656206D01*
X-22142328Y52656202D01*
X-22007482Y52605908D01*
X-22007483Y52605908D01*
X-21947883Y52599501D01*
X-21947881Y52599500D01*
X-21947873Y52599500D01*
X-21947864Y52599500D01*
X-20052129Y52599500D01*
X-20052123Y52599501D01*
X-19992516Y52605908D01*
X-19857671Y52656202D01*
X-19857664Y52656206D01*
X-19742455Y52742452D01*
X-19742452Y52742455D01*
X-19656206Y52857664D01*
X-19656203Y52857670D01*
X-19627544Y52934508D01*
X-19585672Y52990441D01*
X-19520208Y53014858D01*
X-19451935Y53000006D01*
X-19420135Y52975158D01*
X-19411784Y52966087D01*
X-19411778Y52966082D01*
X-19411777Y52966081D01*
X-19228634Y52823535D01*
X-19228628Y52823531D01*
X-19024504Y52713064D01*
X-19024495Y52713061D01*
X-18804984Y52637702D01*
X-18645450Y52611081D01*
X-18576049Y52599500D01*
X-18576048Y52599500D01*
X-18343952Y52599500D01*
X-18343951Y52599500D01*
X-18305544Y52605909D01*
X-18115014Y52637702D01*
X-18063098Y52655524D01*
X-17993300Y52658672D01*
X-17935158Y52625923D01*
X-16711819Y51402584D01*
X-16678334Y51341261D01*
X-16675500Y51314903D01*
X-16675500Y48898347D01*
X-16695185Y48831308D01*
X-16734401Y48792810D01*
X-16856156Y48717712D01*
X-16980212Y48593656D01*
X-17072314Y48444334D01*
X-17127499Y48277797D01*
X-17138000Y48175009D01*
X-17137999Y46824992D01*
X-17127499Y46722203D01*
X-17072314Y46555666D01*
X-16980212Y46406344D01*
X-16856156Y46282288D01*
X-16734402Y46207190D01*
X-16687679Y46155243D01*
X-16675500Y46101652D01*
X-16675500Y43950217D01*
X-16695185Y43883178D01*
X-16734405Y43844678D01*
X-16794415Y43807664D01*
X-16818656Y43792712D01*
X-16872761Y43738607D01*
X-16912319Y43699049D01*
X-16973642Y43665564D01*
X-17043334Y43670548D01*
X-17087681Y43699049D01*
X-17181342Y43792710D01*
X-17181344Y43792712D01*
X-17330666Y43884814D01*
X-17497203Y43939999D01*
X-17599991Y43950500D01*
X-18225008Y43950499D01*
X-18225016Y43950498D01*
X-18225019Y43950498D01*
X-18281302Y43944748D01*
X-18327797Y43939999D01*
X-18494334Y43884814D01*
X-18643656Y43792712D01*
X-18767712Y43668656D01*
X-18838634Y43553671D01*
X-18890580Y43506948D01*
X-18959543Y43495725D01*
X-19023625Y43523568D01*
X-19031853Y43531088D01*
X-20063181Y44562416D01*
X-20096666Y44623739D01*
X-20099500Y44650097D01*
X-20099500Y45547870D01*
X-20099501Y45547876D01*
X-20105908Y45607483D01*
X-20156202Y45742328D01*
X-20156206Y45742335D01*
X-20242452Y45857544D01*
X-20242455Y45857547D01*
X-20357664Y45943793D01*
X-20357671Y45943797D01*
X-20492517Y45994091D01*
X-20492516Y45994091D01*
X-20498925Y45994779D01*
X-20552127Y46000500D01*
X-21647872Y46000499D01*
X-21707483Y45994091D01*
X-21707489Y45994088D01*
X-21715025Y45992308D01*
X-21715321Y45993561D01*
X-21777063Y45989142D01*
X-21790655Y45993132D01*
X-21792627Y45993598D01*
X-21852155Y45999999D01*
X-21852172Y46000000D01*
X-22150000Y46000000D01*
X-22150000Y43500000D01*
X-21852155Y43500000D01*
X-21792624Y43506401D01*
X-21785073Y43508186D01*
X-21784684Y43506542D01*
X-21724348Y43510853D01*
X-21707614Y43505939D01*
X-21707483Y43505908D01*
X-21647883Y43499501D01*
X-21647881Y43499500D01*
X-21647873Y43499500D01*
X-20750097Y43499500D01*
X-20683058Y43479815D01*
X-20662416Y43463181D01*
X-19587590Y42388355D01*
X-19587588Y42388352D01*
X-19580520Y42381284D01*
X-19468716Y42269480D01*
X-19381904Y42219360D01*
X-19381904Y42219359D01*
X-19381902Y42219359D01*
X-19331785Y42190423D01*
X-19331782Y42190422D01*
X-19278043Y42176023D01*
X-19179057Y42149500D01*
X-19020943Y42149500D01*
X-19005301Y42149500D01*
X-18938262Y42129815D01*
X-18892507Y42077011D01*
X-18887596Y42064507D01*
X-18859814Y41980666D01*
X-18767712Y41831344D01*
X-18643656Y41707288D01*
X-18494334Y41615186D01*
X-18327797Y41560001D01*
X-18327795Y41560000D01*
X-18225010Y41549500D01*
X-18225009Y41549500D01*
X-17599998Y41549500D01*
X-17599980Y41549501D01*
X-17497203Y41560000D01*
X-17497200Y41560001D01*
X-17330668Y41615185D01*
X-17330663Y41615187D01*
X-17181342Y41707289D01*
X-17087681Y41800951D01*
X-17026358Y41834436D01*
X-16956666Y41829452D01*
X-16912319Y41800951D01*
X-16818655Y41707287D01*
X-16746902Y41663029D01*
X-16700178Y41611081D01*
X-16688000Y41557491D01*
X-16688000Y40192507D01*
X-16707685Y40125468D01*
X-16746903Y40086968D01*
X-16818656Y40042712D01*
X-16866888Y39994480D01*
X-16912319Y39949049D01*
X-16973642Y39915564D01*
X-17043334Y39920548D01*
X-17087681Y39949049D01*
X-17181342Y40042710D01*
X-17181344Y40042712D01*
X-17330666Y40134814D01*
X-17497203Y40189999D01*
X-17599991Y40200500D01*
X-18212402Y40200499D01*
X-18279441Y40220183D01*
X-18300083Y40236818D01*
X-18427639Y40364374D01*
X-18427649Y40364385D01*
X-18459209Y40395945D01*
X-18543784Y40480520D01*
X-18654229Y40544285D01*
X-18654230Y40544286D01*
X-18663263Y40549501D01*
X-18680715Y40559577D01*
X-18833443Y40600501D01*
X-18991557Y40600501D01*
X-18999153Y40600501D01*
X-18999169Y40600500D01*
X-19975501Y40600500D01*
X-20042540Y40620185D01*
X-20088295Y40672989D01*
X-20099501Y40724500D01*
X-20099501Y40797876D01*
X-20105908Y40857483D01*
X-20156202Y40992328D01*
X-20156206Y40992335D01*
X-20242452Y41107544D01*
X-20242455Y41107547D01*
X-20357664Y41193793D01*
X-20357671Y41193797D01*
X-20492517Y41244091D01*
X-20492516Y41244091D01*
X-20498925Y41244779D01*
X-20552127Y41250500D01*
X-21647872Y41250499D01*
X-21707483Y41244091D01*
X-21707489Y41244088D01*
X-21715025Y41242308D01*
X-21715321Y41243561D01*
X-21777063Y41239142D01*
X-21790655Y41243132D01*
X-21792627Y41243598D01*
X-21852155Y41249999D01*
X-21852172Y41250000D01*
X-22150000Y41250000D01*
X-22150000Y38750000D01*
X-21852155Y38750000D01*
X-21792624Y38756401D01*
X-21785073Y38758186D01*
X-21784684Y38756542D01*
X-21724348Y38760853D01*
X-21707614Y38755939D01*
X-21707483Y38755908D01*
X-21647883Y38749501D01*
X-21647881Y38749500D01*
X-21647873Y38749500D01*
X-21647864Y38749500D01*
X-20552129Y38749500D01*
X-20552123Y38749501D01*
X-20492516Y38755908D01*
X-20357671Y38806202D01*
X-20357664Y38806206D01*
X-20242455Y38892452D01*
X-20242452Y38892455D01*
X-20156206Y39007664D01*
X-20156202Y39007671D01*
X-20105908Y39142517D01*
X-20099501Y39202116D01*
X-20099500Y39202135D01*
X-20099500Y39275500D01*
X-20079815Y39342539D01*
X-20027011Y39388294D01*
X-19975500Y39399500D01*
X-19212597Y39399500D01*
X-19145558Y39379815D01*
X-19124916Y39363181D01*
X-18961818Y39200083D01*
X-18928333Y39138760D01*
X-18925499Y39112402D01*
X-18925499Y38499992D01*
X-18914999Y38397203D01*
X-18859814Y38230666D01*
X-18767712Y38081344D01*
X-18643656Y37957288D01*
X-18594723Y37927106D01*
X-18516614Y37878928D01*
X-18494334Y37865186D01*
X-18327797Y37810001D01*
X-18327795Y37810000D01*
X-18225010Y37799500D01*
X-18225009Y37799500D01*
X-17599998Y37799500D01*
X-17599980Y37799501D01*
X-17497203Y37810000D01*
X-17497200Y37810001D01*
X-17330668Y37865185D01*
X-17330663Y37865187D01*
X-17181342Y37957289D01*
X-17087681Y38050951D01*
X-17026358Y38084436D01*
X-16956666Y38079452D01*
X-16912319Y38050951D01*
X-16818656Y37957288D01*
X-16750060Y37914978D01*
X-16703336Y37863030D01*
X-16692113Y37794067D01*
X-16719957Y37729985D01*
X-16727465Y37721769D01*
X-18758710Y35690524D01*
X-18820031Y35657041D01*
X-18889723Y35662025D01*
X-18945656Y35703897D01*
X-18970073Y35769361D01*
X-18967280Y35805799D01*
X-18914197Y36038374D01*
X-18914196Y36038379D01*
X-18894592Y36299995D01*
X-18894592Y36300004D01*
X-18914196Y36561620D01*
X-18914197Y36561625D01*
X-18972576Y36817402D01*
X-18972582Y36817421D01*
X-19068432Y37061643D01*
X-19105011Y37125000D01*
X-19199614Y37288857D01*
X-19348135Y37475096D01*
X-19363198Y37493985D01*
X-19555520Y37672432D01*
X-19558170Y37674239D01*
X-19772296Y37820228D01*
X-19772302Y37820231D01*
X-19772303Y37820232D01*
X-19915229Y37889061D01*
X-20008673Y37934061D01*
X-20008674Y37934061D01*
X-20008677Y37934063D01*
X-20259385Y38011396D01*
X-20518818Y38050500D01*
X-20781182Y38050500D01*
X-21040615Y38011396D01*
X-21291323Y37934063D01*
X-21527704Y37820228D01*
X-21744479Y37672433D01*
X-21846781Y37577511D01*
X-21932001Y37498438D01*
X-21936805Y37493981D01*
X-22100386Y37288857D01*
X-22231568Y37061643D01*
X-22327420Y36817416D01*
X-22385802Y36561630D01*
X-22385802Y36561625D01*
X-22385803Y36561620D01*
X-22405408Y36300004D01*
X-22405408Y36299995D01*
X-22386831Y36052103D01*
X-22385802Y36038370D01*
X-22327420Y35782584D01*
X-22266587Y35627583D01*
X-22232175Y35539902D01*
X-22231568Y35538357D01*
X-22214075Y35508059D01*
X-22197603Y35440160D01*
X-22220455Y35374133D01*
X-22275376Y35330943D01*
X-22344930Y35324301D01*
X-22407032Y35356317D01*
X-22409144Y35358379D01*
X-23963181Y36912416D01*
X-23996666Y36973739D01*
X-23999500Y37000097D01*
X-23999500Y37553201D01*
X-24002401Y37590067D01*
X-24002402Y37590073D01*
X-24048254Y37747893D01*
X-24048255Y37747896D01*
X-24049505Y37750009D01*
X-24110293Y37852797D01*
X-24131917Y37889362D01*
X-24131923Y37889370D01*
X-24248129Y38005576D01*
X-24248133Y38005579D01*
X-24248135Y38005581D01*
X-24389602Y38089244D01*
X-24460025Y38109704D01*
X-24547426Y38135097D01*
X-24547429Y38135097D01*
X-24547431Y38135098D01*
X-24584306Y38138000D01*
X-24584314Y38138000D01*
X-24825500Y38138000D01*
X-24892539Y38157685D01*
X-24938294Y38210489D01*
X-24949500Y38262000D01*
X-24949500Y39428201D01*
X-24952401Y39465067D01*
X-24952402Y39465073D01*
X-24998254Y39622893D01*
X-24998255Y39622896D01*
X-25000689Y39627011D01*
X-25060503Y39728153D01*
X-25073423Y39750000D01*
X-23400000Y39750000D01*
X-23400000Y39202172D01*
X-23399999Y39202155D01*
X-23393598Y39142627D01*
X-23393596Y39142620D01*
X-23343354Y39007913D01*
X-23343350Y39007906D01*
X-23257190Y38892812D01*
X-23257187Y38892809D01*
X-23142093Y38806649D01*
X-23142086Y38806645D01*
X-23007379Y38756403D01*
X-23007372Y38756401D01*
X-22947844Y38750000D01*
X-22650000Y38750000D01*
X-22650000Y39750000D01*
X-23400000Y39750000D01*
X-25073423Y39750000D01*
X-25081917Y39764362D01*
X-25081923Y39764370D01*
X-25113180Y39795626D01*
X-25146666Y39856948D01*
X-25149500Y39883308D01*
X-25149500Y40250000D01*
X-23400000Y40250000D01*
X-22650000Y40250000D01*
X-22650000Y41250000D01*
X-22947828Y41250000D01*
X-22947844Y41249999D01*
X-23007372Y41243598D01*
X-23007379Y41243596D01*
X-23142086Y41193354D01*
X-23142093Y41193350D01*
X-23257187Y41107190D01*
X-23257190Y41107187D01*
X-23343350Y40992093D01*
X-23343354Y40992086D01*
X-23393596Y40857379D01*
X-23393598Y40857372D01*
X-23399999Y40797844D01*
X-23400000Y40797827D01*
X-23400000Y40250000D01*
X-25149500Y40250000D01*
X-25149500Y41000500D01*
X-25129815Y41067539D01*
X-25077011Y41113294D01*
X-25025500Y41124500D01*
X-24777130Y41124500D01*
X-24777123Y41124501D01*
X-24717516Y41130908D01*
X-24582671Y41181202D01*
X-24582664Y41181206D01*
X-24467455Y41267452D01*
X-24467452Y41267455D01*
X-24381206Y41382664D01*
X-24381202Y41382671D01*
X-24330908Y41517517D01*
X-24324501Y41577116D01*
X-24324500Y41577135D01*
X-24324500Y43472870D01*
X-24324501Y43472876D01*
X-24330908Y43532483D01*
X-24381202Y43667328D01*
X-24381206Y43667335D01*
X-24467452Y43782544D01*
X-24467455Y43782547D01*
X-24582664Y43868793D01*
X-24582671Y43868797D01*
X-24717517Y43919091D01*
X-24717516Y43919091D01*
X-24723925Y43919779D01*
X-24777127Y43925500D01*
X-26672872Y43925499D01*
X-26732483Y43919091D01*
X-26867331Y43868796D01*
X-26982546Y43782546D01*
X-27068796Y43667331D01*
X-27068797Y43667328D01*
X-27068798Y43667326D01*
X-27097455Y43590493D01*
X-27139326Y43534559D01*
X-27204790Y43510141D01*
X-27273063Y43524992D01*
X-27304866Y43549843D01*
X-27313216Y43558913D01*
X-27317715Y43562415D01*
X-27496365Y43701464D01*
X-27496371Y43701468D01*
X-27496372Y43701468D01*
X-27496374Y43701470D01*
X-27700497Y43811936D01*
X-27845472Y43861706D01*
X-27920015Y43887297D01*
X-27920017Y43887297D01*
X-27920019Y43887298D01*
X-28148951Y43925500D01*
X-28381049Y43925500D01*
X-28609981Y43887298D01*
X-28661897Y43869474D01*
X-28731693Y43866324D01*
X-28789840Y43899075D01*
X-29390765Y44500000D01*
X-23400000Y44500000D01*
X-23400000Y43952172D01*
X-23399999Y43952155D01*
X-23393598Y43892627D01*
X-23393596Y43892620D01*
X-23343354Y43757913D01*
X-23343350Y43757906D01*
X-23257190Y43642812D01*
X-23257187Y43642809D01*
X-23142093Y43556649D01*
X-23142086Y43556645D01*
X-23007379Y43506403D01*
X-23007372Y43506401D01*
X-22947844Y43500000D01*
X-22650000Y43500000D01*
X-22650000Y44500000D01*
X-23400000Y44500000D01*
X-29390765Y44500000D01*
X-29890765Y45000000D01*
X-23400000Y45000000D01*
X-22650000Y45000000D01*
X-22650000Y46000000D01*
X-22947828Y46000000D01*
X-22947844Y45999999D01*
X-23007372Y45993598D01*
X-23007379Y45993596D01*
X-23142086Y45943354D01*
X-23142093Y45943350D01*
X-23257187Y45857190D01*
X-23257190Y45857187D01*
X-23343350Y45742093D01*
X-23343354Y45742086D01*
X-23393596Y45607379D01*
X-23393598Y45607372D01*
X-23399999Y45547844D01*
X-23400000Y45547827D01*
X-23400000Y45000000D01*
X-29890765Y45000000D01*
X-30755139Y45864374D01*
X-30755149Y45864385D01*
X-30798311Y45907547D01*
X-30871284Y45980520D01*
X-30871286Y45980521D01*
X-30871290Y45980524D01*
X-30992491Y46050499D01*
X-30992494Y46050500D01*
X-31008215Y46059577D01*
X-31160943Y46100501D01*
X-31319057Y46100501D01*
X-31326653Y46100501D01*
X-31326669Y46100500D01*
X-34844699Y46100500D01*
X-34911738Y46120185D01*
X-34957493Y46172989D01*
X-34962405Y46185496D01*
X-34990185Y46269331D01*
X-34990187Y46269336D01*
X-35025069Y46325888D01*
X-35082288Y46418656D01*
X-35206344Y46542712D01*
X-35278096Y46586968D01*
X-35324821Y46638915D01*
X-35337000Y46692507D01*
X-35337000Y48307491D01*
X-35317315Y48374530D01*
X-35278098Y48413029D01*
X-35206344Y48457287D01*
X-35082289Y48581342D01*
X-34990187Y48730663D01*
X-34990185Y48730668D01*
X-34960518Y48820197D01*
X-34935001Y48897203D01*
X-34935001Y48897204D01*
X-34935000Y48897204D01*
X-34924500Y48999983D01*
X-34924500Y49750000D01*
X-23400000Y49750000D01*
X-23400000Y49202172D01*
X-23399999Y49202155D01*
X-23393598Y49142627D01*
X-23393596Y49142620D01*
X-23343354Y49007913D01*
X-23343350Y49007906D01*
X-23257190Y48892812D01*
X-23257187Y48892809D01*
X-23142093Y48806649D01*
X-23142086Y48806645D01*
X-23007379Y48756403D01*
X-23007372Y48756401D01*
X-22947844Y48750000D01*
X-22650000Y48750000D01*
X-22150000Y48750000D01*
X-21852155Y48750000D01*
X-21792624Y48756401D01*
X-21785073Y48758186D01*
X-21784684Y48756542D01*
X-21724348Y48760853D01*
X-21707614Y48755939D01*
X-21707483Y48755908D01*
X-21647883Y48749501D01*
X-21647881Y48749500D01*
X-21647873Y48749500D01*
X-21150097Y48749500D01*
X-21083058Y48729815D01*
X-21062416Y48713181D01*
X-20099318Y47750083D01*
X-20065833Y47688760D01*
X-20062999Y47662402D01*
X-20062999Y46824992D01*
X-20052499Y46722203D01*
X-19997314Y46555666D01*
X-19905212Y46406344D01*
X-19781156Y46282288D01*
X-19688388Y46225069D01*
X-19639307Y46194795D01*
X-19631834Y46190186D01*
X-19465297Y46135001D01*
X-19465295Y46135000D01*
X-19362510Y46124500D01*
X-19362509Y46124500D01*
X-18637498Y46124500D01*
X-18637480Y46124501D01*
X-18534703Y46135000D01*
X-18534700Y46135001D01*
X-18368168Y46190185D01*
X-18368163Y46190187D01*
X-18218842Y46282289D01*
X-18094789Y46406342D01*
X-18002687Y46555663D01*
X-18002685Y46555668D01*
X-17958173Y46689998D01*
X-17947501Y46722203D01*
X-17947501Y46722204D01*
X-17947500Y46722204D01*
X-17937000Y46824983D01*
X-17937000Y48175001D01*
X-17937001Y48175018D01*
X-17947500Y48277796D01*
X-17947501Y48277799D01*
X-18002685Y48444331D01*
X-18002687Y48444336D01*
X-18094789Y48593657D01*
X-18218842Y48717710D01*
X-18218844Y48717712D01*
X-18368166Y48809814D01*
X-18534703Y48864999D01*
X-18637491Y48875500D01*
X-19362508Y48875499D01*
X-19452469Y48866309D01*
X-19521161Y48879079D01*
X-19552751Y48901986D01*
X-20063181Y49412416D01*
X-20096666Y49473739D01*
X-20099500Y49500097D01*
X-20099500Y50797870D01*
X-20099501Y50797876D01*
X-20105908Y50857483D01*
X-20156202Y50992328D01*
X-20156206Y50992335D01*
X-20242452Y51107544D01*
X-20242455Y51107547D01*
X-20357664Y51193793D01*
X-20357671Y51193797D01*
X-20492517Y51244091D01*
X-20492516Y51244091D01*
X-20498925Y51244779D01*
X-20552127Y51250500D01*
X-21647872Y51250499D01*
X-21707483Y51244091D01*
X-21707489Y51244088D01*
X-21715025Y51242308D01*
X-21715321Y51243561D01*
X-21777063Y51239142D01*
X-21790655Y51243132D01*
X-21792627Y51243598D01*
X-21852155Y51249999D01*
X-21852172Y51250000D01*
X-22150000Y51250000D01*
X-22150000Y48750000D01*
X-22650000Y48750000D01*
X-22650000Y49750000D01*
X-23400000Y49750000D01*
X-34924500Y49750000D01*
X-34924500Y50000001D01*
X-34924501Y50000019D01*
X-34935000Y50102796D01*
X-34935001Y50102799D01*
X-34983779Y50250000D01*
X-23400000Y50250000D01*
X-22650000Y50250000D01*
X-22650000Y51250000D01*
X-22947828Y51250000D01*
X-22947844Y51249999D01*
X-23007372Y51243598D01*
X-23007379Y51243596D01*
X-23142086Y51193354D01*
X-23142093Y51193350D01*
X-23257187Y51107190D01*
X-23257190Y51107187D01*
X-23343350Y50992093D01*
X-23343354Y50992086D01*
X-23393596Y50857379D01*
X-23393598Y50857372D01*
X-23399999Y50797844D01*
X-23400000Y50797827D01*
X-23400000Y50250000D01*
X-34983779Y50250000D01*
X-34990185Y50269331D01*
X-34990187Y50269336D01*
X-35069056Y50397203D01*
X-35082288Y50418656D01*
X-35206344Y50542712D01*
X-35278096Y50586968D01*
X-35324821Y50638915D01*
X-35337000Y50692507D01*
X-35337000Y52557491D01*
X-35317315Y52624530D01*
X-35278098Y52663029D01*
X-35206344Y52707287D01*
X-35082289Y52831342D01*
X-34990187Y52980663D01*
X-34990185Y52980668D01*
X-34935001Y53147204D01*
X-34935000Y53147204D01*
X-34924500Y53249983D01*
X-34924500Y53249996D01*
X-34924501Y54025500D01*
X-34904817Y54092539D01*
X-34852013Y54138294D01*
X-34800501Y54149500D01*
X-22524500Y54149500D01*
X-22457461Y54129815D01*
G37*
%TD.AperFunction*%
%TD*%
%TA.AperFunction,NonConductor*%
G36*
X757025Y55379815D02*
G01*
X779682Y55361119D01*
X21365196Y33795342D01*
X21397246Y33733257D01*
X21399500Y33709723D01*
X21399500Y14724500D01*
X21379815Y14657461D01*
X21327011Y14611706D01*
X21275500Y14600500D01*
X5805106Y14600500D01*
X5738067Y14620185D01*
X5692312Y14672989D01*
X5682368Y14742147D01*
X5711393Y14805703D01*
X5740006Y14830037D01*
X5743656Y14832288D01*
X5867712Y14956344D01*
X5959814Y15105666D01*
X6014999Y15272203D01*
X6025500Y15374991D01*
X6025499Y16725008D01*
X6014999Y16827797D01*
X5959814Y16994334D01*
X5867712Y17143656D01*
X5743656Y17267712D01*
X5594334Y17359814D01*
X5500051Y17391056D01*
X5442608Y17430827D01*
X5415785Y17495343D01*
X5428100Y17564119D01*
X5473961Y17614300D01*
X5543655Y17657287D01*
X5667710Y17781342D01*
X5667712Y17781344D01*
X5759814Y17930666D01*
X5814999Y18097203D01*
X5825500Y18199991D01*
X5825499Y18322075D01*
X5845183Y18389113D01*
X5897987Y18434868D01*
X5967145Y18444812D01*
X6030701Y18415788D01*
X6055037Y18387172D01*
X6101037Y18312594D01*
X6225092Y18188539D01*
X6374413Y18096437D01*
X6374418Y18096435D01*
X6458420Y18068599D01*
X6540953Y18041251D01*
X6540954Y18041250D01*
X6643733Y18030750D01*
X7618651Y18030750D01*
X7685690Y18011065D01*
X7706332Y17994431D01*
X8056931Y17643832D01*
X8090416Y17582509D01*
X8093250Y17556151D01*
X8093250Y16658379D01*
X8093251Y16658373D01*
X8099658Y16598770D01*
X8101442Y16591224D01*
X8099980Y16590878D01*
X8104334Y16529872D01*
X8099922Y16514850D01*
X8099658Y16513732D01*
X8093251Y16454133D01*
X8093250Y16454114D01*
X8093250Y15358379D01*
X8093251Y15358373D01*
X8099658Y15298766D01*
X8149952Y15163921D01*
X8149956Y15163914D01*
X8236202Y15048705D01*
X8236205Y15048702D01*
X8351414Y14962456D01*
X8351421Y14962452D01*
X8486267Y14912158D01*
X8486266Y14912158D01*
X8545866Y14905751D01*
X8545869Y14905750D01*
X8545877Y14905750D01*
X8545884Y14905750D01*
X8545885Y14905750D01*
X10141620Y14905750D01*
X10141626Y14905751D01*
X10201233Y14912158D01*
X10336078Y14962452D01*
X10336085Y14962456D01*
X10451294Y15048702D01*
X10451297Y15048705D01*
X10537543Y15163914D01*
X10537547Y15163921D01*
X10560359Y15225083D01*
X10602230Y15281017D01*
X10667694Y15305434D01*
X10676541Y15305750D01*
X12492310Y15305750D01*
X12559349Y15286065D01*
X12605104Y15233261D01*
X12608492Y15225083D01*
X12649952Y15113921D01*
X12649956Y15113914D01*
X12736202Y14998705D01*
X12736205Y14998702D01*
X12851414Y14912456D01*
X12851421Y14912452D01*
X12986267Y14862158D01*
X12986266Y14862158D01*
X13045866Y14855751D01*
X13045869Y14855750D01*
X13045877Y14855750D01*
X13045884Y14855750D01*
X13045885Y14855750D01*
X14641620Y14855750D01*
X14641626Y14855751D01*
X14701233Y14862158D01*
X14836078Y14912452D01*
X14836085Y14912456D01*
X14951294Y14998702D01*
X14951297Y14998705D01*
X15037543Y15113914D01*
X15037547Y15113921D01*
X15060359Y15175083D01*
X15102230Y15231017D01*
X15167694Y15255434D01*
X15176541Y15255750D01*
X17329609Y15255750D01*
X17396648Y15236065D01*
X17442403Y15183261D01*
X17445780Y15175109D01*
X17449408Y15165384D01*
X17449956Y15163914D01*
X17536202Y15048705D01*
X17536205Y15048702D01*
X17651414Y14962456D01*
X17651421Y14962452D01*
X17786267Y14912158D01*
X17786266Y14912158D01*
X17845866Y14905751D01*
X17845869Y14905750D01*
X17845877Y14905750D01*
X17845884Y14905750D01*
X17845885Y14905750D01*
X19441620Y14905750D01*
X19441626Y14905751D01*
X19501233Y14912158D01*
X19636078Y14962452D01*
X19636085Y14962456D01*
X19751294Y15048702D01*
X19751297Y15048705D01*
X19837543Y15163914D01*
X19837547Y15163921D01*
X19887841Y15298767D01*
X19890722Y15325561D01*
X19917460Y15390112D01*
X19952009Y15419692D01*
X19962462Y15425727D01*
X19962467Y15425731D01*
X20180518Y15643782D01*
X20180522Y15643787D01*
X20256272Y15774991D01*
X20256273Y15774990D01*
X20256275Y15774997D01*
X20259577Y15780715D01*
X20300500Y15933442D01*
X20300500Y16091557D01*
X20300500Y28300500D01*
X20320185Y28367539D01*
X20372989Y28413294D01*
X20424499Y28424500D01*
X20647869Y28424500D01*
X20647876Y28424501D01*
X20707483Y28430908D01*
X20842328Y28481202D01*
X20842335Y28481206D01*
X20957544Y28567452D01*
X20957547Y28567455D01*
X21043793Y28682664D01*
X21043797Y28682671D01*
X21094091Y28817517D01*
X21094894Y28824983D01*
X21100500Y28877127D01*
X21100499Y30772872D01*
X21094091Y30832483D01*
X21043796Y30967331D01*
X20957546Y31082546D01*
X20842331Y31168796D01*
X20833196Y31172203D01*
X20787353Y31189301D01*
X20762094Y31198722D01*
X20706161Y31240592D01*
X20681743Y31306056D01*
X20696594Y31374329D01*
X20714193Y31398881D01*
X20808979Y31501847D01*
X20808980Y31501849D01*
X20808983Y31501852D01*
X20935924Y31696151D01*
X21029157Y31908699D01*
X21086133Y32133691D01*
X21086135Y32133702D01*
X21105300Y32364993D01*
X21105300Y32365006D01*
X21086135Y32596297D01*
X21086133Y32596308D01*
X21085219Y32599916D01*
X21029157Y32821300D01*
X20935924Y33033849D01*
X20808979Y33228153D01*
X20651784Y33398913D01*
X20468626Y33541470D01*
X20264503Y33651936D01*
X20044981Y33727298D01*
X19816049Y33765500D01*
X19583951Y33765500D01*
X19355019Y33727298D01*
X19303101Y33709474D01*
X19233307Y33706324D01*
X19175163Y33739072D01*
X19071216Y33843020D01*
X18967460Y33902923D01*
X18934285Y33922077D01*
X18781557Y33963001D01*
X18623443Y33963001D01*
X18615847Y33963001D01*
X18615831Y33963000D01*
X18098348Y33963000D01*
X18031309Y33982685D01*
X17992809Y34021903D01*
X17986159Y34032685D01*
X17917712Y34143656D01*
X17793656Y34267712D01*
X17644334Y34359814D01*
X17477797Y34414999D01*
X17375009Y34425500D01*
X16024992Y34425499D01*
X16024983Y34425498D01*
X16024981Y34425498D01*
X15955800Y34418431D01*
X15922203Y34414999D01*
X15755666Y34359814D01*
X15606344Y34267712D01*
X15482288Y34143656D01*
X15455227Y34099783D01*
X15390182Y33994328D01*
X15387131Y33987784D01*
X15385012Y33988771D01*
X15351628Y33940552D01*
X15287113Y33913728D01*
X15273693Y33913000D01*
X14488299Y33913000D01*
X14421260Y33932685D01*
X14375505Y33985489D01*
X14365561Y34054647D01*
X14394586Y34118203D01*
X14453364Y34155977D01*
X14456170Y34156764D01*
X14581784Y34190423D01*
X14581786Y34190424D01*
X14581790Y34190426D01*
X14718709Y34269475D01*
X14718717Y34269481D01*
X14830518Y34381282D01*
X14830524Y34381290D01*
X14909573Y34518209D01*
X14909577Y34518216D01*
X14950500Y34670943D01*
X14950500Y35753330D01*
X14950501Y35753348D01*
X14950501Y35919054D01*
X14950501Y35919057D01*
X14909577Y36071785D01*
X14871925Y36137000D01*
X14830520Y36208716D01*
X14718716Y36320520D01*
X14718714Y36320520D01*
X14708511Y36330724D01*
X14708506Y36330728D01*
X12699202Y38340031D01*
X12665719Y38401352D01*
X12666680Y38458151D01*
X12711131Y38633682D01*
X12711135Y38633702D01*
X12730300Y38864993D01*
X12730300Y38865006D01*
X12711135Y39096297D01*
X12711133Y39096308D01*
X12709491Y39102791D01*
X12654157Y39321300D01*
X12560924Y39533849D01*
X12433979Y39728153D01*
X12276784Y39898913D01*
X12093626Y40041470D01*
X11889503Y40151936D01*
X11669981Y40227298D01*
X11441049Y40265500D01*
X11208951Y40265500D01*
X10980019Y40227298D01*
X10980017Y40227297D01*
X10980015Y40227297D01*
X10907986Y40202569D01*
X10760497Y40151936D01*
X10760495Y40151935D01*
X10736436Y40138915D01*
X10556374Y40041470D01*
X10556372Y40041468D01*
X10556371Y40041468D01*
X10556365Y40041464D01*
X10394609Y39915564D01*
X10373216Y39898913D01*
X10216021Y39728153D01*
X10216019Y39728151D01*
X10216016Y39728147D01*
X10089075Y39533848D01*
X9995842Y39321300D01*
X9938866Y39096308D01*
X9938864Y39096297D01*
X9919700Y38865006D01*
X9919700Y38864993D01*
X9938864Y38633702D01*
X9938866Y38633691D01*
X9995842Y38408699D01*
X10054792Y38274310D01*
X10063695Y38205010D01*
X10033718Y38141898D01*
X9974379Y38105011D01*
X9941236Y38100500D01*
X9395808Y38100500D01*
X9328769Y38120185D01*
X9308126Y38136820D01*
X9276870Y38168076D01*
X9276865Y38168081D01*
X9135398Y38251744D01*
X9019191Y38285505D01*
X8977573Y38297597D01*
X8977571Y38297597D01*
X8977569Y38297598D01*
X8940694Y38300500D01*
X7634306Y38300500D01*
X7597431Y38297598D01*
X7597429Y38297597D01*
X7597426Y38297597D01*
X7481224Y38263836D01*
X7439602Y38251744D01*
X7390484Y38222696D01*
X7381306Y38217268D01*
X7318185Y38200000D01*
X6662500Y38200000D01*
X6662500Y37650000D01*
X6925500Y37650000D01*
X6992539Y37630315D01*
X7038294Y37577511D01*
X7049500Y37526000D01*
X7049500Y37474500D01*
X7029815Y37407461D01*
X6977011Y37361706D01*
X6925500Y37350500D01*
X6512597Y37350500D01*
X6445558Y37370185D01*
X6424916Y37386819D01*
X6198819Y37612916D01*
X6165334Y37674239D01*
X6162500Y37700597D01*
X6162500Y39250000D01*
X6662500Y39250000D01*
X6662500Y38700000D01*
X7647295Y38700000D01*
X7647295Y38700001D01*
X7647100Y38702486D01*
X7601281Y38860198D01*
X7517685Y39001552D01*
X7517678Y39001561D01*
X7401561Y39117678D01*
X7401552Y39117685D01*
X7260196Y39201282D01*
X7260193Y39201283D01*
X7102495Y39247099D01*
X7102489Y39247100D01*
X7065649Y39249999D01*
X7065634Y39250000D01*
X6662500Y39250000D01*
X6162500Y39250000D01*
X5759366Y39250000D01*
X5759350Y39249999D01*
X5722510Y39247100D01*
X5722504Y39247099D01*
X5564806Y39201283D01*
X5564803Y39201282D01*
X5423447Y39117685D01*
X5423438Y39117678D01*
X5307321Y39001561D01*
X5307314Y39001552D01*
X5223717Y38860196D01*
X5223715Y38860192D01*
X5220938Y38850633D01*
X5183330Y38791749D01*
X5119856Y38762544D01*
X5050670Y38772293D01*
X5014187Y38797547D01*
X3249231Y40562502D01*
X3215747Y40623825D01*
X3220731Y40693517D01*
X3249232Y40737864D01*
X3312319Y40800951D01*
X3373642Y40834436D01*
X3443334Y40829452D01*
X3487681Y40800951D01*
X3581342Y40707289D01*
X3730663Y40615187D01*
X3730668Y40615185D01*
X3774982Y40600501D01*
X3897203Y40560001D01*
X3897204Y40560000D01*
X3999989Y40549500D01*
X3999991Y40549500D01*
X4625001Y40549500D01*
X4625019Y40549501D01*
X4727796Y40560000D01*
X4727799Y40560001D01*
X4894331Y40615185D01*
X4894334Y40615186D01*
X4899020Y40618076D01*
X4991334Y40675016D01*
X5043656Y40707288D01*
X5167712Y40831344D01*
X5259814Y40980666D01*
X5287595Y41064504D01*
X5327368Y41121949D01*
X5391884Y41148772D01*
X5405301Y41149500D01*
X5875501Y41149500D01*
X5942540Y41129815D01*
X5988295Y41077011D01*
X5999501Y41025500D01*
X5999501Y40952123D01*
X6005908Y40892516D01*
X6056202Y40757671D01*
X6056206Y40757664D01*
X6142452Y40642455D01*
X6142455Y40642452D01*
X6257664Y40556206D01*
X6257671Y40556202D01*
X6392517Y40505908D01*
X6392516Y40505908D01*
X6452116Y40499501D01*
X6452119Y40499500D01*
X6452127Y40499500D01*
X6452134Y40499500D01*
X6452135Y40499500D01*
X7547870Y40499500D01*
X7547876Y40499501D01*
X7607479Y40505908D01*
X7615026Y40507692D01*
X7615371Y40506229D01*
X7676371Y40510585D01*
X7691396Y40506173D01*
X7692517Y40505908D01*
X7752116Y40499501D01*
X7752119Y40499500D01*
X7752127Y40499500D01*
X7752134Y40499500D01*
X7752135Y40499500D01*
X8847870Y40499500D01*
X8847876Y40499501D01*
X8907483Y40505908D01*
X9042328Y40556202D01*
X9042335Y40556206D01*
X9157544Y40642452D01*
X9157547Y40642455D01*
X9243793Y40757664D01*
X9243797Y40757671D01*
X9294091Y40892517D01*
X9300500Y40952127D01*
X9300499Y42547872D01*
X9294091Y42607483D01*
X9243796Y42742331D01*
X9157546Y42857546D01*
X9042331Y42943796D01*
X8981166Y42966608D01*
X8925234Y43008478D01*
X8900816Y43073942D01*
X8900500Y43082790D01*
X8900500Y43467209D01*
X8920185Y43534248D01*
X8972989Y43580003D01*
X8981167Y43583391D01*
X9042328Y43606202D01*
X9042335Y43606206D01*
X9157544Y43692452D01*
X9157547Y43692455D01*
X9243793Y43807664D01*
X9243797Y43807671D01*
X9294091Y43942517D01*
X9295129Y43952172D01*
X9300500Y44002127D01*
X9300499Y45597872D01*
X9294091Y45657483D01*
X9243796Y45792331D01*
X9157546Y45907546D01*
X9042331Y45993796D01*
X8907483Y46044091D01*
X8847873Y46050500D01*
X7752128Y46050499D01*
X7692517Y46044091D01*
X7692515Y46044090D01*
X7692512Y46044090D01*
X7684969Y46042308D01*
X7684622Y46043773D01*
X7623651Y46039409D01*
X7608633Y46043819D01*
X7607488Y46044089D01*
X7607483Y46044091D01*
X7547873Y46050500D01*
X6452128Y46050499D01*
X6403757Y46045299D01*
X6392516Y46044091D01*
X6257671Y45993797D01*
X6257664Y45993793D01*
X6142455Y45907547D01*
X6142452Y45907544D01*
X6056206Y45792335D01*
X6056202Y45792328D01*
X6005908Y45657483D01*
X6001551Y45616952D01*
X5974813Y45552401D01*
X5917420Y45512553D01*
X5847595Y45510060D01*
X5787506Y45545713D01*
X5760556Y45591204D01*
X5758347Y45597870D01*
X5709814Y45744334D01*
X5617712Y45893656D01*
X5493656Y46017712D01*
X5344334Y46109814D01*
X5177797Y46164999D01*
X5075009Y46175500D01*
X4349992Y46175499D01*
X4349984Y46175498D01*
X4349980Y46175498D01*
X4247203Y46164999D01*
X4080666Y46109814D01*
X3931344Y46017712D01*
X3807288Y45893656D01*
X3785014Y45857544D01*
X3718680Y45749998D01*
X3715186Y45744334D01*
X3660001Y45577797D01*
X3660001Y45577795D01*
X3660000Y45577795D01*
X3649500Y45475016D01*
X3649500Y44124998D01*
X3649501Y44124981D01*
X3660000Y44022203D01*
X3660001Y44022200D01*
X3715185Y43855668D01*
X3715187Y43855663D01*
X3807289Y43706342D01*
X3931342Y43582289D01*
X4080663Y43490187D01*
X4080668Y43490185D01*
X4132904Y43472876D01*
X4247203Y43435001D01*
X4247204Y43435000D01*
X4349989Y43424500D01*
X4349991Y43424500D01*
X5075001Y43424500D01*
X5075019Y43424501D01*
X5177796Y43435000D01*
X5177799Y43435001D01*
X5344331Y43490185D01*
X5344334Y43490186D01*
X5345698Y43491027D01*
X5415770Y43534248D01*
X5493656Y43582288D01*
X5617712Y43706344D01*
X5709814Y43855666D01*
X5760556Y44008796D01*
X5800329Y44066241D01*
X5864845Y44093064D01*
X5933620Y44080749D01*
X5984820Y44033206D01*
X6001552Y43983046D01*
X6005909Y43942516D01*
X6056202Y43807671D01*
X6056206Y43807664D01*
X6142452Y43692455D01*
X6142455Y43692452D01*
X6257664Y43606206D01*
X6257671Y43606202D01*
X6392517Y43555908D01*
X6392516Y43555908D01*
X6452116Y43549501D01*
X6452119Y43549500D01*
X6452127Y43549500D01*
X6452134Y43549500D01*
X6452135Y43549500D01*
X7547870Y43549500D01*
X7547879Y43549501D01*
X7562248Y43551046D01*
X7631007Y43538639D01*
X7682143Y43491027D01*
X7699500Y43427756D01*
X7699500Y43122243D01*
X7679815Y43055204D01*
X7627011Y43009449D01*
X7562243Y42998954D01*
X7547873Y43000500D01*
X6452128Y43000499D01*
X6403757Y42995299D01*
X6392516Y42994091D01*
X6257671Y42943797D01*
X6257664Y42943793D01*
X6142455Y42857547D01*
X6142452Y42857544D01*
X6056206Y42742335D01*
X6056202Y42742328D01*
X6005908Y42607482D01*
X6002500Y42575776D01*
X5999501Y42547876D01*
X5999500Y42547864D01*
X5999500Y42474500D01*
X5979815Y42407461D01*
X5927011Y42361706D01*
X5875500Y42350500D01*
X5405301Y42350500D01*
X5338262Y42370185D01*
X5292507Y42422989D01*
X5287595Y42435496D01*
X5282088Y42452116D01*
X5259814Y42519334D01*
X5167712Y42668656D01*
X5043656Y42792712D01*
X4894334Y42884814D01*
X4727797Y42939999D01*
X4625009Y42950500D01*
X3999992Y42950499D01*
X3999984Y42950498D01*
X3999980Y42950498D01*
X3897203Y42939999D01*
X3730666Y42884814D01*
X3581344Y42792712D01*
X3581342Y42792710D01*
X3487681Y42699049D01*
X3426358Y42665564D01*
X3356666Y42670548D01*
X3312319Y42699049D01*
X3269033Y42742335D01*
X3218656Y42792712D01*
X3146903Y42836968D01*
X3100179Y42888915D01*
X3088000Y42942507D01*
X3088000Y44179055D01*
X3088000Y44179057D01*
X3047077Y44331784D01*
X2968020Y44468716D01*
X2886818Y44549918D01*
X2853333Y44611241D01*
X2850499Y44637599D01*
X2850499Y45475001D01*
X2850498Y45475018D01*
X2839999Y45577796D01*
X2839998Y45577799D01*
X2833347Y45597870D01*
X2784814Y45744334D01*
X2692712Y45893656D01*
X2568656Y46017712D01*
X2419334Y46109814D01*
X2252797Y46164999D01*
X2150009Y46175500D01*
X1424992Y46175499D01*
X1424984Y46175498D01*
X1424980Y46175498D01*
X1322203Y46164999D01*
X1155666Y46109814D01*
X1006344Y46017712D01*
X882288Y45893656D01*
X860014Y45857544D01*
X793680Y45749998D01*
X790186Y45744334D01*
X735001Y45577797D01*
X735001Y45577795D01*
X735000Y45577795D01*
X724500Y45475016D01*
X724500Y44939953D01*
X704815Y44872914D01*
X652011Y44827159D01*
X582853Y44817215D01*
X519297Y44846240D01*
X512815Y44852276D01*
X507547Y44857544D01*
X507546Y44857546D01*
X392331Y44943796D01*
X331166Y44966608D01*
X275234Y45008478D01*
X250816Y45073942D01*
X250500Y45082790D01*
X250500Y47417209D01*
X270185Y47484248D01*
X322989Y47530003D01*
X331167Y47533391D01*
X392328Y47556202D01*
X392335Y47556206D01*
X507544Y47642452D01*
X507547Y47642455D01*
X593793Y47757664D01*
X593797Y47757671D01*
X644091Y47892517D01*
X650500Y47952127D01*
X650499Y49547872D01*
X644091Y49607483D01*
X593796Y49742331D01*
X507546Y49857546D01*
X392331Y49943796D01*
X331166Y49966608D01*
X275234Y50008478D01*
X250816Y50073942D01*
X250500Y50082790D01*
X250500Y52167209D01*
X270185Y52234248D01*
X322989Y52280003D01*
X331167Y52283391D01*
X392328Y52306202D01*
X392335Y52306206D01*
X507544Y52392452D01*
X507547Y52392455D01*
X593793Y52507664D01*
X593797Y52507671D01*
X644091Y52642517D01*
X645562Y52656202D01*
X650500Y52702127D01*
X650499Y54297872D01*
X644091Y54357483D01*
X593796Y54492331D01*
X507546Y54607546D01*
X392331Y54693796D01*
X257483Y54744091D01*
X197873Y54750500D01*
X-149901Y54750499D01*
X-216940Y54770183D01*
X-237582Y54786818D01*
X-638584Y55187819D01*
X-672069Y55249142D01*
X-667085Y55318833D01*
X-625214Y55374767D01*
X-559749Y55399184D01*
X-550903Y55399500D01*
X689986Y55399500D01*
X757025Y55379815D01*
G37*
%TD.AperFunction*%
%TA.AperFunction,NonConductor*%
G36*
X-25188262Y32629815D02*
G01*
X-25142507Y32577011D01*
X-25137596Y32564507D01*
X-25109814Y32480666D01*
X-25017712Y32331344D01*
X-24893656Y32207288D01*
X-24802098Y32150815D01*
X-24763506Y32127011D01*
X-24744334Y32115186D01*
X-24577797Y32060001D01*
X-24577795Y32060000D01*
X-24475010Y32049500D01*
X-24475009Y32049500D01*
X-23849998Y32049500D01*
X-23849980Y32049501D01*
X-23747203Y32060000D01*
X-23747200Y32060001D01*
X-23580668Y32115185D01*
X-23580663Y32115187D01*
X-23431342Y32207289D01*
X-23337681Y32300951D01*
X-23276358Y32334436D01*
X-23206666Y32329452D01*
X-23162319Y32300951D01*
X-23068655Y32207287D01*
X-22996902Y32163029D01*
X-22950178Y32111081D01*
X-22938000Y32057491D01*
X-22938000Y30389059D01*
X-22938001Y30389046D01*
X-22938001Y30379057D01*
X-22938001Y30220943D01*
X-22897077Y30068215D01*
X-22897075Y30068212D01*
X-22897075Y30068210D01*
X-22897074Y30068209D01*
X-22874470Y30029058D01*
X-22874469Y30029056D01*
X-22818024Y29931290D01*
X-22818021Y29931286D01*
X-22818020Y29931284D01*
X-22717740Y29831004D01*
X-22701885Y29815149D01*
X-22701874Y29815139D01*
X-22636818Y29750083D01*
X-22603333Y29688760D01*
X-22600499Y29662402D01*
X-22600499Y28824998D01*
X-22600498Y28824981D01*
X-22595106Y28772200D01*
X-22589999Y28722203D01*
X-22534814Y28555666D01*
X-22442712Y28406344D01*
X-22318656Y28282288D01*
X-22278539Y28257544D01*
X-22183704Y28199049D01*
X-22169334Y28190186D01*
X-22002797Y28135001D01*
X-22002795Y28135000D01*
X-21900016Y28124500D01*
X-21900009Y28124500D01*
X-21424097Y28124500D01*
X-21357058Y28104815D01*
X-21311303Y28052011D01*
X-21301359Y27982853D01*
X-21330384Y27919297D01*
X-21336416Y27912819D01*
X-25958506Y23290727D01*
X-25958511Y23290724D01*
X-25968714Y23280520D01*
X-25968716Y23280520D01*
X-26080520Y23168716D01*
X-26122535Y23095943D01*
X-26159577Y23031785D01*
X-26200501Y22879057D01*
X-26200501Y22879054D01*
X-26200501Y22713348D01*
X-26200500Y22713330D01*
X-26200500Y14599097D01*
X-26220185Y14532058D01*
X-26272989Y14486303D01*
X-26342147Y14476359D01*
X-26405703Y14505384D01*
X-26412181Y14511416D01*
X-27913181Y16012416D01*
X-27946666Y16073739D01*
X-27949500Y16100097D01*
X-27949500Y27877756D01*
X-27929815Y27944795D01*
X-27877011Y27990550D01*
X-27812247Y28001045D01*
X-27797873Y27999500D01*
X-27797864Y27999500D01*
X-26702129Y27999500D01*
X-26702123Y27999501D01*
X-26642516Y28005908D01*
X-26507671Y28056202D01*
X-26507664Y28056206D01*
X-26392455Y28142452D01*
X-26392452Y28142455D01*
X-26306206Y28257664D01*
X-26306202Y28257671D01*
X-26255908Y28392517D01*
X-26249501Y28452116D01*
X-26249500Y28452135D01*
X-26249500Y28775500D01*
X-26229815Y28842539D01*
X-26177011Y28888294D01*
X-26125500Y28899500D01*
X-25645089Y28899500D01*
X-25578050Y28879815D01*
X-25532295Y28827011D01*
X-25521731Y28788102D01*
X-25520443Y28775500D01*
X-25514999Y28722203D01*
X-25459814Y28555666D01*
X-25367712Y28406344D01*
X-25243656Y28282288D01*
X-25203539Y28257544D01*
X-25108704Y28199049D01*
X-25094334Y28190186D01*
X-24927797Y28135001D01*
X-24927795Y28135000D01*
X-24825010Y28124500D01*
X-24825009Y28124500D01*
X-24099998Y28124500D01*
X-24099980Y28124501D01*
X-23997203Y28135000D01*
X-23997200Y28135001D01*
X-23830668Y28190185D01*
X-23830663Y28190187D01*
X-23681342Y28282289D01*
X-23557289Y28406342D01*
X-23465187Y28555663D01*
X-23465185Y28555668D01*
X-23420673Y28689998D01*
X-23410001Y28722203D01*
X-23410001Y28722204D01*
X-23410000Y28722204D01*
X-23399500Y28824983D01*
X-23399500Y30175001D01*
X-23399501Y30175018D01*
X-23410000Y30277796D01*
X-23410001Y30277799D01*
X-23465185Y30444331D01*
X-23465187Y30444336D01*
X-23525745Y30542516D01*
X-23557288Y30593656D01*
X-23681344Y30717712D01*
X-23830666Y30809814D01*
X-23997203Y30864999D01*
X-24099991Y30875500D01*
X-24825008Y30875499D01*
X-24825016Y30875498D01*
X-24825019Y30875498D01*
X-24876912Y30870197D01*
X-24927797Y30864999D01*
X-25094334Y30809814D01*
X-25243656Y30717712D01*
X-25367712Y30593656D01*
X-25459814Y30444334D01*
X-25514999Y30277797D01*
X-25514999Y30277794D01*
X-25521732Y30211897D01*
X-25548129Y30147205D01*
X-25605310Y30107054D01*
X-25645090Y30100500D01*
X-26167209Y30100500D01*
X-26234248Y30120185D01*
X-26280003Y30172989D01*
X-26283391Y30181167D01*
X-26306202Y30242328D01*
X-26306206Y30242335D01*
X-26392452Y30357544D01*
X-26392455Y30357547D01*
X-26507664Y30443793D01*
X-26507671Y30443797D01*
X-26642517Y30494091D01*
X-26642516Y30494091D01*
X-26648925Y30494779D01*
X-26702127Y30500500D01*
X-27797872Y30500499D01*
X-27857483Y30494091D01*
X-27857485Y30494090D01*
X-27857487Y30494090D01*
X-27865031Y30492308D01*
X-27865377Y30493775D01*
X-27926342Y30489408D01*
X-27941378Y30493822D01*
X-27950060Y30495873D01*
X-27949521Y30498150D01*
X-28003287Y30520408D01*
X-28043147Y30577793D01*
X-28049500Y30616975D01*
X-28049500Y31877756D01*
X-28029815Y31944795D01*
X-27977011Y31990550D01*
X-27912247Y32001045D01*
X-27897873Y31999500D01*
X-27897864Y31999500D01*
X-26802129Y31999500D01*
X-26802123Y31999501D01*
X-26742516Y32005908D01*
X-26607671Y32056202D01*
X-26607664Y32056206D01*
X-26492455Y32142452D01*
X-26492452Y32142455D01*
X-26406206Y32257664D01*
X-26406202Y32257671D01*
X-26355908Y32392517D01*
X-26349501Y32452116D01*
X-26349500Y32452135D01*
X-26349500Y32525500D01*
X-26329815Y32592539D01*
X-26277011Y32638294D01*
X-26225500Y32649500D01*
X-25255301Y32649500D01*
X-25188262Y32629815D01*
G37*
%TD.AperFunction*%
%TA.AperFunction,NonConductor*%
G36*
X-18981165Y33667084D02*
G01*
X-18925232Y33625212D01*
X-18900815Y33559748D01*
X-18900499Y33550929D01*
X-18900499Y32002128D01*
X-18896832Y31968020D01*
X-18894091Y31942516D01*
X-18843797Y31807671D01*
X-18843793Y31807664D01*
X-18757547Y31692455D01*
X-18757544Y31692452D01*
X-18642335Y31606206D01*
X-18642328Y31606202D01*
X-18581167Y31583391D01*
X-18525233Y31541520D01*
X-18500816Y31476056D01*
X-18500500Y31467209D01*
X-18500500Y30882790D01*
X-18520185Y30815751D01*
X-18572989Y30769996D01*
X-18581146Y30766616D01*
X-18642331Y30743796D01*
X-18757546Y30657546D01*
X-18843796Y30542331D01*
X-18894091Y30407483D01*
X-18900500Y30347873D01*
X-18900499Y28752128D01*
X-18896154Y28711706D01*
X-18894091Y28692516D01*
X-18843797Y28557671D01*
X-18843793Y28557664D01*
X-18757547Y28442455D01*
X-18757544Y28442452D01*
X-18642335Y28356206D01*
X-18642328Y28356202D01*
X-18581167Y28333391D01*
X-18525233Y28291520D01*
X-18500816Y28226056D01*
X-18500500Y28217209D01*
X-18500500Y23300096D01*
X-18520185Y23233057D01*
X-18536814Y23212420D01*
X-20658506Y21090727D01*
X-20658511Y21090724D01*
X-20668714Y21080520D01*
X-20668716Y21080520D01*
X-20780520Y20968716D01*
X-20815765Y20907669D01*
X-20859577Y20831785D01*
X-20900501Y20679057D01*
X-20900501Y20679054D01*
X-20900501Y20513348D01*
X-20900500Y20513330D01*
X-20900500Y17684410D01*
X-20920185Y17617371D01*
X-20936814Y17596734D01*
X-24379477Y14154070D01*
X-24440798Y14120587D01*
X-24510490Y14125571D01*
X-24554834Y14154070D01*
X-24963181Y14562416D01*
X-24996666Y14623739D01*
X-24999500Y14650097D01*
X-24999500Y22499902D01*
X-24979815Y22566941D01*
X-24963181Y22587583D01*
X-20119481Y27431282D01*
X-20119477Y27431287D01*
X-20056469Y27540422D01*
X-20040424Y27568213D01*
X-20040423Y27568215D01*
X-20026687Y27619479D01*
X-19999499Y27720943D01*
X-19999499Y27879057D01*
X-19999499Y27889046D01*
X-19999500Y27889059D01*
X-19999500Y32699902D01*
X-19979815Y32766941D01*
X-19963181Y32787583D01*
X-19112180Y33638583D01*
X-19050857Y33672068D01*
X-18981165Y33667084D01*
G37*
%TD.AperFunction*%
%TA.AperFunction,NonConductor*%
G36*
X-30657461Y39679815D02*
G01*
X-30611706Y39627011D01*
X-30600500Y39575500D01*
X-30600500Y17724500D01*
X-30620185Y17657461D01*
X-30672989Y17611706D01*
X-30724500Y17600500D01*
X-31070647Y17600500D01*
X-31137686Y17620185D01*
X-31183441Y17672989D01*
X-31186058Y17679157D01*
X-31218432Y17761643D01*
X-31219639Y17763733D01*
X-31286659Y17879815D01*
X-31349614Y17988857D01*
X-31499201Y18176433D01*
X-31513198Y18193985D01*
X-31705520Y18372432D01*
X-31705521Y18372433D01*
X-31922296Y18520228D01*
X-31922302Y18520231D01*
X-31922303Y18520232D01*
X-32086906Y18599500D01*
X-32129301Y18619916D01*
X-32181161Y18666738D01*
X-32199500Y18731636D01*
X-32199500Y19830982D01*
X-32179815Y19898021D01*
X-32127011Y19943776D01*
X-32112051Y19949473D01*
X-32058673Y19965938D01*
X-31822303Y20079767D01*
X-31822302Y20079768D01*
X-31605520Y20227567D01*
X-31413198Y20406014D01*
X-31249614Y20611143D01*
X-31118432Y20838356D01*
X-31022582Y21082578D01*
X-31022576Y21082597D01*
X-30964197Y21338374D01*
X-30964196Y21338379D01*
X-30944592Y21599995D01*
X-30944592Y21600004D01*
X-30964196Y21861620D01*
X-30964197Y21861625D01*
X-30966394Y21871249D01*
X-30977563Y21920185D01*
X-31022576Y22117402D01*
X-31022582Y22117421D01*
X-31055375Y22200975D01*
X-31118432Y22361643D01*
X-31249614Y22588857D01*
X-31381736Y22754533D01*
X-31413198Y22793985D01*
X-31605520Y22972432D01*
X-31605521Y22972433D01*
X-31822296Y23120228D01*
X-31822302Y23120231D01*
X-31822303Y23120232D01*
X-31947843Y23180688D01*
X-32058673Y23234061D01*
X-32058674Y23234061D01*
X-32058677Y23234063D01*
X-32309385Y23311396D01*
X-32568818Y23350500D01*
X-32831182Y23350500D01*
X-33090615Y23311396D01*
X-33341323Y23234063D01*
X-33577704Y23120228D01*
X-33794479Y22972433D01*
X-33895118Y22879054D01*
X-33973545Y22806284D01*
X-33986805Y22793981D01*
X-34150386Y22588857D01*
X-34281568Y22361643D01*
X-34377420Y22117416D01*
X-34435802Y21861630D01*
X-34435802Y21861625D01*
X-34435803Y21861620D01*
X-34455408Y21600004D01*
X-34455408Y21599995D01*
X-34437391Y21359576D01*
X-34435802Y21338370D01*
X-34377420Y21082584D01*
X-34281568Y20838357D01*
X-34150386Y20611143D01*
X-34024633Y20453454D01*
X-33986801Y20406014D01*
X-33858439Y20286913D01*
X-33794479Y20227567D01*
X-33577704Y20079772D01*
X-33577701Y20079771D01*
X-33577699Y20079769D01*
X-33470698Y20028240D01*
X-33418838Y19981417D01*
X-33400500Y19916520D01*
X-33400500Y18731636D01*
X-33420185Y18664597D01*
X-33470698Y18619916D01*
X-33677704Y18520228D01*
X-33894479Y18372433D01*
X-34025892Y18250500D01*
X-34080336Y18199983D01*
X-34086805Y18193981D01*
X-34250386Y17988857D01*
X-34381568Y17761643D01*
X-34477420Y17517416D01*
X-34535802Y17261630D01*
X-34535802Y17261625D01*
X-34535803Y17261620D01*
X-34555408Y17000004D01*
X-34555408Y16999995D01*
X-34535803Y16738379D01*
X-34535802Y16738370D01*
X-34477420Y16482584D01*
X-34381568Y16238357D01*
X-34250386Y16011143D01*
X-34133990Y15865187D01*
X-34086801Y15806014D01*
X-33911960Y15643787D01*
X-33894479Y15627567D01*
X-33677704Y15479772D01*
X-33677700Y15479770D01*
X-33677697Y15479768D01*
X-33677696Y15479767D01*
X-33441325Y15365938D01*
X-33441327Y15365938D01*
X-33190623Y15288606D01*
X-33190619Y15288605D01*
X-33190615Y15288604D01*
X-33065823Y15269794D01*
X-32931187Y15249500D01*
X-32931182Y15249500D01*
X-32668812Y15249500D01*
X-32507247Y15273853D01*
X-32409385Y15288604D01*
X-32409381Y15288605D01*
X-32409376Y15288606D01*
X-32158673Y15365938D01*
X-31922303Y15479767D01*
X-31922302Y15479768D01*
X-31705520Y15627567D01*
X-31513198Y15806014D01*
X-31349614Y16011143D01*
X-31218435Y16238350D01*
X-31218432Y16238357D01*
X-31186073Y16320805D01*
X-31143260Y16376016D01*
X-31077390Y16399317D01*
X-31070647Y16399500D01*
X-30724500Y16399500D01*
X-30657461Y16379815D01*
X-30611706Y16327011D01*
X-30600500Y16275500D01*
X-30600500Y12015405D01*
X-30600501Y12015392D01*
X-30600501Y12005403D01*
X-30600501Y11847289D01*
X-30559577Y11694561D01*
X-30533561Y11649500D01*
X-30504980Y11599995D01*
X-30480520Y11557630D01*
X-30403410Y11480520D01*
X-30364385Y11441495D01*
X-30364374Y11441485D01*
X-26851477Y7928588D01*
X-26817992Y7867265D01*
X-26822976Y7797573D01*
X-26864848Y7741640D01*
X-26886747Y7728528D01*
X-26917829Y7714035D01*
X-27111401Y7578495D01*
X-27139477Y7550417D01*
X-27200797Y7516934D01*
X-27270489Y7521918D01*
X-27314838Y7550419D01*
X-31128793Y11364374D01*
X-31128803Y11364385D01*
X-31133134Y11368716D01*
X-31244938Y11480520D01*
X-31331749Y11530639D01*
X-31331751Y11530641D01*
X-31378497Y11557630D01*
X-31381869Y11559577D01*
X-31534597Y11600501D01*
X-31692711Y11600501D01*
X-31700307Y11600501D01*
X-31700323Y11600500D01*
X-36275500Y11600500D01*
X-36342539Y11620185D01*
X-36388294Y11672989D01*
X-36399500Y11724500D01*
X-36399500Y15413329D01*
X-36399499Y15413347D01*
X-36399499Y15579055D01*
X-36399499Y15579057D01*
X-36437518Y15720943D01*
X-36440423Y15731785D01*
X-36440426Y15731790D01*
X-36519475Y15868709D01*
X-36519481Y15868717D01*
X-39038583Y18387819D01*
X-39072068Y18449142D01*
X-39067084Y18518834D01*
X-39025212Y18574767D01*
X-38959748Y18599184D01*
X-38950902Y18599500D01*
X-38279353Y18599500D01*
X-38212314Y18579815D01*
X-38166559Y18527011D01*
X-38163941Y18520842D01*
X-38131568Y18438357D01*
X-38000386Y18211143D01*
X-37847540Y18019480D01*
X-37836801Y18006014D01*
X-37660521Y17842452D01*
X-37644479Y17827567D01*
X-37427704Y17679772D01*
X-37427700Y17679770D01*
X-37427697Y17679768D01*
X-37427696Y17679767D01*
X-37191325Y17565938D01*
X-37191327Y17565938D01*
X-36940623Y17488606D01*
X-36940619Y17488605D01*
X-36940615Y17488604D01*
X-36817440Y17470038D01*
X-36681187Y17449500D01*
X-36681182Y17449500D01*
X-36418812Y17449500D01*
X-36257247Y17473853D01*
X-36159385Y17488604D01*
X-36159381Y17488605D01*
X-36159376Y17488606D01*
X-35908673Y17565938D01*
X-35672303Y17679767D01*
X-35672302Y17679768D01*
X-35670251Y17681166D01*
X-35568032Y17750858D01*
X-35455520Y17827567D01*
X-35263198Y18006014D01*
X-35099614Y18211143D01*
X-34968432Y18438356D01*
X-34872582Y18682578D01*
X-34872576Y18682597D01*
X-34814197Y18938374D01*
X-34814196Y18938379D01*
X-34794592Y19199995D01*
X-34794592Y19200004D01*
X-34814196Y19461620D01*
X-34814197Y19461625D01*
X-34815957Y19469334D01*
X-34836308Y19558501D01*
X-34872576Y19717402D01*
X-34872582Y19717421D01*
X-34884534Y19747873D01*
X-34968432Y19961643D01*
X-35099614Y20188857D01*
X-35263195Y20393981D01*
X-35263198Y20393985D01*
X-35455520Y20572432D01*
X-35455521Y20572433D01*
X-35672296Y20720228D01*
X-35672302Y20720231D01*
X-35672303Y20720232D01*
X-35828982Y20795684D01*
X-35908673Y20834061D01*
X-35908674Y20834061D01*
X-35908677Y20834063D01*
X-36159385Y20911396D01*
X-36418818Y20950500D01*
X-36681182Y20950500D01*
X-36940615Y20911396D01*
X-37191323Y20834063D01*
X-37427704Y20720228D01*
X-37644479Y20572433D01*
X-37772708Y20453454D01*
X-37823836Y20406014D01*
X-37836805Y20393981D01*
X-38000386Y20188857D01*
X-38131568Y19961643D01*
X-38163926Y19879194D01*
X-38206740Y19823984D01*
X-38272610Y19800683D01*
X-38279353Y19800500D01*
X-39220943Y19800500D01*
X-39379058Y19800500D01*
X-39419981Y19789534D01*
X-39531784Y19759577D01*
X-39668716Y19680520D01*
X-39780520Y19568716D01*
X-39780520Y19568714D01*
X-39790724Y19558511D01*
X-39790727Y19558506D01*
X-40123735Y19225500D01*
X-40212416Y19136819D01*
X-40273739Y19103334D01*
X-40300097Y19100500D01*
X-40775500Y19100500D01*
X-40842539Y19120185D01*
X-40888294Y19172989D01*
X-40899500Y19224500D01*
X-40899500Y30913329D01*
X-40899499Y30913347D01*
X-40899499Y31079055D01*
X-40899499Y31079057D01*
X-40936905Y31218656D01*
X-40940423Y31231785D01*
X-40940426Y31231790D01*
X-41019475Y31368709D01*
X-41019481Y31368717D01*
X-41519480Y31868716D01*
X-43340139Y33689374D01*
X-43340149Y33689385D01*
X-43397670Y33746906D01*
X-43456284Y33805520D01*
X-43456286Y33805521D01*
X-43456290Y33805524D01*
X-43571560Y33872075D01*
X-43571563Y33872076D01*
X-43571565Y33872077D01*
X-43593215Y33884577D01*
X-43745943Y33925501D01*
X-43904057Y33925501D01*
X-43911653Y33925501D01*
X-43911669Y33925500D01*
X-44807492Y33925500D01*
X-44874531Y33945185D01*
X-44913031Y33984403D01*
X-44913701Y33985489D01*
X-44957288Y34056156D01*
X-45081344Y34180212D01*
X-45086451Y34185319D01*
X-45084933Y34186836D01*
X-45119217Y34235249D01*
X-45122360Y34305048D01*
X-45087267Y34365466D01*
X-45025081Y34397320D01*
X-45001932Y34399500D01*
X-41600097Y34399500D01*
X-41533058Y34379815D01*
X-41512416Y34363181D01*
X-39849318Y32700083D01*
X-39815833Y32638760D01*
X-39812999Y32612402D01*
X-39812999Y31999998D01*
X-39812998Y31999981D01*
X-39811010Y31980521D01*
X-39802499Y31897203D01*
X-39747314Y31730666D01*
X-39655212Y31581344D01*
X-39655210Y31581342D01*
X-39531155Y31457287D01*
X-39459402Y31413029D01*
X-39412678Y31361081D01*
X-39400500Y31307491D01*
X-39400500Y28692507D01*
X-39420185Y28625468D01*
X-39459403Y28586968D01*
X-39531156Y28542712D01*
X-39655212Y28418656D01*
X-39747314Y28269334D01*
X-39802499Y28102797D01*
X-39813000Y28000009D01*
X-39812999Y26999992D01*
X-39802499Y26897203D01*
X-39747314Y26730666D01*
X-39655212Y26581344D01*
X-39655210Y26581342D01*
X-39531155Y26457287D01*
X-39459402Y26413029D01*
X-39412678Y26361081D01*
X-39400500Y26307491D01*
X-39400500Y23692507D01*
X-39420185Y23625468D01*
X-39459403Y23586968D01*
X-39531156Y23542712D01*
X-39655212Y23418656D01*
X-39747314Y23269334D01*
X-39802499Y23102797D01*
X-39813000Y23000009D01*
X-39812999Y22499902D01*
X-39812999Y21999998D01*
X-39812998Y21999980D01*
X-39802836Y21900500D01*
X-39802499Y21897203D01*
X-39747314Y21730666D01*
X-39655212Y21581344D01*
X-39531156Y21457288D01*
X-39477549Y21424223D01*
X-39383054Y21365938D01*
X-39381834Y21365186D01*
X-39215297Y21310001D01*
X-39215295Y21310000D01*
X-39112510Y21299500D01*
X-39112509Y21299500D01*
X-38487498Y21299500D01*
X-38487480Y21299501D01*
X-38384703Y21310000D01*
X-38384700Y21310001D01*
X-38218168Y21365185D01*
X-38218163Y21365187D01*
X-38068842Y21457289D01*
X-37975181Y21550951D01*
X-37913858Y21584436D01*
X-37844166Y21579452D01*
X-37799819Y21550951D01*
X-37706156Y21457288D01*
X-37652549Y21424223D01*
X-37558054Y21365938D01*
X-37556834Y21365186D01*
X-37390297Y21310001D01*
X-37390295Y21310000D01*
X-37287510Y21299500D01*
X-37287509Y21299500D01*
X-36662498Y21299500D01*
X-36662480Y21299501D01*
X-36559703Y21310000D01*
X-36559700Y21310001D01*
X-36393168Y21365185D01*
X-36393163Y21365187D01*
X-36243842Y21457289D01*
X-36119789Y21581342D01*
X-36027687Y21730663D01*
X-36027685Y21730668D01*
X-35984292Y21861620D01*
X-35972501Y21897203D01*
X-35972501Y21897204D01*
X-35972500Y21897204D01*
X-35962000Y21999983D01*
X-35962000Y22612402D01*
X-35942315Y22679441D01*
X-35925681Y22700083D01*
X-35819481Y22806282D01*
X-35819479Y22806285D01*
X-35757678Y22913330D01*
X-35754127Y22919480D01*
X-35751668Y22923739D01*
X-35740423Y22943214D01*
X-35704904Y23075776D01*
X-35699500Y23095943D01*
X-35699500Y23254057D01*
X-35699500Y23627756D01*
X-35679815Y23694795D01*
X-35627011Y23740550D01*
X-35562247Y23751045D01*
X-35547873Y23749500D01*
X-35547864Y23749500D01*
X-34452129Y23749500D01*
X-34452123Y23749501D01*
X-34392516Y23755908D01*
X-34257671Y23806202D01*
X-34257664Y23806206D01*
X-34142455Y23892452D01*
X-34142452Y23892455D01*
X-34056206Y24007664D01*
X-34056202Y24007671D01*
X-34005908Y24142517D01*
X-33999501Y24202116D01*
X-33999500Y24202119D01*
X-33999500Y24202127D01*
X-33999500Y24952569D01*
X-33999500Y25797870D01*
X-33999501Y25797876D01*
X-34005908Y25857483D01*
X-34056202Y25992328D01*
X-34056206Y25992335D01*
X-34142452Y26107544D01*
X-34142455Y26107547D01*
X-34257664Y26193793D01*
X-34257669Y26193796D01*
X-34318833Y26216608D01*
X-34374766Y26258478D01*
X-34399184Y26323942D01*
X-34399500Y26332790D01*
X-34399500Y28667209D01*
X-34379815Y28734248D01*
X-34327011Y28780003D01*
X-34318833Y28783391D01*
X-34257671Y28806202D01*
X-34257664Y28806206D01*
X-34142455Y28892452D01*
X-34142452Y28892455D01*
X-34056206Y29007664D01*
X-34056202Y29007671D01*
X-34005908Y29142517D01*
X-33999501Y29202116D01*
X-33999500Y29202119D01*
X-33999500Y29202127D01*
X-33999500Y29976000D01*
X-33999500Y30797870D01*
X-33999501Y30797876D01*
X-34005908Y30857483D01*
X-34056202Y30992328D01*
X-34056206Y30992335D01*
X-34142452Y31107544D01*
X-34142455Y31107547D01*
X-34257664Y31193793D01*
X-34257669Y31193796D01*
X-34260471Y31194841D01*
X-34318833Y31216608D01*
X-34374766Y31258478D01*
X-34399184Y31323942D01*
X-34399500Y31332790D01*
X-34399500Y33667209D01*
X-34379815Y33734248D01*
X-34327011Y33780003D01*
X-34318833Y33783391D01*
X-34257671Y33806202D01*
X-34257664Y33806206D01*
X-34142455Y33892452D01*
X-34142452Y33892455D01*
X-34056206Y34007664D01*
X-34056202Y34007671D01*
X-34005908Y34142517D01*
X-33999501Y34202116D01*
X-33999500Y34202119D01*
X-33999500Y34202127D01*
X-33999500Y34997078D01*
X-33999500Y35797870D01*
X-33999501Y35797876D01*
X-34005909Y35857485D01*
X-34024439Y35907168D01*
X-34029423Y35976860D01*
X-33995937Y36038183D01*
X-33934613Y36071667D01*
X-33908257Y36074500D01*
X-33499998Y36074500D01*
X-33499980Y36074501D01*
X-33397203Y36085000D01*
X-33397200Y36085001D01*
X-33230668Y36140185D01*
X-33230663Y36140187D01*
X-33081342Y36232289D01*
X-32957289Y36356342D01*
X-32865187Y36505663D01*
X-32865185Y36505668D01*
X-32831825Y36606344D01*
X-32810001Y36672203D01*
X-32810001Y36672204D01*
X-32810000Y36672204D01*
X-32799500Y36774983D01*
X-32799500Y37400001D01*
X-32799501Y37400019D01*
X-32810000Y37502796D01*
X-32810001Y37502799D01*
X-32865185Y37669331D01*
X-32865187Y37669336D01*
X-32913644Y37747898D01*
X-32957288Y37818656D01*
X-33050951Y37912319D01*
X-33084436Y37973642D01*
X-33079452Y38043334D01*
X-33050951Y38087681D01*
X-32957289Y38181342D01*
X-32865187Y38330663D01*
X-32865185Y38330668D01*
X-32810001Y38497201D01*
X-32809998Y38497215D01*
X-32809526Y38501842D01*
X-32783126Y38566532D01*
X-32773850Y38576913D01*
X-31687581Y39663181D01*
X-31626258Y39696666D01*
X-31599900Y39699500D01*
X-30724500Y39699500D01*
X-30657461Y39679815D01*
G37*
%TD.AperFunction*%
%TA.AperFunction,NonConductor*%
G36*
X-8645558Y43879815D02*
G01*
X-8624916Y43863181D01*
X-6211818Y41450083D01*
X-6178333Y41388760D01*
X-6175499Y41362402D01*
X-6175499Y40749998D01*
X-6175498Y40749981D01*
X-6170571Y40701745D01*
X-6164999Y40647203D01*
X-6109814Y40480666D01*
X-6017712Y40331344D01*
X-5893656Y40207288D01*
X-5865624Y40189998D01*
X-5791849Y40144493D01*
X-5744334Y40115186D01*
X-5577797Y40060001D01*
X-5577795Y40060000D01*
X-5475010Y40049500D01*
X-5475009Y40049500D01*
X-4849998Y40049500D01*
X-4849980Y40049501D01*
X-4747203Y40060000D01*
X-4747200Y40060001D01*
X-4580668Y40115185D01*
X-4580663Y40115187D01*
X-4431342Y40207289D01*
X-4337681Y40300951D01*
X-4276358Y40334436D01*
X-4206666Y40329452D01*
X-4162319Y40300951D01*
X-4068656Y40207288D01*
X-4040624Y40189998D01*
X-3966849Y40144493D01*
X-3919334Y40115186D01*
X-3752797Y40060001D01*
X-3752795Y40060000D01*
X-3650010Y40049500D01*
X-3650009Y40049500D01*
X-3024998Y40049500D01*
X-3024980Y40049501D01*
X-2922203Y40060000D01*
X-2922200Y40060001D01*
X-2755668Y40115185D01*
X-2755663Y40115187D01*
X-2606342Y40207289D01*
X-2482289Y40331342D01*
X-2390187Y40480663D01*
X-2390185Y40480668D01*
X-2350477Y40600501D01*
X-2335001Y40647203D01*
X-2335001Y40647204D01*
X-2335000Y40647204D01*
X-2324500Y40749983D01*
X-2324500Y41750001D01*
X-2324501Y41750019D01*
X-2335000Y41852796D01*
X-2335001Y41852799D01*
X-2390185Y42019331D01*
X-2390186Y42019334D01*
X-2392602Y42023251D01*
X-2411038Y42090645D01*
X-2390111Y42157307D01*
X-2374740Y42176023D01*
X-2087582Y42463181D01*
X-2026259Y42496666D01*
X-1999901Y42499500D01*
X-1102129Y42499500D01*
X-1102123Y42499501D01*
X-1042520Y42505908D01*
X-1034974Y42507692D01*
X-1034628Y42506230D01*
X-973622Y42510584D01*
X-958600Y42506172D01*
X-957482Y42505908D01*
X-897883Y42499501D01*
X-897881Y42499500D01*
X-897873Y42499500D01*
X-897864Y42499500D01*
X197870Y42499500D01*
X197876Y42499501D01*
X257483Y42505908D01*
X392328Y42556202D01*
X392335Y42556206D01*
X507544Y42642452D01*
X507547Y42642455D01*
X593793Y42757664D01*
X593797Y42757671D01*
X644091Y42892517D01*
X646123Y42911416D01*
X650500Y42952127D01*
X650499Y43644895D01*
X670183Y43711933D01*
X722987Y43757688D01*
X792146Y43767632D01*
X855702Y43738607D01*
X880033Y43709999D01*
X882286Y43706345D01*
X1006342Y43582289D01*
X1155663Y43490187D01*
X1155668Y43490185D01*
X1207904Y43472876D01*
X1322203Y43435001D01*
X1322204Y43435000D01*
X1424983Y43424500D01*
X1424991Y43424500D01*
X1763000Y43424500D01*
X1830039Y43404815D01*
X1875794Y43352011D01*
X1887000Y43300500D01*
X1887000Y42942507D01*
X1867315Y42875468D01*
X1828096Y42836968D01*
X1756344Y42792712D01*
X1632288Y42668656D01*
X1594556Y42607482D01*
X1554796Y42543020D01*
X1540186Y42519334D01*
X1485001Y42352797D01*
X1485001Y42352795D01*
X1485000Y42352795D01*
X1474500Y42250016D01*
X1474500Y42250009D01*
X1474500Y41750001D01*
X1474501Y41250000D01*
X1474501Y41249980D01*
X1485000Y41147203D01*
X1485001Y41147200D01*
X1540185Y40980668D01*
X1540187Y40980663D01*
X1632289Y40831342D01*
X1756343Y40707288D01*
X1756347Y40707285D01*
X1828096Y40663030D01*
X1874821Y40611082D01*
X1886999Y40557492D01*
X1886999Y40395945D01*
X1886998Y40395945D01*
X1904309Y40331342D01*
X1924279Y40256813D01*
X1927924Y40243212D01*
X1927923Y40243212D01*
X1934523Y40231783D01*
X1934524Y40231782D01*
X2006977Y40106287D01*
X2006981Y40106282D01*
X2118786Y39994478D01*
X5155554Y36957709D01*
X5189039Y36896386D01*
X5186950Y36835435D01*
X5177403Y36802572D01*
X5177401Y36802563D01*
X5174500Y36765701D01*
X5174500Y36334298D01*
X5177401Y36297432D01*
X5177402Y36297426D01*
X5223254Y36139606D01*
X5223255Y36139603D01*
X5306917Y35998137D01*
X5306923Y35998129D01*
X5423129Y35881923D01*
X5423137Y35881917D01*
X5564603Y35798255D01*
X5564606Y35798254D01*
X5722426Y35752402D01*
X5722432Y35752401D01*
X5759298Y35749500D01*
X5759306Y35749500D01*
X7065701Y35749500D01*
X7102567Y35752401D01*
X7102573Y35752402D01*
X7260393Y35798254D01*
X7260396Y35798255D01*
X7273153Y35805799D01*
X7401865Y35881919D01*
X7401866Y35881920D01*
X7401870Y35881923D01*
X7518076Y35998129D01*
X7518079Y35998133D01*
X7518081Y35998135D01*
X7601744Y36139602D01*
X7621465Y36207482D01*
X7647597Y36297426D01*
X7647598Y36297432D01*
X7648236Y36305540D01*
X7650500Y36334306D01*
X7650500Y36575500D01*
X7670185Y36642539D01*
X7722989Y36688294D01*
X7774500Y36699500D01*
X8940701Y36699500D01*
X8977567Y36702401D01*
X8977573Y36702402D01*
X9135393Y36748254D01*
X9135396Y36748255D01*
X9147923Y36755663D01*
X9276865Y36831919D01*
X9276866Y36831920D01*
X9276870Y36831923D01*
X9308126Y36863180D01*
X9369448Y36896666D01*
X9395808Y36899500D01*
X9800500Y36899500D01*
X9867539Y36879815D01*
X9913294Y36827011D01*
X9924500Y36775500D01*
X9924501Y35474500D01*
X9904816Y35407461D01*
X9852013Y35361706D01*
X9800501Y35350500D01*
X2029057Y35350500D01*
X1870942Y35350500D01*
X1830019Y35339534D01*
X1718216Y35309577D01*
X1718209Y35309573D01*
X1581290Y35230524D01*
X1581286Y35230521D01*
X1581284Y35230520D01*
X1510667Y35159903D01*
X1465149Y35114385D01*
X1465139Y35114374D01*
X881284Y34530519D01*
X769481Y34418716D01*
X690423Y34281785D01*
X649499Y34129057D01*
X649499Y34129054D01*
X649499Y33970945D01*
X649498Y33970945D01*
X690424Y33818210D01*
X690425Y33818209D01*
X710692Y33783105D01*
X727163Y33715205D01*
X704310Y33649178D01*
X668400Y33615568D01*
X631344Y33592712D01*
X631343Y33592711D01*
X537681Y33499049D01*
X476358Y33465564D01*
X406666Y33470548D01*
X362319Y33499049D01*
X318656Y33542712D01*
X268656Y33592712D01*
X119334Y33684814D01*
X-47203Y33739999D01*
X-149991Y33750500D01*
X-725500Y33750499D01*
X-792539Y33770183D01*
X-838294Y33822987D01*
X-849500Y33874499D01*
X-849500Y34017209D01*
X-829815Y34084248D01*
X-777011Y34130003D01*
X-768833Y34133391D01*
X-707671Y34156202D01*
X-707664Y34156206D01*
X-592455Y34242452D01*
X-592452Y34242455D01*
X-506206Y34357664D01*
X-506202Y34357671D01*
X-455908Y34492517D01*
X-449501Y34552116D01*
X-449500Y34552119D01*
X-449500Y34552127D01*
X-449500Y35339534D01*
X-449500Y36147870D01*
X-449501Y36147876D01*
X-455908Y36207483D01*
X-506202Y36342328D01*
X-506206Y36342335D01*
X-592452Y36457544D01*
X-592455Y36457547D01*
X-707664Y36543793D01*
X-707671Y36543797D01*
X-842517Y36594091D01*
X-842516Y36594091D01*
X-848925Y36594779D01*
X-902127Y36600500D01*
X-1997872Y36600499D01*
X-2057483Y36594091D01*
X-2057485Y36594090D01*
X-2057487Y36594090D01*
X-2065031Y36592308D01*
X-2065377Y36593775D01*
X-2126342Y36589408D01*
X-2141378Y36593822D01*
X-2142513Y36594089D01*
X-2142517Y36594091D01*
X-2202127Y36600500D01*
X-3297872Y36600499D01*
X-3357483Y36594091D01*
X-3492331Y36543796D01*
X-3607546Y36457546D01*
X-3693796Y36342331D01*
X-3744091Y36207483D01*
X-3750500Y36147873D01*
X-3750499Y34552128D01*
X-3746853Y34518209D01*
X-3744091Y34492516D01*
X-3693797Y34357671D01*
X-3693793Y34357664D01*
X-3607547Y34242455D01*
X-3607544Y34242452D01*
X-3492335Y34156206D01*
X-3492332Y34156205D01*
X-3492331Y34156204D01*
X-3481161Y34152038D01*
X-3425231Y34110166D01*
X-3400816Y34044701D01*
X-3400500Y34035858D01*
X-3400500Y31282790D01*
X-3420185Y31215751D01*
X-3472989Y31169996D01*
X-3481146Y31166616D01*
X-3542331Y31143796D01*
X-3657546Y31057546D01*
X-3743796Y30942331D01*
X-3794091Y30807483D01*
X-3800500Y30747873D01*
X-3800499Y29152128D01*
X-3798324Y29131896D01*
X-3794091Y29092516D01*
X-3743797Y28957671D01*
X-3743793Y28957664D01*
X-3657547Y28842455D01*
X-3657544Y28842452D01*
X-3542334Y28756205D01*
X-3534551Y28751956D01*
X-3535355Y28750483D01*
X-3487725Y28714820D01*
X-3463315Y28649353D01*
X-3463000Y28640520D01*
X-3463000Y26082790D01*
X-3482685Y26015751D01*
X-3535489Y25969996D01*
X-3543646Y25966616D01*
X-3604831Y25943796D01*
X-3720046Y25857546D01*
X-3806296Y25742331D01*
X-3856591Y25607483D01*
X-3863000Y25547873D01*
X-3863000Y25547864D01*
X-3863000Y25474500D01*
X-3882685Y25407461D01*
X-3935489Y25361706D01*
X-3987000Y25350500D01*
X-6729015Y25350500D01*
X-6729031Y25350501D01*
X-6736627Y25350501D01*
X-6894742Y25350501D01*
X-7047469Y25309577D01*
X-7184401Y25230520D01*
X-16858506Y15556412D01*
X-16858511Y15556409D01*
X-16868714Y15546205D01*
X-16868716Y15546205D01*
X-16980520Y15434401D01*
X-17014819Y15374992D01*
X-17059577Y15297470D01*
X-17100501Y15144742D01*
X-17100501Y15144739D01*
X-17100501Y14979033D01*
X-17100500Y14979015D01*
X-17100500Y12170943D01*
X-17059577Y12018216D01*
X-17059573Y12018209D01*
X-16980524Y11881290D01*
X-16980518Y11881282D01*
X-16868717Y11769481D01*
X-16868709Y11769475D01*
X-16731790Y11690426D01*
X-16731786Y11690424D01*
X-16731784Y11690423D01*
X-16579057Y11649500D01*
X-16579056Y11649500D01*
X-16420943Y11649500D01*
X-16268216Y11690423D01*
X-16268209Y11690426D01*
X-16131290Y11769475D01*
X-16131282Y11769481D01*
X-16019481Y11881282D01*
X-16019475Y11881290D01*
X-15940426Y12018209D01*
X-15940423Y12018216D01*
X-15899500Y12170943D01*
X-15899500Y14765586D01*
X-15879815Y14832625D01*
X-15863181Y14853267D01*
X-8154367Y22562080D01*
X-8093044Y22595565D01*
X-8023352Y22590581D01*
X-7967419Y22548709D01*
X-7943002Y22483245D01*
X-7943032Y22465136D01*
X-7949427Y22379815D01*
X-7955408Y22300003D01*
X-7955408Y22299995D01*
X-7935803Y22038379D01*
X-7935802Y22038370D01*
X-7877420Y21782584D01*
X-7781568Y21538357D01*
X-7650386Y21311143D01*
X-7531769Y21162402D01*
X-7486801Y21106014D01*
X-7338826Y20968715D01*
X-7294479Y20927567D01*
X-7077704Y20779772D01*
X-7077700Y20779770D01*
X-7077697Y20779768D01*
X-7077696Y20779767D01*
X-6841325Y20665938D01*
X-6841327Y20665938D01*
X-6590623Y20588606D01*
X-6590619Y20588605D01*
X-6590615Y20588604D01*
X-6465823Y20569794D01*
X-6331187Y20549500D01*
X-6331182Y20549500D01*
X-6068812Y20549500D01*
X-5896323Y20575500D01*
X-5809385Y20588604D01*
X-5809381Y20588605D01*
X-5809376Y20588606D01*
X-5558678Y20665936D01*
X-5541083Y20674409D01*
X-5472141Y20685759D01*
X-5408008Y20658034D01*
X-5399604Y20650368D01*
X-5186916Y20437680D01*
X-5153431Y20376357D01*
X-5158415Y20306665D01*
X-5186915Y20262318D01*
X-9903029Y15546206D01*
X-14612416Y10836819D01*
X-14673739Y10803334D01*
X-14700097Y10800500D01*
X-20879057Y10800500D01*
X-21031784Y10759577D01*
X-21168716Y10680520D01*
X-21280520Y10568716D01*
X-21359577Y10431784D01*
X-21400500Y10279057D01*
X-21400500Y10120943D01*
X-21359577Y9968216D01*
X-21359573Y9968209D01*
X-21280524Y9831290D01*
X-21280518Y9831282D01*
X-21168717Y9719481D01*
X-21168709Y9719475D01*
X-21031790Y9640426D01*
X-21031786Y9640424D01*
X-21031784Y9640423D01*
X-20879057Y9599500D01*
X-14486669Y9599500D01*
X-14486653Y9599499D01*
X-14479057Y9599499D01*
X-14320946Y9599499D01*
X-14320943Y9599499D01*
X-14213587Y9628265D01*
X-14168210Y9640424D01*
X-14168209Y9640425D01*
X-14118096Y9669359D01*
X-14118095Y9669360D01*
X-14074689Y9694420D01*
X-14031285Y9719479D01*
X-14031282Y9719481D01*
X-13919478Y9831286D01*
X-8764136Y14986628D01*
X-3587583Y20163181D01*
X-3526261Y20196666D01*
X-3499903Y20199500D01*
X-2649001Y20199500D01*
X-2581962Y20179815D01*
X-2536207Y20127011D01*
X-2526263Y20057853D01*
X-2549734Y20001189D01*
X-2593796Y19942331D01*
X-2644091Y19807483D01*
X-2650500Y19747873D01*
X-2650499Y18938379D01*
X-2650499Y18152124D01*
X-2644091Y18092516D01*
X-2593797Y17957671D01*
X-2593793Y17957664D01*
X-2507547Y17842455D01*
X-2507544Y17842452D01*
X-2392335Y17756206D01*
X-2392328Y17756202D01*
X-2257482Y17705908D01*
X-2249938Y17704126D01*
X-2250474Y17701853D01*
X-2196688Y17679571D01*
X-2156843Y17622177D01*
X-2150500Y17583024D01*
X-2150500Y17401439D01*
X-2170185Y17334400D01*
X-2222989Y17288645D01*
X-2231166Y17285257D01*
X-2342331Y17243796D01*
X-2457546Y17157546D01*
X-2543796Y17042331D01*
X-2594091Y16907483D01*
X-2600500Y16847873D01*
X-2600500Y16847864D01*
X-2600500Y16624500D01*
X-2620185Y16557461D01*
X-2672989Y16511706D01*
X-2724500Y16500500D01*
X-2820647Y16500500D01*
X-2887686Y16520185D01*
X-2933441Y16572989D01*
X-2936058Y16579157D01*
X-2968432Y16661643D01*
X-2973364Y16670185D01*
X-3033590Y16774500D01*
X-3099614Y16888857D01*
X-3263195Y17093981D01*
X-3263198Y17093985D01*
X-3455520Y17272432D01*
X-3470567Y17282691D01*
X-3672296Y17420228D01*
X-3672302Y17420231D01*
X-3672303Y17420232D01*
X-3797843Y17480688D01*
X-3908673Y17534061D01*
X-3908674Y17534061D01*
X-3908677Y17534063D01*
X-4159385Y17611396D01*
X-4418818Y17650500D01*
X-4681182Y17650500D01*
X-4940615Y17611396D01*
X-5191323Y17534063D01*
X-5355603Y17454950D01*
X-5404949Y17431186D01*
X-5427704Y17420228D01*
X-5644479Y17272433D01*
X-5836805Y17093981D01*
X-6000386Y16888857D01*
X-6131568Y16661643D01*
X-6227420Y16417416D01*
X-6285802Y16161630D01*
X-6285802Y16161625D01*
X-6285803Y16161620D01*
X-6305408Y15900004D01*
X-6305408Y15899995D01*
X-6288108Y15669142D01*
X-6285802Y15638370D01*
X-6227420Y15382584D01*
X-6169488Y15234976D01*
X-6163320Y15165384D01*
X-6195758Y15103500D01*
X-6197176Y15102057D01*
X-6758504Y14540730D01*
X-6758507Y14540728D01*
X-6768714Y14530520D01*
X-6768716Y14530520D01*
X-6880520Y14418716D01*
X-6930639Y14331904D01*
X-6959577Y14281785D01*
X-7000501Y14129057D01*
X-7000501Y14129054D01*
X-7000501Y13963348D01*
X-7000500Y13963330D01*
X-7000500Y13331636D01*
X-7020185Y13264597D01*
X-7070698Y13219916D01*
X-7277704Y13120228D01*
X-7494479Y12972433D01*
X-7686805Y12793981D01*
X-7850386Y12588857D01*
X-7981568Y12361643D01*
X-8077420Y12117416D01*
X-8135802Y11861630D01*
X-8135802Y11861625D01*
X-8135803Y11861620D01*
X-8155408Y11600004D01*
X-8155408Y11599995D01*
X-8138076Y11368716D01*
X-8135802Y11338370D01*
X-8077420Y11082584D01*
X-7981568Y10838357D01*
X-7850386Y10611143D01*
X-7777287Y10519480D01*
X-7686801Y10406014D01*
X-7549971Y10279056D01*
X-7494479Y10227567D01*
X-7277704Y10079772D01*
X-7277700Y10079770D01*
X-7277697Y10079768D01*
X-7277696Y10079767D01*
X-7041325Y9965938D01*
X-7041327Y9965938D01*
X-6790623Y9888606D01*
X-6790619Y9888605D01*
X-6790615Y9888604D01*
X-6665823Y9869794D01*
X-6531187Y9849500D01*
X-6531182Y9849500D01*
X-6268812Y9849500D01*
X-6107247Y9873853D01*
X-6009385Y9888604D01*
X-6009381Y9888605D01*
X-6009376Y9888606D01*
X-5758673Y9965938D01*
X-5522303Y10079767D01*
X-5522302Y10079768D01*
X-5305520Y10227567D01*
X-5113198Y10406014D01*
X-4949614Y10611143D01*
X-4818432Y10838356D01*
X-4722582Y11082578D01*
X-4722576Y11082597D01*
X-4664197Y11338374D01*
X-4664196Y11338379D01*
X-4644592Y11599995D01*
X-4644592Y11600004D01*
X-4664196Y11861620D01*
X-4664197Y11861625D01*
X-4668684Y11881282D01*
X-4672914Y11899818D01*
X-4722576Y12117402D01*
X-4722582Y12117421D01*
X-4818432Y12361643D01*
X-4949614Y12588857D01*
X-5113195Y12793981D01*
X-5113198Y12793985D01*
X-5305520Y12972432D01*
X-5305521Y12972433D01*
X-5522296Y13120228D01*
X-5522302Y13120231D01*
X-5522303Y13120232D01*
X-5666301Y13189577D01*
X-5729301Y13219916D01*
X-5781161Y13266738D01*
X-5799500Y13331636D01*
X-5799500Y13749902D01*
X-5779815Y13816941D01*
X-5763181Y13837583D01*
X-5350395Y14250368D01*
X-5289072Y14283853D01*
X-5219380Y14278869D01*
X-5208916Y14274409D01*
X-5191324Y14265937D01*
X-4940623Y14188606D01*
X-4940619Y14188605D01*
X-4940615Y14188604D01*
X-4815823Y14169794D01*
X-4681187Y14149500D01*
X-4681182Y14149500D01*
X-4418812Y14149500D01*
X-4257247Y14173853D01*
X-4159385Y14188604D01*
X-4159381Y14188605D01*
X-4159376Y14188606D01*
X-3908673Y14265938D01*
X-3672303Y14379767D01*
X-3672302Y14379768D01*
X-3455520Y14527567D01*
X-3263198Y14706014D01*
X-3099614Y14911143D01*
X-2968435Y15138350D01*
X-2967583Y15140520D01*
X-2936073Y15220805D01*
X-2893260Y15276016D01*
X-2827390Y15299317D01*
X-2820647Y15299500D01*
X-2716977Y15299500D01*
X-2649938Y15279815D01*
X-2604183Y15227011D01*
X-2596733Y15199865D01*
X-2595876Y15200068D01*
X-2594092Y15192520D01*
X-2594091Y15192517D01*
X-2587588Y15175081D01*
X-2543797Y15057671D01*
X-2543793Y15057664D01*
X-2457547Y14942455D01*
X-2457544Y14942452D01*
X-2342335Y14856206D01*
X-2342328Y14856202D01*
X-2207482Y14805908D01*
X-2199938Y14804126D01*
X-2200474Y14801853D01*
X-2146688Y14779571D01*
X-2106843Y14722177D01*
X-2100500Y14683024D01*
X-2100500Y7460488D01*
X-2120185Y7393449D01*
X-2172989Y7347694D01*
X-2242147Y7337750D01*
X-2305703Y7366775D01*
X-2326075Y7389365D01*
X-2341505Y7411402D01*
X-2508597Y7578493D01*
X-2508598Y7578494D01*
X-2508599Y7578495D01*
X-2605384Y7646265D01*
X-2702165Y7714032D01*
X-2702169Y7714034D01*
X-2702170Y7714035D01*
X-2916337Y7813903D01*
X-3144592Y7875063D01*
X-3332918Y7891539D01*
X-3379999Y7895659D01*
X-3380001Y7895659D01*
X-3419234Y7892226D01*
X-3615408Y7875063D01*
X-3843663Y7813903D01*
X-4057829Y7714035D01*
X-4251401Y7578495D01*
X-4418495Y7411401D01*
X-4548426Y7225838D01*
X-4603001Y7182215D01*
X-4672500Y7175021D01*
X-4734855Y7206543D01*
X-4751571Y7225836D01*
X-4881505Y7411401D01*
X-5048599Y7578495D01*
X-5145384Y7646265D01*
X-5242165Y7714032D01*
X-5242169Y7714034D01*
X-5242170Y7714035D01*
X-5456337Y7813903D01*
X-5684592Y7875063D01*
X-5872918Y7891539D01*
X-5919999Y7895659D01*
X-5920001Y7895659D01*
X-5959234Y7892226D01*
X-6155408Y7875063D01*
X-6383663Y7813903D01*
X-6597829Y7714035D01*
X-6791401Y7578495D01*
X-6958495Y7411401D01*
X-7088426Y7225838D01*
X-7143001Y7182215D01*
X-7212500Y7175021D01*
X-7274855Y7206543D01*
X-7291571Y7225836D01*
X-7421505Y7411401D01*
X-7588599Y7578495D01*
X-7685384Y7646265D01*
X-7782165Y7714032D01*
X-7782169Y7714034D01*
X-7782170Y7714035D01*
X-7996337Y7813903D01*
X-8224592Y7875063D01*
X-8412918Y7891539D01*
X-8459999Y7895659D01*
X-8460001Y7895659D01*
X-8499234Y7892226D01*
X-8695408Y7875063D01*
X-8923663Y7813903D01*
X-9137829Y7714035D01*
X-9331401Y7578495D01*
X-9498495Y7411401D01*
X-9628426Y7225838D01*
X-9683001Y7182215D01*
X-9752500Y7175021D01*
X-9814855Y7206543D01*
X-9831571Y7225836D01*
X-9961505Y7411401D01*
X-10128599Y7578495D01*
X-10225384Y7646265D01*
X-10322165Y7714032D01*
X-10322169Y7714034D01*
X-10322170Y7714035D01*
X-10536337Y7813903D01*
X-10764592Y7875063D01*
X-10952918Y7891539D01*
X-10999999Y7895659D01*
X-11000001Y7895659D01*
X-11039234Y7892226D01*
X-11235408Y7875063D01*
X-11463663Y7813903D01*
X-11677829Y7714035D01*
X-11871401Y7578495D01*
X-12038495Y7411401D01*
X-12168426Y7225838D01*
X-12223001Y7182215D01*
X-12292500Y7175021D01*
X-12354855Y7206543D01*
X-12371571Y7225836D01*
X-12501505Y7411401D01*
X-12668599Y7578495D01*
X-12765384Y7646265D01*
X-12862165Y7714032D01*
X-12862169Y7714034D01*
X-12862170Y7714035D01*
X-13076337Y7813903D01*
X-13304592Y7875063D01*
X-13492918Y7891539D01*
X-13539999Y7895659D01*
X-13540001Y7895659D01*
X-13579234Y7892226D01*
X-13775408Y7875063D01*
X-14003663Y7813903D01*
X-14217829Y7714035D01*
X-14411401Y7578495D01*
X-14578495Y7411401D01*
X-14708426Y7225838D01*
X-14763001Y7182215D01*
X-14832500Y7175021D01*
X-14894855Y7206543D01*
X-14911571Y7225836D01*
X-15041505Y7411401D01*
X-15208599Y7578495D01*
X-15305384Y7646265D01*
X-15402165Y7714032D01*
X-15402169Y7714034D01*
X-15402170Y7714035D01*
X-15616337Y7813903D01*
X-15844592Y7875063D01*
X-16032918Y7891539D01*
X-16079999Y7895659D01*
X-16080001Y7895659D01*
X-16119234Y7892226D01*
X-16315408Y7875063D01*
X-16543663Y7813903D01*
X-16757829Y7714035D01*
X-16951401Y7578495D01*
X-17118495Y7411401D01*
X-17248426Y7225838D01*
X-17303001Y7182215D01*
X-17372500Y7175021D01*
X-17434855Y7206543D01*
X-17451571Y7225836D01*
X-17581505Y7411401D01*
X-17748599Y7578495D01*
X-17845384Y7646265D01*
X-17942165Y7714032D01*
X-17942169Y7714034D01*
X-17942170Y7714035D01*
X-18156337Y7813903D01*
X-18384592Y7875063D01*
X-18572918Y7891539D01*
X-18619999Y7895659D01*
X-18620001Y7895659D01*
X-18659234Y7892226D01*
X-18855408Y7875063D01*
X-19083663Y7813903D01*
X-19297829Y7714035D01*
X-19491401Y7578495D01*
X-19658495Y7411401D01*
X-19788426Y7225838D01*
X-19843001Y7182215D01*
X-19912500Y7175021D01*
X-19974855Y7206543D01*
X-19991571Y7225836D01*
X-20121505Y7411401D01*
X-20288599Y7578495D01*
X-20385384Y7646265D01*
X-20482165Y7714032D01*
X-20482169Y7714034D01*
X-20482170Y7714035D01*
X-20696337Y7813903D01*
X-20924592Y7875063D01*
X-21112918Y7891539D01*
X-21159999Y7895659D01*
X-21160001Y7895659D01*
X-21199234Y7892226D01*
X-21395408Y7875063D01*
X-21623663Y7813903D01*
X-21837829Y7714035D01*
X-22031401Y7578495D01*
X-22198495Y7411401D01*
X-22328426Y7225838D01*
X-22383001Y7182215D01*
X-22452500Y7175021D01*
X-22514855Y7206543D01*
X-22531571Y7225836D01*
X-22661505Y7411401D01*
X-22828599Y7578495D01*
X-22925384Y7646265D01*
X-23022165Y7714032D01*
X-23022169Y7714034D01*
X-23022170Y7714035D01*
X-23236337Y7813903D01*
X-23464592Y7875063D01*
X-23652918Y7891539D01*
X-23699999Y7895659D01*
X-23700001Y7895659D01*
X-23739234Y7892226D01*
X-23935408Y7875063D01*
X-24163663Y7813903D01*
X-24377829Y7714035D01*
X-24571401Y7578495D01*
X-24599477Y7550417D01*
X-24660797Y7516934D01*
X-24730489Y7521918D01*
X-24774838Y7550419D01*
X-29363181Y12138762D01*
X-29396666Y12200085D01*
X-29399500Y12226443D01*
X-29399500Y16863329D01*
X-29399499Y16863347D01*
X-29399499Y17039046D01*
X-29399500Y17039059D01*
X-29399500Y27917582D01*
X-29379815Y27984621D01*
X-29327011Y28030376D01*
X-29257853Y28040320D01*
X-29232164Y28033763D01*
X-29231164Y28033390D01*
X-29175232Y27991518D01*
X-29150816Y27926053D01*
X-29150500Y27917209D01*
X-29150500Y15889059D01*
X-29150501Y15889046D01*
X-29150501Y15879057D01*
X-29150501Y15720943D01*
X-29109577Y15568215D01*
X-29086314Y15527923D01*
X-29058514Y15479772D01*
X-29030521Y15431285D01*
X-28914385Y15315149D01*
X-28914374Y15315139D01*
X-26218717Y12619481D01*
X-26218709Y12619475D01*
X-26081790Y12540426D01*
X-26081785Y12540423D01*
X-26030875Y12526781D01*
X-25929057Y12499499D01*
X-25929055Y12499499D01*
X-25763346Y12499499D01*
X-25763330Y12499500D01*
X-24670983Y12499500D01*
X-24670967Y12499499D01*
X-24663371Y12499499D01*
X-24505260Y12499499D01*
X-24505257Y12499499D01*
X-24397901Y12528265D01*
X-24352524Y12540424D01*
X-24352523Y12540425D01*
X-24302410Y12569359D01*
X-24302409Y12569360D01*
X-24259003Y12594420D01*
X-24215599Y12619479D01*
X-24215596Y12619481D01*
X-19819481Y17015596D01*
X-19819477Y17015601D01*
X-19745547Y17143654D01*
X-19745547Y17143655D01*
X-19745545Y17143657D01*
X-19740423Y17152529D01*
X-19699499Y17305257D01*
X-19699499Y17463371D01*
X-19699499Y17473360D01*
X-19699500Y17473373D01*
X-19699500Y20299902D01*
X-19679815Y20366941D01*
X-19663181Y20387583D01*
X-17687583Y22363181D01*
X-17626260Y22396666D01*
X-17599902Y22399500D01*
X-17029353Y22399500D01*
X-16962314Y22379815D01*
X-16916559Y22327011D01*
X-16913941Y22320842D01*
X-16881568Y22238357D01*
X-16750386Y22011143D01*
X-16647197Y21881748D01*
X-16586801Y21806014D01*
X-16402467Y21634979D01*
X-16394479Y21627567D01*
X-16177704Y21479772D01*
X-16177700Y21479770D01*
X-16177697Y21479768D01*
X-16177696Y21479767D01*
X-15941325Y21365938D01*
X-15941327Y21365938D01*
X-15690623Y21288606D01*
X-15690619Y21288605D01*
X-15690615Y21288604D01*
X-15565823Y21269794D01*
X-15431187Y21249500D01*
X-15431182Y21249500D01*
X-15168812Y21249500D01*
X-15007247Y21273853D01*
X-14909385Y21288604D01*
X-14909381Y21288605D01*
X-14909376Y21288606D01*
X-14658673Y21365938D01*
X-14422303Y21479767D01*
X-14422302Y21479768D01*
X-14205520Y21627567D01*
X-14013198Y21806014D01*
X-13849614Y22011143D01*
X-13718432Y22238356D01*
X-13622582Y22482578D01*
X-13622576Y22482597D01*
X-13564197Y22738374D01*
X-13564196Y22738379D01*
X-13544592Y22999995D01*
X-13544592Y23000004D01*
X-13564196Y23261620D01*
X-13564197Y23261625D01*
X-13565957Y23269334D01*
X-13590703Y23377756D01*
X-13622576Y23517402D01*
X-13622582Y23517421D01*
X-13718432Y23761643D01*
X-13726432Y23775500D01*
X-13849614Y23988857D01*
X-13981736Y24154533D01*
X-14013198Y24193985D01*
X-14205520Y24372432D01*
X-14220014Y24382314D01*
X-14422296Y24520228D01*
X-14422302Y24520231D01*
X-14422303Y24520232D01*
X-14550276Y24581860D01*
X-14658673Y24634061D01*
X-14658674Y24634061D01*
X-14658677Y24634063D01*
X-14909385Y24711396D01*
X-15168818Y24750500D01*
X-15431182Y24750500D01*
X-15690615Y24711396D01*
X-15941323Y24634063D01*
X-16177704Y24520228D01*
X-16394479Y24372433D01*
X-16586805Y24193981D01*
X-16750386Y23988857D01*
X-16881568Y23761643D01*
X-16913926Y23679194D01*
X-16956740Y23623984D01*
X-17022610Y23600683D01*
X-17029353Y23600500D01*
X-17175500Y23600500D01*
X-17242539Y23620185D01*
X-17288294Y23672989D01*
X-17299500Y23724500D01*
X-17299500Y28177756D01*
X-17279815Y28244795D01*
X-17227011Y28290550D01*
X-17162247Y28301045D01*
X-17147873Y28299500D01*
X-17147864Y28299500D01*
X-16052129Y28299500D01*
X-16052123Y28299501D01*
X-15992516Y28305908D01*
X-15857671Y28356202D01*
X-15857664Y28356206D01*
X-15742455Y28442452D01*
X-15742452Y28442455D01*
X-15656206Y28557664D01*
X-15656202Y28557671D01*
X-15605908Y28692517D01*
X-15599501Y28752116D01*
X-15599500Y28752119D01*
X-15599500Y28752127D01*
X-15599500Y28825500D01*
X-15579815Y28892539D01*
X-15527011Y28938294D01*
X-15475500Y28949500D01*
X-14395089Y28949500D01*
X-14328050Y28929815D01*
X-14282295Y28877011D01*
X-14271731Y28838102D01*
X-14270391Y28824991D01*
X-14264999Y28772203D01*
X-14209814Y28605666D01*
X-14117712Y28456344D01*
X-13993656Y28332288D01*
X-13912594Y28282289D01*
X-13851807Y28244795D01*
X-13844334Y28240186D01*
X-13677797Y28185001D01*
X-13677795Y28185000D01*
X-13575010Y28174500D01*
X-13575009Y28174500D01*
X-12849998Y28174500D01*
X-12849980Y28174501D01*
X-12747203Y28185000D01*
X-12747200Y28185001D01*
X-12580668Y28240185D01*
X-12580663Y28240187D01*
X-12431342Y28332289D01*
X-12307289Y28456342D01*
X-12215187Y28605663D01*
X-12215185Y28605668D01*
X-12176714Y28721766D01*
X-12160001Y28772203D01*
X-12160001Y28772204D01*
X-12160000Y28772204D01*
X-12149500Y28874983D01*
X-12149500Y30225001D01*
X-12149501Y30225018D01*
X-12160000Y30327796D01*
X-12160001Y30327799D01*
X-12215185Y30494331D01*
X-12215187Y30494336D01*
X-12258014Y30563770D01*
X-12307288Y30643656D01*
X-12431344Y30767712D01*
X-12580666Y30859814D01*
X-12747203Y30914999D01*
X-12849991Y30925500D01*
X-13575008Y30925499D01*
X-13575016Y30925498D01*
X-13575019Y30925498D01*
X-13619658Y30920938D01*
X-13677797Y30914999D01*
X-13844334Y30859814D01*
X-13993656Y30767712D01*
X-14117712Y30643656D01*
X-14209814Y30494334D01*
X-14264999Y30327797D01*
X-14264999Y30327794D01*
X-14271732Y30261897D01*
X-14298129Y30197205D01*
X-14355310Y30157054D01*
X-14395090Y30150500D01*
X-15475501Y30150500D01*
X-15542540Y30170185D01*
X-15588295Y30222989D01*
X-15599501Y30274500D01*
X-15599501Y30347876D01*
X-15605908Y30407483D01*
X-15656202Y30542328D01*
X-15656206Y30542335D01*
X-15742452Y30657544D01*
X-15742455Y30657547D01*
X-15857664Y30743793D01*
X-15857671Y30743797D01*
X-15992517Y30794091D01*
X-15992516Y30794091D01*
X-15999493Y30794841D01*
X-16052127Y30800500D01*
X-17147872Y30800499D01*
X-17162242Y30798954D01*
X-17231001Y30811357D01*
X-17282140Y30858966D01*
X-17299500Y30922243D01*
X-17299500Y31427756D01*
X-17279815Y31494795D01*
X-17227011Y31540550D01*
X-17162247Y31551045D01*
X-17147873Y31549500D01*
X-17147864Y31549500D01*
X-16052129Y31549500D01*
X-16052123Y31549501D01*
X-15992516Y31555908D01*
X-15857671Y31606202D01*
X-15857664Y31606206D01*
X-15742455Y31692452D01*
X-15742452Y31692455D01*
X-15656206Y31807664D01*
X-15656202Y31807671D01*
X-15605908Y31942517D01*
X-15599501Y32002116D01*
X-15599500Y32002119D01*
X-15599500Y32002127D01*
X-15599500Y32075500D01*
X-15579815Y32142539D01*
X-15527011Y32188294D01*
X-15475500Y32199500D01*
X-14005301Y32199500D01*
X-13938262Y32179815D01*
X-13892507Y32127011D01*
X-13887596Y32114507D01*
X-13859814Y32030666D01*
X-13767712Y31881344D01*
X-13643656Y31757288D01*
X-13570524Y31712180D01*
X-13508986Y31674223D01*
X-13494334Y31665186D01*
X-13327797Y31610001D01*
X-13327795Y31610000D01*
X-13225010Y31599500D01*
X-13225009Y31599500D01*
X-12599998Y31599500D01*
X-12599980Y31599501D01*
X-12497203Y31610000D01*
X-12497200Y31610001D01*
X-12330668Y31665185D01*
X-12330663Y31665187D01*
X-12181342Y31757289D01*
X-12087681Y31850951D01*
X-12026358Y31884436D01*
X-11956666Y31879452D01*
X-11912319Y31850951D01*
X-11818656Y31757288D01*
X-11745524Y31712180D01*
X-11683986Y31674223D01*
X-11669334Y31665186D01*
X-11502797Y31610001D01*
X-11502795Y31610000D01*
X-11400016Y31599500D01*
X-11400009Y31599500D01*
X-11012000Y31599500D01*
X-10944961Y31579815D01*
X-10899206Y31527011D01*
X-10888000Y31475500D01*
X-10888000Y30948347D01*
X-10907685Y30881308D01*
X-10946901Y30842810D01*
X-11068656Y30767712D01*
X-11192712Y30643656D01*
X-11284814Y30494334D01*
X-11339999Y30327797D01*
X-11350500Y30225009D01*
X-11350499Y29532289D01*
X-11350499Y28874998D01*
X-11350498Y28874981D01*
X-11345391Y28824991D01*
X-11339999Y28772203D01*
X-11284814Y28605666D01*
X-11192712Y28456344D01*
X-11068656Y28332288D01*
X-10987594Y28282289D01*
X-10926807Y28244795D01*
X-10919334Y28240186D01*
X-10752797Y28185001D01*
X-10752795Y28185000D01*
X-10650010Y28174500D01*
X-10650009Y28174500D01*
X-9924998Y28174500D01*
X-9924980Y28174501D01*
X-9822203Y28185000D01*
X-9822200Y28185001D01*
X-9655668Y28240185D01*
X-9655663Y28240187D01*
X-9506342Y28332289D01*
X-9382289Y28456342D01*
X-9290187Y28605663D01*
X-9290185Y28605668D01*
X-9251714Y28721766D01*
X-9235001Y28772203D01*
X-9235001Y28772204D01*
X-9235000Y28772204D01*
X-9224500Y28874983D01*
X-9224500Y30225001D01*
X-9224501Y30225018D01*
X-9235000Y30327796D01*
X-9235001Y30327799D01*
X-9290185Y30494331D01*
X-9290187Y30494336D01*
X-9333014Y30563770D01*
X-9382288Y30643656D01*
X-9506344Y30767712D01*
X-9628097Y30842809D01*
X-9674821Y30894755D01*
X-9687000Y30948347D01*
X-9687000Y31913330D01*
X-9686999Y31913348D01*
X-9686999Y32079054D01*
X-9686998Y32079054D01*
X-9727923Y32231786D01*
X-9727924Y32231787D01*
X-9759191Y32285943D01*
X-9785403Y32331344D01*
X-9806980Y32368716D01*
X-9918784Y32480520D01*
X-9925849Y32487585D01*
X-9925855Y32487590D01*
X-10038181Y32599916D01*
X-10071666Y32661239D01*
X-10074500Y32687597D01*
X-10074500Y33300001D01*
X-10074501Y33300019D01*
X-10085000Y33402796D01*
X-10085001Y33402799D01*
X-10140185Y33569331D01*
X-10140187Y33569336D01*
X-10189434Y33649178D01*
X-10232288Y33718656D01*
X-10356344Y33842712D01*
X-10428096Y33886968D01*
X-10474821Y33938915D01*
X-10487000Y33992507D01*
X-10487000Y35537402D01*
X-10467315Y35604441D01*
X-10450681Y35625083D01*
X-9957709Y36118054D01*
X-9896386Y36151539D01*
X-9835435Y36149450D01*
X-9811541Y36142508D01*
X-9802569Y36139902D01*
X-9802566Y36139901D01*
X-9802563Y36139901D01*
X-9765701Y36137000D01*
X-9765694Y36137000D01*
X-9334298Y36137000D01*
X-9297432Y36139901D01*
X-9297426Y36139902D01*
X-9139606Y36185754D01*
X-9139603Y36185755D01*
X-8998137Y36269417D01*
X-8998129Y36269423D01*
X-8881923Y36385629D01*
X-8881917Y36385637D01*
X-8798255Y36527103D01*
X-8798254Y36527106D01*
X-8752402Y36684926D01*
X-8752401Y36684932D01*
X-8749500Y36721798D01*
X-8749500Y38028201D01*
X-8752401Y38065067D01*
X-8752402Y38065073D01*
X-8798254Y38222893D01*
X-8798255Y38222896D01*
X-8813252Y38248254D01*
X-8844149Y38300499D01*
X-8881917Y38364362D01*
X-8881923Y38364370D01*
X-8998129Y38480576D01*
X-8998133Y38480579D01*
X-8998135Y38480581D01*
X-9139602Y38564244D01*
X-9208999Y38584406D01*
X-9297426Y38610097D01*
X-9297429Y38610097D01*
X-9297431Y38610098D01*
X-9334306Y38613000D01*
X-9334314Y38613000D01*
X-9575500Y38613000D01*
X-9642539Y38632685D01*
X-9688294Y38685489D01*
X-9699500Y38737000D01*
X-9699500Y39903201D01*
X-9702401Y39940067D01*
X-9702402Y39940073D01*
X-9748254Y40097893D01*
X-9748255Y40097896D01*
X-9753216Y40106284D01*
X-9788354Y40165701D01*
X-9831917Y40239362D01*
X-9831923Y40239370D01*
X-9863180Y40270626D01*
X-9896666Y40331948D01*
X-9899500Y40358308D01*
X-9899500Y41000500D01*
X-9879815Y41067539D01*
X-9827011Y41113294D01*
X-9775500Y41124500D01*
X-9527130Y41124500D01*
X-9527123Y41124501D01*
X-9467516Y41130908D01*
X-9332671Y41181202D01*
X-9332664Y41181206D01*
X-9217455Y41267452D01*
X-9217452Y41267455D01*
X-9131206Y41382664D01*
X-9131202Y41382671D01*
X-9080908Y41517517D01*
X-9074501Y41577116D01*
X-9074500Y41577135D01*
X-9074500Y43472870D01*
X-9074501Y43472876D01*
X-9080908Y43532483D01*
X-9131202Y43667328D01*
X-9131204Y43667331D01*
X-9156550Y43701189D01*
X-9180967Y43766654D01*
X-9166115Y43834926D01*
X-9116710Y43884332D01*
X-9057283Y43899500D01*
X-8712597Y43899500D01*
X-8645558Y43879815D01*
G37*
%TD.AperFunction*%
%TA.AperFunction,NonConductor*%
G36*
X-208907Y14779815D02*
G01*
X-163152Y14727011D01*
X-153208Y14657853D01*
X-182233Y14594297D01*
X-224747Y14563643D01*
X-224746Y14563641D01*
X-224766Y14563629D01*
X-228503Y14560935D01*
X-231772Y14559580D01*
X-231784Y14559577D01*
X-368716Y14480520D01*
X-480520Y14368716D01*
X-559577Y14231784D01*
X-600500Y14079057D01*
X-600500Y14079055D01*
X-600500Y724500D01*
X-620185Y657461D01*
X-672989Y611706D01*
X-724500Y600500D01*
X-39275500Y600500D01*
X-39342539Y620185D01*
X-39388294Y672989D01*
X-39399500Y724500D01*
X-39399500Y5250902D01*
X-39379815Y5317941D01*
X-39327011Y5363696D01*
X-39257853Y5373640D01*
X-39194297Y5344615D01*
X-39187819Y5338583D01*
X-38518717Y4669481D01*
X-38518709Y4669475D01*
X-38381790Y4590426D01*
X-38381785Y4590423D01*
X-38330875Y4576781D01*
X-38229057Y4549499D01*
X-38229055Y4549499D01*
X-38063346Y4549499D01*
X-38063330Y4549500D01*
X-37874500Y4549500D01*
X-37807461Y4529815D01*
X-37761706Y4477011D01*
X-37750500Y4425500D01*
X-37750499Y3102129D01*
X-37750498Y3102123D01*
X-37744091Y3042516D01*
X-37693797Y2907671D01*
X-37693793Y2907664D01*
X-37607547Y2792455D01*
X-37607544Y2792452D01*
X-37492335Y2706206D01*
X-37492328Y2706202D01*
X-37357482Y2655908D01*
X-37357483Y2655908D01*
X-37297883Y2649501D01*
X-37297881Y2649500D01*
X-37297873Y2649500D01*
X-37297864Y2649500D01*
X-35502129Y2649500D01*
X-35502123Y2649501D01*
X-35442516Y2655908D01*
X-35307671Y2706202D01*
X-35307664Y2706206D01*
X-35192455Y2792452D01*
X-35192452Y2792455D01*
X-35106206Y2907664D01*
X-35106203Y2907669D01*
X-35057189Y3039083D01*
X-35015317Y3095016D01*
X-34949853Y3119433D01*
X-34881580Y3104581D01*
X-34853326Y3083430D01*
X-34731401Y2961505D01*
X-34731395Y2961501D01*
X-34537834Y2825967D01*
X-34537830Y2825965D01*
X-34323663Y2726097D01*
X-34323659Y2726096D01*
X-34323655Y2726094D01*
X-34095413Y2664938D01*
X-34095403Y2664936D01*
X-33860001Y2644341D01*
X-33860000Y2644341D01*
X-33859999Y2644341D01*
X-33624596Y2664936D01*
X-33624586Y2664938D01*
X-33396344Y2726094D01*
X-33396335Y2726098D01*
X-33182169Y2825965D01*
X-33182165Y2825967D01*
X-32988604Y2961501D01*
X-32988602Y2961502D01*
X-32960522Y2989582D01*
X-32899198Y3023066D01*
X-32829507Y3018080D01*
X-32785161Y2989580D01*
X-31415062Y1619480D01*
X-31278131Y1540423D01*
X-31125403Y1499499D01*
X-31125400Y1499499D01*
X-30959692Y1499499D01*
X-30959676Y1499500D01*
X-26600323Y1499500D01*
X-26600307Y1499499D01*
X-26592711Y1499499D01*
X-26434600Y1499499D01*
X-26434597Y1499499D01*
X-26327241Y1528265D01*
X-26281864Y1540424D01*
X-26281863Y1540425D01*
X-26231750Y1569359D01*
X-26231749Y1569360D01*
X-26188343Y1594420D01*
X-26144939Y1619479D01*
X-26144936Y1619481D01*
X-24774838Y2989580D01*
X-24713515Y3023065D01*
X-24643823Y3018081D01*
X-24599476Y2989580D01*
X-24571401Y2961505D01*
X-24571395Y2961501D01*
X-24377834Y2825967D01*
X-24377830Y2825965D01*
X-24163663Y2726097D01*
X-24163659Y2726096D01*
X-24163655Y2726094D01*
X-23935413Y2664938D01*
X-23935403Y2664936D01*
X-23700001Y2644341D01*
X-23700000Y2644341D01*
X-23699999Y2644341D01*
X-23464596Y2664936D01*
X-23464586Y2664938D01*
X-23236344Y2726094D01*
X-23236335Y2726098D01*
X-23022169Y2825965D01*
X-23022165Y2825967D01*
X-22828604Y2961501D01*
X-22828597Y2961506D01*
X-22661506Y3128597D01*
X-22661505Y3128599D01*
X-22531575Y3314158D01*
X-22476998Y3357782D01*
X-22407499Y3364975D01*
X-22345145Y3333453D01*
X-22328425Y3314158D01*
X-22198495Y3128599D01*
X-22031401Y2961505D01*
X-22031395Y2961501D01*
X-21837834Y2825967D01*
X-21837830Y2825965D01*
X-21623663Y2726097D01*
X-21623659Y2726096D01*
X-21623655Y2726094D01*
X-21395413Y2664938D01*
X-21395403Y2664936D01*
X-21160001Y2644341D01*
X-21160000Y2644341D01*
X-21159999Y2644341D01*
X-20924596Y2664936D01*
X-20924586Y2664938D01*
X-20696344Y2726094D01*
X-20696335Y2726098D01*
X-20482169Y2825965D01*
X-20482165Y2825967D01*
X-20288604Y2961501D01*
X-20288597Y2961506D01*
X-20121506Y3128597D01*
X-20121505Y3128599D01*
X-19991575Y3314158D01*
X-19936998Y3357782D01*
X-19867499Y3364975D01*
X-19805145Y3333453D01*
X-19788425Y3314158D01*
X-19658495Y3128599D01*
X-19491401Y2961505D01*
X-19491395Y2961501D01*
X-19297834Y2825967D01*
X-19297830Y2825965D01*
X-19083663Y2726097D01*
X-19083659Y2726096D01*
X-19083655Y2726094D01*
X-18855413Y2664938D01*
X-18855403Y2664936D01*
X-18620001Y2644341D01*
X-18620000Y2644341D01*
X-18619999Y2644341D01*
X-18384596Y2664936D01*
X-18384586Y2664938D01*
X-18156344Y2726094D01*
X-18156335Y2726098D01*
X-17942169Y2825965D01*
X-17942165Y2825967D01*
X-17748604Y2961501D01*
X-17748597Y2961506D01*
X-17581506Y3128597D01*
X-17581505Y3128599D01*
X-17451575Y3314158D01*
X-17396998Y3357782D01*
X-17327499Y3364975D01*
X-17265145Y3333453D01*
X-17248425Y3314158D01*
X-17118495Y3128599D01*
X-16951401Y2961505D01*
X-16951395Y2961501D01*
X-16757834Y2825967D01*
X-16757830Y2825965D01*
X-16543663Y2726097D01*
X-16543659Y2726096D01*
X-16543655Y2726094D01*
X-16315413Y2664938D01*
X-16315403Y2664936D01*
X-16080001Y2644341D01*
X-16080000Y2644341D01*
X-16079999Y2644341D01*
X-15844596Y2664936D01*
X-15844586Y2664938D01*
X-15616344Y2726094D01*
X-15616335Y2726098D01*
X-15402169Y2825965D01*
X-15402165Y2825967D01*
X-15208604Y2961501D01*
X-15208597Y2961506D01*
X-15041506Y3128597D01*
X-15041505Y3128599D01*
X-14911575Y3314158D01*
X-14856998Y3357782D01*
X-14787499Y3364975D01*
X-14725145Y3333453D01*
X-14708425Y3314158D01*
X-14578495Y3128599D01*
X-14411401Y2961505D01*
X-14411395Y2961501D01*
X-14217834Y2825967D01*
X-14217830Y2825965D01*
X-14003663Y2726097D01*
X-14003659Y2726096D01*
X-14003655Y2726094D01*
X-13775413Y2664938D01*
X-13775403Y2664936D01*
X-13540001Y2644341D01*
X-13540000Y2644341D01*
X-13539999Y2644341D01*
X-13304596Y2664936D01*
X-13304586Y2664938D01*
X-13076344Y2726094D01*
X-13076335Y2726098D01*
X-12862169Y2825965D01*
X-12862165Y2825967D01*
X-12668604Y2961501D01*
X-12668597Y2961506D01*
X-12501506Y3128597D01*
X-12501505Y3128599D01*
X-12371575Y3314158D01*
X-12316998Y3357782D01*
X-12247499Y3364975D01*
X-12185145Y3333453D01*
X-12168425Y3314158D01*
X-12038495Y3128599D01*
X-11871401Y2961505D01*
X-11871395Y2961501D01*
X-11677834Y2825967D01*
X-11677830Y2825965D01*
X-11463663Y2726097D01*
X-11463659Y2726096D01*
X-11463655Y2726094D01*
X-11235413Y2664938D01*
X-11235403Y2664936D01*
X-11000001Y2644341D01*
X-11000000Y2644341D01*
X-10999999Y2644341D01*
X-10764596Y2664936D01*
X-10764586Y2664938D01*
X-10536344Y2726094D01*
X-10536335Y2726098D01*
X-10322169Y2825965D01*
X-10322165Y2825967D01*
X-10128604Y2961501D01*
X-10128597Y2961506D01*
X-9961506Y3128597D01*
X-9961505Y3128599D01*
X-9831575Y3314158D01*
X-9776998Y3357782D01*
X-9707499Y3364975D01*
X-9645145Y3333453D01*
X-9628425Y3314158D01*
X-9498495Y3128599D01*
X-9331401Y2961505D01*
X-9331395Y2961501D01*
X-9137834Y2825967D01*
X-9137830Y2825965D01*
X-8923663Y2726097D01*
X-8923659Y2726096D01*
X-8923655Y2726094D01*
X-8695413Y2664938D01*
X-8695403Y2664936D01*
X-8460001Y2644341D01*
X-8460000Y2644341D01*
X-8459999Y2644341D01*
X-8224596Y2664936D01*
X-8224586Y2664938D01*
X-7996344Y2726094D01*
X-7996335Y2726098D01*
X-7782169Y2825965D01*
X-7782165Y2825967D01*
X-7588604Y2961501D01*
X-7588597Y2961506D01*
X-7421506Y3128597D01*
X-7421505Y3128599D01*
X-7291575Y3314158D01*
X-7236998Y3357782D01*
X-7167499Y3364975D01*
X-7105145Y3333453D01*
X-7088425Y3314158D01*
X-6958495Y3128599D01*
X-6791401Y2961505D01*
X-6791395Y2961501D01*
X-6597834Y2825967D01*
X-6597830Y2825965D01*
X-6383663Y2726097D01*
X-6383659Y2726096D01*
X-6383655Y2726094D01*
X-6155413Y2664938D01*
X-6155403Y2664936D01*
X-5920001Y2644341D01*
X-5920000Y2644341D01*
X-5919999Y2644341D01*
X-5684596Y2664936D01*
X-5684586Y2664938D01*
X-5456344Y2726094D01*
X-5456335Y2726098D01*
X-5242169Y2825965D01*
X-5242165Y2825967D01*
X-5048604Y2961501D01*
X-5048597Y2961506D01*
X-4881506Y3128597D01*
X-4881505Y3128599D01*
X-4751575Y3314158D01*
X-4696998Y3357782D01*
X-4627499Y3364975D01*
X-4565145Y3333453D01*
X-4548425Y3314158D01*
X-4418495Y3128599D01*
X-4251401Y2961505D01*
X-4251395Y2961501D01*
X-4057834Y2825967D01*
X-4057830Y2825965D01*
X-3843663Y2726097D01*
X-3843659Y2726096D01*
X-3843655Y2726094D01*
X-3615413Y2664938D01*
X-3615403Y2664936D01*
X-3380001Y2644341D01*
X-3380000Y2644341D01*
X-3379999Y2644341D01*
X-3144596Y2664936D01*
X-3144586Y2664938D01*
X-2916344Y2726094D01*
X-2916335Y2726098D01*
X-2702169Y2825965D01*
X-2702165Y2825967D01*
X-2508604Y2961501D01*
X-2508597Y2961506D01*
X-2341506Y3128597D01*
X-2341501Y3128604D01*
X-2205967Y3322165D01*
X-2205965Y3322169D01*
X-2106098Y3536335D01*
X-2106094Y3536344D01*
X-2044938Y3764586D01*
X-2044936Y3764596D01*
X-2024341Y3999999D01*
X-2024341Y4000000D01*
X-2044936Y4235403D01*
X-2044938Y4235413D01*
X-2106094Y4463655D01*
X-2106096Y4463659D01*
X-2106097Y4463663D01*
X-2202069Y4669475D01*
X-2205964Y4677828D01*
X-2205965Y4677830D01*
X-2341505Y4871402D01*
X-2369579Y4899476D01*
X-2403064Y4960799D01*
X-2398080Y5030491D01*
X-2369579Y5074838D01*
X-1019481Y6424936D01*
X-1019475Y6424944D01*
X-940426Y6561863D01*
X-940423Y6561868D01*
X-899499Y6714598D01*
X-899499Y6882701D01*
X-899500Y6882714D01*
X-899500Y14675500D01*
X-879815Y14742539D01*
X-827011Y14788294D01*
X-775500Y14799500D01*
X-275946Y14799500D01*
X-208907Y14779815D01*
G37*
%TD.AperFunction*%
M02*
