M48
; DRILL file {KiCad 8.0.0} date 2024-03-23T17:39:18+0200
; FORMAT={-:-/ absolute / inch / decimal}
; #@! TF.CreationDate,2024-03-23T17:39:18+02:00
; #@! TF.GenerationSoftware,Kicad,Pcbnew,8.0.0
; #@! TF.FileFunction,Plated,1,2,PTH
FMAT,2
INCH
; #@! TA.AperFunction,Plated,PTH,ViaDrill
T1C0.0118
; #@! TA.AperFunction,Plated,PTH,ComponentDrill
T2C0.0295
; #@! TA.AperFunction,Plated,PTH,ComponentDrill
T3C0.0354
; #@! TA.AperFunction,Plated,PTH,ComponentDrill
T4C0.0394
%
G90
G05
T1
X-2.3504Y0.9173
X-1.7953Y1.6378
X-1.622Y0.6693
X-1.5098Y0.0551
X-1.2795Y2.0059
X-1.1811Y1.5354
X-1.122Y1.0335
X-0.7185Y0.8957
X-0.689Y0.0591
X-0.2815Y1.5492
X-0.063Y0.5079
X0.0315Y1.6614
X0.0591Y1.4035
X0.1378Y1.0748
X0.1929Y0.8642
T2
X-2.3504Y1.3138
X-2.3504Y1.2138
X-0.8Y2.0276
X-0.7Y2.0276
X-0.6548Y0.6634
X-0.5548Y0.6634
X0.7579Y1.2705
X0.7579Y1.1705
T3
X-1.9921Y1.0728
X-1.9921Y0.9728
X-1.8051Y1.561
X-1.8051Y1.461
X-1.1039Y1.7224
X-1.0039Y1.7224
X-0.4642Y1.7283
X-0.3642Y1.7283
X0.2559Y1.5173
X0.2559Y1.4173
X0.4646Y1.0291
X0.4646Y0.9291
T4
X-1.4331Y0.2575
X-1.4331Y0.1575
X-1.3331Y0.2575
X-1.3331Y0.1575
X-1.2331Y0.2575
X-1.2331Y0.1575
X-1.1331Y0.2575
X-1.1331Y0.1575
X-1.0331Y0.2575
X-1.0331Y0.1575
X-0.9331Y0.2575
X-0.9331Y0.1575
X-0.8331Y0.2575
X-0.8331Y0.1575
X-0.7331Y0.2575
X-0.7331Y0.1575
X-0.6331Y0.2575
X-0.6331Y0.1575
X-0.5331Y0.2575
X-0.5331Y0.1575
X-0.4331Y0.2575
X-0.4331Y0.1575
X-0.3331Y0.2575
X-0.3331Y0.1575
X-0.2331Y0.2575
X-0.2331Y0.1575
X-0.1331Y0.2575
X-0.1331Y0.1575
M30
