%TF.GenerationSoftware,KiCad,Pcbnew,8.0.0*%
%TF.CreationDate,2024-03-20T08:31:39+02:00*%
%TF.ProjectId,SensorKiCad-RTHMAT004,53656e73-6f72-44b6-9943-61642d525448,rev?*%
%TF.SameCoordinates,Original*%
%TF.FileFunction,Soldermask,Bot*%
%TF.FilePolarity,Negative*%
%FSLAX46Y46*%
G04 Gerber Fmt 4.6, Leading zero omitted, Abs format (unit mm)*
G04 Created by KiCad (PCBNEW 8.0.0) date 2024-03-20 08:31:39*
%MOMM*%
%LPD*%
G01*
G04 APERTURE LIST*
%ADD10R,1.800000X1.800000*%
%ADD11C,1.800000*%
%ADD12R,1.700000X1.700000*%
%ADD13O,1.700000X1.700000*%
G04 APERTURE END LIST*
D10*
%TO.C,D1*%
X31275000Y-159265000D03*
D11*
X28735000Y-159265000D03*
%TD*%
D10*
%TO.C,D9*%
X102960000Y-159000000D03*
D11*
X105500000Y-159000000D03*
%TD*%
D10*
%TO.C,D5*%
X35750000Y-149000000D03*
D11*
X35750000Y-146460000D03*
%TD*%
D10*
%TO.C,D4*%
X32000000Y-153775000D03*
D11*
X32000000Y-151235000D03*
%TD*%
D10*
%TO.C,D8*%
X98485000Y-149775000D03*
D11*
X98485000Y-147235000D03*
%TD*%
D10*
%TO.C,D7*%
X72210000Y-131750000D03*
D11*
X74750000Y-131750000D03*
%TD*%
D10*
%TO.C,D3*%
X66225000Y-130000000D03*
D11*
X68765000Y-130000000D03*
%TD*%
D10*
%TO.C,D2*%
X102750000Y-154750000D03*
D11*
X102750000Y-152210000D03*
%TD*%
D12*
%TO.C,J1*%
X50920000Y-179540000D03*
D13*
X50920000Y-177000000D03*
X53460000Y-179540000D03*
X53460000Y-177000000D03*
X56000000Y-179540000D03*
X56000000Y-177000000D03*
X58540000Y-179540000D03*
X58540000Y-177000000D03*
X61080000Y-179540000D03*
X61080000Y-177000000D03*
X63620000Y-179540000D03*
X63620000Y-177000000D03*
X66160000Y-179540000D03*
X66160000Y-177000000D03*
X68700000Y-179540000D03*
X68700000Y-177000000D03*
X71240000Y-179540000D03*
X71240000Y-177000000D03*
X73780000Y-179540000D03*
X73780000Y-177000000D03*
X76320000Y-179540000D03*
X76320000Y-177000000D03*
X78860000Y-179540000D03*
X78860000Y-177000000D03*
X81400000Y-179540000D03*
X81400000Y-177000000D03*
X83940000Y-179540000D03*
X83940000Y-177000000D03*
%TD*%
D10*
%TO.C,D6*%
X60210000Y-131750000D03*
D11*
X62750000Y-131750000D03*
%TD*%
M02*
