%TF.GenerationSoftware,KiCad,Pcbnew,8.0.0*%
%TF.CreationDate,2024-03-21T13:03:41+02:00*%
%TF.ProjectId,SensorKiCad-RTHMAT004,53656e73-6f72-44b6-9943-61642d525448,rev?*%
%TF.SameCoordinates,Original*%
%TF.FileFunction,Legend,Bot*%
%TF.FilePolarity,Positive*%
%FSLAX46Y46*%
G04 Gerber Fmt 4.6, Leading zero omitted, Abs format (unit mm)*
G04 Created by KiCad (PCBNEW 8.0.0) date 2024-03-21 13:03:41*
%MOMM*%
%LPD*%
G01*
G04 APERTURE LIST*
G04 Aperture macros list*
%AMRoundRect*
0 Rectangle with rounded corners*
0 $1 Rounding radius*
0 $2 $3 $4 $5 $6 $7 $8 $9 X,Y pos of 4 corners*
0 Add a 4 corners polygon primitive as box body*
4,1,4,$2,$3,$4,$5,$6,$7,$8,$9,$2,$3,0*
0 Add four circle primitives for the rounded corners*
1,1,$1+$1,$2,$3*
1,1,$1+$1,$4,$5*
1,1,$1+$1,$6,$7*
1,1,$1+$1,$8,$9*
0 Add four rect primitives between the rounded corners*
20,1,$1+$1,$2,$3,$4,$5,0*
20,1,$1+$1,$4,$5,$6,$7,0*
20,1,$1+$1,$6,$7,$8,$9,0*
20,1,$1+$1,$8,$9,$2,$3,0*%
G04 Aperture macros list end*
%ADD10C,1.000000*%
%ADD11C,1.462000*%
%ADD12RoundRect,0.102000X-0.629000X-0.629000X0.629000X-0.629000X0.629000X0.629000X-0.629000X0.629000X0*%
%ADD13RoundRect,0.102000X-0.629000X0.629000X-0.629000X-0.629000X0.629000X-0.629000X0.629000X0.629000X0*%
%ADD14R,1.700000X1.700000*%
%ADD15O,1.700000X1.700000*%
G04 APERTURE END LIST*
%LPC*%
D10*
%TO.C,D9*%
X12200000Y35910000D02*
G75*
G02*
X11200000Y35910000I-500000J0D01*
G01*
X11200000Y35910000D02*
G75*
G02*
X12200000Y35910000I500000J0D01*
G01*
X12200000Y38450000D02*
G75*
G02*
X11200000Y38450000I-500000J0D01*
G01*
X11200000Y38450000D02*
G75*
G02*
X12200000Y38450000I500000J0D01*
G01*
%TO.C,D8*%
X12300000Y23430000D02*
G75*
G02*
X11300000Y23430000I-500000J0D01*
G01*
X11300000Y23430000D02*
G75*
G02*
X12300000Y23430000I500000J0D01*
G01*
X12300000Y25970000D02*
G75*
G02*
X11300000Y25970000I-500000J0D01*
G01*
X11300000Y25970000D02*
G75*
G02*
X12300000Y25970000I500000J0D01*
G01*
%TO.C,D7*%
X-8780000Y43900000D02*
G75*
G02*
X-9780000Y43900000I-500000J0D01*
G01*
X-9780000Y43900000D02*
G75*
G02*
X-8780000Y43900000I500000J0D01*
G01*
X-11320000Y43900000D02*
G75*
G02*
X-12320000Y43900000I-500000J0D01*
G01*
X-12320000Y43900000D02*
G75*
G02*
X-11320000Y43900000I500000J0D01*
G01*
%TO.C,D6*%
X-24930000Y43700000D02*
G75*
G02*
X-25930000Y43700000I-500000J0D01*
G01*
X-25930000Y43700000D02*
G75*
G02*
X-24930000Y43700000I500000J0D01*
G01*
X-27470000Y43700000D02*
G75*
G02*
X-28470000Y43700000I-500000J0D01*
G01*
X-28470000Y43700000D02*
G75*
G02*
X-27470000Y43700000I500000J0D01*
G01*
%TO.C,D1*%
X-50100000Y27250000D02*
G75*
G02*
X-51100000Y27250000I-500000J0D01*
G01*
X-51100000Y27250000D02*
G75*
G02*
X-50100000Y27250000I500000J0D01*
G01*
X-50100000Y24710000D02*
G75*
G02*
X-51100000Y24710000I-500000J0D01*
G01*
X-51100000Y24710000D02*
G75*
G02*
X-50100000Y24710000I500000J0D01*
G01*
%TO.C,D5*%
X-50000000Y39540000D02*
G75*
G02*
X-51000000Y39540000I-500000J0D01*
G01*
X-51000000Y39540000D02*
G75*
G02*
X-50000000Y39540000I500000J0D01*
G01*
X-50000000Y37000000D02*
G75*
G02*
X-51000000Y37000000I-500000J0D01*
G01*
X-51000000Y37000000D02*
G75*
G02*
X-50000000Y37000000I500000J0D01*
G01*
%TD*%
D11*
%TO.C,D3*%
X-18450000Y53700000D03*
D12*
X-20990000Y53700000D03*
%TD*%
D11*
%TO.C,D2*%
X19650000Y28542500D03*
D13*
X19650000Y31082500D03*
%TD*%
D14*
%TO.C,J1*%
X-36400000Y4000000D03*
D15*
X-36400000Y6540000D03*
X-33860000Y4000000D03*
X-33860000Y6540000D03*
X-31320000Y4000000D03*
X-31320000Y6540000D03*
X-28780000Y4000000D03*
X-28780000Y6540000D03*
X-26240000Y4000000D03*
X-26240000Y6540000D03*
X-23700000Y4000000D03*
X-23700000Y6540000D03*
X-21160000Y4000000D03*
X-21160000Y6540000D03*
X-18620000Y4000000D03*
X-18620000Y6540000D03*
X-16080000Y4000000D03*
X-16080000Y6540000D03*
X-13540000Y4000000D03*
X-13540000Y6540000D03*
X-11000000Y4000000D03*
X-11000000Y6540000D03*
X-8460000Y4000000D03*
X-8460000Y6540000D03*
X-5920000Y4000000D03*
X-5920000Y6540000D03*
X-3380000Y4000000D03*
X-3380000Y6540000D03*
%TD*%
D11*
%TO.C,D4*%
X-58150000Y25042500D03*
D13*
X-58150000Y27582500D03*
%TD*%
%LPD*%
M02*
