%TF.GenerationSoftware,KiCad,Pcbnew,8.0.0*%
%TF.CreationDate,2024-03-23T17:39:18+02:00*%
%TF.ProjectId,SensorKiCad-RTHMAT004,53656e73-6f72-44b6-9943-61642d525448,rev?*%
%TF.SameCoordinates,Original*%
%TF.FileFunction,Soldermask,Bot*%
%TF.FilePolarity,Negative*%
%FSLAX46Y46*%
G04 Gerber Fmt 4.6, Leading zero omitted, Abs format (unit mm)*
G04 Created by KiCad (PCBNEW 8.0.0) date 2024-03-23 17:39:18*
%MOMM*%
%LPD*%
G01*
G04 APERTURE LIST*
G04 Aperture macros list*
%AMRoundRect*
0 Rectangle with rounded corners*
0 $1 Rounding radius*
0 $2 $3 $4 $5 $6 $7 $8 $9 X,Y pos of 4 corners*
0 Add a 4 corners polygon primitive as box body*
4,1,4,$2,$3,$4,$5,$6,$7,$8,$9,$2,$3,0*
0 Add four circle primitives for the rounded corners*
1,1,$1+$1,$2,$3*
1,1,$1+$1,$4,$5*
1,1,$1+$1,$6,$7*
1,1,$1+$1,$8,$9*
0 Add four rect primitives between the rounded corners*
20,1,$1+$1,$2,$3,$4,$5,0*
20,1,$1+$1,$4,$5,$6,$7,0*
20,1,$1+$1,$6,$7,$8,$9,0*
20,1,$1+$1,$8,$9,$2,$3,0*%
G04 Aperture macros list end*
%ADD10C,1.462000*%
%ADD11RoundRect,0.102000X-0.629000X-0.629000X0.629000X-0.629000X0.629000X0.629000X-0.629000X0.629000X0*%
%ADD12C,1.800000*%
%ADD13R,1.800000X1.800000*%
%ADD14RoundRect,0.102000X-0.629000X0.629000X-0.629000X-0.629000X0.629000X-0.629000X0.629000X0.629000X0*%
%ADD15R,1.700000X1.700000*%
%ADD16O,1.700000X1.700000*%
%ADD17RoundRect,0.102000X0.629000X-0.629000X0.629000X0.629000X-0.629000X0.629000X-0.629000X-0.629000X0*%
G04 APERTURE END LIST*
D10*
%TO.C,D3*%
X-17780000Y51500000D03*
D11*
X-20320000Y51500000D03*
%TD*%
D12*
%TO.C,D7*%
X-11790000Y43900000D03*
D13*
X-9250000Y43900000D03*
%TD*%
D12*
%TO.C,D5*%
X-45850000Y37110000D03*
D13*
X-45850000Y39650000D03*
%TD*%
D12*
%TO.C,D1*%
X-50600000Y24710000D03*
D13*
X-50600000Y27250000D03*
%TD*%
D10*
%TO.C,D10*%
X-14092500Y16850000D03*
D11*
X-16632500Y16850000D03*
%TD*%
D12*
%TO.C,D9*%
X6500000Y38540000D03*
D13*
X6500000Y36000000D03*
%TD*%
D10*
%TO.C,D2*%
X19250000Y29730000D03*
D14*
X19250000Y32270000D03*
%TD*%
D12*
%TO.C,D6*%
X-28040000Y43750000D03*
D13*
X-25500000Y43750000D03*
%TD*%
D15*
%TO.C,J1*%
X-36400000Y4000000D03*
D16*
X-36400000Y6540000D03*
X-33860000Y4000000D03*
X-33860000Y6540000D03*
X-31320000Y4000000D03*
X-31320000Y6540000D03*
X-28780000Y4000000D03*
X-28780000Y6540000D03*
X-26240000Y4000000D03*
X-26240000Y6540000D03*
X-23700000Y4000000D03*
X-23700000Y6540000D03*
X-21160000Y4000000D03*
X-21160000Y6540000D03*
X-18620000Y4000000D03*
X-18620000Y6540000D03*
X-16080000Y4000000D03*
X-16080000Y6540000D03*
X-13540000Y4000000D03*
X-13540000Y6540000D03*
X-11000000Y4000000D03*
X-11000000Y6540000D03*
X-8460000Y4000000D03*
X-8460000Y6540000D03*
X-5920000Y4000000D03*
X-5920000Y6540000D03*
X-3380000Y4000000D03*
X-3380000Y6540000D03*
%TD*%
D12*
%TO.C,D8*%
X11800000Y26140000D03*
D13*
X11800000Y23600000D03*
%TD*%
D10*
%TO.C,D4*%
X-59700000Y33370000D03*
D17*
X-59700000Y30830000D03*
%TD*%
M02*
