%TF.GenerationSoftware,KiCad,Pcbnew,8.0.0*%
%TF.CreationDate,2024-03-21T13:03:41+02:00*%
%TF.ProjectId,SensorKiCad-RTHMAT004,53656e73-6f72-44b6-9943-61642d525448,rev?*%
%TF.SameCoordinates,Original*%
%TF.FileFunction,Copper,L2,Bot*%
%TF.FilePolarity,Positive*%
%FSLAX46Y46*%
G04 Gerber Fmt 4.6, Leading zero omitted, Abs format (unit mm)*
G04 Created by KiCad (PCBNEW 8.0.0) date 2024-03-21 13:03:41*
%MOMM*%
%LPD*%
G01*
G04 APERTURE LIST*
%TA.AperFunction,ComponentPad*%
%ADD10C,2.000000*%
%TD*%
%TA.AperFunction,ComponentPad*%
%ADD11C,1.258000*%
%TD*%
%TA.AperFunction,ComponentPad*%
%ADD12R,1.258000X1.258000*%
%TD*%
%TA.AperFunction,ComponentPad*%
%ADD13R,1.700000X1.700000*%
%TD*%
%TA.AperFunction,ComponentPad*%
%ADD14O,1.700000X1.700000*%
%TD*%
G04 APERTURE END LIST*
D10*
%TO.P,D9,A*%
%TO.N,Net-(D9-PadA)*%
X11700000Y38450000D03*
%TO.P,D9,C*%
%TO.N,Net-(Q6-C)*%
X11700000Y35910000D03*
%TD*%
%TO.P,D8,A*%
%TO.N,Net-(D8-PadA)*%
X11800000Y25970000D03*
%TO.P,D8,C*%
%TO.N,Net-(Q5-C)*%
X11800000Y23430000D03*
%TD*%
%TO.P,D7,A*%
%TO.N,Net-(D7-PadA)*%
X-11820000Y43900000D03*
%TO.P,D7,C*%
%TO.N,Net-(Q4-C)*%
X-9280000Y43900000D03*
%TD*%
%TO.P,D6,A*%
%TO.N,Net-(D6-PadA)*%
X-27970000Y43700000D03*
%TO.P,D6,C*%
%TO.N,Net-(Q3-C)*%
X-25430000Y43700000D03*
%TD*%
%TO.P,D1,A*%
%TO.N,Net-(D1-PadA)*%
X-50600000Y24710000D03*
%TO.P,D1,C*%
%TO.N,Net-(Q1-C)*%
X-50600000Y27250000D03*
%TD*%
%TO.P,D5,A*%
%TO.N,Net-(D5-PadA)*%
X-50500000Y37000000D03*
%TO.P,D5,C*%
%TO.N,Net-(Q2-C)*%
X-50500000Y39540000D03*
%TD*%
D11*
%TO.P,D3,A*%
%TO.N,/Signal Centre*%
X-18450000Y53700000D03*
D12*
%TO.P,D3,K*%
%TO.N,/BATT*%
X-20990000Y53700000D03*
%TD*%
D11*
%TO.P,D2,A*%
%TO.N,/Signal Right*%
X19650000Y28542500D03*
D12*
%TO.P,D2,K*%
%TO.N,/BATT*%
X19650000Y31082500D03*
%TD*%
D13*
%TO.P,J1,1,Pin_1*%
%TO.N,unconnected-(J1-Pin_1-Pad1)*%
X-36400000Y4000000D03*
D14*
%TO.P,J1,2,Pin_2*%
%TO.N,/3V3*%
X-36400000Y6540000D03*
%TO.P,J1,3,Pin_3*%
%TO.N,unconnected-(J1-Pin_3-Pad3)*%
X-33860000Y4000000D03*
%TO.P,J1,4,Pin_4*%
%TO.N,/BATT*%
X-33860000Y6540000D03*
%TO.P,J1,5,Pin_5*%
%TO.N,/Signal Left*%
X-31320000Y4000000D03*
%TO.P,J1,6,Pin_6*%
%TO.N,unconnected-(J1-Pin_6-Pad6)*%
X-31320000Y6540000D03*
%TO.P,J1,7,Pin_7*%
%TO.N,unconnected-(J1-Pin_7-Pad7)*%
X-28780000Y4000000D03*
%TO.P,J1,8,Pin_8*%
%TO.N,/PWM Left*%
X-28780000Y6540000D03*
%TO.P,J1,9,Pin_9*%
%TO.N,GND*%
X-26240000Y4000000D03*
%TO.P,J1,10,Pin_10*%
%TO.N,unconnected-(J1-Pin_10-Pad10)*%
X-26240000Y6540000D03*
%TO.P,J1,11,Pin_11*%
%TO.N,unconnected-(J1-Pin_11-Pad11)*%
X-23700000Y4000000D03*
%TO.P,J1,12,Pin_12*%
%TO.N,unconnected-(J1-Pin_12-Pad12)*%
X-23700000Y6540000D03*
%TO.P,J1,13,Pin_13*%
%TO.N,/Signal Centre*%
X-21160000Y4000000D03*
%TO.P,J1,14,Pin_14*%
%TO.N,unconnected-(J1-Pin_14-Pad14)*%
X-21160000Y6540000D03*
%TO.P,J1,15,Pin_15*%
%TO.N,unconnected-(J1-Pin_15-Pad15)*%
X-18620000Y4000000D03*
%TO.P,J1,16,Pin_16*%
%TO.N,/PWM Centre*%
X-18620000Y6540000D03*
%TO.P,J1,17,Pin_17*%
%TO.N,/Signal Right*%
X-16080000Y4000000D03*
%TO.P,J1,18,Pin_18*%
%TO.N,unconnected-(J1-Pin_18-Pad18)*%
X-16080000Y6540000D03*
%TO.P,J1,19,Pin_19*%
%TO.N,unconnected-(J1-Pin_19-Pad19)*%
X-13540000Y4000000D03*
%TO.P,J1,20,Pin_20*%
%TO.N,unconnected-(J1-Pin_20-Pad20)*%
X-13540000Y6540000D03*
%TO.P,J1,21,Pin_21*%
%TO.N,unconnected-(J1-Pin_21-Pad21)*%
X-11000000Y4000000D03*
%TO.P,J1,22,Pin_22*%
%TO.N,/PWM Right*%
X-11000000Y6540000D03*
%TO.P,J1,23,Pin_23*%
%TO.N,unconnected-(J1-Pin_23-Pad23)*%
X-8460000Y4000000D03*
%TO.P,J1,24,Pin_24*%
%TO.N,unconnected-(J1-Pin_24-Pad24)*%
X-8460000Y6540000D03*
%TO.P,J1,25,Pin_25*%
%TO.N,unconnected-(J1-Pin_25-Pad25)*%
X-5920000Y4000000D03*
%TO.P,J1,26,Pin_26*%
%TO.N,/BATT*%
X-5920000Y6540000D03*
%TO.P,J1,27,Pin_27*%
%TO.N,unconnected-(J1-Pin_27-Pad27)*%
X-3380000Y4000000D03*
%TO.P,J1,28,Pin_28*%
%TO.N,unconnected-(J1-Pin_28-Pad28)*%
X-3380000Y6540000D03*
%TD*%
D11*
%TO.P,D4,A*%
%TO.N,/Signal Left*%
X-58150000Y25042500D03*
D12*
%TO.P,D4,K*%
%TO.N,/BATT*%
X-58150000Y27582500D03*
%TD*%
%TA.AperFunction,Conductor*%
%TO.N,GND*%
G36*
X1013979Y55980315D02*
G01*
X1036636Y55961619D01*
X21965696Y34035937D01*
X21997746Y33973852D01*
X22000000Y33950318D01*
X22000000Y14124000D01*
X21980315Y14056961D01*
X21927511Y14011206D01*
X21876000Y14000000D01*
X0Y14000000D01*
X0Y124000D01*
X-19685Y56961D01*
X-72489Y11206D01*
X-124000Y0D01*
X-39876000Y0D01*
X-39943039Y19685D01*
X-39988794Y72489D01*
X-40000000Y124000D01*
X-40000000Y6540000D01*
X-37755659Y6540000D01*
X-37735063Y6304592D01*
X-37673903Y6076337D01*
X-37574035Y5862170D01*
X-37574034Y5862169D01*
X-37574032Y5862165D01*
X-37568425Y5854158D01*
X-37438495Y5668599D01*
X-37438493Y5668597D01*
X-37316569Y5546673D01*
X-37283084Y5485350D01*
X-37288068Y5415658D01*
X-37329940Y5359725D01*
X-37360915Y5342810D01*
X-37492331Y5293796D01*
X-37607546Y5207546D01*
X-37693796Y5092331D01*
X-37744091Y4957483D01*
X-37750500Y4897873D01*
X-37750499Y4000000D01*
X-37750499Y3102129D01*
X-37750498Y3102123D01*
X-37744091Y3042516D01*
X-37693797Y2907671D01*
X-37693793Y2907664D01*
X-37607547Y2792455D01*
X-37607544Y2792452D01*
X-37492335Y2706206D01*
X-37492328Y2706202D01*
X-37357482Y2655908D01*
X-37357483Y2655908D01*
X-37297883Y2649501D01*
X-37297881Y2649500D01*
X-37297873Y2649500D01*
X-37297864Y2649500D01*
X-35502129Y2649500D01*
X-35502123Y2649501D01*
X-35442516Y2655908D01*
X-35307671Y2706202D01*
X-35307664Y2706206D01*
X-35192455Y2792452D01*
X-35192452Y2792455D01*
X-35106206Y2907664D01*
X-35106203Y2907669D01*
X-35057189Y3039083D01*
X-35015317Y3095016D01*
X-34949853Y3119433D01*
X-34881580Y3104581D01*
X-34853326Y3083430D01*
X-34731402Y2961506D01*
X-34731395Y2961501D01*
X-34537834Y2825967D01*
X-34537830Y2825965D01*
X-34323663Y2726097D01*
X-34323659Y2726096D01*
X-34323655Y2726094D01*
X-34095413Y2664938D01*
X-34095403Y2664936D01*
X-33860001Y2644341D01*
X-33860000Y2644341D01*
X-33859999Y2644341D01*
X-33624596Y2664936D01*
X-33624586Y2664938D01*
X-33396344Y2726094D01*
X-33396335Y2726098D01*
X-33182169Y2825965D01*
X-33182165Y2825967D01*
X-32988604Y2961501D01*
X-32988597Y2961506D01*
X-32821506Y3128597D01*
X-32821505Y3128599D01*
X-32691575Y3314158D01*
X-32636998Y3357782D01*
X-32567499Y3364975D01*
X-32505145Y3333453D01*
X-32488425Y3314158D01*
X-32358495Y3128599D01*
X-32358493Y3128597D01*
X-32191402Y2961506D01*
X-32191395Y2961501D01*
X-31997834Y2825967D01*
X-31997830Y2825965D01*
X-31783663Y2726097D01*
X-31783659Y2726096D01*
X-31783655Y2726094D01*
X-31555413Y2664938D01*
X-31555403Y2664936D01*
X-31320001Y2644341D01*
X-31320000Y2644341D01*
X-31319999Y2644341D01*
X-31084596Y2664936D01*
X-31084586Y2664938D01*
X-30856344Y2726094D01*
X-30856335Y2726098D01*
X-30642169Y2825965D01*
X-30642165Y2825967D01*
X-30448604Y2961501D01*
X-30448597Y2961506D01*
X-30281506Y3128597D01*
X-30281505Y3128599D01*
X-30151575Y3314158D01*
X-30096998Y3357782D01*
X-30027499Y3364975D01*
X-29965145Y3333453D01*
X-29948425Y3314158D01*
X-29818495Y3128599D01*
X-29818493Y3128597D01*
X-29651402Y2961506D01*
X-29651395Y2961501D01*
X-29457834Y2825967D01*
X-29457830Y2825965D01*
X-29243663Y2726097D01*
X-29243659Y2726096D01*
X-29243655Y2726094D01*
X-29015413Y2664938D01*
X-29015403Y2664936D01*
X-28780001Y2644341D01*
X-28780000Y2644341D01*
X-28779999Y2644341D01*
X-28544596Y2664936D01*
X-28544586Y2664938D01*
X-28316344Y2726094D01*
X-28316335Y2726098D01*
X-28102169Y2825965D01*
X-28102165Y2825967D01*
X-27908604Y2961501D01*
X-27908597Y2961506D01*
X-27741506Y3128597D01*
X-27741505Y3128599D01*
X-27611269Y3314594D01*
X-27556691Y3358219D01*
X-27487193Y3365411D01*
X-27424838Y3333889D01*
X-27408119Y3314594D01*
X-27278105Y3128917D01*
X-27111082Y2961894D01*
X-26917578Y2826399D01*
X-26703492Y2726570D01*
X-26703486Y2726567D01*
X-26490000Y2669364D01*
X-26490000Y3566988D01*
X-26432993Y3534075D01*
X-26305826Y3500000D01*
X-26174174Y3500000D01*
X-26047007Y3534075D01*
X-25990000Y3566988D01*
X-25990000Y2669364D01*
X-25989999Y2669364D01*
X-25776513Y2726567D01*
X-25776507Y2726570D01*
X-25562421Y2826399D01*
X-25368917Y2961894D01*
X-25201890Y3128921D01*
X-25071879Y3314594D01*
X-25017302Y3358219D01*
X-24947804Y3365411D01*
X-24885449Y3333888D01*
X-24868731Y3314595D01*
X-24738495Y3128599D01*
X-24738493Y3128597D01*
X-24571402Y2961506D01*
X-24571395Y2961501D01*
X-24377834Y2825967D01*
X-24377830Y2825965D01*
X-24163663Y2726097D01*
X-24163659Y2726096D01*
X-24163655Y2726094D01*
X-23935413Y2664938D01*
X-23935403Y2664936D01*
X-23700001Y2644341D01*
X-23700000Y2644341D01*
X-23699999Y2644341D01*
X-23464596Y2664936D01*
X-23464586Y2664938D01*
X-23236344Y2726094D01*
X-23236335Y2726098D01*
X-23022169Y2825965D01*
X-23022165Y2825967D01*
X-22828604Y2961501D01*
X-22828597Y2961506D01*
X-22661506Y3128597D01*
X-22661505Y3128599D01*
X-22531575Y3314158D01*
X-22476998Y3357782D01*
X-22407499Y3364975D01*
X-22345145Y3333453D01*
X-22328425Y3314158D01*
X-22198495Y3128599D01*
X-22198493Y3128597D01*
X-22031402Y2961506D01*
X-22031395Y2961501D01*
X-21837834Y2825967D01*
X-21837830Y2825965D01*
X-21623663Y2726097D01*
X-21623659Y2726096D01*
X-21623655Y2726094D01*
X-21395413Y2664938D01*
X-21395403Y2664936D01*
X-21160001Y2644341D01*
X-21160000Y2644341D01*
X-21159999Y2644341D01*
X-20924596Y2664936D01*
X-20924586Y2664938D01*
X-20696344Y2726094D01*
X-20696335Y2726098D01*
X-20482169Y2825965D01*
X-20482165Y2825967D01*
X-20288604Y2961501D01*
X-20288597Y2961506D01*
X-20121506Y3128597D01*
X-20121505Y3128599D01*
X-19991575Y3314158D01*
X-19936998Y3357782D01*
X-19867499Y3364975D01*
X-19805145Y3333453D01*
X-19788425Y3314158D01*
X-19658495Y3128599D01*
X-19658493Y3128597D01*
X-19491402Y2961506D01*
X-19491395Y2961501D01*
X-19297834Y2825967D01*
X-19297830Y2825965D01*
X-19083663Y2726097D01*
X-19083659Y2726096D01*
X-19083655Y2726094D01*
X-18855413Y2664938D01*
X-18855403Y2664936D01*
X-18620001Y2644341D01*
X-18620000Y2644341D01*
X-18619999Y2644341D01*
X-18384596Y2664936D01*
X-18384586Y2664938D01*
X-18156344Y2726094D01*
X-18156335Y2726098D01*
X-17942169Y2825965D01*
X-17942165Y2825967D01*
X-17748604Y2961501D01*
X-17748597Y2961506D01*
X-17581506Y3128597D01*
X-17581505Y3128599D01*
X-17451575Y3314158D01*
X-17396998Y3357782D01*
X-17327499Y3364975D01*
X-17265145Y3333453D01*
X-17248425Y3314158D01*
X-17118495Y3128599D01*
X-17118493Y3128597D01*
X-16951402Y2961506D01*
X-16951395Y2961501D01*
X-16757834Y2825967D01*
X-16757830Y2825965D01*
X-16543663Y2726097D01*
X-16543659Y2726096D01*
X-16543655Y2726094D01*
X-16315413Y2664938D01*
X-16315403Y2664936D01*
X-16080001Y2644341D01*
X-16080000Y2644341D01*
X-16079999Y2644341D01*
X-15844596Y2664936D01*
X-15844586Y2664938D01*
X-15616344Y2726094D01*
X-15616335Y2726098D01*
X-15402169Y2825965D01*
X-15402165Y2825967D01*
X-15208604Y2961501D01*
X-15208597Y2961506D01*
X-15041506Y3128597D01*
X-15041505Y3128599D01*
X-14911575Y3314158D01*
X-14856998Y3357782D01*
X-14787499Y3364975D01*
X-14725145Y3333453D01*
X-14708425Y3314158D01*
X-14578495Y3128599D01*
X-14578493Y3128597D01*
X-14411402Y2961506D01*
X-14411395Y2961501D01*
X-14217834Y2825967D01*
X-14217830Y2825965D01*
X-14003663Y2726097D01*
X-14003659Y2726096D01*
X-14003655Y2726094D01*
X-13775413Y2664938D01*
X-13775403Y2664936D01*
X-13540001Y2644341D01*
X-13540000Y2644341D01*
X-13539999Y2644341D01*
X-13304596Y2664936D01*
X-13304586Y2664938D01*
X-13076344Y2726094D01*
X-13076335Y2726098D01*
X-12862169Y2825965D01*
X-12862165Y2825967D01*
X-12668604Y2961501D01*
X-12668597Y2961506D01*
X-12501506Y3128597D01*
X-12501505Y3128599D01*
X-12371575Y3314158D01*
X-12316998Y3357782D01*
X-12247499Y3364975D01*
X-12185145Y3333453D01*
X-12168425Y3314158D01*
X-12038495Y3128599D01*
X-12038493Y3128597D01*
X-11871402Y2961506D01*
X-11871395Y2961501D01*
X-11677834Y2825967D01*
X-11677830Y2825965D01*
X-11463663Y2726097D01*
X-11463659Y2726096D01*
X-11463655Y2726094D01*
X-11235413Y2664938D01*
X-11235403Y2664936D01*
X-11000001Y2644341D01*
X-11000000Y2644341D01*
X-10999999Y2644341D01*
X-10764596Y2664936D01*
X-10764586Y2664938D01*
X-10536344Y2726094D01*
X-10536335Y2726098D01*
X-10322169Y2825965D01*
X-10322165Y2825967D01*
X-10128604Y2961501D01*
X-10128597Y2961506D01*
X-9961506Y3128597D01*
X-9961505Y3128599D01*
X-9831575Y3314158D01*
X-9776998Y3357782D01*
X-9707499Y3364975D01*
X-9645145Y3333453D01*
X-9628425Y3314158D01*
X-9498495Y3128599D01*
X-9498493Y3128597D01*
X-9331402Y2961506D01*
X-9331395Y2961501D01*
X-9137834Y2825967D01*
X-9137830Y2825965D01*
X-8923663Y2726097D01*
X-8923659Y2726096D01*
X-8923655Y2726094D01*
X-8695413Y2664938D01*
X-8695403Y2664936D01*
X-8460001Y2644341D01*
X-8460000Y2644341D01*
X-8459999Y2644341D01*
X-8224596Y2664936D01*
X-8224586Y2664938D01*
X-7996344Y2726094D01*
X-7996335Y2726098D01*
X-7782169Y2825965D01*
X-7782165Y2825967D01*
X-7588604Y2961501D01*
X-7588597Y2961506D01*
X-7421506Y3128597D01*
X-7421505Y3128599D01*
X-7291575Y3314158D01*
X-7236998Y3357782D01*
X-7167499Y3364975D01*
X-7105145Y3333453D01*
X-7088425Y3314158D01*
X-6958495Y3128599D01*
X-6958493Y3128597D01*
X-6791402Y2961506D01*
X-6791395Y2961501D01*
X-6597834Y2825967D01*
X-6597830Y2825965D01*
X-6383663Y2726097D01*
X-6383659Y2726096D01*
X-6383655Y2726094D01*
X-6155413Y2664938D01*
X-6155403Y2664936D01*
X-5920001Y2644341D01*
X-5920000Y2644341D01*
X-5919999Y2644341D01*
X-5684596Y2664936D01*
X-5684586Y2664938D01*
X-5456344Y2726094D01*
X-5456335Y2726098D01*
X-5242169Y2825965D01*
X-5242165Y2825967D01*
X-5048604Y2961501D01*
X-5048597Y2961506D01*
X-4881506Y3128597D01*
X-4881505Y3128599D01*
X-4751575Y3314158D01*
X-4696998Y3357782D01*
X-4627499Y3364975D01*
X-4565145Y3333453D01*
X-4548425Y3314158D01*
X-4418495Y3128599D01*
X-4418493Y3128597D01*
X-4251402Y2961506D01*
X-4251395Y2961501D01*
X-4057834Y2825967D01*
X-4057830Y2825965D01*
X-3843663Y2726097D01*
X-3843659Y2726096D01*
X-3843655Y2726094D01*
X-3615413Y2664938D01*
X-3615403Y2664936D01*
X-3380001Y2644341D01*
X-3380000Y2644341D01*
X-3379999Y2644341D01*
X-3144596Y2664936D01*
X-3144586Y2664938D01*
X-2916344Y2726094D01*
X-2916335Y2726098D01*
X-2702169Y2825965D01*
X-2702165Y2825967D01*
X-2508604Y2961501D01*
X-2508597Y2961506D01*
X-2341506Y3128597D01*
X-2341501Y3128604D01*
X-2205967Y3322165D01*
X-2205965Y3322169D01*
X-2106098Y3536335D01*
X-2106094Y3536344D01*
X-2044938Y3764586D01*
X-2044936Y3764596D01*
X-2024341Y3999999D01*
X-2024341Y4000000D01*
X-2044936Y4235403D01*
X-2044938Y4235413D01*
X-2106094Y4463655D01*
X-2106096Y4463659D01*
X-2106097Y4463663D01*
X-2189155Y4641780D01*
X-2205964Y4677828D01*
X-2205965Y4677830D01*
X-2341505Y4871402D01*
X-2508597Y5038493D01*
X-2508599Y5038495D01*
X-2694158Y5168425D01*
X-2737782Y5223002D01*
X-2744975Y5292501D01*
X-2713453Y5354855D01*
X-2694158Y5371575D01*
X-2508599Y5501505D01*
X-2508597Y5501506D01*
X-2341506Y5668597D01*
X-2341501Y5668604D01*
X-2205967Y5862165D01*
X-2205965Y5862169D01*
X-2106098Y6076335D01*
X-2106094Y6076344D01*
X-2044938Y6304586D01*
X-2044936Y6304596D01*
X-2024341Y6539999D01*
X-2024341Y6540000D01*
X-2044936Y6775403D01*
X-2044938Y6775413D01*
X-2106094Y7003655D01*
X-2106096Y7003659D01*
X-2106097Y7003663D01*
X-2186003Y7175021D01*
X-2205964Y7217828D01*
X-2205965Y7217830D01*
X-2341505Y7411402D01*
X-2508597Y7578493D01*
X-2508598Y7578494D01*
X-2508599Y7578495D01*
X-2605384Y7646265D01*
X-2702165Y7714032D01*
X-2702169Y7714034D01*
X-2702170Y7714035D01*
X-2916337Y7813903D01*
X-3144592Y7875063D01*
X-3332918Y7891539D01*
X-3379999Y7895659D01*
X-3380001Y7895659D01*
X-3419234Y7892226D01*
X-3615408Y7875063D01*
X-3843663Y7813903D01*
X-4057829Y7714035D01*
X-4251401Y7578495D01*
X-4418495Y7411401D01*
X-4548426Y7225838D01*
X-4603001Y7182215D01*
X-4672500Y7175021D01*
X-4734855Y7206543D01*
X-4751571Y7225836D01*
X-4881505Y7411401D01*
X-5048599Y7578495D01*
X-5145384Y7646265D01*
X-5242165Y7714032D01*
X-5242169Y7714034D01*
X-5242170Y7714035D01*
X-5456337Y7813903D01*
X-5684592Y7875063D01*
X-5872918Y7891539D01*
X-5919999Y7895659D01*
X-5920001Y7895659D01*
X-5959234Y7892226D01*
X-6155408Y7875063D01*
X-6383663Y7813903D01*
X-6597829Y7714035D01*
X-6791401Y7578495D01*
X-6958495Y7411401D01*
X-7088426Y7225838D01*
X-7143001Y7182215D01*
X-7212500Y7175021D01*
X-7274855Y7206543D01*
X-7291571Y7225836D01*
X-7421505Y7411401D01*
X-7588599Y7578495D01*
X-7685384Y7646265D01*
X-7782165Y7714032D01*
X-7782169Y7714034D01*
X-7782170Y7714035D01*
X-7996337Y7813903D01*
X-8224592Y7875063D01*
X-8412918Y7891539D01*
X-8459999Y7895659D01*
X-8460001Y7895659D01*
X-8499234Y7892226D01*
X-8695408Y7875063D01*
X-8923663Y7813903D01*
X-9137829Y7714035D01*
X-9331401Y7578495D01*
X-9498495Y7411401D01*
X-9628426Y7225838D01*
X-9683001Y7182215D01*
X-9752500Y7175021D01*
X-9814855Y7206543D01*
X-9831571Y7225836D01*
X-9961505Y7411401D01*
X-10128599Y7578495D01*
X-10225384Y7646265D01*
X-10322165Y7714032D01*
X-10322169Y7714034D01*
X-10322170Y7714035D01*
X-10536337Y7813903D01*
X-10764592Y7875063D01*
X-10952918Y7891539D01*
X-10999999Y7895659D01*
X-11000001Y7895659D01*
X-11039234Y7892226D01*
X-11235408Y7875063D01*
X-11463663Y7813903D01*
X-11677829Y7714035D01*
X-11871401Y7578495D01*
X-12038495Y7411401D01*
X-12168426Y7225838D01*
X-12223001Y7182215D01*
X-12292500Y7175021D01*
X-12354855Y7206543D01*
X-12371571Y7225836D01*
X-12501505Y7411401D01*
X-12668599Y7578495D01*
X-12765384Y7646265D01*
X-12862165Y7714032D01*
X-12862169Y7714034D01*
X-12862170Y7714035D01*
X-13076337Y7813903D01*
X-13304592Y7875063D01*
X-13492918Y7891539D01*
X-13539999Y7895659D01*
X-13540001Y7895659D01*
X-13579234Y7892226D01*
X-13775408Y7875063D01*
X-14003663Y7813903D01*
X-14217829Y7714035D01*
X-14411401Y7578495D01*
X-14578495Y7411401D01*
X-14708426Y7225838D01*
X-14763001Y7182215D01*
X-14832500Y7175021D01*
X-14894855Y7206543D01*
X-14911571Y7225836D01*
X-15041505Y7411401D01*
X-15208599Y7578495D01*
X-15305384Y7646265D01*
X-15402165Y7714032D01*
X-15402169Y7714034D01*
X-15402170Y7714035D01*
X-15616337Y7813903D01*
X-15844592Y7875063D01*
X-16032918Y7891539D01*
X-16079999Y7895659D01*
X-16080001Y7895659D01*
X-16119234Y7892226D01*
X-16315408Y7875063D01*
X-16543663Y7813903D01*
X-16757829Y7714035D01*
X-16951401Y7578495D01*
X-17118495Y7411401D01*
X-17248426Y7225838D01*
X-17303001Y7182215D01*
X-17372500Y7175021D01*
X-17434855Y7206543D01*
X-17451571Y7225836D01*
X-17581505Y7411401D01*
X-17748599Y7578495D01*
X-17845384Y7646265D01*
X-17942165Y7714032D01*
X-17942169Y7714034D01*
X-17942170Y7714035D01*
X-18156337Y7813903D01*
X-18384592Y7875063D01*
X-18572918Y7891539D01*
X-18619999Y7895659D01*
X-18620001Y7895659D01*
X-18659234Y7892226D01*
X-18855408Y7875063D01*
X-19083663Y7813903D01*
X-19297829Y7714035D01*
X-19491401Y7578495D01*
X-19658495Y7411401D01*
X-19788426Y7225838D01*
X-19843001Y7182215D01*
X-19912500Y7175021D01*
X-19974855Y7206543D01*
X-19991571Y7225836D01*
X-20121505Y7411401D01*
X-20288599Y7578495D01*
X-20385384Y7646265D01*
X-20482165Y7714032D01*
X-20482169Y7714034D01*
X-20482170Y7714035D01*
X-20696337Y7813903D01*
X-20924592Y7875063D01*
X-21112918Y7891539D01*
X-21159999Y7895659D01*
X-21160001Y7895659D01*
X-21199234Y7892226D01*
X-21395408Y7875063D01*
X-21623663Y7813903D01*
X-21837829Y7714035D01*
X-22031401Y7578495D01*
X-22198495Y7411401D01*
X-22328426Y7225838D01*
X-22383001Y7182215D01*
X-22452500Y7175021D01*
X-22514855Y7206543D01*
X-22531571Y7225836D01*
X-22661505Y7411401D01*
X-22828599Y7578495D01*
X-22925384Y7646265D01*
X-23022165Y7714032D01*
X-23022169Y7714034D01*
X-23022170Y7714035D01*
X-23236337Y7813903D01*
X-23464592Y7875063D01*
X-23652918Y7891539D01*
X-23699999Y7895659D01*
X-23700001Y7895659D01*
X-23739234Y7892226D01*
X-23935408Y7875063D01*
X-24163663Y7813903D01*
X-24377829Y7714035D01*
X-24571401Y7578495D01*
X-24738495Y7411401D01*
X-24868426Y7225838D01*
X-24923001Y7182215D01*
X-24992500Y7175021D01*
X-25054855Y7206543D01*
X-25071571Y7225836D01*
X-25201505Y7411401D01*
X-25368599Y7578495D01*
X-25465384Y7646265D01*
X-25562165Y7714032D01*
X-25562169Y7714034D01*
X-25562170Y7714035D01*
X-25776337Y7813903D01*
X-26004592Y7875063D01*
X-26192918Y7891539D01*
X-26239999Y7895659D01*
X-26240001Y7895659D01*
X-26279234Y7892226D01*
X-26475408Y7875063D01*
X-26703663Y7813903D01*
X-26917829Y7714035D01*
X-27111401Y7578495D01*
X-27278495Y7411401D01*
X-27408426Y7225838D01*
X-27463001Y7182215D01*
X-27532500Y7175021D01*
X-27594855Y7206543D01*
X-27611571Y7225836D01*
X-27741505Y7411401D01*
X-27908599Y7578495D01*
X-28005384Y7646265D01*
X-28102165Y7714032D01*
X-28102169Y7714034D01*
X-28102170Y7714035D01*
X-28316337Y7813903D01*
X-28544592Y7875063D01*
X-28732918Y7891539D01*
X-28779999Y7895659D01*
X-28780001Y7895659D01*
X-28819234Y7892226D01*
X-29015408Y7875063D01*
X-29243663Y7813903D01*
X-29457829Y7714035D01*
X-29651401Y7578495D01*
X-29818495Y7411401D01*
X-29948426Y7225838D01*
X-30003001Y7182215D01*
X-30072500Y7175021D01*
X-30134855Y7206543D01*
X-30151571Y7225836D01*
X-30281505Y7411401D01*
X-30448599Y7578495D01*
X-30545384Y7646265D01*
X-30642165Y7714032D01*
X-30642169Y7714034D01*
X-30642170Y7714035D01*
X-30856337Y7813903D01*
X-31084592Y7875063D01*
X-31272918Y7891539D01*
X-31319999Y7895659D01*
X-31320001Y7895659D01*
X-31359234Y7892226D01*
X-31555408Y7875063D01*
X-31783663Y7813903D01*
X-31997829Y7714035D01*
X-32191401Y7578495D01*
X-32358495Y7411401D01*
X-32488426Y7225838D01*
X-32543001Y7182215D01*
X-32612500Y7175021D01*
X-32674855Y7206543D01*
X-32691571Y7225836D01*
X-32821505Y7411401D01*
X-32988599Y7578495D01*
X-33085384Y7646265D01*
X-33182165Y7714032D01*
X-33182169Y7714034D01*
X-33182170Y7714035D01*
X-33396337Y7813903D01*
X-33624592Y7875063D01*
X-33812918Y7891539D01*
X-33859999Y7895659D01*
X-33860001Y7895659D01*
X-33899234Y7892226D01*
X-34095408Y7875063D01*
X-34323663Y7813903D01*
X-34537829Y7714035D01*
X-34731401Y7578495D01*
X-34898495Y7411401D01*
X-35028426Y7225838D01*
X-35083001Y7182215D01*
X-35152500Y7175021D01*
X-35214855Y7206543D01*
X-35231571Y7225836D01*
X-35361505Y7411401D01*
X-35528599Y7578495D01*
X-35625384Y7646265D01*
X-35722165Y7714032D01*
X-35722169Y7714034D01*
X-35722170Y7714035D01*
X-35936337Y7813903D01*
X-36164592Y7875063D01*
X-36352918Y7891539D01*
X-36399999Y7895659D01*
X-36400001Y7895659D01*
X-36439234Y7892226D01*
X-36635408Y7875063D01*
X-36863663Y7813903D01*
X-37077829Y7714035D01*
X-37271401Y7578495D01*
X-37438495Y7411401D01*
X-37574035Y7217829D01*
X-37673903Y7003663D01*
X-37735063Y6775408D01*
X-37755659Y6540000D01*
X-40000000Y6540000D01*
X-40000000Y14000000D01*
X-61876000Y14000000D01*
X-61943039Y14019685D01*
X-61988794Y14072489D01*
X-62000000Y14124000D01*
X-62000000Y25042500D01*
X-59284339Y25042500D01*
X-59265025Y24834066D01*
X-59218734Y24671370D01*
X-59207740Y24632730D01*
X-59114437Y24445352D01*
X-59114432Y24445344D01*
X-58988285Y24278298D01*
X-58844399Y24147130D01*
X-58833592Y24137278D01*
X-58655618Y24027081D01*
X-58655616Y24027080D01*
X-58655615Y24027079D01*
X-58501779Y23967484D01*
X-58460427Y23951464D01*
X-58254664Y23913000D01*
X-58254662Y23913000D01*
X-58045338Y23913000D01*
X-58045336Y23913000D01*
X-57839573Y23951464D01*
X-57839570Y23951465D01*
X-57644384Y24027079D01*
X-57644383Y24027080D01*
X-57466406Y24137279D01*
X-57311714Y24278298D01*
X-57185567Y24445344D01*
X-57185562Y24445352D01*
X-57092259Y24632730D01*
X-57070276Y24709994D01*
X-52105643Y24709994D01*
X-52085109Y24462187D01*
X-52085107Y24462175D01*
X-52024063Y24221118D01*
X-51924173Y23993393D01*
X-51788166Y23785217D01*
X-51788164Y23785215D01*
X-51619744Y23602262D01*
X-51423509Y23449526D01*
X-51423506Y23449524D01*
X-51204811Y23331172D01*
X-51204802Y23331169D01*
X-50969616Y23250429D01*
X-50724335Y23209500D01*
X-50475665Y23209500D01*
X-50230383Y23250429D01*
X-49995197Y23331169D01*
X-49995188Y23331172D01*
X-49812581Y23429994D01*
X10294357Y23429994D01*
X10314890Y23182187D01*
X10314892Y23182175D01*
X10375936Y22941118D01*
X10475826Y22713393D01*
X10611833Y22505217D01*
X10780257Y22322261D01*
X10976493Y22169524D01*
X11195188Y22051172D01*
X11195197Y22051169D01*
X11430383Y21970429D01*
X11675665Y21929500D01*
X11924335Y21929500D01*
X12169616Y21970429D01*
X12404802Y22051169D01*
X12404811Y22051172D01*
X12623506Y22169524D01*
X12623509Y22169526D01*
X12819744Y22322262D01*
X12988164Y22505215D01*
X12988166Y22505217D01*
X13124173Y22713393D01*
X13224063Y22941118D01*
X13285107Y23182175D01*
X13285109Y23182187D01*
X13305643Y23429994D01*
X13305643Y23430005D01*
X13285109Y23677812D01*
X13285108Y23677815D01*
X13285108Y23677821D01*
X13224063Y23918881D01*
X13124173Y24146607D01*
X12988164Y24354785D01*
X12819744Y24537738D01*
X12736991Y24602147D01*
X12696179Y24658857D01*
X12692504Y24728630D01*
X12727136Y24789313D01*
X12736985Y24797848D01*
X12819744Y24862262D01*
X12988164Y25045215D01*
X12988166Y25045217D01*
X13124173Y25253393D01*
X13224063Y25481118D01*
X13285107Y25722175D01*
X13285109Y25722187D01*
X13305643Y25969994D01*
X13305643Y25970005D01*
X13285109Y26217812D01*
X13285108Y26217815D01*
X13285108Y26217821D01*
X13224063Y26458881D01*
X13124173Y26686607D01*
X12988164Y26894785D01*
X12819744Y27077738D01*
X12623509Y27230474D01*
X12404810Y27348828D01*
X12169614Y27429571D01*
X11924335Y27470500D01*
X11675665Y27470500D01*
X11430386Y27429571D01*
X11195190Y27348828D01*
X10976491Y27230474D01*
X10780256Y27077738D01*
X10644245Y26929991D01*
X10611833Y26894782D01*
X10475826Y26686606D01*
X10375936Y26458881D01*
X10314892Y26217824D01*
X10314890Y26217812D01*
X10294357Y25970005D01*
X10294357Y25969994D01*
X10314890Y25722187D01*
X10314892Y25722175D01*
X10375936Y25481118D01*
X10475826Y25253393D01*
X10611833Y25045217D01*
X10692296Y24957812D01*
X10780256Y24862262D01*
X10863008Y24797852D01*
X10903821Y24741143D01*
X10907496Y24671370D01*
X10872864Y24610687D01*
X10863014Y24602151D01*
X10780256Y24537738D01*
X10644245Y24389991D01*
X10611833Y24354782D01*
X10475826Y24146606D01*
X10375936Y23918881D01*
X10314892Y23677824D01*
X10314890Y23677812D01*
X10294357Y23430005D01*
X10294357Y23429994D01*
X-49812581Y23429994D01*
X-49776493Y23449524D01*
X-49580257Y23602261D01*
X-49411833Y23785217D01*
X-49275826Y23993393D01*
X-49175936Y24221118D01*
X-49114892Y24462175D01*
X-49114890Y24462187D01*
X-49094357Y24709994D01*
X-49094357Y24710005D01*
X-49114890Y24957812D01*
X-49114892Y24957824D01*
X-49175936Y25198881D01*
X-49275826Y25426606D01*
X-49411833Y25634782D01*
X-49492288Y25722179D01*
X-49580256Y25817738D01*
X-49663008Y25882147D01*
X-49703821Y25938857D01*
X-49707496Y26008630D01*
X-49672864Y26069313D01*
X-49663014Y26077848D01*
X-49580256Y26142262D01*
X-49510696Y26217824D01*
X-49411833Y26325217D01*
X-49275826Y26533393D01*
X-49175936Y26761118D01*
X-49114892Y27002175D01*
X-49114890Y27002187D01*
X-49094357Y27249994D01*
X-49094357Y27250005D01*
X-49114890Y27497812D01*
X-49114892Y27497824D01*
X-49175936Y27738881D01*
X-49275826Y27966606D01*
X-49411833Y28174782D01*
X-49444245Y28209991D01*
X-49580256Y28357738D01*
X-49776491Y28510474D01*
X-49835668Y28542499D01*
X18515661Y28542499D01*
X18534974Y28334070D01*
X18534974Y28334066D01*
X18534975Y28334066D01*
X18539267Y28318982D01*
X18592259Y28132730D01*
X18685562Y27945352D01*
X18685567Y27945344D01*
X18811714Y27778298D01*
X18966406Y27637279D01*
X19144383Y27527080D01*
X19144384Y27527079D01*
X19339570Y27451465D01*
X19339573Y27451464D01*
X19545336Y27413000D01*
X19545338Y27413000D01*
X19754662Y27413000D01*
X19754664Y27413000D01*
X19960427Y27451464D01*
X20009565Y27470500D01*
X20155615Y27527079D01*
X20155616Y27527080D01*
X20155618Y27527081D01*
X20333592Y27637278D01*
X20344399Y27647130D01*
X20488285Y27778298D01*
X20614432Y27945344D01*
X20614437Y27945352D01*
X20707740Y28132730D01*
X20719705Y28174782D01*
X20765025Y28334066D01*
X20781371Y28510474D01*
X20784339Y28542499D01*
X20784339Y28542500D01*
X20776340Y28628827D01*
X20765025Y28750934D01*
X20707740Y28952271D01*
X20614434Y29139653D01*
X20488287Y29306699D01*
X20333592Y29447722D01*
X20155618Y29557919D01*
X19960427Y29633536D01*
X19754664Y29672000D01*
X19545336Y29672000D01*
X19339573Y29633536D01*
X19185734Y29573939D01*
X19144384Y29557920D01*
X19144383Y29557919D01*
X19144382Y29557919D01*
X18966408Y29447722D01*
X18966406Y29447720D01*
X18811714Y29306701D01*
X18685567Y29139655D01*
X18685562Y29139647D01*
X18592259Y28952269D01*
X18534974Y28750929D01*
X18515661Y28542500D01*
X18515661Y28542499D01*
X-49835668Y28542499D01*
X-49995190Y28628828D01*
X-50230386Y28709571D01*
X-50475665Y28750500D01*
X-50724335Y28750500D01*
X-50969614Y28709571D01*
X-51204810Y28628828D01*
X-51423509Y28510474D01*
X-51619744Y28357738D01*
X-51788164Y28174785D01*
X-51924173Y27966607D01*
X-52024063Y27738881D01*
X-52085108Y27497821D01*
X-52085108Y27497815D01*
X-52085109Y27497812D01*
X-52105643Y27250005D01*
X-52105643Y27249994D01*
X-52085109Y27002187D01*
X-52085107Y27002175D01*
X-52024063Y26761118D01*
X-51924173Y26533393D01*
X-51788166Y26325217D01*
X-51788164Y26325215D01*
X-51619744Y26142262D01*
X-51536991Y26077852D01*
X-51496179Y26021143D01*
X-51492504Y25951370D01*
X-51527136Y25890687D01*
X-51536985Y25882151D01*
X-51619744Y25817738D01*
X-51788164Y25634785D01*
X-51924173Y25426607D01*
X-52024063Y25198881D01*
X-52085108Y24957821D01*
X-52085108Y24957815D01*
X-52085109Y24957812D01*
X-52105643Y24710005D01*
X-52105643Y24709994D01*
X-57070276Y24709994D01*
X-57034974Y24834070D01*
X-57015661Y25042499D01*
X-57015661Y25042500D01*
X-57034974Y25250929D01*
X-57092259Y25452269D01*
X-57185562Y25639647D01*
X-57185567Y25639655D01*
X-57311714Y25806701D01*
X-57466406Y25947720D01*
X-57466408Y25947722D01*
X-57644382Y26057919D01*
X-57644383Y26057919D01*
X-57644384Y26057920D01*
X-57685734Y26073939D01*
X-57839573Y26133536D01*
X-58045336Y26172000D01*
X-58254664Y26172000D01*
X-58460427Y26133536D01*
X-58655618Y26057919D01*
X-58833592Y25947722D01*
X-58988287Y25806699D01*
X-59114434Y25639653D01*
X-59207740Y25452271D01*
X-59265025Y25250934D01*
X-59284339Y25042500D01*
X-62000000Y25042500D01*
X-62000000Y28259373D01*
X-59279500Y28259373D01*
X-59279499Y26905628D01*
X-59278333Y26894785D01*
X-59273091Y26846016D01*
X-59222797Y26711171D01*
X-59222793Y26711164D01*
X-59136547Y26595955D01*
X-59136544Y26595952D01*
X-59021335Y26509706D01*
X-59021328Y26509702D01*
X-58886482Y26459408D01*
X-58886483Y26459408D01*
X-58826883Y26453001D01*
X-58826881Y26453000D01*
X-58826873Y26453000D01*
X-58826864Y26453000D01*
X-57473129Y26453000D01*
X-57473123Y26453001D01*
X-57413516Y26459408D01*
X-57278671Y26509702D01*
X-57278664Y26509706D01*
X-57163455Y26595952D01*
X-57163452Y26595955D01*
X-57077206Y26711164D01*
X-57077202Y26711171D01*
X-57026908Y26846017D01*
X-57020501Y26905616D01*
X-57020500Y26905619D01*
X-57020500Y26905627D01*
X-57020500Y27527081D01*
X-57020500Y28259370D01*
X-57020501Y28259376D01*
X-57026908Y28318983D01*
X-57077202Y28453828D01*
X-57077206Y28453835D01*
X-57163452Y28569044D01*
X-57163455Y28569047D01*
X-57278664Y28655293D01*
X-57278671Y28655297D01*
X-57413517Y28705591D01*
X-57413516Y28705591D01*
X-57419925Y28706279D01*
X-57473127Y28712000D01*
X-58826872Y28711999D01*
X-58886483Y28705591D01*
X-59021331Y28655296D01*
X-59136546Y28569046D01*
X-59222796Y28453831D01*
X-59273091Y28318983D01*
X-59279500Y28259373D01*
X-62000000Y28259373D01*
X-62000000Y30405629D01*
X18520500Y30405629D01*
X18520501Y30405623D01*
X18526908Y30346016D01*
X18577202Y30211171D01*
X18577206Y30211164D01*
X18663452Y30095955D01*
X18663455Y30095952D01*
X18778664Y30009706D01*
X18778671Y30009702D01*
X18913517Y29959408D01*
X18913516Y29959408D01*
X18973116Y29953001D01*
X18973119Y29953000D01*
X18973127Y29953000D01*
X18973134Y29953000D01*
X18973135Y29953000D01*
X20326870Y29953000D01*
X20326876Y29953001D01*
X20386483Y29959408D01*
X20521328Y30009702D01*
X20521335Y30009706D01*
X20636544Y30095952D01*
X20636547Y30095955D01*
X20722793Y30211164D01*
X20722797Y30211171D01*
X20773091Y30346017D01*
X20779500Y30405627D01*
X20779499Y31759372D01*
X20773091Y31818983D01*
X20722796Y31953831D01*
X20636546Y32069046D01*
X20521331Y32155296D01*
X20386483Y32205591D01*
X20326873Y32212000D01*
X18973128Y32211999D01*
X18924757Y32206799D01*
X18913516Y32205591D01*
X18778671Y32155297D01*
X18778664Y32155293D01*
X18663455Y32069047D01*
X18663452Y32069044D01*
X18577206Y31953835D01*
X18577202Y31953828D01*
X18526908Y31818982D01*
X18520501Y31759383D01*
X18520501Y31759376D01*
X18520500Y31759364D01*
X18520500Y30405629D01*
X-62000000Y30405629D01*
X-62000000Y33950318D01*
X-61980315Y34017357D01*
X-61965696Y34035937D01*
X-59136369Y36999994D01*
X-52005643Y36999994D01*
X-51985109Y36752187D01*
X-51985107Y36752175D01*
X-51924063Y36511118D01*
X-51824173Y36283393D01*
X-51688166Y36075217D01*
X-51688164Y36075215D01*
X-51519744Y35892262D01*
X-51323509Y35739526D01*
X-51323506Y35739524D01*
X-51104811Y35621172D01*
X-51104802Y35621169D01*
X-50869616Y35540429D01*
X-50624335Y35499500D01*
X-50375665Y35499500D01*
X-50130383Y35540429D01*
X-49895197Y35621169D01*
X-49895188Y35621172D01*
X-49676493Y35739524D01*
X-49480257Y35892261D01*
X-49463933Y35909994D01*
X10194357Y35909994D01*
X10214890Y35662187D01*
X10214892Y35662175D01*
X10275936Y35421118D01*
X10375826Y35193393D01*
X10511833Y34985217D01*
X10680257Y34802261D01*
X10876493Y34649524D01*
X11095188Y34531172D01*
X11095197Y34531169D01*
X11330383Y34450429D01*
X11575665Y34409500D01*
X11824335Y34409500D01*
X12069616Y34450429D01*
X12304802Y34531169D01*
X12304811Y34531172D01*
X12523506Y34649524D01*
X12523509Y34649526D01*
X12719744Y34802262D01*
X12888164Y34985215D01*
X12888166Y34985217D01*
X13024173Y35193393D01*
X13124063Y35421118D01*
X13185107Y35662175D01*
X13185109Y35662187D01*
X13205643Y35909994D01*
X13205643Y35910005D01*
X13185109Y36157812D01*
X13185108Y36157815D01*
X13185108Y36157821D01*
X13124063Y36398881D01*
X13024173Y36626607D01*
X12888164Y36834785D01*
X12719744Y37017738D01*
X12636991Y37082147D01*
X12596179Y37138857D01*
X12592504Y37208630D01*
X12627136Y37269313D01*
X12636985Y37277848D01*
X12719744Y37342262D01*
X12888164Y37525215D01*
X12888166Y37525217D01*
X13024173Y37733393D01*
X13124063Y37961118D01*
X13185107Y38202175D01*
X13185109Y38202187D01*
X13205643Y38449994D01*
X13205643Y38450005D01*
X13185109Y38697812D01*
X13185108Y38697815D01*
X13185108Y38697821D01*
X13124063Y38938881D01*
X13024173Y39166607D01*
X12888164Y39374785D01*
X12719744Y39557738D01*
X12523509Y39710474D01*
X12304810Y39828828D01*
X12069614Y39909571D01*
X11824335Y39950500D01*
X11575665Y39950500D01*
X11330386Y39909571D01*
X11095190Y39828828D01*
X10876491Y39710474D01*
X10680256Y39557738D01*
X10663922Y39539994D01*
X10511833Y39374782D01*
X10375826Y39166606D01*
X10275936Y38938881D01*
X10214892Y38697824D01*
X10214890Y38697812D01*
X10194357Y38450005D01*
X10194357Y38449994D01*
X10214890Y38202187D01*
X10214892Y38202175D01*
X10275936Y37961118D01*
X10375826Y37733393D01*
X10511833Y37525217D01*
X10669452Y37353997D01*
X10680256Y37342262D01*
X10763008Y37277852D01*
X10803821Y37221143D01*
X10807496Y37151370D01*
X10772864Y37090687D01*
X10763014Y37082151D01*
X10680256Y37017738D01*
X10663922Y36999994D01*
X10511833Y36834782D01*
X10375826Y36626606D01*
X10275936Y36398881D01*
X10214892Y36157824D01*
X10214890Y36157812D01*
X10194357Y35910005D01*
X10194357Y35909994D01*
X-49463933Y35909994D01*
X-49311833Y36075217D01*
X-49175826Y36283393D01*
X-49075936Y36511118D01*
X-49014892Y36752175D01*
X-49014890Y36752187D01*
X-48994357Y36999994D01*
X-48994357Y37000005D01*
X-49014890Y37247812D01*
X-49014892Y37247824D01*
X-49075936Y37488881D01*
X-49175826Y37716606D01*
X-49311833Y37924782D01*
X-49345284Y37961119D01*
X-49480256Y38107738D01*
X-49563008Y38172147D01*
X-49603821Y38228857D01*
X-49607496Y38298630D01*
X-49572864Y38359313D01*
X-49563014Y38367848D01*
X-49480256Y38432262D01*
X-49463922Y38450005D01*
X-49311833Y38615217D01*
X-49175826Y38823393D01*
X-49075936Y39051118D01*
X-49014892Y39292175D01*
X-49014890Y39292187D01*
X-48994357Y39539994D01*
X-48994357Y39540005D01*
X-49014890Y39787812D01*
X-49014892Y39787824D01*
X-49075936Y40028881D01*
X-49175826Y40256606D01*
X-49311833Y40464782D01*
X-49344245Y40499991D01*
X-49480256Y40647738D01*
X-49676491Y40800474D01*
X-49895190Y40918828D01*
X-50130386Y40999571D01*
X-50375665Y41040500D01*
X-50624335Y41040500D01*
X-50869614Y40999571D01*
X-51104810Y40918828D01*
X-51323509Y40800474D01*
X-51519744Y40647738D01*
X-51688164Y40464785D01*
X-51824173Y40256607D01*
X-51924063Y40028881D01*
X-51985108Y39787821D01*
X-51985108Y39787815D01*
X-51985109Y39787812D01*
X-52005643Y39540005D01*
X-52005643Y39539994D01*
X-51985109Y39292187D01*
X-51985107Y39292175D01*
X-51924063Y39051118D01*
X-51824173Y38823393D01*
X-51688166Y38615217D01*
X-51688164Y38615215D01*
X-51519744Y38432262D01*
X-51436991Y38367852D01*
X-51396179Y38311143D01*
X-51392504Y38241370D01*
X-51427136Y38180687D01*
X-51436985Y38172151D01*
X-51519744Y38107738D01*
X-51688164Y37924785D01*
X-51824173Y37716607D01*
X-51924063Y37488881D01*
X-51985108Y37247821D01*
X-51985108Y37247815D01*
X-51985109Y37247812D01*
X-52005643Y37000005D01*
X-52005643Y36999994D01*
X-59136369Y36999994D01*
X-52740914Y43699994D01*
X-29475643Y43699994D01*
X-29455109Y43452187D01*
X-29455107Y43452175D01*
X-29394063Y43211118D01*
X-29294173Y42983393D01*
X-29158166Y42775217D01*
X-29158164Y42775215D01*
X-28989744Y42592262D01*
X-28794669Y42440429D01*
X-28793506Y42439524D01*
X-28574811Y42321172D01*
X-28574802Y42321169D01*
X-28339616Y42240429D01*
X-28094335Y42199500D01*
X-27845665Y42199500D01*
X-27600383Y42240429D01*
X-27365197Y42321169D01*
X-27365188Y42321172D01*
X-27146493Y42439524D01*
X-26950257Y42592261D01*
X-26791230Y42765010D01*
X-26731342Y42801001D01*
X-26661504Y42798900D01*
X-26608770Y42765010D01*
X-26449744Y42592262D01*
X-26254669Y42440429D01*
X-26253506Y42439524D01*
X-26034811Y42321172D01*
X-26034802Y42321169D01*
X-25799616Y42240429D01*
X-25554335Y42199500D01*
X-25305665Y42199500D01*
X-25060383Y42240429D01*
X-24825197Y42321169D01*
X-24825188Y42321172D01*
X-24606493Y42439524D01*
X-24410257Y42592261D01*
X-24241833Y42775217D01*
X-24105826Y42983393D01*
X-24005936Y43211118D01*
X-23944892Y43452175D01*
X-23944890Y43452187D01*
X-23924357Y43699994D01*
X-23924357Y43700005D01*
X-23940928Y43899994D01*
X-13325643Y43899994D01*
X-13305109Y43652187D01*
X-13305107Y43652175D01*
X-13244063Y43411118D01*
X-13144173Y43183393D01*
X-13008166Y42975217D01*
X-13008164Y42975215D01*
X-12839744Y42792262D01*
X-12643509Y42639526D01*
X-12643506Y42639524D01*
X-12424811Y42521172D01*
X-12424802Y42521169D01*
X-12189616Y42440429D01*
X-11944335Y42399500D01*
X-11695665Y42399500D01*
X-11450383Y42440429D01*
X-11215197Y42521169D01*
X-11215188Y42521172D01*
X-10996493Y42639524D01*
X-10800257Y42792261D01*
X-10641230Y42965010D01*
X-10581342Y43001001D01*
X-10511504Y42998900D01*
X-10458770Y42965010D01*
X-10299744Y42792262D01*
X-10103509Y42639526D01*
X-10103506Y42639524D01*
X-9884811Y42521172D01*
X-9884802Y42521169D01*
X-9649616Y42440429D01*
X-9404335Y42399500D01*
X-9155665Y42399500D01*
X-8910383Y42440429D01*
X-8675197Y42521169D01*
X-8675188Y42521172D01*
X-8456493Y42639524D01*
X-8260257Y42792261D01*
X-8091833Y42975217D01*
X-7955826Y43183393D01*
X-7855936Y43411118D01*
X-7794892Y43652175D01*
X-7794890Y43652187D01*
X-7774357Y43899994D01*
X-7774357Y43900005D01*
X-7794890Y44147812D01*
X-7794892Y44147824D01*
X-7855936Y44388881D01*
X-7955826Y44616606D01*
X-8091833Y44824782D01*
X-8124245Y44859991D01*
X-8260256Y45007738D01*
X-8456491Y45160474D01*
X-8675190Y45278828D01*
X-8910386Y45359571D01*
X-9155665Y45400500D01*
X-9404335Y45400500D01*
X-9649614Y45359571D01*
X-9884810Y45278828D01*
X-10103509Y45160474D01*
X-10299744Y45007738D01*
X-10458771Y44834988D01*
X-10518657Y44798999D01*
X-10588495Y44801099D01*
X-10641228Y44834988D01*
X-10800256Y45007738D01*
X-10996491Y45160474D01*
X-11215190Y45278828D01*
X-11450386Y45359571D01*
X-11695665Y45400500D01*
X-11944335Y45400500D01*
X-12189614Y45359571D01*
X-12424810Y45278828D01*
X-12643509Y45160474D01*
X-12839744Y45007738D01*
X-13008164Y44824785D01*
X-13144173Y44616607D01*
X-13244063Y44388881D01*
X-13305108Y44147821D01*
X-13305108Y44147815D01*
X-13305109Y44147812D01*
X-13325643Y43900005D01*
X-13325643Y43899994D01*
X-23940928Y43899994D01*
X-23944890Y43947812D01*
X-23944892Y43947824D01*
X-24005936Y44188881D01*
X-24105826Y44416606D01*
X-24241833Y44624782D01*
X-24310639Y44699525D01*
X-24410256Y44807738D01*
X-24606491Y44960474D01*
X-24825190Y45078828D01*
X-25060386Y45159571D01*
X-25305665Y45200500D01*
X-25554335Y45200500D01*
X-25799614Y45159571D01*
X-26034810Y45078828D01*
X-26253509Y44960474D01*
X-26449744Y44807738D01*
X-26608771Y44634988D01*
X-26668657Y44598999D01*
X-26738495Y44601099D01*
X-26791228Y44634988D01*
X-26950256Y44807738D01*
X-27146491Y44960474D01*
X-27365190Y45078828D01*
X-27600386Y45159571D01*
X-27845665Y45200500D01*
X-28094335Y45200500D01*
X-28339614Y45159571D01*
X-28574810Y45078828D01*
X-28793509Y44960474D01*
X-28989744Y44807738D01*
X-29158164Y44624785D01*
X-29294173Y44416607D01*
X-29394063Y44188881D01*
X-29455108Y43947821D01*
X-29455108Y43947815D01*
X-29455109Y43947812D01*
X-29475643Y43700005D01*
X-29475643Y43699994D01*
X-52740914Y43699994D01*
X-42549348Y54376873D01*
X-22119500Y54376873D01*
X-22119499Y53023128D01*
X-22114299Y52974757D01*
X-22113091Y52963516D01*
X-22062797Y52828671D01*
X-22062793Y52828664D01*
X-21976547Y52713455D01*
X-21976544Y52713452D01*
X-21861335Y52627206D01*
X-21861328Y52627202D01*
X-21726482Y52576908D01*
X-21726483Y52576908D01*
X-21666883Y52570501D01*
X-21666881Y52570500D01*
X-21666873Y52570500D01*
X-21666864Y52570500D01*
X-20313129Y52570500D01*
X-20313123Y52570501D01*
X-20253516Y52576908D01*
X-20118671Y52627202D01*
X-20118664Y52627206D01*
X-20003455Y52713452D01*
X-20003452Y52713455D01*
X-19917206Y52828664D01*
X-19917202Y52828671D01*
X-19866908Y52963517D01*
X-19860501Y53023116D01*
X-19860500Y53023119D01*
X-19860500Y53023127D01*
X-19860500Y53699999D01*
X-19860500Y53700000D01*
X-19584339Y53700000D01*
X-19565025Y53491566D01*
X-19507740Y53290230D01*
X-19414437Y53102852D01*
X-19414432Y53102844D01*
X-19288285Y52935798D01*
X-19170771Y52828671D01*
X-19133592Y52794778D01*
X-19002251Y52713455D01*
X-18955616Y52684580D01*
X-18955615Y52684579D01*
X-18807515Y52627206D01*
X-18760427Y52608964D01*
X-18554664Y52570500D01*
X-18554662Y52570500D01*
X-18345338Y52570500D01*
X-18345336Y52570500D01*
X-18139573Y52608964D01*
X-18139570Y52608965D01*
X-17944384Y52684579D01*
X-17944383Y52684580D01*
X-17766406Y52794779D01*
X-17611714Y52935798D01*
X-17485567Y53102844D01*
X-17485562Y53102852D01*
X-17392259Y53290230D01*
X-17334974Y53491570D01*
X-17315661Y53699999D01*
X-17315661Y53700000D01*
X-17334974Y53908429D01*
X-17392259Y54109769D01*
X-17485562Y54297147D01*
X-17485567Y54297155D01*
X-17611714Y54464201D01*
X-17766406Y54605220D01*
X-17766408Y54605222D01*
X-17944382Y54715419D01*
X-17944383Y54715419D01*
X-17944384Y54715420D01*
X-17985734Y54731439D01*
X-18139573Y54791036D01*
X-18345336Y54829500D01*
X-18554664Y54829500D01*
X-18760427Y54791036D01*
X-18955618Y54715419D01*
X-19133592Y54605222D01*
X-19288287Y54464199D01*
X-19414434Y54297153D01*
X-19507740Y54109771D01*
X-19565025Y53908434D01*
X-19584339Y53700000D01*
X-19860500Y53700000D01*
X-19860500Y54376870D01*
X-19860501Y54376876D01*
X-19866908Y54436483D01*
X-19917202Y54571328D01*
X-19917206Y54571335D01*
X-20003452Y54686544D01*
X-20003455Y54686547D01*
X-20118664Y54772793D01*
X-20118671Y54772797D01*
X-20253517Y54823091D01*
X-20253516Y54823091D01*
X-20259925Y54823779D01*
X-20313127Y54829500D01*
X-21666872Y54829499D01*
X-21726483Y54823091D01*
X-21861331Y54772796D01*
X-21976546Y54686546D01*
X-22062796Y54571331D01*
X-22113091Y54436483D01*
X-22119500Y54376873D01*
X-42549348Y54376873D01*
X-41036636Y55961619D01*
X-40976108Y55996521D01*
X-40946940Y56000000D01*
X946940Y56000000D01*
X1013979Y55980315D01*
G37*
%TD.AperFunction*%
%TD*%
M02*
