%TF.GenerationSoftware,KiCad,Pcbnew,8.0.0*%
%TF.CreationDate,2024-03-21T13:03:40+02:00*%
%TF.ProjectId,SensorKiCad-RTHMAT004,53656e73-6f72-44b6-9943-61642d525448,rev?*%
%TF.SameCoordinates,Original*%
%TF.FileFunction,Copper,L1,Top*%
%TF.FilePolarity,Positive*%
%FSLAX46Y46*%
G04 Gerber Fmt 4.6, Leading zero omitted, Abs format (unit mm)*
G04 Created by KiCad (PCBNEW 8.0.0) date 2024-03-21 13:03:40*
%MOMM*%
%LPD*%
G01*
G04 APERTURE LIST*
G04 Aperture macros list*
%AMRoundRect*
0 Rectangle with rounded corners*
0 $1 Rounding radius*
0 $2 $3 $4 $5 $6 $7 $8 $9 X,Y pos of 4 corners*
0 Add a 4 corners polygon primitive as box body*
4,1,4,$2,$3,$4,$5,$6,$7,$8,$9,$2,$3,0*
0 Add four circle primitives for the rounded corners*
1,1,$1+$1,$2,$3*
1,1,$1+$1,$4,$5*
1,1,$1+$1,$6,$7*
1,1,$1+$1,$8,$9*
0 Add four rect primitives between the rounded corners*
20,1,$1+$1,$2,$3,$4,$5,0*
20,1,$1+$1,$4,$5,$6,$7,0*
20,1,$1+$1,$6,$7,$8,$9,0*
20,1,$1+$1,$8,$9,$2,$3,0*%
G04 Aperture macros list end*
%TA.AperFunction,Conductor*%
%ADD10C,0.200000*%
%TD*%
%TA.AperFunction,ComponentPad*%
%ADD11C,2.000000*%
%TD*%
%TA.AperFunction,SMDPad,CuDef*%
%ADD12RoundRect,0.250000X-0.450000X0.262500X-0.450000X-0.262500X0.450000X-0.262500X0.450000X0.262500X0*%
%TD*%
%TA.AperFunction,SMDPad,CuDef*%
%ADD13R,1.000000X1.500000*%
%TD*%
%TA.AperFunction,ComponentPad*%
%ADD14C,1.258000*%
%TD*%
%TA.AperFunction,ComponentPad*%
%ADD15R,1.258000X1.258000*%
%TD*%
%TA.AperFunction,SMDPad,CuDef*%
%ADD16C,2.500000*%
%TD*%
%TA.AperFunction,SMDPad,CuDef*%
%ADD17RoundRect,0.250000X0.262500X0.450000X-0.262500X0.450000X-0.262500X-0.450000X0.262500X-0.450000X0*%
%TD*%
%TA.AperFunction,SMDPad,CuDef*%
%ADD18RoundRect,0.250000X0.312500X0.625000X-0.312500X0.625000X-0.312500X-0.625000X0.312500X-0.625000X0*%
%TD*%
%TA.AperFunction,SMDPad,CuDef*%
%ADD19RoundRect,0.150000X0.150000X-0.587500X0.150000X0.587500X-0.150000X0.587500X-0.150000X-0.587500X0*%
%TD*%
%TA.AperFunction,SMDPad,CuDef*%
%ADD20RoundRect,0.250000X0.450000X-0.262500X0.450000X0.262500X-0.450000X0.262500X-0.450000X-0.262500X0*%
%TD*%
%TA.AperFunction,SMDPad,CuDef*%
%ADD21RoundRect,0.250000X-0.625000X0.312500X-0.625000X-0.312500X0.625000X-0.312500X0.625000X0.312500X0*%
%TD*%
%TA.AperFunction,SMDPad,CuDef*%
%ADD22R,1.500000X1.000000*%
%TD*%
%TA.AperFunction,SMDPad,CuDef*%
%ADD23RoundRect,0.250000X-0.262500X-0.450000X0.262500X-0.450000X0.262500X0.450000X-0.262500X0.450000X0*%
%TD*%
%TA.AperFunction,SMDPad,CuDef*%
%ADD24RoundRect,0.150000X0.587500X0.150000X-0.587500X0.150000X-0.587500X-0.150000X0.587500X-0.150000X0*%
%TD*%
%TA.AperFunction,SMDPad,CuDef*%
%ADD25RoundRect,0.250000X-0.312500X-0.625000X0.312500X-0.625000X0.312500X0.625000X-0.312500X0.625000X0*%
%TD*%
%TA.AperFunction,SMDPad,CuDef*%
%ADD26RoundRect,0.150000X-0.587500X-0.150000X0.587500X-0.150000X0.587500X0.150000X-0.587500X0.150000X0*%
%TD*%
%TA.AperFunction,ComponentPad*%
%ADD27R,1.700000X1.700000*%
%TD*%
%TA.AperFunction,ComponentPad*%
%ADD28O,1.700000X1.700000*%
%TD*%
G04 APERTURE END LIST*
D10*
%TO.N,/Signal Left*%
X22000000Y14000000D02*
X0Y14000000D01*
X22000000Y28000000D02*
X22000000Y14000000D01*
X-41000000Y56000000D02*
X-62000000Y34000000D01*
X-41000000Y56000000D02*
X1000000Y56000000D01*
X-40000000Y0D02*
X-40000000Y14000000D01*
X0Y0D02*
X0Y14000000D01*
X-40000000Y14000000D02*
X-62000000Y14000000D01*
X-62000000Y28000000D02*
X-62000000Y34000000D01*
X-62000000Y28000000D02*
X-62000000Y14000000D01*
X22000000Y14000000D02*
X0Y14000000D01*
X22000000Y34000000D02*
X1000000Y56000000D01*
X0Y0D02*
X-40000000Y0D01*
X22000000Y28000000D02*
X22000000Y34000000D01*
%TD*%
D11*
%TO.P,D9,A*%
%TO.N,Net-(D9-PadA)*%
X11700000Y38450000D03*
%TO.P,D9,C*%
%TO.N,Net-(Q6-C)*%
X11700000Y35910000D03*
%TD*%
%TO.P,D8,A*%
%TO.N,Net-(D8-PadA)*%
X11800000Y25970000D03*
%TO.P,D8,C*%
%TO.N,Net-(Q5-C)*%
X11800000Y23430000D03*
%TD*%
%TO.P,D7,A*%
%TO.N,Net-(D7-PadA)*%
X-11820000Y43900000D03*
%TO.P,D7,C*%
%TO.N,Net-(Q4-C)*%
X-9280000Y43900000D03*
%TD*%
%TO.P,D6,A*%
%TO.N,Net-(D6-PadA)*%
X-27970000Y43700000D03*
%TO.P,D6,C*%
%TO.N,Net-(Q3-C)*%
X-25430000Y43700000D03*
%TD*%
%TO.P,D1,A*%
%TO.N,Net-(D1-PadA)*%
X-50600000Y24710000D03*
%TO.P,D1,C*%
%TO.N,Net-(Q1-C)*%
X-50600000Y27250000D03*
%TD*%
%TO.P,D5,A*%
%TO.N,Net-(D5-PadA)*%
X-50500000Y37000000D03*
%TO.P,D5,C*%
%TO.N,Net-(Q2-C)*%
X-50500000Y39540000D03*
%TD*%
D12*
%TO.P,R33,1*%
%TO.N,/Signal Right*%
X5900000Y33312500D03*
%TO.P,R33,2*%
%TO.N,Net-(JP37-B)*%
X5900000Y31487500D03*
%TD*%
D13*
%TO.P,JP4,1,A*%
%TO.N,Net-(JP4-A)*%
X-44300000Y17000000D03*
%TO.P,JP4,2,B*%
%TO.N,/PWM Left*%
X-43000000Y17000000D03*
%TD*%
%TO.P,JP17,1,A*%
%TO.N,Net-(JP17-A)*%
X-16600000Y32800000D03*
%TO.P,JP17,2,B*%
%TO.N,/PWM Centre*%
X-17900000Y32800000D03*
%TD*%
D14*
%TO.P,D3,A*%
%TO.N,/Signal Centre*%
X-18450000Y53700000D03*
D15*
%TO.P,D3,K*%
%TO.N,/BATT*%
X-20990000Y53700000D03*
%TD*%
D16*
%TO.P,TP6,1,1*%
%TO.N,/PWM Centre*%
X-15300000Y23000000D03*
%TD*%
D12*
%TO.P,R1,1*%
%TO.N,Net-(JP3-A)*%
X-60000000Y17912500D03*
%TO.P,R1,2*%
%TO.N,Net-(D1-PadA)*%
X-60000000Y16087500D03*
%TD*%
D13*
%TO.P,JP26,1,A*%
%TO.N,Net-(JP26-A)*%
X-1450000Y35350000D03*
%TO.P,JP26,2,B*%
%TO.N,/BATT*%
X-2750000Y35350000D03*
%TD*%
D17*
%TO.P,R10,1*%
%TO.N,Net-(JP10-A)*%
X-36975000Y22500000D03*
%TO.P,R10,2*%
%TO.N,Net-(D5-PadA)*%
X-38800000Y22500000D03*
%TD*%
D18*
%TO.P,R37,1*%
%TO.N,/Signal Centre*%
X-16075000Y47500000D03*
%TO.P,R37,2*%
%TO.N,Net-(JP34-B)*%
X-19000000Y47500000D03*
%TD*%
D17*
%TO.P,R28,1*%
%TO.N,Net-(JP27-A)*%
X4312500Y41750000D03*
%TO.P,R28,2*%
%TO.N,Net-(Q6-B)*%
X2487500Y41750000D03*
%TD*%
D19*
%TO.P,Q4,1,B*%
%TO.N,Net-(Q4-B)*%
X-11450000Y37375000D03*
%TO.P,Q4,2,E*%
%TO.N,GND*%
X-9550000Y37375000D03*
%TO.P,Q4,3,C*%
%TO.N,Net-(Q4-C)*%
X-10500000Y39250000D03*
%TD*%
D13*
%TO.P,JP20,1,A*%
%TO.N,Net-(JP20-A)*%
X-1650000Y48750000D03*
%TO.P,JP20,2,B*%
%TO.N,/BATT*%
X-350000Y48750000D03*
%TD*%
%TO.P,JP12,1,A*%
%TO.N,Net-(JP12-A)*%
X-27350000Y33250000D03*
%TO.P,JP12,2,B*%
%TO.N,/PWM Centre*%
X-28650000Y33250000D03*
%TD*%
D17*
%TO.P,R20,1*%
%TO.N,Net-(JP20-A)*%
X-3337500Y46250000D03*
%TO.P,R20,2*%
%TO.N,Net-(D7-PadA)*%
X-5162500Y46250000D03*
%TD*%
D13*
%TO.P,JP11,1,A*%
%TO.N,Net-(JP11-A)*%
X-39950000Y47500000D03*
%TO.P,JP11,2,B*%
%TO.N,/BATT*%
X-41250000Y47500000D03*
%TD*%
D20*
%TO.P,R25,1*%
%TO.N,Net-(JP25-A)*%
X7143750Y19043750D03*
%TO.P,R25,2*%
%TO.N,Net-(D8-PadA)*%
X7143750Y20868750D03*
%TD*%
D21*
%TO.P,R9,1*%
%TO.N,Net-(JP8-A)*%
X-39000000Y40312500D03*
%TO.P,R9,2*%
%TO.N,Net-(Q2-B)*%
X-39000000Y37387500D03*
%TD*%
D22*
%TO.P,JP38,1,A*%
%TO.N,GND*%
X8300000Y28900000D03*
%TO.P,JP38,2,B*%
%TO.N,Net-(JP38-B)*%
X8300000Y30200000D03*
%TD*%
D23*
%TO.P,R27,1*%
%TO.N,Net-(JP29-A)*%
X-462500Y27250000D03*
%TO.P,R27,2*%
%TO.N,Net-(D9-PadA)*%
X1362500Y27250000D03*
%TD*%
D22*
%TO.P,JP21,1,A*%
%TO.N,Net-(JP21-A)*%
X18643750Y17206250D03*
%TO.P,JP21,2,B*%
%TO.N,/BATT*%
X18643750Y15906250D03*
%TD*%
%TO.P,JP25,1,A*%
%TO.N,Net-(JP25-A)*%
X9343750Y17206250D03*
%TO.P,JP25,2,B*%
%TO.N,/BATT*%
X9343750Y15906250D03*
%TD*%
D13*
%TO.P,JP23,1,A*%
%TO.N,Net-(JP23-A)*%
X-300000Y16050000D03*
%TO.P,JP23,2,B*%
%TO.N,/PWM Right*%
X-1600000Y16050000D03*
%TD*%
%TO.P,JP30,1,A*%
%TO.N,Net-(JP30-A)*%
X-1562500Y24750000D03*
%TO.P,JP30,2,B*%
%TO.N,/BATT*%
X-2862500Y24750000D03*
%TD*%
D22*
%TO.P,JP39,1,A*%
%TO.N,GND*%
X13700000Y29200000D03*
%TO.P,JP39,2,B*%
%TO.N,Net-(JP39-B)*%
X13700000Y30500000D03*
%TD*%
D13*
%TO.P,JP28,1,A*%
%TO.N,Net-(JP28-A)*%
X7000000Y44800000D03*
%TO.P,JP28,2,B*%
%TO.N,/PWM Right*%
X8300000Y44800000D03*
%TD*%
D20*
%TO.P,R21,1*%
%TO.N,Net-(JP21-A)*%
X16343750Y19043750D03*
%TO.P,R21,2*%
%TO.N,Net-(D8-PadA)*%
X16343750Y20868750D03*
%TD*%
D17*
%TO.P,R36,1*%
%TO.N,/Signal Centre*%
X-16087500Y39000000D03*
%TO.P,R36,2*%
%TO.N,Net-(JP35-B)*%
X-17912500Y39000000D03*
%TD*%
D20*
%TO.P,R22,1*%
%TO.N,Net-(JP24-A)*%
X11643750Y19043750D03*
%TO.P,R22,2*%
%TO.N,Net-(D8-PadA)*%
X11643750Y20868750D03*
%TD*%
D24*
%TO.P,Q2,1,B*%
%TO.N,Net-(Q2-B)*%
X-42712500Y38000000D03*
%TO.P,Q2,2,E*%
%TO.N,GND*%
X-42712500Y39900000D03*
%TO.P,Q2,3,C*%
%TO.N,Net-(Q2-C)*%
X-44587500Y38950000D03*
%TD*%
D13*
%TO.P,JP13,1,A*%
%TO.N,Net-(JP13-A)*%
X-27250000Y29250000D03*
%TO.P,JP13,2,B*%
%TO.N,/PWM Centre*%
X-28550000Y29250000D03*
%TD*%
%TO.P,JP19,1,A*%
%TO.N,Net-(JP19-A)*%
X-1650000Y53500000D03*
%TO.P,JP19,2,B*%
%TO.N,/BATT*%
X-350000Y53500000D03*
%TD*%
%TO.P,JP18,1,A*%
%TO.N,Net-(JP18-A)*%
X-16600000Y29550000D03*
%TO.P,JP18,2,B*%
%TO.N,/PWM Centre*%
X-17900000Y29550000D03*
%TD*%
%TO.P,JP14,1,A*%
%TO.N,Net-(JP14-A)*%
X-39950000Y43250000D03*
%TO.P,JP14,2,B*%
%TO.N,/BATT*%
X-41250000Y43250000D03*
%TD*%
D23*
%TO.P,R13,1*%
%TO.N,Net-(JP12-A)*%
X-24162500Y33250000D03*
%TO.P,R13,2*%
%TO.N,Net-(Q3-B)*%
X-22337500Y33250000D03*
%TD*%
D22*
%TO.P,JP32,1,A*%
%TO.N,GND*%
X-43500000Y29850000D03*
%TO.P,JP32,2,B*%
%TO.N,Net-(JP32-B)*%
X-43500000Y31150000D03*
%TD*%
D17*
%TO.P,R32,1*%
%TO.N,/Signal Centre*%
X-16087500Y42750000D03*
%TO.P,R32,2*%
%TO.N,Net-(JP36-B)*%
X-17912500Y42750000D03*
%TD*%
D12*
%TO.P,R38,1*%
%TO.N,/Signal Right*%
X11100000Y33312500D03*
%TO.P,R38,2*%
%TO.N,Net-(JP38-B)*%
X11100000Y31487500D03*
%TD*%
D16*
%TO.P,TP3,1,1*%
%TO.N,/Signal Right*%
X-4650000Y21750000D03*
%TD*%
D12*
%TO.P,R2,1*%
%TO.N,Net-(JP2-A)*%
X-56000000Y17912500D03*
%TO.P,R2,2*%
%TO.N,Net-(D1-PadA)*%
X-56000000Y16087500D03*
%TD*%
D18*
%TO.P,R29,1*%
%TO.N,Net-(JP28-A)*%
X4712500Y44800000D03*
%TO.P,R29,2*%
%TO.N,Net-(Q6-B)*%
X1787500Y44800000D03*
%TD*%
D21*
%TO.P,R39,1*%
%TO.N,/Signal Right*%
X16700000Y33362500D03*
%TO.P,R39,2*%
%TO.N,Net-(JP39-B)*%
X16700000Y30437500D03*
%TD*%
D22*
%TO.P,JP37,1,A*%
%TO.N,GND*%
X3500000Y28900000D03*
%TO.P,JP37,2,B*%
%TO.N,Net-(JP37-B)*%
X3500000Y30200000D03*
%TD*%
D19*
%TO.P,Q3,1,B*%
%TO.N,Net-(Q3-B)*%
X-26700000Y36900000D03*
%TO.P,Q3,2,E*%
%TO.N,GND*%
X-24800000Y36900000D03*
%TO.P,Q3,3,C*%
%TO.N,Net-(Q3-C)*%
X-25750000Y38775000D03*
%TD*%
D23*
%TO.P,R26,1*%
%TO.N,Net-(JP26-A)*%
X-462500Y32550000D03*
%TO.P,R26,2*%
%TO.N,Net-(D9-PadA)*%
X1362500Y32550000D03*
%TD*%
D25*
%TO.P,R19,1*%
%TO.N,Net-(JP18-A)*%
X-13212500Y29550000D03*
%TO.P,R19,2*%
%TO.N,Net-(Q4-B)*%
X-10287500Y29550000D03*
%TD*%
D13*
%TO.P,JP10,1,A*%
%TO.N,Net-(JP10-A)*%
X-36300000Y25000000D03*
%TO.P,JP10,2,B*%
%TO.N,/BATT*%
X-35000000Y25000000D03*
%TD*%
D17*
%TO.P,R4,1*%
%TO.N,Net-(JP4-A)*%
X-47087500Y17000000D03*
%TO.P,R4,2*%
%TO.N,Net-(Q1-B)*%
X-48912500Y17000000D03*
%TD*%
D13*
%TO.P,JP27,1,A*%
%TO.N,Net-(JP27-A)*%
X7000000Y41750000D03*
%TO.P,JP27,2,B*%
%TO.N,/PWM Right*%
X8300000Y41750000D03*
%TD*%
D22*
%TO.P,JP8,1,A*%
%TO.N,Net-(JP8-A)*%
X-36500000Y40700000D03*
%TO.P,JP8,2,B*%
%TO.N,/PWM Left*%
X-36500000Y42000000D03*
%TD*%
D24*
%TO.P,Q1,1,B*%
%TO.N,Net-(Q1-B)*%
X-44062500Y24450000D03*
%TO.P,Q1,2,E*%
%TO.N,GND*%
X-44062500Y26350000D03*
%TO.P,Q1,3,C*%
%TO.N,Net-(Q1-C)*%
X-45937500Y25400000D03*
%TD*%
D25*
%TO.P,R14,1*%
%TO.N,Net-(JP13-A)*%
X-24462500Y29500000D03*
%TO.P,R14,2*%
%TO.N,Net-(Q3-B)*%
X-21537500Y29500000D03*
%TD*%
D17*
%TO.P,R6,1*%
%TO.N,Net-(JP6-A)*%
X-36975000Y32500000D03*
%TO.P,R6,2*%
%TO.N,Net-(D5-PadA)*%
X-38800000Y32500000D03*
%TD*%
D25*
%TO.P,R24,1*%
%TO.N,Net-(JP23-A)*%
X2037500Y16050000D03*
%TO.P,R24,2*%
%TO.N,Net-(Q5-B)*%
X4962500Y16050000D03*
%TD*%
D12*
%TO.P,R8,1*%
%TO.N,Net-(JP7-A)*%
X-34000000Y38912500D03*
%TO.P,R8,2*%
%TO.N,Net-(Q2-B)*%
X-34000000Y37087500D03*
%TD*%
D23*
%TO.P,R30,1*%
%TO.N,Net-(JP30-A)*%
X-412500Y22250000D03*
%TO.P,R30,2*%
%TO.N,Net-(D9-PadA)*%
X1412500Y22250000D03*
%TD*%
%TO.P,R12,1*%
%TO.N,Net-(JP14-A)*%
X-37762500Y45500000D03*
%TO.P,R12,2*%
%TO.N,Net-(D6-PadA)*%
X-35937500Y45500000D03*
%TD*%
D14*
%TO.P,D2,A*%
%TO.N,/Signal Right*%
X19650000Y28542500D03*
D15*
%TO.P,D2,K*%
%TO.N,/BATT*%
X19650000Y31082500D03*
%TD*%
D12*
%TO.P,R31,1*%
%TO.N,/Signal Left*%
X-51000000Y33412500D03*
%TO.P,R31,2*%
%TO.N,Net-(JP33-B)*%
X-51000000Y31587500D03*
%TD*%
D16*
%TO.P,TP4,1,1*%
%TO.N,/PWM Left*%
X-32800000Y17000000D03*
%TD*%
D22*
%TO.P,JP7,1,A*%
%TO.N,Net-(JP7-A)*%
X-31500000Y40700000D03*
%TO.P,JP7,2,B*%
%TO.N,/PWM Left*%
X-31500000Y42000000D03*
%TD*%
D13*
%TO.P,JP16,1,A*%
%TO.N,Net-(JP16-A)*%
X-1650000Y43750000D03*
%TO.P,JP16,2,B*%
%TO.N,/BATT*%
X-350000Y43750000D03*
%TD*%
%TO.P,JP34,1,A*%
%TO.N,GND*%
X-22400000Y50000000D03*
%TO.P,JP34,2,B*%
%TO.N,Net-(JP34-B)*%
X-21100000Y50000000D03*
%TD*%
D22*
%TO.P,JP33,1,A*%
%TO.N,GND*%
X-48500000Y30350000D03*
%TO.P,JP33,2,B*%
%TO.N,Net-(JP33-B)*%
X-48500000Y31650000D03*
%TD*%
D23*
%TO.P,R15,1*%
%TO.N,Net-(JP15-A)*%
X-37762500Y53750000D03*
%TO.P,R15,2*%
%TO.N,Net-(D6-PadA)*%
X-35937500Y53750000D03*
%TD*%
D17*
%TO.P,R17,1*%
%TO.N,Net-(JP19-A)*%
X-3337500Y51000000D03*
%TO.P,R17,2*%
%TO.N,Net-(D7-PadA)*%
X-5162500Y51000000D03*
%TD*%
D13*
%TO.P,JP29,1,A*%
%TO.N,Net-(JP29-A)*%
X-1500000Y29950000D03*
%TO.P,JP29,2,B*%
%TO.N,/BATT*%
X-2800000Y29950000D03*
%TD*%
D26*
%TO.P,Q5,1,B*%
%TO.N,Net-(Q5-B)*%
X5862500Y25650000D03*
%TO.P,Q5,2,E*%
%TO.N,GND*%
X5862500Y23750000D03*
%TO.P,Q5,3,C*%
%TO.N,Net-(Q5-C)*%
X7737500Y24700000D03*
%TD*%
D12*
%TO.P,R3,1*%
%TO.N,Net-(JP1-A)*%
X-52000000Y17912500D03*
%TO.P,R3,2*%
%TO.N,Net-(D1-PadA)*%
X-52000000Y16087500D03*
%TD*%
D22*
%TO.P,JP1,1,A*%
%TO.N,Net-(JP1-A)*%
X-52000000Y20350000D03*
%TO.P,JP1,2,B*%
%TO.N,/BATT*%
X-52000000Y21650000D03*
%TD*%
%TO.P,JP31,1,A*%
%TO.N,GND*%
X-53500000Y30350000D03*
%TO.P,JP31,2,B*%
%TO.N,Net-(JP31-B)*%
X-53500000Y31650000D03*
%TD*%
D13*
%TO.P,JP22,1,A*%
%TO.N,Net-(JP22-A)*%
X-350000Y18950000D03*
%TO.P,JP22,2,B*%
%TO.N,/PWM Right*%
X-1650000Y18950000D03*
%TD*%
D17*
%TO.P,R7,1*%
%TO.N,Net-(JP9-A)*%
X-36975000Y27500000D03*
%TO.P,R7,2*%
%TO.N,Net-(D5-PadA)*%
X-38800000Y27500000D03*
%TD*%
D23*
%TO.P,R23,1*%
%TO.N,Net-(JP22-A)*%
X2987500Y18700000D03*
%TO.P,R23,2*%
%TO.N,Net-(Q5-B)*%
X4812500Y18700000D03*
%TD*%
D18*
%TO.P,R5,1*%
%TO.N,Net-(JP5-A)*%
X-46537500Y21000000D03*
%TO.P,R5,2*%
%TO.N,Net-(Q1-B)*%
X-49462500Y21000000D03*
%TD*%
D13*
%TO.P,JP9,1,A*%
%TO.N,Net-(JP9-A)*%
X-36300000Y30000000D03*
%TO.P,JP9,2,B*%
%TO.N,/BATT*%
X-35000000Y30000000D03*
%TD*%
D16*
%TO.P,TP2,1,1*%
%TO.N,/Signal Centre*%
X-20650000Y36300000D03*
%TD*%
D21*
%TO.P,R35,1*%
%TO.N,/Signal Left*%
X-56000000Y34462500D03*
%TO.P,R35,2*%
%TO.N,Net-(JP31-B)*%
X-56000000Y31537500D03*
%TD*%
D22*
%TO.P,JP24,1,A*%
%TO.N,Net-(JP24-A)*%
X13843750Y17156250D03*
%TO.P,JP24,2,B*%
%TO.N,/BATT*%
X13843750Y15856250D03*
%TD*%
D13*
%TO.P,JP36,1,A*%
%TO.N,GND*%
X-22400000Y44750000D03*
%TO.P,JP36,2,B*%
%TO.N,Net-(JP36-B)*%
X-21100000Y44750000D03*
%TD*%
D22*
%TO.P,JP2,1,A*%
%TO.N,Net-(JP2-A)*%
X-56000000Y20350000D03*
%TO.P,JP2,2,B*%
%TO.N,/BATT*%
X-56000000Y21650000D03*
%TD*%
D12*
%TO.P,R34,1*%
%TO.N,/Signal Left*%
X-46000000Y33325000D03*
%TO.P,R34,2*%
%TO.N,Net-(JP32-B)*%
X-46000000Y31500000D03*
%TD*%
D22*
%TO.P,JP3,1,A*%
%TO.N,Net-(JP3-A)*%
X-60000000Y20350000D03*
%TO.P,JP3,2,B*%
%TO.N,/BATT*%
X-60000000Y21650000D03*
%TD*%
D13*
%TO.P,JP6,1,A*%
%TO.N,Net-(JP6-A)*%
X-36300000Y35000000D03*
%TO.P,JP6,2,B*%
%TO.N,/BATT*%
X-35000000Y35000000D03*
%TD*%
D16*
%TO.P,TP1,1,1*%
%TO.N,/Signal Left*%
X-36550000Y19200000D03*
%TD*%
D27*
%TO.P,J1,1,Pin_1*%
%TO.N,unconnected-(J1-Pin_1-Pad1)*%
X-36400000Y4000000D03*
D28*
%TO.P,J1,2,Pin_2*%
%TO.N,/3V3*%
X-36400000Y6540000D03*
%TO.P,J1,3,Pin_3*%
%TO.N,unconnected-(J1-Pin_3-Pad3)*%
X-33860000Y4000000D03*
%TO.P,J1,4,Pin_4*%
%TO.N,/BATT*%
X-33860000Y6540000D03*
%TO.P,J1,5,Pin_5*%
%TO.N,/Signal Left*%
X-31320000Y4000000D03*
%TO.P,J1,6,Pin_6*%
%TO.N,unconnected-(J1-Pin_6-Pad6)*%
X-31320000Y6540000D03*
%TO.P,J1,7,Pin_7*%
%TO.N,unconnected-(J1-Pin_7-Pad7)*%
X-28780000Y4000000D03*
%TO.P,J1,8,Pin_8*%
%TO.N,/PWM Left*%
X-28780000Y6540000D03*
%TO.P,J1,9,Pin_9*%
%TO.N,GND*%
X-26240000Y4000000D03*
%TO.P,J1,10,Pin_10*%
%TO.N,unconnected-(J1-Pin_10-Pad10)*%
X-26240000Y6540000D03*
%TO.P,J1,11,Pin_11*%
%TO.N,unconnected-(J1-Pin_11-Pad11)*%
X-23700000Y4000000D03*
%TO.P,J1,12,Pin_12*%
%TO.N,unconnected-(J1-Pin_12-Pad12)*%
X-23700000Y6540000D03*
%TO.P,J1,13,Pin_13*%
%TO.N,/Signal Centre*%
X-21160000Y4000000D03*
%TO.P,J1,14,Pin_14*%
%TO.N,unconnected-(J1-Pin_14-Pad14)*%
X-21160000Y6540000D03*
%TO.P,J1,15,Pin_15*%
%TO.N,unconnected-(J1-Pin_15-Pad15)*%
X-18620000Y4000000D03*
%TO.P,J1,16,Pin_16*%
%TO.N,/PWM Centre*%
X-18620000Y6540000D03*
%TO.P,J1,17,Pin_17*%
%TO.N,/Signal Right*%
X-16080000Y4000000D03*
%TO.P,J1,18,Pin_18*%
%TO.N,unconnected-(J1-Pin_18-Pad18)*%
X-16080000Y6540000D03*
%TO.P,J1,19,Pin_19*%
%TO.N,unconnected-(J1-Pin_19-Pad19)*%
X-13540000Y4000000D03*
%TO.P,J1,20,Pin_20*%
%TO.N,unconnected-(J1-Pin_20-Pad20)*%
X-13540000Y6540000D03*
%TO.P,J1,21,Pin_21*%
%TO.N,unconnected-(J1-Pin_21-Pad21)*%
X-11000000Y4000000D03*
%TO.P,J1,22,Pin_22*%
%TO.N,/PWM Right*%
X-11000000Y6540000D03*
%TO.P,J1,23,Pin_23*%
%TO.N,unconnected-(J1-Pin_23-Pad23)*%
X-8460000Y4000000D03*
%TO.P,J1,24,Pin_24*%
%TO.N,unconnected-(J1-Pin_24-Pad24)*%
X-8460000Y6540000D03*
%TO.P,J1,25,Pin_25*%
%TO.N,unconnected-(J1-Pin_25-Pad25)*%
X-5920000Y4000000D03*
%TO.P,J1,26,Pin_26*%
%TO.N,/BATT*%
X-5920000Y6540000D03*
%TO.P,J1,27,Pin_27*%
%TO.N,unconnected-(J1-Pin_27-Pad27)*%
X-3380000Y4000000D03*
%TO.P,J1,28,Pin_28*%
%TO.N,unconnected-(J1-Pin_28-Pad28)*%
X-3380000Y6540000D03*
%TD*%
D13*
%TO.P,JP5,1,A*%
%TO.N,Net-(JP5-A)*%
X-44300000Y21000000D03*
%TO.P,JP5,2,B*%
%TO.N,/PWM Left*%
X-43000000Y21000000D03*
%TD*%
D14*
%TO.P,D4,A*%
%TO.N,/Signal Left*%
X-58150000Y25042500D03*
D15*
%TO.P,D4,K*%
%TO.N,/BATT*%
X-58150000Y27582500D03*
%TD*%
D17*
%TO.P,R16,1*%
%TO.N,Net-(JP16-A)*%
X-3337500Y41250000D03*
%TO.P,R16,2*%
%TO.N,Net-(D7-PadA)*%
X-5162500Y41250000D03*
%TD*%
D16*
%TO.P,TP7,1,1*%
%TO.N,/PWM Right*%
X-5500000Y14800000D03*
%TD*%
D23*
%TO.P,R18,1*%
%TO.N,Net-(JP17-A)*%
X-12912500Y32800000D03*
%TO.P,R18,2*%
%TO.N,Net-(Q4-B)*%
X-11087500Y32800000D03*
%TD*%
D13*
%TO.P,JP35,1,A*%
%TO.N,GND*%
X-22400000Y40000000D03*
%TO.P,JP35,2,B*%
%TO.N,Net-(JP35-B)*%
X-21100000Y40000000D03*
%TD*%
%TO.P,JP15,1,A*%
%TO.N,Net-(JP15-A)*%
X-39950000Y51750000D03*
%TO.P,JP15,2,B*%
%TO.N,/BATT*%
X-41250000Y51750000D03*
%TD*%
D23*
%TO.P,R11,1*%
%TO.N,Net-(JP11-A)*%
X-37762500Y49500000D03*
%TO.P,R11,2*%
%TO.N,Net-(D6-PadA)*%
X-35937500Y49500000D03*
%TD*%
D26*
%TO.P,Q6,1,B*%
%TO.N,Net-(Q6-B)*%
X4562500Y38650000D03*
%TO.P,Q6,2,E*%
%TO.N,GND*%
X4562500Y36750000D03*
%TO.P,Q6,3,C*%
%TO.N,Net-(Q6-C)*%
X6437500Y37700000D03*
%TD*%
D10*
%TO.N,Net-(Q5-C)*%
X9007500Y23430000D02*
X7737500Y24700000D01*
X11800000Y23430000D02*
X9007500Y23430000D01*
%TO.N,Net-(D8-PadA)*%
X13100000Y22325000D02*
X11643750Y20868750D01*
X13100000Y24670000D02*
X13100000Y22325000D01*
X11800000Y25970000D02*
X13100000Y24670000D01*
%TO.N,/BATT*%
X8575000Y46375000D02*
X1074570Y46375000D01*
X10250000Y44700000D02*
X8575000Y46375000D01*
X10250000Y41250000D02*
X10250000Y44700000D01*
X-350000Y44950429D02*
X-350000Y43750000D01*
X13900000Y41250000D02*
X10250000Y41250000D01*
X1074570Y46375000D02*
X-350000Y44950429D01*
%TO.N,Net-(Q6-C)*%
X8227500Y35910000D02*
X6437500Y37700000D01*
X11700000Y35910000D02*
X8227500Y35910000D01*
%TO.N,Net-(D9-PadA)*%
X2937500Y34125000D02*
X1362500Y32550000D01*
X12512500Y34125000D02*
X2937500Y34125000D01*
X13000000Y37150000D02*
X13000000Y34612500D01*
X11700000Y38450000D02*
X13000000Y37150000D01*
X13000000Y34612500D02*
X12512500Y34125000D01*
%TO.N,GND*%
X3250000Y36750000D02*
X2550000Y37450000D01*
%TO.N,Net-(Q6-B)*%
X4562500Y39675000D02*
X2487500Y41750000D01*
X4562500Y38650000D02*
X4562500Y39675000D01*
%TO.N,GND*%
X4562500Y36750000D02*
X3250000Y36750000D01*
%TO.N,/BATT*%
X19650000Y31082500D02*
X20867500Y31082500D01*
X20900000Y17212500D02*
X20900000Y31050000D01*
X19593750Y15906250D02*
X20900000Y17212500D01*
X20867500Y31082500D02*
X20900000Y31050000D01*
X18643750Y15906250D02*
X19593750Y15906250D01*
X20900000Y31050000D02*
X20900000Y34250000D01*
X20900000Y34250000D02*
X13900000Y41250000D01*
X-650000Y36400000D02*
X-2650000Y36400000D01*
X-200000Y35950000D02*
X-650000Y36400000D01*
X-2650000Y36400000D02*
X-2750000Y36300000D01*
X-2750000Y36300000D02*
X-2750000Y35350000D01*
%TO.N,Net-(Q4-C)*%
X-9250000Y40500000D02*
X-10500000Y39250000D01*
X-9250000Y43870000D02*
X-9250000Y40500000D01*
%TO.N,Net-(D7-PadA)*%
X-11820000Y44020000D02*
X-9590000Y46250000D01*
X-9590000Y46250000D02*
X-5162500Y46250000D01*
%TO.N,Net-(Q4-C)*%
X-9280000Y43900000D02*
X-9250000Y43870000D01*
%TO.N,Net-(D7-PadA)*%
X-11820000Y43900000D02*
X-11820000Y44020000D01*
%TO.N,Net-(Q3-C)*%
X-25430000Y43700000D02*
X-25430000Y39095000D01*
X-25430000Y39095000D02*
X-25750000Y38775000D01*
%TO.N,Net-(D6-PadA)*%
X-34137500Y43700000D02*
X-35937500Y45500000D01*
X-27970000Y43700000D02*
X-34137500Y43700000D01*
%TO.N,Net-(D5-PadA)*%
X-43300000Y37000000D02*
X-38800000Y32500000D01*
X-50500000Y37000000D02*
X-43300000Y37000000D01*
%TO.N,Net-(Q2-C)*%
X-45177500Y39540000D02*
X-44587500Y38950000D01*
X-50500000Y39540000D02*
X-45177500Y39540000D01*
%TO.N,GND*%
X-42712500Y39900000D02*
X-42712500Y40562500D01*
%TO.N,Net-(Q2-B)*%
X-42712500Y38000000D02*
X-42662500Y38050000D01*
X-42662500Y38050000D02*
X-39662500Y38050000D01*
X-39662500Y38050000D02*
X-39000000Y37387500D01*
%TO.N,GND*%
X-42712500Y40562500D02*
X-43300000Y41150000D01*
%TO.N,/BATT*%
X-61000000Y33900000D02*
X-51650000Y43250000D01*
X-61000000Y31000000D02*
X-61000000Y33900000D01*
X-51650000Y43250000D02*
X-41250000Y43250000D01*
%TO.N,Net-(D1-PadA)*%
X-50600000Y17487500D02*
X-52000000Y16087500D01*
X-50600000Y24710000D02*
X-50600000Y17487500D01*
%TO.N,Net-(Q1-C)*%
X-47787500Y27250000D02*
X-45937500Y25400000D01*
X-50600000Y27250000D02*
X-47787500Y27250000D01*
%TO.N,GND*%
X-9550000Y37375000D02*
X-8875000Y38050000D01*
X-23200000Y37700000D02*
X-23200000Y37750000D01*
X-24000000Y37700000D02*
X-23200000Y37700000D01*
X-53500000Y30350000D02*
X-54900000Y30350000D01*
X13700000Y29200000D02*
X8600000Y29200000D01*
X-43500000Y26912500D02*
X-43500000Y29850000D01*
X-22400000Y44750000D02*
X-22400000Y50000000D01*
X-24800000Y36900000D02*
X-24000000Y37700000D01*
X-22400000Y50000000D02*
X-22400000Y51600000D01*
X3500000Y28900000D02*
X8300000Y28900000D01*
X-48000000Y29850000D02*
X-48500000Y30350000D01*
X-23200000Y37750000D02*
X-22400000Y38550000D01*
X-44062500Y26350000D02*
X-43500000Y26912500D01*
X-22400000Y51600000D02*
X-22250000Y51750000D01*
X-54900000Y30350000D02*
X-55750000Y29500000D01*
X4850000Y22737500D02*
X4850000Y21950000D01*
X-22400000Y40000000D02*
X-22400000Y44750000D01*
X5862500Y23750000D02*
X4850000Y22737500D01*
X-53500000Y30350000D02*
X-48500000Y30350000D01*
X-8875000Y38050000D02*
X-7850000Y38050000D01*
X-43500000Y29850000D02*
X-48000000Y29850000D01*
X8600000Y29200000D02*
X8300000Y28900000D01*
X-22400000Y38550000D02*
X-22400000Y40000000D01*
%TO.N,Net-(Q1-B)*%
X-44062500Y24450000D02*
X-46012500Y24450000D01*
X-48912500Y20450000D02*
X-49462500Y21000000D01*
X-48912500Y17000000D02*
X-48912500Y20450000D01*
X-46012500Y24450000D02*
X-49462500Y21000000D01*
%TO.N,Net-(Q2-B)*%
X-39000000Y37387500D02*
X-34300000Y37387500D01*
X-34300000Y37387500D02*
X-34000000Y37087500D01*
%TO.N,Net-(D1-PadA)*%
X-52000000Y16087500D02*
X-56000000Y16087500D01*
X-56000000Y16087500D02*
X-60000000Y16087500D01*
%TO.N,/BATT*%
X-35000000Y25000000D02*
X-35000000Y30000000D01*
X-56350000Y21300000D02*
X-59650000Y21300000D01*
X-350000Y53500000D02*
X-350000Y54050000D01*
X-60750000Y21650000D02*
X-60000000Y21650000D01*
X-37050000Y39450000D02*
X-39859744Y39450000D01*
X-33860000Y8425685D02*
X-40709315Y15275000D01*
X-41250000Y51750000D02*
X-41250000Y47500000D01*
X-38750000Y55200000D02*
X-41250000Y52700000D01*
X-35700000Y38100000D02*
X-37050000Y39450000D01*
X-2862500Y24750000D02*
X-2862500Y29887500D01*
X-39859744Y39450000D02*
X-41250000Y40840256D01*
X-41250000Y47500000D02*
X-41250000Y43250000D01*
X-33000000Y37784744D02*
X-33315256Y38100000D01*
X-41250000Y52700000D02*
X-41250000Y51750000D01*
X-61050000Y15640256D02*
X-61050000Y21350000D01*
X-350000Y43750000D02*
X-350000Y48750000D01*
X-52350000Y21300000D02*
X-55650000Y21300000D01*
X-20950000Y55200000D02*
X-20990000Y55160000D01*
X-2800000Y35300000D02*
X-2750000Y35350000D01*
X-41250000Y40840256D02*
X-41250000Y43250000D01*
X-61050000Y21350000D02*
X-60750000Y21650000D01*
X-1500000Y55200000D02*
X-20950000Y55200000D01*
X18593750Y15856250D02*
X18643750Y15906250D01*
X-20950000Y55200000D02*
X-38750000Y55200000D01*
X-20990000Y55160000D02*
X-20990000Y53700000D01*
X-34300000Y35000000D02*
X-33000000Y36300000D01*
X-55650000Y21300000D02*
X-56000000Y21650000D01*
X13793750Y15906250D02*
X13843750Y15856250D01*
X-59650000Y21300000D02*
X-60000000Y21650000D01*
X9343750Y15906250D02*
X13793750Y15906250D01*
X-35000000Y35000000D02*
X-34300000Y35000000D01*
X-52000000Y21650000D02*
X-52350000Y21300000D01*
X-33860000Y6540000D02*
X-33860000Y8425685D01*
X-33315256Y38100000D02*
X-35700000Y38100000D01*
X-35000000Y30000000D02*
X-35000000Y35000000D01*
X-59700000Y30930000D02*
X-60930000Y30930000D01*
X-350000Y54050000D02*
X-1500000Y55200000D01*
X-7050000Y21542032D02*
X-3842032Y24750000D01*
X-40709315Y15275000D02*
X-60684744Y15275000D01*
X-7050000Y7670000D02*
X-7050000Y21542032D01*
X-2800000Y29950000D02*
X-2800000Y35300000D01*
X-5920000Y6540000D02*
X-7050000Y7670000D01*
X-2862500Y29887500D02*
X-2800000Y29950000D01*
X-33000000Y36300000D02*
X-33000000Y37784744D01*
X-20990000Y54000000D02*
X-20900000Y54090000D01*
X-60000000Y21650000D02*
X-61000000Y22650000D01*
X-60684744Y15275000D02*
X-61050000Y15640256D01*
X-60930000Y30930000D02*
X-61000000Y31000000D01*
X-56000000Y21650000D02*
X-56350000Y21300000D01*
X-61000000Y22650000D02*
X-61000000Y31000000D01*
X-3842032Y24750000D02*
X-2862500Y24750000D01*
X13843750Y15856250D02*
X18593750Y15856250D01*
X-350000Y53500000D02*
X-350000Y48750000D01*
%TO.N,Net-(JP2-A)*%
X-56000000Y20350000D02*
X-56000000Y17912500D01*
%TO.N,/PWM Left*%
X-32700000Y3753654D02*
X-31796346Y2850000D01*
X-30050000Y17000000D02*
X-30000000Y16950000D01*
X-43000000Y17000000D02*
X-43000000Y21000000D01*
X-43000000Y17000000D02*
X-39500000Y17000000D01*
X-32700000Y10200000D02*
X-32700000Y3753654D01*
X-28780000Y5820000D02*
X-28780000Y6540000D01*
X-29930000Y4670000D02*
X-28780000Y5820000D01*
X-31796346Y2850000D02*
X-30250000Y2850000D01*
X-30950000Y42000000D02*
X-30000000Y41050000D01*
X-36500000Y42000000D02*
X-31500000Y42000000D01*
X-28780000Y10706346D02*
X-28780000Y6540000D01*
X-32800000Y17000000D02*
X-30050000Y17000000D01*
X-31500000Y42000000D02*
X-30950000Y42000000D01*
X-30000000Y41050000D02*
X-30000000Y16950000D01*
X-39500000Y17000000D02*
X-32700000Y10200000D01*
X-30000000Y11926346D02*
X-28780000Y10706346D01*
X-29930000Y3170000D02*
X-29930000Y4670000D01*
X-30250000Y2850000D02*
X-29930000Y3170000D01*
X-30000000Y16950000D02*
X-30000000Y11926346D01*
%TO.N,Net-(JP3-A)*%
X-60000000Y20350000D02*
X-60000000Y17912500D01*
%TO.N,Net-(D5-PadA)*%
X-38800000Y32500000D02*
X-38800000Y27500000D01*
X-38800000Y22500000D02*
X-38800000Y27500000D01*
%TO.N,Net-(JP4-A)*%
X-44300000Y17000000D02*
X-47087500Y17000000D01*
%TO.N,Net-(JP5-A)*%
X-44300000Y21000000D02*
X-46537500Y21000000D01*
%TO.N,Net-(JP8-A)*%
X-38612500Y40700000D02*
X-39000000Y40312500D01*
X-36500000Y40700000D02*
X-38612500Y40700000D01*
%TO.N,Net-(D6-PadA)*%
X-35937500Y49500000D02*
X-35937500Y53750000D01*
X-35937500Y45500000D02*
X-35937500Y49500000D01*
%TO.N,Net-(JP7-A)*%
X-34000000Y38912500D02*
X-33287500Y38912500D01*
X-33287500Y38912500D02*
X-31500000Y40700000D01*
%TO.N,Net-(JP11-A)*%
X-37762500Y49500000D02*
X-37950000Y49500000D01*
X-37950000Y49500000D02*
X-39950000Y47500000D01*
%TO.N,Net-(JP10-A)*%
X-36300000Y23175000D02*
X-36975000Y22500000D01*
X-36300000Y25000000D02*
X-36300000Y23175000D01*
%TO.N,Net-(D7-PadA)*%
X-5162500Y41250000D02*
X-5162500Y46250000D01*
X-5162500Y51000000D02*
X-5162500Y46250000D01*
%TO.N,Net-(JP13-A)*%
X-27000000Y29500000D02*
X-27250000Y29250000D01*
X-24462500Y29500000D02*
X-27000000Y29500000D01*
%TO.N,Net-(D8-PadA)*%
X16343750Y20868750D02*
X11643750Y20868750D01*
X7143750Y20868750D02*
X10568750Y20868750D01*
X7143750Y20868750D02*
X11643750Y20868750D01*
%TO.N,Net-(JP14-A)*%
X-37762500Y45500000D02*
X-37762500Y45437500D01*
X-39837500Y43500000D02*
X-39650000Y43500000D01*
X-37762500Y45437500D02*
X-39950000Y43250000D01*
%TO.N,Net-(JP16-A)*%
X-3337500Y42062500D02*
X-3337500Y41250000D01*
X-1650000Y43750000D02*
X-3337500Y42062500D01*
%TO.N,Net-(D9-PadA)*%
X1372500Y22290000D02*
X1372500Y27240000D01*
X1372500Y27240000D02*
X1362500Y27250000D01*
X1362500Y27250000D02*
X1362500Y32550000D01*
X1412500Y22250000D02*
X1372500Y22290000D01*
%TO.N,Net-(JP17-A)*%
X-12912500Y32800000D02*
X-16600000Y32800000D01*
%TO.N,/Signal Centre*%
X-16182234Y39000000D02*
X-16087500Y39000000D01*
X-16075000Y49290000D02*
X-18450000Y51665000D01*
X-16087500Y42750000D02*
X-16087500Y39000000D01*
X-16075000Y47500000D02*
X-16075000Y42762500D01*
X-25050000Y24265256D02*
X-20650000Y28665256D01*
X-20650000Y28665256D02*
X-20650000Y36300000D01*
X-16075000Y47500000D02*
X-16075000Y49290000D01*
X-16075000Y42762500D02*
X-16087500Y42750000D01*
X-20650000Y36300000D02*
X-18882234Y36300000D01*
X-25050000Y1700000D02*
X-25050000Y24265256D01*
X-21220000Y1700000D02*
X-25050000Y1700000D01*
X-18882234Y36300000D02*
X-16182234Y39000000D01*
X-21160000Y1760000D02*
X-21220000Y1700000D01*
X-18450000Y51665000D02*
X-18450000Y53700000D01*
X-21160000Y4000000D02*
X-21160000Y1760000D01*
%TO.N,/Signal Right*%
X4400000Y25900000D02*
X4400000Y24250000D01*
X3650000Y14500000D02*
X3800000Y14650000D01*
X3800000Y14650000D02*
X3800000Y21200000D01*
X17875000Y30984744D02*
X17875000Y30000000D01*
X-3400001Y20500001D02*
X1234449Y20500001D01*
X-850000Y14450000D02*
X-900000Y14500000D01*
X19650000Y28542500D02*
X18192500Y30000000D01*
X-900000Y14500000D02*
X3650000Y14500000D01*
X16700000Y33362500D02*
X16700000Y33100000D01*
X1234449Y20500001D02*
X2867224Y22132776D01*
X17875000Y30000000D02*
X17875000Y29890256D01*
X2867224Y22132776D02*
X4400000Y23665552D01*
X17875000Y29890256D02*
X16084744Y28100000D01*
X-16080000Y4000000D02*
X-13880000Y1800000D01*
X6600000Y28100000D02*
X4400000Y25900000D01*
X5900000Y33312500D02*
X15547244Y33312500D01*
X3800000Y21200000D02*
X2867224Y22132776D01*
X-850000Y2400000D02*
X-850000Y14450000D01*
X16084744Y28100000D02*
X6600000Y28100000D01*
X-4650000Y21750000D02*
X-3400001Y20500001D01*
X16700000Y33362500D02*
X16462500Y33362500D01*
X16462500Y33362500D02*
X16412500Y33312500D01*
X18192500Y30000000D02*
X17875000Y30000000D01*
X4400000Y23665552D02*
X4400000Y24200000D01*
X16412500Y33312500D02*
X11100000Y33312500D01*
X11100000Y33312500D02*
X5900000Y33312500D01*
X15547244Y33312500D02*
X17875000Y30984744D01*
X-13880000Y1800000D02*
X-1450000Y1800000D01*
X-1450000Y1800000D02*
X-850000Y2400000D01*
%TO.N,/PWM Centre*%
X-18620000Y6540000D02*
X-20010000Y5150000D01*
X-25215685Y1300000D02*
X-27500000Y3584315D01*
X-27500000Y3584315D02*
X-27500000Y27000000D01*
X-28550000Y28050000D02*
X-28550000Y29250000D01*
X-17900000Y32800000D02*
X-17900000Y29550000D01*
X-20300000Y20600000D02*
X-20300000Y17384314D01*
X-20300000Y17384314D02*
X-18620000Y15704314D01*
X-15300000Y23000000D02*
X-17700000Y23000000D01*
X-27500000Y27000000D02*
X-28550000Y28050000D01*
X-20010000Y5150000D02*
X-20010000Y2344315D01*
X-28650000Y33250000D02*
X-28650000Y29350000D01*
X-20010000Y2344315D02*
X-21054315Y1300000D01*
X-28650000Y29350000D02*
X-28550000Y29250000D01*
X-17700000Y23000000D02*
X-17900000Y23200000D01*
X-17900000Y23000000D02*
X-20300000Y20600000D01*
X-17900000Y23200000D02*
X-17900000Y23000000D01*
X-18620000Y15704314D02*
X-18620000Y6540000D01*
X-21054315Y1300000D02*
X-25215685Y1300000D01*
X-17900000Y29550000D02*
X-17900000Y23200000D01*
%TO.N,/PWM Right*%
X-1650000Y18950000D02*
X-1550000Y18850000D01*
X8300000Y44800000D02*
X8300000Y41750000D01*
X2334744Y45975000D02*
X2100000Y45975000D01*
X-8250000Y34300000D02*
X-8250000Y9290000D01*
X1240256Y45975000D02*
X800000Y45534744D01*
X8300000Y44800000D02*
X8300000Y45350000D01*
X450000Y41400000D02*
X-1150000Y41400000D01*
X7675000Y45975000D02*
X2100000Y45975000D01*
X-1600000Y5600000D02*
X-1600000Y16050000D01*
X-1550000Y18850000D02*
X-1550000Y16100000D01*
X-5500000Y14800000D02*
X-5250000Y15050000D01*
X2100000Y45975000D02*
X1240256Y45975000D01*
X-9850000Y5390000D02*
X-1810000Y5390000D01*
X800000Y41750000D02*
X450000Y41400000D01*
X-1810000Y5390000D02*
X-1600000Y5600000D01*
X-8250000Y9290000D02*
X-11000000Y6540000D01*
X-5250000Y15200000D02*
X-4550000Y15900000D01*
X8300000Y45350000D02*
X7675000Y45975000D01*
X800000Y45534744D02*
X800000Y41750000D01*
X-11000000Y6540000D02*
X-9850000Y5390000D01*
X-1150000Y41400000D02*
X-8250000Y34300000D01*
X-4550000Y15900000D02*
X-1750000Y15900000D01*
X-1550000Y16100000D02*
X-1600000Y16050000D01*
X-1750000Y15900000D02*
X-1600000Y16050000D01*
X-5250000Y15050000D02*
X-5250000Y15200000D01*
%TO.N,Net-(Q3-B)*%
X-22665256Y33250000D02*
X-22337500Y33250000D01*
X-26700000Y36900000D02*
X-26315256Y36900000D01*
X-26315256Y36900000D02*
X-22665256Y33250000D01*
X-22337500Y33250000D02*
X-22337500Y30300000D01*
X-22337500Y30300000D02*
X-21537500Y29500000D01*
%TO.N,Net-(Q4-B)*%
X-10287500Y29550000D02*
X-10287500Y32000000D01*
X-11450000Y37375000D02*
X-11450000Y37350000D01*
X-11450000Y37350000D02*
X-11087500Y36987500D01*
X-11087500Y32800000D02*
X-11175000Y32800000D01*
X-11087500Y36987500D02*
X-11087500Y32800000D01*
X-10287500Y32000000D02*
X-11087500Y32800000D01*
%TO.N,Net-(Q5-B)*%
X4812500Y20034744D02*
X4812500Y18700000D01*
X6900000Y24090552D02*
X6900000Y22122244D01*
X4812500Y18700000D02*
X4812500Y16200000D01*
X4812500Y16200000D02*
X4962500Y16050000D01*
X6900000Y22122244D02*
X4812500Y20034744D01*
X5862500Y25128052D02*
X6900000Y24090552D01*
X5862500Y25650000D02*
X5862500Y25128052D01*
%TO.N,Net-(Q6-B)*%
X2487500Y44100000D02*
X1787500Y44800000D01*
X2487500Y41750000D02*
X2487500Y44100000D01*
%TO.N,Net-(JP1-A)*%
X-52000000Y20350000D02*
X-52000000Y17912500D01*
%TO.N,Net-(JP6-A)*%
X-36300000Y35000000D02*
X-36300000Y33175000D01*
X-36300000Y33175000D02*
X-36975000Y32500000D01*
%TO.N,Net-(JP9-A)*%
X-36300000Y28175000D02*
X-36975000Y27500000D01*
X-36300000Y30000000D02*
X-36300000Y28175000D01*
%TO.N,Net-(JP12-A)*%
X-24162500Y33250000D02*
X-27350000Y33250000D01*
%TO.N,Net-(JP15-A)*%
X-37950000Y53750000D02*
X-39950000Y51750000D01*
%TO.N,Net-(JP18-A)*%
X-13212500Y29550000D02*
X-16600000Y29550000D01*
%TO.N,Net-(JP19-A)*%
X-1650000Y52687500D02*
X-3337500Y51000000D01*
X-1650000Y53500000D02*
X-1650000Y52687500D01*
%TO.N,Net-(JP20-A)*%
X-3337500Y47062500D02*
X-3337500Y46250000D01*
X-1650000Y48750000D02*
X-3337500Y47062500D01*
%TO.N,Net-(JP21-A)*%
X16343750Y19043750D02*
X16806250Y19043750D01*
X16806250Y19043750D02*
X18643750Y17206250D01*
%TO.N,Net-(JP22-A)*%
X-100000Y18700000D02*
X-350000Y18950000D01*
X2987500Y18700000D02*
X-100000Y18700000D01*
%TO.N,Net-(JP23-A)*%
X2037500Y16050000D02*
X-300000Y16050000D01*
%TO.N,Net-(JP24-A)*%
X11956250Y19043750D02*
X13843750Y17156250D01*
X11643750Y19043750D02*
X11956250Y19043750D01*
%TO.N,Net-(JP25-A)*%
X7506250Y19043750D02*
X9343750Y17206250D01*
X7143750Y19043750D02*
X7506250Y19043750D01*
%TO.N,Net-(JP26-A)*%
X-1450000Y35350000D02*
X-1450000Y33537500D01*
X-1450000Y33537500D02*
X-462500Y32550000D01*
%TO.N,Net-(JP27-A)*%
X7000000Y41750000D02*
X4312500Y41750000D01*
%TO.N,Net-(JP28-A)*%
X4712500Y44800000D02*
X7000000Y44800000D01*
%TO.N,Net-(JP29-A)*%
X-1500000Y29950000D02*
X-1500000Y28287500D01*
X-1500000Y28287500D02*
X-462500Y27250000D01*
%TO.N,Net-(JP30-A)*%
X-1562500Y23400000D02*
X-412500Y22250000D01*
X-1562500Y24750000D02*
X-1562500Y23400000D01*
%TO.N,Net-(JP31-B)*%
X-53500000Y31650000D02*
X-55887500Y31650000D01*
X-55887500Y31650000D02*
X-56000000Y31537500D01*
%TO.N,Net-(JP32-B)*%
X-43500000Y31150000D02*
X-43850000Y31500000D01*
X-43850000Y31500000D02*
X-46000000Y31500000D01*
%TO.N,Net-(JP33-B)*%
X-50937500Y31650000D02*
X-51000000Y31587500D01*
X-48500000Y31650000D02*
X-50937500Y31650000D01*
%TO.N,Net-(JP34-B)*%
X-21100000Y49600000D02*
X-21100000Y50000000D01*
X-19000000Y47500000D02*
X-21100000Y49600000D01*
%TO.N,Net-(JP35-B)*%
X-18912500Y40000000D02*
X-17912500Y39000000D01*
X-21100000Y40000000D02*
X-18912500Y40000000D01*
%TO.N,Net-(JP36-B)*%
X-17912500Y42750000D02*
X-19100000Y42750000D01*
X-19100000Y42750000D02*
X-21100000Y44750000D01*
%TO.N,Net-(JP37-B)*%
X4787500Y31487500D02*
X3500000Y30200000D01*
X5900000Y31487500D02*
X4787500Y31487500D01*
%TO.N,Net-(JP38-B)*%
X8300000Y30200000D02*
X8400000Y30200000D01*
X9687500Y31487500D02*
X11100000Y31487500D01*
X8400000Y30200000D02*
X9687500Y31487500D01*
%TO.N,Net-(JP39-B)*%
X13700000Y30500000D02*
X16637500Y30500000D01*
X16637500Y30500000D02*
X16700000Y30437500D01*
%TO.N,/Signal Left*%
X-52462500Y34462500D02*
X-56000000Y34462500D01*
X-40000000Y18500000D02*
X-41500000Y18500000D01*
X-51412500Y33412500D02*
X-52462500Y34462500D01*
X-46087500Y33412500D02*
X-46000000Y33325000D01*
X-46000000Y33325000D02*
X-43825000Y33325000D01*
X-51000000Y33412500D02*
X-51412500Y33412500D01*
X-43825000Y33325000D02*
X-42000000Y31500000D01*
X-56000000Y34235000D02*
X-56000000Y34462500D01*
X-36550000Y19200000D02*
X-39300000Y19200000D01*
X-59700000Y33470000D02*
X-56992500Y33470000D01*
X-41500000Y18500000D02*
X-41500000Y31000000D01*
X-41500000Y31000000D02*
X-42000000Y31500000D01*
X-56992500Y33470000D02*
X-56000000Y34462500D01*
X-30000000Y8500000D02*
X-30000000Y5320000D01*
X-51000000Y33412500D02*
X-46087500Y33412500D01*
X-40000000Y18500000D02*
X-30000000Y8500000D01*
X-30000000Y5320000D02*
X-31320000Y4000000D01*
X-39300000Y19200000D02*
X-40000000Y18500000D01*
%TD*%
%TA.AperFunction,Conductor*%
%TO.N,GND*%
G36*
X-2665379Y54579815D02*
G01*
X-2619624Y54527011D01*
X-2609680Y54457853D01*
X-2616236Y54432167D01*
X-2644091Y54357483D01*
X-2650500Y54297873D01*
X-2650499Y52702128D01*
X-2644091Y52642517D01*
X-2644090Y52642515D01*
X-2642308Y52634971D01*
X-2644102Y52634546D01*
X-2639820Y52574761D01*
X-2673295Y52513438D01*
X-2949917Y52236816D01*
X-3011238Y52203333D01*
X-3037586Y52200499D01*
X-3650008Y52200499D01*
X-3650016Y52200498D01*
X-3650019Y52200498D01*
X-3685172Y52196907D01*
X-3752797Y52189999D01*
X-3919334Y52134814D01*
X-4068656Y52042712D01*
X-4146271Y51965097D01*
X-4162319Y51949049D01*
X-4223642Y51915564D01*
X-4293334Y51920548D01*
X-4337681Y51949049D01*
X-4431342Y52042710D01*
X-4431344Y52042712D01*
X-4580666Y52134814D01*
X-4747203Y52189999D01*
X-4849991Y52200500D01*
X-5475008Y52200499D01*
X-5475016Y52200498D01*
X-5475019Y52200498D01*
X-5510172Y52196907D01*
X-5577797Y52189999D01*
X-5744334Y52134814D01*
X-5893656Y52042712D01*
X-6017712Y51918656D01*
X-6109814Y51769334D01*
X-6164999Y51602797D01*
X-6175500Y51500009D01*
X-6175499Y50992335D01*
X-6175499Y50499998D01*
X-6175498Y50499980D01*
X-6170295Y50449049D01*
X-6164999Y50397203D01*
X-6109814Y50230666D01*
X-6017712Y50081344D01*
X-6017710Y50081342D01*
X-5893655Y49957287D01*
X-5821902Y49913029D01*
X-5775178Y49861081D01*
X-5763000Y49807491D01*
X-5763000Y47442507D01*
X-5782685Y47375468D01*
X-5821903Y47336968D01*
X-5893656Y47292712D01*
X-6017712Y47168656D01*
X-6109814Y47019334D01*
X-6124339Y46975500D01*
X-6137595Y46935496D01*
X-6177368Y46878051D01*
X-6241884Y46851228D01*
X-6255301Y46850500D01*
X-9510943Y46850500D01*
X-9669058Y46850500D01*
X-9821785Y46809577D01*
X-9871904Y46780639D01*
X-9958716Y46730520D01*
X-10070520Y46618716D01*
X-10070520Y46618714D01*
X-10080728Y46608507D01*
X-10080730Y46608504D01*
X-11305784Y45383449D01*
X-11367105Y45349966D01*
X-11433730Y45353852D01*
X-11444092Y45357410D01*
X-11450385Y45359571D01*
X-11695665Y45400500D01*
X-11944335Y45400500D01*
X-12189614Y45359571D01*
X-12424810Y45278828D01*
X-12643509Y45160474D01*
X-12839744Y45007738D01*
X-13008164Y44824785D01*
X-13144173Y44616607D01*
X-13244063Y44388881D01*
X-13305108Y44147821D01*
X-13305108Y44147815D01*
X-13305109Y44147812D01*
X-13325643Y43900005D01*
X-13325643Y43899994D01*
X-13305109Y43652187D01*
X-13305107Y43652175D01*
X-13244063Y43411118D01*
X-13144173Y43183393D01*
X-13008166Y42975217D01*
X-13008164Y42975215D01*
X-12839744Y42792262D01*
X-12652682Y42646666D01*
X-12643506Y42639524D01*
X-12424811Y42521172D01*
X-12424802Y42521169D01*
X-12189616Y42440429D01*
X-11944335Y42399500D01*
X-11695665Y42399500D01*
X-11450383Y42440429D01*
X-11215197Y42521169D01*
X-11215188Y42521172D01*
X-10996493Y42639524D01*
X-10800257Y42792261D01*
X-10641230Y42965010D01*
X-10581342Y43001001D01*
X-10511504Y42998900D01*
X-10458770Y42965010D01*
X-10419108Y42921926D01*
X-10299744Y42792262D01*
X-10112682Y42646666D01*
X-10103506Y42639524D01*
X-9985709Y42575776D01*
X-9925182Y42543020D01*
X-9915482Y42537771D01*
X-9865892Y42488551D01*
X-9850500Y42428716D01*
X-9850500Y40800096D01*
X-9870185Y40733057D01*
X-9886815Y40712419D01*
X-10092291Y40506942D01*
X-10153612Y40473459D01*
X-10214562Y40475548D01*
X-10247431Y40485098D01*
X-10284306Y40488000D01*
X-10715694Y40488000D01*
X-10752569Y40485098D01*
X-10752571Y40485097D01*
X-10752573Y40485097D01*
X-10785437Y40475549D01*
X-10910398Y40439244D01*
X-11051865Y40355581D01*
X-11168081Y40239365D01*
X-11251744Y40097898D01*
X-11274527Y40019480D01*
X-11294567Y39950500D01*
X-11297598Y39940069D01*
X-11300500Y39903194D01*
X-11300500Y39903186D01*
X-11300500Y38737000D01*
X-11320185Y38669961D01*
X-11372989Y38624206D01*
X-11424500Y38613000D01*
X-11665694Y38613000D01*
X-11702569Y38610098D01*
X-11702571Y38610097D01*
X-11702573Y38610097D01*
X-11744191Y38598005D01*
X-11860398Y38564244D01*
X-12001865Y38480581D01*
X-12118081Y38364365D01*
X-12201744Y38222898D01*
X-12234429Y38110398D01*
X-12247140Y38066644D01*
X-12247598Y38065069D01*
X-12250500Y38028194D01*
X-12250500Y38028186D01*
X-12250500Y36721813D01*
X-12250499Y36721798D01*
X-12247598Y36684932D01*
X-12247597Y36684926D01*
X-12230653Y36626607D01*
X-12201744Y36527102D01*
X-12118081Y36385635D01*
X-12118079Y36385633D01*
X-12118076Y36385629D01*
X-12001870Y36269423D01*
X-12001862Y36269417D01*
X-11959038Y36244091D01*
X-11861178Y36186217D01*
X-11860396Y36185755D01*
X-11860395Y36185754D01*
X-11777404Y36161643D01*
X-11718519Y36124036D01*
X-11689313Y36060564D01*
X-11688000Y36042567D01*
X-11688000Y33992507D01*
X-11707685Y33925468D01*
X-11746903Y33886968D01*
X-11818656Y33842712D01*
X-11869033Y33792335D01*
X-11912319Y33749049D01*
X-11973642Y33715564D01*
X-12043334Y33720548D01*
X-12087681Y33749049D01*
X-12181342Y33842710D01*
X-12181344Y33842712D01*
X-12330666Y33934814D01*
X-12497203Y33989999D01*
X-12599991Y34000500D01*
X-13225008Y34000499D01*
X-13225016Y34000498D01*
X-13225019Y34000498D01*
X-13281302Y33994748D01*
X-13327797Y33989999D01*
X-13494334Y33934814D01*
X-13643656Y33842712D01*
X-13767712Y33718656D01*
X-13859814Y33569334D01*
X-13883104Y33499049D01*
X-13887595Y33485496D01*
X-13927368Y33428051D01*
X-13991884Y33401228D01*
X-14005301Y33400500D01*
X-15475501Y33400500D01*
X-15542540Y33420185D01*
X-15588295Y33472989D01*
X-15599501Y33524500D01*
X-15599501Y33597876D01*
X-15605908Y33657483D01*
X-15656202Y33792328D01*
X-15656206Y33792335D01*
X-15742452Y33907544D01*
X-15742455Y33907547D01*
X-15857664Y33993793D01*
X-15857671Y33993797D01*
X-15992517Y34044091D01*
X-15992516Y34044091D01*
X-15998925Y34044779D01*
X-16052127Y34050500D01*
X-17147872Y34050499D01*
X-17207483Y34044091D01*
X-17207485Y34044090D01*
X-17207487Y34044090D01*
X-17215031Y34042308D01*
X-17215377Y34043775D01*
X-17276342Y34039408D01*
X-17291378Y34043822D01*
X-17292513Y34044089D01*
X-17292517Y34044091D01*
X-17352127Y34050500D01*
X-18447872Y34050499D01*
X-18507483Y34044091D01*
X-18642331Y33993796D01*
X-18757546Y33907546D01*
X-18843796Y33792331D01*
X-18894091Y33657483D01*
X-18900500Y33597873D01*
X-18900499Y32002128D01*
X-18896832Y31968020D01*
X-18894091Y31942516D01*
X-18843797Y31807671D01*
X-18843793Y31807664D01*
X-18757547Y31692455D01*
X-18757544Y31692452D01*
X-18642335Y31606206D01*
X-18642328Y31606202D01*
X-18581167Y31583391D01*
X-18525233Y31541520D01*
X-18500816Y31476056D01*
X-18500500Y31467209D01*
X-18500500Y30882790D01*
X-18520185Y30815751D01*
X-18572989Y30769996D01*
X-18581146Y30766616D01*
X-18642331Y30743796D01*
X-18757546Y30657546D01*
X-18843796Y30542331D01*
X-18894091Y30407483D01*
X-18900500Y30347873D01*
X-18900499Y28752128D01*
X-18896185Y28712000D01*
X-18894091Y28692516D01*
X-18843797Y28557671D01*
X-18843793Y28557664D01*
X-18757547Y28442455D01*
X-18757544Y28442452D01*
X-18642335Y28356206D01*
X-18642328Y28356202D01*
X-18581167Y28333391D01*
X-18525233Y28291520D01*
X-18500816Y28226056D01*
X-18500500Y28217209D01*
X-18500500Y23300096D01*
X-18520185Y23233057D01*
X-18536814Y23212420D01*
X-20658506Y21090727D01*
X-20658511Y21090724D01*
X-20668714Y21080520D01*
X-20668716Y21080520D01*
X-20780520Y20968716D01*
X-20815765Y20907669D01*
X-20859577Y20831785D01*
X-20900501Y20679057D01*
X-20900501Y20679054D01*
X-20900501Y20513348D01*
X-20900500Y20513330D01*
X-20900500Y17473373D01*
X-20900501Y17473360D01*
X-20900501Y17463371D01*
X-20900501Y17305257D01*
X-20859577Y17152529D01*
X-20859576Y17152527D01*
X-20848558Y17133444D01*
X-20848557Y17133442D01*
X-20786733Y17026358D01*
X-20780520Y17015598D01*
X-20721588Y16956666D01*
X-20664385Y16899463D01*
X-20664374Y16899453D01*
X-19256819Y15491897D01*
X-19223334Y15430574D01*
X-19220500Y15404216D01*
X-19220500Y7829090D01*
X-19240185Y7762051D01*
X-19292098Y7716707D01*
X-19297829Y7714035D01*
X-19491401Y7578495D01*
X-19658495Y7411401D01*
X-19788426Y7225838D01*
X-19843001Y7182215D01*
X-19912500Y7175021D01*
X-19974855Y7206543D01*
X-19991571Y7225836D01*
X-20121505Y7411401D01*
X-20288599Y7578495D01*
X-20410498Y7663850D01*
X-20482165Y7714032D01*
X-20482169Y7714034D01*
X-20482170Y7714035D01*
X-20696337Y7813903D01*
X-20727325Y7822206D01*
X-20760268Y7831033D01*
X-20924592Y7875063D01*
X-21132157Y7893223D01*
X-21159999Y7895659D01*
X-21160001Y7895659D01*
X-21187843Y7893223D01*
X-21395408Y7875063D01*
X-21623663Y7813903D01*
X-21837829Y7714035D01*
X-22031401Y7578495D01*
X-22198495Y7411401D01*
X-22328426Y7225838D01*
X-22383001Y7182215D01*
X-22452500Y7175021D01*
X-22514855Y7206543D01*
X-22531571Y7225836D01*
X-22661505Y7411401D01*
X-22828599Y7578495D01*
X-22950498Y7663850D01*
X-23022165Y7714032D01*
X-23022169Y7714034D01*
X-23022170Y7714035D01*
X-23236337Y7813903D01*
X-23267325Y7822206D01*
X-23300268Y7831033D01*
X-23464592Y7875063D01*
X-23672157Y7893223D01*
X-23699999Y7895659D01*
X-23700001Y7895659D01*
X-23727843Y7893223D01*
X-23935408Y7875063D01*
X-24163663Y7813903D01*
X-24273097Y7762872D01*
X-24342172Y7752381D01*
X-24405956Y7780900D01*
X-24444196Y7839377D01*
X-24449500Y7875255D01*
X-24449500Y23965158D01*
X-24429815Y24032197D01*
X-24413181Y24052839D01*
X-20169481Y28296538D01*
X-20169475Y28296546D01*
X-20090426Y28433465D01*
X-20090423Y28433470D01*
X-20057681Y28555663D01*
X-20049499Y28586199D01*
X-20049499Y28744314D01*
X-20049499Y28754303D01*
X-20049500Y28754316D01*
X-20049500Y34568363D01*
X-20029815Y34635402D01*
X-19979302Y34680083D01*
X-19772300Y34779769D01*
X-19555520Y34927567D01*
X-19363198Y35106014D01*
X-19199614Y35311143D01*
X-19068432Y35538356D01*
X-19036075Y35620801D01*
X-18993259Y35676015D01*
X-18927389Y35699316D01*
X-18920647Y35699499D01*
X-18803180Y35699499D01*
X-18803177Y35699499D01*
X-18695821Y35728265D01*
X-18650444Y35740424D01*
X-18650443Y35740425D01*
X-18600330Y35769359D01*
X-18600329Y35769360D01*
X-18550925Y35797883D01*
X-18513519Y35819479D01*
X-18513516Y35819481D01*
X-18401712Y35931286D01*
X-16562789Y37770207D01*
X-16501466Y37803692D01*
X-16462507Y37805884D01*
X-16400012Y37799500D01*
X-16400009Y37799500D01*
X-15774998Y37799500D01*
X-15774980Y37799501D01*
X-15672203Y37810000D01*
X-15672200Y37810001D01*
X-15505668Y37865185D01*
X-15505663Y37865187D01*
X-15356342Y37957289D01*
X-15232289Y38081342D01*
X-15140187Y38230663D01*
X-15140185Y38230668D01*
X-15095983Y38364061D01*
X-15085001Y38397203D01*
X-15085001Y38397204D01*
X-15085000Y38397204D01*
X-15074500Y38499983D01*
X-15074500Y39500001D01*
X-15074501Y39500019D01*
X-15085000Y39602796D01*
X-15085001Y39602799D01*
X-15140185Y39769331D01*
X-15140187Y39769336D01*
X-15195994Y39859814D01*
X-15232288Y39918656D01*
X-15356344Y40042712D01*
X-15428096Y40086968D01*
X-15474821Y40138915D01*
X-15487000Y40192507D01*
X-15487000Y41557491D01*
X-15467315Y41624530D01*
X-15428098Y41663029D01*
X-15356344Y41707287D01*
X-15232289Y41831342D01*
X-15140187Y41980663D01*
X-15140185Y41980668D01*
X-15103743Y42090645D01*
X-15085001Y42147203D01*
X-15085001Y42147204D01*
X-15085000Y42147204D01*
X-15074500Y42249983D01*
X-15074500Y43250001D01*
X-15074501Y43250019D01*
X-15085000Y43352796D01*
X-15085001Y43352799D01*
X-15140185Y43519331D01*
X-15140187Y43519336D01*
X-15216346Y43642809D01*
X-15232288Y43668656D01*
X-15356344Y43792712D01*
X-15415596Y43829258D01*
X-15462321Y43881204D01*
X-15474500Y43934797D01*
X-15474500Y46101652D01*
X-15454815Y46168691D01*
X-15415598Y46207189D01*
X-15314846Y46269334D01*
X-15293842Y46282289D01*
X-15169789Y46406342D01*
X-15077687Y46555663D01*
X-15077685Y46555668D01*
X-15033173Y46689998D01*
X-15022501Y46722203D01*
X-15022501Y46722204D01*
X-15022500Y46722204D01*
X-15012000Y46824983D01*
X-15012000Y48175001D01*
X-15012001Y48175018D01*
X-15022500Y48277796D01*
X-15022501Y48277799D01*
X-15077685Y48444331D01*
X-15077687Y48444336D01*
X-15169789Y48593657D01*
X-15293844Y48717712D01*
X-15297547Y48719996D01*
X-15415597Y48792809D01*
X-15462321Y48844755D01*
X-15474500Y48898347D01*
X-15474500Y49369056D01*
X-15486118Y49412416D01*
X-15515197Y49520943D01*
X-15515423Y49521785D01*
X-15564901Y49607483D01*
X-15594480Y49658716D01*
X-15706284Y49770520D01*
X-15713349Y49777585D01*
X-15713355Y49777590D01*
X-17813181Y51877416D01*
X-17846666Y51938739D01*
X-17849500Y51965097D01*
X-17849500Y52674261D01*
X-17829815Y52741300D01*
X-17790780Y52779687D01*
X-17766405Y52794779D01*
X-17611714Y52935798D01*
X-17485567Y53102844D01*
X-17485562Y53102852D01*
X-17392259Y53290230D01*
X-17334974Y53491570D01*
X-17315661Y53699999D01*
X-17315661Y53700000D01*
X-17334974Y53908429D01*
X-17392259Y54109769D01*
X-17485562Y54297147D01*
X-17485567Y54297155D01*
X-17563816Y54400773D01*
X-17588508Y54466135D01*
X-17573943Y54534469D01*
X-17524745Y54584082D01*
X-17464862Y54599500D01*
X-2732418Y54599500D01*
X-2665379Y54579815D01*
G37*
%TD.AperFunction*%
%TA.AperFunction,Conductor*%
G36*
X-6188262Y45629815D02*
G01*
X-6142507Y45577011D01*
X-6137596Y45564507D01*
X-6109814Y45480666D01*
X-6017712Y45331344D01*
X-6017710Y45331342D01*
X-5893655Y45207287D01*
X-5821902Y45163029D01*
X-5775178Y45111081D01*
X-5763000Y45057491D01*
X-5763000Y42442507D01*
X-5782685Y42375468D01*
X-5821903Y42336968D01*
X-5893656Y42292712D01*
X-6017712Y42168656D01*
X-6109814Y42019334D01*
X-6164999Y41852797D01*
X-6175500Y41750009D01*
X-6175499Y41250000D01*
X-6175499Y40749998D01*
X-6175498Y40749980D01*
X-6171137Y40707289D01*
X-6164999Y40647203D01*
X-6109814Y40480666D01*
X-6017712Y40331344D01*
X-5893656Y40207288D01*
X-5744334Y40115186D01*
X-5577797Y40060001D01*
X-5577795Y40060000D01*
X-5475010Y40049500D01*
X-5475009Y40049500D01*
X-4849998Y40049500D01*
X-4849980Y40049501D01*
X-4747203Y40060000D01*
X-4747200Y40060001D01*
X-4580668Y40115185D01*
X-4580663Y40115187D01*
X-4431342Y40207289D01*
X-4337681Y40300951D01*
X-4276358Y40334436D01*
X-4206666Y40329452D01*
X-4162319Y40300951D01*
X-4068656Y40207288D01*
X-3919334Y40115186D01*
X-3752797Y40060001D01*
X-3752795Y40060000D01*
X-3650016Y40049500D01*
X-3650009Y40049500D01*
X-3649096Y40049500D01*
X-3648905Y40049444D01*
X-3646861Y40049340D01*
X-3646869Y40049179D01*
X-3646868Y40049179D01*
X-3646870Y40049155D01*
X-3646885Y40048851D01*
X-3582057Y40029815D01*
X-3536302Y39977011D01*
X-3526358Y39907853D01*
X-3555383Y39844297D01*
X-3561415Y39837819D01*
X-8608506Y34790728D01*
X-8608511Y34790724D01*
X-8618714Y34780520D01*
X-8618716Y34780520D01*
X-8730520Y34668716D01*
X-8752131Y34631284D01*
X-8809577Y34531785D01*
X-8850501Y34379057D01*
X-8850501Y34379054D01*
X-8850501Y34213348D01*
X-8850500Y34213330D01*
X-8850500Y9590096D01*
X-8870185Y9523057D01*
X-8886814Y9502420D01*
X-10516470Y7872763D01*
X-10577791Y7839280D01*
X-10636238Y7840670D01*
X-10764592Y7875063D01*
X-10972157Y7893223D01*
X-10999999Y7895659D01*
X-11000001Y7895659D01*
X-11027843Y7893223D01*
X-11235408Y7875063D01*
X-11463663Y7813903D01*
X-11677829Y7714035D01*
X-11871401Y7578495D01*
X-12038495Y7411401D01*
X-12168426Y7225838D01*
X-12223001Y7182215D01*
X-12292500Y7175021D01*
X-12354855Y7206543D01*
X-12371571Y7225836D01*
X-12501505Y7411401D01*
X-12668599Y7578495D01*
X-12790498Y7663850D01*
X-12862165Y7714032D01*
X-12862169Y7714034D01*
X-12862170Y7714035D01*
X-13076337Y7813903D01*
X-13107325Y7822206D01*
X-13140268Y7831033D01*
X-13304592Y7875063D01*
X-13512157Y7893223D01*
X-13539999Y7895659D01*
X-13540001Y7895659D01*
X-13567843Y7893223D01*
X-13775408Y7875063D01*
X-14003663Y7813903D01*
X-14217829Y7714035D01*
X-14411401Y7578495D01*
X-14578495Y7411401D01*
X-14708426Y7225838D01*
X-14763001Y7182215D01*
X-14832500Y7175021D01*
X-14894855Y7206543D01*
X-14911571Y7225836D01*
X-15041505Y7411401D01*
X-15208599Y7578495D01*
X-15330498Y7663850D01*
X-15402165Y7714032D01*
X-15402169Y7714034D01*
X-15402170Y7714035D01*
X-15616337Y7813903D01*
X-15647325Y7822206D01*
X-15680268Y7831033D01*
X-15844592Y7875063D01*
X-16052157Y7893223D01*
X-16079999Y7895659D01*
X-16080001Y7895659D01*
X-16107843Y7893223D01*
X-16315408Y7875063D01*
X-16543663Y7813903D01*
X-16757829Y7714035D01*
X-16951401Y7578495D01*
X-17118495Y7411401D01*
X-17248426Y7225838D01*
X-17303001Y7182215D01*
X-17372500Y7175021D01*
X-17434855Y7206543D01*
X-17451571Y7225836D01*
X-17581505Y7411401D01*
X-17748599Y7578495D01*
X-17870498Y7663850D01*
X-17942165Y7714032D01*
X-17942167Y7714033D01*
X-17942169Y7714034D01*
X-17942170Y7714035D01*
X-17947898Y7716706D01*
X-18000339Y7762872D01*
X-18019500Y7829090D01*
X-18019500Y15617643D01*
X-18019499Y15617661D01*
X-18019499Y15783368D01*
X-18019498Y15783368D01*
X-18033220Y15834577D01*
X-18060423Y15936099D01*
X-18139480Y16073030D01*
X-19663181Y17596730D01*
X-19696666Y17658053D01*
X-19699500Y17684411D01*
X-19699500Y20299902D01*
X-19679815Y20366941D01*
X-19663181Y20387583D01*
X-17687583Y22363181D01*
X-17626260Y22396666D01*
X-17599902Y22399500D01*
X-17029353Y22399500D01*
X-16962314Y22379815D01*
X-16916559Y22327011D01*
X-16913941Y22320842D01*
X-16881568Y22238357D01*
X-16750386Y22011143D01*
X-16647197Y21881748D01*
X-16586801Y21806014D01*
X-16394479Y21627567D01*
X-16177704Y21479772D01*
X-16177700Y21479770D01*
X-16177697Y21479768D01*
X-16177696Y21479767D01*
X-15941325Y21365938D01*
X-15941327Y21365938D01*
X-15690623Y21288606D01*
X-15690619Y21288605D01*
X-15690615Y21288604D01*
X-15565823Y21269794D01*
X-15431187Y21249500D01*
X-15431182Y21249500D01*
X-15168812Y21249500D01*
X-15007247Y21273853D01*
X-14909385Y21288604D01*
X-14909381Y21288605D01*
X-14909376Y21288606D01*
X-14658673Y21365938D01*
X-14422303Y21479767D01*
X-14422302Y21479768D01*
X-14205520Y21627567D01*
X-14013198Y21806014D01*
X-13849614Y22011143D01*
X-13718432Y22238356D01*
X-13622582Y22482578D01*
X-13622576Y22482597D01*
X-13564197Y22738374D01*
X-13564196Y22738379D01*
X-13544592Y22999995D01*
X-13544592Y23000004D01*
X-13564196Y23261620D01*
X-13564197Y23261625D01*
X-13565957Y23269334D01*
X-13592142Y23384061D01*
X-13622576Y23517402D01*
X-13622582Y23517421D01*
X-13649692Y23586495D01*
X-13718432Y23761643D01*
X-13849614Y23988857D01*
X-14013195Y24193981D01*
X-14013198Y24193985D01*
X-14205520Y24372432D01*
X-14267322Y24414568D01*
X-14422296Y24520228D01*
X-14422302Y24520231D01*
X-14422303Y24520232D01*
X-14586904Y24599499D01*
X-14658673Y24634061D01*
X-14658674Y24634061D01*
X-14658677Y24634063D01*
X-14909385Y24711396D01*
X-15168818Y24750500D01*
X-15431182Y24750500D01*
X-15690615Y24711396D01*
X-15941323Y24634063D01*
X-16177704Y24520228D01*
X-16394479Y24372433D01*
X-16586805Y24193981D01*
X-16750386Y23988857D01*
X-16881568Y23761643D01*
X-16913926Y23679194D01*
X-16956740Y23623984D01*
X-17022610Y23600683D01*
X-17029353Y23600500D01*
X-17175500Y23600500D01*
X-17242539Y23620185D01*
X-17288294Y23672989D01*
X-17299500Y23724500D01*
X-17299500Y28177756D01*
X-17279815Y28244795D01*
X-17227011Y28290550D01*
X-17162247Y28301045D01*
X-17147873Y28299500D01*
X-17147864Y28299500D01*
X-16052129Y28299500D01*
X-16052123Y28299501D01*
X-15992516Y28305908D01*
X-15857671Y28356202D01*
X-15857664Y28356206D01*
X-15742455Y28442452D01*
X-15742452Y28442455D01*
X-15656206Y28557664D01*
X-15656202Y28557671D01*
X-15605908Y28692517D01*
X-15599501Y28752116D01*
X-15599500Y28752119D01*
X-15599500Y28752127D01*
X-15599500Y28825500D01*
X-15579815Y28892539D01*
X-15527011Y28938294D01*
X-15475500Y28949500D01*
X-14395089Y28949500D01*
X-14328050Y28929815D01*
X-14282295Y28877011D01*
X-14271731Y28838102D01*
X-14270391Y28824991D01*
X-14264999Y28772203D01*
X-14209814Y28605666D01*
X-14117712Y28456344D01*
X-13993656Y28332288D01*
X-13912594Y28282289D01*
X-13851807Y28244795D01*
X-13844334Y28240186D01*
X-13677797Y28185001D01*
X-13677795Y28185000D01*
X-13575010Y28174500D01*
X-13575009Y28174500D01*
X-12849998Y28174500D01*
X-12849980Y28174501D01*
X-12747203Y28185000D01*
X-12747200Y28185001D01*
X-12580668Y28240185D01*
X-12580663Y28240187D01*
X-12431342Y28332289D01*
X-12307289Y28456342D01*
X-12215187Y28605663D01*
X-12215185Y28605668D01*
X-12176714Y28721766D01*
X-12160001Y28772203D01*
X-12160001Y28772204D01*
X-12160000Y28772204D01*
X-12149500Y28874983D01*
X-12149500Y30225001D01*
X-12149501Y30225018D01*
X-12160000Y30327796D01*
X-12160001Y30327799D01*
X-12215185Y30494331D01*
X-12215187Y30494336D01*
X-12258014Y30563770D01*
X-12307288Y30643656D01*
X-12431344Y30767712D01*
X-12580666Y30859814D01*
X-12747203Y30914999D01*
X-12849991Y30925500D01*
X-13575008Y30925499D01*
X-13575016Y30925498D01*
X-13575019Y30925498D01*
X-13619658Y30920938D01*
X-13677797Y30914999D01*
X-13844334Y30859814D01*
X-13993656Y30767712D01*
X-14117712Y30643656D01*
X-14209814Y30494334D01*
X-14264999Y30327797D01*
X-14264999Y30327794D01*
X-14271732Y30261897D01*
X-14298129Y30197205D01*
X-14355310Y30157054D01*
X-14395090Y30150500D01*
X-15475501Y30150500D01*
X-15542540Y30170185D01*
X-15588295Y30222989D01*
X-15599501Y30274500D01*
X-15599501Y30347876D01*
X-15605908Y30407483D01*
X-15656202Y30542328D01*
X-15656206Y30542335D01*
X-15742452Y30657544D01*
X-15742455Y30657547D01*
X-15857664Y30743793D01*
X-15857671Y30743797D01*
X-15992517Y30794091D01*
X-15992516Y30794091D01*
X-15999493Y30794841D01*
X-16052127Y30800500D01*
X-17147872Y30800499D01*
X-17162242Y30798954D01*
X-17231001Y30811357D01*
X-17282140Y30858966D01*
X-17299500Y30922243D01*
X-17299500Y31427756D01*
X-17279815Y31494795D01*
X-17227011Y31540550D01*
X-17162247Y31551045D01*
X-17147873Y31549500D01*
X-17147864Y31549500D01*
X-16052129Y31549500D01*
X-16052123Y31549501D01*
X-15992516Y31555908D01*
X-15857671Y31606202D01*
X-15857664Y31606206D01*
X-15742455Y31692452D01*
X-15742452Y31692455D01*
X-15656206Y31807664D01*
X-15656202Y31807671D01*
X-15605908Y31942517D01*
X-15599501Y32002116D01*
X-15599500Y32002119D01*
X-15599500Y32002127D01*
X-15599500Y32075500D01*
X-15579815Y32142539D01*
X-15527011Y32188294D01*
X-15475500Y32199500D01*
X-14005301Y32199500D01*
X-13938262Y32179815D01*
X-13892507Y32127011D01*
X-13887596Y32114507D01*
X-13859814Y32030666D01*
X-13767712Y31881344D01*
X-13643656Y31757288D01*
X-13590049Y31724223D01*
X-13508986Y31674223D01*
X-13494334Y31665186D01*
X-13327797Y31610001D01*
X-13327795Y31610000D01*
X-13225010Y31599500D01*
X-13225009Y31599500D01*
X-12599998Y31599500D01*
X-12599980Y31599501D01*
X-12497203Y31610000D01*
X-12497200Y31610001D01*
X-12330668Y31665185D01*
X-12330663Y31665187D01*
X-12181342Y31757289D01*
X-12087681Y31850951D01*
X-12026358Y31884436D01*
X-11956666Y31879452D01*
X-11912319Y31850951D01*
X-11818656Y31757288D01*
X-11765049Y31724223D01*
X-11683986Y31674223D01*
X-11669334Y31665186D01*
X-11502797Y31610001D01*
X-11502795Y31610000D01*
X-11400016Y31599500D01*
X-11400009Y31599500D01*
X-11012000Y31599500D01*
X-10944961Y31579815D01*
X-10899206Y31527011D01*
X-10888000Y31475500D01*
X-10888000Y30948347D01*
X-10907685Y30881308D01*
X-10946901Y30842810D01*
X-11068656Y30767712D01*
X-11192712Y30643656D01*
X-11284814Y30494334D01*
X-11339999Y30327797D01*
X-11350500Y30225009D01*
X-11350499Y29532289D01*
X-11350499Y28874998D01*
X-11350498Y28874981D01*
X-11341623Y28788102D01*
X-11339999Y28772203D01*
X-11284814Y28605666D01*
X-11192712Y28456344D01*
X-11068656Y28332288D01*
X-10987594Y28282289D01*
X-10926807Y28244795D01*
X-10919334Y28240186D01*
X-10752797Y28185001D01*
X-10752795Y28185000D01*
X-10650010Y28174500D01*
X-10650009Y28174500D01*
X-9924998Y28174500D01*
X-9924980Y28174501D01*
X-9822203Y28185000D01*
X-9822200Y28185001D01*
X-9655668Y28240185D01*
X-9655663Y28240187D01*
X-9506342Y28332289D01*
X-9382289Y28456342D01*
X-9290187Y28605663D01*
X-9290185Y28605668D01*
X-9251714Y28721766D01*
X-9235001Y28772203D01*
X-9235001Y28772204D01*
X-9235000Y28772204D01*
X-9224500Y28874983D01*
X-9224500Y30225001D01*
X-9224501Y30225018D01*
X-9235000Y30327796D01*
X-9235001Y30327799D01*
X-9290185Y30494331D01*
X-9290187Y30494336D01*
X-9333014Y30563770D01*
X-9382288Y30643656D01*
X-9506344Y30767712D01*
X-9628097Y30842809D01*
X-9674821Y30894755D01*
X-9687000Y30948347D01*
X-9687000Y31913330D01*
X-9686999Y31913348D01*
X-9686999Y32079054D01*
X-9686998Y32079054D01*
X-9727923Y32231785D01*
X-9738030Y32249291D01*
X-9756858Y32281900D01*
X-9756859Y32281904D01*
X-9756860Y32281904D01*
X-9767857Y32300951D01*
X-9806980Y32368716D01*
X-9918784Y32480520D01*
X-9925849Y32487585D01*
X-9925855Y32487590D01*
X-10038181Y32599916D01*
X-10071666Y32661239D01*
X-10074500Y32687597D01*
X-10074500Y33300001D01*
X-10074501Y33300019D01*
X-10085000Y33402796D01*
X-10085001Y33402799D01*
X-10140185Y33569331D01*
X-10140187Y33569336D01*
X-10194556Y33657482D01*
X-10232288Y33718656D01*
X-10356344Y33842712D01*
X-10428096Y33886968D01*
X-10474821Y33938915D01*
X-10487000Y33992507D01*
X-10487000Y36388066D01*
X-10467315Y36455105D01*
X-10414511Y36500860D01*
X-10345353Y36510804D01*
X-10281797Y36481779D01*
X-10256268Y36451187D01*
X-10217685Y36385947D01*
X-10217678Y36385938D01*
X-10101561Y36269821D01*
X-10101552Y36269814D01*
X-9960196Y36186217D01*
X-9960193Y36186216D01*
X-9802494Y36140400D01*
X-9802497Y36140400D01*
X-9800000Y36140203D01*
X-9800000Y37125000D01*
X-9300000Y37125000D01*
X-9300000Y36140203D01*
X-9297503Y36140400D01*
X-9139806Y36186216D01*
X-9139803Y36186217D01*
X-8998447Y36269814D01*
X-8998438Y36269821D01*
X-8882321Y36385938D01*
X-8882314Y36385947D01*
X-8798717Y36527303D01*
X-8798716Y36527306D01*
X-8752900Y36685004D01*
X-8752899Y36685010D01*
X-8750000Y36721850D01*
X-8750000Y37125000D01*
X-9300000Y37125000D01*
X-9800000Y37125000D01*
X-10376154Y37125000D01*
X-10379840Y37122987D01*
X-10449533Y37127964D01*
X-10505470Y37169829D01*
X-10525984Y37212050D01*
X-10527921Y37219279D01*
X-10527926Y37219290D01*
X-10606975Y37356209D01*
X-10606981Y37356217D01*
X-10613181Y37362417D01*
X-10646666Y37423740D01*
X-10649500Y37450098D01*
X-10649500Y37888000D01*
X-10629815Y37955039D01*
X-10577011Y38000794D01*
X-10525500Y38012000D01*
X-10474000Y38012000D01*
X-10406961Y37992315D01*
X-10361206Y37939511D01*
X-10350000Y37888000D01*
X-10350000Y37625000D01*
X-9800000Y37625000D01*
X-9800000Y38280684D01*
X-9782733Y38343804D01*
X-9748254Y38402105D01*
X-9748254Y38402106D01*
X-9702402Y38559926D01*
X-9702401Y38559932D01*
X-9699500Y38596798D01*
X-9699500Y38609795D01*
X-9300000Y38609795D01*
X-9300000Y37625000D01*
X-8750000Y37625000D01*
X-8750000Y38028149D01*
X-8752899Y38064989D01*
X-8752900Y38064995D01*
X-8798716Y38222693D01*
X-8798717Y38222696D01*
X-8882314Y38364052D01*
X-8882321Y38364061D01*
X-8998438Y38480178D01*
X-8998447Y38480185D01*
X-9139801Y38563781D01*
X-9297514Y38609600D01*
X-9297511Y38609600D01*
X-9299998Y38609795D01*
X-9300000Y38609795D01*
X-9699500Y38609795D01*
X-9699500Y39149902D01*
X-9679815Y39216941D01*
X-9663181Y39237583D01*
X-8769481Y40131282D01*
X-8769477Y40131287D01*
X-8697125Y40256606D01*
X-8690424Y40268211D01*
X-8690423Y40268215D01*
X-8679174Y40310198D01*
X-8649499Y40420943D01*
X-8649499Y40579057D01*
X-8649499Y40589046D01*
X-8649500Y40589059D01*
X-8649500Y42461185D01*
X-8629815Y42528224D01*
X-8584518Y42570239D01*
X-8456501Y42639519D01*
X-8456494Y42639523D01*
X-8260257Y42792261D01*
X-8091833Y42975217D01*
X-7955826Y43183393D01*
X-7855936Y43411118D01*
X-7794892Y43652175D01*
X-7794890Y43652187D01*
X-7774357Y43899994D01*
X-7774357Y43900005D01*
X-7794890Y44147812D01*
X-7794892Y44147824D01*
X-7855936Y44388881D01*
X-7955826Y44616606D01*
X-8091833Y44824782D01*
X-8201391Y44943793D01*
X-8260256Y45007738D01*
X-8456491Y45160474D01*
X-8622844Y45250500D01*
X-8675188Y45278827D01*
X-8675190Y45278828D01*
X-8910386Y45359571D01*
X-9155665Y45400500D01*
X-9290903Y45400500D01*
X-9357942Y45420185D01*
X-9403697Y45472989D01*
X-9413641Y45542147D01*
X-9384616Y45605703D01*
X-9378584Y45612181D01*
X-9377584Y45613181D01*
X-9316261Y45646666D01*
X-9289903Y45649500D01*
X-6255301Y45649500D01*
X-6188262Y45629815D01*
G37*
%TD.AperFunction*%
%TA.AperFunction,Conductor*%
G36*
X-2649938Y15279815D02*
G01*
X-2604183Y15227011D01*
X-2596733Y15199865D01*
X-2595876Y15200068D01*
X-2594092Y15192520D01*
X-2594091Y15192517D01*
X-2587588Y15175081D01*
X-2543797Y15057671D01*
X-2543793Y15057664D01*
X-2457547Y14942455D01*
X-2457544Y14942452D01*
X-2342335Y14856206D01*
X-2342328Y14856202D01*
X-2281167Y14833391D01*
X-2225233Y14791520D01*
X-2200816Y14726056D01*
X-2200500Y14717209D01*
X-2200500Y7569758D01*
X-2220185Y7502719D01*
X-2272989Y7456964D01*
X-2342147Y7447020D01*
X-2405703Y7476045D01*
X-2412181Y7482077D01*
X-2508597Y7578493D01*
X-2508598Y7578494D01*
X-2508599Y7578495D01*
X-2630498Y7663850D01*
X-2702165Y7714032D01*
X-2702169Y7714034D01*
X-2702170Y7714035D01*
X-2916337Y7813903D01*
X-2947325Y7822206D01*
X-2980268Y7831033D01*
X-3144592Y7875063D01*
X-3352157Y7893223D01*
X-3379999Y7895659D01*
X-3380001Y7895659D01*
X-3407843Y7893223D01*
X-3615408Y7875063D01*
X-3843663Y7813903D01*
X-4057829Y7714035D01*
X-4251401Y7578495D01*
X-4418495Y7411401D01*
X-4548426Y7225838D01*
X-4603001Y7182215D01*
X-4672500Y7175021D01*
X-4734855Y7206543D01*
X-4751571Y7225836D01*
X-4881505Y7411401D01*
X-5048599Y7578495D01*
X-5170498Y7663850D01*
X-5242165Y7714032D01*
X-5242169Y7714034D01*
X-5242170Y7714035D01*
X-5456337Y7813903D01*
X-5487325Y7822206D01*
X-5520268Y7831033D01*
X-5684592Y7875063D01*
X-5892157Y7893223D01*
X-5919999Y7895659D01*
X-5920001Y7895659D01*
X-5947843Y7893223D01*
X-6155408Y7875063D01*
X-6283757Y7840672D01*
X-6353606Y7842335D01*
X-6403531Y7872766D01*
X-6413181Y7882416D01*
X-6446666Y7943739D01*
X-6449500Y7970097D01*
X-6449500Y13117002D01*
X-6429815Y13184041D01*
X-6377011Y13229796D01*
X-6307853Y13239740D01*
X-6271699Y13228722D01*
X-6141325Y13165938D01*
X-6141327Y13165938D01*
X-5890623Y13088606D01*
X-5890619Y13088605D01*
X-5890615Y13088604D01*
X-5765823Y13069794D01*
X-5631187Y13049500D01*
X-5631182Y13049500D01*
X-5368812Y13049500D01*
X-5207247Y13073853D01*
X-5109385Y13088604D01*
X-5109381Y13088605D01*
X-5109376Y13088606D01*
X-4858673Y13165938D01*
X-4622303Y13279767D01*
X-4622302Y13279768D01*
X-4405520Y13427567D01*
X-4213198Y13606014D01*
X-4049614Y13811143D01*
X-3918432Y14038356D01*
X-3822582Y14282578D01*
X-3822576Y14282597D01*
X-3764197Y14538374D01*
X-3764196Y14538379D01*
X-3744592Y14799995D01*
X-3744592Y14800004D01*
X-3764196Y15061620D01*
X-3764196Y15061621D01*
X-3773070Y15100500D01*
X-3783890Y15147908D01*
X-3779618Y15217646D01*
X-3738319Y15274004D01*
X-3673107Y15299087D01*
X-3663000Y15299500D01*
X-2716977Y15299500D01*
X-2649938Y15279815D01*
G37*
%TD.AperFunction*%
%TA.AperFunction,Conductor*%
G36*
X-25188262Y32629815D02*
G01*
X-25142507Y32577011D01*
X-25137596Y32564507D01*
X-25109814Y32480666D01*
X-25017712Y32331344D01*
X-24893656Y32207288D01*
X-24809365Y32155297D01*
X-24763506Y32127011D01*
X-24744334Y32115186D01*
X-24577797Y32060001D01*
X-24577795Y32060000D01*
X-24475010Y32049500D01*
X-24475009Y32049500D01*
X-23849998Y32049500D01*
X-23849980Y32049501D01*
X-23747203Y32060000D01*
X-23747200Y32060001D01*
X-23580668Y32115185D01*
X-23580663Y32115187D01*
X-23431342Y32207289D01*
X-23337681Y32300951D01*
X-23276358Y32334436D01*
X-23206666Y32329452D01*
X-23162319Y32300951D01*
X-23068655Y32207287D01*
X-22996902Y32163029D01*
X-22950178Y32111081D01*
X-22938000Y32057491D01*
X-22938000Y30389059D01*
X-22938001Y30389046D01*
X-22938001Y30379057D01*
X-22938001Y30220943D01*
X-22897077Y30068215D01*
X-22897075Y30068212D01*
X-22897075Y30068210D01*
X-22897074Y30068209D01*
X-22874470Y30029058D01*
X-22874469Y30029056D01*
X-22818024Y29931290D01*
X-22818021Y29931286D01*
X-22818020Y29931284D01*
X-22759071Y29872335D01*
X-22701885Y29815149D01*
X-22701874Y29815139D01*
X-22636818Y29750083D01*
X-22603333Y29688760D01*
X-22600499Y29662402D01*
X-22600499Y28824998D01*
X-22600498Y28824981D01*
X-22595106Y28772200D01*
X-22589999Y28722203D01*
X-22534814Y28555666D01*
X-22442712Y28406344D01*
X-22318656Y28282288D01*
X-22182181Y28198110D01*
X-22135458Y28146163D01*
X-22124235Y28077200D01*
X-22152079Y28013118D01*
X-22159587Y28004902D01*
X-25408506Y24755984D01*
X-25408511Y24755980D01*
X-25418714Y24745776D01*
X-25418716Y24745776D01*
X-25530520Y24633972D01*
X-25550422Y24599500D01*
X-25609577Y24497041D01*
X-25650501Y24344313D01*
X-25650501Y24344310D01*
X-25650501Y24178604D01*
X-25650500Y24178586D01*
X-25650500Y7941785D01*
X-25670185Y7874746D01*
X-25722989Y7828991D01*
X-25792147Y7819047D01*
X-25806593Y7822010D01*
X-25840268Y7831033D01*
X-26004592Y7875063D01*
X-26212157Y7893223D01*
X-26239999Y7895659D01*
X-26240001Y7895659D01*
X-26267843Y7893223D01*
X-26475408Y7875063D01*
X-26703663Y7813903D01*
X-26723094Y7804841D01*
X-26792171Y7794349D01*
X-26855955Y7822867D01*
X-26894196Y7881343D01*
X-26899500Y7917223D01*
X-26899500Y27079058D01*
X-26924119Y27170942D01*
X-26924120Y27170942D01*
X-26924120Y27170943D01*
X-26940423Y27231785D01*
X-26990810Y27319057D01*
X-27013208Y27357853D01*
X-27019479Y27368715D01*
X-27138349Y27487585D01*
X-27138355Y27487590D01*
X-27438584Y27787819D01*
X-27472069Y27849142D01*
X-27467085Y27918834D01*
X-27425213Y27974767D01*
X-27359749Y27999184D01*
X-27350903Y27999500D01*
X-26702129Y27999500D01*
X-26702123Y27999501D01*
X-26642516Y28005908D01*
X-26507671Y28056202D01*
X-26507664Y28056206D01*
X-26392455Y28142452D01*
X-26392452Y28142455D01*
X-26306206Y28257664D01*
X-26306202Y28257671D01*
X-26255908Y28392517D01*
X-26249501Y28452116D01*
X-26249500Y28452135D01*
X-26249500Y28775500D01*
X-26229815Y28842539D01*
X-26177011Y28888294D01*
X-26125500Y28899500D01*
X-25645089Y28899500D01*
X-25578050Y28879815D01*
X-25532295Y28827011D01*
X-25521731Y28788102D01*
X-25520443Y28775500D01*
X-25514999Y28722203D01*
X-25459814Y28555666D01*
X-25367712Y28406344D01*
X-25243656Y28282288D01*
X-25206490Y28259364D01*
X-25108704Y28199049D01*
X-25094334Y28190186D01*
X-24927797Y28135001D01*
X-24927795Y28135000D01*
X-24825010Y28124500D01*
X-24825009Y28124500D01*
X-24099998Y28124500D01*
X-24099980Y28124501D01*
X-23997203Y28135000D01*
X-23997200Y28135001D01*
X-23830668Y28190185D01*
X-23830663Y28190187D01*
X-23681342Y28282289D01*
X-23557289Y28406342D01*
X-23465187Y28555663D01*
X-23465185Y28555668D01*
X-23432172Y28655296D01*
X-23410001Y28722203D01*
X-23410001Y28722204D01*
X-23410000Y28722204D01*
X-23399500Y28824983D01*
X-23399500Y30175001D01*
X-23399501Y30175018D01*
X-23410000Y30277796D01*
X-23410001Y30277799D01*
X-23465185Y30444331D01*
X-23465187Y30444336D01*
X-23525745Y30542516D01*
X-23557288Y30593656D01*
X-23681344Y30717712D01*
X-23830666Y30809814D01*
X-23997203Y30864999D01*
X-24099991Y30875500D01*
X-24825008Y30875499D01*
X-24825016Y30875498D01*
X-24825019Y30875498D01*
X-24876912Y30870197D01*
X-24927797Y30864999D01*
X-25094334Y30809814D01*
X-25243656Y30717712D01*
X-25367712Y30593656D01*
X-25459814Y30444334D01*
X-25514999Y30277797D01*
X-25514999Y30277794D01*
X-25521732Y30211897D01*
X-25548129Y30147205D01*
X-25605310Y30107054D01*
X-25645090Y30100500D01*
X-26167209Y30100500D01*
X-26234248Y30120185D01*
X-26280003Y30172989D01*
X-26283391Y30181167D01*
X-26306202Y30242328D01*
X-26306206Y30242335D01*
X-26392452Y30357544D01*
X-26392455Y30357547D01*
X-26507664Y30443793D01*
X-26507671Y30443797D01*
X-26642517Y30494091D01*
X-26642516Y30494091D01*
X-26648925Y30494779D01*
X-26702127Y30500500D01*
X-27797872Y30500499D01*
X-27857483Y30494091D01*
X-27857485Y30494090D01*
X-27857487Y30494090D01*
X-27865031Y30492308D01*
X-27865377Y30493775D01*
X-27926342Y30489408D01*
X-27941378Y30493822D01*
X-27950060Y30495873D01*
X-27949521Y30498150D01*
X-28003287Y30520408D01*
X-28043147Y30577793D01*
X-28049500Y30616975D01*
X-28049500Y31877756D01*
X-28029815Y31944795D01*
X-27977011Y31990550D01*
X-27912247Y32001045D01*
X-27897873Y31999500D01*
X-27897864Y31999500D01*
X-26802129Y31999500D01*
X-26802123Y31999501D01*
X-26742516Y32005908D01*
X-26607671Y32056202D01*
X-26607664Y32056206D01*
X-26492455Y32142452D01*
X-26492452Y32142455D01*
X-26406206Y32257664D01*
X-26406202Y32257671D01*
X-26355908Y32392517D01*
X-26349501Y32452116D01*
X-26349500Y32452135D01*
X-26349500Y32525500D01*
X-26329815Y32592539D01*
X-26277011Y32638294D01*
X-26225500Y32649500D01*
X-25255301Y32649500D01*
X-25188262Y32629815D01*
G37*
%TD.AperFunction*%
%TA.AperFunction,Conductor*%
G36*
X-42307460Y42629815D02*
G01*
X-42261705Y42577011D01*
X-42250499Y42525500D01*
X-42250499Y42452128D01*
X-42245697Y42407461D01*
X-42244091Y42392516D01*
X-42193797Y42257671D01*
X-42193793Y42257664D01*
X-42107547Y42142455D01*
X-42107544Y42142452D01*
X-41992335Y42056206D01*
X-41992328Y42056202D01*
X-41931167Y42033391D01*
X-41875233Y41991520D01*
X-41850816Y41926056D01*
X-41850500Y41917209D01*
X-41850500Y40929315D01*
X-41850501Y40929302D01*
X-41850501Y40812279D01*
X-41870186Y40745240D01*
X-41922990Y40699485D01*
X-41992148Y40689541D01*
X-42009099Y40693204D01*
X-42022505Y40697099D01*
X-42022510Y40697100D01*
X-42059350Y40699999D01*
X-42059366Y40700000D01*
X-42462500Y40700000D01*
X-42462500Y40150000D01*
X-41460341Y40150000D01*
X-41393302Y40130315D01*
X-41372660Y40113681D01*
X-40347334Y39088355D01*
X-40347332Y39088352D01*
X-40228461Y38969481D01*
X-40228453Y38969475D01*
X-40144392Y38920943D01*
X-40144391Y38920943D01*
X-40091529Y38890423D01*
X-40091523Y38890421D01*
X-40088246Y38889064D01*
X-40085897Y38887171D01*
X-40084490Y38886359D01*
X-40084616Y38886139D01*
X-40033841Y38845225D01*
X-40011772Y38778932D01*
X-40029048Y38711232D01*
X-40080183Y38663619D01*
X-40135693Y38650500D01*
X-41659484Y38650500D01*
X-41722605Y38667768D01*
X-41796901Y38711706D01*
X-41864602Y38751744D01*
X-41906224Y38763836D01*
X-42022426Y38797597D01*
X-42022429Y38797597D01*
X-42022431Y38797598D01*
X-42059306Y38800500D01*
X-42059314Y38800500D01*
X-43225500Y38800500D01*
X-43292539Y38820185D01*
X-43338294Y38872989D01*
X-43349500Y38924500D01*
X-43349500Y38976000D01*
X-43329815Y39043039D01*
X-43277011Y39088794D01*
X-43225500Y39100000D01*
X-42962500Y39100000D01*
X-42962500Y39650000D01*
X-42462500Y39650000D01*
X-42462500Y39100000D01*
X-42059350Y39100000D01*
X-42022510Y39102899D01*
X-42022504Y39102900D01*
X-41864806Y39148716D01*
X-41864803Y39148717D01*
X-41723447Y39232314D01*
X-41723438Y39232321D01*
X-41607321Y39348438D01*
X-41607314Y39348447D01*
X-41523718Y39489801D01*
X-41477899Y39647513D01*
X-41477704Y39649998D01*
X-41477705Y39650000D01*
X-42462500Y39650000D01*
X-42962500Y39650000D01*
X-43618185Y39650000D01*
X-43681306Y39667268D01*
X-43731016Y39696666D01*
X-43739602Y39701744D01*
X-43807877Y39721580D01*
X-43897426Y39747597D01*
X-43897429Y39747597D01*
X-43897431Y39747598D01*
X-43934306Y39750500D01*
X-43934314Y39750500D01*
X-44487403Y39750500D01*
X-44554442Y39770185D01*
X-44575084Y39786819D01*
X-44692639Y39904374D01*
X-44692649Y39904385D01*
X-44808785Y40020521D01*
X-44848963Y40043717D01*
X-44910174Y40079057D01*
X-44945715Y40099577D01*
X-45098443Y40140501D01*
X-45256557Y40140501D01*
X-45264153Y40140501D01*
X-45264169Y40140500D01*
X-49043884Y40140500D01*
X-49076237Y40150000D01*
X-43947295Y40150000D01*
X-42962500Y40150000D01*
X-42962500Y40700000D01*
X-43365634Y40700000D01*
X-43365649Y40699999D01*
X-43402489Y40697100D01*
X-43402495Y40697099D01*
X-43560193Y40651283D01*
X-43560196Y40651282D01*
X-43701552Y40567685D01*
X-43701561Y40567678D01*
X-43817678Y40451561D01*
X-43817685Y40451552D01*
X-43901281Y40310198D01*
X-43947100Y40152486D01*
X-43947295Y40150001D01*
X-43947295Y40150000D01*
X-49076237Y40150000D01*
X-49110923Y40160185D01*
X-49156678Y40212989D01*
X-49157440Y40214689D01*
X-49175827Y40256608D01*
X-49311833Y40464782D01*
X-49389823Y40549501D01*
X-49480256Y40647738D01*
X-49676491Y40800474D01*
X-49846570Y40892516D01*
X-49895188Y40918827D01*
X-49895190Y40918828D01*
X-50130386Y40999571D01*
X-50375665Y41040500D01*
X-50624335Y41040500D01*
X-50869614Y40999571D01*
X-51104810Y40918828D01*
X-51323509Y40800474D01*
X-51519744Y40647738D01*
X-51688164Y40464785D01*
X-51824173Y40256607D01*
X-51924063Y40028881D01*
X-51985108Y39787821D01*
X-51985108Y39787815D01*
X-51985109Y39787812D01*
X-52005643Y39540005D01*
X-52005643Y39539994D01*
X-51985109Y39292187D01*
X-51985107Y39292175D01*
X-51924063Y39051118D01*
X-51824173Y38823393D01*
X-51688166Y38615217D01*
X-51683453Y38610097D01*
X-51519744Y38432262D01*
X-51436991Y38367852D01*
X-51396179Y38311143D01*
X-51392504Y38241370D01*
X-51427136Y38180687D01*
X-51436985Y38172151D01*
X-51519744Y38107738D01*
X-51688164Y37924785D01*
X-51824173Y37716607D01*
X-51924063Y37488881D01*
X-51985108Y37247821D01*
X-51985108Y37247815D01*
X-51985109Y37247812D01*
X-52005643Y37000005D01*
X-52005643Y37000000D01*
X-51985109Y36752187D01*
X-51985107Y36752175D01*
X-51924063Y36511118D01*
X-51824175Y36283396D01*
X-51688166Y36075217D01*
X-51688164Y36075215D01*
X-51519744Y35892262D01*
X-51324661Y35740423D01*
X-51323506Y35739524D01*
X-51104811Y35621172D01*
X-51104802Y35621169D01*
X-50869616Y35540429D01*
X-50624335Y35499500D01*
X-50375665Y35499500D01*
X-50130383Y35540429D01*
X-49895197Y35621169D01*
X-49895188Y35621172D01*
X-49676493Y35739524D01*
X-49480257Y35892261D01*
X-49311833Y36075217D01*
X-49175827Y36283391D01*
X-49157440Y36325311D01*
X-49112483Y36378796D01*
X-49045747Y36399486D01*
X-49043884Y36399500D01*
X-43600097Y36399500D01*
X-43533058Y36379815D01*
X-43512416Y36363181D01*
X-39849318Y32700083D01*
X-39815833Y32638760D01*
X-39812999Y32612402D01*
X-39812999Y31999998D01*
X-39812998Y31999981D01*
X-39810367Y31974223D01*
X-39802499Y31897203D01*
X-39747314Y31730666D01*
X-39655212Y31581344D01*
X-39655210Y31581342D01*
X-39531155Y31457287D01*
X-39459402Y31413029D01*
X-39412678Y31361081D01*
X-39400500Y31307491D01*
X-39400500Y28692507D01*
X-39420185Y28625468D01*
X-39459403Y28586968D01*
X-39531156Y28542712D01*
X-39655212Y28418656D01*
X-39747314Y28269334D01*
X-39802499Y28102797D01*
X-39813000Y28000009D01*
X-39812999Y26999992D01*
X-39802499Y26897203D01*
X-39747314Y26730666D01*
X-39655212Y26581344D01*
X-39655210Y26581342D01*
X-39531155Y26457287D01*
X-39459402Y26413029D01*
X-39412678Y26361081D01*
X-39400500Y26307491D01*
X-39400500Y23692507D01*
X-39420185Y23625468D01*
X-39459403Y23586968D01*
X-39531156Y23542712D01*
X-39655212Y23418656D01*
X-39747314Y23269334D01*
X-39802499Y23102797D01*
X-39813000Y23000009D01*
X-39812999Y22494986D01*
X-39812999Y21999998D01*
X-39812998Y21999980D01*
X-39803883Y21910748D01*
X-39802499Y21897203D01*
X-39747314Y21730666D01*
X-39655212Y21581344D01*
X-39531156Y21457288D01*
X-39489807Y21431784D01*
X-39383054Y21365938D01*
X-39381834Y21365186D01*
X-39215297Y21310001D01*
X-39215295Y21310000D01*
X-39112510Y21299500D01*
X-39112509Y21299500D01*
X-38487498Y21299500D01*
X-38487480Y21299501D01*
X-38384703Y21310000D01*
X-38384700Y21310001D01*
X-38218168Y21365185D01*
X-38218163Y21365187D01*
X-38068842Y21457289D01*
X-37975181Y21550951D01*
X-37913858Y21584436D01*
X-37844166Y21579452D01*
X-37799819Y21550951D01*
X-37706156Y21457288D01*
X-37664807Y21431784D01*
X-37558054Y21365938D01*
X-37556834Y21365186D01*
X-37390297Y21310001D01*
X-37390295Y21310000D01*
X-37287510Y21299500D01*
X-37287509Y21299500D01*
X-36662498Y21299500D01*
X-36662480Y21299501D01*
X-36559703Y21310000D01*
X-36559700Y21310001D01*
X-36393168Y21365185D01*
X-36393163Y21365187D01*
X-36243842Y21457289D01*
X-36119789Y21581342D01*
X-36027687Y21730663D01*
X-36027685Y21730668D01*
X-35992047Y21838217D01*
X-35972501Y21897203D01*
X-35972501Y21897204D01*
X-35972500Y21897204D01*
X-35962000Y21999983D01*
X-35962000Y22612402D01*
X-35942315Y22679441D01*
X-35925681Y22700083D01*
X-35819481Y22806282D01*
X-35819479Y22806285D01*
X-35756633Y22915139D01*
X-35754127Y22919480D01*
X-35747871Y22930315D01*
X-35740423Y22943214D01*
X-35699500Y23095943D01*
X-35699500Y23627756D01*
X-35679815Y23694795D01*
X-35627011Y23740550D01*
X-35562247Y23751045D01*
X-35547873Y23749500D01*
X-35547864Y23749500D01*
X-34452129Y23749500D01*
X-34452123Y23749501D01*
X-34392516Y23755908D01*
X-34257671Y23806202D01*
X-34257664Y23806206D01*
X-34142455Y23892452D01*
X-34142452Y23892455D01*
X-34056206Y24007664D01*
X-34056202Y24007671D01*
X-34005908Y24142517D01*
X-33999501Y24202116D01*
X-33999500Y24202119D01*
X-33999500Y24202127D01*
X-33999500Y24989606D01*
X-33999500Y25797870D01*
X-33999501Y25797876D01*
X-34005908Y25857483D01*
X-34056202Y25992328D01*
X-34056206Y25992335D01*
X-34142452Y26107544D01*
X-34142455Y26107547D01*
X-34257664Y26193793D01*
X-34257669Y26193796D01*
X-34275641Y26200499D01*
X-34318833Y26216608D01*
X-34374766Y26258478D01*
X-34399184Y26323942D01*
X-34399500Y26332790D01*
X-34399500Y28667209D01*
X-34379815Y28734248D01*
X-34327011Y28780003D01*
X-34318833Y28783391D01*
X-34257671Y28806202D01*
X-34257664Y28806206D01*
X-34142455Y28892452D01*
X-34142452Y28892455D01*
X-34056206Y29007664D01*
X-34056202Y29007671D01*
X-34005908Y29142517D01*
X-33999501Y29202116D01*
X-33999500Y29202119D01*
X-33999500Y29202127D01*
X-33999500Y29976000D01*
X-33999500Y30797870D01*
X-33999501Y30797876D01*
X-34005908Y30857483D01*
X-34056202Y30992328D01*
X-34056206Y30992335D01*
X-34142452Y31107544D01*
X-34142455Y31107547D01*
X-34257664Y31193793D01*
X-34257669Y31193796D01*
X-34260471Y31194841D01*
X-34318833Y31216608D01*
X-34374766Y31258478D01*
X-34399184Y31323942D01*
X-34399500Y31332790D01*
X-34399500Y33667209D01*
X-34379815Y33734248D01*
X-34327011Y33780003D01*
X-34318833Y33783391D01*
X-34257671Y33806202D01*
X-34257664Y33806206D01*
X-34142455Y33892452D01*
X-34142452Y33892455D01*
X-34056206Y34007664D01*
X-34056202Y34007671D01*
X-34005908Y34142517D01*
X-33999501Y34202116D01*
X-33999500Y34202119D01*
X-33999500Y34202127D01*
X-33999500Y34408504D01*
X-33979815Y34475543D01*
X-33937501Y34515890D01*
X-33931290Y34519475D01*
X-33931281Y34519482D01*
X-32519481Y35931282D01*
X-32519475Y35931290D01*
X-32440426Y36068209D01*
X-32440423Y36068214D01*
X-32402450Y36209931D01*
X-32399499Y36220943D01*
X-32399499Y36379058D01*
X-32399499Y36389047D01*
X-32399500Y36389060D01*
X-32399500Y37863805D01*
X-32400679Y37868205D01*
X-32400682Y37868215D01*
X-32440423Y38016529D01*
X-32469358Y38066644D01*
X-32469359Y38066648D01*
X-32469360Y38066648D01*
X-32479913Y38084926D01*
X-32519480Y38153460D01*
X-32631284Y38265264D01*
X-32638349Y38272329D01*
X-32638355Y38272334D01*
X-32770711Y38404690D01*
X-32804196Y38466013D01*
X-32799212Y38535705D01*
X-32770711Y38580052D01*
X-31687581Y39663181D01*
X-31626258Y39696666D01*
X-31599900Y39699500D01*
X-30724500Y39699500D01*
X-30657461Y39679815D01*
X-30611706Y39627011D01*
X-30600500Y39575500D01*
X-30600500Y17724500D01*
X-30620185Y17657461D01*
X-30672989Y17611706D01*
X-30724500Y17600500D01*
X-31070647Y17600500D01*
X-31137686Y17620185D01*
X-31183441Y17672989D01*
X-31186058Y17679157D01*
X-31218432Y17761643D01*
X-31219639Y17763733D01*
X-31289595Y17884901D01*
X-31349614Y17988857D01*
X-31499201Y18176433D01*
X-31513198Y18193985D01*
X-31705520Y18372432D01*
X-31705521Y18372433D01*
X-31922296Y18520228D01*
X-31922302Y18520231D01*
X-31922303Y18520232D01*
X-32086250Y18599184D01*
X-32158673Y18634061D01*
X-32158674Y18634061D01*
X-32158677Y18634063D01*
X-32409385Y18711396D01*
X-32668818Y18750500D01*
X-32931182Y18750500D01*
X-33190615Y18711396D01*
X-33441323Y18634063D01*
X-33677704Y18520228D01*
X-33894479Y18372433D01*
X-34025892Y18250500D01*
X-34080336Y18199983D01*
X-34086805Y18193981D01*
X-34250386Y17988857D01*
X-34381568Y17761643D01*
X-34477420Y17517416D01*
X-34535802Y17261630D01*
X-34535802Y17261625D01*
X-34535803Y17261620D01*
X-34555408Y17000004D01*
X-34555408Y16999995D01*
X-34535803Y16738379D01*
X-34535802Y16738370D01*
X-34477420Y16482584D01*
X-34381568Y16238357D01*
X-34250386Y16011143D01*
X-34155595Y15892279D01*
X-34086801Y15806014D01*
X-33911884Y15643716D01*
X-33894479Y15627567D01*
X-33677704Y15479772D01*
X-33677700Y15479770D01*
X-33677697Y15479768D01*
X-33677696Y15479767D01*
X-33441325Y15365938D01*
X-33441327Y15365938D01*
X-33190623Y15288606D01*
X-33190619Y15288605D01*
X-33190615Y15288604D01*
X-33065823Y15269794D01*
X-32931187Y15249500D01*
X-32931182Y15249500D01*
X-32668812Y15249500D01*
X-32506248Y15274004D01*
X-32409385Y15288604D01*
X-32409381Y15288605D01*
X-32409376Y15288606D01*
X-32158673Y15365938D01*
X-31922303Y15479767D01*
X-31922302Y15479768D01*
X-31705520Y15627567D01*
X-31513198Y15806014D01*
X-31349614Y16011143D01*
X-31218435Y16238350D01*
X-31218432Y16238357D01*
X-31186073Y16320805D01*
X-31143260Y16376016D01*
X-31077390Y16399317D01*
X-31070647Y16399500D01*
X-30724500Y16399500D01*
X-30657461Y16379815D01*
X-30611706Y16327011D01*
X-30600500Y16275500D01*
X-30600500Y12015405D01*
X-30600501Y12015392D01*
X-30600501Y12005403D01*
X-30600501Y11847289D01*
X-30559577Y11694561D01*
X-30530639Y11644441D01*
X-30480520Y11557630D01*
X-30368716Y11445826D01*
X-30364385Y11441495D01*
X-30364374Y11441485D01*
X-29416819Y10493929D01*
X-29383334Y10432606D01*
X-29380500Y10406248D01*
X-29380500Y9029098D01*
X-29400185Y8962059D01*
X-29452989Y8916304D01*
X-29522147Y8906360D01*
X-29585703Y8935385D01*
X-29592181Y8941417D01*
X-39038583Y18387819D01*
X-39072068Y18449142D01*
X-39067084Y18518834D01*
X-39025212Y18574767D01*
X-38959748Y18599184D01*
X-38950902Y18599500D01*
X-38279353Y18599500D01*
X-38212314Y18579815D01*
X-38166559Y18527011D01*
X-38163941Y18520842D01*
X-38131568Y18438357D01*
X-38000386Y18211143D01*
X-37847540Y18019480D01*
X-37836801Y18006014D01*
X-37660521Y17842452D01*
X-37644479Y17827567D01*
X-37427704Y17679772D01*
X-37427700Y17679770D01*
X-37427697Y17679768D01*
X-37427696Y17679767D01*
X-37191325Y17565938D01*
X-37191327Y17565938D01*
X-36940623Y17488606D01*
X-36940619Y17488605D01*
X-36940615Y17488604D01*
X-36817440Y17470038D01*
X-36681187Y17449500D01*
X-36681182Y17449500D01*
X-36418812Y17449500D01*
X-36257247Y17473853D01*
X-36159385Y17488604D01*
X-36159381Y17488605D01*
X-36159376Y17488606D01*
X-35908673Y17565938D01*
X-35672303Y17679767D01*
X-35672302Y17679768D01*
X-35670251Y17681166D01*
X-35568032Y17750858D01*
X-35455520Y17827567D01*
X-35263198Y18006014D01*
X-35099614Y18211143D01*
X-34968432Y18438356D01*
X-34872582Y18682578D01*
X-34872576Y18682597D01*
X-34814197Y18938374D01*
X-34814196Y18938379D01*
X-34794592Y19199995D01*
X-34794592Y19200004D01*
X-34814196Y19461620D01*
X-34814197Y19461625D01*
X-34815957Y19469334D01*
X-34836308Y19558501D01*
X-34872576Y19717402D01*
X-34872582Y19717421D01*
X-34884534Y19747873D01*
X-34968432Y19961643D01*
X-35099614Y20188857D01*
X-35263195Y20393981D01*
X-35263198Y20393985D01*
X-35455520Y20572432D01*
X-35455521Y20572433D01*
X-35672296Y20720228D01*
X-35672302Y20720231D01*
X-35672303Y20720232D01*
X-35828982Y20795684D01*
X-35908673Y20834061D01*
X-35908674Y20834061D01*
X-35908677Y20834063D01*
X-36159385Y20911396D01*
X-36418818Y20950500D01*
X-36681182Y20950500D01*
X-36940615Y20911396D01*
X-37191323Y20834063D01*
X-37427704Y20720228D01*
X-37644479Y20572433D01*
X-37836805Y20393981D01*
X-38000386Y20188857D01*
X-38131568Y19961643D01*
X-38163926Y19879194D01*
X-38206740Y19823984D01*
X-38272610Y19800683D01*
X-38279353Y19800500D01*
X-39220943Y19800500D01*
X-39379058Y19800500D01*
X-39419981Y19789534D01*
X-39531784Y19759577D01*
X-39668716Y19680520D01*
X-39780520Y19568716D01*
X-39780520Y19568714D01*
X-39790724Y19558511D01*
X-39790727Y19558506D01*
X-40123735Y19225500D01*
X-40212416Y19136819D01*
X-40273739Y19103334D01*
X-40300097Y19100500D01*
X-40775500Y19100500D01*
X-40842539Y19120185D01*
X-40888294Y19172989D01*
X-40899500Y19224500D01*
X-40899500Y30913329D01*
X-40899499Y30913347D01*
X-40899499Y31079055D01*
X-40899499Y31079057D01*
X-40936905Y31218656D01*
X-40940423Y31231785D01*
X-40940426Y31231790D01*
X-41019475Y31368709D01*
X-41019481Y31368717D01*
X-41519480Y31868716D01*
X-43340139Y33689374D01*
X-43340149Y33689385D01*
X-43397671Y33746907D01*
X-43456284Y33805520D01*
X-43456286Y33805521D01*
X-43456290Y33805524D01*
X-43571560Y33872075D01*
X-43571563Y33872076D01*
X-43571565Y33872077D01*
X-43593215Y33884577D01*
X-43745943Y33925501D01*
X-43904057Y33925501D01*
X-43911653Y33925501D01*
X-43911669Y33925500D01*
X-44807492Y33925500D01*
X-44874531Y33945185D01*
X-44913031Y33984403D01*
X-44913701Y33985489D01*
X-44957288Y34056156D01*
X-45081344Y34180212D01*
X-45230666Y34272314D01*
X-45397203Y34327499D01*
X-45499991Y34338000D01*
X-46500008Y34337999D01*
X-46500016Y34337998D01*
X-46500019Y34337998D01*
X-46556302Y34332248D01*
X-46602797Y34327499D01*
X-46769334Y34272314D01*
X-46918656Y34180212D01*
X-46988702Y34110166D01*
X-47047819Y34051049D01*
X-47049705Y34052935D01*
X-47096625Y34019712D01*
X-47136868Y34013000D01*
X-49807492Y34013000D01*
X-49874531Y34032685D01*
X-49913031Y34071903D01*
X-49913070Y34071966D01*
X-49957288Y34143656D01*
X-50081344Y34267712D01*
X-50230666Y34359814D01*
X-50397203Y34414999D01*
X-50499991Y34425500D01*
X-51500008Y34425499D01*
X-51510576Y34424419D01*
X-51579268Y34437187D01*
X-51610861Y34460096D01*
X-51977639Y34826874D01*
X-51977649Y34826885D01*
X-52021592Y34870828D01*
X-52093784Y34943020D01*
X-52180595Y34993139D01*
X-52180597Y34993141D01*
X-52230712Y35022075D01*
X-52230715Y35022077D01*
X-52383443Y35063001D01*
X-52541557Y35063001D01*
X-52549153Y35063001D01*
X-52549169Y35063000D01*
X-54601652Y35063000D01*
X-54668691Y35082685D01*
X-54707191Y35121903D01*
X-54751285Y35193391D01*
X-54782288Y35243656D01*
X-54906344Y35367712D01*
X-55055666Y35459814D01*
X-55222203Y35514999D01*
X-55324991Y35525500D01*
X-56675008Y35525499D01*
X-56777797Y35514999D01*
X-56944334Y35459814D01*
X-57093656Y35367712D01*
X-57217712Y35243656D01*
X-57309814Y35094334D01*
X-57364999Y34927797D01*
X-57375500Y34825009D01*
X-57375499Y34460096D01*
X-57375499Y34194500D01*
X-57395183Y34127461D01*
X-57447987Y34081706D01*
X-57499499Y34070500D01*
X-59680903Y34070500D01*
X-59747942Y34090185D01*
X-59793697Y34142989D01*
X-59803641Y34212147D01*
X-59774616Y34275703D01*
X-59768584Y34282181D01*
X-51437584Y42613181D01*
X-51376261Y42646666D01*
X-51349903Y42649500D01*
X-42374499Y42649500D01*
X-42307460Y42629815D01*
G37*
%TD.AperFunction*%
%TA.AperFunction,Conductor*%
G36*
X-29232165Y28033763D02*
G01*
X-29220028Y28029236D01*
X-29164095Y27987364D01*
X-29143590Y27945153D01*
X-29109577Y27818215D01*
X-29098817Y27799579D01*
X-29098816Y27799575D01*
X-29098816Y27799576D01*
X-29030524Y27681290D01*
X-29030521Y27681286D01*
X-29030520Y27681284D01*
X-28968717Y27619481D01*
X-28914385Y27565149D01*
X-28914374Y27565139D01*
X-28136819Y26787584D01*
X-28103334Y26726261D01*
X-28100500Y26699903D01*
X-28100500Y11175443D01*
X-28120185Y11108404D01*
X-28172989Y11062649D01*
X-28242147Y11052705D01*
X-28305703Y11081730D01*
X-28312166Y11087748D01*
X-29363181Y12138762D01*
X-29396666Y12200085D01*
X-29399500Y12226443D01*
X-29399500Y16863329D01*
X-29399499Y16863347D01*
X-29399499Y17039046D01*
X-29399500Y17039059D01*
X-29399500Y27917582D01*
X-29379815Y27984621D01*
X-29327011Y28030376D01*
X-29257853Y28040320D01*
X-29232165Y28033763D01*
G37*
%TD.AperFunction*%
%TA.AperFunction,Conductor*%
G36*
X6030701Y18415788D02*
G01*
X6055037Y18387172D01*
X6101037Y18312594D01*
X6225092Y18188539D01*
X6374413Y18096437D01*
X6374418Y18096435D01*
X6458420Y18068599D01*
X6540953Y18041251D01*
X6540954Y18041250D01*
X6643733Y18030750D01*
X7618651Y18030750D01*
X7685690Y18011065D01*
X7706332Y17994431D01*
X8056931Y17643832D01*
X8090416Y17582509D01*
X8093250Y17556151D01*
X8093250Y16658379D01*
X8093251Y16658373D01*
X8099658Y16598770D01*
X8101442Y16591224D01*
X8099980Y16590878D01*
X8104334Y16529872D01*
X8099922Y16514850D01*
X8099658Y16513732D01*
X8093251Y16454133D01*
X8093250Y16454114D01*
X8093250Y15358379D01*
X8093251Y15358373D01*
X8099658Y15298766D01*
X8149952Y15163921D01*
X8149956Y15163914D01*
X8236202Y15048705D01*
X8236205Y15048702D01*
X8351414Y14962456D01*
X8351421Y14962452D01*
X8486267Y14912158D01*
X8486266Y14912158D01*
X8545866Y14905751D01*
X8545869Y14905750D01*
X8545877Y14905750D01*
X8545884Y14905750D01*
X8545885Y14905750D01*
X10141620Y14905750D01*
X10141626Y14905751D01*
X10201233Y14912158D01*
X10336078Y14962452D01*
X10336085Y14962456D01*
X10451294Y15048702D01*
X10451297Y15048705D01*
X10537543Y15163914D01*
X10537547Y15163921D01*
X10560359Y15225083D01*
X10602230Y15281017D01*
X10667694Y15305434D01*
X10676541Y15305750D01*
X12492310Y15305750D01*
X12559349Y15286065D01*
X12605104Y15233261D01*
X12608492Y15225083D01*
X12649952Y15113921D01*
X12649956Y15113914D01*
X12736202Y14998705D01*
X12736205Y14998702D01*
X12851414Y14912456D01*
X12851421Y14912452D01*
X12986267Y14862158D01*
X12986266Y14862158D01*
X13045866Y14855751D01*
X13045869Y14855750D01*
X13045877Y14855750D01*
X13045884Y14855750D01*
X13045885Y14855750D01*
X14641620Y14855750D01*
X14641626Y14855751D01*
X14701233Y14862158D01*
X14836078Y14912452D01*
X14836085Y14912456D01*
X14951294Y14998702D01*
X14951297Y14998705D01*
X15037543Y15113914D01*
X15037547Y15113921D01*
X15060359Y15175083D01*
X15102230Y15231017D01*
X15167694Y15255434D01*
X15176541Y15255750D01*
X17329609Y15255750D01*
X17396648Y15236065D01*
X17442403Y15183261D01*
X17445780Y15175109D01*
X17449953Y15163921D01*
X17449956Y15163914D01*
X17536202Y15048705D01*
X17536205Y15048702D01*
X17651414Y14962456D01*
X17651421Y14962452D01*
X17786267Y14912158D01*
X17786266Y14912158D01*
X17845866Y14905751D01*
X17845869Y14905750D01*
X17845877Y14905750D01*
X17845884Y14905750D01*
X17845885Y14905750D01*
X19441620Y14905750D01*
X19441626Y14905751D01*
X19501233Y14912158D01*
X19636078Y14962452D01*
X19636085Y14962456D01*
X19751294Y15048702D01*
X19751297Y15048705D01*
X19837543Y15163914D01*
X19837547Y15163921D01*
X19887841Y15298767D01*
X19890722Y15325561D01*
X19917460Y15390112D01*
X19952009Y15419692D01*
X19962462Y15425727D01*
X19962467Y15425731D01*
X20081338Y15544602D01*
X20081340Y15544605D01*
X21187819Y16651084D01*
X21249142Y16684569D01*
X21318834Y16679585D01*
X21374767Y16637713D01*
X21399184Y16572249D01*
X21399500Y16563403D01*
X21399500Y14724500D01*
X21379815Y14657461D01*
X21327011Y14611706D01*
X21275500Y14600500D01*
X5805106Y14600500D01*
X5738067Y14620185D01*
X5692312Y14672989D01*
X5682368Y14742147D01*
X5711393Y14805703D01*
X5740006Y14830037D01*
X5743656Y14832288D01*
X5867712Y14956344D01*
X5959814Y15105666D01*
X6014999Y15272203D01*
X6025500Y15374991D01*
X6025499Y16725008D01*
X6014999Y16827797D01*
X5959814Y16994334D01*
X5867712Y17143656D01*
X5743656Y17267712D01*
X5594334Y17359814D01*
X5500051Y17391056D01*
X5442608Y17430827D01*
X5415785Y17495343D01*
X5428100Y17564119D01*
X5473961Y17614300D01*
X5543655Y17657287D01*
X5667710Y17781342D01*
X5667712Y17781344D01*
X5759814Y17930666D01*
X5814999Y18097203D01*
X5825500Y18199991D01*
X5825499Y18322075D01*
X5845183Y18389113D01*
X5897987Y18434868D01*
X5967145Y18444812D01*
X6030701Y18415788D01*
G37*
%TD.AperFunction*%
%TA.AperFunction,Conductor*%
G36*
X18131955Y29195462D02*
G01*
X18176302Y29166961D01*
X18498678Y28844585D01*
X18532163Y28783262D01*
X18534468Y28745463D01*
X18515661Y28542500D01*
X18515661Y28542499D01*
X18534974Y28334070D01*
X18534974Y28334066D01*
X18534975Y28334066D01*
X18539267Y28318982D01*
X18592259Y28132730D01*
X18685562Y27945352D01*
X18685567Y27945344D01*
X18811714Y27778298D01*
X18966406Y27637279D01*
X19144383Y27527080D01*
X19144384Y27527079D01*
X19339570Y27451465D01*
X19339573Y27451464D01*
X19545336Y27413000D01*
X19545338Y27413000D01*
X19754662Y27413000D01*
X19754664Y27413000D01*
X19960427Y27451464D01*
X20130706Y27517430D01*
X20200330Y27523292D01*
X20262070Y27490582D01*
X20296325Y27429685D01*
X20299500Y27401803D01*
X20299500Y17512597D01*
X20279815Y17445558D01*
X20263181Y17424916D01*
X20105930Y17267665D01*
X20044607Y17234180D01*
X19974915Y17239164D01*
X19918982Y17281036D01*
X19894565Y17346500D01*
X19894249Y17355346D01*
X19894249Y17754120D01*
X19894249Y17754122D01*
X19887841Y17813733D01*
X19837546Y17948581D01*
X19751296Y18063796D01*
X19636081Y18150046D01*
X19501233Y18200341D01*
X19441623Y18206750D01*
X18543845Y18206749D01*
X18476807Y18226433D01*
X18456170Y18243063D01*
X17580568Y19118666D01*
X17547083Y19179989D01*
X17544249Y19206347D01*
X17544249Y19356251D01*
X17544248Y19356268D01*
X17533749Y19459046D01*
X17533748Y19459049D01*
X17532896Y19461620D01*
X17478564Y19625584D01*
X17386462Y19774906D01*
X17292799Y19868569D01*
X17259314Y19929892D01*
X17264298Y19999584D01*
X17292799Y20043931D01*
X17386460Y20137592D01*
X17386462Y20137594D01*
X17478564Y20286916D01*
X17533749Y20453453D01*
X17544250Y20556241D01*
X17544249Y21181258D01*
X17542757Y21195859D01*
X17533749Y21284046D01*
X17533748Y21284049D01*
X17532239Y21288604D01*
X17478564Y21450584D01*
X17386462Y21599906D01*
X17262406Y21723962D01*
X17113084Y21816064D01*
X16946547Y21871249D01*
X16843759Y21881750D01*
X15843742Y21881749D01*
X15843734Y21881748D01*
X15843730Y21881748D01*
X15750057Y21872179D01*
X15740953Y21871249D01*
X15574416Y21816064D01*
X15425094Y21723962D01*
X15301038Y21599906D01*
X15265161Y21541739D01*
X15256781Y21528153D01*
X15204833Y21481429D01*
X15151242Y21469250D01*
X13392848Y21469250D01*
X13325809Y21488935D01*
X13280054Y21541739D01*
X13270110Y21610897D01*
X13299135Y21674453D01*
X13305167Y21680931D01*
X13580518Y21956282D01*
X13580524Y21956290D01*
X13659573Y22093209D01*
X13659576Y22093214D01*
X13659695Y22093656D01*
X13700501Y22245943D01*
X13700501Y22404058D01*
X13700501Y22414047D01*
X13700500Y22414060D01*
X13700500Y24583329D01*
X13700501Y24583347D01*
X13700501Y24749055D01*
X13700501Y24749057D01*
X13659577Y24901784D01*
X13580520Y25038716D01*
X13256514Y25362720D01*
X13223032Y25424040D01*
X13223992Y25480838D01*
X13285107Y25722175D01*
X13285109Y25722187D01*
X13305643Y25969996D01*
X13305643Y25970005D01*
X13285109Y26217812D01*
X13285108Y26217815D01*
X13285108Y26217821D01*
X13224063Y26458881D01*
X13124173Y26686607D01*
X12988164Y26894785D01*
X12819744Y27077738D01*
X12623509Y27230474D01*
X12557039Y27266445D01*
X12507450Y27315665D01*
X12492342Y27383881D01*
X12516512Y27449437D01*
X12572288Y27491518D01*
X12616058Y27499500D01*
X15998075Y27499500D01*
X15998091Y27499499D01*
X16005687Y27499499D01*
X16163798Y27499499D01*
X16163801Y27499499D01*
X16316529Y27540423D01*
X16366857Y27569480D01*
X16366858Y27569480D01*
X16453453Y27619475D01*
X16453461Y27619481D01*
X16572332Y27738352D01*
X16572334Y27738355D01*
X18000940Y29166961D01*
X18062263Y29200446D01*
X18131955Y29195462D01*
G37*
%TD.AperFunction*%
%TA.AperFunction,Conductor*%
G36*
X-52695558Y33842315D02*
G01*
X-52674916Y33825681D01*
X-52236818Y33387583D01*
X-52203333Y33326260D01*
X-52200499Y33299902D01*
X-52200499Y33099998D01*
X-52200498Y33099981D01*
X-52199316Y33088411D01*
X-52189999Y32997203D01*
X-52134814Y32830666D01*
X-52042712Y32681344D01*
X-52042710Y32681342D01*
X-51949049Y32587681D01*
X-51915564Y32526358D01*
X-51920548Y32456666D01*
X-51949049Y32412319D01*
X-52042712Y32318656D01*
X-52056677Y32296013D01*
X-52108621Y32249291D01*
X-52177583Y32238067D01*
X-52241666Y32265908D01*
X-52278397Y32317778D01*
X-52306202Y32392328D01*
X-52306206Y32392335D01*
X-52392452Y32507544D01*
X-52392455Y32507547D01*
X-52507664Y32593793D01*
X-52507671Y32593797D01*
X-52642517Y32644091D01*
X-52642516Y32644091D01*
X-52648925Y32644779D01*
X-52702127Y32650500D01*
X-54297872Y32650499D01*
X-54357483Y32644091D01*
X-54492331Y32593796D01*
X-54607546Y32507546D01*
X-54677464Y32414147D01*
X-54733395Y32372277D01*
X-54803087Y32367293D01*
X-54864410Y32400778D01*
X-54906342Y32442710D01*
X-54906344Y32442712D01*
X-55055666Y32534814D01*
X-55222203Y32589999D01*
X-55324991Y32600500D01*
X-56675008Y32600499D01*
X-56777797Y32589999D01*
X-56944334Y32534814D01*
X-57093656Y32442712D01*
X-57217712Y32318656D01*
X-57309814Y32169334D01*
X-57364999Y32002797D01*
X-57375500Y31900009D01*
X-57375499Y31530500D01*
X-57375499Y31174998D01*
X-57375498Y31174980D01*
X-57368609Y31107546D01*
X-57364999Y31072203D01*
X-57309814Y30905666D01*
X-57217712Y30756344D01*
X-57093656Y30632288D01*
X-57031025Y30593657D01*
X-56944341Y30540190D01*
X-56944334Y30540186D01*
X-56777797Y30485001D01*
X-56777795Y30485000D01*
X-56675010Y30474500D01*
X-56675009Y30474500D01*
X-55324998Y30474500D01*
X-55324981Y30474501D01*
X-55222203Y30485000D01*
X-55222200Y30485001D01*
X-55055668Y30540185D01*
X-55055659Y30540190D01*
X-54913062Y30628143D01*
X-54845669Y30646583D01*
X-54779006Y30625660D01*
X-54760285Y30610285D01*
X-54750000Y30600000D01*
X-52250000Y30600000D01*
X-52250000Y30764270D01*
X-52230315Y30831309D01*
X-52177511Y30877064D01*
X-52108353Y30887008D01*
X-52044797Y30857983D01*
X-52038319Y30851951D01*
X-51918656Y30732288D01*
X-51895024Y30717712D01*
X-51774962Y30643657D01*
X-51769334Y30640186D01*
X-51602797Y30585001D01*
X-51602795Y30585000D01*
X-51500010Y30574500D01*
X-51500009Y30574500D01*
X-50499998Y30574500D01*
X-50499980Y30574501D01*
X-50397203Y30585000D01*
X-50397200Y30585001D01*
X-50230668Y30640185D01*
X-50230663Y30640187D01*
X-50081342Y30732289D01*
X-49961681Y30851951D01*
X-49900358Y30885436D01*
X-49830666Y30880452D01*
X-49774733Y30838580D01*
X-49750316Y30773116D01*
X-49750000Y30764270D01*
X-49750000Y30600000D01*
X-47250000Y30600000D01*
X-47250000Y30676770D01*
X-47230315Y30743809D01*
X-47177511Y30789564D01*
X-47108353Y30799508D01*
X-47044797Y30770483D01*
X-47038319Y30764451D01*
X-46918656Y30644788D01*
X-46848092Y30601264D01*
X-46783271Y30561282D01*
X-46769334Y30552686D01*
X-46602797Y30497501D01*
X-46602795Y30497500D01*
X-46500010Y30487000D01*
X-46500009Y30487000D01*
X-45499998Y30487000D01*
X-45499980Y30487001D01*
X-45397203Y30497500D01*
X-45397200Y30497501D01*
X-45230668Y30552685D01*
X-45230663Y30552687D01*
X-45081342Y30644789D01*
X-44962180Y30763952D01*
X-44900857Y30797437D01*
X-44831165Y30792453D01*
X-44775232Y30750581D01*
X-44750815Y30685117D01*
X-44750499Y30676271D01*
X-44750499Y30602128D01*
X-44746376Y30563770D01*
X-44744091Y30542516D01*
X-44742307Y30534966D01*
X-44743561Y30534669D01*
X-44739144Y30472930D01*
X-44743130Y30459353D01*
X-44743598Y30457375D01*
X-44749999Y30397844D01*
X-44750000Y30397827D01*
X-44750000Y30100000D01*
X-43374000Y30100000D01*
X-43306961Y30080315D01*
X-43261206Y30027511D01*
X-43250000Y29976000D01*
X-43250000Y28850000D01*
X-42702155Y28850000D01*
X-42642627Y28856401D01*
X-42642620Y28856403D01*
X-42507913Y28906645D01*
X-42507906Y28906649D01*
X-42392812Y28992809D01*
X-42323766Y29085042D01*
X-42267832Y29126912D01*
X-42198140Y29131896D01*
X-42136817Y29098410D01*
X-42103333Y29037086D01*
X-42100500Y29010730D01*
X-42100500Y22313769D01*
X-42120185Y22246730D01*
X-42172989Y22200975D01*
X-42242147Y22191031D01*
X-42267833Y22197587D01*
X-42392517Y22244091D01*
X-42392516Y22244091D01*
X-42398925Y22244779D01*
X-42452127Y22250500D01*
X-43547872Y22250499D01*
X-43607483Y22244091D01*
X-43607485Y22244090D01*
X-43607487Y22244090D01*
X-43615031Y22242308D01*
X-43615377Y22243775D01*
X-43676342Y22239408D01*
X-43691378Y22243822D01*
X-43692513Y22244089D01*
X-43692517Y22244091D01*
X-43752127Y22250500D01*
X-44847872Y22250499D01*
X-44907483Y22244091D01*
X-45042331Y22193796D01*
X-45157546Y22107546D01*
X-45243796Y21992331D01*
X-45250279Y21974948D01*
X-45286075Y21878975D01*
X-45327946Y21823041D01*
X-45393410Y21798624D01*
X-45461683Y21813475D01*
X-45511089Y21862880D01*
X-45519963Y21883304D01*
X-45524568Y21897200D01*
X-45540186Y21944334D01*
X-45547556Y21956282D01*
X-45581694Y22011630D01*
X-45632288Y22093656D01*
X-45756344Y22217712D01*
X-45905666Y22309814D01*
X-46072203Y22364999D01*
X-46174991Y22375500D01*
X-46900008Y22375499D01*
X-46929450Y22372491D01*
X-46998142Y22385260D01*
X-47049027Y22433140D01*
X-47065948Y22500929D01*
X-47043533Y22567106D01*
X-47029733Y22583530D01*
X-45800083Y23813181D01*
X-45738760Y23846666D01*
X-45712402Y23849500D01*
X-45170808Y23849500D01*
X-45103769Y23829815D01*
X-45083126Y23813180D01*
X-45051870Y23781923D01*
X-45051862Y23781917D01*
X-44997049Y23749501D01*
X-44914191Y23700499D01*
X-44910396Y23698255D01*
X-44910393Y23698254D01*
X-44752573Y23652402D01*
X-44752567Y23652401D01*
X-44715701Y23649500D01*
X-44715694Y23649500D01*
X-43409298Y23649500D01*
X-43372432Y23652401D01*
X-43372426Y23652402D01*
X-43214606Y23698254D01*
X-43214603Y23698255D01*
X-43073137Y23781917D01*
X-43073129Y23781923D01*
X-42956923Y23898129D01*
X-42956917Y23898137D01*
X-42873255Y24039603D01*
X-42873254Y24039606D01*
X-42827402Y24197426D01*
X-42827401Y24197432D01*
X-42824500Y24234298D01*
X-42824500Y24665701D01*
X-42827401Y24702567D01*
X-42827402Y24702573D01*
X-42873254Y24860393D01*
X-42873255Y24860396D01*
X-42874359Y24862262D01*
X-42927764Y24952567D01*
X-42956917Y25001862D01*
X-42956923Y25001870D01*
X-43073129Y25118076D01*
X-43073133Y25118079D01*
X-43073135Y25118081D01*
X-43214602Y25201744D01*
X-43256224Y25213836D01*
X-43372426Y25247597D01*
X-43372429Y25247597D01*
X-43372431Y25247598D01*
X-43409306Y25250500D01*
X-43409314Y25250500D01*
X-44575500Y25250500D01*
X-44642539Y25270185D01*
X-44688294Y25322989D01*
X-44699500Y25374500D01*
X-44699500Y25426000D01*
X-44679815Y25493039D01*
X-44627011Y25538794D01*
X-44575500Y25550000D01*
X-44312500Y25550000D01*
X-44312500Y26100000D01*
X-43812500Y26100000D01*
X-43812500Y25550000D01*
X-43409350Y25550000D01*
X-43372510Y25552899D01*
X-43372504Y25552900D01*
X-43214806Y25598716D01*
X-43214803Y25598717D01*
X-43073447Y25682314D01*
X-43073438Y25682321D01*
X-42957321Y25798438D01*
X-42957314Y25798447D01*
X-42873718Y25939801D01*
X-42827899Y26097513D01*
X-42827704Y26099998D01*
X-42827705Y26100000D01*
X-43812500Y26100000D01*
X-44312500Y26100000D01*
X-44968185Y26100000D01*
X-45031306Y26117268D01*
X-45032637Y26118055D01*
X-45089602Y26151744D01*
X-45159323Y26172000D01*
X-45247426Y26197597D01*
X-45247429Y26197597D01*
X-45247431Y26197598D01*
X-45284306Y26200500D01*
X-45284314Y26200500D01*
X-45837403Y26200500D01*
X-45904442Y26220185D01*
X-45925084Y26236819D01*
X-46288265Y26600000D01*
X-45297295Y26600000D01*
X-44312500Y26600000D01*
X-44312500Y27150000D01*
X-43812500Y27150000D01*
X-43812500Y26600000D01*
X-42827705Y26600000D01*
X-42827704Y26600001D01*
X-42827899Y26602486D01*
X-42873718Y26760198D01*
X-42957314Y26901552D01*
X-42957321Y26901561D01*
X-43073438Y27017678D01*
X-43073447Y27017685D01*
X-43214803Y27101282D01*
X-43214806Y27101283D01*
X-43372504Y27147099D01*
X-43372510Y27147100D01*
X-43409350Y27149999D01*
X-43409366Y27150000D01*
X-43812500Y27150000D01*
X-44312500Y27150000D01*
X-44715634Y27150000D01*
X-44715649Y27149999D01*
X-44752489Y27147100D01*
X-44752495Y27147099D01*
X-44910193Y27101283D01*
X-44910196Y27101282D01*
X-45051552Y27017685D01*
X-45051561Y27017678D01*
X-45167678Y26901561D01*
X-45167685Y26901552D01*
X-45251281Y26760198D01*
X-45297100Y26602486D01*
X-45297295Y26600001D01*
X-45297295Y26600000D01*
X-46288265Y26600000D01*
X-47302639Y27614374D01*
X-47302649Y27614385D01*
X-47352028Y27663764D01*
X-47418784Y27730520D01*
X-47418786Y27730521D01*
X-47418790Y27730524D01*
X-47538394Y27799577D01*
X-47538396Y27799577D01*
X-47555715Y27809577D01*
X-47708443Y27850501D01*
X-47866557Y27850501D01*
X-47874153Y27850501D01*
X-47874169Y27850500D01*
X-49143884Y27850500D01*
X-49210923Y27870185D01*
X-49256678Y27922989D01*
X-49257440Y27924689D01*
X-49275827Y27966608D01*
X-49411833Y28174782D01*
X-49484811Y28254057D01*
X-49580256Y28357738D01*
X-49776491Y28510474D01*
X-49905932Y28580524D01*
X-49995188Y28628827D01*
X-49995190Y28628828D01*
X-50230386Y28709571D01*
X-50475665Y28750500D01*
X-50724335Y28750500D01*
X-50969614Y28709571D01*
X-51204810Y28628828D01*
X-51423509Y28510474D01*
X-51619744Y28357738D01*
X-51788164Y28174785D01*
X-51924173Y27966607D01*
X-52024063Y27738881D01*
X-52085108Y27497821D01*
X-52085108Y27497815D01*
X-52085109Y27497812D01*
X-52105643Y27250005D01*
X-52105643Y27249994D01*
X-52085109Y27002187D01*
X-52085107Y27002175D01*
X-52024063Y26761118D01*
X-51924173Y26533393D01*
X-51788166Y26325217D01*
X-51788164Y26325215D01*
X-51619744Y26142262D01*
X-51536991Y26077852D01*
X-51496179Y26021143D01*
X-51492504Y25951370D01*
X-51527136Y25890687D01*
X-51536985Y25882151D01*
X-51619744Y25817738D01*
X-51788164Y25634785D01*
X-51924173Y25426607D01*
X-52024063Y25198881D01*
X-52085108Y24957821D01*
X-52085108Y24957815D01*
X-52085109Y24957812D01*
X-52105643Y24710005D01*
X-52105643Y24709994D01*
X-52085109Y24462187D01*
X-52085107Y24462175D01*
X-52024063Y24221118D01*
X-51924173Y23993393D01*
X-51788166Y23785217D01*
X-51788164Y23785215D01*
X-51619744Y23602262D01*
X-51424760Y23450500D01*
X-51423506Y23449524D01*
X-51265482Y23364006D01*
X-51215892Y23314786D01*
X-51200500Y23254951D01*
X-51200500Y22774499D01*
X-51220185Y22707460D01*
X-51272989Y22661705D01*
X-51324495Y22650499D01*
X-52797872Y22650499D01*
X-52857483Y22644091D01*
X-52992331Y22593796D01*
X-53107546Y22507546D01*
X-53193796Y22392331D01*
X-53244091Y22257483D01*
X-53250500Y22197873D01*
X-53250500Y22197864D01*
X-53250500Y22024500D01*
X-53270185Y21957461D01*
X-53322989Y21911706D01*
X-53374500Y21900500D01*
X-54625501Y21900500D01*
X-54692540Y21920185D01*
X-54738295Y21972989D01*
X-54749501Y22024500D01*
X-54749501Y22197876D01*
X-54755908Y22257483D01*
X-54806202Y22392328D01*
X-54806206Y22392335D01*
X-54892452Y22507544D01*
X-54892455Y22507547D01*
X-55007664Y22593793D01*
X-55007671Y22593797D01*
X-55142517Y22644091D01*
X-55142516Y22644091D01*
X-55148925Y22644779D01*
X-55202127Y22650500D01*
X-56797872Y22650499D01*
X-56857483Y22644091D01*
X-56992331Y22593796D01*
X-57107546Y22507546D01*
X-57193796Y22392331D01*
X-57244091Y22257483D01*
X-57250500Y22197873D01*
X-57250500Y22197864D01*
X-57250500Y22024500D01*
X-57270185Y21957461D01*
X-57322989Y21911706D01*
X-57374500Y21900500D01*
X-58625501Y21900500D01*
X-58692540Y21920185D01*
X-58738295Y21972989D01*
X-58749501Y22024500D01*
X-58749501Y22197876D01*
X-58755908Y22257483D01*
X-58806202Y22392328D01*
X-58806206Y22392335D01*
X-58892452Y22507544D01*
X-58892455Y22507547D01*
X-59007664Y22593793D01*
X-59007671Y22593797D01*
X-59142517Y22644091D01*
X-59142516Y22644091D01*
X-59148925Y22644779D01*
X-59202127Y22650500D01*
X-60099901Y22650499D01*
X-60166940Y22670183D01*
X-60187582Y22686818D01*
X-60363181Y22862416D01*
X-60396666Y22923739D01*
X-60399500Y22950097D01*
X-60399500Y25042500D01*
X-59284339Y25042500D01*
X-59265025Y24834066D01*
X-59207740Y24632729D01*
X-59191193Y24599499D01*
X-59114437Y24445352D01*
X-59114432Y24445344D01*
X-58988285Y24278298D01*
X-58878925Y24178604D01*
X-58833592Y24137278D01*
X-58655618Y24027081D01*
X-58655616Y24027080D01*
X-58655615Y24027079D01*
X-58501779Y23967484D01*
X-58460427Y23951464D01*
X-58254664Y23913000D01*
X-58254662Y23913000D01*
X-58045338Y23913000D01*
X-58045336Y23913000D01*
X-57839573Y23951464D01*
X-57837890Y23952116D01*
X-57644384Y24027079D01*
X-57644383Y24027080D01*
X-57466406Y24137279D01*
X-57311714Y24278298D01*
X-57185567Y24445344D01*
X-57185562Y24445352D01*
X-57092259Y24632730D01*
X-57034974Y24834070D01*
X-57015661Y25042499D01*
X-57015661Y25042500D01*
X-57034974Y25250929D01*
X-57035242Y25251870D01*
X-57063336Y25350615D01*
X-57092259Y25452269D01*
X-57185562Y25639647D01*
X-57185567Y25639655D01*
X-57311714Y25806701D01*
X-57462098Y25943793D01*
X-57466408Y25947722D01*
X-57644382Y26057919D01*
X-57644383Y26057919D01*
X-57644384Y26057920D01*
X-57685734Y26073939D01*
X-57839573Y26133536D01*
X-58045336Y26172000D01*
X-58254664Y26172000D01*
X-58460427Y26133536D01*
X-58655618Y26057919D01*
X-58833592Y25947722D01*
X-58939484Y25851189D01*
X-58984229Y25810398D01*
X-58988287Y25806699D01*
X-59114434Y25639653D01*
X-59207740Y25452271D01*
X-59265025Y25250934D01*
X-59284339Y25042500D01*
X-60399500Y25042500D01*
X-60399500Y28259373D01*
X-59279500Y28259373D01*
X-59279499Y26905628D01*
X-59278593Y26897204D01*
X-59273091Y26846016D01*
X-59222797Y26711171D01*
X-59222793Y26711164D01*
X-59136547Y26595955D01*
X-59136544Y26595952D01*
X-59021335Y26509706D01*
X-59021328Y26509702D01*
X-58886482Y26459408D01*
X-58886483Y26459408D01*
X-58826883Y26453001D01*
X-58826881Y26453000D01*
X-58826873Y26453000D01*
X-58826864Y26453000D01*
X-57473129Y26453000D01*
X-57473123Y26453001D01*
X-57413516Y26459408D01*
X-57278671Y26509702D01*
X-57278664Y26509706D01*
X-57163455Y26595952D01*
X-57163452Y26595955D01*
X-57077206Y26711164D01*
X-57077202Y26711171D01*
X-57026908Y26846017D01*
X-57020501Y26905616D01*
X-57020500Y26905619D01*
X-57020500Y26905627D01*
X-57020500Y27569480D01*
X-57020500Y28259370D01*
X-57020501Y28259376D01*
X-57026908Y28318983D01*
X-57077202Y28453828D01*
X-57077206Y28453835D01*
X-57163452Y28569044D01*
X-57163455Y28569047D01*
X-57278664Y28655293D01*
X-57278671Y28655297D01*
X-57413517Y28705591D01*
X-57413516Y28705591D01*
X-57419925Y28706279D01*
X-57473127Y28712000D01*
X-58826872Y28711999D01*
X-58886483Y28705591D01*
X-59021331Y28655296D01*
X-59136546Y28569046D01*
X-59222796Y28453831D01*
X-59273091Y28318983D01*
X-59279500Y28259373D01*
X-60399500Y28259373D01*
X-60399500Y30100000D01*
X-54750000Y30100000D01*
X-54750000Y29802172D01*
X-54749999Y29802155D01*
X-54743598Y29742627D01*
X-54743596Y29742620D01*
X-54693354Y29607913D01*
X-54693350Y29607906D01*
X-54607190Y29492812D01*
X-54607187Y29492809D01*
X-54492093Y29406649D01*
X-54492086Y29406645D01*
X-54357379Y29356403D01*
X-54357372Y29356401D01*
X-54297844Y29350000D01*
X-53750000Y29350000D01*
X-53750000Y30100000D01*
X-53250000Y30100000D01*
X-53250000Y29350000D01*
X-52702155Y29350000D01*
X-52642627Y29356401D01*
X-52642620Y29356403D01*
X-52507913Y29406645D01*
X-52507906Y29406649D01*
X-52392812Y29492809D01*
X-52392809Y29492812D01*
X-52306649Y29607906D01*
X-52306645Y29607913D01*
X-52256403Y29742620D01*
X-52256401Y29742627D01*
X-52250000Y29802155D01*
X-52250000Y30100000D01*
X-49750000Y30100000D01*
X-49750000Y29802172D01*
X-49749999Y29802155D01*
X-49743598Y29742627D01*
X-49743596Y29742620D01*
X-49693354Y29607913D01*
X-49693350Y29607906D01*
X-49607190Y29492812D01*
X-49607187Y29492809D01*
X-49492093Y29406649D01*
X-49492086Y29406645D01*
X-49357379Y29356403D01*
X-49357372Y29356401D01*
X-49297844Y29350000D01*
X-48750000Y29350000D01*
X-48750000Y30100000D01*
X-48250000Y30100000D01*
X-48250000Y29350000D01*
X-47702155Y29350000D01*
X-47642627Y29356401D01*
X-47642620Y29356403D01*
X-47507913Y29406645D01*
X-47507906Y29406649D01*
X-47392812Y29492809D01*
X-47392809Y29492812D01*
X-47312567Y29600000D01*
X-44750000Y29600000D01*
X-44750000Y29302172D01*
X-44749999Y29302155D01*
X-44743598Y29242627D01*
X-44743596Y29242620D01*
X-44693354Y29107913D01*
X-44693350Y29107906D01*
X-44607190Y28992812D01*
X-44607187Y28992809D01*
X-44492093Y28906649D01*
X-44492086Y28906645D01*
X-44357379Y28856403D01*
X-44357372Y28856401D01*
X-44297844Y28850000D01*
X-43750000Y28850000D01*
X-43750000Y29600000D01*
X-44750000Y29600000D01*
X-47312567Y29600000D01*
X-47306649Y29607906D01*
X-47306645Y29607913D01*
X-47256403Y29742620D01*
X-47256401Y29742627D01*
X-47250000Y29802155D01*
X-47250000Y30100000D01*
X-48250000Y30100000D01*
X-48750000Y30100000D01*
X-49750000Y30100000D01*
X-52250000Y30100000D01*
X-53250000Y30100000D01*
X-53750000Y30100000D01*
X-54750000Y30100000D01*
X-60399500Y30100000D01*
X-60399500Y30205500D01*
X-60379815Y30272539D01*
X-60327011Y30318294D01*
X-60275500Y30329500D01*
X-59620943Y30329500D01*
X-59468216Y30370423D01*
X-59468209Y30370426D01*
X-59331290Y30449475D01*
X-59331282Y30449481D01*
X-59219481Y30561282D01*
X-59219475Y30561290D01*
X-59140426Y30698209D01*
X-59140423Y30698216D01*
X-59099500Y30850943D01*
X-59099500Y31009056D01*
X-59118256Y31079057D01*
X-59140423Y31161784D01*
X-59140426Y31161790D01*
X-59219475Y31298709D01*
X-59219481Y31298717D01*
X-59331282Y31410518D01*
X-59331284Y31410520D01*
X-59331286Y31410521D01*
X-59331290Y31410524D01*
X-59468209Y31489573D01*
X-59468216Y31489577D01*
X-59620943Y31530500D01*
X-59620945Y31530500D01*
X-60275500Y31530500D01*
X-60342539Y31550185D01*
X-60388294Y31602989D01*
X-60399500Y31654500D01*
X-60399500Y33021372D01*
X-60379815Y33088411D01*
X-60327011Y33134166D01*
X-60257853Y33144110D01*
X-60194297Y33115085D01*
X-60186493Y33106804D01*
X-60186267Y33107031D01*
X-60068717Y32989481D01*
X-60068709Y32989475D01*
X-59931790Y32910426D01*
X-59931786Y32910424D01*
X-59931784Y32910423D01*
X-59779057Y32869500D01*
X-57079169Y32869500D01*
X-57079153Y32869499D01*
X-57071557Y32869499D01*
X-56913446Y32869499D01*
X-56913443Y32869499D01*
X-56760715Y32910423D01*
X-56760711Y32910424D01*
X-56681283Y32956283D01*
X-56681282Y32956283D01*
X-56623790Y32989475D01*
X-56623782Y32989481D01*
X-56511978Y33101286D01*
X-56250082Y33363181D01*
X-56188759Y33396666D01*
X-56162401Y33399500D01*
X-55324998Y33399500D01*
X-55324980Y33399501D01*
X-55222203Y33410000D01*
X-55222200Y33410001D01*
X-55055668Y33465185D01*
X-55055663Y33465187D01*
X-54906342Y33557289D01*
X-54782289Y33681342D01*
X-54741849Y33746907D01*
X-54707190Y33803097D01*
X-54655243Y33849821D01*
X-54601652Y33862000D01*
X-52762597Y33862000D01*
X-52695558Y33842315D01*
G37*
%TD.AperFunction*%
%TA.AperFunction,Conductor*%
G36*
X1393834Y41392084D02*
G01*
X1449767Y41350212D01*
X1474184Y41284748D01*
X1474500Y41275906D01*
X1474500Y41250000D01*
X1474501Y41249980D01*
X1485000Y41147203D01*
X1485001Y41147200D01*
X1540185Y40980668D01*
X1540187Y40980663D01*
X1632289Y40831342D01*
X1756342Y40707289D01*
X1905663Y40615187D01*
X1905668Y40615185D01*
X1925930Y40608471D01*
X2072203Y40560001D01*
X2072204Y40560000D01*
X2174983Y40549500D01*
X2787401Y40549500D01*
X2854440Y40529815D01*
X2875082Y40513181D01*
X3777044Y39611220D01*
X3810529Y39549897D01*
X3805545Y39480206D01*
X3763673Y39424272D01*
X3723959Y39404463D01*
X3714605Y39401745D01*
X3714602Y39401744D01*
X3573135Y39318081D01*
X3573133Y39318079D01*
X3573129Y39318076D01*
X3456923Y39201870D01*
X3456917Y39201862D01*
X3434386Y39163764D01*
X3396677Y39100000D01*
X3373255Y39060396D01*
X3373254Y39060393D01*
X3327402Y38902573D01*
X3327401Y38902567D01*
X3324500Y38865701D01*
X3324500Y38434298D01*
X3327401Y38397432D01*
X3327402Y38397426D01*
X3373254Y38239606D01*
X3373255Y38239603D01*
X3456917Y38098137D01*
X3456923Y38098129D01*
X3573129Y37981923D01*
X3573137Y37981917D01*
X3714603Y37898255D01*
X3714606Y37898254D01*
X3872426Y37852402D01*
X3872432Y37852401D01*
X3909298Y37849500D01*
X3909306Y37849500D01*
X5075500Y37849500D01*
X5142539Y37829815D01*
X5188294Y37777011D01*
X5199500Y37725500D01*
X5199500Y37674000D01*
X5179815Y37606961D01*
X5127011Y37561206D01*
X5075500Y37550000D01*
X4812500Y37550000D01*
X4812500Y37000000D01*
X5468185Y37000000D01*
X5531306Y36982732D01*
X5589602Y36948256D01*
X5589606Y36948254D01*
X5747426Y36902402D01*
X5747432Y36902401D01*
X5784298Y36899500D01*
X5784306Y36899500D01*
X6337403Y36899500D01*
X6404442Y36879815D01*
X6425083Y36863181D01*
X7089817Y36198447D01*
X7746978Y35541286D01*
X7858782Y35429481D01*
X7858785Y35429479D01*
X7902189Y35404420D01*
X7945595Y35379360D01*
X7945596Y35379359D01*
X7995709Y35350425D01*
X7995712Y35350424D01*
X7995714Y35350423D01*
X7995715Y35350423D01*
X8148442Y35309500D01*
X8148443Y35309500D01*
X10243884Y35309500D01*
X10310923Y35289815D01*
X10356678Y35237011D01*
X10357440Y35235311D01*
X10375827Y35193391D01*
X10511833Y34985217D01*
X10559459Y34933483D01*
X10590381Y34870828D01*
X10582521Y34801402D01*
X10538374Y34747247D01*
X10471956Y34725556D01*
X10468229Y34725500D01*
X3016557Y34725500D01*
X2858442Y34725500D01*
X2817519Y34714534D01*
X2705716Y34684577D01*
X2705709Y34684573D01*
X2568790Y34605524D01*
X2568786Y34605521D01*
X2568784Y34605520D01*
X2496709Y34533445D01*
X2452649Y34489385D01*
X2452639Y34489374D01*
X1750083Y33786818D01*
X1688760Y33753333D01*
X1662411Y33750499D01*
X1049992Y33750499D01*
X1049984Y33750498D01*
X1049980Y33750498D01*
X947203Y33739999D01*
X780666Y33684814D01*
X631344Y33592712D01*
X631342Y33592710D01*
X537681Y33499049D01*
X476358Y33465564D01*
X406666Y33470548D01*
X362319Y33499049D01*
X318656Y33542712D01*
X268656Y33592712D01*
X119334Y33684814D01*
X-47203Y33739999D01*
X-149991Y33750500D01*
X-725500Y33750499D01*
X-792539Y33770183D01*
X-838294Y33822987D01*
X-849500Y33874499D01*
X-849500Y34017209D01*
X-829815Y34084248D01*
X-777011Y34130003D01*
X-768833Y34133391D01*
X-707671Y34156202D01*
X-707664Y34156206D01*
X-592455Y34242452D01*
X-592452Y34242455D01*
X-506206Y34357664D01*
X-506202Y34357672D01*
X-455908Y34492517D01*
X-449501Y34552116D01*
X-449500Y34552119D01*
X-449500Y34552127D01*
X-449500Y35233570D01*
X-429815Y35300609D01*
X-377011Y35346364D01*
X-307853Y35356308D01*
X-293409Y35353345D01*
X-279061Y35349500D01*
X-279057Y35349500D01*
X-120943Y35349500D01*
X31786Y35390423D01*
X100250Y35429952D01*
X168716Y35469481D01*
X280519Y35581284D01*
X355270Y35710755D01*
X359576Y35718213D01*
X359577Y35718215D01*
X400500Y35870943D01*
X400500Y36029057D01*
X359577Y36181785D01*
X280519Y36318716D01*
X99237Y36499998D01*
X3327704Y36499998D01*
X3327899Y36497513D01*
X3373718Y36339801D01*
X3457314Y36198447D01*
X3457321Y36198438D01*
X3573438Y36082321D01*
X3573447Y36082314D01*
X3714803Y35998717D01*
X3714806Y35998716D01*
X3872504Y35952900D01*
X3872510Y35952899D01*
X3909350Y35950000D01*
X4312500Y35950000D01*
X4312500Y36500000D01*
X4812500Y36500000D01*
X4812500Y35950000D01*
X5215649Y35950000D01*
X5252489Y35952899D01*
X5252495Y35952900D01*
X5410193Y35998716D01*
X5410196Y35998717D01*
X5551552Y36082314D01*
X5551561Y36082321D01*
X5667678Y36198438D01*
X5667685Y36198447D01*
X5751281Y36339801D01*
X5797100Y36497513D01*
X5797295Y36499998D01*
X5797295Y36500000D01*
X4812500Y36500000D01*
X4312500Y36500000D01*
X3327705Y36500000D01*
X3327704Y36499998D01*
X99237Y36499998D01*
X-165139Y36764374D01*
X-165149Y36764385D01*
X-218185Y36817421D01*
X-281284Y36880520D01*
X-281286Y36880521D01*
X-281290Y36880524D01*
X-398601Y36948253D01*
X-398604Y36948254D01*
X-398607Y36948256D01*
X-418215Y36959577D01*
X-569077Y37000001D01*
X3327704Y37000001D01*
X3327705Y37000000D01*
X4312500Y37000000D01*
X4312500Y37550000D01*
X3909366Y37550000D01*
X3909350Y37549999D01*
X3872510Y37547100D01*
X3872504Y37547099D01*
X3714806Y37501283D01*
X3714803Y37501282D01*
X3573447Y37417685D01*
X3573438Y37417678D01*
X3457321Y37301561D01*
X3457314Y37301552D01*
X3373718Y37160198D01*
X3327899Y37002486D01*
X3327704Y37000001D01*
X-569077Y37000001D01*
X-570943Y37000501D01*
X-729057Y37000501D01*
X-736653Y37000501D01*
X-736669Y37000500D01*
X-2570943Y37000500D01*
X-2729058Y37000500D01*
X-2766643Y36990429D01*
X-2881784Y36959577D01*
X-3018716Y36880520D01*
X-3118716Y36780520D01*
X-3230520Y36668716D01*
X-3236554Y36658264D01*
X-3287120Y36610047D01*
X-3330690Y36596971D01*
X-3357483Y36594091D01*
X-3492331Y36543796D01*
X-3607546Y36457546D01*
X-3693796Y36342331D01*
X-3744091Y36207483D01*
X-3750500Y36147873D01*
X-3750499Y34552128D01*
X-3745539Y34505986D01*
X-3744091Y34492516D01*
X-3693798Y34357672D01*
X-3693793Y34357664D01*
X-3607547Y34242455D01*
X-3607544Y34242452D01*
X-3492335Y34156206D01*
X-3492332Y34156205D01*
X-3492331Y34156204D01*
X-3481161Y34152038D01*
X-3425231Y34110166D01*
X-3400816Y34044701D01*
X-3400500Y34035858D01*
X-3400500Y31282790D01*
X-3420185Y31215751D01*
X-3472989Y31169996D01*
X-3481146Y31166616D01*
X-3542331Y31143796D01*
X-3657546Y31057546D01*
X-3743796Y30942331D01*
X-3794091Y30807483D01*
X-3800500Y30747873D01*
X-3800499Y29152128D01*
X-3798324Y29131896D01*
X-3794091Y29092516D01*
X-3743797Y28957671D01*
X-3743793Y28957664D01*
X-3657547Y28842455D01*
X-3657544Y28842452D01*
X-3542334Y28756205D01*
X-3534551Y28751956D01*
X-3535355Y28750483D01*
X-3487725Y28714820D01*
X-3463315Y28649353D01*
X-3463000Y28640520D01*
X-3463000Y26082790D01*
X-3482685Y26015751D01*
X-3535489Y25969996D01*
X-3543646Y25966616D01*
X-3604831Y25943796D01*
X-3720046Y25857546D01*
X-3806296Y25742331D01*
X-3856591Y25607483D01*
X-3863000Y25547873D01*
X-3863000Y25547864D01*
X-3863000Y25461214D01*
X-3882685Y25394175D01*
X-3935489Y25348420D01*
X-3954899Y25341441D01*
X-4073817Y25309577D01*
X-4123936Y25280639D01*
X-4210748Y25230520D01*
X-4322552Y25118716D01*
X-4322552Y25118714D01*
X-4332760Y25108507D01*
X-4332762Y25108504D01*
X-7408506Y22032760D01*
X-7408511Y22032756D01*
X-7418715Y22022552D01*
X-7418716Y22022552D01*
X-7424448Y22016820D01*
X-7437819Y22003449D01*
X-7499142Y21969964D01*
X-7568834Y21974948D01*
X-7624767Y22016820D01*
X-7649184Y22082284D01*
X-7649500Y22091130D01*
X-7649500Y33999903D01*
X-7629815Y34066942D01*
X-7613181Y34087584D01*
X-937584Y40763181D01*
X-876261Y40796666D01*
X-849903Y40799500D01*
X363331Y40799500D01*
X363347Y40799499D01*
X370943Y40799499D01*
X529054Y40799499D01*
X529057Y40799499D01*
X681785Y40840423D01*
X752558Y40881284D01*
X818716Y40919480D01*
X930520Y41031284D01*
X930521Y41031285D01*
X1262819Y41363583D01*
X1324142Y41397068D01*
X1393834Y41392084D01*
G37*
%TD.AperFunction*%
%TA.AperFunction,Conductor*%
G36*
X11050981Y27479815D02*
G01*
X11096736Y27427011D01*
X11106680Y27357853D01*
X11077655Y27294297D01*
X11042960Y27266445D01*
X10976491Y27230474D01*
X10780256Y27077738D01*
X10708686Y26999992D01*
X10611833Y26894782D01*
X10475826Y26686606D01*
X10375936Y26458881D01*
X10314892Y26217824D01*
X10314890Y26217812D01*
X10294357Y25970005D01*
X10294357Y25969996D01*
X10314890Y25722187D01*
X10314892Y25722175D01*
X10375936Y25481118D01*
X10475826Y25253393D01*
X10611833Y25045217D01*
X10743873Y24901784D01*
X10780256Y24862262D01*
X10863008Y24797852D01*
X10903821Y24741143D01*
X10907496Y24671370D01*
X10872864Y24610687D01*
X10863014Y24602151D01*
X10780256Y24537738D01*
X10666870Y24414568D01*
X10611833Y24354782D01*
X10475827Y24146608D01*
X10457440Y24104689D01*
X10412483Y24051204D01*
X10345747Y24030514D01*
X10343884Y24030500D01*
X9307597Y24030500D01*
X9240558Y24050185D01*
X9219920Y24066814D01*
X8994441Y24292292D01*
X8960959Y24353611D01*
X8963048Y24414562D01*
X8972598Y24447431D01*
X8975500Y24484306D01*
X8975500Y24915694D01*
X8972598Y24952569D01*
X8926744Y25110398D01*
X8843081Y25251865D01*
X8726865Y25368081D01*
X8585398Y25451744D01*
X8443261Y25493039D01*
X8427573Y25497597D01*
X8427571Y25497597D01*
X8427569Y25497598D01*
X8390694Y25500500D01*
X8390686Y25500500D01*
X7224500Y25500500D01*
X7157461Y25520185D01*
X7111706Y25572989D01*
X7100500Y25624500D01*
X7100500Y25865686D01*
X7100500Y25865694D01*
X7097598Y25902569D01*
X7051744Y26060398D01*
X6968081Y26201865D01*
X6851865Y26318081D01*
X6710398Y26401744D01*
X6594191Y26435505D01*
X6552573Y26447597D01*
X6552571Y26447597D01*
X6552569Y26447598D01*
X6515694Y26450500D01*
X6515686Y26450500D01*
X6099097Y26450500D01*
X6032058Y26470185D01*
X5986303Y26522989D01*
X5976359Y26592147D01*
X6005384Y26655703D01*
X6011416Y26662181D01*
X6812416Y27463181D01*
X6873739Y27496666D01*
X6900097Y27499500D01*
X10983942Y27499500D01*
X11050981Y27479815D01*
G37*
%TD.AperFunction*%
%TA.AperFunction,Conductor*%
G36*
X9505702Y44594615D02*
G01*
X9512180Y44588583D01*
X9613181Y44487582D01*
X9646666Y44426259D01*
X9649500Y44399901D01*
X9649500Y41170943D01*
X9690423Y41018216D01*
X9690426Y41018209D01*
X9769475Y40881290D01*
X9769480Y40881284D01*
X9881282Y40769481D01*
X9881290Y40769475D01*
X10018209Y40690426D01*
X10018216Y40690423D01*
X10170943Y40649500D01*
X13599903Y40649500D01*
X13666942Y40629815D01*
X13687584Y40613181D01*
X20263181Y34037584D01*
X20296666Y33976261D01*
X20299500Y33949903D01*
X20299500Y32335999D01*
X20279815Y32268960D01*
X20227011Y32223205D01*
X20175500Y32211999D01*
X18973128Y32211999D01*
X18924757Y32206799D01*
X18913516Y32205591D01*
X18778671Y32155297D01*
X18778664Y32155293D01*
X18663455Y32069047D01*
X18663452Y32069044D01*
X18577206Y31953835D01*
X18577202Y31953828D01*
X18526908Y31818982D01*
X18520501Y31759383D01*
X18520500Y31759364D01*
X18520500Y31487842D01*
X18500815Y31420803D01*
X18448011Y31375048D01*
X18378853Y31365104D01*
X18315297Y31394129D01*
X18308819Y31400161D01*
X18274166Y31434814D01*
X18243716Y31465264D01*
X18243714Y31465264D01*
X18233511Y31475468D01*
X18233506Y31475472D01*
X17560744Y32148233D01*
X17527261Y32209554D01*
X17532245Y32279246D01*
X17574117Y32335179D01*
X17609421Y32353616D01*
X17644334Y32365186D01*
X17655831Y32372277D01*
X17770024Y32442712D01*
X17793656Y32457288D01*
X17917712Y32581344D01*
X18009814Y32730666D01*
X18064999Y32897203D01*
X18075500Y32999991D01*
X18075499Y33725008D01*
X18064999Y33827797D01*
X18009814Y33994334D01*
X17917712Y34143656D01*
X17793656Y34267712D01*
X17644334Y34359814D01*
X17477797Y34414999D01*
X17375009Y34425500D01*
X16024992Y34425499D01*
X16024983Y34425498D01*
X16024981Y34425498D01*
X15968252Y34419703D01*
X15922203Y34414999D01*
X15755666Y34359814D01*
X15606344Y34267712D01*
X15482288Y34143656D01*
X15455356Y34099992D01*
X15390182Y33994328D01*
X15387131Y33987784D01*
X15385012Y33988771D01*
X15351628Y33940552D01*
X15287113Y33913728D01*
X15273693Y33913000D01*
X13449097Y33913000D01*
X13382058Y33932685D01*
X13336303Y33985489D01*
X13326359Y34054647D01*
X13355384Y34118203D01*
X13361416Y34124681D01*
X13364374Y34127639D01*
X13364385Y34127649D01*
X13416948Y34180212D01*
X13480520Y34243784D01*
X13546271Y34357669D01*
X13559577Y34380715D01*
X13600500Y34533443D01*
X13600500Y34691557D01*
X13600500Y37063329D01*
X13600501Y37063347D01*
X13600501Y37229055D01*
X13600501Y37229057D01*
X13559577Y37381784D01*
X13480520Y37518716D01*
X13156514Y37842720D01*
X13123032Y37904040D01*
X13123992Y37960838D01*
X13185107Y38202175D01*
X13185109Y38202187D01*
X13205643Y38449994D01*
X13205643Y38450005D01*
X13185109Y38697812D01*
X13185108Y38697815D01*
X13185108Y38697821D01*
X13124063Y38938881D01*
X13024173Y39166607D01*
X12888164Y39374785D01*
X12719744Y39557738D01*
X12523509Y39710474D01*
X12304810Y39828828D01*
X12069614Y39909571D01*
X11824335Y39950500D01*
X11575665Y39950500D01*
X11330386Y39909571D01*
X11095190Y39828828D01*
X10876491Y39710474D01*
X10680256Y39557738D01*
X10560995Y39428186D01*
X10511833Y39374782D01*
X10375826Y39166606D01*
X10275936Y38938881D01*
X10214892Y38697824D01*
X10214890Y38697812D01*
X10194357Y38450005D01*
X10194357Y38449994D01*
X10214890Y38202187D01*
X10214892Y38202175D01*
X10275936Y37961118D01*
X10375826Y37733393D01*
X10511833Y37525217D01*
X10643873Y37381784D01*
X10678523Y37344144D01*
X10680257Y37342261D01*
X10693545Y37331919D01*
X10763008Y37277852D01*
X10803821Y37221143D01*
X10807496Y37151370D01*
X10772864Y37090687D01*
X10763014Y37082151D01*
X10680256Y37017738D01*
X10553942Y36880524D01*
X10511833Y36834782D01*
X10375827Y36626608D01*
X10357440Y36584689D01*
X10312483Y36531204D01*
X10245747Y36510514D01*
X10243884Y36510500D01*
X8527597Y36510500D01*
X8460558Y36530185D01*
X8439916Y36546819D01*
X8258638Y36728097D01*
X7694442Y37292291D01*
X7660959Y37353612D01*
X7663048Y37414562D01*
X7672598Y37447431D01*
X7675500Y37484306D01*
X7675500Y37915694D01*
X7672598Y37952569D01*
X7671880Y37955039D01*
X7658587Y38000794D01*
X7626744Y38110398D01*
X7543081Y38251865D01*
X7426865Y38368081D01*
X7285398Y38451744D01*
X7128929Y38497203D01*
X7127573Y38497597D01*
X7127571Y38497597D01*
X7127569Y38497598D01*
X7090694Y38500500D01*
X7090686Y38500500D01*
X5924500Y38500500D01*
X5857461Y38520185D01*
X5811706Y38572989D01*
X5800500Y38624500D01*
X5800500Y38865686D01*
X5800500Y38865694D01*
X5797598Y38902569D01*
X5751744Y39060398D01*
X5668081Y39201865D01*
X5551865Y39318081D01*
X5410398Y39401744D01*
X5319333Y39428201D01*
X5252405Y39447646D01*
X5193519Y39485252D01*
X5164313Y39548725D01*
X5163000Y39566722D01*
X5163000Y39754055D01*
X5163000Y39754057D01*
X5142965Y39828828D01*
X5122077Y39906785D01*
X5088903Y39964244D01*
X5088903Y39964245D01*
X5043024Y40043709D01*
X5043020Y40043716D01*
X4931216Y40155520D01*
X4931214Y40155520D01*
X4921011Y40165724D01*
X4921006Y40165728D01*
X4718926Y40367807D01*
X4685443Y40429128D01*
X4690427Y40498820D01*
X4732299Y40554753D01*
X4767605Y40573192D01*
X4894331Y40615185D01*
X4894334Y40615186D01*
X4938540Y40642452D01*
X5020822Y40693204D01*
X5043656Y40707288D01*
X5167712Y40831344D01*
X5259814Y40980666D01*
X5287595Y41064504D01*
X5327368Y41121949D01*
X5391884Y41148772D01*
X5405301Y41149500D01*
X5875501Y41149500D01*
X5942540Y41129815D01*
X5988295Y41077011D01*
X5999501Y41025500D01*
X5999501Y40952123D01*
X6005908Y40892516D01*
X6056202Y40757671D01*
X6056206Y40757664D01*
X6142452Y40642455D01*
X6142455Y40642452D01*
X6257664Y40556206D01*
X6257671Y40556202D01*
X6392517Y40505908D01*
X6392516Y40505908D01*
X6452116Y40499501D01*
X6452119Y40499500D01*
X6452127Y40499500D01*
X6452134Y40499500D01*
X6452135Y40499500D01*
X7547870Y40499500D01*
X7547876Y40499501D01*
X7607479Y40505908D01*
X7615026Y40507692D01*
X7615371Y40506229D01*
X7676371Y40510585D01*
X7691396Y40506173D01*
X7692517Y40505908D01*
X7752116Y40499501D01*
X7752119Y40499500D01*
X7752127Y40499500D01*
X7752134Y40499500D01*
X7752135Y40499500D01*
X8847870Y40499500D01*
X8847876Y40499501D01*
X8907483Y40505908D01*
X9042328Y40556202D01*
X9042335Y40556206D01*
X9157544Y40642452D01*
X9157547Y40642455D01*
X9243793Y40757664D01*
X9243797Y40757671D01*
X9294091Y40892517D01*
X9296020Y40910459D01*
X9300500Y40952127D01*
X9300499Y42547872D01*
X9294091Y42607483D01*
X9243796Y42742331D01*
X9157546Y42857546D01*
X9042331Y42943796D01*
X8981166Y42966608D01*
X8925234Y43008478D01*
X8900816Y43073942D01*
X8900500Y43082790D01*
X8900500Y43467209D01*
X8920185Y43534248D01*
X8972989Y43580003D01*
X8981167Y43583391D01*
X9042328Y43606202D01*
X9042335Y43606206D01*
X9157544Y43692452D01*
X9157547Y43692455D01*
X9243793Y43807664D01*
X9243797Y43807671D01*
X9294091Y43942517D01*
X9295129Y43952172D01*
X9300500Y44002127D01*
X9300499Y44500903D01*
X9320183Y44567941D01*
X9372987Y44613696D01*
X9442146Y44623640D01*
X9505702Y44594615D01*
G37*
%TD.AperFunction*%
%TA.AperFunction,Conductor*%
G36*
X-22163844Y54579815D02*
G01*
X-22118089Y54527011D01*
X-22108145Y54457853D01*
X-22111651Y54444116D01*
X-22111307Y54444035D01*
X-22113090Y54436487D01*
X-22113091Y54436483D01*
X-22119500Y54376873D01*
X-22119499Y53023128D01*
X-22114935Y52980668D01*
X-22113091Y52963516D01*
X-22062797Y52828671D01*
X-22062793Y52828664D01*
X-21976547Y52713455D01*
X-21976544Y52713452D01*
X-21861335Y52627206D01*
X-21861328Y52627202D01*
X-21726482Y52576908D01*
X-21726483Y52576908D01*
X-21666883Y52570501D01*
X-21666881Y52570500D01*
X-21666873Y52570500D01*
X-21666864Y52570500D01*
X-20313129Y52570500D01*
X-20313123Y52570501D01*
X-20253516Y52576908D01*
X-20118671Y52627202D01*
X-20118664Y52627206D01*
X-20003455Y52713452D01*
X-20003452Y52713455D01*
X-19917206Y52828664D01*
X-19917202Y52828671D01*
X-19866908Y52963517D01*
X-19860501Y53023116D01*
X-19860500Y53023119D01*
X-19860500Y53023127D01*
X-19860500Y53699999D01*
X-19860500Y54376870D01*
X-19860501Y54376876D01*
X-19866909Y54436487D01*
X-19868692Y54444031D01*
X-19866189Y54444622D01*
X-19870283Y54501860D01*
X-19836797Y54563182D01*
X-19775474Y54596667D01*
X-19749117Y54599500D01*
X-19435138Y54599500D01*
X-19368099Y54579815D01*
X-19322344Y54527011D01*
X-19312400Y54457853D01*
X-19336184Y54400773D01*
X-19414434Y54297153D01*
X-19507740Y54109771D01*
X-19565025Y53908434D01*
X-19584339Y53700000D01*
X-19565025Y53491566D01*
X-19507740Y53290229D01*
X-19468876Y53212180D01*
X-19414437Y53102852D01*
X-19414432Y53102844D01*
X-19288285Y52935798D01*
X-19133594Y52794779D01*
X-19109220Y52779687D01*
X-19062586Y52727658D01*
X-19050500Y52674261D01*
X-19050500Y51754059D01*
X-19050501Y51754046D01*
X-19050501Y51744057D01*
X-19050501Y51585943D01*
X-19009577Y51433215D01*
X-18980639Y51383095D01*
X-18930520Y51296284D01*
X-18834319Y51200083D01*
X-18814385Y51180149D01*
X-18814374Y51180139D01*
X-16711819Y49077584D01*
X-16678334Y49016261D01*
X-16675500Y48989903D01*
X-16675500Y48898347D01*
X-16695185Y48831308D01*
X-16734401Y48792810D01*
X-16856156Y48717712D01*
X-16980212Y48593656D01*
X-17072314Y48444334D01*
X-17127499Y48277797D01*
X-17138000Y48175009D01*
X-17137999Y46824992D01*
X-17127499Y46722203D01*
X-17072314Y46555666D01*
X-16980212Y46406344D01*
X-16856156Y46282288D01*
X-16734402Y46207190D01*
X-16687679Y46155243D01*
X-16675500Y46101652D01*
X-16675500Y43950217D01*
X-16695185Y43883178D01*
X-16734405Y43844678D01*
X-16794415Y43807664D01*
X-16818656Y43792712D01*
X-16905024Y43706344D01*
X-16912319Y43699049D01*
X-16973642Y43665564D01*
X-17043334Y43670548D01*
X-17087681Y43699049D01*
X-17181342Y43792710D01*
X-17181344Y43792712D01*
X-17330666Y43884814D01*
X-17497203Y43939999D01*
X-17599991Y43950500D01*
X-18225008Y43950499D01*
X-18225016Y43950498D01*
X-18225019Y43950498D01*
X-18281302Y43944748D01*
X-18327797Y43939999D01*
X-18494334Y43884814D01*
X-18643656Y43792712D01*
X-18767712Y43668656D01*
X-18838634Y43553671D01*
X-18890580Y43506948D01*
X-18959543Y43495725D01*
X-19023625Y43523568D01*
X-19031853Y43531088D01*
X-20063181Y44562416D01*
X-20096666Y44623739D01*
X-20099500Y44650097D01*
X-20099500Y45547870D01*
X-20099501Y45547876D01*
X-20105908Y45607483D01*
X-20156202Y45742328D01*
X-20156206Y45742335D01*
X-20242452Y45857544D01*
X-20242455Y45857547D01*
X-20357664Y45943793D01*
X-20357671Y45943797D01*
X-20492517Y45994091D01*
X-20492516Y45994091D01*
X-20498925Y45994779D01*
X-20552127Y46000500D01*
X-21647872Y46000499D01*
X-21707483Y45994091D01*
X-21707489Y45994088D01*
X-21715025Y45992308D01*
X-21715321Y45993561D01*
X-21777063Y45989142D01*
X-21790655Y45993132D01*
X-21792627Y45993598D01*
X-21852155Y45999999D01*
X-21852172Y46000000D01*
X-22150000Y46000000D01*
X-22150000Y43500000D01*
X-21852155Y43500000D01*
X-21792624Y43506401D01*
X-21785073Y43508186D01*
X-21784684Y43506542D01*
X-21724348Y43510853D01*
X-21707614Y43505939D01*
X-21707483Y43505908D01*
X-21647883Y43499501D01*
X-21647881Y43499500D01*
X-21647873Y43499500D01*
X-20750097Y43499500D01*
X-20683058Y43479815D01*
X-20662416Y43463181D01*
X-19587590Y42388355D01*
X-19587588Y42388352D01*
X-19580520Y42381284D01*
X-19468716Y42269480D01*
X-19401233Y42230519D01*
X-19331785Y42190423D01*
X-19179057Y42149500D01*
X-19020943Y42149500D01*
X-19005301Y42149500D01*
X-18938262Y42129815D01*
X-18892507Y42077011D01*
X-18887596Y42064507D01*
X-18859814Y41980666D01*
X-18767712Y41831344D01*
X-18643656Y41707288D01*
X-18494334Y41615186D01*
X-18327797Y41560001D01*
X-18327795Y41560000D01*
X-18225010Y41549500D01*
X-18225009Y41549500D01*
X-17599998Y41549500D01*
X-17599980Y41549501D01*
X-17497203Y41560000D01*
X-17497200Y41560001D01*
X-17330668Y41615185D01*
X-17330663Y41615187D01*
X-17181342Y41707289D01*
X-17087681Y41800951D01*
X-17026358Y41834436D01*
X-16956666Y41829452D01*
X-16912319Y41800951D01*
X-16818655Y41707287D01*
X-16746902Y41663029D01*
X-16700178Y41611081D01*
X-16688000Y41557491D01*
X-16688000Y40192507D01*
X-16707685Y40125468D01*
X-16746903Y40086968D01*
X-16818656Y40042712D01*
X-16879078Y39982290D01*
X-16912319Y39949049D01*
X-16973642Y39915564D01*
X-17043334Y39920548D01*
X-17087681Y39949049D01*
X-17181342Y40042710D01*
X-17181344Y40042712D01*
X-17330666Y40134814D01*
X-17497203Y40189999D01*
X-17599991Y40200500D01*
X-18212402Y40200499D01*
X-18279441Y40220183D01*
X-18300083Y40236818D01*
X-18427639Y40364374D01*
X-18427649Y40364385D01*
X-18484209Y40420945D01*
X-18543784Y40480520D01*
X-18654229Y40544285D01*
X-18654230Y40544286D01*
X-18669485Y40553093D01*
X-18680715Y40559577D01*
X-18833443Y40600501D01*
X-18991557Y40600501D01*
X-18999153Y40600501D01*
X-18999169Y40600500D01*
X-19975501Y40600500D01*
X-20042540Y40620185D01*
X-20088295Y40672989D01*
X-20099501Y40724500D01*
X-20099501Y40797876D01*
X-20105908Y40857483D01*
X-20156202Y40992328D01*
X-20156206Y40992335D01*
X-20242452Y41107544D01*
X-20242455Y41107547D01*
X-20357664Y41193793D01*
X-20357671Y41193797D01*
X-20492517Y41244091D01*
X-20492516Y41244091D01*
X-20498925Y41244779D01*
X-20552127Y41250500D01*
X-21647872Y41250499D01*
X-21707483Y41244091D01*
X-21707489Y41244088D01*
X-21715025Y41242308D01*
X-21715321Y41243561D01*
X-21777063Y41239142D01*
X-21790655Y41243132D01*
X-21792627Y41243598D01*
X-21852155Y41249999D01*
X-21852172Y41250000D01*
X-22150000Y41250000D01*
X-22150000Y38750000D01*
X-21852155Y38750000D01*
X-21792624Y38756401D01*
X-21785073Y38758186D01*
X-21784684Y38756542D01*
X-21724348Y38760853D01*
X-21707614Y38755939D01*
X-21707483Y38755908D01*
X-21647883Y38749501D01*
X-21647881Y38749500D01*
X-21647873Y38749500D01*
X-21647864Y38749500D01*
X-20552129Y38749500D01*
X-20552123Y38749501D01*
X-20492516Y38755908D01*
X-20357671Y38806202D01*
X-20357664Y38806206D01*
X-20242455Y38892452D01*
X-20242452Y38892455D01*
X-20156206Y39007664D01*
X-20156202Y39007671D01*
X-20105908Y39142517D01*
X-20099501Y39202116D01*
X-20099500Y39202135D01*
X-20099500Y39275500D01*
X-20079815Y39342539D01*
X-20027011Y39388294D01*
X-19975500Y39399500D01*
X-19212597Y39399500D01*
X-19145558Y39379815D01*
X-19124916Y39363181D01*
X-18961818Y39200083D01*
X-18928333Y39138760D01*
X-18925499Y39112402D01*
X-18925499Y38499998D01*
X-18925498Y38499981D01*
X-18925254Y38497597D01*
X-18914999Y38397203D01*
X-18859814Y38230666D01*
X-18767712Y38081344D01*
X-18643656Y37957288D01*
X-18494334Y37865186D01*
X-18438758Y37846770D01*
X-18381316Y37806998D01*
X-18354493Y37742482D01*
X-18366808Y37673706D01*
X-18390081Y37641386D01*
X-18649678Y37381790D01*
X-18918071Y37113397D01*
X-18979394Y37079912D01*
X-19049086Y37084896D01*
X-19105019Y37126768D01*
X-19113139Y37139078D01*
X-19133744Y37174767D01*
X-19199614Y37288857D01*
X-19363195Y37493981D01*
X-19363198Y37493985D01*
X-19555520Y37672432D01*
X-19556337Y37672989D01*
X-19772296Y37820228D01*
X-19772302Y37820231D01*
X-19772303Y37820232D01*
X-19915229Y37889061D01*
X-20008673Y37934061D01*
X-20008674Y37934061D01*
X-20008677Y37934063D01*
X-20259385Y38011396D01*
X-20518818Y38050500D01*
X-20781182Y38050500D01*
X-21040615Y38011396D01*
X-21291323Y37934063D01*
X-21460894Y37852402D01*
X-21507796Y37829815D01*
X-21527704Y37820228D01*
X-21744479Y37672433D01*
X-21864353Y37561206D01*
X-21928936Y37501282D01*
X-21936805Y37493981D01*
X-22100386Y37288857D01*
X-22231568Y37061643D01*
X-22327420Y36817416D01*
X-22385802Y36561630D01*
X-22385802Y36561625D01*
X-22385803Y36561620D01*
X-22405408Y36300004D01*
X-22405408Y36299995D01*
X-22386831Y36052103D01*
X-22385802Y36038370D01*
X-22327420Y35782584D01*
X-22231568Y35538357D01*
X-22100386Y35311143D01*
X-21949472Y35121903D01*
X-21936801Y35106014D01*
X-21750855Y34933483D01*
X-21744479Y34927567D01*
X-21527704Y34779772D01*
X-21527701Y34779771D01*
X-21527699Y34779769D01*
X-21320698Y34680083D01*
X-21268839Y34633261D01*
X-21250500Y34568363D01*
X-21250500Y34230105D01*
X-21270185Y34163066D01*
X-21322989Y34117311D01*
X-21392147Y34107367D01*
X-21455703Y34136392D01*
X-21480038Y34165008D01*
X-21482288Y34168656D01*
X-21606344Y34292712D01*
X-21755666Y34384814D01*
X-21922203Y34439999D01*
X-22024991Y34450500D01*
X-22650008Y34450499D01*
X-22650016Y34450498D01*
X-22650019Y34450498D01*
X-22706302Y34444748D01*
X-22752797Y34439999D01*
X-22870394Y34401030D01*
X-22940219Y34398629D01*
X-22997077Y34431056D01*
X-24216959Y35650938D01*
X-24250444Y35712261D01*
X-24245460Y35781953D01*
X-24216960Y35826300D01*
X-24132318Y35910942D01*
X-24132314Y35910947D01*
X-24048717Y36052303D01*
X-24048716Y36052306D01*
X-24002900Y36210004D01*
X-24002899Y36210010D01*
X-24000000Y36246850D01*
X-24000000Y36650000D01*
X-24926000Y36650000D01*
X-24993039Y36669685D01*
X-25038794Y36722489D01*
X-25050000Y36774000D01*
X-25050000Y37805684D01*
X-25032733Y37868804D01*
X-24998254Y37927105D01*
X-24998254Y37927106D01*
X-24952402Y38084926D01*
X-24952401Y38084932D01*
X-24949500Y38121798D01*
X-24949500Y38134795D01*
X-24550000Y38134795D01*
X-24550000Y37150000D01*
X-24000000Y37150000D01*
X-24000000Y37553149D01*
X-24002899Y37589989D01*
X-24002900Y37589995D01*
X-24048716Y37747693D01*
X-24048717Y37747696D01*
X-24132314Y37889052D01*
X-24132321Y37889061D01*
X-24248438Y38005178D01*
X-24248447Y38005185D01*
X-24389801Y38088781D01*
X-24547514Y38134600D01*
X-24547511Y38134600D01*
X-24549998Y38134795D01*
X-24550000Y38134795D01*
X-24949500Y38134795D01*
X-24949500Y38693023D01*
X-24932888Y38755022D01*
X-24870423Y38863215D01*
X-24870423Y38863216D01*
X-24829500Y39015943D01*
X-24829500Y39750000D01*
X-23400000Y39750000D01*
X-23400000Y39202172D01*
X-23399999Y39202155D01*
X-23393598Y39142627D01*
X-23393596Y39142620D01*
X-23343354Y39007913D01*
X-23343350Y39007906D01*
X-23257190Y38892812D01*
X-23257187Y38892809D01*
X-23142093Y38806649D01*
X-23142086Y38806645D01*
X-23007379Y38756403D01*
X-23007372Y38756401D01*
X-22947844Y38750000D01*
X-22650000Y38750000D01*
X-22650000Y39750000D01*
X-23400000Y39750000D01*
X-24829500Y39750000D01*
X-24829500Y40250000D01*
X-23400000Y40250000D01*
X-22650000Y40250000D01*
X-22650000Y41250000D01*
X-22947828Y41250000D01*
X-22947844Y41249999D01*
X-23007372Y41243598D01*
X-23007379Y41243596D01*
X-23142086Y41193354D01*
X-23142093Y41193350D01*
X-23257187Y41107190D01*
X-23257190Y41107187D01*
X-23343350Y40992093D01*
X-23343354Y40992086D01*
X-23393596Y40857379D01*
X-23393598Y40857372D01*
X-23399999Y40797844D01*
X-23400000Y40797827D01*
X-23400000Y40250000D01*
X-24829500Y40250000D01*
X-24829500Y42244951D01*
X-24809815Y42311990D01*
X-24764518Y42354006D01*
X-24606493Y42439524D01*
X-24410257Y42592261D01*
X-24402381Y42600816D01*
X-24366746Y42639526D01*
X-24241833Y42775217D01*
X-24105826Y42983393D01*
X-24005936Y43211118D01*
X-23944892Y43452175D01*
X-23944890Y43452187D01*
X-23924357Y43699994D01*
X-23924357Y43700005D01*
X-23944890Y43947812D01*
X-23944892Y43947824D01*
X-24005936Y44188881D01*
X-24105826Y44416606D01*
X-24160310Y44500000D01*
X-23400000Y44500000D01*
X-23400000Y43952172D01*
X-23399999Y43952155D01*
X-23393598Y43892627D01*
X-23393596Y43892620D01*
X-23343354Y43757913D01*
X-23343350Y43757906D01*
X-23257190Y43642812D01*
X-23257187Y43642809D01*
X-23142093Y43556649D01*
X-23142086Y43556645D01*
X-23007379Y43506403D01*
X-23007372Y43506401D01*
X-22947844Y43500000D01*
X-22650000Y43500000D01*
X-22650000Y44500000D01*
X-23400000Y44500000D01*
X-24160310Y44500000D01*
X-24241833Y44624782D01*
X-24350045Y44742331D01*
X-24410256Y44807738D01*
X-24606491Y44960474D01*
X-24679529Y45000000D01*
X-23400000Y45000000D01*
X-22650000Y45000000D01*
X-22650000Y46000000D01*
X-22947828Y46000000D01*
X-22947844Y45999999D01*
X-23007372Y45993598D01*
X-23007379Y45993596D01*
X-23142086Y45943354D01*
X-23142093Y45943350D01*
X-23257187Y45857190D01*
X-23257190Y45857187D01*
X-23343350Y45742093D01*
X-23343354Y45742086D01*
X-23393596Y45607379D01*
X-23393598Y45607372D01*
X-23399999Y45547844D01*
X-23400000Y45547827D01*
X-23400000Y45000000D01*
X-24679529Y45000000D01*
X-24825190Y45078828D01*
X-25060386Y45159571D01*
X-25305665Y45200500D01*
X-25554335Y45200500D01*
X-25799614Y45159571D01*
X-26034810Y45078828D01*
X-26253509Y44960474D01*
X-26449744Y44807738D01*
X-26608771Y44634988D01*
X-26668657Y44598999D01*
X-26738495Y44601099D01*
X-26791228Y44634988D01*
X-26950256Y44807738D01*
X-27146491Y44960474D01*
X-27365190Y45078828D01*
X-27600386Y45159571D01*
X-27845665Y45200500D01*
X-28094335Y45200500D01*
X-28339614Y45159571D01*
X-28574810Y45078828D01*
X-28793509Y44960474D01*
X-28989744Y44807738D01*
X-29158164Y44624785D01*
X-29294173Y44416607D01*
X-29294173Y44416606D01*
X-29312560Y44374689D01*
X-29357517Y44321204D01*
X-29424253Y44300514D01*
X-29426116Y44300500D01*
X-33837403Y44300500D01*
X-33904442Y44320185D01*
X-33925084Y44336819D01*
X-34888181Y45299916D01*
X-34921666Y45361239D01*
X-34924500Y45387597D01*
X-34924500Y46000001D01*
X-34924501Y46000019D01*
X-34935000Y46102796D01*
X-34935001Y46102799D01*
X-34990185Y46269331D01*
X-34990187Y46269336D01*
X-35025069Y46325888D01*
X-35082288Y46418656D01*
X-35206344Y46542712D01*
X-35278096Y46586968D01*
X-35324821Y46638915D01*
X-35337000Y46692507D01*
X-35337000Y48307491D01*
X-35317315Y48374530D01*
X-35278098Y48413029D01*
X-35206344Y48457287D01*
X-35082289Y48581342D01*
X-34990187Y48730663D01*
X-34990185Y48730668D01*
X-34960518Y48820197D01*
X-34935001Y48897203D01*
X-34935001Y48897204D01*
X-34935000Y48897204D01*
X-34924500Y48999983D01*
X-34924500Y49750000D01*
X-23400000Y49750000D01*
X-23400000Y49202172D01*
X-23399999Y49202155D01*
X-23393598Y49142627D01*
X-23393596Y49142620D01*
X-23343354Y49007913D01*
X-23343350Y49007906D01*
X-23257190Y48892812D01*
X-23257187Y48892809D01*
X-23142093Y48806649D01*
X-23142086Y48806645D01*
X-23007379Y48756403D01*
X-23007372Y48756401D01*
X-22947844Y48750000D01*
X-22650000Y48750000D01*
X-22150000Y48750000D01*
X-21852155Y48750000D01*
X-21792624Y48756401D01*
X-21785073Y48758186D01*
X-21784684Y48756542D01*
X-21724348Y48760853D01*
X-21707614Y48755939D01*
X-21707483Y48755908D01*
X-21647883Y48749501D01*
X-21647881Y48749500D01*
X-21647873Y48749500D01*
X-21150097Y48749500D01*
X-21083058Y48729815D01*
X-21062416Y48713181D01*
X-20099318Y47750083D01*
X-20065833Y47688760D01*
X-20062999Y47662402D01*
X-20062999Y46824992D01*
X-20052499Y46722203D01*
X-19997314Y46555666D01*
X-19905212Y46406344D01*
X-19781156Y46282288D01*
X-19688388Y46225069D01*
X-19639307Y46194795D01*
X-19631834Y46190186D01*
X-19465297Y46135001D01*
X-19465295Y46135000D01*
X-19362510Y46124500D01*
X-19362509Y46124500D01*
X-18637498Y46124500D01*
X-18637480Y46124501D01*
X-18534703Y46135000D01*
X-18534700Y46135001D01*
X-18368168Y46190185D01*
X-18368163Y46190187D01*
X-18218842Y46282289D01*
X-18094789Y46406342D01*
X-18002687Y46555663D01*
X-18002685Y46555668D01*
X-17958173Y46689998D01*
X-17947501Y46722203D01*
X-17947501Y46722204D01*
X-17947500Y46722204D01*
X-17937000Y46824983D01*
X-17937000Y48175001D01*
X-17937001Y48175018D01*
X-17947500Y48277796D01*
X-17947501Y48277799D01*
X-18002685Y48444331D01*
X-18002687Y48444336D01*
X-18094789Y48593657D01*
X-18218842Y48717710D01*
X-18218844Y48717712D01*
X-18368166Y48809814D01*
X-18534703Y48864999D01*
X-18637491Y48875500D01*
X-19362508Y48875499D01*
X-19452469Y48866309D01*
X-19521161Y48879079D01*
X-19552751Y48901986D01*
X-20063181Y49412416D01*
X-20096666Y49473739D01*
X-20099500Y49500097D01*
X-20099500Y50797870D01*
X-20099501Y50797876D01*
X-20105908Y50857483D01*
X-20156202Y50992328D01*
X-20156206Y50992335D01*
X-20242452Y51107544D01*
X-20242455Y51107547D01*
X-20357664Y51193793D01*
X-20357671Y51193797D01*
X-20492517Y51244091D01*
X-20492516Y51244091D01*
X-20498925Y51244779D01*
X-20552127Y51250500D01*
X-21647872Y51250499D01*
X-21707483Y51244091D01*
X-21707489Y51244088D01*
X-21715025Y51242308D01*
X-21715321Y51243561D01*
X-21777063Y51239142D01*
X-21790655Y51243132D01*
X-21792627Y51243598D01*
X-21852155Y51249999D01*
X-21852172Y51250000D01*
X-22150000Y51250000D01*
X-22150000Y48750000D01*
X-22650000Y48750000D01*
X-22650000Y49750000D01*
X-23400000Y49750000D01*
X-34924500Y49750000D01*
X-34924500Y50000001D01*
X-34924501Y50000019D01*
X-34935000Y50102796D01*
X-34935001Y50102799D01*
X-34983779Y50250000D01*
X-23400000Y50250000D01*
X-22650000Y50250000D01*
X-22650000Y51250000D01*
X-22947828Y51250000D01*
X-22947844Y51249999D01*
X-23007372Y51243598D01*
X-23007379Y51243596D01*
X-23142086Y51193354D01*
X-23142093Y51193350D01*
X-23257187Y51107190D01*
X-23257190Y51107187D01*
X-23343350Y50992093D01*
X-23343354Y50992086D01*
X-23393596Y50857379D01*
X-23393598Y50857372D01*
X-23399999Y50797844D01*
X-23400000Y50797827D01*
X-23400000Y50250000D01*
X-34983779Y50250000D01*
X-34990185Y50269331D01*
X-34990187Y50269336D01*
X-35069056Y50397203D01*
X-35082288Y50418656D01*
X-35206344Y50542712D01*
X-35278096Y50586968D01*
X-35324821Y50638915D01*
X-35337000Y50692507D01*
X-35337000Y52557491D01*
X-35317315Y52624530D01*
X-35278098Y52663029D01*
X-35206344Y52707287D01*
X-35082289Y52831342D01*
X-34990187Y52980663D01*
X-34990185Y52980668D01*
X-34949699Y53102847D01*
X-34935001Y53147203D01*
X-34935001Y53147204D01*
X-34935000Y53147204D01*
X-34924500Y53249983D01*
X-34924500Y54250001D01*
X-34924501Y54250019D01*
X-34935000Y54352796D01*
X-34935001Y54352799D01*
X-34962736Y54436496D01*
X-34965138Y54506324D01*
X-34929406Y54566366D01*
X-34866886Y54597559D01*
X-34845030Y54599500D01*
X-22230883Y54599500D01*
X-22163844Y54579815D01*
G37*
%TD.AperFunction*%
%TA.AperFunction,Conductor*%
G36*
X-39632058Y55379815D02*
G01*
X-39586303Y55327011D01*
X-39576359Y55257853D01*
X-39605384Y55194297D01*
X-39611416Y55187819D01*
X-41608506Y53190727D01*
X-41608511Y53190724D01*
X-41618714Y53180520D01*
X-41618716Y53180520D01*
X-41730520Y53068716D01*
X-41736554Y53058264D01*
X-41787120Y53010047D01*
X-41830690Y52996971D01*
X-41857483Y52994091D01*
X-41992331Y52943796D01*
X-42107546Y52857546D01*
X-42193796Y52742331D01*
X-42244091Y52607483D01*
X-42250500Y52547873D01*
X-42250499Y50952128D01*
X-42245299Y50903757D01*
X-42244091Y50892516D01*
X-42193797Y50757671D01*
X-42193793Y50757664D01*
X-42107547Y50642455D01*
X-42107544Y50642452D01*
X-41992335Y50556206D01*
X-41992328Y50556202D01*
X-41931167Y50533391D01*
X-41875233Y50491520D01*
X-41850816Y50426056D01*
X-41850500Y50417209D01*
X-41850500Y48832790D01*
X-41870185Y48765751D01*
X-41922989Y48719996D01*
X-41931146Y48716616D01*
X-41992331Y48693796D01*
X-42107546Y48607546D01*
X-42193796Y48492331D01*
X-42244091Y48357483D01*
X-42250500Y48297873D01*
X-42250499Y46702128D01*
X-42249268Y46690679D01*
X-42244091Y46642516D01*
X-42193797Y46507671D01*
X-42193793Y46507664D01*
X-42107547Y46392455D01*
X-42107544Y46392452D01*
X-41992335Y46306206D01*
X-41992328Y46306202D01*
X-41931167Y46283391D01*
X-41875233Y46241520D01*
X-41850816Y46176056D01*
X-41850500Y46167209D01*
X-41850500Y44582790D01*
X-41870185Y44515751D01*
X-41922989Y44469996D01*
X-41931146Y44466616D01*
X-41992331Y44443796D01*
X-42107546Y44357546D01*
X-42193796Y44242331D01*
X-42244091Y44107483D01*
X-42250500Y44047873D01*
X-42250500Y44047864D01*
X-42250500Y43974500D01*
X-42270185Y43907461D01*
X-42322989Y43861706D01*
X-42374500Y43850500D01*
X-51477304Y43850500D01*
X-51544343Y43870185D01*
X-51590098Y43922989D01*
X-51600042Y43992147D01*
X-51571017Y44055703D01*
X-51567000Y44060119D01*
X-51547307Y44080749D01*
X-45078713Y50857372D01*
X-40779682Y55361119D01*
X-40719154Y55396021D01*
X-40689986Y55399500D01*
X-39699097Y55399500D01*
X-39632058Y55379815D01*
G37*
%TD.AperFunction*%
%TD*%
%TA.AperFunction,NonConductor*%
G36*
X757025Y55379815D02*
G01*
X779682Y55361119D01*
X8584044Y47185120D01*
X8616094Y47123035D01*
X8609491Y47053478D01*
X8566330Y46998533D01*
X8503675Y46976809D01*
X8503719Y46976459D01*
X8503711Y46976458D01*
X8502430Y46976378D01*
X8500316Y46975645D01*
X8494348Y46975501D01*
X8488347Y46975501D01*
X8488331Y46975500D01*
X1161239Y46975500D01*
X1161223Y46975501D01*
X1153627Y46975501D01*
X995512Y46975501D01*
X842785Y46934577D01*
X842784Y46934576D01*
X842782Y46934576D01*
X792667Y46905641D01*
X792665Y46905639D01*
X705854Y46855520D01*
X630976Y46780642D01*
X589731Y46739397D01*
X589720Y46739385D01*
X462178Y46611843D01*
X400859Y46578360D01*
X331167Y46583344D01*
X275233Y46625215D01*
X250816Y46690679D01*
X250500Y46699526D01*
X250500Y47417209D01*
X270185Y47484248D01*
X322989Y47530003D01*
X331167Y47533391D01*
X392328Y47556202D01*
X392335Y47556206D01*
X507544Y47642452D01*
X507547Y47642455D01*
X593793Y47757664D01*
X593797Y47757671D01*
X644091Y47892517D01*
X650500Y47952127D01*
X650499Y49547872D01*
X644091Y49607483D01*
X624982Y49658716D01*
X593797Y49742328D01*
X593796Y49742331D01*
X507546Y49857546D01*
X392331Y49943796D01*
X331166Y49966608D01*
X275234Y50008478D01*
X250816Y50073942D01*
X250500Y50082790D01*
X250500Y52167209D01*
X270185Y52234248D01*
X322989Y52280003D01*
X331167Y52283391D01*
X392328Y52306202D01*
X392335Y52306206D01*
X507544Y52392452D01*
X507547Y52392455D01*
X593793Y52507664D01*
X593797Y52507671D01*
X644091Y52642517D01*
X647504Y52674261D01*
X650500Y52702127D01*
X650499Y54297872D01*
X644091Y54357483D01*
X593796Y54492331D01*
X507546Y54607546D01*
X392331Y54693796D01*
X257483Y54744091D01*
X197873Y54750500D01*
X-149901Y54750499D01*
X-216940Y54770183D01*
X-237582Y54786818D01*
X-638584Y55187819D01*
X-672069Y55249142D01*
X-667085Y55318833D01*
X-625214Y55374767D01*
X-559749Y55399184D01*
X-550903Y55399500D01*
X689986Y55399500D01*
X757025Y55379815D01*
G37*
%TD.AperFunction*%
%TA.AperFunction,NonConductor*%
G36*
X-29359077Y43079815D02*
G01*
X-29313322Y43027011D01*
X-29312560Y43025311D01*
X-29299195Y42994841D01*
X-29294172Y42983391D01*
X-29158166Y42775217D01*
X-29158164Y42775215D01*
X-28989744Y42592262D01*
X-28797339Y42442507D01*
X-28793506Y42439524D01*
X-28574811Y42321172D01*
X-28574802Y42321169D01*
X-28339616Y42240429D01*
X-28094335Y42199500D01*
X-27845665Y42199500D01*
X-27600383Y42240429D01*
X-27365197Y42321169D01*
X-27365188Y42321172D01*
X-27146493Y42439524D01*
X-26950257Y42592261D01*
X-26942381Y42600816D01*
X-26879929Y42668657D01*
X-26791230Y42765010D01*
X-26731342Y42801001D01*
X-26661504Y42798900D01*
X-26608770Y42765010D01*
X-26576637Y42730105D01*
X-26449744Y42592262D01*
X-26257339Y42442507D01*
X-26253506Y42439524D01*
X-26095482Y42354006D01*
X-26045892Y42304786D01*
X-26030500Y42244951D01*
X-26030500Y40095084D01*
X-26050185Y40028045D01*
X-26102989Y39982290D01*
X-26119897Y39976010D01*
X-26160398Y39964244D01*
X-26301865Y39880581D01*
X-26418081Y39764365D01*
X-26501744Y39622898D01*
X-26518065Y39566722D01*
X-26540988Y39487819D01*
X-26547598Y39465069D01*
X-26550500Y39428194D01*
X-26550500Y39428186D01*
X-26550500Y38262000D01*
X-26570185Y38194961D01*
X-26622989Y38149206D01*
X-26674500Y38138000D01*
X-26915694Y38138000D01*
X-26952569Y38135098D01*
X-26952571Y38135097D01*
X-26952573Y38135097D01*
X-26970753Y38129815D01*
X-27110398Y38089244D01*
X-27251865Y38005581D01*
X-27368081Y37889365D01*
X-27451744Y37747898D01*
X-27473299Y37673706D01*
X-27494567Y37600500D01*
X-27497598Y37590069D01*
X-27500500Y37553194D01*
X-27500500Y37553186D01*
X-27500500Y36246808D01*
X-27497598Y36209932D01*
X-27497597Y36209926D01*
X-27479566Y36147864D01*
X-27451744Y36052102D01*
X-27368081Y35910635D01*
X-27368079Y35910633D01*
X-27368076Y35910629D01*
X-27251870Y35794423D01*
X-27251862Y35794417D01*
X-27209491Y35769359D01*
X-27110400Y35710757D01*
X-27110396Y35710755D01*
X-27110393Y35710754D01*
X-26952573Y35664902D01*
X-26952567Y35664901D01*
X-26915701Y35662000D01*
X-26915694Y35662000D01*
X-26484298Y35662000D01*
X-26447432Y35664901D01*
X-26447426Y35664902D01*
X-26289606Y35710754D01*
X-26289599Y35710757D01*
X-26174856Y35778615D01*
X-26107132Y35795798D01*
X-26040870Y35773638D01*
X-26024055Y35759564D01*
X-24796450Y34531958D01*
X-24762965Y34470635D01*
X-24767949Y34400943D01*
X-24809821Y34345010D01*
X-24819029Y34338741D01*
X-24893656Y34292712D01*
X-25017712Y34168656D01*
X-25109814Y34019334D01*
X-25135920Y33940552D01*
X-25137595Y33935496D01*
X-25177368Y33878051D01*
X-25241884Y33851228D01*
X-25255301Y33850500D01*
X-26225501Y33850500D01*
X-26292540Y33870185D01*
X-26338295Y33922989D01*
X-26349501Y33974500D01*
X-26349501Y34047876D01*
X-26355908Y34107483D01*
X-26406202Y34242328D01*
X-26406206Y34242335D01*
X-26492452Y34357544D01*
X-26492455Y34357547D01*
X-26607664Y34443793D01*
X-26607671Y34443797D01*
X-26742517Y34494091D01*
X-26742516Y34494091D01*
X-26748925Y34494779D01*
X-26802127Y34500500D01*
X-27897872Y34500499D01*
X-27957483Y34494091D01*
X-27957485Y34494090D01*
X-27957487Y34494090D01*
X-27965031Y34492308D01*
X-27965377Y34493775D01*
X-28026342Y34489408D01*
X-28041378Y34493822D01*
X-28042513Y34494089D01*
X-28042517Y34494091D01*
X-28102127Y34500500D01*
X-29197872Y34500499D01*
X-29251407Y34494744D01*
X-29262247Y34493579D01*
X-29331006Y34505986D01*
X-29382143Y34553597D01*
X-29399500Y34616869D01*
X-29399500Y40963330D01*
X-29399499Y40963348D01*
X-29399499Y41129054D01*
X-29399498Y41129054D01*
X-29408146Y41161328D01*
X-29440423Y41281785D01*
X-29494529Y41375499D01*
X-29519480Y41418716D01*
X-29631284Y41530520D01*
X-29638349Y41537585D01*
X-29638355Y41537590D01*
X-30213181Y42112416D01*
X-30246666Y42173739D01*
X-30249500Y42200097D01*
X-30249500Y42547869D01*
X-30249501Y42547876D01*
X-30255908Y42607483D01*
X-30306202Y42742328D01*
X-30306206Y42742335D01*
X-30392452Y42857544D01*
X-30392453Y42857544D01*
X-30392454Y42857546D01*
X-30417418Y42876234D01*
X-30459288Y42932168D01*
X-30464272Y43001860D01*
X-30430786Y43063182D01*
X-30369462Y43096667D01*
X-30343106Y43099500D01*
X-29426116Y43099500D01*
X-29359077Y43079815D01*
G37*
%TD.AperFunction*%
%TA.AperFunction,NonConductor*%
G36*
X-40432461Y37429815D02*
G01*
X-40386706Y37377011D01*
X-40375500Y37325500D01*
X-40375499Y37024999D01*
X-40375498Y37024980D01*
X-40371702Y36987819D01*
X-40364999Y36922203D01*
X-40309814Y36755666D01*
X-40217712Y36606344D01*
X-40093656Y36482288D01*
X-40053539Y36457544D01*
X-39959435Y36399500D01*
X-39944334Y36390186D01*
X-39777797Y36335001D01*
X-39777795Y36335000D01*
X-39675010Y36324500D01*
X-39675009Y36324500D01*
X-38324998Y36324500D01*
X-38324981Y36324501D01*
X-38222203Y36335000D01*
X-38222200Y36335001D01*
X-38055668Y36390185D01*
X-38055663Y36390187D01*
X-37906342Y36482289D01*
X-37782289Y36606342D01*
X-37750264Y36658264D01*
X-37707190Y36728097D01*
X-37655243Y36774821D01*
X-37601652Y36787000D01*
X-35313704Y36787000D01*
X-35246665Y36767315D01*
X-35200910Y36714511D01*
X-35190346Y36675600D01*
X-35189999Y36672203D01*
X-35134814Y36505666D01*
X-35094060Y36439593D01*
X-35075621Y36372204D01*
X-35096543Y36305540D01*
X-35150185Y36260770D01*
X-35199600Y36250499D01*
X-35547872Y36250499D01*
X-35607483Y36244091D01*
X-35607485Y36244090D01*
X-35607487Y36244090D01*
X-35615031Y36242308D01*
X-35615377Y36243775D01*
X-35676342Y36239408D01*
X-35691378Y36243822D01*
X-35692513Y36244089D01*
X-35692517Y36244091D01*
X-35752127Y36250500D01*
X-36847872Y36250499D01*
X-36907483Y36244091D01*
X-37042331Y36193796D01*
X-37157546Y36107546D01*
X-37243796Y35992331D01*
X-37294091Y35857483D01*
X-37300500Y35797873D01*
X-37300499Y34202128D01*
X-37299679Y34194500D01*
X-37294091Y34142516D01*
X-37243797Y34007671D01*
X-37243796Y34007669D01*
X-37162303Y33898808D01*
X-37137886Y33833347D01*
X-37152737Y33765073D01*
X-37202142Y33715668D01*
X-37261570Y33700499D01*
X-37287508Y33700499D01*
X-37390297Y33689999D01*
X-37556834Y33634814D01*
X-37706156Y33542712D01*
X-37760687Y33488181D01*
X-37799819Y33449049D01*
X-37861142Y33415564D01*
X-37930834Y33420548D01*
X-37975181Y33449049D01*
X-38068842Y33542710D01*
X-38068844Y33542712D01*
X-38218166Y33634814D01*
X-38384703Y33689999D01*
X-38487491Y33700500D01*
X-39099902Y33700499D01*
X-39166941Y33720183D01*
X-39187583Y33736818D01*
X-42438584Y36987819D01*
X-42472069Y37049142D01*
X-42467085Y37118834D01*
X-42425213Y37174767D01*
X-42359749Y37199184D01*
X-42350903Y37199500D01*
X-42059298Y37199500D01*
X-42022432Y37202401D01*
X-42022426Y37202402D01*
X-41864606Y37248254D01*
X-41864603Y37248255D01*
X-41723137Y37331917D01*
X-41723129Y37331923D01*
X-41641872Y37413181D01*
X-41580549Y37446666D01*
X-41554191Y37449500D01*
X-40499500Y37449500D01*
X-40432461Y37429815D01*
G37*
%TD.AperFunction*%
%TA.AperFunction,NonConductor*%
G36*
X4642539Y33504815D02*
G01*
X4688294Y33452011D01*
X4699500Y33400500D01*
X4699500Y32999998D01*
X4699501Y32999980D01*
X4710000Y32897203D01*
X4710001Y32897200D01*
X4765185Y32730668D01*
X4765187Y32730663D01*
X4857289Y32581342D01*
X4950951Y32487681D01*
X4984436Y32426358D01*
X4979452Y32356666D01*
X4950951Y32312319D01*
X4857287Y32218655D01*
X4813032Y32146905D01*
X4761084Y32100180D01*
X4716376Y32090019D01*
X4716503Y32089062D01*
X4708445Y32088001D01*
X4708443Y32088001D01*
X4555715Y32047077D01*
X4527291Y32030666D01*
X4454953Y31988902D01*
X4418785Y31968021D01*
X4302649Y31851885D01*
X4302639Y31851874D01*
X3687583Y31236818D01*
X3626260Y31203333D01*
X3599902Y31200499D01*
X2702128Y31200499D01*
X2653757Y31195299D01*
X2642516Y31194091D01*
X2507671Y31143797D01*
X2507664Y31143793D01*
X2392455Y31057547D01*
X2392452Y31057544D01*
X2306206Y30942335D01*
X2306202Y30942328D01*
X2255908Y30807482D01*
X2249791Y30750581D01*
X2249501Y30747876D01*
X2249500Y30747864D01*
X2249500Y29652129D01*
X2249501Y29652123D01*
X2255909Y29592515D01*
X2257692Y29584971D01*
X2256439Y29584675D01*
X2260855Y29522926D01*
X2256870Y29509357D01*
X2256401Y29507372D01*
X2250000Y29447844D01*
X2250000Y29150000D01*
X4750000Y29150000D01*
X4750000Y29447827D01*
X4749999Y29447844D01*
X4743598Y29507375D01*
X4741814Y29514926D01*
X4743462Y29515315D01*
X4739140Y29575624D01*
X4744060Y29592387D01*
X4744090Y29592515D01*
X4744091Y29592517D01*
X4750500Y29652127D01*
X4750499Y30549902D01*
X4770183Y30616941D01*
X4786818Y30637583D01*
X4793751Y30644516D01*
X4855074Y30678001D01*
X4924766Y30673017D01*
X4969108Y30644521D01*
X4981337Y30632293D01*
X4981336Y30632293D01*
X5130663Y30540187D01*
X5130668Y30540185D01*
X5214670Y30512349D01*
X5297203Y30485001D01*
X5297204Y30485000D01*
X5399989Y30474500D01*
X5399991Y30474500D01*
X6400001Y30474500D01*
X6400019Y30474501D01*
X6502796Y30485000D01*
X6502799Y30485001D01*
X6669331Y30540185D01*
X6669334Y30540186D01*
X6669341Y30540190D01*
X6756025Y30593657D01*
X6818656Y30632288D01*
X6837819Y30651451D01*
X6899142Y30684936D01*
X6968834Y30679952D01*
X7024767Y30638080D01*
X7049184Y30572616D01*
X7049500Y30563770D01*
X7049500Y29652129D01*
X7049501Y29652123D01*
X7055909Y29592515D01*
X7057692Y29584971D01*
X7056439Y29584675D01*
X7060855Y29522926D01*
X7056870Y29509357D01*
X7056401Y29507372D01*
X7050000Y29447844D01*
X7050000Y29150000D01*
X9550000Y29150000D01*
X9550000Y29447827D01*
X9549999Y29447844D01*
X9543598Y29507375D01*
X9541814Y29514926D01*
X9543462Y29515315D01*
X9539140Y29575624D01*
X9544060Y29592387D01*
X9544090Y29592515D01*
X9544091Y29592517D01*
X9550500Y29652127D01*
X9550499Y30449902D01*
X9570183Y30516941D01*
X9586818Y30537583D01*
X9850370Y30801135D01*
X9911693Y30834620D01*
X9981385Y30829636D01*
X10037318Y30787764D01*
X10043588Y30778554D01*
X10057288Y30756343D01*
X10181342Y30632289D01*
X10330663Y30540187D01*
X10330668Y30540185D01*
X10414670Y30512349D01*
X10497203Y30485001D01*
X10497204Y30485000D01*
X10599989Y30474500D01*
X10599991Y30474500D01*
X11600001Y30474500D01*
X11600019Y30474501D01*
X11702796Y30485000D01*
X11702799Y30485001D01*
X11869331Y30540185D01*
X11869334Y30540186D01*
X11869341Y30540190D01*
X11956025Y30593657D01*
X12018656Y30632288D01*
X12142712Y30756344D01*
X12219961Y30881586D01*
X12271909Y30928310D01*
X12340871Y30939533D01*
X12404954Y30911689D01*
X12443810Y30853621D01*
X12449500Y30816489D01*
X12449500Y29952129D01*
X12449501Y29952123D01*
X12455909Y29892515D01*
X12457692Y29884971D01*
X12456439Y29884675D01*
X12460855Y29822926D01*
X12456870Y29809357D01*
X12456401Y29807372D01*
X12450000Y29747844D01*
X12450000Y29450000D01*
X14950000Y29450000D01*
X14950000Y29747827D01*
X14949999Y29747828D01*
X14948450Y29762245D01*
X14960856Y29831004D01*
X15008466Y29882142D01*
X15071740Y29899500D01*
X15269551Y29899500D01*
X15336590Y29879815D01*
X15382345Y29827011D01*
X15387256Y29814507D01*
X15390185Y29805667D01*
X15482289Y29656342D01*
X15606342Y29532289D01*
X15755663Y29440187D01*
X15755668Y29440185D01*
X15839670Y29412349D01*
X15922203Y29385001D01*
X15922204Y29385000D01*
X16024983Y29374500D01*
X16024991Y29374500D01*
X16210647Y29374500D01*
X16277686Y29354815D01*
X16323441Y29302011D01*
X16333385Y29232853D01*
X16304360Y29169297D01*
X16298328Y29162819D01*
X15872328Y28736819D01*
X15811005Y28703334D01*
X15784647Y28700500D01*
X15074000Y28700500D01*
X15006961Y28720185D01*
X14961206Y28772989D01*
X14950000Y28824500D01*
X14950000Y28950000D01*
X12450000Y28950000D01*
X12450000Y28824500D01*
X12430315Y28757461D01*
X12377511Y28711706D01*
X12326000Y28700500D01*
X6686669Y28700500D01*
X6686653Y28700501D01*
X6679057Y28700501D01*
X6520943Y28700501D01*
X6368215Y28659577D01*
X6351628Y28650000D01*
X6350762Y28649500D01*
X6350759Y28649499D01*
X6231290Y28580524D01*
X6231286Y28580521D01*
X6231284Y28580520D01*
X6161239Y28510475D01*
X6115149Y28464385D01*
X6115139Y28464374D01*
X4038355Y26387590D01*
X4038349Y26387585D01*
X4031284Y26380520D01*
X3919480Y26268716D01*
X3876225Y26193796D01*
X3840423Y26131785D01*
X3799499Y25979057D01*
X3799499Y25979054D01*
X3799499Y25813348D01*
X3799500Y25813330D01*
X3799500Y23965649D01*
X3779815Y23898610D01*
X3763181Y23877968D01*
X2629457Y22744244D01*
X2568134Y22710759D01*
X2498442Y22715743D01*
X2442509Y22757615D01*
X2418418Y22819325D01*
X2414999Y22852796D01*
X2414998Y22852799D01*
X2359814Y23019334D01*
X2267712Y23168656D01*
X2143656Y23292712D01*
X2031902Y23361641D01*
X1985179Y23413587D01*
X1973000Y23467179D01*
X1973000Y26063659D01*
X1992685Y26130698D01*
X2031902Y26169197D01*
X2093655Y26207287D01*
X2217710Y26331342D01*
X2217712Y26331344D01*
X2309814Y26480666D01*
X2364999Y26647203D01*
X2375500Y26749991D01*
X2375499Y27750008D01*
X2368588Y27817656D01*
X2381357Y27886346D01*
X2429237Y27937231D01*
X2497027Y27954152D01*
X2535278Y27946438D01*
X2642616Y27906403D01*
X2642627Y27906401D01*
X2702155Y27900000D01*
X3250000Y27900000D01*
X3250000Y28650000D01*
X3750000Y28650000D01*
X3750000Y27900000D01*
X4297844Y27900000D01*
X4357372Y27906401D01*
X4357379Y27906403D01*
X4492086Y27956645D01*
X4492093Y27956649D01*
X4607187Y28042809D01*
X4607190Y28042812D01*
X4693350Y28157906D01*
X4693354Y28157913D01*
X4743596Y28292620D01*
X4743598Y28292627D01*
X4749999Y28352155D01*
X4750000Y28352172D01*
X4750000Y28650000D01*
X3750000Y28650000D01*
X3250000Y28650000D01*
X2250000Y28650000D01*
X2250000Y28418452D01*
X2230315Y28351413D01*
X2177511Y28305658D01*
X2108353Y28295714D01*
X2060904Y28312913D01*
X2021903Y28336968D01*
X1975179Y28388915D01*
X1963000Y28442507D01*
X1963000Y31357491D01*
X1982685Y31424530D01*
X2021902Y31463029D01*
X2093655Y31507287D01*
X2217710Y31631342D01*
X2217712Y31631344D01*
X2309814Y31780666D01*
X2364999Y31947203D01*
X2375500Y32049991D01*
X2375499Y32662402D01*
X2395183Y32729441D01*
X2411818Y32750083D01*
X3149916Y33488181D01*
X3211239Y33521666D01*
X3237597Y33524500D01*
X4575500Y33524500D01*
X4642539Y33504815D01*
G37*
%TD.AperFunction*%
%TA.AperFunction,NonConductor*%
G36*
X6055539Y23980315D02*
G01*
X6101294Y23927511D01*
X6112500Y23876000D01*
X6112500Y22950000D01*
X6175500Y22950000D01*
X6242539Y22930315D01*
X6288294Y22877511D01*
X6299500Y22826000D01*
X6299500Y22422341D01*
X6279815Y22355302D01*
X6263181Y22334660D01*
X4612181Y20683660D01*
X4550858Y20650175D01*
X4481166Y20655159D01*
X4425233Y20697031D01*
X4400816Y20762495D01*
X4400500Y20771341D01*
X4400500Y21279054D01*
X4400500Y21279057D01*
X4399903Y21281284D01*
X4383074Y21344091D01*
X4359577Y21431784D01*
X4280520Y21568716D01*
X4168716Y21680520D01*
X4168714Y21680520D01*
X4158511Y21690724D01*
X4158506Y21690728D01*
X3804140Y22045094D01*
X3770655Y22106417D01*
X3775639Y22176109D01*
X3804140Y22220456D01*
X4682041Y23098357D01*
X4743364Y23131842D01*
X4813056Y23126858D01*
X4857401Y23098359D01*
X4873439Y23082321D01*
X4873449Y23082313D01*
X5014803Y22998717D01*
X5014806Y22998716D01*
X5172504Y22952900D01*
X5172510Y22952899D01*
X5209350Y22950000D01*
X5612500Y22950000D01*
X5612500Y23876000D01*
X5632185Y23943039D01*
X5684989Y23988794D01*
X5736500Y24000000D01*
X5988500Y24000000D01*
X6055539Y23980315D01*
G37*
%TD.AperFunction*%
%TA.AperFunction,NonConductor*%
G36*
X-6244297Y20996764D02*
G01*
X-6218113Y20965051D01*
X-6184983Y20907669D01*
X-6100386Y20761143D01*
X-5949895Y20572433D01*
X-5936801Y20556014D01*
X-5762169Y20393981D01*
X-5744479Y20377567D01*
X-5527704Y20229772D01*
X-5527700Y20229770D01*
X-5527697Y20229768D01*
X-5527696Y20229767D01*
X-5291325Y20115938D01*
X-5291327Y20115938D01*
X-5040623Y20038606D01*
X-5040619Y20038605D01*
X-5040615Y20038604D01*
X-4915823Y20019794D01*
X-4781187Y19999500D01*
X-4781182Y19999500D01*
X-4518812Y19999500D01*
X-4352964Y20024499D01*
X-4259385Y20038604D01*
X-4259381Y20038605D01*
X-4259376Y20038606D01*
X-4008678Y20115936D01*
X-3991083Y20124409D01*
X-3922141Y20135759D01*
X-3858008Y20108034D01*
X-3849604Y20100368D01*
X-3768718Y20019482D01*
X-3768710Y20019476D01*
X-3631791Y19940427D01*
X-3631786Y19940424D01*
X-3592480Y19929892D01*
X-3479058Y19899500D01*
X-3479056Y19899500D01*
X-3313347Y19899500D01*
X-3313331Y19899501D01*
X-2772244Y19899501D01*
X-2705205Y19879816D01*
X-2659450Y19827012D01*
X-2648954Y19762249D01*
X-2650500Y19747873D01*
X-2650499Y18938379D01*
X-2650499Y18152124D01*
X-2644091Y18092516D01*
X-2593797Y17957671D01*
X-2593793Y17957664D01*
X-2507547Y17842455D01*
X-2507544Y17842452D01*
X-2392335Y17756206D01*
X-2392328Y17756202D01*
X-2257482Y17705908D01*
X-2249938Y17704126D01*
X-2250474Y17701853D01*
X-2196688Y17679571D01*
X-2156843Y17622177D01*
X-2150500Y17583024D01*
X-2150500Y17401439D01*
X-2170185Y17334400D01*
X-2222989Y17288645D01*
X-2231168Y17285257D01*
X-2310374Y17255715D01*
X-2342331Y17243796D01*
X-2457546Y17157546D01*
X-2543796Y17042331D01*
X-2594091Y16907483D01*
X-2600500Y16847873D01*
X-2600500Y16847864D01*
X-2600500Y16624500D01*
X-2620185Y16557461D01*
X-2672989Y16511706D01*
X-2724500Y16500500D01*
X-4470943Y16500500D01*
X-4629058Y16500500D01*
X-4669981Y16489534D01*
X-4781784Y16459577D01*
X-4790508Y16454539D01*
X-4858402Y16438065D01*
X-4889054Y16443433D01*
X-5109385Y16511396D01*
X-5368818Y16550500D01*
X-5631182Y16550500D01*
X-5890615Y16511396D01*
X-6141323Y16434063D01*
X-6271700Y16371276D01*
X-6340640Y16359925D01*
X-6404774Y16387647D01*
X-6443740Y16445642D01*
X-6449500Y16482997D01*
X-6449500Y20903051D01*
X-6429815Y20970090D01*
X-6377011Y21015845D01*
X-6307853Y21025789D01*
X-6244297Y20996764D01*
G37*
%TD.AperFunction*%
%TA.AperFunction,NonConductor*%
G36*
X-17265145Y3333453D02*
G01*
X-17248425Y3314158D01*
X-17118495Y3128599D01*
X-17118493Y3128597D01*
X-16951402Y2961506D01*
X-16951395Y2961501D01*
X-16757834Y2825967D01*
X-16757830Y2825965D01*
X-16543663Y2726097D01*
X-16543659Y2726096D01*
X-16543655Y2726094D01*
X-16315413Y2664938D01*
X-16315403Y2664936D01*
X-16080001Y2644341D01*
X-16080000Y2644341D01*
X-16079999Y2644341D01*
X-15844596Y2664936D01*
X-15844583Y2664939D01*
X-15716241Y2699327D01*
X-15646392Y2697664D01*
X-15596468Y2667233D01*
X-14367590Y1438355D01*
X-14367588Y1438352D01*
X-14248717Y1319481D01*
X-14248709Y1319475D01*
X-14179433Y1279479D01*
X-14179433Y1279478D01*
X-14179430Y1279478D01*
X-14111790Y1240425D01*
X-14111787Y1240423D01*
X-14050693Y1224053D01*
X-13959057Y1199499D01*
X-13959054Y1199499D01*
X-13793347Y1199499D01*
X-13793331Y1199500D01*
X-1536669Y1199500D01*
X-1536653Y1199499D01*
X-1529057Y1199499D01*
X-1370946Y1199499D01*
X-1370943Y1199499D01*
X-1256397Y1230192D01*
X-1218214Y1240423D01*
X-1164864Y1271225D01*
X-1150569Y1279479D01*
X-1150567Y1279479D01*
X-1081290Y1319475D01*
X-1081282Y1319481D01*
X-812181Y1588583D01*
X-750858Y1622068D01*
X-681166Y1617084D01*
X-625233Y1575212D01*
X-600816Y1509748D01*
X-600500Y1500902D01*
X-600500Y724500D01*
X-620185Y657461D01*
X-672989Y611706D01*
X-724500Y600500D01*
X-20605687Y600500D01*
X-20672726Y620185D01*
X-20718481Y672989D01*
X-20728425Y742147D01*
X-20699400Y805703D01*
X-20691119Y813506D01*
X-20691346Y813733D01*
X-19529481Y1975597D01*
X-19529475Y1975605D01*
X-19450426Y2112524D01*
X-19450423Y2112529D01*
X-19416129Y2240520D01*
X-19416128Y2240522D01*
X-19409500Y2265256D01*
X-19409500Y2683396D01*
X-19389815Y2750435D01*
X-19337011Y2796190D01*
X-19267853Y2806134D01*
X-19233096Y2795778D01*
X-19083669Y2726099D01*
X-19083655Y2726094D01*
X-18855413Y2664938D01*
X-18855403Y2664936D01*
X-18620001Y2644341D01*
X-18620000Y2644341D01*
X-18619999Y2644341D01*
X-18384596Y2664936D01*
X-18384586Y2664938D01*
X-18156344Y2726094D01*
X-18156335Y2726098D01*
X-17942169Y2825965D01*
X-17942165Y2825967D01*
X-17748604Y2961501D01*
X-17748597Y2961506D01*
X-17581506Y3128597D01*
X-17581505Y3128599D01*
X-17451575Y3314158D01*
X-17396998Y3357782D01*
X-17327499Y3364975D01*
X-17265145Y3333453D01*
G37*
%TD.AperFunction*%
%TA.AperFunction,NonConductor*%
G36*
X-39194297Y12910301D02*
G01*
X-39187819Y12904269D01*
X-34496819Y8213269D01*
X-34463334Y8151946D01*
X-34460500Y8125588D01*
X-34460500Y7829090D01*
X-34480185Y7762051D01*
X-34532098Y7716707D01*
X-34537829Y7714035D01*
X-34731401Y7578495D01*
X-34898495Y7411401D01*
X-35028426Y7225838D01*
X-35083001Y7182215D01*
X-35152500Y7175021D01*
X-35214855Y7206543D01*
X-35231571Y7225836D01*
X-35361505Y7411401D01*
X-35528599Y7578495D01*
X-35650498Y7663850D01*
X-35722165Y7714032D01*
X-35722169Y7714034D01*
X-35722170Y7714035D01*
X-35936337Y7813903D01*
X-35967325Y7822206D01*
X-36000268Y7831033D01*
X-36164592Y7875063D01*
X-36372157Y7893223D01*
X-36399999Y7895659D01*
X-36400001Y7895659D01*
X-36427843Y7893223D01*
X-36635408Y7875063D01*
X-36863663Y7813903D01*
X-37077829Y7714035D01*
X-37271401Y7578495D01*
X-37438495Y7411401D01*
X-37574035Y7217829D01*
X-37673903Y7003663D01*
X-37735063Y6775408D01*
X-37755659Y6540000D01*
X-37735063Y6304592D01*
X-37673903Y6076337D01*
X-37574035Y5862170D01*
X-37574034Y5862169D01*
X-37574032Y5862165D01*
X-37568425Y5854158D01*
X-37438495Y5668599D01*
X-37438493Y5668597D01*
X-37316569Y5546673D01*
X-37283084Y5485350D01*
X-37288068Y5415658D01*
X-37329940Y5359725D01*
X-37360915Y5342810D01*
X-37492331Y5293796D01*
X-37607546Y5207546D01*
X-37693796Y5092331D01*
X-37744091Y4957483D01*
X-37750500Y4897873D01*
X-37750499Y4000000D01*
X-37750499Y3102129D01*
X-37750498Y3102123D01*
X-37744091Y3042516D01*
X-37693797Y2907671D01*
X-37693793Y2907664D01*
X-37607547Y2792455D01*
X-37607544Y2792452D01*
X-37492335Y2706206D01*
X-37492328Y2706202D01*
X-37357482Y2655908D01*
X-37357483Y2655908D01*
X-37297883Y2649501D01*
X-37297881Y2649500D01*
X-37297873Y2649500D01*
X-37297864Y2649500D01*
X-35502129Y2649500D01*
X-35502123Y2649501D01*
X-35442516Y2655908D01*
X-35307671Y2706202D01*
X-35307664Y2706206D01*
X-35192455Y2792452D01*
X-35192452Y2792455D01*
X-35106206Y2907664D01*
X-35106203Y2907669D01*
X-35057189Y3039083D01*
X-35015317Y3095016D01*
X-34949853Y3119433D01*
X-34881580Y3104581D01*
X-34853326Y3083430D01*
X-34731402Y2961506D01*
X-34731395Y2961501D01*
X-34537834Y2825967D01*
X-34537830Y2825965D01*
X-34323663Y2726097D01*
X-34323659Y2726096D01*
X-34323655Y2726094D01*
X-34095413Y2664938D01*
X-34095403Y2664936D01*
X-33860001Y2644341D01*
X-33860000Y2644341D01*
X-33859999Y2644341D01*
X-33624596Y2664936D01*
X-33624586Y2664938D01*
X-33396344Y2726094D01*
X-33396335Y2726098D01*
X-33182169Y2825965D01*
X-33182165Y2825967D01*
X-32988596Y2961506D01*
X-32960519Y2989582D01*
X-32899195Y3023065D01*
X-32829504Y3018078D01*
X-32785160Y2989579D01*
X-32462815Y2667233D01*
X-32165063Y2369481D01*
X-32165055Y2369475D01*
X-32028136Y2290426D01*
X-32028131Y2290423D01*
X-31977221Y2276781D01*
X-31875403Y2249499D01*
X-31875401Y2249499D01*
X-31709692Y2249499D01*
X-31709676Y2249500D01*
X-30336669Y2249500D01*
X-30336653Y2249499D01*
X-30329057Y2249499D01*
X-30170946Y2249499D01*
X-30170943Y2249499D01*
X-30018215Y2290423D01*
X-29965353Y2320943D01*
X-29965352Y2320943D01*
X-29881290Y2369475D01*
X-29881282Y2369481D01*
X-29561284Y2689480D01*
X-29496698Y2754066D01*
X-29435374Y2787550D01*
X-29365683Y2782565D01*
X-29356612Y2778766D01*
X-29353095Y2777126D01*
X-29243663Y2726097D01*
X-29243659Y2726096D01*
X-29243655Y2726094D01*
X-29015413Y2664938D01*
X-29015403Y2664936D01*
X-28780001Y2644341D01*
X-28780000Y2644341D01*
X-28779999Y2644341D01*
X-28544596Y2664936D01*
X-28544586Y2664938D01*
X-28316344Y2726094D01*
X-28316335Y2726098D01*
X-28102169Y2825965D01*
X-28102165Y2825967D01*
X-27908604Y2961501D01*
X-27908597Y2961506D01*
X-27905193Y2964911D01*
X-27843870Y2998396D01*
X-27774178Y2993412D01*
X-27729831Y2964911D01*
X-25703275Y938355D01*
X-25703273Y938352D01*
X-25578654Y813733D01*
X-25580672Y811714D01*
X-25547618Y766431D01*
X-25543473Y696684D01*
X-25577694Y635769D01*
X-25639416Y603025D01*
X-25664313Y600500D01*
X-39275500Y600500D01*
X-39342539Y620185D01*
X-39388294Y672989D01*
X-39399500Y724500D01*
X-39399500Y12816588D01*
X-39379815Y12883627D01*
X-39327011Y12929382D01*
X-39257853Y12939326D01*
X-39194297Y12910301D01*
G37*
%TD.AperFunction*%
M02*
