M48
; DRILL file {KiCad 8.0.0} date 2024-03-19T23:43:15+0200
; FORMAT={-:-/ absolute / inch / decimal}
; #@! TF.CreationDate,2024-03-19T23:43:15+02:00
; #@! TF.GenerationSoftware,Kicad,Pcbnew,8.0.0
; #@! TF.FileFunction,Plated,1,2,PTH
FMAT,2
INCH
; #@! TA.AperFunction,Plated,PTH,ComponentDrill
T1C0.0354
; #@! TA.AperFunction,Plated,PTH,ComponentDrill
T2C0.0394
%
G90
G05
T1
X1.1313Y-6.2703
X1.2313Y-6.2703
X1.2598Y-5.9541
X1.2598Y-6.0541
X1.4075Y-5.7661
X1.4075Y-5.8661
X2.3705Y-5.187
X2.4705Y-5.187
X2.6077Y-5.1181
X2.7077Y-5.1181
X2.8429Y-5.187
X2.9429Y-5.187
X3.8774Y-5.7967
X3.8774Y-5.8967
X4.0453Y-5.9925
X4.0453Y-6.0925
X4.0535Y-6.2598
X4.1535Y-6.2598
T2
X2.0047Y-6.9685
X2.0047Y-7.0685
X2.1047Y-6.9685
X2.1047Y-7.0685
X2.2047Y-6.9685
X2.2047Y-7.0685
X2.3047Y-6.9685
X2.3047Y-7.0685
X2.4047Y-6.9685
X2.4047Y-7.0685
X2.5047Y-6.9685
X2.5047Y-7.0685
X2.6047Y-6.9685
X2.6047Y-7.0685
X2.7047Y-6.9685
X2.7047Y-7.0685
X2.8047Y-6.9685
X2.8047Y-7.0685
X2.9047Y-6.9685
X2.9047Y-7.0685
X3.0047Y-6.9685
X3.0047Y-7.0685
X3.1047Y-6.9685
X3.1047Y-7.0685
X3.2047Y-6.9685
X3.2047Y-7.0685
X3.3047Y-6.9685
X3.3047Y-7.0685
M30
