M48
; DRILL file {KiCad 8.0.0} date 2024-03-21T13:03:41+0200
; FORMAT={-:-/ absolute / inch / decimal}
; #@! TF.CreationDate,2024-03-21T13:03:41+02:00
; #@! TF.GenerationSoftware,Kicad,Pcbnew,8.0.0
; #@! TF.FileFunction,Plated,1,2,PTH
FMAT,2
INCH
; #@! TA.AperFunction,Plated,PTH,ComponentDrill
T1C0.0295
; #@! TA.AperFunction,Plated,PTH,ComponentDrill
T2C0.0394
%
G90
G05
T1
X-2.2894Y1.0859
X-2.2894Y0.9859
X-0.8264Y2.1142
X-0.7264Y2.1142
X0.7736Y1.2237
X0.7736Y1.1237
T2
X-1.9921Y1.0728
X-1.9921Y0.9728
X-1.9882Y1.5567
X-1.9882Y1.4567
X-1.4331Y0.2575
X-1.4331Y0.1575
X-1.3331Y0.2575
X-1.3331Y0.1575
X-1.2331Y0.2575
X-1.2331Y0.1575
X-1.1331Y0.2575
X-1.1331Y0.1575
X-1.1012Y1.7205
X-1.0331Y0.2575
X-1.0331Y0.1575
X-1.0012Y1.7205
X-0.9331Y0.2575
X-0.9331Y0.1575
X-0.8331Y0.2575
X-0.8331Y0.1575
X-0.7331Y0.2575
X-0.7331Y0.1575
X-0.6331Y0.2575
X-0.6331Y0.1575
X-0.5331Y0.2575
X-0.5331Y0.1575
X-0.4654Y1.7283
X-0.4331Y0.2575
X-0.4331Y0.1575
X-0.3654Y1.7283
X-0.3331Y0.2575
X-0.3331Y0.1575
X-0.2331Y0.2575
X-0.2331Y0.1575
X-0.1331Y0.2575
X-0.1331Y0.1575
X0.4606Y1.5138
X0.4606Y1.4138
X0.4646Y1.0224
X0.4646Y0.9224
M30
