%TF.GenerationSoftware,KiCad,Pcbnew,8.0.0*%
%TF.CreationDate,2024-03-19T23:43:15+02:00*%
%TF.ProjectId,SensorKiCad-RTHMAT004,53656e73-6f72-44b6-9943-61642d525448,rev?*%
%TF.SameCoordinates,Original*%
%TF.FileFunction,Copper,L2,Bot*%
%TF.FilePolarity,Positive*%
%FSLAX46Y46*%
G04 Gerber Fmt 4.6, Leading zero omitted, Abs format (unit mm)*
G04 Created by KiCad (PCBNEW 8.0.0) date 2024-03-19 23:43:15*
%MOMM*%
%LPD*%
G01*
G04 APERTURE LIST*
G04 Aperture macros list*
%AMRoundRect*
0 Rectangle with rounded corners*
0 $1 Rounding radius*
0 $2 $3 $4 $5 $6 $7 $8 $9 X,Y pos of 4 corners*
0 Add a 4 corners polygon primitive as box body*
4,1,4,$2,$3,$4,$5,$6,$7,$8,$9,$2,$3,0*
0 Add four circle primitives for the rounded corners*
1,1,$1+$1,$2,$3*
1,1,$1+$1,$4,$5*
1,1,$1+$1,$6,$7*
1,1,$1+$1,$8,$9*
0 Add four rect primitives between the rounded corners*
20,1,$1+$1,$2,$3,$4,$5,0*
20,1,$1+$1,$4,$5,$6,$7,0*
20,1,$1+$1,$6,$7,$8,$9,0*
20,1,$1+$1,$8,$9,$2,$3,0*%
G04 Aperture macros list end*
%TA.AperFunction,ComponentPad*%
%ADD10R,1.800000X1.800000*%
%TD*%
%TA.AperFunction,ComponentPad*%
%ADD11C,1.800000*%
%TD*%
%TA.AperFunction,ComponentPad*%
%ADD12R,1.700000X1.700000*%
%TD*%
%TA.AperFunction,ComponentPad*%
%ADD13O,1.700000X1.700000*%
%TD*%
%TA.AperFunction,SMDPad,CuDef*%
%ADD14RoundRect,0.250000X-0.262500X-1.775000X0.262500X-1.775000X0.262500X1.775000X-0.262500X1.775000X0*%
%TD*%
%TA.AperFunction,SMDPad,CuDef*%
%ADD15RoundRect,0.250000X0.262500X1.775000X-0.262500X1.775000X-0.262500X-1.775000X0.262500X-1.775000X0*%
%TD*%
%TA.AperFunction,Conductor*%
%ADD16C,0.200000*%
%TD*%
G04 APERTURE END LIST*
D10*
%TO.P,D1,1,K*%
%TO.N,Net-(D1-K)*%
X31275000Y-159265000D03*
D11*
%TO.P,D1,2,A*%
%TO.N,Net-(D1-A)*%
X28735000Y-159265000D03*
%TD*%
D10*
%TO.P,D9,1,K*%
%TO.N,Net-(D9-K)*%
X102960000Y-159000000D03*
D11*
%TO.P,D9,2,A*%
%TO.N,Net-(D9-A)*%
X105500000Y-159000000D03*
%TD*%
D10*
%TO.P,D5,1,K*%
%TO.N,Net-(D5-K)*%
X35750000Y-149000000D03*
D11*
%TO.P,D5,2,A*%
%TO.N,Net-(D5-A)*%
X35750000Y-146460000D03*
%TD*%
D10*
%TO.P,D8,1,K*%
%TO.N,Net-(D8-K)*%
X98485000Y-149775000D03*
D11*
%TO.P,D8,2,A*%
%TO.N,Net-(D8-A)*%
X98485000Y-147235000D03*
%TD*%
D10*
%TO.P,D7,1,K*%
%TO.N,Net-(D7-K)*%
X72210000Y-131750000D03*
D11*
%TO.P,D7,2,A*%
%TO.N,Net-(D7-A)*%
X74750000Y-131750000D03*
%TD*%
D12*
%TO.P,J1,1,Pin_1*%
%TO.N,unconnected-(J1-Pin_1-Pad1)*%
X50920000Y-179540000D03*
D13*
%TO.P,J1,2,Pin_2*%
%TO.N,/3V3*%
X50920000Y-177000000D03*
%TO.P,J1,3,Pin_3*%
%TO.N,unconnected-(J1-Pin_3-Pad3)*%
X53460000Y-179540000D03*
%TO.P,J1,4,Pin_4*%
%TO.N,/BATT*%
X53460000Y-177000000D03*
%TO.P,J1,5,Pin_5*%
%TO.N,/Signal Left*%
X56000000Y-179540000D03*
%TO.P,J1,6,Pin_6*%
%TO.N,unconnected-(J1-Pin_6-Pad6)*%
X56000000Y-177000000D03*
%TO.P,J1,7,Pin_7*%
%TO.N,/Signal Centre*%
X58540000Y-179540000D03*
%TO.P,J1,8,Pin_8*%
%TO.N,/PWM Left*%
X58540000Y-177000000D03*
%TO.P,J1,9,Pin_9*%
%TO.N,GND*%
X61080000Y-179540000D03*
%TO.P,J1,10,Pin_10*%
%TO.N,/PWM Centre*%
X61080000Y-177000000D03*
%TO.P,J1,11,Pin_11*%
%TO.N,/Signal Right*%
X63620000Y-179540000D03*
%TO.P,J1,12,Pin_12*%
%TO.N,/PWM Right*%
X63620000Y-177000000D03*
%TO.P,J1,13,Pin_13*%
%TO.N,unconnected-(J1-Pin_13-Pad13)*%
X66160000Y-179540000D03*
%TO.P,J1,14,Pin_14*%
%TO.N,unconnected-(J1-Pin_14-Pad14)*%
X66160000Y-177000000D03*
%TO.P,J1,15,Pin_15*%
%TO.N,unconnected-(J1-Pin_15-Pad15)*%
X68700000Y-179540000D03*
%TO.P,J1,16,Pin_16*%
%TO.N,unconnected-(J1-Pin_16-Pad16)*%
X68700000Y-177000000D03*
%TO.P,J1,17,Pin_17*%
%TO.N,unconnected-(J1-Pin_17-Pad17)*%
X71240000Y-179540000D03*
%TO.P,J1,18,Pin_18*%
%TO.N,unconnected-(J1-Pin_18-Pad18)*%
X71240000Y-177000000D03*
%TO.P,J1,19,Pin_19*%
%TO.N,unconnected-(J1-Pin_19-Pad19)*%
X73780000Y-179540000D03*
%TO.P,J1,20,Pin_20*%
%TO.N,unconnected-(J1-Pin_20-Pad20)*%
X73780000Y-177000000D03*
%TO.P,J1,21,Pin_21*%
%TO.N,unconnected-(J1-Pin_21-Pad21)*%
X76320000Y-179540000D03*
%TO.P,J1,22,Pin_22*%
%TO.N,unconnected-(J1-Pin_22-Pad22)*%
X76320000Y-177000000D03*
%TO.P,J1,23,Pin_23*%
%TO.N,unconnected-(J1-Pin_23-Pad23)*%
X78860000Y-179540000D03*
%TO.P,J1,24,Pin_24*%
%TO.N,unconnected-(J1-Pin_24-Pad24)*%
X78860000Y-177000000D03*
%TO.P,J1,25,Pin_25*%
%TO.N,unconnected-(J1-Pin_25-Pad25)*%
X81400000Y-179540000D03*
%TO.P,J1,26,Pin_26*%
%TO.N,unconnected-(J1-Pin_26-Pad26)*%
X81400000Y-177000000D03*
%TO.P,J1,27,Pin_27*%
%TO.N,unconnected-(J1-Pin_27-Pad27)*%
X83940000Y-179540000D03*
%TO.P,J1,28,Pin_28*%
%TO.N,unconnected-(J1-Pin_28-Pad28)*%
X83940000Y-177000000D03*
%TD*%
D10*
%TO.P,D6,1,K*%
%TO.N,Net-(D6-K)*%
X60210000Y-131750000D03*
D11*
%TO.P,D6,2,A*%
%TO.N,Net-(D6-A)*%
X62750000Y-131750000D03*
%TD*%
D10*
%TO.P,D4,1,K*%
%TO.N,/BATT*%
X32000000Y-153775000D03*
D11*
%TO.P,D4,2,A*%
%TO.N,/Signal Left*%
X32000000Y-151235000D03*
%TD*%
D10*
%TO.P,D3,1,K*%
%TO.N,/BATT*%
X68775000Y-130000000D03*
D11*
%TO.P,D3,2,A*%
%TO.N,/Signal Centre*%
X66235000Y-130000000D03*
%TD*%
D10*
%TO.P,D2,1,K*%
%TO.N,/BATT*%
X102750000Y-154750000D03*
D11*
%TO.P,D2,2,A*%
%TO.N,/Signal Right*%
X102750000Y-152210000D03*
%TD*%
D14*
%TO.P,R31,1*%
%TO.N,/Signal Left*%
X64562500Y-160000000D03*
%TO.P,R31,2*%
%TO.N,GND*%
X66437500Y-160000000D03*
%TD*%
D15*
%TO.P,R33,1*%
%TO.N,/Signal Right*%
X70687500Y-160000000D03*
%TO.P,R33,2*%
%TO.N,GND*%
X68812500Y-160000000D03*
%TD*%
%TO.P,R32,1*%
%TO.N,/Signal Centre*%
X68437500Y-153000000D03*
%TO.P,R32,2*%
%TO.N,GND*%
X66562500Y-153000000D03*
%TD*%
D16*
%TO.N,GND*%
X58063654Y-178150000D02*
X59690000Y-178150000D01*
X59690000Y-178150000D02*
X61080000Y-179540000D01*
X68812500Y-166000000D02*
X62230000Y-172582500D01*
X57390000Y-176523654D02*
X57390000Y-177476346D01*
X68812500Y-158312500D02*
X68812500Y-160000000D01*
X66562500Y-153000000D02*
X66312500Y-153250000D01*
X66312500Y-155812500D02*
X68812500Y-158312500D01*
X66437500Y-160000000D02*
X66187500Y-160250000D01*
X57390000Y-177476346D02*
X58063654Y-178150000D01*
X68812500Y-160000000D02*
X68812500Y-166000000D01*
X66312500Y-153250000D02*
X66312500Y-155812500D01*
X66187500Y-160250000D02*
X66187500Y-167726154D01*
X66187500Y-167726154D02*
X57390000Y-176523654D01*
X62230000Y-172582500D02*
X62230000Y-178390000D01*
X62230000Y-178390000D02*
X61080000Y-179540000D01*
%TO.N,/BATT*%
X53460000Y-177913654D02*
X53460000Y-177000000D01*
X32000000Y-153775000D02*
X32000000Y-155540000D01*
X103247057Y-151010000D02*
X103950000Y-151712943D01*
X54610000Y-179776346D02*
X54610000Y-179063654D01*
X86783654Y-154750000D02*
X65000000Y-176533654D01*
X65000000Y-176533654D02*
X65000000Y-177250000D01*
X65000000Y-177250000D02*
X63860000Y-178390000D01*
X68775000Y-130000000D02*
X68775000Y-132775000D01*
X62230000Y-180016346D02*
X61556346Y-180690000D01*
X32000000Y-155540000D02*
X53460000Y-177000000D01*
X103950000Y-153550000D02*
X102750000Y-154750000D01*
X68775000Y-132775000D02*
X87010000Y-151010000D01*
X103950000Y-151712943D02*
X103950000Y-153550000D01*
X63860000Y-178390000D02*
X63143654Y-178390000D01*
X54610000Y-179063654D02*
X53460000Y-177913654D01*
X61556346Y-180690000D02*
X55523654Y-180690000D01*
X87010000Y-151010000D02*
X103247057Y-151010000D01*
X55523654Y-180690000D02*
X54610000Y-179776346D01*
X62230000Y-179303654D02*
X62230000Y-180016346D01*
X63143654Y-178390000D02*
X62230000Y-179303654D01*
X102750000Y-154750000D02*
X86783654Y-154750000D01*
%TO.N,/Signal Left*%
X64312500Y-160250000D02*
X64312500Y-167061154D01*
X54850000Y-176523654D02*
X54850000Y-178390000D01*
X32000000Y-151235000D02*
X60297500Y-151235000D01*
X54850000Y-178390000D02*
X56000000Y-179540000D01*
X64312500Y-167061154D02*
X54850000Y-176523654D01*
X64562500Y-160000000D02*
X64312500Y-160250000D01*
X60297500Y-151235000D02*
X64562500Y-155500000D01*
X64562500Y-155500000D02*
X64562500Y-160000000D01*
%TO.N,/Signal Centre*%
X69875000Y-154437500D02*
X69875000Y-168205000D01*
X69875000Y-168205000D02*
X62630000Y-175450000D01*
X68187500Y-152750000D02*
X68437500Y-153000000D01*
X68437500Y-153000000D02*
X69875000Y-154437500D01*
X66235000Y-130000000D02*
X68187500Y-131952500D01*
X68187500Y-131952500D02*
X68187500Y-152750000D01*
%TO.N,/Signal Right*%
X70687500Y-155250000D02*
X73727500Y-152210000D01*
X70687500Y-160000000D02*
X70687500Y-155250000D01*
X73727500Y-152210000D02*
X102750000Y-152210000D01*
%TD*%
M02*
