%TF.GenerationSoftware,KiCad,Pcbnew,8.0.0*%
%TF.CreationDate,2024-03-20T23:30:35+02:00*%
%TF.ProjectId,SensorKiCad-RTHMAT004,53656e73-6f72-44b6-9943-61642d525448,rev?*%
%TF.SameCoordinates,Original*%
%TF.FileFunction,Paste,Top*%
%TF.FilePolarity,Positive*%
%FSLAX46Y46*%
G04 Gerber Fmt 4.6, Leading zero omitted, Abs format (unit mm)*
G04 Created by KiCad (PCBNEW 8.0.0) date 2024-03-20 23:30:35*
%MOMM*%
%LPD*%
G01*
G04 APERTURE LIST*
G04 Aperture macros list*
%AMRoundRect*
0 Rectangle with rounded corners*
0 $1 Rounding radius*
0 $2 $3 $4 $5 $6 $7 $8 $9 X,Y pos of 4 corners*
0 Add a 4 corners polygon primitive as box body*
4,1,4,$2,$3,$4,$5,$6,$7,$8,$9,$2,$3,0*
0 Add four circle primitives for the rounded corners*
1,1,$1+$1,$2,$3*
1,1,$1+$1,$4,$5*
1,1,$1+$1,$6,$7*
1,1,$1+$1,$8,$9*
0 Add four rect primitives between the rounded corners*
20,1,$1+$1,$2,$3,$4,$5,0*
20,1,$1+$1,$4,$5,$6,$7,0*
20,1,$1+$1,$6,$7,$8,$9,0*
20,1,$1+$1,$8,$9,$2,$3,0*%
G04 Aperture macros list end*
%ADD10RoundRect,0.250000X-0.450000X0.262500X-0.450000X-0.262500X0.450000X-0.262500X0.450000X0.262500X0*%
%ADD11RoundRect,0.250000X0.262500X0.450000X-0.262500X0.450000X-0.262500X-0.450000X0.262500X-0.450000X0*%
%ADD12RoundRect,0.250000X0.312500X0.625000X-0.312500X0.625000X-0.312500X-0.625000X0.312500X-0.625000X0*%
%ADD13RoundRect,0.150000X0.150000X-0.587500X0.150000X0.587500X-0.150000X0.587500X-0.150000X-0.587500X0*%
%ADD14RoundRect,0.250000X0.450000X-0.262500X0.450000X0.262500X-0.450000X0.262500X-0.450000X-0.262500X0*%
%ADD15RoundRect,0.250000X-0.625000X0.312500X-0.625000X-0.312500X0.625000X-0.312500X0.625000X0.312500X0*%
%ADD16RoundRect,0.250000X-0.262500X-0.450000X0.262500X-0.450000X0.262500X0.450000X-0.262500X0.450000X0*%
%ADD17RoundRect,0.150000X0.587500X0.150000X-0.587500X0.150000X-0.587500X-0.150000X0.587500X-0.150000X0*%
%ADD18RoundRect,0.250000X-0.312500X-0.625000X0.312500X-0.625000X0.312500X0.625000X-0.312500X0.625000X0*%
%ADD19RoundRect,0.150000X-0.587500X-0.150000X0.587500X-0.150000X0.587500X0.150000X-0.587500X0.150000X0*%
G04 APERTURE END LIST*
D10*
%TO.C,R33*%
X5900000Y33312500D03*
X5900000Y31487500D03*
%TD*%
%TO.C,R1*%
X-60000000Y17912500D03*
X-60000000Y16087500D03*
%TD*%
D11*
%TO.C,R10*%
X-36975000Y22500000D03*
X-38800000Y22500000D03*
%TD*%
D12*
%TO.C,R37*%
X-16075000Y47500000D03*
X-19000000Y47500000D03*
%TD*%
D11*
%TO.C,R28*%
X2487500Y41750000D03*
X4312500Y41750000D03*
%TD*%
D13*
%TO.C,Q4*%
X-11450000Y37375000D03*
X-9550000Y37375000D03*
X-10500000Y39250000D03*
%TD*%
D11*
%TO.C,R20*%
X-3337500Y46250000D03*
X-5162500Y46250000D03*
%TD*%
D14*
%TO.C,R25*%
X7143750Y19043750D03*
X7143750Y20868750D03*
%TD*%
D15*
%TO.C,R9*%
X-39000000Y40312500D03*
X-39000000Y37387500D03*
%TD*%
D16*
%TO.C,R27*%
X-462500Y27250000D03*
X1362500Y27250000D03*
%TD*%
D14*
%TO.C,R21*%
X16343750Y19043750D03*
X16343750Y20868750D03*
%TD*%
D11*
%TO.C,R36*%
X-16087500Y39000000D03*
X-17912500Y39000000D03*
%TD*%
D14*
%TO.C,R22*%
X11643750Y19043750D03*
X11643750Y20868750D03*
%TD*%
D17*
%TO.C,Q2*%
X-44562500Y38050000D03*
X-44562500Y39950000D03*
X-46437500Y39000000D03*
%TD*%
D16*
%TO.C,R13*%
X-24162500Y33250000D03*
X-22337500Y33250000D03*
%TD*%
D11*
%TO.C,R32*%
X-16087500Y42750000D03*
X-17912500Y42750000D03*
%TD*%
D10*
%TO.C,R38*%
X11100000Y33312500D03*
X11100000Y31487500D03*
%TD*%
%TO.C,R2*%
X-56000000Y17912500D03*
X-56000000Y16087500D03*
%TD*%
D12*
%TO.C,R29*%
X4712500Y44800000D03*
X1787500Y44800000D03*
%TD*%
D15*
%TO.C,R39*%
X16700000Y33362500D03*
X16700000Y30437500D03*
%TD*%
D13*
%TO.C,Q3*%
X-26700000Y36900000D03*
X-24800000Y36900000D03*
X-25750000Y38775000D03*
%TD*%
D16*
%TO.C,R26*%
X-462500Y32550000D03*
X1362500Y32550000D03*
%TD*%
D18*
%TO.C,R19*%
X-13212500Y29550000D03*
X-10287500Y29550000D03*
%TD*%
D11*
%TO.C,R4*%
X-47087500Y17000000D03*
X-48912500Y17000000D03*
%TD*%
D17*
%TO.C,Q1*%
X-43562500Y25050000D03*
X-43562500Y26950000D03*
X-45437500Y26000000D03*
%TD*%
D18*
%TO.C,R14*%
X-24462500Y29500000D03*
X-21537500Y29500000D03*
%TD*%
D11*
%TO.C,R6*%
X-36975000Y32500000D03*
X-38800000Y32500000D03*
%TD*%
D18*
%TO.C,R24*%
X2037500Y16050000D03*
X4962500Y16050000D03*
%TD*%
D10*
%TO.C,R8*%
X-34000000Y38912500D03*
X-34000000Y37087500D03*
%TD*%
D16*
%TO.C,R30*%
X-412500Y22250000D03*
X1412500Y22250000D03*
%TD*%
%TO.C,R12*%
X-37762500Y45500000D03*
X-35937500Y45500000D03*
%TD*%
D10*
%TO.C,R31*%
X-51000000Y33412500D03*
X-51000000Y31587500D03*
%TD*%
D16*
%TO.C,R15*%
X-37762500Y53750000D03*
X-35937500Y53750000D03*
%TD*%
D11*
%TO.C,R17*%
X-3337500Y51000000D03*
X-5162500Y51000000D03*
%TD*%
D19*
%TO.C,Q5*%
X5862500Y25650000D03*
X5862500Y23750000D03*
X7737500Y24700000D03*
%TD*%
D10*
%TO.C,R3*%
X-52000000Y17912500D03*
X-52000000Y16087500D03*
%TD*%
D11*
%TO.C,R7*%
X-36975000Y27500000D03*
X-38800000Y27500000D03*
%TD*%
D16*
%TO.C,R23*%
X2987500Y18700000D03*
X4812500Y18700000D03*
%TD*%
D12*
%TO.C,R5*%
X-46537500Y21000000D03*
X-49462500Y21000000D03*
%TD*%
D15*
%TO.C,R35*%
X-56000000Y34462500D03*
X-56000000Y31537500D03*
%TD*%
D10*
%TO.C,R34*%
X-46000000Y33325000D03*
X-46000000Y31500000D03*
%TD*%
D11*
%TO.C,R16*%
X-3337500Y41250000D03*
X-5162500Y41250000D03*
%TD*%
D16*
%TO.C,R18*%
X-12912500Y32800000D03*
X-11087500Y32800000D03*
%TD*%
%TO.C,R11*%
X-37762500Y49500000D03*
X-35937500Y49500000D03*
%TD*%
D19*
%TO.C,Q6*%
X6412500Y38450000D03*
X6412500Y36550000D03*
X8287500Y37500000D03*
%TD*%
M02*
