%TF.GenerationSoftware,KiCad,Pcbnew,8.0.0*%
%TF.CreationDate,2024-03-19T23:43:15+02:00*%
%TF.ProjectId,SensorKiCad-RTHMAT004,53656e73-6f72-44b6-9943-61642d525448,rev?*%
%TF.SameCoordinates,Original*%
%TF.FileFunction,Legend,Top*%
%TF.FilePolarity,Positive*%
%FSLAX46Y46*%
G04 Gerber Fmt 4.6, Leading zero omitted, Abs format (unit mm)*
G04 Created by KiCad (PCBNEW 8.0.0) date 2024-03-19 23:43:15*
%MOMM*%
%LPD*%
G01*
G04 APERTURE LIST*
G04 Aperture macros list*
%AMRoundRect*
0 Rectangle with rounded corners*
0 $1 Rounding radius*
0 $2 $3 $4 $5 $6 $7 $8 $9 X,Y pos of 4 corners*
0 Add a 4 corners polygon primitive as box body*
4,1,4,$2,$3,$4,$5,$6,$7,$8,$9,$2,$3,0*
0 Add four circle primitives for the rounded corners*
1,1,$1+$1,$2,$3*
1,1,$1+$1,$4,$5*
1,1,$1+$1,$6,$7*
1,1,$1+$1,$8,$9*
0 Add four rect primitives between the rounded corners*
20,1,$1+$1,$2,$3,$4,$5,0*
20,1,$1+$1,$4,$5,$6,$7,0*
20,1,$1+$1,$6,$7,$8,$9,0*
20,1,$1+$1,$8,$9,$2,$3,0*%
%AMFreePoly0*
4,1,19,0.500000,-0.750000,0.000000,-0.750000,0.000000,-0.744911,-0.071157,-0.744911,-0.207708,-0.704816,-0.327430,-0.627875,-0.420627,-0.520320,-0.479746,-0.390866,-0.500000,-0.250000,-0.500000,0.250000,-0.479746,0.390866,-0.420627,0.520320,-0.327430,0.627875,-0.207708,0.704816,-0.071157,0.744911,0.000000,0.744911,0.000000,0.750000,0.500000,0.750000,0.500000,-0.750000,0.500000,-0.750000,
$1*%
%AMFreePoly1*
4,1,19,0.000000,0.744911,0.071157,0.744911,0.207708,0.704816,0.327430,0.627875,0.420627,0.520320,0.479746,0.390866,0.500000,0.250000,0.500000,-0.250000,0.479746,-0.390866,0.420627,-0.520320,0.327430,-0.627875,0.207708,-0.704816,0.071157,-0.744911,0.000000,-0.744911,0.000000,-0.750000,-0.500000,-0.750000,-0.500000,0.750000,0.000000,0.750000,0.000000,0.744911,0.000000,0.744911,
$1*%
G04 Aperture macros list end*
%ADD10C,0.150000*%
%ADD11C,0.120000*%
%ADD12RoundRect,0.250000X-1.775000X0.262500X-1.775000X-0.262500X1.775000X-0.262500X1.775000X0.262500X0*%
%ADD13FreePoly0,0.000000*%
%ADD14FreePoly1,0.000000*%
%ADD15FreePoly0,270.000000*%
%ADD16FreePoly1,270.000000*%
%ADD17FreePoly0,180.000000*%
%ADD18FreePoly1,180.000000*%
%ADD19RoundRect,0.250000X-0.262500X-1.775000X0.262500X-1.775000X0.262500X1.775000X-0.262500X1.775000X0*%
%ADD20R,1.800000X1.800000*%
%ADD21C,1.800000*%
%ADD22RoundRect,0.250000X0.262500X1.775000X-0.262500X1.775000X-0.262500X-1.775000X0.262500X-1.775000X0*%
%ADD23FreePoly0,90.000000*%
%ADD24FreePoly1,90.000000*%
%ADD25RoundRect,0.150000X-0.587500X-0.150000X0.587500X-0.150000X0.587500X0.150000X-0.587500X0.150000X0*%
%ADD26RoundRect,0.150000X0.587500X0.150000X-0.587500X0.150000X-0.587500X-0.150000X0.587500X-0.150000X0*%
%ADD27RoundRect,0.150000X-0.150000X0.587500X-0.150000X-0.587500X0.150000X-0.587500X0.150000X0.587500X0*%
%ADD28RoundRect,0.150000X0.150000X-0.587500X0.150000X0.587500X-0.150000X0.587500X-0.150000X-0.587500X0*%
%ADD29R,1.700000X1.700000*%
%ADD30O,1.700000X1.700000*%
G04 APERTURE END LIST*
D10*
X102434819Y-167705357D02*
X101958628Y-168038690D01*
X102434819Y-168276785D02*
X101434819Y-168276785D01*
X101434819Y-168276785D02*
X101434819Y-167895833D01*
X101434819Y-167895833D02*
X101482438Y-167800595D01*
X101482438Y-167800595D02*
X101530057Y-167752976D01*
X101530057Y-167752976D02*
X101625295Y-167705357D01*
X101625295Y-167705357D02*
X101768152Y-167705357D01*
X101768152Y-167705357D02*
X101863390Y-167752976D01*
X101863390Y-167752976D02*
X101911009Y-167800595D01*
X101911009Y-167800595D02*
X101958628Y-167895833D01*
X101958628Y-167895833D02*
X101958628Y-168276785D01*
X101530057Y-167324404D02*
X101482438Y-167276785D01*
X101482438Y-167276785D02*
X101434819Y-167181547D01*
X101434819Y-167181547D02*
X101434819Y-166943452D01*
X101434819Y-166943452D02*
X101482438Y-166848214D01*
X101482438Y-166848214D02*
X101530057Y-166800595D01*
X101530057Y-166800595D02*
X101625295Y-166752976D01*
X101625295Y-166752976D02*
X101720533Y-166752976D01*
X101720533Y-166752976D02*
X101863390Y-166800595D01*
X101863390Y-166800595D02*
X102434819Y-167372023D01*
X102434819Y-167372023D02*
X102434819Y-166752976D01*
X101434819Y-166419642D02*
X101434819Y-165752976D01*
X101434819Y-165752976D02*
X102434819Y-166181547D01*
X39766666Y-148654819D02*
X39766666Y-149369104D01*
X39766666Y-149369104D02*
X39719047Y-149511961D01*
X39719047Y-149511961D02*
X39623809Y-149607200D01*
X39623809Y-149607200D02*
X39480952Y-149654819D01*
X39480952Y-149654819D02*
X39385714Y-149654819D01*
X40242857Y-149654819D02*
X40242857Y-148654819D01*
X40242857Y-148654819D02*
X40623809Y-148654819D01*
X40623809Y-148654819D02*
X40719047Y-148702438D01*
X40719047Y-148702438D02*
X40766666Y-148750057D01*
X40766666Y-148750057D02*
X40814285Y-148845295D01*
X40814285Y-148845295D02*
X40814285Y-148988152D01*
X40814285Y-148988152D02*
X40766666Y-149083390D01*
X40766666Y-149083390D02*
X40719047Y-149131009D01*
X40719047Y-149131009D02*
X40623809Y-149178628D01*
X40623809Y-149178628D02*
X40242857Y-149178628D01*
X41671428Y-148988152D02*
X41671428Y-149654819D01*
X41433333Y-148607200D02*
X41195238Y-149321485D01*
X41195238Y-149321485D02*
X41814285Y-149321485D01*
X69654819Y-144809523D02*
X70369104Y-144809523D01*
X70369104Y-144809523D02*
X70511961Y-144857142D01*
X70511961Y-144857142D02*
X70607200Y-144952380D01*
X70607200Y-144952380D02*
X70654819Y-145095237D01*
X70654819Y-145095237D02*
X70654819Y-145190475D01*
X70654819Y-144333332D02*
X69654819Y-144333332D01*
X69654819Y-144333332D02*
X69654819Y-143952380D01*
X69654819Y-143952380D02*
X69702438Y-143857142D01*
X69702438Y-143857142D02*
X69750057Y-143809523D01*
X69750057Y-143809523D02*
X69845295Y-143761904D01*
X69845295Y-143761904D02*
X69988152Y-143761904D01*
X69988152Y-143761904D02*
X70083390Y-143809523D01*
X70083390Y-143809523D02*
X70131009Y-143857142D01*
X70131009Y-143857142D02*
X70178628Y-143952380D01*
X70178628Y-143952380D02*
X70178628Y-144333332D01*
X70654819Y-142809523D02*
X70654819Y-143380951D01*
X70654819Y-143095237D02*
X69654819Y-143095237D01*
X69654819Y-143095237D02*
X69797676Y-143190475D01*
X69797676Y-143190475D02*
X69892914Y-143285713D01*
X69892914Y-143285713D02*
X69940533Y-143380951D01*
X70654819Y-141857142D02*
X70654819Y-142428570D01*
X70654819Y-142142856D02*
X69654819Y-142142856D01*
X69654819Y-142142856D02*
X69797676Y-142238094D01*
X69797676Y-142238094D02*
X69892914Y-142333332D01*
X69892914Y-142333332D02*
X69940533Y-142428570D01*
X100540476Y-161654819D02*
X100540476Y-162369104D01*
X100540476Y-162369104D02*
X100492857Y-162511961D01*
X100492857Y-162511961D02*
X100397619Y-162607200D01*
X100397619Y-162607200D02*
X100254762Y-162654819D01*
X100254762Y-162654819D02*
X100159524Y-162654819D01*
X101016667Y-162654819D02*
X101016667Y-161654819D01*
X101016667Y-161654819D02*
X101397619Y-161654819D01*
X101397619Y-161654819D02*
X101492857Y-161702438D01*
X101492857Y-161702438D02*
X101540476Y-161750057D01*
X101540476Y-161750057D02*
X101588095Y-161845295D01*
X101588095Y-161845295D02*
X101588095Y-161988152D01*
X101588095Y-161988152D02*
X101540476Y-162083390D01*
X101540476Y-162083390D02*
X101492857Y-162131009D01*
X101492857Y-162131009D02*
X101397619Y-162178628D01*
X101397619Y-162178628D02*
X101016667Y-162178628D01*
X102540476Y-162654819D02*
X101969048Y-162654819D01*
X102254762Y-162654819D02*
X102254762Y-161654819D01*
X102254762Y-161654819D02*
X102159524Y-161797676D01*
X102159524Y-161797676D02*
X102064286Y-161892914D01*
X102064286Y-161892914D02*
X101969048Y-161940533D01*
X103111905Y-162083390D02*
X103016667Y-162035771D01*
X103016667Y-162035771D02*
X102969048Y-161988152D01*
X102969048Y-161988152D02*
X102921429Y-161892914D01*
X102921429Y-161892914D02*
X102921429Y-161845295D01*
X102921429Y-161845295D02*
X102969048Y-161750057D01*
X102969048Y-161750057D02*
X103016667Y-161702438D01*
X103016667Y-161702438D02*
X103111905Y-161654819D01*
X103111905Y-161654819D02*
X103302381Y-161654819D01*
X103302381Y-161654819D02*
X103397619Y-161702438D01*
X103397619Y-161702438D02*
X103445238Y-161750057D01*
X103445238Y-161750057D02*
X103492857Y-161845295D01*
X103492857Y-161845295D02*
X103492857Y-161892914D01*
X103492857Y-161892914D02*
X103445238Y-161988152D01*
X103445238Y-161988152D02*
X103397619Y-162035771D01*
X103397619Y-162035771D02*
X103302381Y-162083390D01*
X103302381Y-162083390D02*
X103111905Y-162083390D01*
X103111905Y-162083390D02*
X103016667Y-162131009D01*
X103016667Y-162131009D02*
X102969048Y-162178628D01*
X102969048Y-162178628D02*
X102921429Y-162273866D01*
X102921429Y-162273866D02*
X102921429Y-162464342D01*
X102921429Y-162464342D02*
X102969048Y-162559580D01*
X102969048Y-162559580D02*
X103016667Y-162607200D01*
X103016667Y-162607200D02*
X103111905Y-162654819D01*
X103111905Y-162654819D02*
X103302381Y-162654819D01*
X103302381Y-162654819D02*
X103397619Y-162607200D01*
X103397619Y-162607200D02*
X103445238Y-162559580D01*
X103445238Y-162559580D02*
X103492857Y-162464342D01*
X103492857Y-162464342D02*
X103492857Y-162273866D01*
X103492857Y-162273866D02*
X103445238Y-162178628D01*
X103445238Y-162178628D02*
X103397619Y-162131009D01*
X103397619Y-162131009D02*
X103302381Y-162083390D01*
X31516666Y-165254819D02*
X31516666Y-165969104D01*
X31516666Y-165969104D02*
X31469047Y-166111961D01*
X31469047Y-166111961D02*
X31373809Y-166207200D01*
X31373809Y-166207200D02*
X31230952Y-166254819D01*
X31230952Y-166254819D02*
X31135714Y-166254819D01*
X31992857Y-166254819D02*
X31992857Y-165254819D01*
X31992857Y-165254819D02*
X32373809Y-165254819D01*
X32373809Y-165254819D02*
X32469047Y-165302438D01*
X32469047Y-165302438D02*
X32516666Y-165350057D01*
X32516666Y-165350057D02*
X32564285Y-165445295D01*
X32564285Y-165445295D02*
X32564285Y-165588152D01*
X32564285Y-165588152D02*
X32516666Y-165683390D01*
X32516666Y-165683390D02*
X32469047Y-165731009D01*
X32469047Y-165731009D02*
X32373809Y-165778628D01*
X32373809Y-165778628D02*
X31992857Y-165778628D01*
X33516666Y-166254819D02*
X32945238Y-166254819D01*
X33230952Y-166254819D02*
X33230952Y-165254819D01*
X33230952Y-165254819D02*
X33135714Y-165397676D01*
X33135714Y-165397676D02*
X33040476Y-165492914D01*
X33040476Y-165492914D02*
X32945238Y-165540533D01*
X44607142Y-142974819D02*
X44273809Y-142498628D01*
X44035714Y-142974819D02*
X44035714Y-141974819D01*
X44035714Y-141974819D02*
X44416666Y-141974819D01*
X44416666Y-141974819D02*
X44511904Y-142022438D01*
X44511904Y-142022438D02*
X44559523Y-142070057D01*
X44559523Y-142070057D02*
X44607142Y-142165295D01*
X44607142Y-142165295D02*
X44607142Y-142308152D01*
X44607142Y-142308152D02*
X44559523Y-142403390D01*
X44559523Y-142403390D02*
X44511904Y-142451009D01*
X44511904Y-142451009D02*
X44416666Y-142498628D01*
X44416666Y-142498628D02*
X44035714Y-142498628D01*
X45559523Y-142974819D02*
X44988095Y-142974819D01*
X45273809Y-142974819D02*
X45273809Y-141974819D01*
X45273809Y-141974819D02*
X45178571Y-142117676D01*
X45178571Y-142117676D02*
X45083333Y-142212914D01*
X45083333Y-142212914D02*
X44988095Y-142260533D01*
X46178571Y-141974819D02*
X46273809Y-141974819D01*
X46273809Y-141974819D02*
X46369047Y-142022438D01*
X46369047Y-142022438D02*
X46416666Y-142070057D01*
X46416666Y-142070057D02*
X46464285Y-142165295D01*
X46464285Y-142165295D02*
X46511904Y-142355771D01*
X46511904Y-142355771D02*
X46511904Y-142593866D01*
X46511904Y-142593866D02*
X46464285Y-142784342D01*
X46464285Y-142784342D02*
X46416666Y-142879580D01*
X46416666Y-142879580D02*
X46369047Y-142927200D01*
X46369047Y-142927200D02*
X46273809Y-142974819D01*
X46273809Y-142974819D02*
X46178571Y-142974819D01*
X46178571Y-142974819D02*
X46083333Y-142927200D01*
X46083333Y-142927200D02*
X46035714Y-142879580D01*
X46035714Y-142879580D02*
X45988095Y-142784342D01*
X45988095Y-142784342D02*
X45940476Y-142593866D01*
X45940476Y-142593866D02*
X45940476Y-142355771D01*
X45940476Y-142355771D02*
X45988095Y-142165295D01*
X45988095Y-142165295D02*
X46035714Y-142070057D01*
X46035714Y-142070057D02*
X46083333Y-142022438D01*
X46083333Y-142022438D02*
X46178571Y-141974819D01*
X29266905Y-162679819D02*
X29266905Y-161679819D01*
X29266905Y-161679819D02*
X29505000Y-161679819D01*
X29505000Y-161679819D02*
X29647857Y-161727438D01*
X29647857Y-161727438D02*
X29743095Y-161822676D01*
X29743095Y-161822676D02*
X29790714Y-161917914D01*
X29790714Y-161917914D02*
X29838333Y-162108390D01*
X29838333Y-162108390D02*
X29838333Y-162251247D01*
X29838333Y-162251247D02*
X29790714Y-162441723D01*
X29790714Y-162441723D02*
X29743095Y-162536961D01*
X29743095Y-162536961D02*
X29647857Y-162632200D01*
X29647857Y-162632200D02*
X29505000Y-162679819D01*
X29505000Y-162679819D02*
X29266905Y-162679819D01*
X30790714Y-162679819D02*
X30219286Y-162679819D01*
X30505000Y-162679819D02*
X30505000Y-161679819D01*
X30505000Y-161679819D02*
X30409762Y-161822676D01*
X30409762Y-161822676D02*
X30314524Y-161917914D01*
X30314524Y-161917914D02*
X30219286Y-161965533D01*
X70757142Y-138624819D02*
X70423809Y-138148628D01*
X70185714Y-138624819D02*
X70185714Y-137624819D01*
X70185714Y-137624819D02*
X70566666Y-137624819D01*
X70566666Y-137624819D02*
X70661904Y-137672438D01*
X70661904Y-137672438D02*
X70709523Y-137720057D01*
X70709523Y-137720057D02*
X70757142Y-137815295D01*
X70757142Y-137815295D02*
X70757142Y-137958152D01*
X70757142Y-137958152D02*
X70709523Y-138053390D01*
X70709523Y-138053390D02*
X70661904Y-138101009D01*
X70661904Y-138101009D02*
X70566666Y-138148628D01*
X70566666Y-138148628D02*
X70185714Y-138148628D01*
X71709523Y-138624819D02*
X71138095Y-138624819D01*
X71423809Y-138624819D02*
X71423809Y-137624819D01*
X71423809Y-137624819D02*
X71328571Y-137767676D01*
X71328571Y-137767676D02*
X71233333Y-137862914D01*
X71233333Y-137862914D02*
X71138095Y-137910533D01*
X72042857Y-137624819D02*
X72709523Y-137624819D01*
X72709523Y-137624819D02*
X72280952Y-138624819D01*
X32934819Y-167166666D02*
X32458628Y-167499999D01*
X32934819Y-167738094D02*
X31934819Y-167738094D01*
X31934819Y-167738094D02*
X31934819Y-167357142D01*
X31934819Y-167357142D02*
X31982438Y-167261904D01*
X31982438Y-167261904D02*
X32030057Y-167214285D01*
X32030057Y-167214285D02*
X32125295Y-167166666D01*
X32125295Y-167166666D02*
X32268152Y-167166666D01*
X32268152Y-167166666D02*
X32363390Y-167214285D01*
X32363390Y-167214285D02*
X32411009Y-167261904D01*
X32411009Y-167261904D02*
X32458628Y-167357142D01*
X32458628Y-167357142D02*
X32458628Y-167738094D01*
X32934819Y-166214285D02*
X32934819Y-166785713D01*
X32934819Y-166499999D02*
X31934819Y-166499999D01*
X31934819Y-166499999D02*
X32077676Y-166595237D01*
X32077676Y-166595237D02*
X32172914Y-166690475D01*
X32172914Y-166690475D02*
X32220533Y-166785713D01*
X103491905Y-156494819D02*
X103491905Y-155494819D01*
X103491905Y-155494819D02*
X103730000Y-155494819D01*
X103730000Y-155494819D02*
X103872857Y-155542438D01*
X103872857Y-155542438D02*
X103968095Y-155637676D01*
X103968095Y-155637676D02*
X104015714Y-155732914D01*
X104015714Y-155732914D02*
X104063333Y-155923390D01*
X104063333Y-155923390D02*
X104063333Y-156066247D01*
X104063333Y-156066247D02*
X104015714Y-156256723D01*
X104015714Y-156256723D02*
X103968095Y-156351961D01*
X103968095Y-156351961D02*
X103872857Y-156447200D01*
X103872857Y-156447200D02*
X103730000Y-156494819D01*
X103730000Y-156494819D02*
X103491905Y-156494819D01*
X104539524Y-156494819D02*
X104730000Y-156494819D01*
X104730000Y-156494819D02*
X104825238Y-156447200D01*
X104825238Y-156447200D02*
X104872857Y-156399580D01*
X104872857Y-156399580D02*
X104968095Y-156256723D01*
X104968095Y-156256723D02*
X105015714Y-156066247D01*
X105015714Y-156066247D02*
X105015714Y-155685295D01*
X105015714Y-155685295D02*
X104968095Y-155590057D01*
X104968095Y-155590057D02*
X104920476Y-155542438D01*
X104920476Y-155542438D02*
X104825238Y-155494819D01*
X104825238Y-155494819D02*
X104634762Y-155494819D01*
X104634762Y-155494819D02*
X104539524Y-155542438D01*
X104539524Y-155542438D02*
X104491905Y-155590057D01*
X104491905Y-155590057D02*
X104444286Y-155685295D01*
X104444286Y-155685295D02*
X104444286Y-155923390D01*
X104444286Y-155923390D02*
X104491905Y-156018628D01*
X104491905Y-156018628D02*
X104539524Y-156066247D01*
X104539524Y-156066247D02*
X104634762Y-156113866D01*
X104634762Y-156113866D02*
X104825238Y-156113866D01*
X104825238Y-156113866D02*
X104920476Y-156066247D01*
X104920476Y-156066247D02*
X104968095Y-156018628D01*
X104968095Y-156018628D02*
X105015714Y-155923390D01*
X77432142Y-147434819D02*
X77098809Y-146958628D01*
X76860714Y-147434819D02*
X76860714Y-146434819D01*
X76860714Y-146434819D02*
X77241666Y-146434819D01*
X77241666Y-146434819D02*
X77336904Y-146482438D01*
X77336904Y-146482438D02*
X77384523Y-146530057D01*
X77384523Y-146530057D02*
X77432142Y-146625295D01*
X77432142Y-146625295D02*
X77432142Y-146768152D01*
X77432142Y-146768152D02*
X77384523Y-146863390D01*
X77384523Y-146863390D02*
X77336904Y-146911009D01*
X77336904Y-146911009D02*
X77241666Y-146958628D01*
X77241666Y-146958628D02*
X76860714Y-146958628D01*
X78384523Y-147434819D02*
X77813095Y-147434819D01*
X78098809Y-147434819D02*
X78098809Y-146434819D01*
X78098809Y-146434819D02*
X78003571Y-146577676D01*
X78003571Y-146577676D02*
X77908333Y-146672914D01*
X77908333Y-146672914D02*
X77813095Y-146720533D01*
X78955952Y-146863390D02*
X78860714Y-146815771D01*
X78860714Y-146815771D02*
X78813095Y-146768152D01*
X78813095Y-146768152D02*
X78765476Y-146672914D01*
X78765476Y-146672914D02*
X78765476Y-146625295D01*
X78765476Y-146625295D02*
X78813095Y-146530057D01*
X78813095Y-146530057D02*
X78860714Y-146482438D01*
X78860714Y-146482438D02*
X78955952Y-146434819D01*
X78955952Y-146434819D02*
X79146428Y-146434819D01*
X79146428Y-146434819D02*
X79241666Y-146482438D01*
X79241666Y-146482438D02*
X79289285Y-146530057D01*
X79289285Y-146530057D02*
X79336904Y-146625295D01*
X79336904Y-146625295D02*
X79336904Y-146672914D01*
X79336904Y-146672914D02*
X79289285Y-146768152D01*
X79289285Y-146768152D02*
X79241666Y-146815771D01*
X79241666Y-146815771D02*
X79146428Y-146863390D01*
X79146428Y-146863390D02*
X78955952Y-146863390D01*
X78955952Y-146863390D02*
X78860714Y-146911009D01*
X78860714Y-146911009D02*
X78813095Y-146958628D01*
X78813095Y-146958628D02*
X78765476Y-147053866D01*
X78765476Y-147053866D02*
X78765476Y-147244342D01*
X78765476Y-147244342D02*
X78813095Y-147339580D01*
X78813095Y-147339580D02*
X78860714Y-147387200D01*
X78860714Y-147387200D02*
X78955952Y-147434819D01*
X78955952Y-147434819D02*
X79146428Y-147434819D01*
X79146428Y-147434819D02*
X79241666Y-147387200D01*
X79241666Y-147387200D02*
X79289285Y-147339580D01*
X79289285Y-147339580D02*
X79336904Y-147244342D01*
X79336904Y-147244342D02*
X79336904Y-147053866D01*
X79336904Y-147053866D02*
X79289285Y-146958628D01*
X79289285Y-146958628D02*
X79241666Y-146911009D01*
X79241666Y-146911009D02*
X79146428Y-146863390D01*
X41533333Y-163234819D02*
X41200000Y-162758628D01*
X40961905Y-163234819D02*
X40961905Y-162234819D01*
X40961905Y-162234819D02*
X41342857Y-162234819D01*
X41342857Y-162234819D02*
X41438095Y-162282438D01*
X41438095Y-162282438D02*
X41485714Y-162330057D01*
X41485714Y-162330057D02*
X41533333Y-162425295D01*
X41533333Y-162425295D02*
X41533333Y-162568152D01*
X41533333Y-162568152D02*
X41485714Y-162663390D01*
X41485714Y-162663390D02*
X41438095Y-162711009D01*
X41438095Y-162711009D02*
X41342857Y-162758628D01*
X41342857Y-162758628D02*
X40961905Y-162758628D01*
X42390476Y-162568152D02*
X42390476Y-163234819D01*
X42152381Y-162187200D02*
X41914286Y-162901485D01*
X41914286Y-162901485D02*
X42533333Y-162901485D01*
X48583333Y-148934819D02*
X48250000Y-148458628D01*
X48011905Y-148934819D02*
X48011905Y-147934819D01*
X48011905Y-147934819D02*
X48392857Y-147934819D01*
X48392857Y-147934819D02*
X48488095Y-147982438D01*
X48488095Y-147982438D02*
X48535714Y-148030057D01*
X48535714Y-148030057D02*
X48583333Y-148125295D01*
X48583333Y-148125295D02*
X48583333Y-148268152D01*
X48583333Y-148268152D02*
X48535714Y-148363390D01*
X48535714Y-148363390D02*
X48488095Y-148411009D01*
X48488095Y-148411009D02*
X48392857Y-148458628D01*
X48392857Y-148458628D02*
X48011905Y-148458628D01*
X49059524Y-148934819D02*
X49250000Y-148934819D01*
X49250000Y-148934819D02*
X49345238Y-148887200D01*
X49345238Y-148887200D02*
X49392857Y-148839580D01*
X49392857Y-148839580D02*
X49488095Y-148696723D01*
X49488095Y-148696723D02*
X49535714Y-148506247D01*
X49535714Y-148506247D02*
X49535714Y-148125295D01*
X49535714Y-148125295D02*
X49488095Y-148030057D01*
X49488095Y-148030057D02*
X49440476Y-147982438D01*
X49440476Y-147982438D02*
X49345238Y-147934819D01*
X49345238Y-147934819D02*
X49154762Y-147934819D01*
X49154762Y-147934819D02*
X49059524Y-147982438D01*
X49059524Y-147982438D02*
X49011905Y-148030057D01*
X49011905Y-148030057D02*
X48964286Y-148125295D01*
X48964286Y-148125295D02*
X48964286Y-148363390D01*
X48964286Y-148363390D02*
X49011905Y-148458628D01*
X49011905Y-148458628D02*
X49059524Y-148506247D01*
X49059524Y-148506247D02*
X49154762Y-148553866D01*
X49154762Y-148553866D02*
X49345238Y-148553866D01*
X49345238Y-148553866D02*
X49440476Y-148506247D01*
X49440476Y-148506247D02*
X49488095Y-148458628D01*
X49488095Y-148458628D02*
X49535714Y-148363390D01*
X53434819Y-154166666D02*
X52958628Y-154499999D01*
X53434819Y-154738094D02*
X52434819Y-154738094D01*
X52434819Y-154738094D02*
X52434819Y-154357142D01*
X52434819Y-154357142D02*
X52482438Y-154261904D01*
X52482438Y-154261904D02*
X52530057Y-154214285D01*
X52530057Y-154214285D02*
X52625295Y-154166666D01*
X52625295Y-154166666D02*
X52768152Y-154166666D01*
X52768152Y-154166666D02*
X52863390Y-154214285D01*
X52863390Y-154214285D02*
X52911009Y-154261904D01*
X52911009Y-154261904D02*
X52958628Y-154357142D01*
X52958628Y-154357142D02*
X52958628Y-154738094D01*
X52863390Y-153595237D02*
X52815771Y-153690475D01*
X52815771Y-153690475D02*
X52768152Y-153738094D01*
X52768152Y-153738094D02*
X52672914Y-153785713D01*
X52672914Y-153785713D02*
X52625295Y-153785713D01*
X52625295Y-153785713D02*
X52530057Y-153738094D01*
X52530057Y-153738094D02*
X52482438Y-153690475D01*
X52482438Y-153690475D02*
X52434819Y-153595237D01*
X52434819Y-153595237D02*
X52434819Y-153404761D01*
X52434819Y-153404761D02*
X52482438Y-153309523D01*
X52482438Y-153309523D02*
X52530057Y-153261904D01*
X52530057Y-153261904D02*
X52625295Y-153214285D01*
X52625295Y-153214285D02*
X52672914Y-153214285D01*
X52672914Y-153214285D02*
X52768152Y-153261904D01*
X52768152Y-153261904D02*
X52815771Y-153309523D01*
X52815771Y-153309523D02*
X52863390Y-153404761D01*
X52863390Y-153404761D02*
X52863390Y-153595237D01*
X52863390Y-153595237D02*
X52911009Y-153690475D01*
X52911009Y-153690475D02*
X52958628Y-153738094D01*
X52958628Y-153738094D02*
X53053866Y-153785713D01*
X53053866Y-153785713D02*
X53244342Y-153785713D01*
X53244342Y-153785713D02*
X53339580Y-153738094D01*
X53339580Y-153738094D02*
X53387200Y-153690475D01*
X53387200Y-153690475D02*
X53434819Y-153595237D01*
X53434819Y-153595237D02*
X53434819Y-153404761D01*
X53434819Y-153404761D02*
X53387200Y-153309523D01*
X53387200Y-153309523D02*
X53339580Y-153261904D01*
X53339580Y-153261904D02*
X53244342Y-153214285D01*
X53244342Y-153214285D02*
X53053866Y-153214285D01*
X53053866Y-153214285D02*
X52958628Y-153261904D01*
X52958628Y-153261904D02*
X52911009Y-153309523D01*
X52911009Y-153309523D02*
X52863390Y-153404761D01*
X94934819Y-154955357D02*
X94458628Y-155288690D01*
X94934819Y-155526785D02*
X93934819Y-155526785D01*
X93934819Y-155526785D02*
X93934819Y-155145833D01*
X93934819Y-155145833D02*
X93982438Y-155050595D01*
X93982438Y-155050595D02*
X94030057Y-155002976D01*
X94030057Y-155002976D02*
X94125295Y-154955357D01*
X94125295Y-154955357D02*
X94268152Y-154955357D01*
X94268152Y-154955357D02*
X94363390Y-155002976D01*
X94363390Y-155002976D02*
X94411009Y-155050595D01*
X94411009Y-155050595D02*
X94458628Y-155145833D01*
X94458628Y-155145833D02*
X94458628Y-155526785D01*
X94030057Y-154574404D02*
X93982438Y-154526785D01*
X93982438Y-154526785D02*
X93934819Y-154431547D01*
X93934819Y-154431547D02*
X93934819Y-154193452D01*
X93934819Y-154193452D02*
X93982438Y-154098214D01*
X93982438Y-154098214D02*
X94030057Y-154050595D01*
X94030057Y-154050595D02*
X94125295Y-154002976D01*
X94125295Y-154002976D02*
X94220533Y-154002976D01*
X94220533Y-154002976D02*
X94363390Y-154050595D01*
X94363390Y-154050595D02*
X94934819Y-154622023D01*
X94934819Y-154622023D02*
X94934819Y-154002976D01*
X94030057Y-153622023D02*
X93982438Y-153574404D01*
X93982438Y-153574404D02*
X93934819Y-153479166D01*
X93934819Y-153479166D02*
X93934819Y-153241071D01*
X93934819Y-153241071D02*
X93982438Y-153145833D01*
X93982438Y-153145833D02*
X94030057Y-153098214D01*
X94030057Y-153098214D02*
X94125295Y-153050595D01*
X94125295Y-153050595D02*
X94220533Y-153050595D01*
X94220533Y-153050595D02*
X94363390Y-153098214D01*
X94363390Y-153098214D02*
X94934819Y-153669642D01*
X94934819Y-153669642D02*
X94934819Y-153050595D01*
X33244819Y-148468094D02*
X32244819Y-148468094D01*
X32244819Y-148468094D02*
X32244819Y-148229999D01*
X32244819Y-148229999D02*
X32292438Y-148087142D01*
X32292438Y-148087142D02*
X32387676Y-147991904D01*
X32387676Y-147991904D02*
X32482914Y-147944285D01*
X32482914Y-147944285D02*
X32673390Y-147896666D01*
X32673390Y-147896666D02*
X32816247Y-147896666D01*
X32816247Y-147896666D02*
X33006723Y-147944285D01*
X33006723Y-147944285D02*
X33101961Y-147991904D01*
X33101961Y-147991904D02*
X33197200Y-148087142D01*
X33197200Y-148087142D02*
X33244819Y-148229999D01*
X33244819Y-148229999D02*
X33244819Y-148468094D01*
X32244819Y-146991904D02*
X32244819Y-147468094D01*
X32244819Y-147468094D02*
X32721009Y-147515713D01*
X32721009Y-147515713D02*
X32673390Y-147468094D01*
X32673390Y-147468094D02*
X32625771Y-147372856D01*
X32625771Y-147372856D02*
X32625771Y-147134761D01*
X32625771Y-147134761D02*
X32673390Y-147039523D01*
X32673390Y-147039523D02*
X32721009Y-146991904D01*
X32721009Y-146991904D02*
X32816247Y-146944285D01*
X32816247Y-146944285D02*
X33054342Y-146944285D01*
X33054342Y-146944285D02*
X33149580Y-146991904D01*
X33149580Y-146991904D02*
X33197200Y-147039523D01*
X33197200Y-147039523D02*
X33244819Y-147134761D01*
X33244819Y-147134761D02*
X33244819Y-147372856D01*
X33244819Y-147372856D02*
X33197200Y-147468094D01*
X33197200Y-147468094D02*
X33149580Y-147515713D01*
X88934819Y-154955357D02*
X88458628Y-155288690D01*
X88934819Y-155526785D02*
X87934819Y-155526785D01*
X87934819Y-155526785D02*
X87934819Y-155145833D01*
X87934819Y-155145833D02*
X87982438Y-155050595D01*
X87982438Y-155050595D02*
X88030057Y-155002976D01*
X88030057Y-155002976D02*
X88125295Y-154955357D01*
X88125295Y-154955357D02*
X88268152Y-154955357D01*
X88268152Y-154955357D02*
X88363390Y-155002976D01*
X88363390Y-155002976D02*
X88411009Y-155050595D01*
X88411009Y-155050595D02*
X88458628Y-155145833D01*
X88458628Y-155145833D02*
X88458628Y-155526785D01*
X88030057Y-154574404D02*
X87982438Y-154526785D01*
X87982438Y-154526785D02*
X87934819Y-154431547D01*
X87934819Y-154431547D02*
X87934819Y-154193452D01*
X87934819Y-154193452D02*
X87982438Y-154098214D01*
X87982438Y-154098214D02*
X88030057Y-154050595D01*
X88030057Y-154050595D02*
X88125295Y-154002976D01*
X88125295Y-154002976D02*
X88220533Y-154002976D01*
X88220533Y-154002976D02*
X88363390Y-154050595D01*
X88363390Y-154050595D02*
X88934819Y-154622023D01*
X88934819Y-154622023D02*
X88934819Y-154002976D01*
X87934819Y-153669642D02*
X87934819Y-153050595D01*
X87934819Y-153050595D02*
X88315771Y-153383928D01*
X88315771Y-153383928D02*
X88315771Y-153241071D01*
X88315771Y-153241071D02*
X88363390Y-153145833D01*
X88363390Y-153145833D02*
X88411009Y-153098214D01*
X88411009Y-153098214D02*
X88506247Y-153050595D01*
X88506247Y-153050595D02*
X88744342Y-153050595D01*
X88744342Y-153050595D02*
X88839580Y-153098214D01*
X88839580Y-153098214D02*
X88887200Y-153145833D01*
X88887200Y-153145833D02*
X88934819Y-153241071D01*
X88934819Y-153241071D02*
X88934819Y-153526785D01*
X88934819Y-153526785D02*
X88887200Y-153622023D01*
X88887200Y-153622023D02*
X88839580Y-153669642D01*
X79729819Y-136309523D02*
X80444104Y-136309523D01*
X80444104Y-136309523D02*
X80586961Y-136357142D01*
X80586961Y-136357142D02*
X80682200Y-136452380D01*
X80682200Y-136452380D02*
X80729819Y-136595237D01*
X80729819Y-136595237D02*
X80729819Y-136690475D01*
X80729819Y-135833332D02*
X79729819Y-135833332D01*
X79729819Y-135833332D02*
X79729819Y-135452380D01*
X79729819Y-135452380D02*
X79777438Y-135357142D01*
X79777438Y-135357142D02*
X79825057Y-135309523D01*
X79825057Y-135309523D02*
X79920295Y-135261904D01*
X79920295Y-135261904D02*
X80063152Y-135261904D01*
X80063152Y-135261904D02*
X80158390Y-135309523D01*
X80158390Y-135309523D02*
X80206009Y-135357142D01*
X80206009Y-135357142D02*
X80253628Y-135452380D01*
X80253628Y-135452380D02*
X80253628Y-135833332D01*
X80729819Y-134309523D02*
X80729819Y-134880951D01*
X80729819Y-134595237D02*
X79729819Y-134595237D01*
X79729819Y-134595237D02*
X79872676Y-134690475D01*
X79872676Y-134690475D02*
X79967914Y-134785713D01*
X79967914Y-134785713D02*
X80015533Y-134880951D01*
X79825057Y-133928570D02*
X79777438Y-133880951D01*
X79777438Y-133880951D02*
X79729819Y-133785713D01*
X79729819Y-133785713D02*
X79729819Y-133547618D01*
X79729819Y-133547618D02*
X79777438Y-133452380D01*
X79777438Y-133452380D02*
X79825057Y-133404761D01*
X79825057Y-133404761D02*
X79920295Y-133357142D01*
X79920295Y-133357142D02*
X80015533Y-133357142D01*
X80015533Y-133357142D02*
X80158390Y-133404761D01*
X80158390Y-133404761D02*
X80729819Y-133976189D01*
X80729819Y-133976189D02*
X80729819Y-133357142D01*
X54107142Y-136224819D02*
X53773809Y-135748628D01*
X53535714Y-136224819D02*
X53535714Y-135224819D01*
X53535714Y-135224819D02*
X53916666Y-135224819D01*
X53916666Y-135224819D02*
X54011904Y-135272438D01*
X54011904Y-135272438D02*
X54059523Y-135320057D01*
X54059523Y-135320057D02*
X54107142Y-135415295D01*
X54107142Y-135415295D02*
X54107142Y-135558152D01*
X54107142Y-135558152D02*
X54059523Y-135653390D01*
X54059523Y-135653390D02*
X54011904Y-135701009D01*
X54011904Y-135701009D02*
X53916666Y-135748628D01*
X53916666Y-135748628D02*
X53535714Y-135748628D01*
X55059523Y-136224819D02*
X54488095Y-136224819D01*
X54773809Y-136224819D02*
X54773809Y-135224819D01*
X54773809Y-135224819D02*
X54678571Y-135367676D01*
X54678571Y-135367676D02*
X54583333Y-135462914D01*
X54583333Y-135462914D02*
X54488095Y-135510533D01*
X55916666Y-135558152D02*
X55916666Y-136224819D01*
X55678571Y-135177200D02*
X55440476Y-135891485D01*
X55440476Y-135891485D02*
X56059523Y-135891485D01*
X54107142Y-130162319D02*
X53773809Y-129686128D01*
X53535714Y-130162319D02*
X53535714Y-129162319D01*
X53535714Y-129162319D02*
X53916666Y-129162319D01*
X53916666Y-129162319D02*
X54011904Y-129209938D01*
X54011904Y-129209938D02*
X54059523Y-129257557D01*
X54059523Y-129257557D02*
X54107142Y-129352795D01*
X54107142Y-129352795D02*
X54107142Y-129495652D01*
X54107142Y-129495652D02*
X54059523Y-129590890D01*
X54059523Y-129590890D02*
X54011904Y-129638509D01*
X54011904Y-129638509D02*
X53916666Y-129686128D01*
X53916666Y-129686128D02*
X53535714Y-129686128D01*
X55059523Y-130162319D02*
X54488095Y-130162319D01*
X54773809Y-130162319D02*
X54773809Y-129162319D01*
X54773809Y-129162319D02*
X54678571Y-129305176D01*
X54678571Y-129305176D02*
X54583333Y-129400414D01*
X54583333Y-129400414D02*
X54488095Y-129448033D01*
X55392857Y-129162319D02*
X56011904Y-129162319D01*
X56011904Y-129162319D02*
X55678571Y-129543271D01*
X55678571Y-129543271D02*
X55821428Y-129543271D01*
X55821428Y-129543271D02*
X55916666Y-129590890D01*
X55916666Y-129590890D02*
X55964285Y-129638509D01*
X55964285Y-129638509D02*
X56011904Y-129733747D01*
X56011904Y-129733747D02*
X56011904Y-129971842D01*
X56011904Y-129971842D02*
X55964285Y-130067080D01*
X55964285Y-130067080D02*
X55916666Y-130114700D01*
X55916666Y-130114700D02*
X55821428Y-130162319D01*
X55821428Y-130162319D02*
X55535714Y-130162319D01*
X55535714Y-130162319D02*
X55440476Y-130114700D01*
X55440476Y-130114700D02*
X55392857Y-130067080D01*
X95979819Y-149243094D02*
X94979819Y-149243094D01*
X94979819Y-149243094D02*
X94979819Y-149004999D01*
X94979819Y-149004999D02*
X95027438Y-148862142D01*
X95027438Y-148862142D02*
X95122676Y-148766904D01*
X95122676Y-148766904D02*
X95217914Y-148719285D01*
X95217914Y-148719285D02*
X95408390Y-148671666D01*
X95408390Y-148671666D02*
X95551247Y-148671666D01*
X95551247Y-148671666D02*
X95741723Y-148719285D01*
X95741723Y-148719285D02*
X95836961Y-148766904D01*
X95836961Y-148766904D02*
X95932200Y-148862142D01*
X95932200Y-148862142D02*
X95979819Y-149004999D01*
X95979819Y-149004999D02*
X95979819Y-149243094D01*
X95408390Y-148100237D02*
X95360771Y-148195475D01*
X95360771Y-148195475D02*
X95313152Y-148243094D01*
X95313152Y-148243094D02*
X95217914Y-148290713D01*
X95217914Y-148290713D02*
X95170295Y-148290713D01*
X95170295Y-148290713D02*
X95075057Y-148243094D01*
X95075057Y-148243094D02*
X95027438Y-148195475D01*
X95027438Y-148195475D02*
X94979819Y-148100237D01*
X94979819Y-148100237D02*
X94979819Y-147909761D01*
X94979819Y-147909761D02*
X95027438Y-147814523D01*
X95027438Y-147814523D02*
X95075057Y-147766904D01*
X95075057Y-147766904D02*
X95170295Y-147719285D01*
X95170295Y-147719285D02*
X95217914Y-147719285D01*
X95217914Y-147719285D02*
X95313152Y-147766904D01*
X95313152Y-147766904D02*
X95360771Y-147814523D01*
X95360771Y-147814523D02*
X95408390Y-147909761D01*
X95408390Y-147909761D02*
X95408390Y-148100237D01*
X95408390Y-148100237D02*
X95456009Y-148195475D01*
X95456009Y-148195475D02*
X95503628Y-148243094D01*
X95503628Y-148243094D02*
X95598866Y-148290713D01*
X95598866Y-148290713D02*
X95789342Y-148290713D01*
X95789342Y-148290713D02*
X95884580Y-148243094D01*
X95884580Y-148243094D02*
X95932200Y-148195475D01*
X95932200Y-148195475D02*
X95979819Y-148100237D01*
X95979819Y-148100237D02*
X95979819Y-147909761D01*
X95979819Y-147909761D02*
X95932200Y-147814523D01*
X95932200Y-147814523D02*
X95884580Y-147766904D01*
X95884580Y-147766904D02*
X95789342Y-147719285D01*
X95789342Y-147719285D02*
X95598866Y-147719285D01*
X95598866Y-147719285D02*
X95503628Y-147766904D01*
X95503628Y-147766904D02*
X95456009Y-147814523D01*
X95456009Y-147814523D02*
X95408390Y-147909761D01*
X72741905Y-129244819D02*
X72741905Y-128244819D01*
X72741905Y-128244819D02*
X72980000Y-128244819D01*
X72980000Y-128244819D02*
X73122857Y-128292438D01*
X73122857Y-128292438D02*
X73218095Y-128387676D01*
X73218095Y-128387676D02*
X73265714Y-128482914D01*
X73265714Y-128482914D02*
X73313333Y-128673390D01*
X73313333Y-128673390D02*
X73313333Y-128816247D01*
X73313333Y-128816247D02*
X73265714Y-129006723D01*
X73265714Y-129006723D02*
X73218095Y-129101961D01*
X73218095Y-129101961D02*
X73122857Y-129197200D01*
X73122857Y-129197200D02*
X72980000Y-129244819D01*
X72980000Y-129244819D02*
X72741905Y-129244819D01*
X73646667Y-128244819D02*
X74313333Y-128244819D01*
X74313333Y-128244819D02*
X73884762Y-129244819D01*
X93090476Y-152504819D02*
X93090476Y-153219104D01*
X93090476Y-153219104D02*
X93042857Y-153361961D01*
X93042857Y-153361961D02*
X92947619Y-153457200D01*
X92947619Y-153457200D02*
X92804762Y-153504819D01*
X92804762Y-153504819D02*
X92709524Y-153504819D01*
X93566667Y-153504819D02*
X93566667Y-152504819D01*
X93566667Y-152504819D02*
X93947619Y-152504819D01*
X93947619Y-152504819D02*
X94042857Y-152552438D01*
X94042857Y-152552438D02*
X94090476Y-152600057D01*
X94090476Y-152600057D02*
X94138095Y-152695295D01*
X94138095Y-152695295D02*
X94138095Y-152838152D01*
X94138095Y-152838152D02*
X94090476Y-152933390D01*
X94090476Y-152933390D02*
X94042857Y-152981009D01*
X94042857Y-152981009D02*
X93947619Y-153028628D01*
X93947619Y-153028628D02*
X93566667Y-153028628D01*
X95090476Y-153504819D02*
X94519048Y-153504819D01*
X94804762Y-153504819D02*
X94804762Y-152504819D01*
X94804762Y-152504819D02*
X94709524Y-152647676D01*
X94709524Y-152647676D02*
X94614286Y-152742914D01*
X94614286Y-152742914D02*
X94519048Y-152790533D01*
X95423810Y-152504819D02*
X96042857Y-152504819D01*
X96042857Y-152504819D02*
X95709524Y-152885771D01*
X95709524Y-152885771D02*
X95852381Y-152885771D01*
X95852381Y-152885771D02*
X95947619Y-152933390D01*
X95947619Y-152933390D02*
X95995238Y-152981009D01*
X95995238Y-152981009D02*
X96042857Y-153076247D01*
X96042857Y-153076247D02*
X96042857Y-153314342D01*
X96042857Y-153314342D02*
X95995238Y-153409580D01*
X95995238Y-153409580D02*
X95947619Y-153457200D01*
X95947619Y-153457200D02*
X95852381Y-153504819D01*
X95852381Y-153504819D02*
X95566667Y-153504819D01*
X95566667Y-153504819D02*
X95471429Y-153457200D01*
X95471429Y-153457200D02*
X95423810Y-153409580D01*
X98467261Y-157150057D02*
X98372023Y-157102438D01*
X98372023Y-157102438D02*
X98276785Y-157007200D01*
X98276785Y-157007200D02*
X98133928Y-156864342D01*
X98133928Y-156864342D02*
X98038690Y-156816723D01*
X98038690Y-156816723D02*
X97943452Y-156816723D01*
X97991071Y-157054819D02*
X97895833Y-157007200D01*
X97895833Y-157007200D02*
X97800595Y-156911961D01*
X97800595Y-156911961D02*
X97752976Y-156721485D01*
X97752976Y-156721485D02*
X97752976Y-156388152D01*
X97752976Y-156388152D02*
X97800595Y-156197676D01*
X97800595Y-156197676D02*
X97895833Y-156102438D01*
X97895833Y-156102438D02*
X97991071Y-156054819D01*
X97991071Y-156054819D02*
X98181547Y-156054819D01*
X98181547Y-156054819D02*
X98276785Y-156102438D01*
X98276785Y-156102438D02*
X98372023Y-156197676D01*
X98372023Y-156197676D02*
X98419642Y-156388152D01*
X98419642Y-156388152D02*
X98419642Y-156721485D01*
X98419642Y-156721485D02*
X98372023Y-156911961D01*
X98372023Y-156911961D02*
X98276785Y-157007200D01*
X98276785Y-157007200D02*
X98181547Y-157054819D01*
X98181547Y-157054819D02*
X97991071Y-157054819D01*
X99276785Y-156054819D02*
X99086309Y-156054819D01*
X99086309Y-156054819D02*
X98991071Y-156102438D01*
X98991071Y-156102438D02*
X98943452Y-156150057D01*
X98943452Y-156150057D02*
X98848214Y-156292914D01*
X98848214Y-156292914D02*
X98800595Y-156483390D01*
X98800595Y-156483390D02*
X98800595Y-156864342D01*
X98800595Y-156864342D02*
X98848214Y-156959580D01*
X98848214Y-156959580D02*
X98895833Y-157007200D01*
X98895833Y-157007200D02*
X98991071Y-157054819D01*
X98991071Y-157054819D02*
X99181547Y-157054819D01*
X99181547Y-157054819D02*
X99276785Y-157007200D01*
X99276785Y-157007200D02*
X99324404Y-156959580D01*
X99324404Y-156959580D02*
X99372023Y-156864342D01*
X99372023Y-156864342D02*
X99372023Y-156626247D01*
X99372023Y-156626247D02*
X99324404Y-156531009D01*
X99324404Y-156531009D02*
X99276785Y-156483390D01*
X99276785Y-156483390D02*
X99181547Y-156435771D01*
X99181547Y-156435771D02*
X98991071Y-156435771D01*
X98991071Y-156435771D02*
X98895833Y-156483390D01*
X98895833Y-156483390D02*
X98848214Y-156531009D01*
X98848214Y-156531009D02*
X98800595Y-156626247D01*
X91154761Y-146400057D02*
X91059523Y-146352438D01*
X91059523Y-146352438D02*
X90964285Y-146257200D01*
X90964285Y-146257200D02*
X90821428Y-146114342D01*
X90821428Y-146114342D02*
X90726190Y-146066723D01*
X90726190Y-146066723D02*
X90630952Y-146066723D01*
X90678571Y-146304819D02*
X90583333Y-146257200D01*
X90583333Y-146257200D02*
X90488095Y-146161961D01*
X90488095Y-146161961D02*
X90440476Y-145971485D01*
X90440476Y-145971485D02*
X90440476Y-145638152D01*
X90440476Y-145638152D02*
X90488095Y-145447676D01*
X90488095Y-145447676D02*
X90583333Y-145352438D01*
X90583333Y-145352438D02*
X90678571Y-145304819D01*
X90678571Y-145304819D02*
X90869047Y-145304819D01*
X90869047Y-145304819D02*
X90964285Y-145352438D01*
X90964285Y-145352438D02*
X91059523Y-145447676D01*
X91059523Y-145447676D02*
X91107142Y-145638152D01*
X91107142Y-145638152D02*
X91107142Y-145971485D01*
X91107142Y-145971485D02*
X91059523Y-146161961D01*
X91059523Y-146161961D02*
X90964285Y-146257200D01*
X90964285Y-146257200D02*
X90869047Y-146304819D01*
X90869047Y-146304819D02*
X90678571Y-146304819D01*
X92011904Y-145304819D02*
X91535714Y-145304819D01*
X91535714Y-145304819D02*
X91488095Y-145781009D01*
X91488095Y-145781009D02*
X91535714Y-145733390D01*
X91535714Y-145733390D02*
X91630952Y-145685771D01*
X91630952Y-145685771D02*
X91869047Y-145685771D01*
X91869047Y-145685771D02*
X91964285Y-145733390D01*
X91964285Y-145733390D02*
X92011904Y-145781009D01*
X92011904Y-145781009D02*
X92059523Y-145876247D01*
X92059523Y-145876247D02*
X92059523Y-146114342D01*
X92059523Y-146114342D02*
X92011904Y-146209580D01*
X92011904Y-146209580D02*
X91964285Y-146257200D01*
X91964285Y-146257200D02*
X91869047Y-146304819D01*
X91869047Y-146304819D02*
X91630952Y-146304819D01*
X91630952Y-146304819D02*
X91535714Y-146257200D01*
X91535714Y-146257200D02*
X91488095Y-146209580D01*
X77419642Y-141684819D02*
X77086309Y-141208628D01*
X76848214Y-141684819D02*
X76848214Y-140684819D01*
X76848214Y-140684819D02*
X77229166Y-140684819D01*
X77229166Y-140684819D02*
X77324404Y-140732438D01*
X77324404Y-140732438D02*
X77372023Y-140780057D01*
X77372023Y-140780057D02*
X77419642Y-140875295D01*
X77419642Y-140875295D02*
X77419642Y-141018152D01*
X77419642Y-141018152D02*
X77372023Y-141113390D01*
X77372023Y-141113390D02*
X77324404Y-141161009D01*
X77324404Y-141161009D02*
X77229166Y-141208628D01*
X77229166Y-141208628D02*
X76848214Y-141208628D01*
X78372023Y-141684819D02*
X77800595Y-141684819D01*
X78086309Y-141684819D02*
X78086309Y-140684819D01*
X78086309Y-140684819D02*
X77991071Y-140827676D01*
X77991071Y-140827676D02*
X77895833Y-140922914D01*
X77895833Y-140922914D02*
X77800595Y-140970533D01*
X78848214Y-141684819D02*
X79038690Y-141684819D01*
X79038690Y-141684819D02*
X79133928Y-141637200D01*
X79133928Y-141637200D02*
X79181547Y-141589580D01*
X79181547Y-141589580D02*
X79276785Y-141446723D01*
X79276785Y-141446723D02*
X79324404Y-141256247D01*
X79324404Y-141256247D02*
X79324404Y-140875295D01*
X79324404Y-140875295D02*
X79276785Y-140780057D01*
X79276785Y-140780057D02*
X79229166Y-140732438D01*
X79229166Y-140732438D02*
X79133928Y-140684819D01*
X79133928Y-140684819D02*
X78943452Y-140684819D01*
X78943452Y-140684819D02*
X78848214Y-140732438D01*
X78848214Y-140732438D02*
X78800595Y-140780057D01*
X78800595Y-140780057D02*
X78752976Y-140875295D01*
X78752976Y-140875295D02*
X78752976Y-141113390D01*
X78752976Y-141113390D02*
X78800595Y-141208628D01*
X78800595Y-141208628D02*
X78848214Y-141256247D01*
X78848214Y-141256247D02*
X78943452Y-141303866D01*
X78943452Y-141303866D02*
X79133928Y-141303866D01*
X79133928Y-141303866D02*
X79229166Y-141256247D01*
X79229166Y-141256247D02*
X79276785Y-141208628D01*
X79276785Y-141208628D02*
X79324404Y-141113390D01*
X60419642Y-145684819D02*
X60086309Y-145208628D01*
X59848214Y-145684819D02*
X59848214Y-144684819D01*
X59848214Y-144684819D02*
X60229166Y-144684819D01*
X60229166Y-144684819D02*
X60324404Y-144732438D01*
X60324404Y-144732438D02*
X60372023Y-144780057D01*
X60372023Y-144780057D02*
X60419642Y-144875295D01*
X60419642Y-144875295D02*
X60419642Y-145018152D01*
X60419642Y-145018152D02*
X60372023Y-145113390D01*
X60372023Y-145113390D02*
X60324404Y-145161009D01*
X60324404Y-145161009D02*
X60229166Y-145208628D01*
X60229166Y-145208628D02*
X59848214Y-145208628D01*
X61372023Y-145684819D02*
X60800595Y-145684819D01*
X61086309Y-145684819D02*
X61086309Y-144684819D01*
X61086309Y-144684819D02*
X60991071Y-144827676D01*
X60991071Y-144827676D02*
X60895833Y-144922914D01*
X60895833Y-144922914D02*
X60800595Y-144970533D01*
X61752976Y-144780057D02*
X61800595Y-144732438D01*
X61800595Y-144732438D02*
X61895833Y-144684819D01*
X61895833Y-144684819D02*
X62133928Y-144684819D01*
X62133928Y-144684819D02*
X62229166Y-144732438D01*
X62229166Y-144732438D02*
X62276785Y-144780057D01*
X62276785Y-144780057D02*
X62324404Y-144875295D01*
X62324404Y-144875295D02*
X62324404Y-144970533D01*
X62324404Y-144970533D02*
X62276785Y-145113390D01*
X62276785Y-145113390D02*
X61705357Y-145684819D01*
X61705357Y-145684819D02*
X62324404Y-145684819D01*
X100934819Y-154955357D02*
X100458628Y-155288690D01*
X100934819Y-155526785D02*
X99934819Y-155526785D01*
X99934819Y-155526785D02*
X99934819Y-155145833D01*
X99934819Y-155145833D02*
X99982438Y-155050595D01*
X99982438Y-155050595D02*
X100030057Y-155002976D01*
X100030057Y-155002976D02*
X100125295Y-154955357D01*
X100125295Y-154955357D02*
X100268152Y-154955357D01*
X100268152Y-154955357D02*
X100363390Y-155002976D01*
X100363390Y-155002976D02*
X100411009Y-155050595D01*
X100411009Y-155050595D02*
X100458628Y-155145833D01*
X100458628Y-155145833D02*
X100458628Y-155526785D01*
X100030057Y-154574404D02*
X99982438Y-154526785D01*
X99982438Y-154526785D02*
X99934819Y-154431547D01*
X99934819Y-154431547D02*
X99934819Y-154193452D01*
X99934819Y-154193452D02*
X99982438Y-154098214D01*
X99982438Y-154098214D02*
X100030057Y-154050595D01*
X100030057Y-154050595D02*
X100125295Y-154002976D01*
X100125295Y-154002976D02*
X100220533Y-154002976D01*
X100220533Y-154002976D02*
X100363390Y-154050595D01*
X100363390Y-154050595D02*
X100934819Y-154622023D01*
X100934819Y-154622023D02*
X100934819Y-154002976D01*
X100934819Y-153050595D02*
X100934819Y-153622023D01*
X100934819Y-153336309D02*
X99934819Y-153336309D01*
X99934819Y-153336309D02*
X100077676Y-153431547D01*
X100077676Y-153431547D02*
X100172914Y-153526785D01*
X100172914Y-153526785D02*
X100220533Y-153622023D01*
X83940476Y-143004819D02*
X83940476Y-143719104D01*
X83940476Y-143719104D02*
X83892857Y-143861961D01*
X83892857Y-143861961D02*
X83797619Y-143957200D01*
X83797619Y-143957200D02*
X83654762Y-144004819D01*
X83654762Y-144004819D02*
X83559524Y-144004819D01*
X84416667Y-144004819D02*
X84416667Y-143004819D01*
X84416667Y-143004819D02*
X84797619Y-143004819D01*
X84797619Y-143004819D02*
X84892857Y-143052438D01*
X84892857Y-143052438D02*
X84940476Y-143100057D01*
X84940476Y-143100057D02*
X84988095Y-143195295D01*
X84988095Y-143195295D02*
X84988095Y-143338152D01*
X84988095Y-143338152D02*
X84940476Y-143433390D01*
X84940476Y-143433390D02*
X84892857Y-143481009D01*
X84892857Y-143481009D02*
X84797619Y-143528628D01*
X84797619Y-143528628D02*
X84416667Y-143528628D01*
X85940476Y-144004819D02*
X85369048Y-144004819D01*
X85654762Y-144004819D02*
X85654762Y-143004819D01*
X85654762Y-143004819D02*
X85559524Y-143147676D01*
X85559524Y-143147676D02*
X85464286Y-143242914D01*
X85464286Y-143242914D02*
X85369048Y-143290533D01*
X86797619Y-143338152D02*
X86797619Y-144004819D01*
X86559524Y-142957200D02*
X86321429Y-143671485D01*
X86321429Y-143671485D02*
X86940476Y-143671485D01*
X51754819Y-140683333D02*
X52469104Y-140683333D01*
X52469104Y-140683333D02*
X52611961Y-140730952D01*
X52611961Y-140730952D02*
X52707200Y-140826190D01*
X52707200Y-140826190D02*
X52754819Y-140969047D01*
X52754819Y-140969047D02*
X52754819Y-141064285D01*
X52754819Y-140207142D02*
X51754819Y-140207142D01*
X51754819Y-140207142D02*
X51754819Y-139826190D01*
X51754819Y-139826190D02*
X51802438Y-139730952D01*
X51802438Y-139730952D02*
X51850057Y-139683333D01*
X51850057Y-139683333D02*
X51945295Y-139635714D01*
X51945295Y-139635714D02*
X52088152Y-139635714D01*
X52088152Y-139635714D02*
X52183390Y-139683333D01*
X52183390Y-139683333D02*
X52231009Y-139730952D01*
X52231009Y-139730952D02*
X52278628Y-139826190D01*
X52278628Y-139826190D02*
X52278628Y-140207142D01*
X52754819Y-139159523D02*
X52754819Y-138969047D01*
X52754819Y-138969047D02*
X52707200Y-138873809D01*
X52707200Y-138873809D02*
X52659580Y-138826190D01*
X52659580Y-138826190D02*
X52516723Y-138730952D01*
X52516723Y-138730952D02*
X52326247Y-138683333D01*
X52326247Y-138683333D02*
X51945295Y-138683333D01*
X51945295Y-138683333D02*
X51850057Y-138730952D01*
X51850057Y-138730952D02*
X51802438Y-138778571D01*
X51802438Y-138778571D02*
X51754819Y-138873809D01*
X51754819Y-138873809D02*
X51754819Y-139064285D01*
X51754819Y-139064285D02*
X51802438Y-139159523D01*
X51802438Y-139159523D02*
X51850057Y-139207142D01*
X51850057Y-139207142D02*
X51945295Y-139254761D01*
X51945295Y-139254761D02*
X52183390Y-139254761D01*
X52183390Y-139254761D02*
X52278628Y-139207142D01*
X52278628Y-139207142D02*
X52326247Y-139159523D01*
X52326247Y-139159523D02*
X52373866Y-139064285D01*
X52373866Y-139064285D02*
X52373866Y-138873809D01*
X52373866Y-138873809D02*
X52326247Y-138778571D01*
X52326247Y-138778571D02*
X52278628Y-138730952D01*
X52278628Y-138730952D02*
X52183390Y-138683333D01*
X44970833Y-157274819D02*
X44637500Y-156798628D01*
X44399405Y-157274819D02*
X44399405Y-156274819D01*
X44399405Y-156274819D02*
X44780357Y-156274819D01*
X44780357Y-156274819D02*
X44875595Y-156322438D01*
X44875595Y-156322438D02*
X44923214Y-156370057D01*
X44923214Y-156370057D02*
X44970833Y-156465295D01*
X44970833Y-156465295D02*
X44970833Y-156608152D01*
X44970833Y-156608152D02*
X44923214Y-156703390D01*
X44923214Y-156703390D02*
X44875595Y-156751009D01*
X44875595Y-156751009D02*
X44780357Y-156798628D01*
X44780357Y-156798628D02*
X44399405Y-156798628D01*
X45875595Y-156274819D02*
X45399405Y-156274819D01*
X45399405Y-156274819D02*
X45351786Y-156751009D01*
X45351786Y-156751009D02*
X45399405Y-156703390D01*
X45399405Y-156703390D02*
X45494643Y-156655771D01*
X45494643Y-156655771D02*
X45732738Y-156655771D01*
X45732738Y-156655771D02*
X45827976Y-156703390D01*
X45827976Y-156703390D02*
X45875595Y-156751009D01*
X45875595Y-156751009D02*
X45923214Y-156846247D01*
X45923214Y-156846247D02*
X45923214Y-157084342D01*
X45923214Y-157084342D02*
X45875595Y-157179580D01*
X45875595Y-157179580D02*
X45827976Y-157227200D01*
X45827976Y-157227200D02*
X45732738Y-157274819D01*
X45732738Y-157274819D02*
X45494643Y-157274819D01*
X45494643Y-157274819D02*
X45399405Y-157227200D01*
X45399405Y-157227200D02*
X45351786Y-157179580D01*
X40967261Y-150775057D02*
X40872023Y-150727438D01*
X40872023Y-150727438D02*
X40776785Y-150632200D01*
X40776785Y-150632200D02*
X40633928Y-150489342D01*
X40633928Y-150489342D02*
X40538690Y-150441723D01*
X40538690Y-150441723D02*
X40443452Y-150441723D01*
X40491071Y-150679819D02*
X40395833Y-150632200D01*
X40395833Y-150632200D02*
X40300595Y-150536961D01*
X40300595Y-150536961D02*
X40252976Y-150346485D01*
X40252976Y-150346485D02*
X40252976Y-150013152D01*
X40252976Y-150013152D02*
X40300595Y-149822676D01*
X40300595Y-149822676D02*
X40395833Y-149727438D01*
X40395833Y-149727438D02*
X40491071Y-149679819D01*
X40491071Y-149679819D02*
X40681547Y-149679819D01*
X40681547Y-149679819D02*
X40776785Y-149727438D01*
X40776785Y-149727438D02*
X40872023Y-149822676D01*
X40872023Y-149822676D02*
X40919642Y-150013152D01*
X40919642Y-150013152D02*
X40919642Y-150346485D01*
X40919642Y-150346485D02*
X40872023Y-150536961D01*
X40872023Y-150536961D02*
X40776785Y-150632200D01*
X40776785Y-150632200D02*
X40681547Y-150679819D01*
X40681547Y-150679819D02*
X40491071Y-150679819D01*
X41300595Y-149775057D02*
X41348214Y-149727438D01*
X41348214Y-149727438D02*
X41443452Y-149679819D01*
X41443452Y-149679819D02*
X41681547Y-149679819D01*
X41681547Y-149679819D02*
X41776785Y-149727438D01*
X41776785Y-149727438D02*
X41824404Y-149775057D01*
X41824404Y-149775057D02*
X41872023Y-149870295D01*
X41872023Y-149870295D02*
X41872023Y-149965533D01*
X41872023Y-149965533D02*
X41824404Y-150108390D01*
X41824404Y-150108390D02*
X41252976Y-150679819D01*
X41252976Y-150679819D02*
X41872023Y-150679819D01*
X38800057Y-159182738D02*
X38752438Y-159277976D01*
X38752438Y-159277976D02*
X38657200Y-159373214D01*
X38657200Y-159373214D02*
X38514342Y-159516071D01*
X38514342Y-159516071D02*
X38466723Y-159611309D01*
X38466723Y-159611309D02*
X38466723Y-159706547D01*
X38704819Y-159658928D02*
X38657200Y-159754166D01*
X38657200Y-159754166D02*
X38561961Y-159849404D01*
X38561961Y-159849404D02*
X38371485Y-159897023D01*
X38371485Y-159897023D02*
X38038152Y-159897023D01*
X38038152Y-159897023D02*
X37847676Y-159849404D01*
X37847676Y-159849404D02*
X37752438Y-159754166D01*
X37752438Y-159754166D02*
X37704819Y-159658928D01*
X37704819Y-159658928D02*
X37704819Y-159468452D01*
X37704819Y-159468452D02*
X37752438Y-159373214D01*
X37752438Y-159373214D02*
X37847676Y-159277976D01*
X37847676Y-159277976D02*
X38038152Y-159230357D01*
X38038152Y-159230357D02*
X38371485Y-159230357D01*
X38371485Y-159230357D02*
X38561961Y-159277976D01*
X38561961Y-159277976D02*
X38657200Y-159373214D01*
X38657200Y-159373214D02*
X38704819Y-159468452D01*
X38704819Y-159468452D02*
X38704819Y-159658928D01*
X38704819Y-158277976D02*
X38704819Y-158849404D01*
X38704819Y-158563690D02*
X37704819Y-158563690D01*
X37704819Y-158563690D02*
X37847676Y-158658928D01*
X37847676Y-158658928D02*
X37942914Y-158754166D01*
X37942914Y-158754166D02*
X37990533Y-158849404D01*
X86357142Y-143974819D02*
X86023809Y-143498628D01*
X85785714Y-143974819D02*
X85785714Y-142974819D01*
X85785714Y-142974819D02*
X86166666Y-142974819D01*
X86166666Y-142974819D02*
X86261904Y-143022438D01*
X86261904Y-143022438D02*
X86309523Y-143070057D01*
X86309523Y-143070057D02*
X86357142Y-143165295D01*
X86357142Y-143165295D02*
X86357142Y-143308152D01*
X86357142Y-143308152D02*
X86309523Y-143403390D01*
X86309523Y-143403390D02*
X86261904Y-143451009D01*
X86261904Y-143451009D02*
X86166666Y-143498628D01*
X86166666Y-143498628D02*
X85785714Y-143498628D01*
X86738095Y-143070057D02*
X86785714Y-143022438D01*
X86785714Y-143022438D02*
X86880952Y-142974819D01*
X86880952Y-142974819D02*
X87119047Y-142974819D01*
X87119047Y-142974819D02*
X87214285Y-143022438D01*
X87214285Y-143022438D02*
X87261904Y-143070057D01*
X87261904Y-143070057D02*
X87309523Y-143165295D01*
X87309523Y-143165295D02*
X87309523Y-143260533D01*
X87309523Y-143260533D02*
X87261904Y-143403390D01*
X87261904Y-143403390D02*
X86690476Y-143974819D01*
X86690476Y-143974819D02*
X87309523Y-143974819D01*
X88214285Y-142974819D02*
X87738095Y-142974819D01*
X87738095Y-142974819D02*
X87690476Y-143451009D01*
X87690476Y-143451009D02*
X87738095Y-143403390D01*
X87738095Y-143403390D02*
X87833333Y-143355771D01*
X87833333Y-143355771D02*
X88071428Y-143355771D01*
X88071428Y-143355771D02*
X88166666Y-143403390D01*
X88166666Y-143403390D02*
X88214285Y-143451009D01*
X88214285Y-143451009D02*
X88261904Y-143546247D01*
X88261904Y-143546247D02*
X88261904Y-143784342D01*
X88261904Y-143784342D02*
X88214285Y-143879580D01*
X88214285Y-143879580D02*
X88166666Y-143927200D01*
X88166666Y-143927200D02*
X88071428Y-143974819D01*
X88071428Y-143974819D02*
X87833333Y-143974819D01*
X87833333Y-143974819D02*
X87738095Y-143927200D01*
X87738095Y-143927200D02*
X87690476Y-143879580D01*
X79729819Y-142559523D02*
X80444104Y-142559523D01*
X80444104Y-142559523D02*
X80586961Y-142607142D01*
X80586961Y-142607142D02*
X80682200Y-142702380D01*
X80682200Y-142702380D02*
X80729819Y-142845237D01*
X80729819Y-142845237D02*
X80729819Y-142940475D01*
X80729819Y-142083332D02*
X79729819Y-142083332D01*
X79729819Y-142083332D02*
X79729819Y-141702380D01*
X79729819Y-141702380D02*
X79777438Y-141607142D01*
X79777438Y-141607142D02*
X79825057Y-141559523D01*
X79825057Y-141559523D02*
X79920295Y-141511904D01*
X79920295Y-141511904D02*
X80063152Y-141511904D01*
X80063152Y-141511904D02*
X80158390Y-141559523D01*
X80158390Y-141559523D02*
X80206009Y-141607142D01*
X80206009Y-141607142D02*
X80253628Y-141702380D01*
X80253628Y-141702380D02*
X80253628Y-142083332D01*
X80729819Y-140559523D02*
X80729819Y-141130951D01*
X80729819Y-140845237D02*
X79729819Y-140845237D01*
X79729819Y-140845237D02*
X79872676Y-140940475D01*
X79872676Y-140940475D02*
X79967914Y-141035713D01*
X79967914Y-141035713D02*
X80015533Y-141130951D01*
X79729819Y-139940475D02*
X79729819Y-139845237D01*
X79729819Y-139845237D02*
X79777438Y-139749999D01*
X79777438Y-139749999D02*
X79825057Y-139702380D01*
X79825057Y-139702380D02*
X79920295Y-139654761D01*
X79920295Y-139654761D02*
X80110771Y-139607142D01*
X80110771Y-139607142D02*
X80348866Y-139607142D01*
X80348866Y-139607142D02*
X80539342Y-139654761D01*
X80539342Y-139654761D02*
X80634580Y-139702380D01*
X80634580Y-139702380D02*
X80682200Y-139749999D01*
X80682200Y-139749999D02*
X80729819Y-139845237D01*
X80729819Y-139845237D02*
X80729819Y-139940475D01*
X80729819Y-139940475D02*
X80682200Y-140035713D01*
X80682200Y-140035713D02*
X80634580Y-140083332D01*
X80634580Y-140083332D02*
X80539342Y-140130951D01*
X80539342Y-140130951D02*
X80348866Y-140178570D01*
X80348866Y-140178570D02*
X80110771Y-140178570D01*
X80110771Y-140178570D02*
X79920295Y-140130951D01*
X79920295Y-140130951D02*
X79825057Y-140083332D01*
X79825057Y-140083332D02*
X79777438Y-140035713D01*
X79777438Y-140035713D02*
X79729819Y-139940475D01*
X46266666Y-148654819D02*
X46266666Y-149369104D01*
X46266666Y-149369104D02*
X46219047Y-149511961D01*
X46219047Y-149511961D02*
X46123809Y-149607200D01*
X46123809Y-149607200D02*
X45980952Y-149654819D01*
X45980952Y-149654819D02*
X45885714Y-149654819D01*
X46742857Y-149654819D02*
X46742857Y-148654819D01*
X46742857Y-148654819D02*
X47123809Y-148654819D01*
X47123809Y-148654819D02*
X47219047Y-148702438D01*
X47219047Y-148702438D02*
X47266666Y-148750057D01*
X47266666Y-148750057D02*
X47314285Y-148845295D01*
X47314285Y-148845295D02*
X47314285Y-148988152D01*
X47314285Y-148988152D02*
X47266666Y-149083390D01*
X47266666Y-149083390D02*
X47219047Y-149131009D01*
X47219047Y-149131009D02*
X47123809Y-149178628D01*
X47123809Y-149178628D02*
X46742857Y-149178628D01*
X48171428Y-148654819D02*
X47980952Y-148654819D01*
X47980952Y-148654819D02*
X47885714Y-148702438D01*
X47885714Y-148702438D02*
X47838095Y-148750057D01*
X47838095Y-148750057D02*
X47742857Y-148892914D01*
X47742857Y-148892914D02*
X47695238Y-149083390D01*
X47695238Y-149083390D02*
X47695238Y-149464342D01*
X47695238Y-149464342D02*
X47742857Y-149559580D01*
X47742857Y-149559580D02*
X47790476Y-149607200D01*
X47790476Y-149607200D02*
X47885714Y-149654819D01*
X47885714Y-149654819D02*
X48076190Y-149654819D01*
X48076190Y-149654819D02*
X48171428Y-149607200D01*
X48171428Y-149607200D02*
X48219047Y-149559580D01*
X48219047Y-149559580D02*
X48266666Y-149464342D01*
X48266666Y-149464342D02*
X48266666Y-149226247D01*
X48266666Y-149226247D02*
X48219047Y-149131009D01*
X48219047Y-149131009D02*
X48171428Y-149083390D01*
X48171428Y-149083390D02*
X48076190Y-149035771D01*
X48076190Y-149035771D02*
X47885714Y-149035771D01*
X47885714Y-149035771D02*
X47790476Y-149083390D01*
X47790476Y-149083390D02*
X47742857Y-149131009D01*
X47742857Y-149131009D02*
X47695238Y-149226247D01*
X71650057Y-136532738D02*
X71602438Y-136627976D01*
X71602438Y-136627976D02*
X71507200Y-136723214D01*
X71507200Y-136723214D02*
X71364342Y-136866071D01*
X71364342Y-136866071D02*
X71316723Y-136961309D01*
X71316723Y-136961309D02*
X71316723Y-137056547D01*
X71554819Y-137008928D02*
X71507200Y-137104166D01*
X71507200Y-137104166D02*
X71411961Y-137199404D01*
X71411961Y-137199404D02*
X71221485Y-137247023D01*
X71221485Y-137247023D02*
X70888152Y-137247023D01*
X70888152Y-137247023D02*
X70697676Y-137199404D01*
X70697676Y-137199404D02*
X70602438Y-137104166D01*
X70602438Y-137104166D02*
X70554819Y-137008928D01*
X70554819Y-137008928D02*
X70554819Y-136818452D01*
X70554819Y-136818452D02*
X70602438Y-136723214D01*
X70602438Y-136723214D02*
X70697676Y-136627976D01*
X70697676Y-136627976D02*
X70888152Y-136580357D01*
X70888152Y-136580357D02*
X71221485Y-136580357D01*
X71221485Y-136580357D02*
X71411961Y-136627976D01*
X71411961Y-136627976D02*
X71507200Y-136723214D01*
X71507200Y-136723214D02*
X71554819Y-136818452D01*
X71554819Y-136818452D02*
X71554819Y-137008928D01*
X70888152Y-135723214D02*
X71554819Y-135723214D01*
X70507200Y-135961309D02*
X71221485Y-136199404D01*
X71221485Y-136199404D02*
X71221485Y-135580357D01*
X87919642Y-162934819D02*
X87586309Y-162458628D01*
X87348214Y-162934819D02*
X87348214Y-161934819D01*
X87348214Y-161934819D02*
X87729166Y-161934819D01*
X87729166Y-161934819D02*
X87824404Y-161982438D01*
X87824404Y-161982438D02*
X87872023Y-162030057D01*
X87872023Y-162030057D02*
X87919642Y-162125295D01*
X87919642Y-162125295D02*
X87919642Y-162268152D01*
X87919642Y-162268152D02*
X87872023Y-162363390D01*
X87872023Y-162363390D02*
X87824404Y-162411009D01*
X87824404Y-162411009D02*
X87729166Y-162458628D01*
X87729166Y-162458628D02*
X87348214Y-162458628D01*
X88252976Y-161934819D02*
X88872023Y-161934819D01*
X88872023Y-161934819D02*
X88538690Y-162315771D01*
X88538690Y-162315771D02*
X88681547Y-162315771D01*
X88681547Y-162315771D02*
X88776785Y-162363390D01*
X88776785Y-162363390D02*
X88824404Y-162411009D01*
X88824404Y-162411009D02*
X88872023Y-162506247D01*
X88872023Y-162506247D02*
X88872023Y-162744342D01*
X88872023Y-162744342D02*
X88824404Y-162839580D01*
X88824404Y-162839580D02*
X88776785Y-162887200D01*
X88776785Y-162887200D02*
X88681547Y-162934819D01*
X88681547Y-162934819D02*
X88395833Y-162934819D01*
X88395833Y-162934819D02*
X88300595Y-162887200D01*
X88300595Y-162887200D02*
X88252976Y-162839580D01*
X89491071Y-161934819D02*
X89586309Y-161934819D01*
X89586309Y-161934819D02*
X89681547Y-161982438D01*
X89681547Y-161982438D02*
X89729166Y-162030057D01*
X89729166Y-162030057D02*
X89776785Y-162125295D01*
X89776785Y-162125295D02*
X89824404Y-162315771D01*
X89824404Y-162315771D02*
X89824404Y-162553866D01*
X89824404Y-162553866D02*
X89776785Y-162744342D01*
X89776785Y-162744342D02*
X89729166Y-162839580D01*
X89729166Y-162839580D02*
X89681547Y-162887200D01*
X89681547Y-162887200D02*
X89586309Y-162934819D01*
X89586309Y-162934819D02*
X89491071Y-162934819D01*
X89491071Y-162934819D02*
X89395833Y-162887200D01*
X89395833Y-162887200D02*
X89348214Y-162839580D01*
X89348214Y-162839580D02*
X89300595Y-162744342D01*
X89300595Y-162744342D02*
X89252976Y-162553866D01*
X89252976Y-162553866D02*
X89252976Y-162315771D01*
X89252976Y-162315771D02*
X89300595Y-162125295D01*
X89300595Y-162125295D02*
X89348214Y-162030057D01*
X89348214Y-162030057D02*
X89395833Y-161982438D01*
X89395833Y-161982438D02*
X89491071Y-161934819D01*
X44934819Y-167166666D02*
X44458628Y-167499999D01*
X44934819Y-167738094D02*
X43934819Y-167738094D01*
X43934819Y-167738094D02*
X43934819Y-167357142D01*
X43934819Y-167357142D02*
X43982438Y-167261904D01*
X43982438Y-167261904D02*
X44030057Y-167214285D01*
X44030057Y-167214285D02*
X44125295Y-167166666D01*
X44125295Y-167166666D02*
X44268152Y-167166666D01*
X44268152Y-167166666D02*
X44363390Y-167214285D01*
X44363390Y-167214285D02*
X44411009Y-167261904D01*
X44411009Y-167261904D02*
X44458628Y-167357142D01*
X44458628Y-167357142D02*
X44458628Y-167738094D01*
X43934819Y-166833332D02*
X43934819Y-166214285D01*
X43934819Y-166214285D02*
X44315771Y-166547618D01*
X44315771Y-166547618D02*
X44315771Y-166404761D01*
X44315771Y-166404761D02*
X44363390Y-166309523D01*
X44363390Y-166309523D02*
X44411009Y-166261904D01*
X44411009Y-166261904D02*
X44506247Y-166214285D01*
X44506247Y-166214285D02*
X44744342Y-166214285D01*
X44744342Y-166214285D02*
X44839580Y-166261904D01*
X44839580Y-166261904D02*
X44887200Y-166309523D01*
X44887200Y-166309523D02*
X44934819Y-166404761D01*
X44934819Y-166404761D02*
X44934819Y-166690475D01*
X44934819Y-166690475D02*
X44887200Y-166785713D01*
X44887200Y-166785713D02*
X44839580Y-166833332D01*
X108434819Y-167705357D02*
X107958628Y-168038690D01*
X108434819Y-168276785D02*
X107434819Y-168276785D01*
X107434819Y-168276785D02*
X107434819Y-167895833D01*
X107434819Y-167895833D02*
X107482438Y-167800595D01*
X107482438Y-167800595D02*
X107530057Y-167752976D01*
X107530057Y-167752976D02*
X107625295Y-167705357D01*
X107625295Y-167705357D02*
X107768152Y-167705357D01*
X107768152Y-167705357D02*
X107863390Y-167752976D01*
X107863390Y-167752976D02*
X107911009Y-167800595D01*
X107911009Y-167800595D02*
X107958628Y-167895833D01*
X107958628Y-167895833D02*
X107958628Y-168276785D01*
X107530057Y-167324404D02*
X107482438Y-167276785D01*
X107482438Y-167276785D02*
X107434819Y-167181547D01*
X107434819Y-167181547D02*
X107434819Y-166943452D01*
X107434819Y-166943452D02*
X107482438Y-166848214D01*
X107482438Y-166848214D02*
X107530057Y-166800595D01*
X107530057Y-166800595D02*
X107625295Y-166752976D01*
X107625295Y-166752976D02*
X107720533Y-166752976D01*
X107720533Y-166752976D02*
X107863390Y-166800595D01*
X107863390Y-166800595D02*
X108434819Y-167372023D01*
X108434819Y-167372023D02*
X108434819Y-166752976D01*
X107863390Y-166181547D02*
X107815771Y-166276785D01*
X107815771Y-166276785D02*
X107768152Y-166324404D01*
X107768152Y-166324404D02*
X107672914Y-166372023D01*
X107672914Y-166372023D02*
X107625295Y-166372023D01*
X107625295Y-166372023D02*
X107530057Y-166324404D01*
X107530057Y-166324404D02*
X107482438Y-166276785D01*
X107482438Y-166276785D02*
X107434819Y-166181547D01*
X107434819Y-166181547D02*
X107434819Y-165991071D01*
X107434819Y-165991071D02*
X107482438Y-165895833D01*
X107482438Y-165895833D02*
X107530057Y-165848214D01*
X107530057Y-165848214D02*
X107625295Y-165800595D01*
X107625295Y-165800595D02*
X107672914Y-165800595D01*
X107672914Y-165800595D02*
X107768152Y-165848214D01*
X107768152Y-165848214D02*
X107815771Y-165895833D01*
X107815771Y-165895833D02*
X107863390Y-165991071D01*
X107863390Y-165991071D02*
X107863390Y-166181547D01*
X107863390Y-166181547D02*
X107911009Y-166276785D01*
X107911009Y-166276785D02*
X107958628Y-166324404D01*
X107958628Y-166324404D02*
X108053866Y-166372023D01*
X108053866Y-166372023D02*
X108244342Y-166372023D01*
X108244342Y-166372023D02*
X108339580Y-166324404D01*
X108339580Y-166324404D02*
X108387200Y-166276785D01*
X108387200Y-166276785D02*
X108434819Y-166181547D01*
X108434819Y-166181547D02*
X108434819Y-165991071D01*
X108434819Y-165991071D02*
X108387200Y-165895833D01*
X108387200Y-165895833D02*
X108339580Y-165848214D01*
X108339580Y-165848214D02*
X108244342Y-165800595D01*
X108244342Y-165800595D02*
X108053866Y-165800595D01*
X108053866Y-165800595D02*
X107958628Y-165848214D01*
X107958628Y-165848214D02*
X107911009Y-165895833D01*
X107911009Y-165895833D02*
X107863390Y-165991071D01*
X41434819Y-154166666D02*
X40958628Y-154499999D01*
X41434819Y-154738094D02*
X40434819Y-154738094D01*
X40434819Y-154738094D02*
X40434819Y-154357142D01*
X40434819Y-154357142D02*
X40482438Y-154261904D01*
X40482438Y-154261904D02*
X40530057Y-154214285D01*
X40530057Y-154214285D02*
X40625295Y-154166666D01*
X40625295Y-154166666D02*
X40768152Y-154166666D01*
X40768152Y-154166666D02*
X40863390Y-154214285D01*
X40863390Y-154214285D02*
X40911009Y-154261904D01*
X40911009Y-154261904D02*
X40958628Y-154357142D01*
X40958628Y-154357142D02*
X40958628Y-154738094D01*
X40434819Y-153309523D02*
X40434819Y-153499999D01*
X40434819Y-153499999D02*
X40482438Y-153595237D01*
X40482438Y-153595237D02*
X40530057Y-153642856D01*
X40530057Y-153642856D02*
X40672914Y-153738094D01*
X40672914Y-153738094D02*
X40863390Y-153785713D01*
X40863390Y-153785713D02*
X41244342Y-153785713D01*
X41244342Y-153785713D02*
X41339580Y-153738094D01*
X41339580Y-153738094D02*
X41387200Y-153690475D01*
X41387200Y-153690475D02*
X41434819Y-153595237D01*
X41434819Y-153595237D02*
X41434819Y-153404761D01*
X41434819Y-153404761D02*
X41387200Y-153309523D01*
X41387200Y-153309523D02*
X41339580Y-153261904D01*
X41339580Y-153261904D02*
X41244342Y-153214285D01*
X41244342Y-153214285D02*
X41006247Y-153214285D01*
X41006247Y-153214285D02*
X40911009Y-153261904D01*
X40911009Y-153261904D02*
X40863390Y-153309523D01*
X40863390Y-153309523D02*
X40815771Y-153404761D01*
X40815771Y-153404761D02*
X40815771Y-153595237D01*
X40815771Y-153595237D02*
X40863390Y-153690475D01*
X40863390Y-153690475D02*
X40911009Y-153738094D01*
X40911009Y-153738094D02*
X41006247Y-153785713D01*
X70844642Y-143374819D02*
X70511309Y-142898628D01*
X70273214Y-143374819D02*
X70273214Y-142374819D01*
X70273214Y-142374819D02*
X70654166Y-142374819D01*
X70654166Y-142374819D02*
X70749404Y-142422438D01*
X70749404Y-142422438D02*
X70797023Y-142470057D01*
X70797023Y-142470057D02*
X70844642Y-142565295D01*
X70844642Y-142565295D02*
X70844642Y-142708152D01*
X70844642Y-142708152D02*
X70797023Y-142803390D01*
X70797023Y-142803390D02*
X70749404Y-142851009D01*
X70749404Y-142851009D02*
X70654166Y-142898628D01*
X70654166Y-142898628D02*
X70273214Y-142898628D01*
X71797023Y-143374819D02*
X71225595Y-143374819D01*
X71511309Y-143374819D02*
X71511309Y-142374819D01*
X71511309Y-142374819D02*
X71416071Y-142517676D01*
X71416071Y-142517676D02*
X71320833Y-142612914D01*
X71320833Y-142612914D02*
X71225595Y-142660533D01*
X72654166Y-142374819D02*
X72463690Y-142374819D01*
X72463690Y-142374819D02*
X72368452Y-142422438D01*
X72368452Y-142422438D02*
X72320833Y-142470057D01*
X72320833Y-142470057D02*
X72225595Y-142612914D01*
X72225595Y-142612914D02*
X72177976Y-142803390D01*
X72177976Y-142803390D02*
X72177976Y-143184342D01*
X72177976Y-143184342D02*
X72225595Y-143279580D01*
X72225595Y-143279580D02*
X72273214Y-143327200D01*
X72273214Y-143327200D02*
X72368452Y-143374819D01*
X72368452Y-143374819D02*
X72558928Y-143374819D01*
X72558928Y-143374819D02*
X72654166Y-143327200D01*
X72654166Y-143327200D02*
X72701785Y-143279580D01*
X72701785Y-143279580D02*
X72749404Y-143184342D01*
X72749404Y-143184342D02*
X72749404Y-142946247D01*
X72749404Y-142946247D02*
X72701785Y-142851009D01*
X72701785Y-142851009D02*
X72654166Y-142803390D01*
X72654166Y-142803390D02*
X72558928Y-142755771D01*
X72558928Y-142755771D02*
X72368452Y-142755771D01*
X72368452Y-142755771D02*
X72273214Y-142803390D01*
X72273214Y-142803390D02*
X72225595Y-142851009D01*
X72225595Y-142851009D02*
X72177976Y-142946247D01*
X65567319Y-145583333D02*
X66281604Y-145583333D01*
X66281604Y-145583333D02*
X66424461Y-145630952D01*
X66424461Y-145630952D02*
X66519700Y-145726190D01*
X66519700Y-145726190D02*
X66567319Y-145869047D01*
X66567319Y-145869047D02*
X66567319Y-145964285D01*
X66567319Y-145107142D02*
X65567319Y-145107142D01*
X65567319Y-145107142D02*
X65567319Y-144726190D01*
X65567319Y-144726190D02*
X65614938Y-144630952D01*
X65614938Y-144630952D02*
X65662557Y-144583333D01*
X65662557Y-144583333D02*
X65757795Y-144535714D01*
X65757795Y-144535714D02*
X65900652Y-144535714D01*
X65900652Y-144535714D02*
X65995890Y-144583333D01*
X65995890Y-144583333D02*
X66043509Y-144630952D01*
X66043509Y-144630952D02*
X66091128Y-144726190D01*
X66091128Y-144726190D02*
X66091128Y-145107142D01*
X65995890Y-143964285D02*
X65948271Y-144059523D01*
X65948271Y-144059523D02*
X65900652Y-144107142D01*
X65900652Y-144107142D02*
X65805414Y-144154761D01*
X65805414Y-144154761D02*
X65757795Y-144154761D01*
X65757795Y-144154761D02*
X65662557Y-144107142D01*
X65662557Y-144107142D02*
X65614938Y-144059523D01*
X65614938Y-144059523D02*
X65567319Y-143964285D01*
X65567319Y-143964285D02*
X65567319Y-143773809D01*
X65567319Y-143773809D02*
X65614938Y-143678571D01*
X65614938Y-143678571D02*
X65662557Y-143630952D01*
X65662557Y-143630952D02*
X65757795Y-143583333D01*
X65757795Y-143583333D02*
X65805414Y-143583333D01*
X65805414Y-143583333D02*
X65900652Y-143630952D01*
X65900652Y-143630952D02*
X65948271Y-143678571D01*
X65948271Y-143678571D02*
X65995890Y-143773809D01*
X65995890Y-143773809D02*
X65995890Y-143964285D01*
X65995890Y-143964285D02*
X66043509Y-144059523D01*
X66043509Y-144059523D02*
X66091128Y-144107142D01*
X66091128Y-144107142D02*
X66186366Y-144154761D01*
X66186366Y-144154761D02*
X66376842Y-144154761D01*
X66376842Y-144154761D02*
X66472080Y-144107142D01*
X66472080Y-144107142D02*
X66519700Y-144059523D01*
X66519700Y-144059523D02*
X66567319Y-143964285D01*
X66567319Y-143964285D02*
X66567319Y-143773809D01*
X66567319Y-143773809D02*
X66519700Y-143678571D01*
X66519700Y-143678571D02*
X66472080Y-143630952D01*
X66472080Y-143630952D02*
X66376842Y-143583333D01*
X66376842Y-143583333D02*
X66186366Y-143583333D01*
X66186366Y-143583333D02*
X66091128Y-143630952D01*
X66091128Y-143630952D02*
X66043509Y-143678571D01*
X66043509Y-143678571D02*
X65995890Y-143773809D01*
X38934819Y-167166666D02*
X38458628Y-167499999D01*
X38934819Y-167738094D02*
X37934819Y-167738094D01*
X37934819Y-167738094D02*
X37934819Y-167357142D01*
X37934819Y-167357142D02*
X37982438Y-167261904D01*
X37982438Y-167261904D02*
X38030057Y-167214285D01*
X38030057Y-167214285D02*
X38125295Y-167166666D01*
X38125295Y-167166666D02*
X38268152Y-167166666D01*
X38268152Y-167166666D02*
X38363390Y-167214285D01*
X38363390Y-167214285D02*
X38411009Y-167261904D01*
X38411009Y-167261904D02*
X38458628Y-167357142D01*
X38458628Y-167357142D02*
X38458628Y-167738094D01*
X38030057Y-166785713D02*
X37982438Y-166738094D01*
X37982438Y-166738094D02*
X37934819Y-166642856D01*
X37934819Y-166642856D02*
X37934819Y-166404761D01*
X37934819Y-166404761D02*
X37982438Y-166309523D01*
X37982438Y-166309523D02*
X38030057Y-166261904D01*
X38030057Y-166261904D02*
X38125295Y-166214285D01*
X38125295Y-166214285D02*
X38220533Y-166214285D01*
X38220533Y-166214285D02*
X38363390Y-166261904D01*
X38363390Y-166261904D02*
X38934819Y-166833332D01*
X38934819Y-166833332D02*
X38934819Y-166214285D01*
X94540476Y-161654819D02*
X94540476Y-162369104D01*
X94540476Y-162369104D02*
X94492857Y-162511961D01*
X94492857Y-162511961D02*
X94397619Y-162607200D01*
X94397619Y-162607200D02*
X94254762Y-162654819D01*
X94254762Y-162654819D02*
X94159524Y-162654819D01*
X95016667Y-162654819D02*
X95016667Y-161654819D01*
X95016667Y-161654819D02*
X95397619Y-161654819D01*
X95397619Y-161654819D02*
X95492857Y-161702438D01*
X95492857Y-161702438D02*
X95540476Y-161750057D01*
X95540476Y-161750057D02*
X95588095Y-161845295D01*
X95588095Y-161845295D02*
X95588095Y-161988152D01*
X95588095Y-161988152D02*
X95540476Y-162083390D01*
X95540476Y-162083390D02*
X95492857Y-162131009D01*
X95492857Y-162131009D02*
X95397619Y-162178628D01*
X95397619Y-162178628D02*
X95016667Y-162178628D01*
X96540476Y-162654819D02*
X95969048Y-162654819D01*
X96254762Y-162654819D02*
X96254762Y-161654819D01*
X96254762Y-161654819D02*
X96159524Y-161797676D01*
X96159524Y-161797676D02*
X96064286Y-161892914D01*
X96064286Y-161892914D02*
X95969048Y-161940533D01*
X97397619Y-161654819D02*
X97207143Y-161654819D01*
X97207143Y-161654819D02*
X97111905Y-161702438D01*
X97111905Y-161702438D02*
X97064286Y-161750057D01*
X97064286Y-161750057D02*
X96969048Y-161892914D01*
X96969048Y-161892914D02*
X96921429Y-162083390D01*
X96921429Y-162083390D02*
X96921429Y-162464342D01*
X96921429Y-162464342D02*
X96969048Y-162559580D01*
X96969048Y-162559580D02*
X97016667Y-162607200D01*
X97016667Y-162607200D02*
X97111905Y-162654819D01*
X97111905Y-162654819D02*
X97302381Y-162654819D01*
X97302381Y-162654819D02*
X97397619Y-162607200D01*
X97397619Y-162607200D02*
X97445238Y-162559580D01*
X97445238Y-162559580D02*
X97492857Y-162464342D01*
X97492857Y-162464342D02*
X97492857Y-162226247D01*
X97492857Y-162226247D02*
X97445238Y-162131009D01*
X97445238Y-162131009D02*
X97397619Y-162083390D01*
X97397619Y-162083390D02*
X97302381Y-162035771D01*
X97302381Y-162035771D02*
X97111905Y-162035771D01*
X97111905Y-162035771D02*
X97016667Y-162083390D01*
X97016667Y-162083390D02*
X96969048Y-162131009D01*
X96969048Y-162131009D02*
X96921429Y-162226247D01*
X60482142Y-150434819D02*
X60148809Y-149958628D01*
X59910714Y-150434819D02*
X59910714Y-149434819D01*
X59910714Y-149434819D02*
X60291666Y-149434819D01*
X60291666Y-149434819D02*
X60386904Y-149482438D01*
X60386904Y-149482438D02*
X60434523Y-149530057D01*
X60434523Y-149530057D02*
X60482142Y-149625295D01*
X60482142Y-149625295D02*
X60482142Y-149768152D01*
X60482142Y-149768152D02*
X60434523Y-149863390D01*
X60434523Y-149863390D02*
X60386904Y-149911009D01*
X60386904Y-149911009D02*
X60291666Y-149958628D01*
X60291666Y-149958628D02*
X59910714Y-149958628D01*
X61434523Y-150434819D02*
X60863095Y-150434819D01*
X61148809Y-150434819D02*
X61148809Y-149434819D01*
X61148809Y-149434819D02*
X61053571Y-149577676D01*
X61053571Y-149577676D02*
X60958333Y-149672914D01*
X60958333Y-149672914D02*
X60863095Y-149720533D01*
X62386904Y-150434819D02*
X61815476Y-150434819D01*
X62101190Y-150434819D02*
X62101190Y-149434819D01*
X62101190Y-149434819D02*
X62005952Y-149577676D01*
X62005952Y-149577676D02*
X61910714Y-149672914D01*
X61910714Y-149672914D02*
X61815476Y-149720533D01*
X54107142Y-142224819D02*
X53773809Y-141748628D01*
X53535714Y-142224819D02*
X53535714Y-141224819D01*
X53535714Y-141224819D02*
X53916666Y-141224819D01*
X53916666Y-141224819D02*
X54011904Y-141272438D01*
X54011904Y-141272438D02*
X54059523Y-141320057D01*
X54059523Y-141320057D02*
X54107142Y-141415295D01*
X54107142Y-141415295D02*
X54107142Y-141558152D01*
X54107142Y-141558152D02*
X54059523Y-141653390D01*
X54059523Y-141653390D02*
X54011904Y-141701009D01*
X54011904Y-141701009D02*
X53916666Y-141748628D01*
X53916666Y-141748628D02*
X53535714Y-141748628D01*
X55059523Y-142224819D02*
X54488095Y-142224819D01*
X54773809Y-142224819D02*
X54773809Y-141224819D01*
X54773809Y-141224819D02*
X54678571Y-141367676D01*
X54678571Y-141367676D02*
X54583333Y-141462914D01*
X54583333Y-141462914D02*
X54488095Y-141510533D01*
X55964285Y-141224819D02*
X55488095Y-141224819D01*
X55488095Y-141224819D02*
X55440476Y-141701009D01*
X55440476Y-141701009D02*
X55488095Y-141653390D01*
X55488095Y-141653390D02*
X55583333Y-141605771D01*
X55583333Y-141605771D02*
X55821428Y-141605771D01*
X55821428Y-141605771D02*
X55916666Y-141653390D01*
X55916666Y-141653390D02*
X55964285Y-141701009D01*
X55964285Y-141701009D02*
X56011904Y-141796247D01*
X56011904Y-141796247D02*
X56011904Y-142034342D01*
X56011904Y-142034342D02*
X55964285Y-142129580D01*
X55964285Y-142129580D02*
X55916666Y-142177200D01*
X55916666Y-142177200D02*
X55821428Y-142224819D01*
X55821428Y-142224819D02*
X55583333Y-142224819D01*
X55583333Y-142224819D02*
X55488095Y-142177200D01*
X55488095Y-142177200D02*
X55440476Y-142129580D01*
X51754819Y-135483333D02*
X52469104Y-135483333D01*
X52469104Y-135483333D02*
X52611961Y-135530952D01*
X52611961Y-135530952D02*
X52707200Y-135626190D01*
X52707200Y-135626190D02*
X52754819Y-135769047D01*
X52754819Y-135769047D02*
X52754819Y-135864285D01*
X52754819Y-135007142D02*
X51754819Y-135007142D01*
X51754819Y-135007142D02*
X51754819Y-134626190D01*
X51754819Y-134626190D02*
X51802438Y-134530952D01*
X51802438Y-134530952D02*
X51850057Y-134483333D01*
X51850057Y-134483333D02*
X51945295Y-134435714D01*
X51945295Y-134435714D02*
X52088152Y-134435714D01*
X52088152Y-134435714D02*
X52183390Y-134483333D01*
X52183390Y-134483333D02*
X52231009Y-134530952D01*
X52231009Y-134530952D02*
X52278628Y-134626190D01*
X52278628Y-134626190D02*
X52278628Y-135007142D01*
X51754819Y-134102380D02*
X51754819Y-133435714D01*
X51754819Y-133435714D02*
X52754819Y-133864285D01*
X42516666Y-165054819D02*
X42516666Y-165769104D01*
X42516666Y-165769104D02*
X42469047Y-165911961D01*
X42469047Y-165911961D02*
X42373809Y-166007200D01*
X42373809Y-166007200D02*
X42230952Y-166054819D01*
X42230952Y-166054819D02*
X42135714Y-166054819D01*
X42992857Y-166054819D02*
X42992857Y-165054819D01*
X42992857Y-165054819D02*
X43373809Y-165054819D01*
X43373809Y-165054819D02*
X43469047Y-165102438D01*
X43469047Y-165102438D02*
X43516666Y-165150057D01*
X43516666Y-165150057D02*
X43564285Y-165245295D01*
X43564285Y-165245295D02*
X43564285Y-165388152D01*
X43564285Y-165388152D02*
X43516666Y-165483390D01*
X43516666Y-165483390D02*
X43469047Y-165531009D01*
X43469047Y-165531009D02*
X43373809Y-165578628D01*
X43373809Y-165578628D02*
X42992857Y-165578628D01*
X43897619Y-165054819D02*
X44516666Y-165054819D01*
X44516666Y-165054819D02*
X44183333Y-165435771D01*
X44183333Y-165435771D02*
X44326190Y-165435771D01*
X44326190Y-165435771D02*
X44421428Y-165483390D01*
X44421428Y-165483390D02*
X44469047Y-165531009D01*
X44469047Y-165531009D02*
X44516666Y-165626247D01*
X44516666Y-165626247D02*
X44516666Y-165864342D01*
X44516666Y-165864342D02*
X44469047Y-165959580D01*
X44469047Y-165959580D02*
X44421428Y-166007200D01*
X44421428Y-166007200D02*
X44326190Y-166054819D01*
X44326190Y-166054819D02*
X44040476Y-166054819D01*
X44040476Y-166054819D02*
X43945238Y-166007200D01*
X43945238Y-166007200D02*
X43897619Y-165959580D01*
X82357142Y-149934819D02*
X82023809Y-149458628D01*
X81785714Y-149934819D02*
X81785714Y-148934819D01*
X81785714Y-148934819D02*
X82166666Y-148934819D01*
X82166666Y-148934819D02*
X82261904Y-148982438D01*
X82261904Y-148982438D02*
X82309523Y-149030057D01*
X82309523Y-149030057D02*
X82357142Y-149125295D01*
X82357142Y-149125295D02*
X82357142Y-149268152D01*
X82357142Y-149268152D02*
X82309523Y-149363390D01*
X82309523Y-149363390D02*
X82261904Y-149411009D01*
X82261904Y-149411009D02*
X82166666Y-149458628D01*
X82166666Y-149458628D02*
X81785714Y-149458628D01*
X82738095Y-149030057D02*
X82785714Y-148982438D01*
X82785714Y-148982438D02*
X82880952Y-148934819D01*
X82880952Y-148934819D02*
X83119047Y-148934819D01*
X83119047Y-148934819D02*
X83214285Y-148982438D01*
X83214285Y-148982438D02*
X83261904Y-149030057D01*
X83261904Y-149030057D02*
X83309523Y-149125295D01*
X83309523Y-149125295D02*
X83309523Y-149220533D01*
X83309523Y-149220533D02*
X83261904Y-149363390D01*
X83261904Y-149363390D02*
X82690476Y-149934819D01*
X82690476Y-149934819D02*
X83309523Y-149934819D01*
X84166666Y-149268152D02*
X84166666Y-149934819D01*
X83928571Y-148887200D02*
X83690476Y-149601485D01*
X83690476Y-149601485D02*
X84309523Y-149601485D01*
X59400057Y-136345238D02*
X59352438Y-136440476D01*
X59352438Y-136440476D02*
X59257200Y-136535714D01*
X59257200Y-136535714D02*
X59114342Y-136678571D01*
X59114342Y-136678571D02*
X59066723Y-136773809D01*
X59066723Y-136773809D02*
X59066723Y-136869047D01*
X59304819Y-136821428D02*
X59257200Y-136916666D01*
X59257200Y-136916666D02*
X59161961Y-137011904D01*
X59161961Y-137011904D02*
X58971485Y-137059523D01*
X58971485Y-137059523D02*
X58638152Y-137059523D01*
X58638152Y-137059523D02*
X58447676Y-137011904D01*
X58447676Y-137011904D02*
X58352438Y-136916666D01*
X58352438Y-136916666D02*
X58304819Y-136821428D01*
X58304819Y-136821428D02*
X58304819Y-136630952D01*
X58304819Y-136630952D02*
X58352438Y-136535714D01*
X58352438Y-136535714D02*
X58447676Y-136440476D01*
X58447676Y-136440476D02*
X58638152Y-136392857D01*
X58638152Y-136392857D02*
X58971485Y-136392857D01*
X58971485Y-136392857D02*
X59161961Y-136440476D01*
X59161961Y-136440476D02*
X59257200Y-136535714D01*
X59257200Y-136535714D02*
X59304819Y-136630952D01*
X59304819Y-136630952D02*
X59304819Y-136821428D01*
X58304819Y-136059523D02*
X58304819Y-135440476D01*
X58304819Y-135440476D02*
X58685771Y-135773809D01*
X58685771Y-135773809D02*
X58685771Y-135630952D01*
X58685771Y-135630952D02*
X58733390Y-135535714D01*
X58733390Y-135535714D02*
X58781009Y-135488095D01*
X58781009Y-135488095D02*
X58876247Y-135440476D01*
X58876247Y-135440476D02*
X59114342Y-135440476D01*
X59114342Y-135440476D02*
X59209580Y-135488095D01*
X59209580Y-135488095D02*
X59257200Y-135535714D01*
X59257200Y-135535714D02*
X59304819Y-135630952D01*
X59304819Y-135630952D02*
X59304819Y-135916666D01*
X59304819Y-135916666D02*
X59257200Y-136011904D01*
X59257200Y-136011904D02*
X59209580Y-136059523D01*
X47434819Y-154229166D02*
X46958628Y-154562499D01*
X47434819Y-154800594D02*
X46434819Y-154800594D01*
X46434819Y-154800594D02*
X46434819Y-154419642D01*
X46434819Y-154419642D02*
X46482438Y-154324404D01*
X46482438Y-154324404D02*
X46530057Y-154276785D01*
X46530057Y-154276785D02*
X46625295Y-154229166D01*
X46625295Y-154229166D02*
X46768152Y-154229166D01*
X46768152Y-154229166D02*
X46863390Y-154276785D01*
X46863390Y-154276785D02*
X46911009Y-154324404D01*
X46911009Y-154324404D02*
X46958628Y-154419642D01*
X46958628Y-154419642D02*
X46958628Y-154800594D01*
X46434819Y-153895832D02*
X46434819Y-153229166D01*
X46434819Y-153229166D02*
X47434819Y-153657737D01*
X89402976Y-161654819D02*
X89402976Y-162369104D01*
X89402976Y-162369104D02*
X89355357Y-162511961D01*
X89355357Y-162511961D02*
X89260119Y-162607200D01*
X89260119Y-162607200D02*
X89117262Y-162654819D01*
X89117262Y-162654819D02*
X89022024Y-162654819D01*
X89879167Y-162654819D02*
X89879167Y-161654819D01*
X89879167Y-161654819D02*
X90260119Y-161654819D01*
X90260119Y-161654819D02*
X90355357Y-161702438D01*
X90355357Y-161702438D02*
X90402976Y-161750057D01*
X90402976Y-161750057D02*
X90450595Y-161845295D01*
X90450595Y-161845295D02*
X90450595Y-161988152D01*
X90450595Y-161988152D02*
X90402976Y-162083390D01*
X90402976Y-162083390D02*
X90355357Y-162131009D01*
X90355357Y-162131009D02*
X90260119Y-162178628D01*
X90260119Y-162178628D02*
X89879167Y-162178628D01*
X91402976Y-162654819D02*
X90831548Y-162654819D01*
X91117262Y-162654819D02*
X91117262Y-161654819D01*
X91117262Y-161654819D02*
X91022024Y-161797676D01*
X91022024Y-161797676D02*
X90926786Y-161892914D01*
X90926786Y-161892914D02*
X90831548Y-161940533D01*
X91736310Y-161654819D02*
X92402976Y-161654819D01*
X92402976Y-161654819D02*
X91974405Y-162654819D01*
X37666666Y-165254819D02*
X37666666Y-165969104D01*
X37666666Y-165969104D02*
X37619047Y-166111961D01*
X37619047Y-166111961D02*
X37523809Y-166207200D01*
X37523809Y-166207200D02*
X37380952Y-166254819D01*
X37380952Y-166254819D02*
X37285714Y-166254819D01*
X38142857Y-166254819D02*
X38142857Y-165254819D01*
X38142857Y-165254819D02*
X38523809Y-165254819D01*
X38523809Y-165254819D02*
X38619047Y-165302438D01*
X38619047Y-165302438D02*
X38666666Y-165350057D01*
X38666666Y-165350057D02*
X38714285Y-165445295D01*
X38714285Y-165445295D02*
X38714285Y-165588152D01*
X38714285Y-165588152D02*
X38666666Y-165683390D01*
X38666666Y-165683390D02*
X38619047Y-165731009D01*
X38619047Y-165731009D02*
X38523809Y-165778628D01*
X38523809Y-165778628D02*
X38142857Y-165778628D01*
X39095238Y-165350057D02*
X39142857Y-165302438D01*
X39142857Y-165302438D02*
X39238095Y-165254819D01*
X39238095Y-165254819D02*
X39476190Y-165254819D01*
X39476190Y-165254819D02*
X39571428Y-165302438D01*
X39571428Y-165302438D02*
X39619047Y-165350057D01*
X39619047Y-165350057D02*
X39666666Y-165445295D01*
X39666666Y-165445295D02*
X39666666Y-165540533D01*
X39666666Y-165540533D02*
X39619047Y-165683390D01*
X39619047Y-165683390D02*
X39047619Y-166254819D01*
X39047619Y-166254819D02*
X39666666Y-166254819D01*
X96434819Y-167767857D02*
X95958628Y-168101190D01*
X96434819Y-168339285D02*
X95434819Y-168339285D01*
X95434819Y-168339285D02*
X95434819Y-167958333D01*
X95434819Y-167958333D02*
X95482438Y-167863095D01*
X95482438Y-167863095D02*
X95530057Y-167815476D01*
X95530057Y-167815476D02*
X95625295Y-167767857D01*
X95625295Y-167767857D02*
X95768152Y-167767857D01*
X95768152Y-167767857D02*
X95863390Y-167815476D01*
X95863390Y-167815476D02*
X95911009Y-167863095D01*
X95911009Y-167863095D02*
X95958628Y-167958333D01*
X95958628Y-167958333D02*
X95958628Y-168339285D01*
X95530057Y-167386904D02*
X95482438Y-167339285D01*
X95482438Y-167339285D02*
X95434819Y-167244047D01*
X95434819Y-167244047D02*
X95434819Y-167005952D01*
X95434819Y-167005952D02*
X95482438Y-166910714D01*
X95482438Y-166910714D02*
X95530057Y-166863095D01*
X95530057Y-166863095D02*
X95625295Y-166815476D01*
X95625295Y-166815476D02*
X95720533Y-166815476D01*
X95720533Y-166815476D02*
X95863390Y-166863095D01*
X95863390Y-166863095D02*
X96434819Y-167434523D01*
X96434819Y-167434523D02*
X96434819Y-166815476D01*
X95434819Y-165958333D02*
X95434819Y-166148809D01*
X95434819Y-166148809D02*
X95482438Y-166244047D01*
X95482438Y-166244047D02*
X95530057Y-166291666D01*
X95530057Y-166291666D02*
X95672914Y-166386904D01*
X95672914Y-166386904D02*
X95863390Y-166434523D01*
X95863390Y-166434523D02*
X96244342Y-166434523D01*
X96244342Y-166434523D02*
X96339580Y-166386904D01*
X96339580Y-166386904D02*
X96387200Y-166339285D01*
X96387200Y-166339285D02*
X96434819Y-166244047D01*
X96434819Y-166244047D02*
X96434819Y-166053571D01*
X96434819Y-166053571D02*
X96387200Y-165958333D01*
X96387200Y-165958333D02*
X96339580Y-165910714D01*
X96339580Y-165910714D02*
X96244342Y-165863095D01*
X96244342Y-165863095D02*
X96006247Y-165863095D01*
X96006247Y-165863095D02*
X95911009Y-165910714D01*
X95911009Y-165910714D02*
X95863390Y-165958333D01*
X95863390Y-165958333D02*
X95815771Y-166053571D01*
X95815771Y-166053571D02*
X95815771Y-166244047D01*
X95815771Y-166244047D02*
X95863390Y-166339285D01*
X95863390Y-166339285D02*
X95911009Y-166386904D01*
X95911009Y-166386904D02*
X96006247Y-166434523D01*
X48044819Y-178603333D02*
X48759104Y-178603333D01*
X48759104Y-178603333D02*
X48901961Y-178650952D01*
X48901961Y-178650952D02*
X48997200Y-178746190D01*
X48997200Y-178746190D02*
X49044819Y-178889047D01*
X49044819Y-178889047D02*
X49044819Y-178984285D01*
X49044819Y-177603333D02*
X49044819Y-178174761D01*
X49044819Y-177889047D02*
X48044819Y-177889047D01*
X48044819Y-177889047D02*
X48187676Y-177984285D01*
X48187676Y-177984285D02*
X48282914Y-178079523D01*
X48282914Y-178079523D02*
X48330533Y-178174761D01*
X46166666Y-139404819D02*
X46166666Y-140119104D01*
X46166666Y-140119104D02*
X46119047Y-140261961D01*
X46119047Y-140261961D02*
X46023809Y-140357200D01*
X46023809Y-140357200D02*
X45880952Y-140404819D01*
X45880952Y-140404819D02*
X45785714Y-140404819D01*
X46642857Y-140404819D02*
X46642857Y-139404819D01*
X46642857Y-139404819D02*
X47023809Y-139404819D01*
X47023809Y-139404819D02*
X47119047Y-139452438D01*
X47119047Y-139452438D02*
X47166666Y-139500057D01*
X47166666Y-139500057D02*
X47214285Y-139595295D01*
X47214285Y-139595295D02*
X47214285Y-139738152D01*
X47214285Y-139738152D02*
X47166666Y-139833390D01*
X47166666Y-139833390D02*
X47119047Y-139881009D01*
X47119047Y-139881009D02*
X47023809Y-139928628D01*
X47023809Y-139928628D02*
X46642857Y-139928628D01*
X48119047Y-139404819D02*
X47642857Y-139404819D01*
X47642857Y-139404819D02*
X47595238Y-139881009D01*
X47595238Y-139881009D02*
X47642857Y-139833390D01*
X47642857Y-139833390D02*
X47738095Y-139785771D01*
X47738095Y-139785771D02*
X47976190Y-139785771D01*
X47976190Y-139785771D02*
X48071428Y-139833390D01*
X48071428Y-139833390D02*
X48119047Y-139881009D01*
X48119047Y-139881009D02*
X48166666Y-139976247D01*
X48166666Y-139976247D02*
X48166666Y-140214342D01*
X48166666Y-140214342D02*
X48119047Y-140309580D01*
X48119047Y-140309580D02*
X48071428Y-140357200D01*
X48071428Y-140357200D02*
X47976190Y-140404819D01*
X47976190Y-140404819D02*
X47738095Y-140404819D01*
X47738095Y-140404819D02*
X47642857Y-140357200D01*
X47642857Y-140357200D02*
X47595238Y-140309580D01*
X60741905Y-129244819D02*
X60741905Y-128244819D01*
X60741905Y-128244819D02*
X60980000Y-128244819D01*
X60980000Y-128244819D02*
X61122857Y-128292438D01*
X61122857Y-128292438D02*
X61218095Y-128387676D01*
X61218095Y-128387676D02*
X61265714Y-128482914D01*
X61265714Y-128482914D02*
X61313333Y-128673390D01*
X61313333Y-128673390D02*
X61313333Y-128816247D01*
X61313333Y-128816247D02*
X61265714Y-129006723D01*
X61265714Y-129006723D02*
X61218095Y-129101961D01*
X61218095Y-129101961D02*
X61122857Y-129197200D01*
X61122857Y-129197200D02*
X60980000Y-129244819D01*
X60980000Y-129244819D02*
X60741905Y-129244819D01*
X62170476Y-128244819D02*
X61980000Y-128244819D01*
X61980000Y-128244819D02*
X61884762Y-128292438D01*
X61884762Y-128292438D02*
X61837143Y-128340057D01*
X61837143Y-128340057D02*
X61741905Y-128482914D01*
X61741905Y-128482914D02*
X61694286Y-128673390D01*
X61694286Y-128673390D02*
X61694286Y-129054342D01*
X61694286Y-129054342D02*
X61741905Y-129149580D01*
X61741905Y-129149580D02*
X61789524Y-129197200D01*
X61789524Y-129197200D02*
X61884762Y-129244819D01*
X61884762Y-129244819D02*
X62075238Y-129244819D01*
X62075238Y-129244819D02*
X62170476Y-129197200D01*
X62170476Y-129197200D02*
X62218095Y-129149580D01*
X62218095Y-129149580D02*
X62265714Y-129054342D01*
X62265714Y-129054342D02*
X62265714Y-128816247D01*
X62265714Y-128816247D02*
X62218095Y-128721009D01*
X62218095Y-128721009D02*
X62170476Y-128673390D01*
X62170476Y-128673390D02*
X62075238Y-128625771D01*
X62075238Y-128625771D02*
X61884762Y-128625771D01*
X61884762Y-128625771D02*
X61789524Y-128673390D01*
X61789524Y-128673390D02*
X61741905Y-128721009D01*
X61741905Y-128721009D02*
X61694286Y-128816247D01*
X91919642Y-156974819D02*
X91586309Y-156498628D01*
X91348214Y-156974819D02*
X91348214Y-155974819D01*
X91348214Y-155974819D02*
X91729166Y-155974819D01*
X91729166Y-155974819D02*
X91824404Y-156022438D01*
X91824404Y-156022438D02*
X91872023Y-156070057D01*
X91872023Y-156070057D02*
X91919642Y-156165295D01*
X91919642Y-156165295D02*
X91919642Y-156308152D01*
X91919642Y-156308152D02*
X91872023Y-156403390D01*
X91872023Y-156403390D02*
X91824404Y-156451009D01*
X91824404Y-156451009D02*
X91729166Y-156498628D01*
X91729166Y-156498628D02*
X91348214Y-156498628D01*
X92300595Y-156070057D02*
X92348214Y-156022438D01*
X92348214Y-156022438D02*
X92443452Y-155974819D01*
X92443452Y-155974819D02*
X92681547Y-155974819D01*
X92681547Y-155974819D02*
X92776785Y-156022438D01*
X92776785Y-156022438D02*
X92824404Y-156070057D01*
X92824404Y-156070057D02*
X92872023Y-156165295D01*
X92872023Y-156165295D02*
X92872023Y-156260533D01*
X92872023Y-156260533D02*
X92824404Y-156403390D01*
X92824404Y-156403390D02*
X92252976Y-156974819D01*
X92252976Y-156974819D02*
X92872023Y-156974819D01*
X93348214Y-156974819D02*
X93538690Y-156974819D01*
X93538690Y-156974819D02*
X93633928Y-156927200D01*
X93633928Y-156927200D02*
X93681547Y-156879580D01*
X93681547Y-156879580D02*
X93776785Y-156736723D01*
X93776785Y-156736723D02*
X93824404Y-156546247D01*
X93824404Y-156546247D02*
X93824404Y-156165295D01*
X93824404Y-156165295D02*
X93776785Y-156070057D01*
X93776785Y-156070057D02*
X93729166Y-156022438D01*
X93729166Y-156022438D02*
X93633928Y-155974819D01*
X93633928Y-155974819D02*
X93443452Y-155974819D01*
X93443452Y-155974819D02*
X93348214Y-156022438D01*
X93348214Y-156022438D02*
X93300595Y-156070057D01*
X93300595Y-156070057D02*
X93252976Y-156165295D01*
X93252976Y-156165295D02*
X93252976Y-156403390D01*
X93252976Y-156403390D02*
X93300595Y-156498628D01*
X93300595Y-156498628D02*
X93348214Y-156546247D01*
X93348214Y-156546247D02*
X93443452Y-156593866D01*
X93443452Y-156593866D02*
X93633928Y-156593866D01*
X93633928Y-156593866D02*
X93729166Y-156546247D01*
X93729166Y-156546247D02*
X93776785Y-156498628D01*
X93776785Y-156498628D02*
X93824404Y-156403390D01*
X77432142Y-135684819D02*
X77098809Y-135208628D01*
X76860714Y-135684819D02*
X76860714Y-134684819D01*
X76860714Y-134684819D02*
X77241666Y-134684819D01*
X77241666Y-134684819D02*
X77336904Y-134732438D01*
X77336904Y-134732438D02*
X77384523Y-134780057D01*
X77384523Y-134780057D02*
X77432142Y-134875295D01*
X77432142Y-134875295D02*
X77432142Y-135018152D01*
X77432142Y-135018152D02*
X77384523Y-135113390D01*
X77384523Y-135113390D02*
X77336904Y-135161009D01*
X77336904Y-135161009D02*
X77241666Y-135208628D01*
X77241666Y-135208628D02*
X76860714Y-135208628D01*
X77813095Y-134780057D02*
X77860714Y-134732438D01*
X77860714Y-134732438D02*
X77955952Y-134684819D01*
X77955952Y-134684819D02*
X78194047Y-134684819D01*
X78194047Y-134684819D02*
X78289285Y-134732438D01*
X78289285Y-134732438D02*
X78336904Y-134780057D01*
X78336904Y-134780057D02*
X78384523Y-134875295D01*
X78384523Y-134875295D02*
X78384523Y-134970533D01*
X78384523Y-134970533D02*
X78336904Y-135113390D01*
X78336904Y-135113390D02*
X77765476Y-135684819D01*
X77765476Y-135684819D02*
X78384523Y-135684819D01*
X79003571Y-134684819D02*
X79098809Y-134684819D01*
X79098809Y-134684819D02*
X79194047Y-134732438D01*
X79194047Y-134732438D02*
X79241666Y-134780057D01*
X79241666Y-134780057D02*
X79289285Y-134875295D01*
X79289285Y-134875295D02*
X79336904Y-135065771D01*
X79336904Y-135065771D02*
X79336904Y-135303866D01*
X79336904Y-135303866D02*
X79289285Y-135494342D01*
X79289285Y-135494342D02*
X79241666Y-135589580D01*
X79241666Y-135589580D02*
X79194047Y-135637200D01*
X79194047Y-135637200D02*
X79098809Y-135684819D01*
X79098809Y-135684819D02*
X79003571Y-135684819D01*
X79003571Y-135684819D02*
X78908333Y-135637200D01*
X78908333Y-135637200D02*
X78860714Y-135589580D01*
X78860714Y-135589580D02*
X78813095Y-135494342D01*
X78813095Y-135494342D02*
X78765476Y-135303866D01*
X78765476Y-135303866D02*
X78765476Y-135065771D01*
X78765476Y-135065771D02*
X78813095Y-134875295D01*
X78813095Y-134875295D02*
X78860714Y-134780057D01*
X78860714Y-134780057D02*
X78908333Y-134732438D01*
X78908333Y-134732438D02*
X79003571Y-134684819D01*
X86940476Y-152504819D02*
X86940476Y-153219104D01*
X86940476Y-153219104D02*
X86892857Y-153361961D01*
X86892857Y-153361961D02*
X86797619Y-153457200D01*
X86797619Y-153457200D02*
X86654762Y-153504819D01*
X86654762Y-153504819D02*
X86559524Y-153504819D01*
X87416667Y-153504819D02*
X87416667Y-152504819D01*
X87416667Y-152504819D02*
X87797619Y-152504819D01*
X87797619Y-152504819D02*
X87892857Y-152552438D01*
X87892857Y-152552438D02*
X87940476Y-152600057D01*
X87940476Y-152600057D02*
X87988095Y-152695295D01*
X87988095Y-152695295D02*
X87988095Y-152838152D01*
X87988095Y-152838152D02*
X87940476Y-152933390D01*
X87940476Y-152933390D02*
X87892857Y-152981009D01*
X87892857Y-152981009D02*
X87797619Y-153028628D01*
X87797619Y-153028628D02*
X87416667Y-153028628D01*
X88940476Y-153504819D02*
X88369048Y-153504819D01*
X88654762Y-153504819D02*
X88654762Y-152504819D01*
X88654762Y-152504819D02*
X88559524Y-152647676D01*
X88559524Y-152647676D02*
X88464286Y-152742914D01*
X88464286Y-152742914D02*
X88369048Y-152790533D01*
X89845238Y-152504819D02*
X89369048Y-152504819D01*
X89369048Y-152504819D02*
X89321429Y-152981009D01*
X89321429Y-152981009D02*
X89369048Y-152933390D01*
X89369048Y-152933390D02*
X89464286Y-152885771D01*
X89464286Y-152885771D02*
X89702381Y-152885771D01*
X89702381Y-152885771D02*
X89797619Y-152933390D01*
X89797619Y-152933390D02*
X89845238Y-152981009D01*
X89845238Y-152981009D02*
X89892857Y-153076247D01*
X89892857Y-153076247D02*
X89892857Y-153314342D01*
X89892857Y-153314342D02*
X89845238Y-153409580D01*
X89845238Y-153409580D02*
X89797619Y-153457200D01*
X89797619Y-153457200D02*
X89702381Y-153504819D01*
X89702381Y-153504819D02*
X89464286Y-153504819D01*
X89464286Y-153504819D02*
X89369048Y-153457200D01*
X89369048Y-153457200D02*
X89321429Y-153409580D01*
D11*
%TO.C,R27*%
X97015000Y-166852258D02*
X97015000Y-167272742D01*
X100985000Y-166852258D02*
X100985000Y-167272742D01*
%TO.C,JP4*%
X39200000Y-151300000D02*
X39200000Y-150700000D01*
X39900000Y-150000000D02*
X41300000Y-150000000D01*
X41300000Y-152000000D02*
X39900000Y-152000000D01*
X42000000Y-150700000D02*
X42000000Y-151300000D01*
X39200000Y-150700000D02*
G75*
G02*
X39900000Y-150000000I699999J1D01*
G01*
X39900000Y-152000000D02*
G75*
G02*
X39200000Y-151300000I-1J699999D01*
G01*
X41300000Y-150000000D02*
G75*
G02*
X42000000Y-150700000I0J-700000D01*
G01*
X42000000Y-151300000D02*
G75*
G02*
X41300000Y-152000000I-700000J0D01*
G01*
%TO.C,JP11*%
X67400000Y-144200000D02*
X67400000Y-142800000D01*
X68100000Y-142100000D02*
X68700000Y-142100000D01*
X68700000Y-144900000D02*
X68100000Y-144900000D01*
X69400000Y-142800000D02*
X69400000Y-144200000D01*
X67400000Y-142800000D02*
G75*
G02*
X68100000Y-142100000I699999J1D01*
G01*
X68100000Y-144900000D02*
G75*
G02*
X67400000Y-144200000I0J700000D01*
G01*
X68700000Y-142100000D02*
G75*
G02*
X69400000Y-142800000I1J-699999D01*
G01*
X69400000Y-144200000D02*
G75*
G02*
X68700000Y-144900000I-700000J0D01*
G01*
%TO.C,JP18*%
X100450000Y-164300000D02*
X100450000Y-163700000D01*
X101150000Y-163000000D02*
X102550000Y-163000000D01*
X102550000Y-165000000D02*
X101150000Y-165000000D01*
X103250000Y-163700000D02*
X103250000Y-164300000D01*
X100450000Y-163700000D02*
G75*
G02*
X101150000Y-163000000I699999J1D01*
G01*
X101150000Y-165000000D02*
G75*
G02*
X100450000Y-164300000I-1J699999D01*
G01*
X102550000Y-163000000D02*
G75*
G02*
X103250000Y-163700000I0J-700000D01*
G01*
X103250000Y-164300000D02*
G75*
G02*
X102550000Y-165000000I-700000J0D01*
G01*
%TO.C,JP1*%
X30950000Y-164300000D02*
X30950000Y-163700000D01*
X31650000Y-163000000D02*
X33050000Y-163000000D01*
X33050000Y-165000000D02*
X31650000Y-165000000D01*
X33750000Y-163700000D02*
X33750000Y-164300000D01*
X30950000Y-163700000D02*
G75*
G02*
X31650000Y-163000000I700000J0D01*
G01*
X31650000Y-165000000D02*
G75*
G02*
X30950000Y-164300000I0J700000D01*
G01*
X33050000Y-163000000D02*
G75*
G02*
X33750000Y-163700000I1J-699999D01*
G01*
X33750000Y-164300000D02*
G75*
G02*
X33050000Y-165000000I-699999J-1D01*
G01*
%TO.C,R10*%
X45039758Y-143515000D02*
X45460242Y-143515000D01*
X45039758Y-147485000D02*
X45460242Y-147485000D01*
%TO.C,D1*%
X31565000Y-158185000D02*
X31565000Y-158029000D01*
X31565000Y-160501000D02*
X31565000Y-160345000D01*
X28332666Y-158186392D02*
G75*
G02*
X31564999Y-158029485I1672334J-1078608D01*
G01*
X28963871Y-158185164D02*
G75*
G02*
X31045960Y-158185001I1041129J-1079836D01*
G01*
X31045960Y-160344999D02*
G75*
G02*
X28963871Y-160344836I-1040960J1079999D01*
G01*
X31564999Y-160500515D02*
G75*
G02*
X28332666Y-160343608I-1559999J1235515D01*
G01*
%TO.C,R17*%
X71189758Y-139165000D02*
X71610242Y-139165000D01*
X71189758Y-143135000D02*
X71610242Y-143135000D01*
%TO.C,R1*%
X27515000Y-166789758D02*
X27515000Y-167210242D01*
X31485000Y-166789758D02*
X31485000Y-167210242D01*
%TO.C,D9*%
X102670000Y-157764000D02*
X102670000Y-157920000D01*
X102670000Y-160080000D02*
X102670000Y-160236000D01*
X102670001Y-157764485D02*
G75*
G02*
X105902334Y-157921392I1559999J-1235515D01*
G01*
X103189040Y-157920001D02*
G75*
G02*
X105271129Y-157920164I1040960J-1079999D01*
G01*
X105271129Y-160079836D02*
G75*
G02*
X103189040Y-160079999I-1041129J1079836D01*
G01*
X105902334Y-160078608D02*
G75*
G02*
X102670001Y-160235515I-1672334J1078608D01*
G01*
%TO.C,R18*%
X78285242Y-142015000D02*
X77864758Y-142015000D01*
X78285242Y-145985000D02*
X77864758Y-145985000D01*
%TO.C,R4*%
X41910242Y-157815000D02*
X41489758Y-157815000D01*
X41910242Y-161785000D02*
X41489758Y-161785000D01*
%TO.C,R9*%
X48960242Y-143515000D02*
X48539758Y-143515000D01*
X48960242Y-147485000D02*
X48539758Y-147485000D01*
%TO.C,R8*%
X48015000Y-153789758D02*
X48015000Y-154210242D01*
X51985000Y-153789758D02*
X51985000Y-154210242D01*
%TO.C,R22*%
X89515000Y-154102258D02*
X89515000Y-154522742D01*
X93485000Y-154102258D02*
X93485000Y-154522742D01*
%TO.C,D5*%
X34514000Y-149290000D02*
X34670000Y-149290000D01*
X36830000Y-149290000D02*
X36986000Y-149290000D01*
X34514485Y-149289999D02*
G75*
G02*
X34671392Y-146057666I1235515J1559999D01*
G01*
X34670001Y-148770960D02*
G75*
G02*
X34670164Y-146688871I1079999J1040960D01*
G01*
X36828608Y-146057666D02*
G75*
G02*
X36985515Y-149289999I-1078608J-1672334D01*
G01*
X36829836Y-146688871D02*
G75*
G02*
X36829999Y-148770960I-1079836J-1041129D01*
G01*
%TO.C,R23*%
X83515000Y-154102258D02*
X83515000Y-154522742D01*
X87485000Y-154102258D02*
X87485000Y-154522742D01*
%TO.C,JP12*%
X81075000Y-135700000D02*
X81075000Y-134300000D01*
X81775000Y-133600000D02*
X82375000Y-133600000D01*
X82375000Y-136400000D02*
X81775000Y-136400000D01*
X83075000Y-134300000D02*
X83075000Y-135700000D01*
X81075000Y-134300000D02*
G75*
G02*
X81775000Y-133600000I700000J0D01*
G01*
X81775000Y-136400000D02*
G75*
G02*
X81075000Y-135700000I-1J699999D01*
G01*
X82375000Y-133600000D02*
G75*
G02*
X83075000Y-134300000I0J-700000D01*
G01*
X83075000Y-135700000D02*
G75*
G02*
X82375000Y-136400000I-699999J-1D01*
G01*
%TO.C,R14*%
X54539758Y-136765000D02*
X54960242Y-136765000D01*
X54539758Y-140735000D02*
X54960242Y-140735000D01*
%TO.C,R13*%
X54539758Y-130702500D02*
X54960242Y-130702500D01*
X54539758Y-134672500D02*
X54960242Y-134672500D01*
%TO.C,D8*%
X97249000Y-150065000D02*
X97405000Y-150065000D01*
X99565000Y-150065000D02*
X99721000Y-150065000D01*
X97249485Y-150064999D02*
G75*
G02*
X97406392Y-146832666I1235515J1559999D01*
G01*
X97405001Y-149545960D02*
G75*
G02*
X97405164Y-147463871I1079999J1040960D01*
G01*
X99563608Y-146832666D02*
G75*
G02*
X99720515Y-150064999I-1078608J-1672334D01*
G01*
X99564836Y-147463871D02*
G75*
G02*
X99564999Y-149545960I-1079836J-1041129D01*
G01*
%TO.C,D7*%
X71920000Y-130514000D02*
X71920000Y-130670000D01*
X71920000Y-132830000D02*
X71920000Y-132986000D01*
X71920001Y-130514485D02*
G75*
G02*
X75152334Y-130671392I1559999J-1235515D01*
G01*
X72439040Y-130670001D02*
G75*
G02*
X74521129Y-130670164I1040960J-1079999D01*
G01*
X74521129Y-132829836D02*
G75*
G02*
X72439040Y-132829999I-1041129J1079836D01*
G01*
X75152334Y-132828608D02*
G75*
G02*
X71920001Y-132985515I-1672334J1078608D01*
G01*
%TO.C,JP13*%
X93000000Y-151550000D02*
X93000000Y-150950000D01*
X93700000Y-150250000D02*
X95100000Y-150250000D01*
X95100000Y-152250000D02*
X93700000Y-152250000D01*
X95800000Y-150950000D02*
X95800000Y-151550000D01*
X93000000Y-150950000D02*
G75*
G02*
X93700000Y-150250000I700000J0D01*
G01*
X93700000Y-152250000D02*
G75*
G02*
X93000000Y-151550000I0J700000D01*
G01*
X95100000Y-150250000D02*
G75*
G02*
X95800000Y-150950000I1J-699999D01*
G01*
X95800000Y-151550000D02*
G75*
G02*
X95100000Y-152250000I-699999J-1D01*
G01*
%TO.C,Q6*%
X98562500Y-157440000D02*
X97912500Y-157440000D01*
X98562500Y-157440000D02*
X99212500Y-157440000D01*
X98562500Y-160560000D02*
X97912500Y-160560000D01*
X98562500Y-160560000D02*
X99212500Y-160560000D01*
X97400000Y-157490000D02*
X97160000Y-157160000D01*
X97640000Y-157160000D01*
X97400000Y-157490000D01*
G36*
X97400000Y-157490000D02*
G01*
X97160000Y-157160000D01*
X97640000Y-157160000D01*
X97400000Y-157490000D01*
G37*
%TO.C,Q5*%
X91250000Y-146690000D02*
X90600000Y-146690000D01*
X91250000Y-146690000D02*
X91900000Y-146690000D01*
X91250000Y-149810000D02*
X90600000Y-149810000D01*
X91250000Y-149810000D02*
X91900000Y-149810000D01*
X90087500Y-146740000D02*
X89847500Y-146410000D01*
X90327500Y-146410000D01*
X90087500Y-146740000D01*
G36*
X90087500Y-146740000D02*
G01*
X89847500Y-146410000D01*
X90327500Y-146410000D01*
X90087500Y-146740000D01*
G37*
%TO.C,R19*%
X78272742Y-136265000D02*
X77852258Y-136265000D01*
X78272742Y-140235000D02*
X77852258Y-140235000D01*
%TO.C,R12*%
X61272742Y-140265000D02*
X60852258Y-140265000D01*
X61272742Y-144235000D02*
X60852258Y-144235000D01*
%TO.C,R21*%
X95515000Y-154102258D02*
X95515000Y-154522742D01*
X99485000Y-154102258D02*
X99485000Y-154522742D01*
%TO.C,JP14*%
X83850000Y-142050000D02*
X83850000Y-141450000D01*
X84550000Y-140750000D02*
X85950000Y-140750000D01*
X85950000Y-142750000D02*
X84550000Y-142750000D01*
X86650000Y-141450000D02*
X86650000Y-142050000D01*
X83850000Y-141450000D02*
G75*
G02*
X84550000Y-140750000I700000J0D01*
G01*
X84550000Y-142750000D02*
G75*
G02*
X83850000Y-142050000I0J700000D01*
G01*
X85950000Y-140750000D02*
G75*
G02*
X86650000Y-141450000I1J-699999D01*
G01*
X86650000Y-142050000D02*
G75*
G02*
X85950000Y-142750000I-699999J-1D01*
G01*
%TO.C,JP9*%
X49500000Y-140550000D02*
X49500000Y-139150000D01*
X50200000Y-138450000D02*
X50800000Y-138450000D01*
X50800000Y-141250000D02*
X50200000Y-141250000D01*
X51500000Y-139150000D02*
X51500000Y-140550000D01*
X49500000Y-139150000D02*
G75*
G02*
X50200000Y-138450000I699999J1D01*
G01*
X50200000Y-141250000D02*
G75*
G02*
X49500000Y-140550000I0J700000D01*
G01*
X50800000Y-138450000D02*
G75*
G02*
X51500000Y-139150000I1J-699999D01*
G01*
X51500000Y-140550000D02*
G75*
G02*
X50800000Y-141250000I-700000J0D01*
G01*
%TO.C,R5*%
X44927258Y-157815000D02*
X45347742Y-157815000D01*
X44927258Y-161785000D02*
X45347742Y-161785000D01*
%TO.C,Q2*%
X41062500Y-146265000D02*
X40412500Y-146265000D01*
X41062500Y-146265000D02*
X41712500Y-146265000D01*
X41062500Y-149385000D02*
X40412500Y-149385000D01*
X41062500Y-149385000D02*
X41712500Y-149385000D01*
X42465000Y-149665000D02*
X41985000Y-149665000D01*
X42225000Y-149335000D01*
X42465000Y-149665000D01*
G36*
X42465000Y-149665000D02*
G01*
X41985000Y-149665000D01*
X42225000Y-149335000D01*
X42465000Y-149665000D01*
G37*
%TO.C,Q1*%
X34290000Y-159087500D02*
X34290000Y-158437500D01*
X34290000Y-159087500D02*
X34290000Y-159737500D01*
X37410000Y-159087500D02*
X37410000Y-158437500D01*
X37410000Y-159087500D02*
X37410000Y-159737500D01*
X37690000Y-158165000D02*
X37360000Y-157925000D01*
X37690000Y-157685000D01*
X37690000Y-158165000D01*
G36*
X37690000Y-158165000D02*
G01*
X37360000Y-157925000D01*
X37690000Y-157685000D01*
X37690000Y-158165000D01*
G37*
%TO.C,R25*%
X86789758Y-144515000D02*
X87210242Y-144515000D01*
X86789758Y-148485000D02*
X87210242Y-148485000D01*
%TO.C,JP10*%
X81075000Y-141950000D02*
X81075000Y-140550000D01*
X81775000Y-139850000D02*
X82375000Y-139850000D01*
X82375000Y-142650000D02*
X81775000Y-142650000D01*
X83075000Y-140550000D02*
X83075000Y-141950000D01*
X81075000Y-140550000D02*
G75*
G02*
X81775000Y-139850000I700000J0D01*
G01*
X81775000Y-142650000D02*
G75*
G02*
X81075000Y-141950000I-1J699999D01*
G01*
X82375000Y-139850000D02*
G75*
G02*
X83075000Y-140550000I0J-700000D01*
G01*
X83075000Y-141950000D02*
G75*
G02*
X82375000Y-142650000I-699999J-1D01*
G01*
%TO.C,JP6*%
X45700000Y-151300000D02*
X45700000Y-150700000D01*
X46400000Y-150000000D02*
X47800000Y-150000000D01*
X47800000Y-152000000D02*
X46400000Y-152000000D01*
X48500000Y-150700000D02*
X48500000Y-151300000D01*
X45700000Y-150700000D02*
G75*
G02*
X46400000Y-150000000I699999J1D01*
G01*
X46400000Y-152000000D02*
G75*
G02*
X45700000Y-151300000I-1J699999D01*
G01*
X47800000Y-150000000D02*
G75*
G02*
X48500000Y-150700000I0J-700000D01*
G01*
X48500000Y-151300000D02*
G75*
G02*
X47800000Y-152000000I-700000J0D01*
G01*
%TO.C,Q4*%
X71940000Y-136437500D02*
X71940000Y-135787500D01*
X71940000Y-136437500D02*
X71940000Y-137087500D01*
X75060000Y-136437500D02*
X75060000Y-135787500D01*
X75060000Y-136437500D02*
X75060000Y-137087500D01*
X71990000Y-137600000D02*
X71660000Y-137840000D01*
X71660000Y-137360000D01*
X71990000Y-137600000D01*
G36*
X71990000Y-137600000D02*
G01*
X71660000Y-137840000D01*
X71660000Y-137360000D01*
X71990000Y-137600000D01*
G37*
%TO.C,R30*%
X88772742Y-157515000D02*
X88352258Y-157515000D01*
X88772742Y-161485000D02*
X88352258Y-161485000D01*
%TO.C,R3*%
X39515000Y-166789758D02*
X39515000Y-167210242D01*
X43485000Y-166789758D02*
X43485000Y-167210242D01*
%TO.C,R28*%
X103015000Y-166852258D02*
X103015000Y-167272742D01*
X106985000Y-166852258D02*
X106985000Y-167272742D01*
%TO.C,R6*%
X36015000Y-153789758D02*
X36015000Y-154210242D01*
X39985000Y-153789758D02*
X39985000Y-154210242D01*
%TO.C,R16*%
X71277258Y-143915000D02*
X71697742Y-143915000D01*
X71277258Y-147885000D02*
X71697742Y-147885000D01*
%TO.C,JP8*%
X63312500Y-145450000D02*
X63312500Y-144050000D01*
X64012500Y-143350000D02*
X64612500Y-143350000D01*
X64612500Y-146150000D02*
X64012500Y-146150000D01*
X65312500Y-144050000D02*
X65312500Y-145450000D01*
X63312500Y-144050000D02*
G75*
G02*
X64012500Y-143350000I699999J1D01*
G01*
X64012500Y-146150000D02*
G75*
G02*
X63312500Y-145450000I0J700000D01*
G01*
X64612500Y-143350000D02*
G75*
G02*
X65312500Y-144050000I1J-699999D01*
G01*
X65312500Y-145450000D02*
G75*
G02*
X64612500Y-146150000I-700000J0D01*
G01*
%TO.C,R2*%
X33515000Y-166789758D02*
X33515000Y-167210242D01*
X37485000Y-166789758D02*
X37485000Y-167210242D01*
%TO.C,JP16*%
X94450000Y-164300000D02*
X94450000Y-163700000D01*
X95150000Y-163000000D02*
X96550000Y-163000000D01*
X96550000Y-165000000D02*
X95150000Y-165000000D01*
X97250000Y-163700000D02*
X97250000Y-164300000D01*
X94450000Y-163700000D02*
G75*
G02*
X95150000Y-163000000I699999J1D01*
G01*
X95150000Y-165000000D02*
G75*
G02*
X94450000Y-164300000I-1J699999D01*
G01*
X96550000Y-163000000D02*
G75*
G02*
X97250000Y-163700000I0J-700000D01*
G01*
X97250000Y-164300000D02*
G75*
G02*
X96550000Y-165000000I-700000J0D01*
G01*
%TO.C,R11*%
X61335242Y-145015000D02*
X60914758Y-145015000D01*
X61335242Y-148985000D02*
X60914758Y-148985000D01*
%TO.C,R15*%
X54539758Y-142765000D02*
X54960242Y-142765000D01*
X54539758Y-146735000D02*
X54960242Y-146735000D01*
%TO.C,JP7*%
X49500000Y-135350000D02*
X49500000Y-133950000D01*
X50200000Y-133250000D02*
X50800000Y-133250000D01*
X50800000Y-136050000D02*
X50200000Y-136050000D01*
X51500000Y-133950000D02*
X51500000Y-135350000D01*
X49500000Y-133950000D02*
G75*
G02*
X50200000Y-133250000I699999J1D01*
G01*
X50200000Y-136050000D02*
G75*
G02*
X49500000Y-135350000I0J700000D01*
G01*
X50800000Y-133250000D02*
G75*
G02*
X51500000Y-133950000I1J-699999D01*
G01*
X51500000Y-135350000D02*
G75*
G02*
X50800000Y-136050000I-700000J0D01*
G01*
%TO.C,JP3*%
X41950000Y-164100000D02*
X41950000Y-163500000D01*
X42650000Y-162800000D02*
X44050000Y-162800000D01*
X44050000Y-164800000D02*
X42650000Y-164800000D01*
X44750000Y-163500000D02*
X44750000Y-164100000D01*
X41950000Y-163500000D02*
G75*
G02*
X42650000Y-162800000I700000J0D01*
G01*
X42650000Y-164800000D02*
G75*
G02*
X41950000Y-164100000I0J700000D01*
G01*
X44050000Y-162800000D02*
G75*
G02*
X44750000Y-163500000I1J-699999D01*
G01*
X44750000Y-164100000D02*
G75*
G02*
X44050000Y-164800000I-699999J-1D01*
G01*
%TO.C,R24*%
X83210242Y-144515000D02*
X82789758Y-144515000D01*
X83210242Y-148485000D02*
X82789758Y-148485000D01*
%TO.C,Q3*%
X59690000Y-136250000D02*
X59690000Y-135600000D01*
X59690000Y-136250000D02*
X59690000Y-136900000D01*
X62810000Y-136250000D02*
X62810000Y-135600000D01*
X62810000Y-136250000D02*
X62810000Y-136900000D01*
X59740000Y-137412500D02*
X59410000Y-137652500D01*
X59410000Y-137172500D01*
X59740000Y-137412500D01*
G36*
X59740000Y-137412500D02*
G01*
X59410000Y-137652500D01*
X59410000Y-137172500D01*
X59740000Y-137412500D01*
G37*
%TO.C,R7*%
X42015000Y-153852258D02*
X42015000Y-154272742D01*
X45985000Y-153852258D02*
X45985000Y-154272742D01*
%TO.C,JP17*%
X89312500Y-164300000D02*
X89312500Y-163700000D01*
X90012500Y-163000000D02*
X91412500Y-163000000D01*
X91412500Y-165000000D02*
X90012500Y-165000000D01*
X92112500Y-163700000D02*
X92112500Y-164300000D01*
X89312500Y-163700000D02*
G75*
G02*
X90012500Y-163000000I699999J1D01*
G01*
X90012500Y-165000000D02*
G75*
G02*
X89312500Y-164300000I-1J699999D01*
G01*
X91412500Y-163000000D02*
G75*
G02*
X92112500Y-163700000I0J-700000D01*
G01*
X92112500Y-164300000D02*
G75*
G02*
X91412500Y-165000000I-700000J0D01*
G01*
%TO.C,JP2*%
X37100000Y-164300000D02*
X37100000Y-163700000D01*
X37800000Y-163000000D02*
X39200000Y-163000000D01*
X39200000Y-165000000D02*
X37800000Y-165000000D01*
X39900000Y-163700000D02*
X39900000Y-164300000D01*
X37100000Y-163700000D02*
G75*
G02*
X37800000Y-163000000I700000J0D01*
G01*
X37800000Y-165000000D02*
G75*
G02*
X37100000Y-164300000I0J700000D01*
G01*
X39200000Y-163000000D02*
G75*
G02*
X39900000Y-163700000I1J-699999D01*
G01*
X39900000Y-164300000D02*
G75*
G02*
X39200000Y-165000000I-699999J-1D01*
G01*
%TO.C,R26*%
X91015000Y-166914758D02*
X91015000Y-167335242D01*
X94985000Y-166914758D02*
X94985000Y-167335242D01*
%TO.C,J1*%
X49590000Y-175670000D02*
X85270000Y-175670000D01*
X49590000Y-178270000D02*
X49590000Y-175670000D01*
X49590000Y-180870000D02*
X49590000Y-179540000D01*
X50920000Y-180870000D02*
X49590000Y-180870000D01*
X52190000Y-178270000D02*
X49590000Y-178270000D01*
X52190000Y-180870000D02*
X52190000Y-178270000D01*
X52190000Y-180870000D02*
X85270000Y-180870000D01*
X85270000Y-180870000D02*
X85270000Y-175670000D01*
%TO.C,JP5*%
X45600000Y-142050000D02*
X45600000Y-141450000D01*
X46300000Y-140750000D02*
X47700000Y-140750000D01*
X47700000Y-142750000D02*
X46300000Y-142750000D01*
X48400000Y-141450000D02*
X48400000Y-142050000D01*
X45600000Y-141450000D02*
G75*
G02*
X46300000Y-140750000I699999J1D01*
G01*
X46300000Y-142750000D02*
G75*
G02*
X45600000Y-142050000I-1J699999D01*
G01*
X47700000Y-140750000D02*
G75*
G02*
X48400000Y-141450000I0J-700000D01*
G01*
X48400000Y-142050000D02*
G75*
G02*
X47700000Y-142750000I-700000J0D01*
G01*
%TO.C,D6*%
X59920000Y-130514000D02*
X59920000Y-130670000D01*
X59920000Y-132830000D02*
X59920000Y-132986000D01*
X59920001Y-130514485D02*
G75*
G02*
X63152334Y-130671392I1559999J-1235515D01*
G01*
X60439040Y-130670001D02*
G75*
G02*
X62521129Y-130670164I1040960J-1079999D01*
G01*
X62521129Y-132829836D02*
G75*
G02*
X60439040Y-132829999I-1041129J1079836D01*
G01*
X63152334Y-132828608D02*
G75*
G02*
X59920001Y-132985515I-1672334J1078608D01*
G01*
%TO.C,R29*%
X92352258Y-157515000D02*
X92772742Y-157515000D01*
X92352258Y-161485000D02*
X92772742Y-161485000D01*
%TO.C,R20*%
X78285242Y-130265000D02*
X77864758Y-130265000D01*
X78285242Y-134235000D02*
X77864758Y-134235000D01*
%TO.C,JP15*%
X86850000Y-151550000D02*
X86850000Y-150950000D01*
X87550000Y-150250000D02*
X88950000Y-150250000D01*
X88950000Y-152250000D02*
X87550000Y-152250000D01*
X89650000Y-150950000D02*
X89650000Y-151550000D01*
X86850000Y-150950000D02*
G75*
G02*
X87550000Y-150250000I700000J0D01*
G01*
X87550000Y-152250000D02*
G75*
G02*
X86850000Y-151550000I0J700000D01*
G01*
X88950000Y-150250000D02*
G75*
G02*
X89650000Y-150950000I1J-699999D01*
G01*
X89650000Y-151550000D02*
G75*
G02*
X88950000Y-152250000I-699999J-1D01*
G01*
%TD*%
%LPC*%
D12*
%TO.C,R27*%
X99000000Y-166125000D03*
X99000000Y-168000000D03*
%TD*%
D13*
%TO.C,JP4*%
X39950000Y-151000000D03*
D14*
X41250000Y-151000000D03*
%TD*%
D15*
%TO.C,JP11*%
X68400000Y-142850000D03*
D16*
X68400000Y-144150000D03*
%TD*%
D13*
%TO.C,JP18*%
X101200000Y-164000000D03*
D14*
X102500000Y-164000000D03*
%TD*%
D17*
%TO.C,JP1*%
X33000000Y-164000000D03*
D18*
X31700000Y-164000000D03*
%TD*%
D19*
%TO.C,R10*%
X44312500Y-145500000D03*
X46187500Y-145500000D03*
%TD*%
D20*
%TO.C,D1*%
X31275000Y-159265000D03*
D21*
X28735000Y-159265000D03*
%TD*%
D19*
%TO.C,R17*%
X70462500Y-141150000D03*
X72337500Y-141150000D03*
%TD*%
D12*
%TO.C,R1*%
X29500000Y-166062500D03*
X29500000Y-167937500D03*
%TD*%
D20*
%TO.C,D9*%
X102960000Y-159000000D03*
D21*
X105500000Y-159000000D03*
%TD*%
D22*
%TO.C,R18*%
X79012500Y-144000000D03*
X77137500Y-144000000D03*
%TD*%
%TO.C,R4*%
X42637500Y-159800000D03*
X40762500Y-159800000D03*
%TD*%
%TO.C,R9*%
X49687500Y-145500000D03*
X47812500Y-145500000D03*
%TD*%
D12*
%TO.C,R8*%
X50000000Y-153062500D03*
X50000000Y-154937500D03*
%TD*%
%TO.C,R22*%
X91500000Y-153375000D03*
X91500000Y-155250000D03*
%TD*%
D20*
%TO.C,D5*%
X35750000Y-149000000D03*
D21*
X35750000Y-146460000D03*
%TD*%
D12*
%TO.C,R23*%
X85500000Y-153375000D03*
X85500000Y-155250000D03*
%TD*%
D23*
%TO.C,JP12*%
X82075000Y-135650000D03*
D24*
X82075000Y-134350000D03*
%TD*%
D19*
%TO.C,R14*%
X53812500Y-138750000D03*
X55687500Y-138750000D03*
%TD*%
%TO.C,R13*%
X53812500Y-132687500D03*
X55687500Y-132687500D03*
%TD*%
D20*
%TO.C,D8*%
X98485000Y-149775000D03*
D21*
X98485000Y-147235000D03*
%TD*%
D20*
%TO.C,D7*%
X72210000Y-131750000D03*
D21*
X74750000Y-131750000D03*
%TD*%
D17*
%TO.C,JP13*%
X95050000Y-151250000D03*
D18*
X93750000Y-151250000D03*
%TD*%
D25*
%TO.C,Q6*%
X97625000Y-158050000D03*
X97625000Y-159950000D03*
X99500000Y-159000000D03*
%TD*%
%TO.C,Q5*%
X90312500Y-147300000D03*
X90312500Y-149200000D03*
X92187500Y-148250000D03*
%TD*%
D22*
%TO.C,R19*%
X79000000Y-138250000D03*
X77125000Y-138250000D03*
%TD*%
%TO.C,R12*%
X62000000Y-142250000D03*
X60125000Y-142250000D03*
%TD*%
D12*
%TO.C,R21*%
X97500000Y-153375000D03*
X97500000Y-155250000D03*
%TD*%
D17*
%TO.C,JP14*%
X85900000Y-141750000D03*
D18*
X84600000Y-141750000D03*
%TD*%
D15*
%TO.C,JP9*%
X50500000Y-139200000D03*
D16*
X50500000Y-140500000D03*
%TD*%
D19*
%TO.C,R5*%
X44200000Y-159800000D03*
X46075000Y-159800000D03*
%TD*%
D26*
%TO.C,Q2*%
X42000000Y-148775000D03*
X42000000Y-146875000D03*
X40125000Y-147825000D03*
%TD*%
D27*
%TO.C,Q1*%
X36800000Y-158150000D03*
X34900000Y-158150000D03*
X35850000Y-160025000D03*
%TD*%
D19*
%TO.C,R25*%
X86062500Y-146500000D03*
X87937500Y-146500000D03*
%TD*%
D23*
%TO.C,JP10*%
X82075000Y-141900000D03*
D24*
X82075000Y-140600000D03*
%TD*%
D13*
%TO.C,JP6*%
X46450000Y-151000000D03*
D14*
X47750000Y-151000000D03*
%TD*%
D28*
%TO.C,Q4*%
X72550000Y-137375000D03*
X74450000Y-137375000D03*
X73500000Y-135500000D03*
%TD*%
D22*
%TO.C,R30*%
X89500000Y-159500000D03*
X87625000Y-159500000D03*
%TD*%
D12*
%TO.C,R3*%
X41500000Y-166062500D03*
X41500000Y-167937500D03*
%TD*%
%TO.C,R28*%
X105000000Y-166125000D03*
X105000000Y-168000000D03*
%TD*%
%TO.C,R6*%
X38000000Y-153062500D03*
X38000000Y-154937500D03*
%TD*%
D19*
%TO.C,R16*%
X70550000Y-145900000D03*
X72425000Y-145900000D03*
%TD*%
D15*
%TO.C,JP8*%
X64312500Y-144100000D03*
D16*
X64312500Y-145400000D03*
%TD*%
D12*
%TO.C,R2*%
X35500000Y-166062500D03*
X35500000Y-167937500D03*
%TD*%
D13*
%TO.C,JP16*%
X95200000Y-164000000D03*
D14*
X96500000Y-164000000D03*
%TD*%
D22*
%TO.C,R11*%
X62062500Y-147000000D03*
X60187500Y-147000000D03*
%TD*%
D19*
%TO.C,R15*%
X53812500Y-144750000D03*
X55687500Y-144750000D03*
%TD*%
D15*
%TO.C,JP7*%
X50500000Y-134000000D03*
D16*
X50500000Y-135300000D03*
%TD*%
D17*
%TO.C,JP3*%
X44000000Y-163800000D03*
D18*
X42700000Y-163800000D03*
%TD*%
D22*
%TO.C,R24*%
X83937500Y-146500000D03*
X82062500Y-146500000D03*
%TD*%
D28*
%TO.C,Q3*%
X60300000Y-137187500D03*
X62200000Y-137187500D03*
X61250000Y-135312500D03*
%TD*%
D12*
%TO.C,R7*%
X44000000Y-153125000D03*
X44000000Y-155000000D03*
%TD*%
D13*
%TO.C,JP17*%
X90062500Y-164000000D03*
D14*
X91362500Y-164000000D03*
%TD*%
D17*
%TO.C,JP2*%
X39150000Y-164000000D03*
D18*
X37850000Y-164000000D03*
%TD*%
D12*
%TO.C,R26*%
X93000000Y-166187500D03*
X93000000Y-168062500D03*
%TD*%
D29*
%TO.C,J1*%
X50920000Y-179540000D03*
D30*
X50920000Y-177000000D03*
X53460000Y-179540000D03*
X53460000Y-177000000D03*
X56000000Y-179540000D03*
X56000000Y-177000000D03*
X58540000Y-179540000D03*
X58540000Y-177000000D03*
X61080000Y-179540000D03*
X61080000Y-177000000D03*
X63620000Y-179540000D03*
X63620000Y-177000000D03*
X66160000Y-179540000D03*
X66160000Y-177000000D03*
X68700000Y-179540000D03*
X68700000Y-177000000D03*
X71240000Y-179540000D03*
X71240000Y-177000000D03*
X73780000Y-179540000D03*
X73780000Y-177000000D03*
X76320000Y-179540000D03*
X76320000Y-177000000D03*
X78860000Y-179540000D03*
X78860000Y-177000000D03*
X81400000Y-179540000D03*
X81400000Y-177000000D03*
X83940000Y-179540000D03*
X83940000Y-177000000D03*
%TD*%
D13*
%TO.C,JP5*%
X46350000Y-141750000D03*
D14*
X47650000Y-141750000D03*
%TD*%
D20*
%TO.C,D6*%
X60210000Y-131750000D03*
D21*
X62750000Y-131750000D03*
%TD*%
D19*
%TO.C,R29*%
X91625000Y-159500000D03*
X93500000Y-159500000D03*
%TD*%
D22*
%TO.C,R20*%
X79012500Y-132250000D03*
X77137500Y-132250000D03*
%TD*%
D17*
%TO.C,JP15*%
X88900000Y-151250000D03*
D18*
X87600000Y-151250000D03*
%TD*%
D20*
%TO.C,D4*%
X32000000Y-153775000D03*
D21*
X32000000Y-151235000D03*
%TD*%
D20*
%TO.C,D3*%
X68775000Y-130000000D03*
D21*
X66235000Y-130000000D03*
%TD*%
D20*
%TO.C,D2*%
X102750000Y-154750000D03*
D21*
X102750000Y-152210000D03*
%TD*%
%LPD*%
M02*
