%TF.GenerationSoftware,KiCad,Pcbnew,8.0.0*%
%TF.CreationDate,2024-03-24T21:27:07+02:00*%
%TF.ProjectId,SensorKiCad-RTHMAT004,53656e73-6f72-44b6-9943-61642d525448,rev?*%
%TF.SameCoordinates,Original*%
%TF.FileFunction,Copper,L2,Bot*%
%TF.FilePolarity,Positive*%
%FSLAX46Y46*%
G04 Gerber Fmt 4.6, Leading zero omitted, Abs format (unit mm)*
G04 Created by KiCad (PCBNEW 8.0.0) date 2024-03-24 21:27:07*
%MOMM*%
%LPD*%
G01*
G04 APERTURE LIST*
%TA.AperFunction,ComponentPad*%
%ADD10C,1.258000*%
%TD*%
%TA.AperFunction,ComponentPad*%
%ADD11R,1.258000X1.258000*%
%TD*%
%TA.AperFunction,ComponentPad*%
%ADD12C,1.800000*%
%TD*%
%TA.AperFunction,ComponentPad*%
%ADD13R,1.800000X1.800000*%
%TD*%
%TA.AperFunction,ComponentPad*%
%ADD14R,1.700000X1.700000*%
%TD*%
%TA.AperFunction,ComponentPad*%
%ADD15O,1.700000X1.700000*%
%TD*%
%TA.AperFunction,ViaPad*%
%ADD16C,0.600000*%
%TD*%
%TA.AperFunction,Conductor*%
%ADD17C,0.300000*%
%TD*%
G04 APERTURE END LIST*
D10*
%TO.P,D3,A*%
%TO.N,/Signal Centre*%
X-17780000Y51500000D03*
D11*
%TO.P,D3,K*%
%TO.N,/BATT*%
X-20320000Y51500000D03*
%TD*%
D12*
%TO.P,D7,A*%
%TO.N,Net-(D7-PadA)*%
X-11790000Y43900000D03*
D13*
%TO.P,D7,C*%
%TO.N,Net-(Q4-C)*%
X-9250000Y43900000D03*
%TD*%
D12*
%TO.P,D5,A*%
%TO.N,Net-(D5-PadA)*%
X-45850000Y37110000D03*
D13*
%TO.P,D5,C*%
%TO.N,Net-(Q2-C)*%
X-45850000Y39650000D03*
%TD*%
D12*
%TO.P,D1,A*%
%TO.N,Net-(D1-PadA)*%
X-50600000Y24710000D03*
D13*
%TO.P,D1,C*%
%TO.N,Net-(Q1-C)*%
X-50600000Y27250000D03*
%TD*%
D10*
%TO.P,D10,A*%
%TO.N,unconnected-(D10-PadA)*%
X-14092500Y16850000D03*
D11*
%TO.P,D10,K*%
%TO.N,unconnected-(D10-PadK)*%
X-16632500Y16850000D03*
%TD*%
D12*
%TO.P,D9,A*%
%TO.N,Net-(D9-PadA)*%
X6500000Y38540000D03*
D13*
%TO.P,D9,C*%
%TO.N,Net-(Q6-C)*%
X6500000Y36000000D03*
%TD*%
D10*
%TO.P,D2,A*%
%TO.N,/Signal Right*%
X19250000Y29730000D03*
D11*
%TO.P,D2,K*%
%TO.N,/BATT*%
X19250000Y32270000D03*
%TD*%
D12*
%TO.P,D6,A*%
%TO.N,Net-(D6-PadA)*%
X-28040000Y43750000D03*
D13*
%TO.P,D6,C*%
%TO.N,Net-(Q3-C)*%
X-25500000Y43750000D03*
%TD*%
D14*
%TO.P,J1,1,Pin_1*%
%TO.N,unconnected-(J1-Pin_1-Pad1)*%
X-36400000Y4000000D03*
D15*
%TO.P,J1,2,Pin_2*%
%TO.N,/3V3*%
X-36400000Y6540000D03*
%TO.P,J1,3,Pin_3*%
%TO.N,GND*%
X-33860000Y4000000D03*
%TO.P,J1,4,Pin_4*%
%TO.N,/BATT*%
X-33860000Y6540000D03*
%TO.P,J1,5,Pin_5*%
%TO.N,/Signal Left*%
X-31320000Y4000000D03*
%TO.P,J1,6,Pin_6*%
%TO.N,unconnected-(J1-Pin_6-Pad6)*%
X-31320000Y6540000D03*
%TO.P,J1,7,Pin_7*%
%TO.N,unconnected-(J1-Pin_7-Pad7)*%
X-28780000Y4000000D03*
%TO.P,J1,8,Pin_8*%
%TO.N,/PWM Left*%
X-28780000Y6540000D03*
%TO.P,J1,9,Pin_9*%
%TO.N,GND*%
X-26240000Y4000000D03*
%TO.P,J1,10,Pin_10*%
%TO.N,unconnected-(J1-Pin_10-Pad10)*%
X-26240000Y6540000D03*
%TO.P,J1,11,Pin_11*%
%TO.N,unconnected-(J1-Pin_11-Pad11)*%
X-23700000Y4000000D03*
%TO.P,J1,12,Pin_12*%
%TO.N,unconnected-(J1-Pin_12-Pad12)*%
X-23700000Y6540000D03*
%TO.P,J1,13,Pin_13*%
%TO.N,/Signal Centre*%
X-21160000Y4000000D03*
%TO.P,J1,14,Pin_14*%
%TO.N,unconnected-(J1-Pin_14-Pad14)*%
X-21160000Y6540000D03*
%TO.P,J1,15,Pin_15*%
%TO.N,GND*%
X-18620000Y4000000D03*
%TO.P,J1,16,Pin_16*%
%TO.N,/PWM Centre*%
X-18620000Y6540000D03*
%TO.P,J1,17,Pin_17*%
%TO.N,/Signal Right*%
X-16080000Y4000000D03*
%TO.P,J1,18,Pin_18*%
%TO.N,unconnected-(J1-Pin_18-Pad18)*%
X-16080000Y6540000D03*
%TO.P,J1,19,Pin_19*%
%TO.N,unconnected-(J1-Pin_19-Pad19)*%
X-13540000Y4000000D03*
%TO.P,J1,20,Pin_20*%
%TO.N,unconnected-(J1-Pin_20-Pad20)*%
X-13540000Y6540000D03*
%TO.P,J1,21,Pin_21*%
%TO.N,GND*%
X-11000000Y4000000D03*
%TO.P,J1,22,Pin_22*%
%TO.N,/PWM Right*%
X-11000000Y6540000D03*
%TO.P,J1,23,Pin_23*%
%TO.N,unconnected-(J1-Pin_23-Pad23)*%
X-8460000Y4000000D03*
%TO.P,J1,24,Pin_24*%
%TO.N,unconnected-(J1-Pin_24-Pad24)*%
X-8460000Y6540000D03*
%TO.P,J1,25,Pin_25*%
%TO.N,unconnected-(J1-Pin_25-Pad25)*%
X-5920000Y4000000D03*
%TO.P,J1,26,Pin_26*%
%TO.N,/BATT*%
X-5920000Y6540000D03*
%TO.P,J1,27,Pin_27*%
%TO.N,GND*%
X-3380000Y4000000D03*
%TO.P,J1,28,Pin_28*%
%TO.N,unconnected-(J1-Pin_28-Pad28)*%
X-3380000Y6540000D03*
%TD*%
D12*
%TO.P,D8,A*%
%TO.N,Net-(D8-PadA)*%
X11800000Y26140000D03*
D13*
%TO.P,D8,C*%
%TO.N,Net-(Q5-C)*%
X11800000Y23600000D03*
%TD*%
D10*
%TO.P,D4,A*%
%TO.N,/Signal Left*%
X-59700000Y33370000D03*
D11*
%TO.P,D4,K*%
%TO.N,/BATT*%
X-59700000Y30830000D03*
%TD*%
D16*
%TO.N,GND*%
X-7150000Y39350000D03*
X-17500000Y1500000D03*
X1500000Y35650000D03*
X-37000000Y1400000D03*
X-59700000Y23300000D03*
X4900000Y21950000D03*
X3500000Y27300000D03*
X-45600000Y41600000D03*
X-32500000Y50950000D03*
%TO.N,/PWM Left*%
X-30000000Y39000000D03*
X-41200000Y17000000D03*
%TO.N,/PWM Centre*%
X-18250000Y22750000D03*
X-28500000Y26250000D03*
%TO.N,/PWM Right*%
X800000Y42200000D03*
X-1600000Y12900000D03*
%TD*%
D17*
%TO.N,GND*%
X-12550000Y2450000D02*
X-11000000Y4000000D01*
X-18620000Y4000000D02*
X-17070000Y2450000D01*
X-32360000Y2500000D02*
X-27740000Y2500000D01*
X-27740000Y2500000D02*
X-26240000Y4000000D01*
X-17070000Y2450000D02*
X-12550000Y2450000D01*
X-33860000Y4000000D02*
X-32360000Y2500000D01*
%TO.N,/PWM Left*%
X-30000000Y7760000D02*
X-28780000Y6540000D01*
X-41200000Y17000000D02*
X-38000000Y17000000D01*
X-38000000Y17000000D02*
X-28780000Y7780000D01*
X-28780000Y7780000D02*
X-28780000Y6540000D01*
X-30000000Y39000000D02*
X-30000000Y7760000D01*
%TO.N,/PWM Centre*%
X-18250000Y22750000D02*
X-18250000Y22500000D01*
X-21750000Y26250000D02*
X-18250000Y22750000D01*
X-28500000Y26250000D02*
X-21750000Y26250000D01*
X-18250000Y22500000D02*
X-18620000Y22130000D01*
X-18620000Y22130000D02*
X-18620000Y6540000D01*
%TO.N,/PWM Right*%
X800000Y42200000D02*
X-4530000Y36870000D01*
X-4530000Y15830000D02*
X-1600000Y12900000D01*
X-1600000Y12900000D02*
X-4640000Y12900000D01*
X-4530000Y36870000D02*
X-4530000Y15830000D01*
X-4640000Y12900000D02*
X-11000000Y6540000D01*
%TD*%
%TA.AperFunction,Conductor*%
%TO.N,GND*%
G36*
X308363Y56479815D02*
G01*
X329005Y56463181D01*
X23486215Y33305969D01*
X23519700Y33244646D01*
X23522025Y33229514D01*
X24525682Y22189293D01*
X25436144Y12174209D01*
X25439643Y12135726D01*
X25426109Y12067180D01*
X25377664Y12016832D01*
X25316152Y12000500D01*
X-434108Y12000500D01*
X-565892Y12000500D01*
X-693186Y11966392D01*
X-807314Y11900500D01*
X-900500Y11807314D01*
X-966392Y11693186D01*
X-1000500Y11565892D01*
X-1000500Y11565890D01*
X-1000500Y624500D01*
X-1020185Y557461D01*
X-1072989Y511706D01*
X-1124500Y500500D01*
X-38875500Y500500D01*
X-38942539Y520185D01*
X-38988294Y572989D01*
X-38999500Y624500D01*
X-38999500Y11565891D01*
X-39033608Y11693187D01*
X-39066554Y11750250D01*
X-39099500Y11807314D01*
X-39192686Y11900500D01*
X-39306814Y11966392D01*
X-39434108Y12000500D01*
X-39434110Y12000500D01*
X-66770845Y12000500D01*
X-66837884Y12020185D01*
X-66883639Y12072989D01*
X-66893583Y12142147D01*
X-66893371Y12143560D01*
X-66137925Y16999996D01*
X-42005565Y16999996D01*
X-41985369Y16820750D01*
X-41985368Y16820745D01*
X-41925788Y16650476D01*
X-41829815Y16497737D01*
X-41702262Y16370184D01*
X-41549523Y16274211D01*
X-41379254Y16214631D01*
X-41379249Y16214630D01*
X-41200004Y16194435D01*
X-41200000Y16194435D01*
X-41199996Y16194435D01*
X-41020750Y16214630D01*
X-41020737Y16214633D01*
X-40850481Y16274209D01*
X-40850477Y16274210D01*
X-40760904Y16330494D01*
X-40694932Y16349500D01*
X-38320808Y16349500D01*
X-38253769Y16329815D01*
X-38233127Y16313181D01*
X-30686819Y8766873D01*
X-30653334Y8705550D01*
X-30650500Y8679192D01*
X-30650500Y7912560D01*
X-30670185Y7845521D01*
X-30722989Y7799766D01*
X-30792147Y7789822D01*
X-30826900Y7800176D01*
X-30856337Y7813903D01*
X-31084592Y7875063D01*
X-31272918Y7891539D01*
X-31319999Y7895659D01*
X-31320001Y7895659D01*
X-31359234Y7892226D01*
X-31555408Y7875063D01*
X-31783663Y7813903D01*
X-31997829Y7714035D01*
X-32191401Y7578495D01*
X-32358495Y7411401D01*
X-32488426Y7225838D01*
X-32543001Y7182215D01*
X-32612500Y7175021D01*
X-32674855Y7206543D01*
X-32691571Y7225836D01*
X-32821505Y7411401D01*
X-32988599Y7578495D01*
X-33085384Y7646265D01*
X-33182165Y7714032D01*
X-33182169Y7714034D01*
X-33182170Y7714035D01*
X-33396337Y7813903D01*
X-33624592Y7875063D01*
X-33812918Y7891539D01*
X-33859999Y7895659D01*
X-33860001Y7895659D01*
X-33899234Y7892226D01*
X-34095408Y7875063D01*
X-34323663Y7813903D01*
X-34537829Y7714035D01*
X-34731401Y7578495D01*
X-34898495Y7411401D01*
X-35028426Y7225838D01*
X-35083001Y7182215D01*
X-35152500Y7175021D01*
X-35214855Y7206543D01*
X-35231571Y7225836D01*
X-35361505Y7411401D01*
X-35528599Y7578495D01*
X-35625384Y7646265D01*
X-35722165Y7714032D01*
X-35722169Y7714034D01*
X-35722170Y7714035D01*
X-35936337Y7813903D01*
X-36164592Y7875063D01*
X-36352918Y7891539D01*
X-36399999Y7895659D01*
X-36400001Y7895659D01*
X-36439234Y7892226D01*
X-36635408Y7875063D01*
X-36863663Y7813903D01*
X-37077829Y7714035D01*
X-37271401Y7578495D01*
X-37438495Y7411401D01*
X-37574035Y7217829D01*
X-37673903Y7003663D01*
X-37735063Y6775408D01*
X-37755659Y6540000D01*
X-37735063Y6304592D01*
X-37673903Y6076337D01*
X-37574035Y5862170D01*
X-37574034Y5862169D01*
X-37574032Y5862165D01*
X-37568425Y5854158D01*
X-37438495Y5668599D01*
X-37438493Y5668597D01*
X-37316569Y5546673D01*
X-37283084Y5485350D01*
X-37288068Y5415658D01*
X-37329940Y5359725D01*
X-37360915Y5342810D01*
X-37492331Y5293796D01*
X-37607546Y5207546D01*
X-37693796Y5092331D01*
X-37744091Y4957483D01*
X-37750500Y4897873D01*
X-37750499Y4000000D01*
X-37750499Y3102129D01*
X-37750498Y3102123D01*
X-37744091Y3042516D01*
X-37693797Y2907671D01*
X-37693793Y2907664D01*
X-37607547Y2792455D01*
X-37607544Y2792452D01*
X-37492335Y2706206D01*
X-37492328Y2706202D01*
X-37357482Y2655908D01*
X-37357483Y2655908D01*
X-37297883Y2649501D01*
X-37297881Y2649500D01*
X-37297873Y2649500D01*
X-37297864Y2649500D01*
X-35502129Y2649500D01*
X-35502123Y2649501D01*
X-35442516Y2655908D01*
X-35307671Y2706202D01*
X-35307664Y2706206D01*
X-35192455Y2792452D01*
X-35192452Y2792455D01*
X-35106206Y2907664D01*
X-35106202Y2907671D01*
X-35056997Y3039598D01*
X-35015126Y3095532D01*
X-34949661Y3119949D01*
X-34881388Y3105097D01*
X-34853134Y3083946D01*
X-34731082Y2961894D01*
X-34537578Y2826399D01*
X-34323492Y2726570D01*
X-34323486Y2726567D01*
X-34110000Y2669364D01*
X-34110000Y3566988D01*
X-34052993Y3534075D01*
X-33925826Y3500000D01*
X-33794174Y3500000D01*
X-33667007Y3534075D01*
X-33610000Y3566988D01*
X-33610000Y2669364D01*
X-33609999Y2669364D01*
X-33396513Y2726567D01*
X-33396507Y2726570D01*
X-33182421Y2826399D01*
X-32988917Y2961894D01*
X-32821890Y3128921D01*
X-32691879Y3314594D01*
X-32637302Y3358219D01*
X-32567804Y3365411D01*
X-32505449Y3333888D01*
X-32488731Y3314595D01*
X-32358495Y3128599D01*
X-32358493Y3128597D01*
X-32191402Y2961506D01*
X-32191395Y2961501D01*
X-31997834Y2825967D01*
X-31997830Y2825965D01*
X-31783663Y2726097D01*
X-31783659Y2726096D01*
X-31783655Y2726094D01*
X-31555413Y2664938D01*
X-31555403Y2664936D01*
X-31320001Y2644341D01*
X-31320000Y2644341D01*
X-31319999Y2644341D01*
X-31084596Y2664936D01*
X-31084586Y2664938D01*
X-30856344Y2726094D01*
X-30856335Y2726098D01*
X-30642169Y2825965D01*
X-30642165Y2825967D01*
X-30448604Y2961501D01*
X-30448597Y2961506D01*
X-30281506Y3128597D01*
X-30281505Y3128599D01*
X-30151575Y3314158D01*
X-30096998Y3357782D01*
X-30027499Y3364975D01*
X-29965145Y3333453D01*
X-29948425Y3314158D01*
X-29818495Y3128599D01*
X-29818493Y3128597D01*
X-29651402Y2961506D01*
X-29651395Y2961501D01*
X-29457834Y2825967D01*
X-29457830Y2825965D01*
X-29243663Y2726097D01*
X-29243659Y2726096D01*
X-29243655Y2726094D01*
X-29015413Y2664938D01*
X-29015403Y2664936D01*
X-28780001Y2644341D01*
X-28780000Y2644341D01*
X-28779999Y2644341D01*
X-28544596Y2664936D01*
X-28544586Y2664938D01*
X-28316344Y2726094D01*
X-28316335Y2726098D01*
X-28102169Y2825965D01*
X-28102165Y2825967D01*
X-27908604Y2961501D01*
X-27908597Y2961506D01*
X-27741506Y3128597D01*
X-27741505Y3128599D01*
X-27611269Y3314594D01*
X-27556691Y3358219D01*
X-27487193Y3365411D01*
X-27424838Y3333889D01*
X-27408119Y3314594D01*
X-27278105Y3128917D01*
X-27111082Y2961894D01*
X-26917578Y2826399D01*
X-26703492Y2726570D01*
X-26703486Y2726567D01*
X-26490000Y2669364D01*
X-26490000Y3566988D01*
X-26432993Y3534075D01*
X-26305826Y3500000D01*
X-26174174Y3500000D01*
X-26047007Y3534075D01*
X-25990000Y3566988D01*
X-25990000Y2669364D01*
X-25989999Y2669364D01*
X-25776513Y2726567D01*
X-25776507Y2726570D01*
X-25562421Y2826399D01*
X-25368917Y2961894D01*
X-25201890Y3128921D01*
X-25071879Y3314594D01*
X-25017302Y3358219D01*
X-24947804Y3365411D01*
X-24885449Y3333888D01*
X-24868731Y3314595D01*
X-24738495Y3128599D01*
X-24738493Y3128597D01*
X-24571402Y2961506D01*
X-24571395Y2961501D01*
X-24377834Y2825967D01*
X-24377830Y2825965D01*
X-24163663Y2726097D01*
X-24163659Y2726096D01*
X-24163655Y2726094D01*
X-23935413Y2664938D01*
X-23935403Y2664936D01*
X-23700001Y2644341D01*
X-23700000Y2644341D01*
X-23699999Y2644341D01*
X-23464596Y2664936D01*
X-23464586Y2664938D01*
X-23236344Y2726094D01*
X-23236335Y2726098D01*
X-23022169Y2825965D01*
X-23022165Y2825967D01*
X-22828604Y2961501D01*
X-22828597Y2961506D01*
X-22661506Y3128597D01*
X-22661505Y3128599D01*
X-22531575Y3314158D01*
X-22476998Y3357782D01*
X-22407499Y3364975D01*
X-22345145Y3333453D01*
X-22328425Y3314158D01*
X-22198495Y3128599D01*
X-22198493Y3128597D01*
X-22031402Y2961506D01*
X-22031395Y2961501D01*
X-21837834Y2825967D01*
X-21837830Y2825965D01*
X-21623663Y2726097D01*
X-21623659Y2726096D01*
X-21623655Y2726094D01*
X-21395413Y2664938D01*
X-21395403Y2664936D01*
X-21160001Y2644341D01*
X-21160000Y2644341D01*
X-21159999Y2644341D01*
X-20924596Y2664936D01*
X-20924586Y2664938D01*
X-20696344Y2726094D01*
X-20696335Y2726098D01*
X-20482169Y2825965D01*
X-20482165Y2825967D01*
X-20288604Y2961501D01*
X-20288597Y2961506D01*
X-20121506Y3128597D01*
X-20121505Y3128599D01*
X-19991269Y3314594D01*
X-19936691Y3358219D01*
X-19867193Y3365411D01*
X-19804838Y3333889D01*
X-19788119Y3314594D01*
X-19658105Y3128917D01*
X-19491082Y2961894D01*
X-19297578Y2826399D01*
X-19083492Y2726570D01*
X-19083486Y2726567D01*
X-18870000Y2669364D01*
X-18870000Y3566988D01*
X-18812993Y3534075D01*
X-18685826Y3500000D01*
X-18554174Y3500000D01*
X-18427007Y3534075D01*
X-18370000Y3566988D01*
X-18370000Y2669364D01*
X-18369999Y2669364D01*
X-18156513Y2726567D01*
X-18156507Y2726570D01*
X-17942421Y2826399D01*
X-17748917Y2961894D01*
X-17581890Y3128921D01*
X-17451879Y3314594D01*
X-17397302Y3358219D01*
X-17327804Y3365411D01*
X-17265449Y3333888D01*
X-17248731Y3314595D01*
X-17118495Y3128599D01*
X-17118493Y3128597D01*
X-16951402Y2961506D01*
X-16951395Y2961501D01*
X-16757834Y2825967D01*
X-16757830Y2825965D01*
X-16543663Y2726097D01*
X-16543659Y2726096D01*
X-16543655Y2726094D01*
X-16315413Y2664938D01*
X-16315403Y2664936D01*
X-16080001Y2644341D01*
X-16080000Y2644341D01*
X-16079999Y2644341D01*
X-15844596Y2664936D01*
X-15844586Y2664938D01*
X-15616344Y2726094D01*
X-15616335Y2726098D01*
X-15402169Y2825965D01*
X-15402165Y2825967D01*
X-15208604Y2961501D01*
X-15208597Y2961506D01*
X-15041506Y3128597D01*
X-15041505Y3128599D01*
X-14911575Y3314158D01*
X-14856998Y3357782D01*
X-14787499Y3364975D01*
X-14725145Y3333453D01*
X-14708425Y3314158D01*
X-14578495Y3128599D01*
X-14578493Y3128597D01*
X-14411402Y2961506D01*
X-14411395Y2961501D01*
X-14217834Y2825967D01*
X-14217830Y2825965D01*
X-14003663Y2726097D01*
X-14003659Y2726096D01*
X-14003655Y2726094D01*
X-13775413Y2664938D01*
X-13775403Y2664936D01*
X-13540001Y2644341D01*
X-13540000Y2644341D01*
X-13539999Y2644341D01*
X-13304596Y2664936D01*
X-13304586Y2664938D01*
X-13076344Y2726094D01*
X-13076335Y2726098D01*
X-12862169Y2825965D01*
X-12862165Y2825967D01*
X-12668604Y2961501D01*
X-12668597Y2961506D01*
X-12501506Y3128597D01*
X-12501505Y3128599D01*
X-12371269Y3314594D01*
X-12316691Y3358219D01*
X-12247193Y3365411D01*
X-12184838Y3333889D01*
X-12168119Y3314594D01*
X-12038105Y3128917D01*
X-11871082Y2961894D01*
X-11677578Y2826399D01*
X-11463492Y2726570D01*
X-11463486Y2726567D01*
X-11250000Y2669364D01*
X-11250000Y3566988D01*
X-11192993Y3534075D01*
X-11065826Y3500000D01*
X-10934174Y3500000D01*
X-10807007Y3534075D01*
X-10750000Y3566988D01*
X-10750000Y2669364D01*
X-10749999Y2669364D01*
X-10536513Y2726567D01*
X-10536507Y2726570D01*
X-10322421Y2826399D01*
X-10128917Y2961894D01*
X-9961890Y3128921D01*
X-9831879Y3314594D01*
X-9777302Y3358219D01*
X-9707804Y3365411D01*
X-9645449Y3333888D01*
X-9628731Y3314595D01*
X-9498495Y3128599D01*
X-9498493Y3128597D01*
X-9331402Y2961506D01*
X-9331395Y2961501D01*
X-9137834Y2825967D01*
X-9137830Y2825965D01*
X-8923663Y2726097D01*
X-8923659Y2726096D01*
X-8923655Y2726094D01*
X-8695413Y2664938D01*
X-8695403Y2664936D01*
X-8460001Y2644341D01*
X-8460000Y2644341D01*
X-8459999Y2644341D01*
X-8224596Y2664936D01*
X-8224586Y2664938D01*
X-7996344Y2726094D01*
X-7996335Y2726098D01*
X-7782169Y2825965D01*
X-7782165Y2825967D01*
X-7588604Y2961501D01*
X-7588597Y2961506D01*
X-7421506Y3128597D01*
X-7421505Y3128599D01*
X-7291575Y3314158D01*
X-7236998Y3357782D01*
X-7167499Y3364975D01*
X-7105145Y3333453D01*
X-7088425Y3314158D01*
X-6958495Y3128599D01*
X-6958493Y3128597D01*
X-6791402Y2961506D01*
X-6791395Y2961501D01*
X-6597834Y2825967D01*
X-6597830Y2825965D01*
X-6383663Y2726097D01*
X-6383659Y2726096D01*
X-6383655Y2726094D01*
X-6155413Y2664938D01*
X-6155403Y2664936D01*
X-5920001Y2644341D01*
X-5920000Y2644341D01*
X-5919999Y2644341D01*
X-5684596Y2664936D01*
X-5684586Y2664938D01*
X-5456344Y2726094D01*
X-5456335Y2726098D01*
X-5242169Y2825965D01*
X-5242165Y2825967D01*
X-5048604Y2961501D01*
X-5048597Y2961506D01*
X-4881506Y3128597D01*
X-4881505Y3128599D01*
X-4751269Y3314594D01*
X-4696691Y3358219D01*
X-4627193Y3365411D01*
X-4564838Y3333889D01*
X-4548119Y3314594D01*
X-4418105Y3128917D01*
X-4251082Y2961894D01*
X-4057578Y2826399D01*
X-3843492Y2726570D01*
X-3843486Y2726567D01*
X-3630000Y2669364D01*
X-3630000Y3566988D01*
X-3572993Y3534075D01*
X-3445826Y3500000D01*
X-3314174Y3500000D01*
X-3187007Y3534075D01*
X-3130000Y3566988D01*
X-3130000Y2669364D01*
X-3129999Y2669364D01*
X-2916513Y2726567D01*
X-2916507Y2726570D01*
X-2702421Y2826399D01*
X-2508917Y2961894D01*
X-2341894Y3128917D01*
X-2206399Y3322421D01*
X-2106570Y3536507D01*
X-2106567Y3536513D01*
X-2049364Y3750000D01*
X-2946988Y3750000D01*
X-2914075Y3807007D01*
X-2880000Y3934174D01*
X-2880000Y4065826D01*
X-2914075Y4192993D01*
X-2946988Y4250000D01*
X-2049364Y4250000D01*
X-2106567Y4463486D01*
X-2106570Y4463492D01*
X-2206399Y4677577D01*
X-2206400Y4677579D01*
X-2341886Y4871073D01*
X-2341891Y4871079D01*
X-2508917Y5038105D01*
X-2694594Y5168119D01*
X-2738219Y5222697D01*
X-2745411Y5292195D01*
X-2713889Y5354550D01*
X-2694594Y5371269D01*
X-2508599Y5501505D01*
X-2508597Y5501506D01*
X-2341506Y5668597D01*
X-2341501Y5668604D01*
X-2205967Y5862165D01*
X-2205965Y5862169D01*
X-2106098Y6076335D01*
X-2106094Y6076344D01*
X-2044938Y6304586D01*
X-2044936Y6304596D01*
X-2024341Y6539999D01*
X-2024341Y6540000D01*
X-2044936Y6775403D01*
X-2044938Y6775413D01*
X-2106094Y7003655D01*
X-2106096Y7003659D01*
X-2106097Y7003663D01*
X-2186003Y7175021D01*
X-2205964Y7217828D01*
X-2205965Y7217830D01*
X-2341505Y7411402D01*
X-2508597Y7578493D01*
X-2508598Y7578494D01*
X-2508599Y7578495D01*
X-2605384Y7646265D01*
X-2702165Y7714032D01*
X-2702169Y7714034D01*
X-2702170Y7714035D01*
X-2916337Y7813903D01*
X-3144592Y7875063D01*
X-3332918Y7891539D01*
X-3379999Y7895659D01*
X-3380001Y7895659D01*
X-3419234Y7892226D01*
X-3615408Y7875063D01*
X-3843663Y7813903D01*
X-4057829Y7714035D01*
X-4251401Y7578495D01*
X-4418495Y7411401D01*
X-4548426Y7225838D01*
X-4603001Y7182215D01*
X-4672500Y7175021D01*
X-4734855Y7206543D01*
X-4751571Y7225836D01*
X-4881505Y7411401D01*
X-5048599Y7578495D01*
X-5145384Y7646265D01*
X-5242165Y7714032D01*
X-5242169Y7714034D01*
X-5242170Y7714035D01*
X-5456337Y7813903D01*
X-5684592Y7875063D01*
X-5872918Y7891539D01*
X-5919999Y7895659D01*
X-5920001Y7895659D01*
X-5959234Y7892226D01*
X-6155408Y7875063D01*
X-6383663Y7813903D01*
X-6597829Y7714035D01*
X-6791401Y7578495D01*
X-6958495Y7411401D01*
X-7088426Y7225838D01*
X-7143001Y7182215D01*
X-7212500Y7175021D01*
X-7274855Y7206543D01*
X-7291571Y7225836D01*
X-7421505Y7411401D01*
X-7588599Y7578495D01*
X-7685384Y7646265D01*
X-7782165Y7714032D01*
X-7782169Y7714034D01*
X-7782170Y7714035D01*
X-7996337Y7813903D01*
X-8224592Y7875063D01*
X-8438217Y7893753D01*
X-8503285Y7919206D01*
X-8544264Y7975796D01*
X-8548142Y8045558D01*
X-8515090Y8104962D01*
X-4406873Y12213181D01*
X-4345550Y12246666D01*
X-4319192Y12249500D01*
X-2105068Y12249500D01*
X-2039096Y12230494D01*
X-1949522Y12174210D01*
X-1949518Y12174209D01*
X-1779262Y12114633D01*
X-1779249Y12114630D01*
X-1600004Y12094435D01*
X-1600000Y12094435D01*
X-1599996Y12094435D01*
X-1420750Y12114630D01*
X-1420745Y12114631D01*
X-1250476Y12174211D01*
X-1097737Y12270184D01*
X-970184Y12397737D01*
X-874211Y12550476D01*
X-814631Y12720745D01*
X-814630Y12720750D01*
X-794435Y12899996D01*
X-794435Y12900003D01*
X-814630Y13079249D01*
X-814631Y13079254D01*
X-874211Y13249523D01*
X-970184Y13402262D01*
X-1097737Y13529815D01*
X-1097738Y13529816D01*
X-1250478Y13625789D01*
X-1420745Y13685368D01*
X-1427974Y13686182D01*
X-1492388Y13713246D01*
X-1501776Y13721722D01*
X-3843181Y16063127D01*
X-3876666Y16124450D01*
X-3879500Y16150808D01*
X-3879500Y26139993D01*
X10394700Y26139993D01*
X10413864Y25908702D01*
X10413866Y25908691D01*
X10470842Y25683699D01*
X10564075Y25471151D01*
X10691019Y25276849D01*
X10785802Y25173886D01*
X10816724Y25111231D01*
X10808863Y25041805D01*
X10764716Y24987650D01*
X10737904Y24973722D01*
X10657673Y24943798D01*
X10657664Y24943793D01*
X10542455Y24857547D01*
X10542452Y24857544D01*
X10456206Y24742335D01*
X10456202Y24742328D01*
X10405908Y24607482D01*
X10399501Y24547883D01*
X10399501Y24547876D01*
X10399500Y24547864D01*
X10399500Y22652129D01*
X10399501Y22652123D01*
X10405908Y22592516D01*
X10456202Y22457671D01*
X10456206Y22457664D01*
X10542452Y22342455D01*
X10542455Y22342452D01*
X10657664Y22256206D01*
X10657671Y22256202D01*
X10792517Y22205908D01*
X10792516Y22205908D01*
X10852116Y22199501D01*
X10852119Y22199500D01*
X10852127Y22199500D01*
X10852134Y22199500D01*
X10852135Y22199500D01*
X12747870Y22199500D01*
X12747876Y22199501D01*
X12807483Y22205908D01*
X12942328Y22256202D01*
X12942335Y22256206D01*
X13057544Y22342452D01*
X13057547Y22342455D01*
X13143793Y22457664D01*
X13143797Y22457671D01*
X13194091Y22592517D01*
X13197583Y22625000D01*
X13200500Y22652127D01*
X13200499Y24547872D01*
X13194091Y24607483D01*
X13143796Y24742331D01*
X13057546Y24857546D01*
X12942331Y24943796D01*
X12862094Y24973722D01*
X12806161Y25015592D01*
X12781743Y25081056D01*
X12796594Y25149329D01*
X12814193Y25173881D01*
X12908979Y25276847D01*
X12908980Y25276849D01*
X12908983Y25276852D01*
X13035924Y25471151D01*
X13129157Y25683699D01*
X13186133Y25908691D01*
X13186135Y25908702D01*
X13205300Y26139993D01*
X13205300Y26140006D01*
X13186135Y26371297D01*
X13186133Y26371308D01*
X13129157Y26596300D01*
X13077658Y26713705D01*
X13035924Y26808849D01*
X12908979Y27003153D01*
X12751784Y27173913D01*
X12568626Y27316470D01*
X12364503Y27426936D01*
X12144981Y27502298D01*
X11916049Y27540500D01*
X11683951Y27540500D01*
X11455019Y27502298D01*
X11455017Y27502297D01*
X11455015Y27502297D01*
X11349487Y27466068D01*
X11235497Y27426936D01*
X11031374Y27316470D01*
X11031372Y27316468D01*
X11031371Y27316468D01*
X11031365Y27316464D01*
X10848222Y27173918D01*
X10848216Y27173913D01*
X10691021Y27003153D01*
X10691019Y27003151D01*
X10691016Y27003147D01*
X10564075Y26808848D01*
X10470842Y26596300D01*
X10413866Y26371308D01*
X10413864Y26371297D01*
X10394700Y26140006D01*
X10394700Y26139993D01*
X-3879500Y26139993D01*
X-3879500Y29729999D01*
X18115661Y29729999D01*
X18134974Y29521570D01*
X18192259Y29320230D01*
X18285562Y29132852D01*
X18285567Y29132844D01*
X18411714Y28965798D01*
X18566406Y28824779D01*
X18744383Y28714580D01*
X18744384Y28714579D01*
X18939570Y28638965D01*
X18939573Y28638964D01*
X19145336Y28600500D01*
X19145338Y28600500D01*
X19354662Y28600500D01*
X19354664Y28600500D01*
X19560427Y28638964D01*
X19601779Y28654984D01*
X19755615Y28714579D01*
X19755616Y28714580D01*
X19755618Y28714581D01*
X19933592Y28824778D01*
X19944399Y28834630D01*
X20088285Y28965798D01*
X20214432Y29132844D01*
X20214437Y29132852D01*
X20307740Y29320230D01*
X20365025Y29521566D01*
X20384339Y29730000D01*
X20365025Y29938434D01*
X20307740Y30139771D01*
X20214434Y30327153D01*
X20088287Y30494199D01*
X19933592Y30635222D01*
X19755618Y30745419D01*
X19560427Y30821036D01*
X19354664Y30859500D01*
X19145336Y30859500D01*
X18939573Y30821036D01*
X18785734Y30761439D01*
X18744384Y30745420D01*
X18744383Y30745419D01*
X18744382Y30745419D01*
X18566408Y30635222D01*
X18566406Y30635220D01*
X18411714Y30494201D01*
X18285567Y30327155D01*
X18285562Y30327147D01*
X18192259Y30139769D01*
X18179099Y30093516D01*
X18140733Y29958669D01*
X18134974Y29938429D01*
X18115661Y29730000D01*
X18115661Y29729999D01*
X-3879500Y29729999D01*
X-3879500Y31593129D01*
X18120500Y31593129D01*
X18120501Y31593123D01*
X18126908Y31533516D01*
X18177202Y31398671D01*
X18177206Y31398664D01*
X18263452Y31283455D01*
X18263455Y31283452D01*
X18378664Y31197206D01*
X18378671Y31197202D01*
X18513517Y31146908D01*
X18513516Y31146908D01*
X18573116Y31140501D01*
X18573119Y31140500D01*
X18573127Y31140500D01*
X18573134Y31140500D01*
X18573135Y31140500D01*
X19926870Y31140500D01*
X19926876Y31140501D01*
X19986483Y31146908D01*
X20121328Y31197202D01*
X20121335Y31197206D01*
X20236544Y31283452D01*
X20236547Y31283455D01*
X20322793Y31398664D01*
X20322797Y31398671D01*
X20373091Y31533517D01*
X20376635Y31566483D01*
X20379500Y31593127D01*
X20379499Y32946872D01*
X20373091Y33006483D01*
X20322796Y33141331D01*
X20236546Y33256546D01*
X20121331Y33342796D01*
X19986483Y33393091D01*
X19926873Y33399500D01*
X18573128Y33399499D01*
X18524757Y33394299D01*
X18513516Y33393091D01*
X18378671Y33342797D01*
X18378664Y33342793D01*
X18263455Y33256547D01*
X18263452Y33256544D01*
X18177206Y33141335D01*
X18177202Y33141328D01*
X18126908Y33006482D01*
X18121936Y32960230D01*
X18120501Y32946876D01*
X18120500Y32946864D01*
X18120500Y31593129D01*
X-3879500Y31593129D01*
X-3879500Y36549192D01*
X-3859815Y36616231D01*
X-3843181Y36636873D01*
X-1940061Y38539993D01*
X5094700Y38539993D01*
X5113864Y38308702D01*
X5113866Y38308691D01*
X5170842Y38083699D01*
X5264075Y37871151D01*
X5391019Y37676849D01*
X5485802Y37573886D01*
X5516724Y37511231D01*
X5508863Y37441805D01*
X5464716Y37387650D01*
X5437904Y37373722D01*
X5357673Y37343798D01*
X5357664Y37343793D01*
X5242455Y37257547D01*
X5242452Y37257544D01*
X5156206Y37142335D01*
X5156202Y37142328D01*
X5105908Y37007482D01*
X5099501Y36947883D01*
X5099501Y36947876D01*
X5099500Y36947864D01*
X5099500Y35052129D01*
X5099501Y35052123D01*
X5105908Y34992516D01*
X5156202Y34857671D01*
X5156206Y34857664D01*
X5242452Y34742455D01*
X5242455Y34742452D01*
X5357664Y34656206D01*
X5357671Y34656202D01*
X5492517Y34605908D01*
X5492516Y34605908D01*
X5552116Y34599501D01*
X5552119Y34599500D01*
X5552127Y34599500D01*
X5552134Y34599500D01*
X5552135Y34599500D01*
X7447870Y34599500D01*
X7447876Y34599501D01*
X7507483Y34605908D01*
X7642328Y34656202D01*
X7642335Y34656206D01*
X7757544Y34742452D01*
X7757547Y34742455D01*
X7843793Y34857664D01*
X7843797Y34857671D01*
X7894091Y34992517D01*
X7900500Y35052127D01*
X7900499Y36947872D01*
X7894091Y37007483D01*
X7843796Y37142331D01*
X7757546Y37257546D01*
X7642331Y37343796D01*
X7562094Y37373722D01*
X7506161Y37415592D01*
X7481743Y37481056D01*
X7496594Y37549329D01*
X7514193Y37573881D01*
X7608979Y37676847D01*
X7608980Y37676849D01*
X7608983Y37676852D01*
X7735924Y37871151D01*
X7829157Y38083699D01*
X7886133Y38308691D01*
X7886135Y38308702D01*
X7905300Y38539993D01*
X7905300Y38540006D01*
X7886135Y38771297D01*
X7886133Y38771308D01*
X7829157Y38996300D01*
X7827533Y39000003D01*
X7735924Y39208849D01*
X7608979Y39403153D01*
X7451784Y39573913D01*
X7268626Y39716470D01*
X7064503Y39826936D01*
X6844981Y39902298D01*
X6616049Y39940500D01*
X6383951Y39940500D01*
X6155019Y39902298D01*
X6155017Y39902297D01*
X6155015Y39902297D01*
X6049487Y39866068D01*
X5935497Y39826936D01*
X5731374Y39716470D01*
X5731372Y39716468D01*
X5731371Y39716468D01*
X5731365Y39716464D01*
X5548222Y39573918D01*
X5548216Y39573913D01*
X5391021Y39403153D01*
X5391019Y39403151D01*
X5391016Y39403147D01*
X5264075Y39208848D01*
X5170842Y38996300D01*
X5113866Y38771308D01*
X5113864Y38771297D01*
X5094700Y38540006D01*
X5094700Y38539993D01*
X-1940061Y38539993D01*
X898223Y41378277D01*
X959546Y41411762D01*
X972012Y41413815D01*
X979246Y41414630D01*
X979255Y41414632D01*
X1149521Y41474210D01*
X1302262Y41570184D01*
X1429815Y41697737D01*
X1525788Y41850476D01*
X1585368Y42020745D01*
X1585369Y42020750D01*
X1605565Y42199996D01*
X1605565Y42200003D01*
X1585369Y42379249D01*
X1585368Y42379254D01*
X1582412Y42387702D01*
X1525789Y42549522D01*
X1429816Y42702262D01*
X1302262Y42829816D01*
X1149522Y42925789D01*
X979255Y42985368D01*
X979252Y42985368D01*
X979249Y42985369D01*
X800004Y43005565D01*
X799996Y43005565D01*
X620750Y42985369D01*
X620745Y42985368D01*
X450478Y42925789D01*
X297738Y42829816D01*
X297737Y42829815D01*
X170184Y42702262D01*
X74210Y42549521D01*
X14632Y42379255D01*
X14631Y42379251D01*
X13817Y42372020D01*
X-13250Y42307606D01*
X-21712Y42298233D01*
X-5035277Y37284669D01*
X-5056394Y37253064D01*
X-5106465Y37178127D01*
X-5155501Y37059744D01*
X-5155502Y37059738D01*
X-5180500Y36934071D01*
X-5180500Y15765928D01*
X-5171463Y15720500D01*
X-5155501Y15640256D01*
X-5106465Y15521873D01*
X-5035277Y15415331D01*
X-5035275Y15415329D01*
X-5035273Y15415326D01*
X-5035272Y15415325D01*
X-3382127Y13762181D01*
X-3348642Y13700858D01*
X-3353626Y13631166D01*
X-3395498Y13575233D01*
X-3460962Y13550816D01*
X-3469808Y13550500D01*
X-4704071Y13550500D01*
X-4788615Y13533682D01*
X-4829744Y13525501D01*
X-4948127Y13476465D01*
X-4948129Y13476464D01*
X-5001398Y13440870D01*
X-5054670Y13405276D01*
X-10572238Y7887706D01*
X-10633559Y7854223D01*
X-10692006Y7855613D01*
X-10764592Y7875063D01*
X-10952918Y7891539D01*
X-10999999Y7895659D01*
X-11000001Y7895659D01*
X-11039234Y7892226D01*
X-11235408Y7875063D01*
X-11463663Y7813903D01*
X-11677829Y7714035D01*
X-11871401Y7578495D01*
X-12038495Y7411401D01*
X-12168426Y7225838D01*
X-12223001Y7182215D01*
X-12292500Y7175021D01*
X-12354855Y7206543D01*
X-12371571Y7225836D01*
X-12501505Y7411401D01*
X-12668599Y7578495D01*
X-12765384Y7646265D01*
X-12862165Y7714032D01*
X-12862169Y7714034D01*
X-12862170Y7714035D01*
X-13076337Y7813903D01*
X-13304592Y7875063D01*
X-13492918Y7891539D01*
X-13539999Y7895659D01*
X-13540001Y7895659D01*
X-13579234Y7892226D01*
X-13775408Y7875063D01*
X-14003663Y7813903D01*
X-14217829Y7714035D01*
X-14411401Y7578495D01*
X-14578495Y7411401D01*
X-14708426Y7225838D01*
X-14763001Y7182215D01*
X-14832500Y7175021D01*
X-14894855Y7206543D01*
X-14911571Y7225836D01*
X-15041505Y7411401D01*
X-15208599Y7578495D01*
X-15305384Y7646265D01*
X-15402165Y7714032D01*
X-15402169Y7714034D01*
X-15402170Y7714035D01*
X-15616337Y7813903D01*
X-15844592Y7875063D01*
X-16032918Y7891539D01*
X-16079999Y7895659D01*
X-16080001Y7895659D01*
X-16119234Y7892226D01*
X-16315408Y7875063D01*
X-16543663Y7813903D01*
X-16757829Y7714035D01*
X-16951401Y7578495D01*
X-17118495Y7411401D01*
X-17248426Y7225838D01*
X-17303001Y7182215D01*
X-17372500Y7175021D01*
X-17434855Y7206543D01*
X-17451571Y7225836D01*
X-17581505Y7411401D01*
X-17748599Y7578495D01*
X-17916623Y7696147D01*
X-17960248Y7750724D01*
X-17969500Y7797722D01*
X-17969500Y15999741D01*
X-17949815Y16066780D01*
X-17897011Y16112535D01*
X-17827853Y16122479D01*
X-17764297Y16093454D01*
X-17729318Y16043074D01*
X-17705297Y15978671D01*
X-17705293Y15978664D01*
X-17619047Y15863455D01*
X-17619044Y15863452D01*
X-17503835Y15777206D01*
X-17503828Y15777202D01*
X-17368982Y15726908D01*
X-17368983Y15726908D01*
X-17309383Y15720501D01*
X-17309381Y15720500D01*
X-17309373Y15720500D01*
X-17309364Y15720500D01*
X-15955629Y15720500D01*
X-15955623Y15720501D01*
X-15896016Y15726908D01*
X-15761171Y15777202D01*
X-15761164Y15777206D01*
X-15645955Y15863452D01*
X-15645952Y15863455D01*
X-15559706Y15978664D01*
X-15559702Y15978671D01*
X-15509408Y16113517D01*
X-15503001Y16173116D01*
X-15503000Y16173135D01*
X-15503000Y16850000D01*
X-15226839Y16850000D01*
X-15207525Y16641566D01*
X-15166602Y16497737D01*
X-15150240Y16440230D01*
X-15056937Y16252852D01*
X-15056932Y16252844D01*
X-14930785Y16085798D01*
X-14836384Y15999741D01*
X-14776092Y15944778D01*
X-14644751Y15863455D01*
X-14598116Y15834580D01*
X-14598115Y15834579D01*
X-14450015Y15777206D01*
X-14402927Y15758964D01*
X-14197164Y15720500D01*
X-14197162Y15720500D01*
X-13987838Y15720500D01*
X-13987836Y15720500D01*
X-13782073Y15758964D01*
X-13782070Y15758965D01*
X-13586884Y15834579D01*
X-13586883Y15834580D01*
X-13408906Y15944779D01*
X-13254214Y16085798D01*
X-13128067Y16252844D01*
X-13128062Y16252852D01*
X-13034759Y16440230D01*
X-12977474Y16641570D01*
X-12958161Y16849999D01*
X-12958161Y16850000D01*
X-12977474Y17058429D01*
X-13034759Y17259769D01*
X-13128062Y17447147D01*
X-13128067Y17447155D01*
X-13254214Y17614201D01*
X-13408906Y17755220D01*
X-13408908Y17755222D01*
X-13586882Y17865419D01*
X-13586883Y17865419D01*
X-13586884Y17865420D01*
X-13628234Y17881439D01*
X-13782073Y17941036D01*
X-13987836Y17979500D01*
X-14197164Y17979500D01*
X-14402927Y17941036D01*
X-14598118Y17865419D01*
X-14776092Y17755222D01*
X-14930787Y17614199D01*
X-15056934Y17447153D01*
X-15150240Y17259771D01*
X-15207525Y17058434D01*
X-15226839Y16850000D01*
X-15503000Y16850000D01*
X-15503000Y17526870D01*
X-15503001Y17526876D01*
X-15509408Y17586483D01*
X-15559702Y17721328D01*
X-15559706Y17721335D01*
X-15645952Y17836544D01*
X-15645955Y17836547D01*
X-15761164Y17922793D01*
X-15761171Y17922797D01*
X-15896017Y17973091D01*
X-15896016Y17973091D01*
X-15902425Y17973779D01*
X-15955627Y17979500D01*
X-17309372Y17979499D01*
X-17368983Y17973091D01*
X-17503831Y17922796D01*
X-17619046Y17836546D01*
X-17705296Y17721331D01*
X-17705297Y17721328D01*
X-17729318Y17656925D01*
X-17771189Y17600991D01*
X-17836653Y17576574D01*
X-17904926Y17591425D01*
X-17954332Y17640830D01*
X-17969500Y17700258D01*
X-17969500Y21809191D01*
X-17949815Y21876230D01*
X-17933181Y21896872D01*
X-17744727Y22085325D01*
X-17744721Y22085332D01*
X-17675258Y22189293D01*
X-17659838Y22208083D01*
X-17620185Y22247735D01*
X-17620184Y22247738D01*
X-17524211Y22400476D01*
X-17464631Y22570745D01*
X-17464630Y22570750D01*
X-17444435Y22749996D01*
X-17444435Y22750003D01*
X-17464630Y22929249D01*
X-17464631Y22929254D01*
X-17524211Y23099523D01*
X-17620184Y23252262D01*
X-17747737Y23379815D01*
X-17747738Y23379816D01*
X-17900478Y23475789D01*
X-18070745Y23535368D01*
X-18077974Y23536182D01*
X-18142388Y23563246D01*
X-18151776Y23571722D01*
X-21335325Y26755272D01*
X-21335326Y26755273D01*
X-21335329Y26755275D01*
X-21335331Y26755277D01*
X-21441873Y26826465D01*
X-21560256Y26875501D01*
X-21581948Y26879816D01*
X-21685929Y26900500D01*
X-21685931Y26900500D01*
X-27994932Y26900500D01*
X-28060904Y26919506D01*
X-28150477Y26975789D01*
X-28150481Y26975790D01*
X-28320737Y27035366D01*
X-28320743Y27035367D01*
X-28320745Y27035368D01*
X-28320746Y27035368D01*
X-28320750Y27035369D01*
X-28499996Y27055565D01*
X-28500004Y27055565D01*
X-28679249Y27035369D01*
X-28679252Y27035368D01*
X-28679255Y27035368D01*
X-28849522Y26975789D01*
X-29002262Y26879816D01*
X-29073229Y26808849D01*
X-29134740Y26747338D01*
X-29136011Y26748609D01*
X-29185740Y26713705D01*
X-29255552Y26710855D01*
X-29315822Y26746200D01*
X-29347416Y26808518D01*
X-29349500Y26831158D01*
X-29349500Y38494931D01*
X-29330494Y38560903D01*
X-29274211Y38650477D01*
X-29274209Y38650481D01*
X-29214633Y38820737D01*
X-29214630Y38820750D01*
X-29194435Y38999996D01*
X-29194435Y39000003D01*
X-29214630Y39179249D01*
X-29214631Y39179254D01*
X-29274211Y39349523D01*
X-29370184Y39502262D01*
X-29497737Y39629815D01*
X-29497738Y39629816D01*
X-29635637Y39716464D01*
X-29650476Y39725788D01*
X-29650478Y39725789D01*
X-29820745Y39785368D01*
X-29820750Y39785369D01*
X-29999996Y39805565D01*
X-30000004Y39805565D01*
X-30179249Y39785369D01*
X-30179252Y39785368D01*
X-30179255Y39785368D01*
X-30349522Y39725789D01*
X-30502262Y39629816D01*
X-30629816Y39502262D01*
X-30725789Y39349522D01*
X-30775013Y39208848D01*
X-30785368Y39179254D01*
X-30785369Y39179249D01*
X-30805565Y39000003D01*
X-30805565Y38999996D01*
X-30785369Y38820750D01*
X-30785366Y38820737D01*
X-30743858Y38702116D01*
X-30725789Y38650478D01*
X-30720786Y38642516D01*
X-30669506Y38560903D01*
X-30650500Y38494931D01*
X-30650500Y10869808D01*
X-30670185Y10802769D01*
X-30722989Y10757014D01*
X-30792147Y10747070D01*
X-30855703Y10776095D01*
X-30862181Y10782127D01*
X-37585325Y17505272D01*
X-37585326Y17505273D01*
X-37585329Y17505275D01*
X-37585331Y17505277D01*
X-37691873Y17576465D01*
X-37691874Y17576466D01*
X-37810252Y17625500D01*
X-37810255Y17625500D01*
X-37810256Y17625501D01*
X-37812051Y17625858D01*
X-37915284Y17646393D01*
X-37935930Y17650500D01*
X-37935931Y17650500D01*
X-40694932Y17650500D01*
X-40760904Y17669506D01*
X-40850477Y17725789D01*
X-40850481Y17725790D01*
X-41020737Y17785366D01*
X-41020743Y17785367D01*
X-41020745Y17785368D01*
X-41020746Y17785368D01*
X-41020750Y17785369D01*
X-41199996Y17805565D01*
X-41200004Y17805565D01*
X-41379249Y17785369D01*
X-41379252Y17785368D01*
X-41379255Y17785368D01*
X-41549522Y17725789D01*
X-41702262Y17629816D01*
X-41829816Y17502262D01*
X-41925789Y17349522D01*
X-41985368Y17179255D01*
X-41985368Y17179254D01*
X-41985369Y17179249D01*
X-42005565Y17000003D01*
X-42005565Y16999996D01*
X-66137925Y16999996D01*
X-64938592Y24709993D01*
X-52005300Y24709993D01*
X-51986135Y24478702D01*
X-51986133Y24478691D01*
X-51929157Y24253699D01*
X-51835924Y24041151D01*
X-51708983Y23846852D01*
X-51708980Y23846849D01*
X-51708979Y23846847D01*
X-51551784Y23676087D01*
X-51551780Y23676084D01*
X-51551777Y23676081D01*
X-51368634Y23533535D01*
X-51368628Y23533531D01*
X-51164504Y23423064D01*
X-51164495Y23423061D01*
X-50944984Y23347702D01*
X-50773282Y23319050D01*
X-50716049Y23309500D01*
X-50716048Y23309500D01*
X-50483952Y23309500D01*
X-50483951Y23309500D01*
X-50438164Y23317140D01*
X-50255015Y23347702D01*
X-50035504Y23423061D01*
X-50035495Y23423064D01*
X-49831371Y23533531D01*
X-49831365Y23533535D01*
X-49648222Y23676081D01*
X-49648219Y23676084D01*
X-49491016Y23846852D01*
X-49364075Y24041151D01*
X-49270842Y24253699D01*
X-49213866Y24478691D01*
X-49213864Y24478702D01*
X-49194700Y24709993D01*
X-49194700Y24710006D01*
X-49213864Y24941297D01*
X-49213866Y24941308D01*
X-49270842Y25166300D01*
X-49364075Y25378848D01*
X-49491016Y25573147D01*
X-49491019Y25573151D01*
X-49491021Y25573153D01*
X-49585803Y25676114D01*
X-49616724Y25738767D01*
X-49608864Y25808193D01*
X-49564716Y25862348D01*
X-49537906Y25876277D01*
X-49457669Y25906203D01*
X-49457664Y25906206D01*
X-49342455Y25992452D01*
X-49342452Y25992455D01*
X-49256206Y26107664D01*
X-49256202Y26107671D01*
X-49205908Y26242517D01*
X-49199501Y26302116D01*
X-49199500Y26302119D01*
X-49199500Y26302127D01*
X-49199500Y27173918D01*
X-49199500Y28197870D01*
X-49199501Y28197876D01*
X-49205908Y28257483D01*
X-49256202Y28392328D01*
X-49256206Y28392335D01*
X-49342452Y28507544D01*
X-49342455Y28507547D01*
X-49457664Y28593793D01*
X-49457671Y28593797D01*
X-49592517Y28644091D01*
X-49592516Y28644091D01*
X-49598925Y28644779D01*
X-49652127Y28650500D01*
X-51547872Y28650499D01*
X-51607483Y28644091D01*
X-51742331Y28593796D01*
X-51857546Y28507546D01*
X-51943796Y28392331D01*
X-51994091Y28257483D01*
X-52000500Y28197873D01*
X-52000499Y26302128D01*
X-51995299Y26253757D01*
X-51994091Y26242516D01*
X-51943797Y26107671D01*
X-51943793Y26107664D01*
X-51857547Y25992455D01*
X-51857544Y25992452D01*
X-51742335Y25906206D01*
X-51742328Y25906202D01*
X-51662094Y25876277D01*
X-51606160Y25834406D01*
X-51581743Y25768941D01*
X-51596595Y25700668D01*
X-51614190Y25676121D01*
X-51708979Y25573153D01*
X-51835924Y25378849D01*
X-51929157Y25166300D01*
X-51985502Y24943798D01*
X-51986133Y24941308D01*
X-51986135Y24941297D01*
X-52005300Y24710006D01*
X-52005300Y24709993D01*
X-64938592Y24709993D01*
X-63881300Y31506873D01*
X-60829500Y31506873D01*
X-60829499Y30153128D01*
X-60828063Y30139771D01*
X-60823091Y30093516D01*
X-60772797Y29958671D01*
X-60772793Y29958664D01*
X-60686547Y29843455D01*
X-60686544Y29843452D01*
X-60571335Y29757206D01*
X-60571328Y29757202D01*
X-60436482Y29706908D01*
X-60436483Y29706908D01*
X-60376883Y29700501D01*
X-60376881Y29700500D01*
X-60376873Y29700500D01*
X-60376864Y29700500D01*
X-59023129Y29700500D01*
X-59023123Y29700501D01*
X-58963516Y29706908D01*
X-58828671Y29757202D01*
X-58828664Y29757206D01*
X-58713455Y29843452D01*
X-58713452Y29843455D01*
X-58627206Y29958664D01*
X-58627202Y29958671D01*
X-58576908Y30093517D01*
X-58570501Y30153116D01*
X-58570500Y30153119D01*
X-58570500Y30153127D01*
X-58570500Y30821036D01*
X-58570500Y31506870D01*
X-58570501Y31506876D01*
X-58576908Y31566483D01*
X-58627202Y31701328D01*
X-58627206Y31701335D01*
X-58713452Y31816544D01*
X-58713455Y31816547D01*
X-58828664Y31902793D01*
X-58828671Y31902797D01*
X-58963517Y31953091D01*
X-58963516Y31953091D01*
X-58969925Y31953779D01*
X-59023127Y31959500D01*
X-60376872Y31959499D01*
X-60436483Y31953091D01*
X-60571331Y31902796D01*
X-60686546Y31816546D01*
X-60772796Y31701331D01*
X-60823091Y31566483D01*
X-60829500Y31506873D01*
X-63881300Y31506873D01*
X-63591480Y33370000D01*
X-60834339Y33370000D01*
X-60815025Y33161566D01*
X-60770900Y33006483D01*
X-60757740Y32960230D01*
X-60664437Y32772852D01*
X-60664432Y32772844D01*
X-60538285Y32605798D01*
X-60394399Y32474630D01*
X-60383592Y32464778D01*
X-60205618Y32354581D01*
X-60205616Y32354580D01*
X-60205615Y32354579D01*
X-60051779Y32294984D01*
X-60010427Y32278964D01*
X-59804664Y32240500D01*
X-59804662Y32240500D01*
X-59595338Y32240500D01*
X-59595336Y32240500D01*
X-59389573Y32278964D01*
X-59389570Y32278965D01*
X-59194384Y32354579D01*
X-59194383Y32354580D01*
X-59016406Y32464779D01*
X-58861714Y32605798D01*
X-58735567Y32772844D01*
X-58735562Y32772852D01*
X-58642259Y32960230D01*
X-58584974Y33161570D01*
X-58565661Y33369999D01*
X-58565661Y33370000D01*
X-58584974Y33578429D01*
X-58587717Y33588069D01*
X-58623282Y33713070D01*
X-58642259Y33779769D01*
X-58735562Y33967147D01*
X-58735567Y33967155D01*
X-58861714Y34134201D01*
X-59016406Y34275220D01*
X-59016408Y34275222D01*
X-59194382Y34385419D01*
X-59194383Y34385419D01*
X-59194384Y34385420D01*
X-59235734Y34401439D01*
X-59389573Y34461036D01*
X-59595336Y34499500D01*
X-59804664Y34499500D01*
X-60010427Y34461036D01*
X-60205618Y34385419D01*
X-60383592Y34275222D01*
X-60538287Y34134199D01*
X-60664434Y33967153D01*
X-60757740Y33779771D01*
X-60815025Y33578434D01*
X-60834339Y33370000D01*
X-63591480Y33370000D01*
X-63537355Y33717947D01*
X-63507600Y33781164D01*
X-63501562Y33787506D01*
X-60106847Y37109993D01*
X-47255300Y37109993D01*
X-47236135Y36878702D01*
X-47236133Y36878691D01*
X-47179157Y36653699D01*
X-47085924Y36441151D01*
X-46958983Y36246852D01*
X-46958980Y36246849D01*
X-46958979Y36246847D01*
X-46801784Y36076087D01*
X-46801780Y36076084D01*
X-46801777Y36076081D01*
X-46618634Y35933535D01*
X-46618628Y35933531D01*
X-46414504Y35823064D01*
X-46414495Y35823061D01*
X-46194984Y35747702D01*
X-46023282Y35719050D01*
X-45966049Y35709500D01*
X-45966048Y35709500D01*
X-45733952Y35709500D01*
X-45733951Y35709500D01*
X-45688164Y35717140D01*
X-45505015Y35747702D01*
X-45285504Y35823061D01*
X-45285495Y35823064D01*
X-45081371Y35933531D01*
X-45081365Y35933535D01*
X-44898222Y36076081D01*
X-44898219Y36076084D01*
X-44741016Y36246852D01*
X-44614075Y36441151D01*
X-44520842Y36653699D01*
X-44463866Y36878691D01*
X-44463864Y36878702D01*
X-44444700Y37109993D01*
X-44444700Y37110006D01*
X-44463864Y37341297D01*
X-44463866Y37341308D01*
X-44520842Y37566300D01*
X-44614075Y37778848D01*
X-44741016Y37973147D01*
X-44741019Y37973151D01*
X-44741021Y37973153D01*
X-44835803Y38076114D01*
X-44866724Y38138767D01*
X-44858864Y38208193D01*
X-44814716Y38262348D01*
X-44787906Y38276277D01*
X-44707669Y38306203D01*
X-44707664Y38306206D01*
X-44592455Y38392452D01*
X-44592452Y38392455D01*
X-44506206Y38507664D01*
X-44506202Y38507671D01*
X-44455908Y38642517D01*
X-44449501Y38702116D01*
X-44449500Y38702119D01*
X-44449500Y38702127D01*
X-44449500Y39629816D01*
X-44449500Y40597870D01*
X-44449501Y40597876D01*
X-44455908Y40657483D01*
X-44506202Y40792328D01*
X-44506206Y40792335D01*
X-44592452Y40907544D01*
X-44592455Y40907547D01*
X-44707664Y40993793D01*
X-44707671Y40993797D01*
X-44842517Y41044091D01*
X-44842516Y41044091D01*
X-44848925Y41044779D01*
X-44902127Y41050500D01*
X-46797872Y41050499D01*
X-46857483Y41044091D01*
X-46992331Y40993796D01*
X-47107546Y40907546D01*
X-47193796Y40792331D01*
X-47244091Y40657483D01*
X-47250500Y40597873D01*
X-47250499Y38702128D01*
X-47245299Y38653757D01*
X-47244091Y38642516D01*
X-47193797Y38507671D01*
X-47193793Y38507664D01*
X-47107547Y38392455D01*
X-47107544Y38392452D01*
X-46992335Y38306206D01*
X-46992328Y38306202D01*
X-46912094Y38276277D01*
X-46856160Y38234406D01*
X-46831743Y38168941D01*
X-46846595Y38100668D01*
X-46864190Y38076121D01*
X-46958979Y37973153D01*
X-47085924Y37778849D01*
X-47179157Y37566300D01*
X-47235502Y37343798D01*
X-47236133Y37341308D01*
X-47236135Y37341297D01*
X-47255300Y37110006D01*
X-47255300Y37109993D01*
X-60106847Y37109993D01*
X-53322500Y43749993D01*
X-29445300Y43749993D01*
X-29426135Y43518702D01*
X-29426133Y43518691D01*
X-29369157Y43293699D01*
X-29275924Y43081151D01*
X-29148983Y42886852D01*
X-29148980Y42886849D01*
X-29148979Y42886847D01*
X-28991784Y42716087D01*
X-28991781Y42716085D01*
X-28991780Y42716084D01*
X-28991777Y42716081D01*
X-28808634Y42573535D01*
X-28808628Y42573531D01*
X-28604504Y42463064D01*
X-28604495Y42463061D01*
X-28384984Y42387702D01*
X-28213282Y42359050D01*
X-28156049Y42349500D01*
X-28156048Y42349500D01*
X-27923952Y42349500D01*
X-27923951Y42349500D01*
X-27878164Y42357140D01*
X-27695015Y42387702D01*
X-27475504Y42463061D01*
X-27475495Y42463064D01*
X-27271371Y42573531D01*
X-27271365Y42573535D01*
X-27088222Y42716081D01*
X-27088218Y42716085D01*
X-27085054Y42719522D01*
X-27079865Y42725158D01*
X-27019979Y42761148D01*
X-26950141Y42759047D01*
X-26892525Y42719522D01*
X-26872455Y42684507D01*
X-26843797Y42607671D01*
X-26843793Y42607664D01*
X-26757547Y42492455D01*
X-26757544Y42492452D01*
X-26642335Y42406206D01*
X-26642328Y42406202D01*
X-26507482Y42355908D01*
X-26507483Y42355908D01*
X-26447883Y42349501D01*
X-26447881Y42349500D01*
X-26447873Y42349500D01*
X-26447864Y42349500D01*
X-24552129Y42349500D01*
X-24552123Y42349501D01*
X-24492516Y42355908D01*
X-24357671Y42406202D01*
X-24357664Y42406206D01*
X-24242455Y42492452D01*
X-24242452Y42492455D01*
X-24156206Y42607664D01*
X-24156202Y42607671D01*
X-24105908Y42742517D01*
X-24099501Y42802116D01*
X-24099500Y42802135D01*
X-24099500Y43899993D01*
X-13195300Y43899993D01*
X-13176135Y43668702D01*
X-13176133Y43668691D01*
X-13119157Y43443699D01*
X-13025924Y43231151D01*
X-12898983Y43036852D01*
X-12898980Y43036849D01*
X-12898979Y43036847D01*
X-12741784Y42866087D01*
X-12741781Y42866085D01*
X-12741780Y42866084D01*
X-12741777Y42866081D01*
X-12558634Y42723535D01*
X-12558628Y42723531D01*
X-12354504Y42613064D01*
X-12354495Y42613061D01*
X-12134984Y42537702D01*
X-11963282Y42509050D01*
X-11906049Y42499500D01*
X-11906048Y42499500D01*
X-11673952Y42499500D01*
X-11673951Y42499500D01*
X-11628164Y42507140D01*
X-11445015Y42537702D01*
X-11225504Y42613061D01*
X-11225495Y42613064D01*
X-11021371Y42723531D01*
X-11021365Y42723535D01*
X-10838222Y42866081D01*
X-10838218Y42866085D01*
X-10829866Y42875158D01*
X-10769979Y42911148D01*
X-10700141Y42909047D01*
X-10642525Y42869522D01*
X-10622455Y42834507D01*
X-10593797Y42757671D01*
X-10593793Y42757664D01*
X-10507547Y42642455D01*
X-10507544Y42642452D01*
X-10392335Y42556206D01*
X-10392328Y42556202D01*
X-10257482Y42505908D01*
X-10257483Y42505908D01*
X-10197883Y42499501D01*
X-10197881Y42499500D01*
X-10197873Y42499500D01*
X-10197864Y42499500D01*
X-8302129Y42499500D01*
X-8302123Y42499501D01*
X-8242516Y42505908D01*
X-8107671Y42556202D01*
X-8107664Y42556206D01*
X-7992455Y42642452D01*
X-7992452Y42642455D01*
X-7906206Y42757664D01*
X-7906202Y42757671D01*
X-7855908Y42892517D01*
X-7849501Y42952116D01*
X-7849500Y42952135D01*
X-7849500Y44847870D01*
X-7849501Y44847876D01*
X-7855908Y44907483D01*
X-7906202Y45042328D01*
X-7906206Y45042335D01*
X-7992452Y45157544D01*
X-7992455Y45157547D01*
X-8107664Y45243793D01*
X-8107671Y45243797D01*
X-8242517Y45294091D01*
X-8242516Y45294091D01*
X-8248925Y45294779D01*
X-8302127Y45300500D01*
X-10197872Y45300499D01*
X-10257483Y45294091D01*
X-10392331Y45243796D01*
X-10507546Y45157546D01*
X-10593796Y45042331D01*
X-10593797Y45042328D01*
X-10593798Y45042326D01*
X-10622455Y44965493D01*
X-10664326Y44909559D01*
X-10729790Y44885141D01*
X-10798063Y44899992D01*
X-10829866Y44924843D01*
X-10838216Y44933913D01*
X-10878790Y44965493D01*
X-11021365Y45076464D01*
X-11021371Y45076468D01*
X-11021372Y45076468D01*
X-11021374Y45076470D01*
X-11225497Y45186936D01*
X-11339487Y45226068D01*
X-11445015Y45262297D01*
X-11445017Y45262297D01*
X-11445019Y45262298D01*
X-11673951Y45300500D01*
X-11906049Y45300500D01*
X-12134981Y45262298D01*
X-12354503Y45186936D01*
X-12558626Y45076470D01*
X-12558631Y45076465D01*
X-12558634Y45076464D01*
X-12609421Y45036935D01*
X-12741784Y44933913D01*
X-12898979Y44763153D01*
X-13025924Y44568849D01*
X-13119157Y44356300D01*
X-13157142Y44206300D01*
X-13176133Y44131308D01*
X-13176135Y44131297D01*
X-13195300Y43900006D01*
X-13195300Y43899993D01*
X-24099500Y43899993D01*
X-24099500Y44697870D01*
X-24099501Y44697876D01*
X-24105908Y44757483D01*
X-24156202Y44892328D01*
X-24156206Y44892335D01*
X-24242452Y45007544D01*
X-24242455Y45007547D01*
X-24357664Y45093793D01*
X-24357671Y45093797D01*
X-24492517Y45144091D01*
X-24492516Y45144091D01*
X-24498925Y45144779D01*
X-24552127Y45150500D01*
X-26447872Y45150499D01*
X-26507483Y45144091D01*
X-26642331Y45093796D01*
X-26757546Y45007546D01*
X-26843796Y44892331D01*
X-26843797Y44892328D01*
X-26843798Y44892326D01*
X-26872455Y44815493D01*
X-26914326Y44759559D01*
X-26979790Y44735141D01*
X-27048063Y44749992D01*
X-27079866Y44774843D01*
X-27088216Y44783913D01*
X-27128790Y44815493D01*
X-27271365Y44926464D01*
X-27271371Y44926468D01*
X-27271372Y44926468D01*
X-27271374Y44926470D01*
X-27475497Y45036936D01*
X-27590656Y45076470D01*
X-27695015Y45112297D01*
X-27695017Y45112297D01*
X-27695019Y45112298D01*
X-27923951Y45150500D01*
X-28156049Y45150500D01*
X-28384981Y45112298D01*
X-28604503Y45036936D01*
X-28808626Y44926470D01*
X-28808631Y44926465D01*
X-28808634Y44926464D01*
X-28833021Y44907483D01*
X-28991784Y44783913D01*
X-29148979Y44613153D01*
X-29275924Y44418849D01*
X-29369157Y44206300D01*
X-29388150Y44131297D01*
X-29426133Y43981308D01*
X-29426135Y43981297D01*
X-29445300Y43750006D01*
X-29445300Y43749993D01*
X-53322500Y43749993D01*
X-44712428Y52176873D01*
X-21449500Y52176873D01*
X-21449499Y50823128D01*
X-21444299Y50774757D01*
X-21443091Y50763516D01*
X-21392797Y50628671D01*
X-21392793Y50628664D01*
X-21306547Y50513455D01*
X-21306544Y50513452D01*
X-21191335Y50427206D01*
X-21191328Y50427202D01*
X-21056482Y50376908D01*
X-21056483Y50376908D01*
X-20996883Y50370501D01*
X-20996881Y50370500D01*
X-20996873Y50370500D01*
X-20996864Y50370500D01*
X-19643129Y50370500D01*
X-19643123Y50370501D01*
X-19583516Y50376908D01*
X-19448671Y50427202D01*
X-19448664Y50427206D01*
X-19333455Y50513452D01*
X-19333452Y50513455D01*
X-19247206Y50628664D01*
X-19247202Y50628671D01*
X-19196908Y50763517D01*
X-19190501Y50823116D01*
X-19190500Y50823119D01*
X-19190500Y50823127D01*
X-19190500Y51499999D01*
X-19190500Y51500000D01*
X-18914339Y51500000D01*
X-18895025Y51291566D01*
X-18837740Y51090230D01*
X-18744437Y50902852D01*
X-18744432Y50902844D01*
X-18618285Y50735798D01*
X-18500771Y50628671D01*
X-18463592Y50594778D01*
X-18332251Y50513455D01*
X-18285616Y50484580D01*
X-18285615Y50484579D01*
X-18137515Y50427206D01*
X-18090427Y50408964D01*
X-17884664Y50370500D01*
X-17884662Y50370500D01*
X-17675338Y50370500D01*
X-17675336Y50370500D01*
X-17469573Y50408964D01*
X-17469570Y50408965D01*
X-17274384Y50484579D01*
X-17274383Y50484580D01*
X-17096406Y50594779D01*
X-16941714Y50735798D01*
X-16815567Y50902844D01*
X-16815562Y50902852D01*
X-16722259Y51090230D01*
X-16664974Y51291570D01*
X-16645661Y51499999D01*
X-16645661Y51500000D01*
X-16664974Y51708429D01*
X-16722259Y51909769D01*
X-16815562Y52097147D01*
X-16815567Y52097155D01*
X-16941714Y52264201D01*
X-17096406Y52405220D01*
X-17096408Y52405222D01*
X-17274382Y52515419D01*
X-17274383Y52515419D01*
X-17274384Y52515420D01*
X-17315734Y52531439D01*
X-17469573Y52591036D01*
X-17675336Y52629500D01*
X-17884664Y52629500D01*
X-18090427Y52591036D01*
X-18285618Y52515419D01*
X-18463592Y52405222D01*
X-18618287Y52264199D01*
X-18744434Y52097153D01*
X-18837740Y51909771D01*
X-18895025Y51708434D01*
X-18914339Y51500000D01*
X-19190500Y51500000D01*
X-19190500Y52176870D01*
X-19190501Y52176876D01*
X-19196908Y52236483D01*
X-19247202Y52371328D01*
X-19247206Y52371335D01*
X-19333452Y52486544D01*
X-19333455Y52486547D01*
X-19448664Y52572793D01*
X-19448671Y52572797D01*
X-19583517Y52623091D01*
X-19583516Y52623091D01*
X-19589925Y52623779D01*
X-19643127Y52629500D01*
X-20996872Y52629499D01*
X-21056483Y52623091D01*
X-21191331Y52572796D01*
X-21306546Y52486546D01*
X-21392796Y52371331D01*
X-21443091Y52236483D01*
X-21449500Y52176873D01*
X-44712428Y52176873D01*
X-40331981Y56464119D01*
X-40270302Y56496943D01*
X-40245248Y56499500D01*
X241324Y56499500D01*
X308363Y56479815D01*
G37*
%TD.AperFunction*%
%TD*%
M02*
