%TF.GenerationSoftware,KiCad,Pcbnew,8.0.1*%
%TF.CreationDate,2024-03-24T19:04:35+02:00*%
%TF.ProjectId,PowerKiCad-CLRMAT005,506f7765-724b-4694-9361-642d434c524d,rev?*%
%TF.SameCoordinates,Original*%
%TF.FileFunction,Copper,L1,Top*%
%TF.FilePolarity,Positive*%
%FSLAX46Y46*%
G04 Gerber Fmt 4.6, Leading zero omitted, Abs format (unit mm)*
G04 Created by KiCad (PCBNEW 8.0.1) date 2024-03-24 19:04:35*
%MOMM*%
%LPD*%
G01*
G04 APERTURE LIST*
G04 Aperture macros list*
%AMRoundRect*
0 Rectangle with rounded corners*
0 $1 Rounding radius*
0 $2 $3 $4 $5 $6 $7 $8 $9 X,Y pos of 4 corners*
0 Add a 4 corners polygon primitive as box body*
4,1,4,$2,$3,$4,$5,$6,$7,$8,$9,$2,$3,0*
0 Add four circle primitives for the rounded corners*
1,1,$1+$1,$2,$3*
1,1,$1+$1,$4,$5*
1,1,$1+$1,$6,$7*
1,1,$1+$1,$8,$9*
0 Add four rect primitives between the rounded corners*
20,1,$1+$1,$2,$3,$4,$5,0*
20,1,$1+$1,$4,$5,$6,$7,0*
20,1,$1+$1,$6,$7,$8,$9,0*
20,1,$1+$1,$8,$9,$2,$3,0*%
G04 Aperture macros list end*
%TA.AperFunction,SMDPad,CuDef*%
%ADD10RoundRect,0.062500X-0.187500X-0.062500X0.187500X-0.062500X0.187500X0.062500X-0.187500X0.062500X0*%
%TD*%
%TA.AperFunction,SMDPad,CuDef*%
%ADD11R,0.900000X1.600000*%
%TD*%
%TA.AperFunction,ComponentPad*%
%ADD12C,1.200000*%
%TD*%
%TA.AperFunction,ComponentPad*%
%ADD13R,1.200000X1.200000*%
%TD*%
%TA.AperFunction,SMDPad,CuDef*%
%ADD14RoundRect,0.225000X-0.250000X0.225000X-0.250000X-0.225000X0.250000X-0.225000X0.250000X0.225000X0*%
%TD*%
%TA.AperFunction,SMDPad,CuDef*%
%ADD15RoundRect,0.250000X-0.475000X0.250000X-0.475000X-0.250000X0.475000X-0.250000X0.475000X0.250000X0*%
%TD*%
%TA.AperFunction,SMDPad,CuDef*%
%ADD16RoundRect,0.218750X0.256250X-0.218750X0.256250X0.218750X-0.256250X0.218750X-0.256250X-0.218750X0*%
%TD*%
%TA.AperFunction,SMDPad,CuDef*%
%ADD17RoundRect,0.150000X0.512500X0.150000X-0.512500X0.150000X-0.512500X-0.150000X0.512500X-0.150000X0*%
%TD*%
%TA.AperFunction,SMDPad,CuDef*%
%ADD18RoundRect,0.250000X0.450000X-0.262500X0.450000X0.262500X-0.450000X0.262500X-0.450000X-0.262500X0*%
%TD*%
%TA.AperFunction,ComponentPad*%
%ADD19R,1.700000X1.700000*%
%TD*%
%TA.AperFunction,ComponentPad*%
%ADD20O,1.700000X1.700000*%
%TD*%
%TA.AperFunction,SMDPad,CuDef*%
%ADD21RoundRect,0.250000X-0.450000X0.262500X-0.450000X-0.262500X0.450000X-0.262500X0.450000X0.262500X0*%
%TD*%
%TA.AperFunction,SMDPad,CuDef*%
%ADD22RoundRect,0.135000X-0.185000X0.135000X-0.185000X-0.135000X0.185000X-0.135000X0.185000X0.135000X0*%
%TD*%
%TA.AperFunction,SMDPad,CuDef*%
%ADD23RoundRect,0.200000X-0.275000X0.200000X-0.275000X-0.200000X0.275000X-0.200000X0.275000X0.200000X0*%
%TD*%
%TA.AperFunction,ComponentPad*%
%ADD24RoundRect,0.250000X-0.350000X-0.625000X0.350000X-0.625000X0.350000X0.625000X-0.350000X0.625000X0*%
%TD*%
%TA.AperFunction,ComponentPad*%
%ADD25O,1.200000X1.750000*%
%TD*%
%TA.AperFunction,ViaPad*%
%ADD26C,0.600000*%
%TD*%
%TA.AperFunction,Conductor*%
%ADD27C,0.400000*%
%TD*%
%TA.AperFunction,Conductor*%
%ADD28C,0.200000*%
%TD*%
%TA.AperFunction,Conductor*%
%ADD29C,0.600000*%
%TD*%
G04 APERTURE END LIST*
D10*
%TO.P,U2,1,VM*%
%TO.N,/BATT_IN*%
X153550000Y-92925000D03*
%TO.P,U2,2,OUT1*%
%TO.N,/Motor2_A*%
X153550000Y-93425000D03*
%TO.P,U2,3,OUT2*%
%TO.N,/Motor2_B*%
X153550000Y-93925000D03*
%TO.P,U2,4,GND*%
%TO.N,GND*%
X153550000Y-94425000D03*
%TO.P,U2,5,IN2*%
%TO.N,/PC7*%
X155450000Y-94425000D03*
%TO.P,U2,6,IN1*%
%TO.N,/PC6*%
X155450000Y-93925000D03*
%TO.P,U2,7,~{SLEEP}*%
%TO.N,/BATT_IN*%
X155450000Y-93425000D03*
%TO.P,U2,8,VCC*%
X155450000Y-92925000D03*
D11*
%TO.P,U2,9,GND*%
%TO.N,GND*%
X154500000Y-93675000D03*
%TD*%
D12*
%TO.P,SW1,*%
%TO.N,*%
X149960000Y-103080000D03*
X155040000Y-103080000D03*
D13*
%TO.P,SW1,1,A*%
%TO.N,/BATT*%
X149960000Y-98000000D03*
D12*
%TO.P,SW1,2,B*%
%TO.N,/BATT_IN*%
X152500000Y-98000000D03*
%TO.P,SW1,3,C*%
%TO.N,GND*%
X155040000Y-98000000D03*
%TD*%
D14*
%TO.P,C1,1*%
%TO.N,/BATT_IN*%
X146000000Y-102725000D03*
%TO.P,C1,2*%
%TO.N,GND*%
X146000000Y-104275000D03*
%TD*%
D15*
%TO.P,C3,1*%
%TO.N,+5V*%
X138000000Y-97050000D03*
%TO.P,C3,2*%
%TO.N,GND*%
X138000000Y-98950000D03*
%TD*%
D16*
%TO.P,D1,1,K*%
%TO.N,/STAT_LIGHT*%
X140000000Y-94562500D03*
%TO.P,D1,2,A*%
%TO.N,+5V*%
X140000000Y-92987500D03*
%TD*%
D17*
%TO.P,U3,1,STAT*%
%TO.N,Net-(U3-STAT)*%
X145137500Y-94725000D03*
%TO.P,U3,2,V_{SS}*%
%TO.N,GND*%
X145137500Y-93775000D03*
%TO.P,U3,3,V_{BAT}*%
%TO.N,/BATT*%
X145137500Y-92825000D03*
%TO.P,U3,4,V_{DD}*%
%TO.N,+5V*%
X142862500Y-92825000D03*
%TO.P,U3,5,PROG*%
%TO.N,Net-(U3-PROG)*%
X142862500Y-94725000D03*
%TD*%
D18*
%TO.P,R2,1*%
%TO.N,Net-(U3-STAT)*%
X140500000Y-98912500D03*
%TO.P,R2,2*%
%TO.N,/STAT_LIGHT*%
X140500000Y-97087500D03*
%TD*%
D15*
%TO.P,C4,1*%
%TO.N,/BATT*%
X146000000Y-97050000D03*
%TO.P,C4,2*%
%TO.N,GND*%
X146000000Y-98950000D03*
%TD*%
D19*
%TO.P,J1,1,Pin_1*%
%TO.N,/Motor2_A*%
X154080000Y-88775000D03*
D20*
%TO.P,J1,2,Pin_2*%
%TO.N,/PC6*%
X154080000Y-86235000D03*
%TO.P,J1,3,Pin_3*%
%TO.N,/Motor2_B*%
X151540000Y-88775000D03*
%TO.P,J1,4,Pin_4*%
%TO.N,/PC7*%
X151540000Y-86235000D03*
%TO.P,J1,5,Pin_5*%
%TO.N,GND*%
X149000000Y-88775000D03*
%TO.P,J1,6,Pin_6*%
X149000000Y-86235000D03*
%TO.P,J1,7,Pin_7*%
%TO.N,/BATT*%
X146460000Y-88775000D03*
%TO.P,J1,8,Pin_8*%
X146460000Y-86235000D03*
%TO.P,J1,9,Pin_9*%
%TO.N,/PD7*%
X143920000Y-88775000D03*
%TO.P,J1,10,Pin_10*%
%TO.N,/BATT_ADC*%
X143920000Y-86235000D03*
%TO.P,J1,11,Pin_11*%
%TO.N,+5V*%
X141380000Y-88775000D03*
%TO.P,J1,12,Pin_12*%
X141380000Y-86235000D03*
%TO.P,J1,13,Pin_13*%
%TO.N,/Motor1_A*%
X138840000Y-88775000D03*
%TO.P,J1,14,Pin_14*%
%TO.N,/PC8*%
X138840000Y-86235000D03*
%TO.P,J1,15,Pin_15*%
%TO.N,/Motor1_B*%
X136300000Y-88775000D03*
%TO.P,J1,16,Pin_16*%
%TO.N,/PC9*%
X136300000Y-86235000D03*
%TD*%
D21*
%TO.P,R3,1*%
%TO.N,/BATT*%
X148000000Y-92950000D03*
%TO.P,R3,2*%
%TO.N,/BATT_ADC*%
X148000000Y-94775000D03*
%TD*%
D22*
%TO.P,R1,1*%
%TO.N,Net-(U3-PROG)*%
X143500000Y-97265000D03*
%TO.P,R1,2*%
%TO.N,GND*%
X143500000Y-98285000D03*
%TD*%
D10*
%TO.P,U1,1,VM*%
%TO.N,/BATT_IN*%
X135050000Y-93275000D03*
%TO.P,U1,2,OUT1*%
%TO.N,/Motor1_A*%
X135050000Y-93775000D03*
%TO.P,U1,3,OUT2*%
%TO.N,/Motor1_B*%
X135050000Y-94275000D03*
%TO.P,U1,4,GND*%
%TO.N,GND*%
X135050000Y-94775000D03*
%TO.P,U1,5,IN2*%
%TO.N,/PC9*%
X136950000Y-94775000D03*
%TO.P,U1,6,IN1*%
%TO.N,/PC8*%
X136950000Y-94275000D03*
%TO.P,U1,7,~{SLEEP}*%
%TO.N,/BATT_IN*%
X136950000Y-93775000D03*
%TO.P,U1,8,VCC*%
X136950000Y-93275000D03*
D11*
%TO.P,U1,9,GND*%
%TO.N,GND*%
X136000000Y-94025000D03*
%TD*%
D23*
%TO.P,R4,1*%
%TO.N,/BATT_ADC*%
X151000000Y-92950000D03*
%TO.P,R4,2*%
%TO.N,GND*%
X151000000Y-94600000D03*
%TD*%
D14*
%TO.P,C2,1*%
%TO.N,/BATT_IN*%
X143500000Y-102725000D03*
%TO.P,C2,2*%
%TO.N,GND*%
X143500000Y-104275000D03*
%TD*%
D24*
%TO.P,J2,1,Pin_1*%
%TO.N,/BATT*%
X137000000Y-103000000D03*
D25*
%TO.P,J2,2,Pin_2*%
%TO.N,GND*%
X139000000Y-103000000D03*
%TD*%
D26*
%TO.N,GND*%
X146500000Y-95500000D03*
X155000000Y-96000000D03*
X150000000Y-84500000D03*
X143500000Y-101000000D03*
X151500000Y-96500000D03*
X136000000Y-94000000D03*
X143500000Y-98312500D03*
%TO.N,/BATT_ADC*%
X150145686Y-93014314D03*
X149014314Y-94145686D03*
%TO.N,/BATT_IN*%
X142500000Y-101000000D03*
X138000000Y-92500000D03*
X152473199Y-94026801D03*
X153600000Y-92000000D03*
%TD*%
D27*
%TO.N,GND*%
X149000000Y-85000000D02*
X148500000Y-84500000D01*
D28*
X153550000Y-94425000D02*
X153550000Y-95450000D01*
D27*
X149000000Y-88775000D02*
X149000000Y-85000000D01*
X143500000Y-98285000D02*
X143500000Y-98312500D01*
D28*
X153550000Y-95450000D02*
X153500000Y-95500000D01*
X136000000Y-94089386D02*
X135314386Y-94775000D01*
X154500000Y-93675000D02*
X154500000Y-95000000D01*
X151000000Y-94600000D02*
X151000000Y-95500000D01*
X136000000Y-94025000D02*
X136000000Y-94089386D01*
X135314386Y-94775000D02*
X135050000Y-94775000D01*
D29*
%TO.N,/BATT*%
X146460000Y-86235000D02*
X146460000Y-88775000D01*
X148000000Y-92950000D02*
X148000000Y-90315000D01*
D28*
X137000000Y-103000000D02*
X140275000Y-99725000D01*
D29*
X149010000Y-97050000D02*
X149960000Y-98000000D01*
D28*
X140275000Y-99725000D02*
X143715256Y-99725000D01*
D29*
X145137500Y-92825000D02*
X147875000Y-92825000D01*
X148950000Y-92950000D02*
X148000000Y-92950000D01*
X147875000Y-92825000D02*
X148000000Y-92950000D01*
D28*
X146000000Y-97440256D02*
X146000000Y-97050000D01*
X143715256Y-99725000D02*
X146000000Y-97440256D01*
D29*
X149960000Y-93960000D02*
X148950000Y-92950000D01*
X148000000Y-90315000D02*
X146460000Y-88775000D01*
X146000000Y-97050000D02*
X149010000Y-97050000D01*
X149960000Y-98000000D02*
X149960000Y-93960000D01*
%TO.N,+5V*%
X140000000Y-92987500D02*
X142700000Y-92987500D01*
X138000000Y-97050000D02*
X139000000Y-96050000D01*
X139000000Y-93987500D02*
X140000000Y-92987500D01*
X141380000Y-86235000D02*
X141380000Y-88775000D01*
X139000000Y-96050000D02*
X139000000Y-93987500D01*
X140012500Y-92987500D02*
X141500000Y-91500000D01*
X141500000Y-91500000D02*
X141380000Y-91380000D01*
X140000000Y-92987500D02*
X140012500Y-92987500D01*
X141380000Y-91380000D02*
X141380000Y-88775000D01*
X142700000Y-92987500D02*
X142862500Y-92825000D01*
D28*
%TO.N,/STAT_LIGHT*%
X140000000Y-96587500D02*
X140500000Y-97087500D01*
X140000000Y-94562500D02*
X140000000Y-96587500D01*
%TO.N,/PC9*%
X136525000Y-95200000D02*
X134710614Y-95200000D01*
X136950000Y-94775000D02*
X136525000Y-95200000D01*
X133700000Y-94189386D02*
X133700000Y-88835000D01*
X134710614Y-95200000D02*
X133700000Y-94189386D01*
X133700000Y-88835000D02*
X136300000Y-86235000D01*
%TO.N,/Motor1_A*%
X134500000Y-93489386D02*
X134500000Y-93060614D01*
X134500000Y-93060614D02*
X138785614Y-88775000D01*
X138785614Y-88775000D02*
X138840000Y-88775000D01*
X135050000Y-93775000D02*
X134785614Y-93775000D01*
X134785614Y-93775000D02*
X134500000Y-93489386D01*
%TO.N,/PC8*%
X137214386Y-94275000D02*
X139990000Y-91499386D01*
X136950000Y-94275000D02*
X137214386Y-94275000D01*
X139990000Y-91499386D02*
X139990000Y-87385000D01*
X139990000Y-87385000D02*
X138840000Y-86235000D01*
%TO.N,/Motor1_B*%
X134719928Y-94275000D02*
X134100000Y-93655071D01*
X134100000Y-93655071D02*
X134100000Y-90975000D01*
X134100000Y-90975000D02*
X136300000Y-88775000D01*
X135050000Y-94275000D02*
X134719928Y-94275000D01*
%TO.N,/PC6*%
X156000000Y-93639386D02*
X156000000Y-88155000D01*
X156000000Y-88155000D02*
X154080000Y-86235000D01*
X155714386Y-93925000D02*
X156000000Y-93639386D01*
X155450000Y-93925000D02*
X155714386Y-93925000D01*
%TO.N,/PC7*%
X156500000Y-93705072D02*
X156500000Y-87028654D01*
X155450000Y-94425000D02*
X155780072Y-94425000D01*
X155780072Y-94425000D02*
X156500000Y-93705072D01*
X156500000Y-87028654D02*
X154471346Y-85000000D01*
X152775000Y-85000000D02*
X151540000Y-86235000D01*
X154471346Y-85000000D02*
X152775000Y-85000000D01*
%TO.N,/Motor2_B*%
X153219928Y-93925000D02*
X151540000Y-92245072D01*
X153550000Y-93925000D02*
X153219928Y-93925000D01*
X151540000Y-92245072D02*
X151540000Y-88775000D01*
%TO.N,/Motor2_A*%
X153550000Y-93425000D02*
X153285614Y-93425000D01*
X153000000Y-93139386D02*
X153000000Y-89855000D01*
X153000000Y-89855000D02*
X154080000Y-88775000D01*
X153285614Y-93425000D02*
X153000000Y-93139386D01*
%TO.N,/BATT_ADC*%
X147610000Y-85758654D02*
X147610000Y-89076472D01*
X151000000Y-92950000D02*
X150210000Y-92950000D01*
X145070000Y-85085000D02*
X146936346Y-85085000D01*
X146936346Y-85085000D02*
X147610000Y-85758654D01*
X150210000Y-92950000D02*
X150145686Y-93014314D01*
X143920000Y-86235000D02*
X145070000Y-85085000D01*
X148385000Y-94775000D02*
X149014314Y-94145686D01*
X147610000Y-89076472D02*
X151000000Y-92466472D01*
X148000000Y-94775000D02*
X148385000Y-94775000D01*
X151000000Y-92466472D02*
X151000000Y-92950000D01*
%TO.N,Net-(U3-PROG)*%
X143500000Y-95362500D02*
X143500000Y-97265000D01*
X142862500Y-94725000D02*
X143500000Y-95362500D01*
%TO.N,Net-(U3-STAT)*%
X144120000Y-95742500D02*
X144120000Y-98603924D01*
X143811424Y-98912500D02*
X140500000Y-98912500D01*
X144120000Y-98603924D02*
X143811424Y-98912500D01*
X145137500Y-94725000D02*
X144120000Y-95742500D01*
%TO.N,/BATT_IN*%
X138000000Y-92500000D02*
X138000000Y-92725000D01*
X136750000Y-92925000D02*
X136950000Y-93125000D01*
X155100000Y-92575000D02*
X155450000Y-92925000D01*
X146000000Y-102725000D02*
X147775000Y-102725000D01*
X153900000Y-92575000D02*
X155100000Y-92575000D01*
X143500000Y-102000000D02*
X142500000Y-101000000D01*
X143500000Y-102725000D02*
X146000000Y-102725000D01*
X147775000Y-102725000D02*
X152500000Y-98000000D01*
X154525000Y-92000000D02*
X153600000Y-92000000D01*
X136950000Y-93775000D02*
X136950000Y-93275000D01*
X152500000Y-98000000D02*
X152500000Y-94053602D01*
X152500000Y-94053602D02*
X152473199Y-94026801D01*
X143500000Y-102725000D02*
X143500000Y-102000000D01*
X153550000Y-92925000D02*
X153900000Y-92575000D01*
X155450000Y-93425000D02*
X155450000Y-92925000D01*
X135050000Y-93275000D02*
X135400000Y-92925000D01*
X155450000Y-92925000D02*
X154525000Y-92000000D01*
X135400000Y-92925000D02*
X136750000Y-92925000D01*
X138000000Y-92725000D02*
X136950000Y-93775000D01*
X136950000Y-93125000D02*
X136950000Y-93275000D01*
%TD*%
%TA.AperFunction,Conductor*%
%TO.N,GND*%
G36*
X154644709Y-93444685D02*
G01*
X154690464Y-93497489D01*
X154700609Y-93532817D01*
X154713989Y-93634468D01*
X154716094Y-93642322D01*
X154712814Y-93643200D01*
X154718581Y-93697073D01*
X154715517Y-93707522D01*
X154716095Y-93707677D01*
X154713990Y-93715529D01*
X154699500Y-93825598D01*
X154699500Y-94024403D01*
X154713989Y-94134468D01*
X154716094Y-94142322D01*
X154712814Y-94143200D01*
X154718581Y-94197073D01*
X154715517Y-94207522D01*
X154716095Y-94207677D01*
X154713990Y-94215529D01*
X154699500Y-94325598D01*
X154699500Y-94524403D01*
X154713988Y-94634463D01*
X154713990Y-94634470D01*
X154713991Y-94634472D01*
X154728668Y-94669906D01*
X154740561Y-94698616D01*
X154750000Y-94746069D01*
X154750000Y-94975000D01*
X154943575Y-94975000D01*
X154991028Y-94984439D01*
X154991361Y-94984577D01*
X155115528Y-95036009D01*
X155225599Y-95050500D01*
X155674400Y-95050499D01*
X155674403Y-95050499D01*
X155784463Y-95036011D01*
X155784467Y-95036009D01*
X155784472Y-95036009D01*
X155787053Y-95034939D01*
X155834505Y-95025501D01*
X155859126Y-95025501D01*
X155859129Y-95025501D01*
X156011857Y-94984577D01*
X156104561Y-94931054D01*
X156148788Y-94905520D01*
X156260592Y-94793716D01*
X156260592Y-94793714D01*
X156270796Y-94783511D01*
X156270800Y-94783506D01*
X156787819Y-94266487D01*
X156849142Y-94233002D01*
X156918834Y-94237986D01*
X156974767Y-94279858D01*
X156999184Y-94345322D01*
X156999500Y-94354168D01*
X156999500Y-106376000D01*
X156979815Y-106443039D01*
X156927011Y-106488794D01*
X156875500Y-106500000D01*
X133124500Y-106500000D01*
X133057461Y-106480315D01*
X133011706Y-106427511D01*
X133000500Y-106376000D01*
X133000500Y-104525000D01*
X142525001Y-104525000D01*
X142525001Y-104548322D01*
X142535144Y-104647607D01*
X142588452Y-104808481D01*
X142588457Y-104808492D01*
X142677424Y-104952728D01*
X142677427Y-104952732D01*
X142797267Y-105072572D01*
X142797271Y-105072575D01*
X142941507Y-105161542D01*
X142941518Y-105161547D01*
X143102393Y-105214855D01*
X143201683Y-105224999D01*
X143249999Y-105224998D01*
X143250000Y-105224998D01*
X143250000Y-104525000D01*
X143750000Y-104525000D01*
X143750000Y-105224999D01*
X143798308Y-105224999D01*
X143798322Y-105224998D01*
X143897607Y-105214855D01*
X144058481Y-105161547D01*
X144058492Y-105161542D01*
X144202728Y-105072575D01*
X144202732Y-105072572D01*
X144322572Y-104952732D01*
X144322575Y-104952728D01*
X144411542Y-104808492D01*
X144411547Y-104808481D01*
X144464855Y-104647606D01*
X144474999Y-104548322D01*
X144475000Y-104548309D01*
X144475000Y-104525000D01*
X145025001Y-104525000D01*
X145025001Y-104548322D01*
X145035144Y-104647607D01*
X145088452Y-104808481D01*
X145088457Y-104808492D01*
X145177424Y-104952728D01*
X145177427Y-104952732D01*
X145297267Y-105072572D01*
X145297271Y-105072575D01*
X145441507Y-105161542D01*
X145441518Y-105161547D01*
X145602393Y-105214855D01*
X145701683Y-105224999D01*
X145749999Y-105224998D01*
X145750000Y-105224998D01*
X145750000Y-104525000D01*
X146250000Y-104525000D01*
X146250000Y-105224999D01*
X146298308Y-105224999D01*
X146298322Y-105224998D01*
X146397607Y-105214855D01*
X146558481Y-105161547D01*
X146558492Y-105161542D01*
X146702728Y-105072575D01*
X146702732Y-105072572D01*
X146822572Y-104952732D01*
X146822575Y-104952728D01*
X146911542Y-104808492D01*
X146911547Y-104808481D01*
X146964855Y-104647606D01*
X146974999Y-104548322D01*
X146975000Y-104548309D01*
X146975000Y-104525000D01*
X146250000Y-104525000D01*
X145750000Y-104525000D01*
X145025001Y-104525000D01*
X144475000Y-104525000D01*
X143750000Y-104525000D01*
X143250000Y-104525000D01*
X142525001Y-104525000D01*
X133000500Y-104525000D01*
X133000500Y-99200000D01*
X136775001Y-99200000D01*
X136775001Y-99249986D01*
X136785494Y-99352697D01*
X136840641Y-99519119D01*
X136840643Y-99519124D01*
X136932684Y-99668345D01*
X137056654Y-99792315D01*
X137205875Y-99884356D01*
X137205880Y-99884358D01*
X137372302Y-99939505D01*
X137372309Y-99939506D01*
X137475019Y-99949999D01*
X137749999Y-99949999D01*
X137750000Y-99949998D01*
X137750000Y-99200000D01*
X136775001Y-99200000D01*
X133000500Y-99200000D01*
X133000500Y-94638013D01*
X133020185Y-94570974D01*
X133072989Y-94525219D01*
X133142147Y-94515275D01*
X133205703Y-94544300D01*
X133213505Y-94552582D01*
X133213733Y-94552355D01*
X133338349Y-94676971D01*
X133338355Y-94676976D01*
X134225753Y-95564374D01*
X134225763Y-95564385D01*
X134230093Y-95568715D01*
X134230094Y-95568716D01*
X134341898Y-95680520D01*
X134414288Y-95722314D01*
X134478829Y-95759577D01*
X134631557Y-95800501D01*
X134631560Y-95800501D01*
X134797267Y-95800501D01*
X134797283Y-95800500D01*
X136438331Y-95800500D01*
X136438347Y-95800501D01*
X136445943Y-95800501D01*
X136604054Y-95800501D01*
X136604057Y-95800501D01*
X136756785Y-95759577D01*
X136821326Y-95722314D01*
X136893716Y-95680520D01*
X137005520Y-95568716D01*
X137005521Y-95568714D01*
X137143872Y-95430362D01*
X137205193Y-95396879D01*
X137215346Y-95395108D01*
X137284472Y-95386009D01*
X137421429Y-95329279D01*
X137539036Y-95239036D01*
X137629279Y-95121429D01*
X137686009Y-94984472D01*
X137700500Y-94874401D01*
X137700499Y-94689482D01*
X137720183Y-94622443D01*
X137736813Y-94601806D01*
X137987820Y-94350800D01*
X138049142Y-94317316D01*
X138118834Y-94322300D01*
X138174767Y-94364172D01*
X138199184Y-94429636D01*
X138199500Y-94438482D01*
X138199500Y-95667059D01*
X138179815Y-95734098D01*
X138163181Y-95754740D01*
X137904739Y-96013181D01*
X137843416Y-96046666D01*
X137817058Y-96049500D01*
X137474998Y-96049500D01*
X137474980Y-96049501D01*
X137372203Y-96060000D01*
X137372200Y-96060001D01*
X137205668Y-96115185D01*
X137205663Y-96115187D01*
X137056342Y-96207289D01*
X136932289Y-96331342D01*
X136840187Y-96480663D01*
X136840186Y-96480666D01*
X136785001Y-96647203D01*
X136785001Y-96647204D01*
X136785000Y-96647204D01*
X136774500Y-96749983D01*
X136774500Y-97350001D01*
X136774501Y-97350019D01*
X136785000Y-97452796D01*
X136785001Y-97452799D01*
X136834089Y-97600936D01*
X136840186Y-97619334D01*
X136932288Y-97768656D01*
X137056344Y-97892712D01*
X137059628Y-97894737D01*
X137059653Y-97894753D01*
X137061445Y-97896746D01*
X137062011Y-97897193D01*
X137061934Y-97897289D01*
X137106379Y-97946699D01*
X137117603Y-98015661D01*
X137089761Y-98079744D01*
X137059665Y-98105826D01*
X137056660Y-98107679D01*
X137056655Y-98107683D01*
X136932684Y-98231654D01*
X136840643Y-98380875D01*
X136840641Y-98380880D01*
X136785494Y-98547302D01*
X136785493Y-98547309D01*
X136775000Y-98650013D01*
X136775000Y-98700000D01*
X138126000Y-98700000D01*
X138193039Y-98719685D01*
X138238794Y-98772489D01*
X138250000Y-98824000D01*
X138250000Y-99949999D01*
X138524972Y-99949999D01*
X138524986Y-99949998D01*
X138627697Y-99939505D01*
X138794119Y-99884358D01*
X138794124Y-99884356D01*
X138943345Y-99792315D01*
X139067315Y-99668345D01*
X139163149Y-99512975D01*
X139165354Y-99514335D01*
X139203495Y-99470984D01*
X139270681Y-99451807D01*
X139337570Y-99471997D01*
X139375283Y-99510705D01*
X139401774Y-99553652D01*
X139424822Y-99591020D01*
X139443263Y-99658412D01*
X139422341Y-99725075D01*
X139406965Y-99743798D01*
X137556226Y-101594537D01*
X137494903Y-101628022D01*
X137455943Y-101630214D01*
X137400011Y-101624500D01*
X136599998Y-101624500D01*
X136599980Y-101624501D01*
X136497203Y-101635000D01*
X136497200Y-101635001D01*
X136330668Y-101690185D01*
X136330663Y-101690187D01*
X136181342Y-101782289D01*
X136057289Y-101906342D01*
X135965187Y-102055663D01*
X135965185Y-102055668D01*
X135946412Y-102112321D01*
X135910001Y-102222203D01*
X135910001Y-102222204D01*
X135910000Y-102222204D01*
X135899500Y-102324983D01*
X135899500Y-103675001D01*
X135899501Y-103675018D01*
X135910000Y-103777796D01*
X135910001Y-103777799D01*
X135951288Y-103902392D01*
X135965186Y-103944334D01*
X136057288Y-104093656D01*
X136181344Y-104217712D01*
X136330666Y-104309814D01*
X136497203Y-104364999D01*
X136599991Y-104375500D01*
X137400008Y-104375499D01*
X137400016Y-104375498D01*
X137400019Y-104375498D01*
X137456302Y-104369748D01*
X137502797Y-104364999D01*
X137669334Y-104309814D01*
X137818656Y-104217712D01*
X137942712Y-104093656D01*
X137982581Y-104029016D01*
X138034525Y-103982294D01*
X138103488Y-103971071D01*
X138167570Y-103998914D01*
X138175799Y-104006434D01*
X138283397Y-104114032D01*
X138423475Y-104215804D01*
X138577744Y-104294408D01*
X138742415Y-104347914D01*
X138742414Y-104347914D01*
X138749999Y-104349115D01*
X138750000Y-104349114D01*
X138750000Y-103280330D01*
X138769745Y-103300075D01*
X138855255Y-103349444D01*
X138950630Y-103375000D01*
X139049370Y-103375000D01*
X139144745Y-103349444D01*
X139230255Y-103300075D01*
X139250000Y-103280330D01*
X139250000Y-104349115D01*
X139257584Y-104347914D01*
X139422255Y-104294408D01*
X139576524Y-104215804D01*
X139716602Y-104114032D01*
X139839032Y-103991602D01*
X139940804Y-103851524D01*
X140019408Y-103697257D01*
X140072914Y-103532584D01*
X140100000Y-103361571D01*
X140100000Y-103250000D01*
X139280330Y-103250000D01*
X139300075Y-103230255D01*
X139349444Y-103144745D01*
X139375000Y-103049370D01*
X139375000Y-102950630D01*
X139349444Y-102855255D01*
X139300075Y-102769745D01*
X139280330Y-102750000D01*
X140100000Y-102750000D01*
X140100000Y-102638428D01*
X140072914Y-102467415D01*
X140019408Y-102302742D01*
X139940804Y-102148475D01*
X139839032Y-102008397D01*
X139716602Y-101885967D01*
X139576524Y-101784195D01*
X139422255Y-101705591D01*
X139404414Y-101699794D01*
X139346738Y-101660356D01*
X139319540Y-101595998D01*
X139331455Y-101527151D01*
X139355047Y-101494187D01*
X140487416Y-100361819D01*
X140548739Y-100328334D01*
X140575097Y-100325500D01*
X141754047Y-100325500D01*
X141821086Y-100345185D01*
X141866841Y-100397989D01*
X141876785Y-100467147D01*
X141859041Y-100515472D01*
X141774211Y-100650476D01*
X141714631Y-100820745D01*
X141714630Y-100820750D01*
X141694435Y-100999996D01*
X141694435Y-101000003D01*
X141714630Y-101179249D01*
X141714631Y-101179254D01*
X141774211Y-101349523D01*
X141865107Y-101494182D01*
X141870184Y-101502262D01*
X141997738Y-101629816D01*
X142150478Y-101725789D01*
X142320745Y-101785368D01*
X142407669Y-101795161D01*
X142472080Y-101822226D01*
X142481465Y-101830700D01*
X142615595Y-101964830D01*
X142649080Y-102026153D01*
X142644096Y-102095845D01*
X142633453Y-102117608D01*
X142587998Y-102191300D01*
X142587996Y-102191305D01*
X142534651Y-102352290D01*
X142524500Y-102451647D01*
X142524500Y-102998337D01*
X142524501Y-102998355D01*
X142534650Y-103097707D01*
X142534651Y-103097710D01*
X142587996Y-103258694D01*
X142588001Y-103258705D01*
X142677029Y-103403040D01*
X142677032Y-103403044D01*
X142686660Y-103412672D01*
X142720145Y-103473995D01*
X142715161Y-103543687D01*
X142686663Y-103588031D01*
X142677428Y-103597265D01*
X142677424Y-103597271D01*
X142588457Y-103741507D01*
X142588452Y-103741518D01*
X142535144Y-103902393D01*
X142525000Y-104001677D01*
X142525000Y-104025000D01*
X144474999Y-104025000D01*
X144474999Y-104001692D01*
X144474998Y-104001677D01*
X144464855Y-103902392D01*
X144411547Y-103741518D01*
X144411542Y-103741507D01*
X144322575Y-103597271D01*
X144322572Y-103597267D01*
X144313339Y-103588034D01*
X144279854Y-103526711D01*
X144284838Y-103457019D01*
X144313343Y-103412668D01*
X144322968Y-103403044D01*
X144334465Y-103384403D01*
X144386412Y-103337679D01*
X144440004Y-103325500D01*
X145059996Y-103325500D01*
X145127035Y-103345185D01*
X145165535Y-103384404D01*
X145177031Y-103403043D01*
X145186660Y-103412672D01*
X145220145Y-103473995D01*
X145215161Y-103543687D01*
X145186663Y-103588031D01*
X145177428Y-103597265D01*
X145177424Y-103597271D01*
X145088457Y-103741507D01*
X145088452Y-103741518D01*
X145035144Y-103902393D01*
X145025000Y-104001677D01*
X145025000Y-104025000D01*
X146974999Y-104025000D01*
X146974999Y-104001692D01*
X146974998Y-104001677D01*
X146964855Y-103902392D01*
X146911547Y-103741518D01*
X146911542Y-103741507D01*
X146822575Y-103597271D01*
X146822572Y-103597267D01*
X146813339Y-103588034D01*
X146779854Y-103526711D01*
X146784838Y-103457019D01*
X146813343Y-103412668D01*
X146822968Y-103403044D01*
X146834465Y-103384403D01*
X146886412Y-103337679D01*
X146940004Y-103325500D01*
X147688331Y-103325500D01*
X147688347Y-103325501D01*
X147695943Y-103325501D01*
X147854054Y-103325501D01*
X147854057Y-103325501D01*
X148006785Y-103284577D01*
X148057366Y-103255374D01*
X148057367Y-103255374D01*
X148143709Y-103205524D01*
X148143708Y-103205524D01*
X148143716Y-103205520D01*
X148255520Y-103093716D01*
X148255520Y-103093714D01*
X148265724Y-103083511D01*
X148265728Y-103083506D01*
X148695578Y-102653655D01*
X148756899Y-102620172D01*
X148826591Y-102625156D01*
X148882524Y-102667028D01*
X148906941Y-102732492D01*
X148902523Y-102775272D01*
X148873603Y-102876914D01*
X148873602Y-102876917D01*
X148854785Y-103079999D01*
X148854785Y-103080000D01*
X148873602Y-103283082D01*
X148929417Y-103479247D01*
X148929422Y-103479260D01*
X149020327Y-103661821D01*
X149143237Y-103824581D01*
X149293958Y-103961980D01*
X149293960Y-103961982D01*
X149365753Y-104006434D01*
X149467363Y-104069348D01*
X149657544Y-104143024D01*
X149858024Y-104180500D01*
X149858026Y-104180500D01*
X150061974Y-104180500D01*
X150061976Y-104180500D01*
X150262456Y-104143024D01*
X150452637Y-104069348D01*
X150626041Y-103961981D01*
X150776764Y-103824579D01*
X150899673Y-103661821D01*
X150990582Y-103479250D01*
X151046397Y-103283083D01*
X151065215Y-103080000D01*
X153934785Y-103080000D01*
X153953602Y-103283082D01*
X154009417Y-103479247D01*
X154009422Y-103479260D01*
X154100327Y-103661821D01*
X154223237Y-103824581D01*
X154373958Y-103961980D01*
X154373960Y-103961982D01*
X154445753Y-104006434D01*
X154547363Y-104069348D01*
X154737544Y-104143024D01*
X154938024Y-104180500D01*
X154938026Y-104180500D01*
X155141974Y-104180500D01*
X155141976Y-104180500D01*
X155342456Y-104143024D01*
X155532637Y-104069348D01*
X155706041Y-103961981D01*
X155856764Y-103824579D01*
X155979673Y-103661821D01*
X156070582Y-103479250D01*
X156126397Y-103283083D01*
X156145215Y-103080000D01*
X156126397Y-102876917D01*
X156070582Y-102680750D01*
X156063749Y-102667028D01*
X156026272Y-102591764D01*
X155979673Y-102498179D01*
X155920704Y-102420091D01*
X155856762Y-102335418D01*
X155706041Y-102198019D01*
X155706039Y-102198017D01*
X155532642Y-102090655D01*
X155532635Y-102090651D01*
X155393140Y-102036611D01*
X155342456Y-102016976D01*
X155141976Y-101979500D01*
X154938024Y-101979500D01*
X154737544Y-102016976D01*
X154737541Y-102016976D01*
X154737541Y-102016977D01*
X154547364Y-102090651D01*
X154547357Y-102090655D01*
X154373960Y-102198017D01*
X154373958Y-102198019D01*
X154223237Y-102335418D01*
X154100327Y-102498178D01*
X154009422Y-102680739D01*
X154009417Y-102680752D01*
X153953602Y-102876917D01*
X153934785Y-103079999D01*
X153934785Y-103080000D01*
X151065215Y-103080000D01*
X151046397Y-102876917D01*
X150990582Y-102680750D01*
X150983749Y-102667028D01*
X150946272Y-102591764D01*
X150899673Y-102498179D01*
X150840704Y-102420091D01*
X150776762Y-102335418D01*
X150626041Y-102198019D01*
X150626039Y-102198017D01*
X150452642Y-102090655D01*
X150452635Y-102090651D01*
X150313140Y-102036611D01*
X150262456Y-102016976D01*
X150061976Y-101979500D01*
X149858024Y-101979500D01*
X149657544Y-102016976D01*
X149657540Y-102016977D01*
X149651909Y-102018030D01*
X149651456Y-102015607D01*
X149592135Y-102015049D01*
X149533715Y-101976722D01*
X149505290Y-101912896D01*
X149515885Y-101843834D01*
X149540505Y-101808728D01*
X152226030Y-99123203D01*
X152287351Y-99089720D01*
X152336493Y-99088998D01*
X152398024Y-99100500D01*
X152398025Y-99100500D01*
X152601974Y-99100500D01*
X152601976Y-99100500D01*
X152802456Y-99063024D01*
X152992637Y-98989348D01*
X153081640Y-98934240D01*
X154459311Y-98934240D01*
X154547585Y-98988897D01*
X154737678Y-99062539D01*
X154938072Y-99100000D01*
X155141928Y-99100000D01*
X155342322Y-99062539D01*
X155532412Y-98988899D01*
X155532416Y-98988897D01*
X155620686Y-98934241D01*
X155620686Y-98934240D01*
X155040001Y-98353553D01*
X155040000Y-98353553D01*
X154459311Y-98934240D01*
X153081640Y-98934240D01*
X153166041Y-98881981D01*
X153316764Y-98744579D01*
X153439673Y-98581821D01*
X153530582Y-98399250D01*
X153586397Y-98203083D01*
X153605215Y-98000000D01*
X153935287Y-98000000D01*
X153954096Y-98202989D01*
X153954097Y-98202992D01*
X154009883Y-98399063D01*
X154009886Y-98399069D01*
X154100751Y-98581551D01*
X154102533Y-98583911D01*
X154646950Y-98039496D01*
X154740000Y-98039496D01*
X154760444Y-98115796D01*
X154799940Y-98184205D01*
X154855795Y-98240060D01*
X154924204Y-98279556D01*
X155000504Y-98300000D01*
X155079496Y-98300000D01*
X155155796Y-98279556D01*
X155224205Y-98240060D01*
X155280060Y-98184205D01*
X155319556Y-98115796D01*
X155340000Y-98039496D01*
X155340000Y-98000000D01*
X155393553Y-98000000D01*
X155977465Y-98583912D01*
X155979247Y-98581553D01*
X155979248Y-98581551D01*
X156070113Y-98399069D01*
X156070116Y-98399063D01*
X156125902Y-98202992D01*
X156125903Y-98202989D01*
X156144713Y-98000000D01*
X156144713Y-97999999D01*
X156125903Y-97797010D01*
X156125902Y-97797007D01*
X156070116Y-97600936D01*
X156070113Y-97600930D01*
X155979249Y-97418449D01*
X155979247Y-97418447D01*
X155977465Y-97416087D01*
X155393553Y-98000000D01*
X155340000Y-98000000D01*
X155340000Y-97960504D01*
X155319556Y-97884204D01*
X155280060Y-97815795D01*
X155224205Y-97759940D01*
X155155796Y-97720444D01*
X155079496Y-97700000D01*
X155000504Y-97700000D01*
X154924204Y-97720444D01*
X154855795Y-97759940D01*
X154799940Y-97815795D01*
X154760444Y-97884204D01*
X154740000Y-97960504D01*
X154740000Y-98039496D01*
X154646950Y-98039496D01*
X154686446Y-98000000D01*
X154686446Y-97999999D01*
X154102533Y-97416087D01*
X154100755Y-97418442D01*
X154100754Y-97418443D01*
X154009886Y-97600930D01*
X154009883Y-97600936D01*
X153954097Y-97797007D01*
X153954096Y-97797010D01*
X153935287Y-97999999D01*
X153935287Y-98000000D01*
X153605215Y-98000000D01*
X153594727Y-97886819D01*
X153586397Y-97796917D01*
X153558821Y-97700000D01*
X153530582Y-97600750D01*
X153439673Y-97418179D01*
X153316764Y-97255421D01*
X153316762Y-97255418D01*
X153166042Y-97118020D01*
X153166041Y-97118019D01*
X153159221Y-97113796D01*
X153116163Y-97065758D01*
X154459311Y-97065758D01*
X155040000Y-97646446D01*
X155040001Y-97646446D01*
X155620687Y-97065758D01*
X155532413Y-97011101D01*
X155532411Y-97011100D01*
X155342321Y-96937460D01*
X155141928Y-96900000D01*
X154938072Y-96900000D01*
X154737678Y-96937460D01*
X154547588Y-97011100D01*
X154547581Y-97011104D01*
X154459312Y-97065757D01*
X154459311Y-97065758D01*
X153116163Y-97065758D01*
X153112587Y-97061769D01*
X153100500Y-97008370D01*
X153100500Y-95161755D01*
X153120185Y-95094716D01*
X153172989Y-95048961D01*
X153240687Y-95038816D01*
X153325624Y-95049999D01*
X153325637Y-95050000D01*
X153425000Y-95050000D01*
X153425000Y-94674499D01*
X153444685Y-94607460D01*
X153497489Y-94561705D01*
X153548997Y-94550499D01*
X153551001Y-94550499D01*
X153618039Y-94570184D01*
X153663794Y-94622988D01*
X153675000Y-94674499D01*
X153675000Y-95050000D01*
X153774363Y-95050000D01*
X153774377Y-95049999D01*
X153884341Y-95035521D01*
X153884342Y-95035521D01*
X154007666Y-94984439D01*
X154055119Y-94975000D01*
X154250000Y-94975000D01*
X154250000Y-94246069D01*
X154259439Y-94198616D01*
X154286009Y-94134472D01*
X154300500Y-94024401D01*
X154300499Y-93825600D01*
X154286009Y-93715528D01*
X154286008Y-93715525D01*
X154283905Y-93707674D01*
X154287207Y-93706789D01*
X154281392Y-93653075D01*
X154284501Y-93642485D01*
X154283905Y-93642326D01*
X154286008Y-93634475D01*
X154286008Y-93634474D01*
X154286009Y-93634472D01*
X154299392Y-93532814D01*
X154327658Y-93468918D01*
X154385983Y-93430447D01*
X154422331Y-93425000D01*
X154577670Y-93425000D01*
X154644709Y-93444685D01*
G37*
%TD.AperFunction*%
%TA.AperFunction,Conductor*%
G36*
X148694099Y-97870185D02*
G01*
X148714741Y-97886819D01*
X148823181Y-97995259D01*
X148856666Y-98056582D01*
X148859500Y-98082940D01*
X148859500Y-98647870D01*
X148859501Y-98647876D01*
X148865908Y-98707483D01*
X148916202Y-98842328D01*
X148916206Y-98842335D01*
X149002452Y-98957544D01*
X149002455Y-98957547D01*
X149117664Y-99043793D01*
X149117671Y-99043797D01*
X149252517Y-99094091D01*
X149252516Y-99094091D01*
X149259444Y-99094835D01*
X149312127Y-99100500D01*
X150250902Y-99100499D01*
X150317941Y-99120183D01*
X150363696Y-99172987D01*
X150373640Y-99242146D01*
X150344615Y-99305702D01*
X150338583Y-99312180D01*
X147562584Y-102088181D01*
X147501261Y-102121666D01*
X147474903Y-102124500D01*
X146940004Y-102124500D01*
X146872965Y-102104815D01*
X146834465Y-102065596D01*
X146828341Y-102055668D01*
X146822968Y-102046956D01*
X146703044Y-101927032D01*
X146703040Y-101927029D01*
X146558705Y-101838001D01*
X146558699Y-101837998D01*
X146558697Y-101837997D01*
X146511103Y-101822226D01*
X146397709Y-101784651D01*
X146298346Y-101774500D01*
X145701662Y-101774500D01*
X145701644Y-101774501D01*
X145602292Y-101784650D01*
X145602289Y-101784651D01*
X145441305Y-101837996D01*
X145441294Y-101838001D01*
X145296959Y-101927029D01*
X145296955Y-101927032D01*
X145177031Y-102046956D01*
X145165535Y-102065596D01*
X145113588Y-102112321D01*
X145059996Y-102124500D01*
X144440004Y-102124500D01*
X144372965Y-102104815D01*
X144334465Y-102065596D01*
X144328341Y-102055668D01*
X144322968Y-102046956D01*
X144203044Y-101927032D01*
X144124075Y-101878323D01*
X144077354Y-101826378D01*
X144069402Y-101804886D01*
X144059577Y-101768216D01*
X144020074Y-101699794D01*
X143980524Y-101631290D01*
X143980518Y-101631282D01*
X143330700Y-100981465D01*
X143297215Y-100920142D01*
X143295163Y-100907686D01*
X143285368Y-100820745D01*
X143225789Y-100650478D01*
X143140958Y-100515471D01*
X143121959Y-100448235D01*
X143142327Y-100381400D01*
X143195594Y-100336186D01*
X143245953Y-100325500D01*
X143628587Y-100325500D01*
X143628603Y-100325501D01*
X143636199Y-100325501D01*
X143794310Y-100325501D01*
X143794313Y-100325501D01*
X143947041Y-100284577D01*
X143997160Y-100255639D01*
X144083972Y-100205520D01*
X144195776Y-100093716D01*
X144195776Y-100093714D01*
X144205984Y-100083507D01*
X144205986Y-100083504D01*
X144702945Y-99586544D01*
X144764264Y-99553062D01*
X144833955Y-99558046D01*
X144889889Y-99599917D01*
X144896161Y-99609132D01*
X144932682Y-99668343D01*
X145056654Y-99792315D01*
X145205875Y-99884356D01*
X145205880Y-99884358D01*
X145372302Y-99939505D01*
X145372309Y-99939506D01*
X145475019Y-99949999D01*
X145749999Y-99949999D01*
X145750000Y-99949998D01*
X145750000Y-99200000D01*
X146250000Y-99200000D01*
X146250000Y-99949999D01*
X146524972Y-99949999D01*
X146524986Y-99949998D01*
X146627697Y-99939505D01*
X146794119Y-99884358D01*
X146794124Y-99884356D01*
X146943345Y-99792315D01*
X147067315Y-99668345D01*
X147159356Y-99519124D01*
X147159358Y-99519119D01*
X147214505Y-99352697D01*
X147214506Y-99352690D01*
X147224999Y-99249986D01*
X147225000Y-99249973D01*
X147225000Y-99200000D01*
X146250000Y-99200000D01*
X145750000Y-99200000D01*
X145750000Y-98824000D01*
X145769685Y-98756961D01*
X145822489Y-98711206D01*
X145874000Y-98700000D01*
X147224999Y-98700000D01*
X147224999Y-98650028D01*
X147224998Y-98650013D01*
X147214505Y-98547302D01*
X147159358Y-98380880D01*
X147159356Y-98380875D01*
X147067315Y-98231654D01*
X146943344Y-98107683D01*
X146943341Y-98107681D01*
X146940339Y-98105829D01*
X146938713Y-98104021D01*
X146937677Y-98103202D01*
X146937817Y-98103024D01*
X146893617Y-98053880D01*
X146882397Y-97984917D01*
X146910243Y-97920836D01*
X146940344Y-97894754D01*
X146943656Y-97892712D01*
X146949549Y-97886819D01*
X147010872Y-97853334D01*
X147037230Y-97850500D01*
X148627060Y-97850500D01*
X148694099Y-97870185D01*
G37*
%TD.AperFunction*%
%TA.AperFunction,Conductor*%
G36*
X151193039Y-94369685D02*
G01*
X151238794Y-94422489D01*
X151250000Y-94474000D01*
X151250000Y-95499999D01*
X151331581Y-95499999D01*
X151402102Y-95493591D01*
X151402107Y-95493590D01*
X151564396Y-95443018D01*
X151711350Y-95354182D01*
X151778904Y-95336346D01*
X151845378Y-95357863D01*
X151889666Y-95411904D01*
X151899500Y-95460299D01*
X151899500Y-97008370D01*
X151879815Y-97075409D01*
X151840778Y-97113797D01*
X151833957Y-97118020D01*
X151683237Y-97255418D01*
X151560327Y-97418178D01*
X151469422Y-97600739D01*
X151469417Y-97600752D01*
X151413602Y-97796917D01*
X151394785Y-97999999D01*
X151394785Y-98000000D01*
X151411122Y-98176309D01*
X151397707Y-98244879D01*
X151375333Y-98275431D01*
X151272178Y-98378585D01*
X151210858Y-98412069D01*
X151141166Y-98407085D01*
X151085232Y-98365214D01*
X151060815Y-98299750D01*
X151060499Y-98290903D01*
X151060499Y-97352129D01*
X151060498Y-97352123D01*
X151054091Y-97292516D01*
X151003797Y-97157671D01*
X151003793Y-97157664D01*
X150917547Y-97042455D01*
X150810188Y-96962085D01*
X150768318Y-96906151D01*
X150760500Y-96862819D01*
X150760500Y-94474000D01*
X150780185Y-94406961D01*
X150832989Y-94361206D01*
X150884500Y-94350000D01*
X151126000Y-94350000D01*
X151193039Y-94369685D01*
G37*
%TD.AperFunction*%
%TA.AperFunction,Conductor*%
G36*
X143905701Y-93466735D02*
G01*
X143953441Y-93498752D01*
X143977704Y-93525000D01*
X144243185Y-93525000D01*
X144306306Y-93542268D01*
X144364602Y-93576744D01*
X144406224Y-93588836D01*
X144522426Y-93622597D01*
X144522429Y-93622597D01*
X144522431Y-93622598D01*
X144559306Y-93625500D01*
X145058658Y-93625500D01*
X146853752Y-93625500D01*
X146920791Y-93645185D01*
X146951531Y-93676497D01*
X146952807Y-93675489D01*
X146957288Y-93681156D01*
X147050951Y-93774819D01*
X147084436Y-93836142D01*
X147079452Y-93905834D01*
X147050951Y-93950181D01*
X146957289Y-94043842D01*
X146865187Y-94193163D01*
X146865185Y-94193168D01*
X146850334Y-94237986D01*
X146810001Y-94359703D01*
X146810001Y-94359704D01*
X146810000Y-94359704D01*
X146799500Y-94462483D01*
X146799500Y-95087501D01*
X146799501Y-95087519D01*
X146810000Y-95190296D01*
X146810001Y-95190299D01*
X146865185Y-95356831D01*
X146865187Y-95356836D01*
X146883181Y-95386009D01*
X146957288Y-95506156D01*
X147081344Y-95630212D01*
X147230666Y-95722314D01*
X147397203Y-95777499D01*
X147499991Y-95788000D01*
X148500008Y-95787999D01*
X148500016Y-95787998D01*
X148500019Y-95787998D01*
X148556302Y-95782248D01*
X148602797Y-95777499D01*
X148769334Y-95722314D01*
X148918656Y-95630212D01*
X148947819Y-95601049D01*
X149009142Y-95567564D01*
X149078834Y-95572548D01*
X149134767Y-95614420D01*
X149159184Y-95679884D01*
X149159500Y-95688730D01*
X149159500Y-96125500D01*
X149139815Y-96192539D01*
X149087011Y-96238294D01*
X149035500Y-96249500D01*
X147037230Y-96249500D01*
X146970191Y-96229815D01*
X146949549Y-96213181D01*
X146943657Y-96207289D01*
X146943656Y-96207288D01*
X146794334Y-96115186D01*
X146627797Y-96060001D01*
X146627795Y-96060000D01*
X146525010Y-96049500D01*
X145474998Y-96049500D01*
X145474980Y-96049501D01*
X145372203Y-96060000D01*
X145372200Y-96060001D01*
X145205668Y-96115185D01*
X145205663Y-96115187D01*
X145056342Y-96207289D01*
X144932181Y-96331451D01*
X144870858Y-96364936D01*
X144801166Y-96359952D01*
X144745233Y-96318080D01*
X144720816Y-96252616D01*
X144720500Y-96243770D01*
X144720500Y-96042597D01*
X144740185Y-95975558D01*
X144756819Y-95954916D01*
X145149916Y-95561819D01*
X145211239Y-95528334D01*
X145237597Y-95525500D01*
X145715686Y-95525500D01*
X145715694Y-95525500D01*
X145752569Y-95522598D01*
X145752571Y-95522597D01*
X145752573Y-95522597D01*
X145809162Y-95506156D01*
X145910398Y-95476744D01*
X146051865Y-95393081D01*
X146168081Y-95276865D01*
X146251744Y-95135398D01*
X146295563Y-94984575D01*
X146297597Y-94977573D01*
X146297598Y-94977567D01*
X146300499Y-94940701D01*
X146300500Y-94940694D01*
X146300500Y-94509306D01*
X146297598Y-94472431D01*
X146294710Y-94462491D01*
X146251745Y-94314606D01*
X146251745Y-94314605D01*
X146251744Y-94314603D01*
X146251744Y-94314602D01*
X146250574Y-94312624D01*
X146250130Y-94310874D01*
X146248647Y-94307446D01*
X146249200Y-94307206D01*
X146233396Y-94244901D01*
X146248753Y-94192603D01*
X146248184Y-94192357D01*
X146250182Y-94187738D01*
X146250581Y-94186382D01*
X146251281Y-94185197D01*
X146297100Y-94027486D01*
X146297295Y-94025001D01*
X146297295Y-94025000D01*
X146031815Y-94025000D01*
X145968694Y-94007732D01*
X145910396Y-93973255D01*
X145910393Y-93973254D01*
X145752573Y-93927402D01*
X145752567Y-93927401D01*
X145715701Y-93924500D01*
X145715694Y-93924500D01*
X144559306Y-93924500D01*
X144559298Y-93924500D01*
X144522432Y-93927401D01*
X144522426Y-93927402D01*
X144364606Y-93973254D01*
X144364603Y-93973255D01*
X144306306Y-94007732D01*
X144243185Y-94025000D01*
X143977704Y-94025000D01*
X143953440Y-94051248D01*
X143893479Y-94087114D01*
X143823645Y-94084869D01*
X143783987Y-94060468D01*
X143783031Y-94061702D01*
X143776862Y-94056917D01*
X143635396Y-93973255D01*
X143635393Y-93973254D01*
X143477573Y-93927402D01*
X143477567Y-93927401D01*
X143440701Y-93924500D01*
X143440694Y-93924500D01*
X143147316Y-93924500D01*
X143080277Y-93904815D01*
X143034522Y-93852011D01*
X143024578Y-93782853D01*
X143053603Y-93719297D01*
X143078425Y-93697398D01*
X143154752Y-93646398D01*
X143221430Y-93625520D01*
X143223643Y-93625500D01*
X143440686Y-93625500D01*
X143440694Y-93625500D01*
X143477569Y-93622598D01*
X143477571Y-93622597D01*
X143477573Y-93622597D01*
X143519191Y-93610505D01*
X143635398Y-93576744D01*
X143776865Y-93493081D01*
X143776870Y-93493075D01*
X143783031Y-93488298D01*
X143784339Y-93489984D01*
X143836009Y-93461761D01*
X143905701Y-93466735D01*
G37*
%TD.AperFunction*%
%TA.AperFunction,Conductor*%
G36*
X156942539Y-84020185D02*
G01*
X156988294Y-84072989D01*
X156999500Y-84124500D01*
X156999500Y-86379557D01*
X156979815Y-86446596D01*
X156927011Y-86492351D01*
X156857853Y-86502295D01*
X156794297Y-86473270D01*
X156787819Y-86467238D01*
X154958936Y-84638355D01*
X154958934Y-84638352D01*
X154840063Y-84519481D01*
X154840062Y-84519480D01*
X154753250Y-84469360D01*
X154753250Y-84469359D01*
X154753246Y-84469358D01*
X154703131Y-84440423D01*
X154550403Y-84399499D01*
X154392289Y-84399499D01*
X154384693Y-84399499D01*
X154384677Y-84399500D01*
X152861670Y-84399500D01*
X152861654Y-84399499D01*
X152854058Y-84399499D01*
X152695943Y-84399499D01*
X152619579Y-84419961D01*
X152543214Y-84440423D01*
X152543209Y-84440426D01*
X152406290Y-84519475D01*
X152406282Y-84519481D01*
X152023529Y-84902233D01*
X151962206Y-84935718D01*
X151903755Y-84934327D01*
X151775413Y-84899938D01*
X151775403Y-84899936D01*
X151540001Y-84879341D01*
X151539999Y-84879341D01*
X151304596Y-84899936D01*
X151304586Y-84899938D01*
X151076344Y-84961094D01*
X151076335Y-84961098D01*
X150862171Y-85060964D01*
X150862169Y-85060965D01*
X150668597Y-85196505D01*
X150501508Y-85363594D01*
X150371269Y-85549595D01*
X150316692Y-85593219D01*
X150247193Y-85600412D01*
X150184839Y-85568890D01*
X150168119Y-85549594D01*
X150038113Y-85363926D01*
X150038108Y-85363920D01*
X149871082Y-85196894D01*
X149677578Y-85061399D01*
X149463492Y-84961570D01*
X149463486Y-84961567D01*
X149250000Y-84904364D01*
X149250000Y-85801988D01*
X149192993Y-85769075D01*
X149065826Y-85735000D01*
X148934174Y-85735000D01*
X148807007Y-85769075D01*
X148750000Y-85801988D01*
X148750000Y-84904364D01*
X148749999Y-84904364D01*
X148536513Y-84961567D01*
X148536507Y-84961570D01*
X148322422Y-85061399D01*
X148322420Y-85061400D01*
X148128919Y-85196891D01*
X148100873Y-85224936D01*
X148039549Y-85258419D01*
X147969858Y-85253432D01*
X147925516Y-85224934D01*
X147423935Y-84723354D01*
X147423934Y-84723352D01*
X147305063Y-84604481D01*
X147305062Y-84604480D01*
X147218250Y-84554360D01*
X147218250Y-84554359D01*
X147218246Y-84554358D01*
X147168131Y-84525423D01*
X147015403Y-84484499D01*
X146857289Y-84484499D01*
X146849693Y-84484499D01*
X146849677Y-84484500D01*
X145156670Y-84484500D01*
X145156654Y-84484499D01*
X145149058Y-84484499D01*
X144990943Y-84484499D01*
X144914579Y-84504961D01*
X144838214Y-84525423D01*
X144838209Y-84525426D01*
X144701290Y-84604475D01*
X144701286Y-84604478D01*
X144403529Y-84902234D01*
X144342206Y-84935718D01*
X144283755Y-84934327D01*
X144155413Y-84899938D01*
X144155403Y-84899936D01*
X143920001Y-84879341D01*
X143919999Y-84879341D01*
X143684596Y-84899936D01*
X143684586Y-84899938D01*
X143456344Y-84961094D01*
X143456335Y-84961098D01*
X143242171Y-85060964D01*
X143242169Y-85060965D01*
X143048597Y-85196505D01*
X142881505Y-85363597D01*
X142751575Y-85549158D01*
X142696998Y-85592783D01*
X142627500Y-85599977D01*
X142565145Y-85568454D01*
X142548425Y-85549158D01*
X142418494Y-85363597D01*
X142251402Y-85196506D01*
X142251395Y-85196501D01*
X142057834Y-85060967D01*
X142057830Y-85060965D01*
X142057828Y-85060964D01*
X141843663Y-84961097D01*
X141843659Y-84961096D01*
X141843655Y-84961094D01*
X141615413Y-84899938D01*
X141615403Y-84899936D01*
X141380001Y-84879341D01*
X141379999Y-84879341D01*
X141144596Y-84899936D01*
X141144586Y-84899938D01*
X140916344Y-84961094D01*
X140916335Y-84961098D01*
X140702171Y-85060964D01*
X140702169Y-85060965D01*
X140508597Y-85196505D01*
X140341505Y-85363597D01*
X140211575Y-85549158D01*
X140156998Y-85592783D01*
X140087500Y-85599977D01*
X140025145Y-85568454D01*
X140008425Y-85549158D01*
X139878494Y-85363597D01*
X139711402Y-85196506D01*
X139711395Y-85196501D01*
X139517834Y-85060967D01*
X139517830Y-85060965D01*
X139517828Y-85060964D01*
X139303663Y-84961097D01*
X139303659Y-84961096D01*
X139303655Y-84961094D01*
X139075413Y-84899938D01*
X139075403Y-84899936D01*
X138840001Y-84879341D01*
X138839999Y-84879341D01*
X138604596Y-84899936D01*
X138604586Y-84899938D01*
X138376344Y-84961094D01*
X138376335Y-84961098D01*
X138162171Y-85060964D01*
X138162169Y-85060965D01*
X137968597Y-85196505D01*
X137801505Y-85363597D01*
X137671575Y-85549158D01*
X137616998Y-85592783D01*
X137547500Y-85599977D01*
X137485145Y-85568454D01*
X137468425Y-85549158D01*
X137338494Y-85363597D01*
X137171402Y-85196506D01*
X137171395Y-85196501D01*
X136977834Y-85060967D01*
X136977830Y-85060965D01*
X136977828Y-85060964D01*
X136763663Y-84961097D01*
X136763659Y-84961096D01*
X136763655Y-84961094D01*
X136535413Y-84899938D01*
X136535403Y-84899936D01*
X136300001Y-84879341D01*
X136299999Y-84879341D01*
X136064596Y-84899936D01*
X136064586Y-84899938D01*
X135836344Y-84961094D01*
X135836335Y-84961098D01*
X135622171Y-85060964D01*
X135622169Y-85060965D01*
X135428597Y-85196505D01*
X135261505Y-85363597D01*
X135125965Y-85557169D01*
X135125964Y-85557171D01*
X135026098Y-85771335D01*
X135026094Y-85771344D01*
X134964938Y-85999586D01*
X134964936Y-85999596D01*
X134944341Y-86234999D01*
X134944341Y-86235000D01*
X134964936Y-86470403D01*
X134964938Y-86470413D01*
X134999327Y-86598756D01*
X134997664Y-86668606D01*
X134967233Y-86718530D01*
X133331286Y-88354478D01*
X133213733Y-88472031D01*
X133211714Y-88470012D01*
X133166431Y-88503067D01*
X133096684Y-88507212D01*
X133035769Y-88472991D01*
X133003025Y-88411269D01*
X133000500Y-88386372D01*
X133000500Y-84124500D01*
X133020185Y-84057461D01*
X133072989Y-84011706D01*
X133124500Y-84000500D01*
X156875500Y-84000500D01*
X156942539Y-84020185D01*
G37*
%TD.AperFunction*%
%TA.AperFunction,Conductor*%
G36*
X149250000Y-88341988D02*
G01*
X149192993Y-88309075D01*
X149065826Y-88275000D01*
X148934174Y-88275000D01*
X148807007Y-88309075D01*
X148750000Y-88341988D01*
X148750000Y-86668012D01*
X148807007Y-86700925D01*
X148934174Y-86735000D01*
X149065826Y-86735000D01*
X149192993Y-86700925D01*
X149250000Y-86668012D01*
X149250000Y-88341988D01*
G37*
%TD.AperFunction*%
%TD*%
M02*
