M48
; DRILL file {KiCad 8.0.1} date 2024-03-24T19:04:36+0200
; FORMAT={-:-/ absolute / inch / decimal}
; #@! TF.CreationDate,2024-03-24T19:04:36+02:00
; #@! TF.GenerationSoftware,Kicad,Pcbnew,8.0.1
; #@! TF.FileFunction,Plated,1,2,PTH
FMAT,2
INCH
; #@! TA.AperFunction,Plated,PTH,ViaDrill
T1C0.0118
; #@! TA.AperFunction,Plated,PTH,ComponentDrill
T2C0.0236
; #@! TA.AperFunction,Plated,PTH,ComponentDrill
T3C0.0295
; #@! TA.AperFunction,Plated,PTH,ComponentDrill
T4C0.0394
%
G90
G05
T1
X5.3543Y-3.7008
X5.4331Y-3.6417
X5.6102Y-3.9764
X5.6496Y-3.8706
X5.6496Y-3.9764
X5.7677Y-3.7598
X5.8667Y-3.7065
X5.9055Y-3.3268
X5.9112Y-3.662
X5.9646Y-3.7992
X6.0029Y-3.7018
X6.0472Y-3.622
X6.1024Y-3.7795
T2
X5.9039Y-3.8583
X5.9039Y-4.0583
X6.0039Y-3.8583
X6.1039Y-3.8583
X6.1039Y-4.0583
T3
X5.3937Y-4.0551
X5.4724Y-4.0551
T4
X5.3661Y-3.3951
X5.3661Y-3.4951
X5.4661Y-3.3951
X5.4661Y-3.4951
X5.5661Y-3.3951
X5.5661Y-3.4951
X5.6661Y-3.3951
X5.6661Y-3.4951
X5.7661Y-3.3951
X5.7661Y-3.4951
X5.8661Y-3.3951
X5.8661Y-3.4951
X5.9661Y-3.3951
X5.9661Y-3.4951
X6.0661Y-3.3951
X6.0661Y-3.4951
M30
