%TF.GenerationSoftware,KiCad,Pcbnew,8.0.1*%
%TF.CreationDate,2024-03-24T19:04:35+02:00*%
%TF.ProjectId,PowerKiCad-CLRMAT005,506f7765-724b-4694-9361-642d434c524d,rev?*%
%TF.SameCoordinates,Original*%
%TF.FileFunction,Legend,Top*%
%TF.FilePolarity,Positive*%
%FSLAX46Y46*%
G04 Gerber Fmt 4.6, Leading zero omitted, Abs format (unit mm)*
G04 Created by KiCad (PCBNEW 8.0.1) date 2024-03-24 19:04:35*
%MOMM*%
%LPD*%
G01*
G04 APERTURE LIST*
G04 Aperture macros list*
%AMRoundRect*
0 Rectangle with rounded corners*
0 $1 Rounding radius*
0 $2 $3 $4 $5 $6 $7 $8 $9 X,Y pos of 4 corners*
0 Add a 4 corners polygon primitive as box body*
4,1,4,$2,$3,$4,$5,$6,$7,$8,$9,$2,$3,0*
0 Add four circle primitives for the rounded corners*
1,1,$1+$1,$2,$3*
1,1,$1+$1,$4,$5*
1,1,$1+$1,$6,$7*
1,1,$1+$1,$8,$9*
0 Add four rect primitives between the rounded corners*
20,1,$1+$1,$2,$3,$4,$5,0*
20,1,$1+$1,$4,$5,$6,$7,0*
20,1,$1+$1,$6,$7,$8,$9,0*
20,1,$1+$1,$8,$9,$2,$3,0*%
G04 Aperture macros list end*
%ADD10C,0.100000*%
%ADD11C,0.150000*%
%ADD12C,0.120000*%
%ADD13RoundRect,0.062500X-0.187500X-0.062500X0.187500X-0.062500X0.187500X0.062500X-0.187500X0.062500X0*%
%ADD14R,0.900000X1.600000*%
%ADD15C,1.200000*%
%ADD16R,1.200000X1.200000*%
%ADD17RoundRect,0.225000X-0.250000X0.225000X-0.250000X-0.225000X0.250000X-0.225000X0.250000X0.225000X0*%
%ADD18RoundRect,0.250000X-0.475000X0.250000X-0.475000X-0.250000X0.475000X-0.250000X0.475000X0.250000X0*%
%ADD19RoundRect,0.218750X0.256250X-0.218750X0.256250X0.218750X-0.256250X0.218750X-0.256250X-0.218750X0*%
%ADD20RoundRect,0.150000X0.512500X0.150000X-0.512500X0.150000X-0.512500X-0.150000X0.512500X-0.150000X0*%
%ADD21RoundRect,0.250000X0.450000X-0.262500X0.450000X0.262500X-0.450000X0.262500X-0.450000X-0.262500X0*%
%ADD22R,1.700000X1.700000*%
%ADD23O,1.700000X1.700000*%
%ADD24RoundRect,0.250000X-0.450000X0.262500X-0.450000X-0.262500X0.450000X-0.262500X0.450000X0.262500X0*%
%ADD25RoundRect,0.135000X-0.185000X0.135000X-0.185000X-0.135000X0.185000X-0.135000X0.185000X0.135000X0*%
%ADD26RoundRect,0.200000X-0.275000X0.200000X-0.275000X-0.200000X0.275000X-0.200000X0.275000X0.200000X0*%
%ADD27RoundRect,0.250000X-0.350000X-0.625000X0.350000X-0.625000X0.350000X0.625000X-0.350000X0.625000X0*%
%ADD28O,1.200000X1.750000*%
G04 APERTURE END LIST*
D10*
X135375312Y-107777180D02*
X135327693Y-107824800D01*
X135327693Y-107824800D02*
X135184836Y-107872419D01*
X135184836Y-107872419D02*
X135089598Y-107872419D01*
X135089598Y-107872419D02*
X134946741Y-107824800D01*
X134946741Y-107824800D02*
X134851503Y-107729561D01*
X134851503Y-107729561D02*
X134803884Y-107634323D01*
X134803884Y-107634323D02*
X134756265Y-107443847D01*
X134756265Y-107443847D02*
X134756265Y-107300990D01*
X134756265Y-107300990D02*
X134803884Y-107110514D01*
X134803884Y-107110514D02*
X134851503Y-107015276D01*
X134851503Y-107015276D02*
X134946741Y-106920038D01*
X134946741Y-106920038D02*
X135089598Y-106872419D01*
X135089598Y-106872419D02*
X135184836Y-106872419D01*
X135184836Y-106872419D02*
X135327693Y-106920038D01*
X135327693Y-106920038D02*
X135375312Y-106967657D01*
X136280074Y-107872419D02*
X135803884Y-107872419D01*
X135803884Y-107872419D02*
X135803884Y-106872419D01*
X137184836Y-107872419D02*
X136851503Y-107396228D01*
X136613408Y-107872419D02*
X136613408Y-106872419D01*
X136613408Y-106872419D02*
X136994360Y-106872419D01*
X136994360Y-106872419D02*
X137089598Y-106920038D01*
X137089598Y-106920038D02*
X137137217Y-106967657D01*
X137137217Y-106967657D02*
X137184836Y-107062895D01*
X137184836Y-107062895D02*
X137184836Y-107205752D01*
X137184836Y-107205752D02*
X137137217Y-107300990D01*
X137137217Y-107300990D02*
X137089598Y-107348609D01*
X137089598Y-107348609D02*
X136994360Y-107396228D01*
X136994360Y-107396228D02*
X136613408Y-107396228D01*
X137613408Y-107872419D02*
X137613408Y-106872419D01*
X137613408Y-106872419D02*
X137946741Y-107586704D01*
X137946741Y-107586704D02*
X138280074Y-106872419D01*
X138280074Y-106872419D02*
X138280074Y-107872419D01*
X138708646Y-107586704D02*
X139184836Y-107586704D01*
X138613408Y-107872419D02*
X138946741Y-106872419D01*
X138946741Y-106872419D02*
X139280074Y-107872419D01*
X139470551Y-106872419D02*
X140041979Y-106872419D01*
X139756265Y-107872419D02*
X139756265Y-106872419D01*
X140565789Y-106872419D02*
X140661027Y-106872419D01*
X140661027Y-106872419D02*
X140756265Y-106920038D01*
X140756265Y-106920038D02*
X140803884Y-106967657D01*
X140803884Y-106967657D02*
X140851503Y-107062895D01*
X140851503Y-107062895D02*
X140899122Y-107253371D01*
X140899122Y-107253371D02*
X140899122Y-107491466D01*
X140899122Y-107491466D02*
X140851503Y-107681942D01*
X140851503Y-107681942D02*
X140803884Y-107777180D01*
X140803884Y-107777180D02*
X140756265Y-107824800D01*
X140756265Y-107824800D02*
X140661027Y-107872419D01*
X140661027Y-107872419D02*
X140565789Y-107872419D01*
X140565789Y-107872419D02*
X140470551Y-107824800D01*
X140470551Y-107824800D02*
X140422932Y-107777180D01*
X140422932Y-107777180D02*
X140375313Y-107681942D01*
X140375313Y-107681942D02*
X140327694Y-107491466D01*
X140327694Y-107491466D02*
X140327694Y-107253371D01*
X140327694Y-107253371D02*
X140375313Y-107062895D01*
X140375313Y-107062895D02*
X140422932Y-106967657D01*
X140422932Y-106967657D02*
X140470551Y-106920038D01*
X140470551Y-106920038D02*
X140565789Y-106872419D01*
X141518170Y-106872419D02*
X141613408Y-106872419D01*
X141613408Y-106872419D02*
X141708646Y-106920038D01*
X141708646Y-106920038D02*
X141756265Y-106967657D01*
X141756265Y-106967657D02*
X141803884Y-107062895D01*
X141803884Y-107062895D02*
X141851503Y-107253371D01*
X141851503Y-107253371D02*
X141851503Y-107491466D01*
X141851503Y-107491466D02*
X141803884Y-107681942D01*
X141803884Y-107681942D02*
X141756265Y-107777180D01*
X141756265Y-107777180D02*
X141708646Y-107824800D01*
X141708646Y-107824800D02*
X141613408Y-107872419D01*
X141613408Y-107872419D02*
X141518170Y-107872419D01*
X141518170Y-107872419D02*
X141422932Y-107824800D01*
X141422932Y-107824800D02*
X141375313Y-107777180D01*
X141375313Y-107777180D02*
X141327694Y-107681942D01*
X141327694Y-107681942D02*
X141280075Y-107491466D01*
X141280075Y-107491466D02*
X141280075Y-107253371D01*
X141280075Y-107253371D02*
X141327694Y-107062895D01*
X141327694Y-107062895D02*
X141375313Y-106967657D01*
X141375313Y-106967657D02*
X141422932Y-106920038D01*
X141422932Y-106920038D02*
X141518170Y-106872419D01*
X142756265Y-106872419D02*
X142280075Y-106872419D01*
X142280075Y-106872419D02*
X142232456Y-107348609D01*
X142232456Y-107348609D02*
X142280075Y-107300990D01*
X142280075Y-107300990D02*
X142375313Y-107253371D01*
X142375313Y-107253371D02*
X142613408Y-107253371D01*
X142613408Y-107253371D02*
X142708646Y-107300990D01*
X142708646Y-107300990D02*
X142756265Y-107348609D01*
X142756265Y-107348609D02*
X142803884Y-107443847D01*
X142803884Y-107443847D02*
X142803884Y-107681942D01*
X142803884Y-107681942D02*
X142756265Y-107777180D01*
X142756265Y-107777180D02*
X142708646Y-107824800D01*
X142708646Y-107824800D02*
X142613408Y-107872419D01*
X142613408Y-107872419D02*
X142375313Y-107872419D01*
X142375313Y-107872419D02*
X142280075Y-107824800D01*
X142280075Y-107824800D02*
X142232456Y-107777180D01*
D11*
X154118095Y-91229819D02*
X154118095Y-92039342D01*
X154118095Y-92039342D02*
X154165714Y-92134580D01*
X154165714Y-92134580D02*
X154213333Y-92182200D01*
X154213333Y-92182200D02*
X154308571Y-92229819D01*
X154308571Y-92229819D02*
X154499047Y-92229819D01*
X154499047Y-92229819D02*
X154594285Y-92182200D01*
X154594285Y-92182200D02*
X154641904Y-92134580D01*
X154641904Y-92134580D02*
X154689523Y-92039342D01*
X154689523Y-92039342D02*
X154689523Y-91229819D01*
X155118095Y-91325057D02*
X155165714Y-91277438D01*
X155165714Y-91277438D02*
X155260952Y-91229819D01*
X155260952Y-91229819D02*
X155499047Y-91229819D01*
X155499047Y-91229819D02*
X155594285Y-91277438D01*
X155594285Y-91277438D02*
X155641904Y-91325057D01*
X155641904Y-91325057D02*
X155689523Y-91420295D01*
X155689523Y-91420295D02*
X155689523Y-91515533D01*
X155689523Y-91515533D02*
X155641904Y-91658390D01*
X155641904Y-91658390D02*
X155070476Y-92229819D01*
X155070476Y-92229819D02*
X155689523Y-92229819D01*
X151166667Y-96807200D02*
X151309524Y-96854819D01*
X151309524Y-96854819D02*
X151547619Y-96854819D01*
X151547619Y-96854819D02*
X151642857Y-96807200D01*
X151642857Y-96807200D02*
X151690476Y-96759580D01*
X151690476Y-96759580D02*
X151738095Y-96664342D01*
X151738095Y-96664342D02*
X151738095Y-96569104D01*
X151738095Y-96569104D02*
X151690476Y-96473866D01*
X151690476Y-96473866D02*
X151642857Y-96426247D01*
X151642857Y-96426247D02*
X151547619Y-96378628D01*
X151547619Y-96378628D02*
X151357143Y-96331009D01*
X151357143Y-96331009D02*
X151261905Y-96283390D01*
X151261905Y-96283390D02*
X151214286Y-96235771D01*
X151214286Y-96235771D02*
X151166667Y-96140533D01*
X151166667Y-96140533D02*
X151166667Y-96045295D01*
X151166667Y-96045295D02*
X151214286Y-95950057D01*
X151214286Y-95950057D02*
X151261905Y-95902438D01*
X151261905Y-95902438D02*
X151357143Y-95854819D01*
X151357143Y-95854819D02*
X151595238Y-95854819D01*
X151595238Y-95854819D02*
X151738095Y-95902438D01*
X152071429Y-95854819D02*
X152309524Y-96854819D01*
X152309524Y-96854819D02*
X152500000Y-96140533D01*
X152500000Y-96140533D02*
X152690476Y-96854819D01*
X152690476Y-96854819D02*
X152928572Y-95854819D01*
X153833333Y-96854819D02*
X153261905Y-96854819D01*
X153547619Y-96854819D02*
X153547619Y-95854819D01*
X153547619Y-95854819D02*
X153452381Y-95997676D01*
X153452381Y-95997676D02*
X153357143Y-96092914D01*
X153357143Y-96092914D02*
X153261905Y-96140533D01*
X145833333Y-106359580D02*
X145785714Y-106407200D01*
X145785714Y-106407200D02*
X145642857Y-106454819D01*
X145642857Y-106454819D02*
X145547619Y-106454819D01*
X145547619Y-106454819D02*
X145404762Y-106407200D01*
X145404762Y-106407200D02*
X145309524Y-106311961D01*
X145309524Y-106311961D02*
X145261905Y-106216723D01*
X145261905Y-106216723D02*
X145214286Y-106026247D01*
X145214286Y-106026247D02*
X145214286Y-105883390D01*
X145214286Y-105883390D02*
X145261905Y-105692914D01*
X145261905Y-105692914D02*
X145309524Y-105597676D01*
X145309524Y-105597676D02*
X145404762Y-105502438D01*
X145404762Y-105502438D02*
X145547619Y-105454819D01*
X145547619Y-105454819D02*
X145642857Y-105454819D01*
X145642857Y-105454819D02*
X145785714Y-105502438D01*
X145785714Y-105502438D02*
X145833333Y-105550057D01*
X146785714Y-106454819D02*
X146214286Y-106454819D01*
X146500000Y-106454819D02*
X146500000Y-105454819D01*
X146500000Y-105454819D02*
X146404762Y-105597676D01*
X146404762Y-105597676D02*
X146309524Y-105692914D01*
X146309524Y-105692914D02*
X146214286Y-105740533D01*
X137833333Y-100859580D02*
X137785714Y-100907200D01*
X137785714Y-100907200D02*
X137642857Y-100954819D01*
X137642857Y-100954819D02*
X137547619Y-100954819D01*
X137547619Y-100954819D02*
X137404762Y-100907200D01*
X137404762Y-100907200D02*
X137309524Y-100811961D01*
X137309524Y-100811961D02*
X137261905Y-100716723D01*
X137261905Y-100716723D02*
X137214286Y-100526247D01*
X137214286Y-100526247D02*
X137214286Y-100383390D01*
X137214286Y-100383390D02*
X137261905Y-100192914D01*
X137261905Y-100192914D02*
X137309524Y-100097676D01*
X137309524Y-100097676D02*
X137404762Y-100002438D01*
X137404762Y-100002438D02*
X137547619Y-99954819D01*
X137547619Y-99954819D02*
X137642857Y-99954819D01*
X137642857Y-99954819D02*
X137785714Y-100002438D01*
X137785714Y-100002438D02*
X137833333Y-100050057D01*
X138166667Y-99954819D02*
X138785714Y-99954819D01*
X138785714Y-99954819D02*
X138452381Y-100335771D01*
X138452381Y-100335771D02*
X138595238Y-100335771D01*
X138595238Y-100335771D02*
X138690476Y-100383390D01*
X138690476Y-100383390D02*
X138738095Y-100431009D01*
X138738095Y-100431009D02*
X138785714Y-100526247D01*
X138785714Y-100526247D02*
X138785714Y-100764342D01*
X138785714Y-100764342D02*
X138738095Y-100859580D01*
X138738095Y-100859580D02*
X138690476Y-100907200D01*
X138690476Y-100907200D02*
X138595238Y-100954819D01*
X138595238Y-100954819D02*
X138309524Y-100954819D01*
X138309524Y-100954819D02*
X138214286Y-100907200D01*
X138214286Y-100907200D02*
X138166667Y-100859580D01*
X139261905Y-92229819D02*
X139261905Y-91229819D01*
X139261905Y-91229819D02*
X139500000Y-91229819D01*
X139500000Y-91229819D02*
X139642857Y-91277438D01*
X139642857Y-91277438D02*
X139738095Y-91372676D01*
X139738095Y-91372676D02*
X139785714Y-91467914D01*
X139785714Y-91467914D02*
X139833333Y-91658390D01*
X139833333Y-91658390D02*
X139833333Y-91801247D01*
X139833333Y-91801247D02*
X139785714Y-91991723D01*
X139785714Y-91991723D02*
X139738095Y-92086961D01*
X139738095Y-92086961D02*
X139642857Y-92182200D01*
X139642857Y-92182200D02*
X139500000Y-92229819D01*
X139500000Y-92229819D02*
X139261905Y-92229819D01*
X140785714Y-92229819D02*
X140214286Y-92229819D01*
X140500000Y-92229819D02*
X140500000Y-91229819D01*
X140500000Y-91229819D02*
X140404762Y-91372676D01*
X140404762Y-91372676D02*
X140309524Y-91467914D01*
X140309524Y-91467914D02*
X140214286Y-91515533D01*
X143238095Y-90729819D02*
X143238095Y-91539342D01*
X143238095Y-91539342D02*
X143285714Y-91634580D01*
X143285714Y-91634580D02*
X143333333Y-91682200D01*
X143333333Y-91682200D02*
X143428571Y-91729819D01*
X143428571Y-91729819D02*
X143619047Y-91729819D01*
X143619047Y-91729819D02*
X143714285Y-91682200D01*
X143714285Y-91682200D02*
X143761904Y-91634580D01*
X143761904Y-91634580D02*
X143809523Y-91539342D01*
X143809523Y-91539342D02*
X143809523Y-90729819D01*
X144190476Y-90729819D02*
X144809523Y-90729819D01*
X144809523Y-90729819D02*
X144476190Y-91110771D01*
X144476190Y-91110771D02*
X144619047Y-91110771D01*
X144619047Y-91110771D02*
X144714285Y-91158390D01*
X144714285Y-91158390D02*
X144761904Y-91206009D01*
X144761904Y-91206009D02*
X144809523Y-91301247D01*
X144809523Y-91301247D02*
X144809523Y-91539342D01*
X144809523Y-91539342D02*
X144761904Y-91634580D01*
X144761904Y-91634580D02*
X144714285Y-91682200D01*
X144714285Y-91682200D02*
X144619047Y-91729819D01*
X144619047Y-91729819D02*
X144333333Y-91729819D01*
X144333333Y-91729819D02*
X144238095Y-91682200D01*
X144238095Y-91682200D02*
X144190476Y-91634580D01*
X140333333Y-100954819D02*
X140000000Y-100478628D01*
X139761905Y-100954819D02*
X139761905Y-99954819D01*
X139761905Y-99954819D02*
X140142857Y-99954819D01*
X140142857Y-99954819D02*
X140238095Y-100002438D01*
X140238095Y-100002438D02*
X140285714Y-100050057D01*
X140285714Y-100050057D02*
X140333333Y-100145295D01*
X140333333Y-100145295D02*
X140333333Y-100288152D01*
X140333333Y-100288152D02*
X140285714Y-100383390D01*
X140285714Y-100383390D02*
X140238095Y-100431009D01*
X140238095Y-100431009D02*
X140142857Y-100478628D01*
X140142857Y-100478628D02*
X139761905Y-100478628D01*
X140714286Y-100050057D02*
X140761905Y-100002438D01*
X140761905Y-100002438D02*
X140857143Y-99954819D01*
X140857143Y-99954819D02*
X141095238Y-99954819D01*
X141095238Y-99954819D02*
X141190476Y-100002438D01*
X141190476Y-100002438D02*
X141238095Y-100050057D01*
X141238095Y-100050057D02*
X141285714Y-100145295D01*
X141285714Y-100145295D02*
X141285714Y-100240533D01*
X141285714Y-100240533D02*
X141238095Y-100383390D01*
X141238095Y-100383390D02*
X140666667Y-100954819D01*
X140666667Y-100954819D02*
X141285714Y-100954819D01*
X145833333Y-100859580D02*
X145785714Y-100907200D01*
X145785714Y-100907200D02*
X145642857Y-100954819D01*
X145642857Y-100954819D02*
X145547619Y-100954819D01*
X145547619Y-100954819D02*
X145404762Y-100907200D01*
X145404762Y-100907200D02*
X145309524Y-100811961D01*
X145309524Y-100811961D02*
X145261905Y-100716723D01*
X145261905Y-100716723D02*
X145214286Y-100526247D01*
X145214286Y-100526247D02*
X145214286Y-100383390D01*
X145214286Y-100383390D02*
X145261905Y-100192914D01*
X145261905Y-100192914D02*
X145309524Y-100097676D01*
X145309524Y-100097676D02*
X145404762Y-100002438D01*
X145404762Y-100002438D02*
X145547619Y-99954819D01*
X145547619Y-99954819D02*
X145642857Y-99954819D01*
X145642857Y-99954819D02*
X145785714Y-100002438D01*
X145785714Y-100002438D02*
X145833333Y-100050057D01*
X146690476Y-100288152D02*
X146690476Y-100954819D01*
X146452381Y-99907200D02*
X146214286Y-100621485D01*
X146214286Y-100621485D02*
X146833333Y-100621485D01*
X156304819Y-87838333D02*
X157019104Y-87838333D01*
X157019104Y-87838333D02*
X157161961Y-87885952D01*
X157161961Y-87885952D02*
X157257200Y-87981190D01*
X157257200Y-87981190D02*
X157304819Y-88124047D01*
X157304819Y-88124047D02*
X157304819Y-88219285D01*
X157304819Y-86838333D02*
X157304819Y-87409761D01*
X157304819Y-87124047D02*
X156304819Y-87124047D01*
X156304819Y-87124047D02*
X156447676Y-87219285D01*
X156447676Y-87219285D02*
X156542914Y-87314523D01*
X156542914Y-87314523D02*
X156590533Y-87409761D01*
X147833333Y-91817319D02*
X147500000Y-91341128D01*
X147261905Y-91817319D02*
X147261905Y-90817319D01*
X147261905Y-90817319D02*
X147642857Y-90817319D01*
X147642857Y-90817319D02*
X147738095Y-90864938D01*
X147738095Y-90864938D02*
X147785714Y-90912557D01*
X147785714Y-90912557D02*
X147833333Y-91007795D01*
X147833333Y-91007795D02*
X147833333Y-91150652D01*
X147833333Y-91150652D02*
X147785714Y-91245890D01*
X147785714Y-91245890D02*
X147738095Y-91293509D01*
X147738095Y-91293509D02*
X147642857Y-91341128D01*
X147642857Y-91341128D02*
X147261905Y-91341128D01*
X148166667Y-90817319D02*
X148785714Y-90817319D01*
X148785714Y-90817319D02*
X148452381Y-91198271D01*
X148452381Y-91198271D02*
X148595238Y-91198271D01*
X148595238Y-91198271D02*
X148690476Y-91245890D01*
X148690476Y-91245890D02*
X148738095Y-91293509D01*
X148738095Y-91293509D02*
X148785714Y-91388747D01*
X148785714Y-91388747D02*
X148785714Y-91626842D01*
X148785714Y-91626842D02*
X148738095Y-91722080D01*
X148738095Y-91722080D02*
X148690476Y-91769700D01*
X148690476Y-91769700D02*
X148595238Y-91817319D01*
X148595238Y-91817319D02*
X148309524Y-91817319D01*
X148309524Y-91817319D02*
X148214286Y-91769700D01*
X148214286Y-91769700D02*
X148166667Y-91722080D01*
X143333333Y-99729819D02*
X143000000Y-99253628D01*
X142761905Y-99729819D02*
X142761905Y-98729819D01*
X142761905Y-98729819D02*
X143142857Y-98729819D01*
X143142857Y-98729819D02*
X143238095Y-98777438D01*
X143238095Y-98777438D02*
X143285714Y-98825057D01*
X143285714Y-98825057D02*
X143333333Y-98920295D01*
X143333333Y-98920295D02*
X143333333Y-99063152D01*
X143333333Y-99063152D02*
X143285714Y-99158390D01*
X143285714Y-99158390D02*
X143238095Y-99206009D01*
X143238095Y-99206009D02*
X143142857Y-99253628D01*
X143142857Y-99253628D02*
X142761905Y-99253628D01*
X144285714Y-99729819D02*
X143714286Y-99729819D01*
X144000000Y-99729819D02*
X144000000Y-98729819D01*
X144000000Y-98729819D02*
X143904762Y-98872676D01*
X143904762Y-98872676D02*
X143809524Y-98967914D01*
X143809524Y-98967914D02*
X143714286Y-99015533D01*
X135618095Y-91579819D02*
X135618095Y-92389342D01*
X135618095Y-92389342D02*
X135665714Y-92484580D01*
X135665714Y-92484580D02*
X135713333Y-92532200D01*
X135713333Y-92532200D02*
X135808571Y-92579819D01*
X135808571Y-92579819D02*
X135999047Y-92579819D01*
X135999047Y-92579819D02*
X136094285Y-92532200D01*
X136094285Y-92532200D02*
X136141904Y-92484580D01*
X136141904Y-92484580D02*
X136189523Y-92389342D01*
X136189523Y-92389342D02*
X136189523Y-91579819D01*
X137189523Y-92579819D02*
X136618095Y-92579819D01*
X136903809Y-92579819D02*
X136903809Y-91579819D01*
X136903809Y-91579819D02*
X136808571Y-91722676D01*
X136808571Y-91722676D02*
X136713333Y-91817914D01*
X136713333Y-91817914D02*
X136618095Y-91865533D01*
X150833333Y-91904819D02*
X150500000Y-91428628D01*
X150261905Y-91904819D02*
X150261905Y-90904819D01*
X150261905Y-90904819D02*
X150642857Y-90904819D01*
X150642857Y-90904819D02*
X150738095Y-90952438D01*
X150738095Y-90952438D02*
X150785714Y-91000057D01*
X150785714Y-91000057D02*
X150833333Y-91095295D01*
X150833333Y-91095295D02*
X150833333Y-91238152D01*
X150833333Y-91238152D02*
X150785714Y-91333390D01*
X150785714Y-91333390D02*
X150738095Y-91381009D01*
X150738095Y-91381009D02*
X150642857Y-91428628D01*
X150642857Y-91428628D02*
X150261905Y-91428628D01*
X151690476Y-91238152D02*
X151690476Y-91904819D01*
X151452381Y-90857200D02*
X151214286Y-91571485D01*
X151214286Y-91571485D02*
X151833333Y-91571485D01*
X143333333Y-106359580D02*
X143285714Y-106407200D01*
X143285714Y-106407200D02*
X143142857Y-106454819D01*
X143142857Y-106454819D02*
X143047619Y-106454819D01*
X143047619Y-106454819D02*
X142904762Y-106407200D01*
X142904762Y-106407200D02*
X142809524Y-106311961D01*
X142809524Y-106311961D02*
X142761905Y-106216723D01*
X142761905Y-106216723D02*
X142714286Y-106026247D01*
X142714286Y-106026247D02*
X142714286Y-105883390D01*
X142714286Y-105883390D02*
X142761905Y-105692914D01*
X142761905Y-105692914D02*
X142809524Y-105597676D01*
X142809524Y-105597676D02*
X142904762Y-105502438D01*
X142904762Y-105502438D02*
X143047619Y-105454819D01*
X143047619Y-105454819D02*
X143142857Y-105454819D01*
X143142857Y-105454819D02*
X143285714Y-105502438D01*
X143285714Y-105502438D02*
X143333333Y-105550057D01*
X143714286Y-105550057D02*
X143761905Y-105502438D01*
X143761905Y-105502438D02*
X143857143Y-105454819D01*
X143857143Y-105454819D02*
X144095238Y-105454819D01*
X144095238Y-105454819D02*
X144190476Y-105502438D01*
X144190476Y-105502438D02*
X144238095Y-105550057D01*
X144238095Y-105550057D02*
X144285714Y-105645295D01*
X144285714Y-105645295D02*
X144285714Y-105740533D01*
X144285714Y-105740533D02*
X144238095Y-105883390D01*
X144238095Y-105883390D02*
X143666667Y-106454819D01*
X143666667Y-106454819D02*
X144285714Y-106454819D01*
X133666666Y-103954819D02*
X133666666Y-104669104D01*
X133666666Y-104669104D02*
X133619047Y-104811961D01*
X133619047Y-104811961D02*
X133523809Y-104907200D01*
X133523809Y-104907200D02*
X133380952Y-104954819D01*
X133380952Y-104954819D02*
X133285714Y-104954819D01*
X134095238Y-104050057D02*
X134142857Y-104002438D01*
X134142857Y-104002438D02*
X134238095Y-103954819D01*
X134238095Y-103954819D02*
X134476190Y-103954819D01*
X134476190Y-103954819D02*
X134571428Y-104002438D01*
X134571428Y-104002438D02*
X134619047Y-104050057D01*
X134619047Y-104050057D02*
X134666666Y-104145295D01*
X134666666Y-104145295D02*
X134666666Y-104240533D01*
X134666666Y-104240533D02*
X134619047Y-104383390D01*
X134619047Y-104383390D02*
X134047619Y-104954819D01*
X134047619Y-104954819D02*
X134666666Y-104954819D01*
D12*
%TO.C,U2*%
X153490000Y-92535000D02*
X155490000Y-92535000D01*
X153500000Y-94815000D02*
X155500000Y-94815000D01*
X153130000Y-92605000D02*
X152850000Y-92605000D01*
X153130000Y-92325000D01*
X153130000Y-92605000D01*
G36*
X153130000Y-92605000D02*
G01*
X152850000Y-92605000D01*
X153130000Y-92325000D01*
X153130000Y-92605000D01*
G37*
%TO.C,SW1*%
X148410000Y-97100000D02*
X149910000Y-97100000D01*
X148410000Y-98600000D02*
X148410000Y-97100000D01*
X148650000Y-97900000D02*
X148650000Y-105780000D01*
X148650000Y-97900000D02*
X149046000Y-97900000D01*
X148650000Y-105780000D02*
X156350000Y-105780000D01*
X150874000Y-97900000D02*
X151587000Y-97900000D01*
X153414000Y-97900000D02*
X154127000Y-97900000D01*
X155954000Y-97900000D02*
X156350000Y-97900000D01*
X156350000Y-97900000D02*
X156350000Y-105780000D01*
%TO.C,C1*%
X145490000Y-103359420D02*
X145490000Y-103640580D01*
X146510000Y-103359420D02*
X146510000Y-103640580D01*
%TO.C,C3*%
X137265000Y-97738748D02*
X137265000Y-98261252D01*
X138735000Y-97738748D02*
X138735000Y-98261252D01*
%TO.C,D1*%
X139265000Y-92975000D02*
X139265000Y-95260000D01*
X139265000Y-95260000D02*
X140735000Y-95260000D01*
X140735000Y-95260000D02*
X140735000Y-92975000D01*
%TO.C,U3*%
X144000000Y-92215000D02*
X143200000Y-92215000D01*
X144000000Y-92215000D02*
X144800000Y-92215000D01*
X144000000Y-95335000D02*
X143200000Y-95335000D01*
X144000000Y-95335000D02*
X144800000Y-95335000D01*
X145540000Y-95615000D02*
X145060000Y-95615000D01*
X145300000Y-95285000D01*
X145540000Y-95615000D01*
G36*
X145540000Y-95615000D02*
G01*
X145060000Y-95615000D01*
X145300000Y-95285000D01*
X145540000Y-95615000D01*
G37*
%TO.C,R2*%
X139765000Y-98227064D02*
X139765000Y-97772936D01*
X141235000Y-98227064D02*
X141235000Y-97772936D01*
%TO.C,C4*%
X145265000Y-97738748D02*
X145265000Y-98261252D01*
X146735000Y-97738748D02*
X146735000Y-98261252D01*
%TO.C,J1*%
X134970000Y-84905000D02*
X134970000Y-90105000D01*
X152810000Y-87505000D02*
X152810000Y-90105000D01*
X152810000Y-90105000D02*
X134970000Y-90105000D01*
X155410000Y-84905000D02*
X134970000Y-84905000D01*
X155410000Y-84905000D02*
X155410000Y-87505000D01*
X155410000Y-87505000D02*
X152810000Y-87505000D01*
X155410000Y-88775000D02*
X155410000Y-90105000D01*
X155410000Y-90105000D02*
X154080000Y-90105000D01*
%TO.C,R3*%
X147265000Y-93635436D02*
X147265000Y-94089564D01*
X148735000Y-93635436D02*
X148735000Y-94089564D01*
%TO.C,R1*%
X143120000Y-97621359D02*
X143120000Y-97928641D01*
X143880000Y-97621359D02*
X143880000Y-97928641D01*
%TO.C,U1*%
X134990000Y-92885000D02*
X136990000Y-92885000D01*
X135000000Y-95165000D02*
X137000000Y-95165000D01*
X134630000Y-92955000D02*
X134350000Y-92955000D01*
X134630000Y-92675000D01*
X134630000Y-92955000D01*
G36*
X134630000Y-92955000D02*
G01*
X134350000Y-92955000D01*
X134630000Y-92675000D01*
X134630000Y-92955000D01*
G37*
%TO.C,R4*%
X150477500Y-93537742D02*
X150477500Y-94012258D01*
X151522500Y-93537742D02*
X151522500Y-94012258D01*
%TO.C,C2*%
X142990000Y-103359420D02*
X142990000Y-103640580D01*
X144010000Y-103359420D02*
X144010000Y-103640580D01*
%TO.C,J2*%
X134640000Y-100890000D02*
X134640000Y-102140000D01*
X134940000Y-101190000D02*
X134940000Y-105910000D01*
X134940000Y-102500000D02*
X135550000Y-102500000D01*
X134940000Y-103800000D02*
X135550000Y-103800000D01*
X134940000Y-105910000D02*
X141060000Y-105910000D01*
X135550000Y-101800000D02*
X135550000Y-105300000D01*
X135550000Y-105300000D02*
X140450000Y-105300000D01*
X135890000Y-100890000D02*
X134640000Y-100890000D01*
X136400000Y-100990000D02*
X136400000Y-101190000D01*
X136700000Y-100990000D02*
X136400000Y-100990000D01*
X136700000Y-101090000D02*
X136400000Y-101090000D01*
X136700000Y-101190000D02*
X136700000Y-100990000D01*
X137500000Y-101190000D02*
X137500000Y-101800000D01*
X137500000Y-101800000D02*
X135550000Y-101800000D01*
X137900000Y-104800000D02*
X138100000Y-104800000D01*
X137900000Y-105300000D02*
X137900000Y-104800000D01*
X138000000Y-105300000D02*
X138000000Y-104800000D01*
X138100000Y-104800000D02*
X138100000Y-105300000D01*
X138500000Y-101800000D02*
X138500000Y-101190000D01*
X140450000Y-101800000D02*
X138500000Y-101800000D01*
X140450000Y-105300000D02*
X140450000Y-101800000D01*
X141060000Y-101190000D02*
X134940000Y-101190000D01*
X141060000Y-102500000D02*
X140450000Y-102500000D01*
X141060000Y-103800000D02*
X140450000Y-103800000D01*
X141060000Y-105910000D02*
X141060000Y-101190000D01*
%TD*%
%LPC*%
D13*
%TO.C,U2*%
X153550000Y-92925000D03*
X153550000Y-93425000D03*
X153550000Y-93925000D03*
X153550000Y-94425000D03*
X155450000Y-94425000D03*
X155450000Y-93925000D03*
X155450000Y-93425000D03*
X155450000Y-92925000D03*
D14*
X154500000Y-93675000D03*
%TD*%
D15*
%TO.C,SW1*%
X149960000Y-103080000D03*
X155040000Y-103080000D03*
D16*
X149960000Y-98000000D03*
D15*
X152500000Y-98000000D03*
X155040000Y-98000000D03*
%TD*%
D17*
%TO.C,C1*%
X146000000Y-102725000D03*
X146000000Y-104275000D03*
%TD*%
D18*
%TO.C,C3*%
X138000000Y-97050000D03*
X138000000Y-98950000D03*
%TD*%
D19*
%TO.C,D1*%
X140000000Y-94562500D03*
X140000000Y-92987500D03*
%TD*%
D20*
%TO.C,U3*%
X145137500Y-94725000D03*
X145137500Y-93775000D03*
X145137500Y-92825000D03*
X142862500Y-92825000D03*
X142862500Y-94725000D03*
%TD*%
D21*
%TO.C,R2*%
X140500000Y-98912500D03*
X140500000Y-97087500D03*
%TD*%
D18*
%TO.C,C4*%
X146000000Y-97050000D03*
X146000000Y-98950000D03*
%TD*%
D22*
%TO.C,J1*%
X154080000Y-88775000D03*
D23*
X154080000Y-86235000D03*
X151540000Y-88775000D03*
X151540000Y-86235000D03*
X149000000Y-88775000D03*
X149000000Y-86235000D03*
X146460000Y-88775000D03*
X146460000Y-86235000D03*
X143920000Y-88775000D03*
X143920000Y-86235000D03*
X141380000Y-88775000D03*
X141380000Y-86235000D03*
X138840000Y-88775000D03*
X138840000Y-86235000D03*
X136300000Y-88775000D03*
X136300000Y-86235000D03*
%TD*%
D24*
%TO.C,R3*%
X148000000Y-92950000D03*
X148000000Y-94775000D03*
%TD*%
D25*
%TO.C,R1*%
X143500000Y-97265000D03*
X143500000Y-98285000D03*
%TD*%
D13*
%TO.C,U1*%
X135050000Y-93275000D03*
X135050000Y-93775000D03*
X135050000Y-94275000D03*
X135050000Y-94775000D03*
X136950000Y-94775000D03*
X136950000Y-94275000D03*
X136950000Y-93775000D03*
X136950000Y-93275000D03*
D14*
X136000000Y-94025000D03*
%TD*%
D26*
%TO.C,R4*%
X151000000Y-92950000D03*
X151000000Y-94600000D03*
%TD*%
D17*
%TO.C,C2*%
X143500000Y-102725000D03*
X143500000Y-104275000D03*
%TD*%
D27*
%TO.C,J2*%
X137000000Y-103000000D03*
D28*
X139000000Y-103000000D03*
%TD*%
%LPD*%
M02*
