%TF.GenerationSoftware,KiCad,Pcbnew,8.0.1*%
%TF.CreationDate,2024-03-24T19:04:35+02:00*%
%TF.ProjectId,PowerKiCad-CLRMAT005,506f7765-724b-4694-9361-642d434c524d,rev?*%
%TF.SameCoordinates,Original*%
%TF.FileFunction,Soldermask,Top*%
%TF.FilePolarity,Negative*%
%FSLAX46Y46*%
G04 Gerber Fmt 4.6, Leading zero omitted, Abs format (unit mm)*
G04 Created by KiCad (PCBNEW 8.0.1) date 2024-03-24 19:04:35*
%MOMM*%
%LPD*%
G01*
G04 APERTURE LIST*
G04 Aperture macros list*
%AMRoundRect*
0 Rectangle with rounded corners*
0 $1 Rounding radius*
0 $2 $3 $4 $5 $6 $7 $8 $9 X,Y pos of 4 corners*
0 Add a 4 corners polygon primitive as box body*
4,1,4,$2,$3,$4,$5,$6,$7,$8,$9,$2,$3,0*
0 Add four circle primitives for the rounded corners*
1,1,$1+$1,$2,$3*
1,1,$1+$1,$4,$5*
1,1,$1+$1,$6,$7*
1,1,$1+$1,$8,$9*
0 Add four rect primitives between the rounded corners*
20,1,$1+$1,$2,$3,$4,$5,0*
20,1,$1+$1,$4,$5,$6,$7,0*
20,1,$1+$1,$6,$7,$8,$9,0*
20,1,$1+$1,$8,$9,$2,$3,0*%
G04 Aperture macros list end*
%ADD10RoundRect,0.062500X-0.187500X-0.062500X0.187500X-0.062500X0.187500X0.062500X-0.187500X0.062500X0*%
%ADD11R,0.900000X1.600000*%
%ADD12C,1.200000*%
%ADD13R,1.200000X1.200000*%
%ADD14RoundRect,0.225000X-0.250000X0.225000X-0.250000X-0.225000X0.250000X-0.225000X0.250000X0.225000X0*%
%ADD15RoundRect,0.250000X-0.475000X0.250000X-0.475000X-0.250000X0.475000X-0.250000X0.475000X0.250000X0*%
%ADD16RoundRect,0.218750X0.256250X-0.218750X0.256250X0.218750X-0.256250X0.218750X-0.256250X-0.218750X0*%
%ADD17RoundRect,0.150000X0.512500X0.150000X-0.512500X0.150000X-0.512500X-0.150000X0.512500X-0.150000X0*%
%ADD18RoundRect,0.250000X0.450000X-0.262500X0.450000X0.262500X-0.450000X0.262500X-0.450000X-0.262500X0*%
%ADD19R,1.700000X1.700000*%
%ADD20O,1.700000X1.700000*%
%ADD21RoundRect,0.250000X-0.450000X0.262500X-0.450000X-0.262500X0.450000X-0.262500X0.450000X0.262500X0*%
%ADD22RoundRect,0.135000X-0.185000X0.135000X-0.185000X-0.135000X0.185000X-0.135000X0.185000X0.135000X0*%
%ADD23RoundRect,0.200000X-0.275000X0.200000X-0.275000X-0.200000X0.275000X-0.200000X0.275000X0.200000X0*%
%ADD24RoundRect,0.250000X-0.350000X-0.625000X0.350000X-0.625000X0.350000X0.625000X-0.350000X0.625000X0*%
%ADD25O,1.200000X1.750000*%
G04 APERTURE END LIST*
D10*
%TO.C,U2*%
X153550000Y-92925000D03*
X153550000Y-93425000D03*
X153550000Y-93925000D03*
X153550000Y-94425000D03*
X155450000Y-94425000D03*
X155450000Y-93925000D03*
X155450000Y-93425000D03*
X155450000Y-92925000D03*
D11*
X154500000Y-93675000D03*
%TD*%
D12*
%TO.C,SW1*%
X149960000Y-103080000D03*
X155040000Y-103080000D03*
D13*
X149960000Y-98000000D03*
D12*
X152500000Y-98000000D03*
X155040000Y-98000000D03*
%TD*%
D14*
%TO.C,C1*%
X146000000Y-102725000D03*
X146000000Y-104275000D03*
%TD*%
D15*
%TO.C,C3*%
X138000000Y-97050000D03*
X138000000Y-98950000D03*
%TD*%
D16*
%TO.C,D1*%
X140000000Y-94562500D03*
X140000000Y-92987500D03*
%TD*%
D17*
%TO.C,U3*%
X145137500Y-94725000D03*
X145137500Y-93775000D03*
X145137500Y-92825000D03*
X142862500Y-92825000D03*
X142862500Y-94725000D03*
%TD*%
D18*
%TO.C,R2*%
X140500000Y-98912500D03*
X140500000Y-97087500D03*
%TD*%
D15*
%TO.C,C4*%
X146000000Y-97050000D03*
X146000000Y-98950000D03*
%TD*%
D19*
%TO.C,J1*%
X154080000Y-88775000D03*
D20*
X154080000Y-86235000D03*
X151540000Y-88775000D03*
X151540000Y-86235000D03*
X149000000Y-88775000D03*
X149000000Y-86235000D03*
X146460000Y-88775000D03*
X146460000Y-86235000D03*
X143920000Y-88775000D03*
X143920000Y-86235000D03*
X141380000Y-88775000D03*
X141380000Y-86235000D03*
X138840000Y-88775000D03*
X138840000Y-86235000D03*
X136300000Y-88775000D03*
X136300000Y-86235000D03*
%TD*%
D21*
%TO.C,R3*%
X148000000Y-92950000D03*
X148000000Y-94775000D03*
%TD*%
D22*
%TO.C,R1*%
X143500000Y-97265000D03*
X143500000Y-98285000D03*
%TD*%
D10*
%TO.C,U1*%
X135050000Y-93275000D03*
X135050000Y-93775000D03*
X135050000Y-94275000D03*
X135050000Y-94775000D03*
X136950000Y-94775000D03*
X136950000Y-94275000D03*
X136950000Y-93775000D03*
X136950000Y-93275000D03*
D11*
X136000000Y-94025000D03*
%TD*%
D23*
%TO.C,R4*%
X151000000Y-92950000D03*
X151000000Y-94600000D03*
%TD*%
D14*
%TO.C,C2*%
X143500000Y-102725000D03*
X143500000Y-104275000D03*
%TD*%
D24*
%TO.C,J2*%
X137000000Y-103000000D03*
D25*
X139000000Y-103000000D03*
%TD*%
M02*
